<svg xmlns="http://www.w3.org/2000/svg" viewBox="0 0 436.28 63.86"><defs><style>.cls-1{fill:#bbbdbe;}.cls-2{fill:#393332;}</style></defs><g id="レイヤー_2" data-name="レイヤー 2"><g id="レイヤー_1-2" data-name="レイヤー 1"><rect class="cls-1" width="86.63" height="21.29"/><rect class="cls-1" y="42.57" width="86.63" height="21.29"/><path class="cls-2" d="M147.53,15.25c-1.82-8.93-3.73-12-13.95-12-4.34,0-7.89,1.21-10.31,3.29a8.09,8.09,0,0,0-3,6.59,10.57,10.57,0,0,0,3,6.93c2.25,2.17,5.54,4.08,11,6.85,6.76,3.46,11.88,5.46,15.6,9.7a16.4,16.4,0,0,1,3.64,10.23,15,15,0,0,1-4.85,11.52c-3.64,3.29-9.36,5.46-17.07,5.46a50.74,50.74,0,0,1-16.2-2.94,83.75,83.75,0,0,0-2.87-12.83l3-.78c2.77,10.66,7.62,13.26,16.8,13.26a17,17,0,0,0,10.41-3.21,11.06,11.06,0,0,0,4.42-9,10.77,10.77,0,0,0-2.78-7.71c-2.77-3.29-7.45-5.37-12.47-7.88-5.29-2.69-12.57-6.6-15.08-10.15a14.58,14.58,0,0,1-2.6-8.32,12.57,12.57,0,0,1,5.2-10.22C122.49,1.64,127.25,0,134,0a38.39,38.39,0,0,1,14.47,2.42c.52,3.55,1.3,8.24,2.09,12.14Z"/><path class="cls-2" d="M166.67,43.07c0-6.68,1.21-11,3.55-14a10.56,10.56,0,0,1,8.4-3.64c3.64,0,6.58,1.21,8.58,3.64,2.34,3,3.55,7.36,3.55,14,0,7-1.47,11.43-3.64,14.21a11.51,11.51,0,0,1-16.8,0C168.14,54.5,166.67,50.08,166.67,43.07ZM160.43,43c0,7.88,2.08,13.08,5.45,16.29,3.48,3,7.63,4.33,12.83,4.33,5.45,0,9.7-1.39,13.17-4.5,3.3-3.21,5.29-8.32,5.29-16.12,0-6.85-1.91-12.13-5.29-15.52-3.38-3.2-7.37-4.76-13.17-4.76-5.55,0-9.53,1.56-12.91,4.68C162.33,30.76,160.43,36.13,160.43,43Z"/><path class="cls-2" d="M208.75,26.43h-6.41V23.66h6.41V18.19c0-5.28,1.3-9.27,4.17-12.22a13.61,13.61,0,0,1,16.2-1.29c2.51,1.64,3.72,3.81,3.72,5.36,0,1.74-.87,2.7-2.43,2.7-2.07,0-2.85-1.83-3.81-3.73s-2.08-3.72-4.76-3.72a5.61,5.61,0,0,0-4.34,1.9c-1.73,2.08-2.77,5.2-2.77,11.36v5.11h11v2.77h-11V54.76c0,5.2.35,5.72,6.85,5.72v2.17H202.25V60.48c6.07,0,6.5-.6,6.5-5.89Z"/><path class="cls-2" d="M229.47,24.44c5.46-.52,9.21-2.61,10.32-11.7H242V23.66h9.19v2.77H242v28c0,4.07,1.21,6.15,4.24,6.15a8.55,8.55,0,0,0,5.38-2L253,60.48a12.19,12.19,0,0,1-8.5,3.12c-4.41,0-8.48-2.08-8.48-8.84V26.43h-6.51Z"/><path class="cls-2" d="M271.21,7.53c0-2.33.35-3,2.6-3h8.24c6.07,0,10,1.39,12.39,3.38a11.07,11.07,0,0,1,3.38,7.89c0,4.16-1.47,7.19-4,9.27-3.13,2.6-8,3.73-14,3.73h-8.67Zm-6.4,46c0,6.15-.53,6.58-7,6.58v2.52H286c9,0,14.13-2.08,17.51-5.37a16.1,16.1,0,0,0,4.85-12,13.17,13.17,0,0,0-5.55-10.66c-3.72-2.86-8.75-4.33-14.38-4.51V30c5.46-.77,9.1-2.51,11.7-4.84a13.18,13.18,0,0,0,4.33-10A12,12,0,0,0,299,5c-4.68-3.13-9.89-3.82-17.86-3.82h-23.3V3.72c6.49,0,7,.43,7,6.68Zm6.4-21.49H282c7.1,0,11.88,1.21,14.91,3.56a11.63,11.63,0,0,1,4.77,9.52c0,4.51-1.31,7.72-3.39,9.89-2.95,3-6.93,4.33-13.09,4.33H274.42c-2.69,0-3.21-.61-3.21-4.25Z"/><path class="cls-2" d="M337.21,55.81c-2.17,2.16-5.11,4.5-9.36,4.5a8,8,0,0,1-5.72-2.09,7.45,7.45,0,0,1-1.9-5.46c0-4,2.42-6.23,5.8-8,3.2-2,7.46-3.21,11.18-4.24Zm6-21.07c0-3.8-.61-6.15-2.86-8.66s-5.2-3.38-10.4-3.38a18.91,18.91,0,0,0-9.88,2.43c-2.77,1.64-4.5,4-4.5,6.06A2.33,2.33,0,0,0,318,33.71a2.84,2.84,0,0,0,3-2.09,10,10,0,0,1,2.69-4.24,8.89,8.89,0,0,1,5.89-2q4.29,0,6.24,2.6c1.12,1.47,1.39,4.07,1.39,6.06v3.73L332.1,39a37.72,37.72,0,0,0-12.83,4.93c-3.81,2.51-5.37,5.63-5.37,9.62A9.15,9.15,0,0,0,317.37,61a12.68,12.68,0,0,0,8,2.6,16.28,16.28,0,0,0,12.12-4.76h.26c.79,2.85,2.61,4.41,5.64,4.41A11.55,11.55,0,0,0,348.65,62l-.52-2a4.35,4.35,0,0,1-2.34.6c-1.73,0-2.6-1.73-2.6-5.62Z"/><path class="cls-2" d="M387.29,54.93c0,4.86.35,5.55,4.25,5.55v2.17H376.89V60.48c4.16,0,4.42-.52,4.42-5.72V35.44c0-3.38-.43-6.15-2.08-7.89a6.67,6.67,0,0,0-5-1.73c-3.64,0-7.54,3.29-11,8.06V54.76c0,5.2.09,5.72,4.16,5.72v2.17H352.2V60.48c4.67,0,5-.52,5-5.72v-21c0-5-.43-5.63-5-5.55v-1.9c3.81-.61,6.76-1.48,9.62-3.56l.86.52.35,6.67h.17c3.47-4.42,7.88-7.19,12.65-7.19,3.73,0,6.41,1,8.32,2.77s3.12,5,3.12,9.62Z"/><path class="cls-2" d="M407.6,41.33l12.39-12c2.34-2.17,2.94-3.47-1.22-3.47V23.66H431.6v2.16a7.71,7.71,0,0,0-5.89,2.6l-9.1,8.66,13.26,20.11c1.9,3,3.81,3.38,6.41,3.29v2.17H426.4L412.28,40.81l-4.86,4.77v9.18c0,5,.18,5.72,4.95,5.72v2.17H396.25V60.48c5,0,5.19-.69,5.19-5.72V13.69c0-5-.52-5.63-5.19-5.63V6.15a24.84,24.84,0,0,0,10.4-3.55l.77.52V41.33Z"/></g></g></svg>