<svg id="コンポーネント_21_2" data-name="コンポーネント 21 – 2" xmlns="http://www.w3.org/2000/svg" width="72" height="72" viewBox="0 0 72 72">
  <rect id="長方形_11179" data-name="長方形 11179" width="72" height="72" fill="#f2f2f2" opacity="0"/>
  <g id="グループ_86077" data-name="グループ 86077" transform="translate(-64.131 -362.394)">
    <path id="パス_142998" data-name="パス 142998" d="M126.738,427.389H113.55a1,1,0,0,1-1-1V384.4a1,1,0,0,1,1-1h13.188a1,1,0,0,1,1,1v41.993A1,1,0,0,1,126.738,427.389Zm-12.188-2h11.188V385.4H114.55Z" fill="#237cd5"/>
    <path id="パス_142999" data-name="パス 142999" d="M107.881,427.389H94.693a1,1,0,0,1-1-1V393.277a1,1,0,0,1,1-1h13.188a1,1,0,0,1,1,1v33.112A1,1,0,0,1,107.881,427.389Zm-12.188-2h11.188V394.277H95.693Z" fill="#237cd5"/>
    <path id="パス_143000" data-name="パス 143000" d="M89.025,427.389H75.837a1,1,0,0,1-1-1V401.623a1,1,0,0,1,1-1H89.025a1,1,0,0,1,1,1v24.766A1,1,0,0,1,89.025,427.389Zm-12.188-2H88.025V402.623H76.837Z" fill="#237cd5"/>
    <path id="パス_143001" data-name="パス 143001" d="M73.524,395.229a1,1,0,0,1-.62-1.784l8.791-6.941a1,1,0,0,1,1-.14l6.728,2.776,10.41-8.749a1,1,0,0,1,1.027-.157l6.946,2.885,15.034-13.127a1,1,0,0,1,1.315,1.507l-15.5,13.535a1,1,0,0,1-1.041.17l-6.958-2.89-10.408,8.748a1,1,0,0,1-1.025.159l-6.747-2.785-8.332,6.578A1,1,0,0,1,73.524,395.229Z" fill="#237cd5"/>
    <path id="パス_143002" data-name="パス 143002" d="M124.193,377.53a1,1,0,0,1-1-1V371.4h-5.132a1,1,0,1,1,0-2h6.132a1,1,0,0,1,1,1v6.132A1,1,0,0,1,124.193,377.53Z" fill="#237cd5"/>
  </g>
</svg>
