<svg xmlns="http://www.w3.org/2000/svg" width="264.1" height="100.4" viewBox="0 0 264.1 100.4">
  <g id="アートワーク_29" data-name="アートワーク 29" transform="translate(132.05 50.2)">
    <g id="グループ_78475" data-name="グループ 78475" transform="translate(-132.05 -50.2)">
      <g id="グループ_78473" data-name="グループ 78473">
        <path id="パス_94171" data-name="パス 94171" d="M19.8,34.7c0,4,.2,4.4,5.3,4.4v2H8.9v-2c5.1,0,5.3-.4,5.3-4.4V2.6h-7c-3.4,0-3.8.3-5,6.9H0L1.3,0H32.7L34,9.5H31.7c-1.2-6.7-1.7-6.9-5-6.9H19.8Z"/>
        <path id="パス_94172" data-name="パス 94172" d="M37,26.7c0,3.7.5,6.8,2,9.2a7.3,7.3,0,0,0,6.3,3.5,8.8,8.8,0,0,0,5.3-1.7A9.6,9.6,0,0,0,53.7,34l1.9,1a13.4,13.4,0,0,1-3.9,4.5,12.2,12.2,0,0,1-7.3,2.2c-4,0-7.5-1.2-9.9-4s-3.2-6.1-3.2-11.3a15.4,15.4,0,0,1,3.9-10.7,12.2,12.2,0,0,1,8.6-3.2A10.9,10.9,0,0,1,52.4,16a17.2,17.2,0,0,1,3.2,10.6Zm12.9-2.1c0-2.8-.5-5.7-1.7-7.5a5.2,5.2,0,0,0-4.5-2.4,5.9,5.9,0,0,0-4.6,2.4A13.7,13.7,0,0,0,37,24.6Z"/>
        <path id="パス_94173" data-name="パス 94173" d="M84.8,35.3c0,3.5.3,4.1,3,4.1v1.7H76.3V39.4c2.8,0,3-.4,3-4.2V21.7c0-2.3-.3-4.2-1.4-5.3a4.3,4.3,0,0,0-3.4-1.2c-2.4,0-5,2.2-7.4,5.5V35.1c0,3.8.1,4.2,2.8,4.2V41H58.2V39.4c3.3,0,3.5-.4,3.5-4.2V20.9c0-3.7-.3-4.2-3.5-4.1V15.2a20.4,20.4,0,0,0,7.9-2.6l.8.4.2,4.6h.1c2.5-3.1,5.7-5,9.2-5s4.8.6,6.1,2,2.3,3.6,2.3,7Z"/>
        <path id="パス_94174" data-name="パス 94174" d="M112,35.4c0,2.8.6,4,1.9,4a3.5,3.5,0,0,0,1.7-.5l.3,1.7a10.2,10.2,0,0,1-4.3.8c-2.6,0-3.9-1-4.6-3.1h-.2A11.9,11.9,0,0,1,98,41.7,9.4,9.4,0,0,1,92.2,40a6.6,6.6,0,0,1-2.6-5.4,7.7,7.7,0,0,1,3.9-6.9,28.1,28.1,0,0,1,9.3-3.4l3.7-.9V20.7a8.5,8.5,0,0,0-.9-4.2,4.8,4.8,0,0,0-4.2-1.8,5.6,5.6,0,0,0-4,1.5,7.6,7.6,0,0,0-1.9,3A2.4,2.4,0,0,1,93,20.8a1.9,1.9,0,0,1-2.1-2.1c0-1.6,1.3-3.3,3.3-4.5a15.7,15.7,0,0,1,7.6-1.6c4.2,0,6.4.8,8.1,2.6s2.1,3.7,2.1,6.4Zm-5.5-10a27.9,27.9,0,0,0-7.4,2.9c-2.2,1.3-3.8,2.9-3.8,5.6a5.2,5.2,0,0,0,1.3,3.8,4.8,4.8,0,0,0,3.8,1.5,8.8,8.8,0,0,0,6.1-3Z"/>
        <path id="パス_94175" data-name="パス 94175" d="M141.6,35.7a15.3,15.3,0,0,1-4.2,4.3,12.1,12.1,0,0,1-6.7,1.9,12.8,12.8,0,0,1-9.1-3.2c-2.8-2.8-4.1-7.1-4.1-11.6s1.3-7.9,3.5-10.2a14.409,14.409,0,0,1,10-4.2,11.8,11.8,0,0,1,7.5,2.3,4.5,4.5,0,0,1,2.1,3.7c0,1.3-.6,2.3-1.9,2.3a2.4,2.4,0,0,1-1.6-.6,11.5,11.5,0,0,1-1.6-2.6A4.6,4.6,0,0,0,131,15a6.7,6.7,0,0,0-5.7,3.4c-1.3,2-2.2,4.7-2.2,8.9a17,17,0,0,0,2,8.9,7.6,7.6,0,0,0,6.4,3.5,8.5,8.5,0,0,0,4.7-1.3,11.3,11.3,0,0,0,3.3-3.5Z"/>
        <path id="パス_94176" data-name="パス 94176" d="M153.9,35.1c0,3.7.3,4.2,4.2,4.2V41h-14V39.4c4.2,0,4.4-.5,4.4-4.2V20.7c0-3.7-.2-3.9-4.4-3.9V15.2a26,26,0,0,0,9.2-2.6l.6.3Zm-3-33.5c1.7,0,3.2,1.5,3.2,3.9s-1.5,3.9-3.3,3.9-3.3-1.5-3.3-3.9,1.5-3.9,3.3-3.9Z"/>
        <path id="パス_94177" data-name="パス 94177" d="M160,13.8c4.1-.4,5.9-2.9,7.3-8.7H169v8.2h6.8v2.1H169V34.7c0,3.2,1,4.6,3.1,4.6a6.2,6.2,0,0,0,3.9-1.5l1.1,1.6a9.8,9.8,0,0,1-6.7,2.3c-3.5,0-6.8-1.6-6.8-7V15.4H160Z"/>
        <path id="パス_94178" data-name="パス 94178" d="M181.4,18.8c-1.6-3.6-2-3.8-4.2-3.8V13.3h11.9V15c-3,0-3.3.6-2.1,3.2l7.2,16.6h.1l7.1-17.5c.8-1.8.5-2.3-2.3-2.3V13.3h8.5V15c-1.9,0-2.4.3-3.5,2.8L191.6,48a17.5,17.5,0,0,1-3.7,5.7,7.5,7.5,0,0,1-5.5,2.3,7.8,7.8,0,0,1-4.5-1.3,3.6,3.6,0,0,1-1.7-2.8A1.8,1.8,0,0,1,178,50a3.1,3.1,0,0,1,2.8,1.9c.6,1,1.2,1.9,2.4,1.9s4.5-3.5,5.6-5.9l2.7-7.1Z"/>
      </g>
      <g id="グループ_78474" data-name="グループ 78474">
        <path id="パス_94179" data-name="パス 94179" d="M2.3,73.3H9.8c2.8,0,4.4.2,5.9,1.2a3.8,3.8,0,0,1,1.7,3.3A4.2,4.2,0,0,1,16,81a7.2,7.2,0,0,1-4,1.6h0A8,8,0,0,1,16.7,84a4,4,0,0,1,1.8,3.5A5.2,5.2,0,0,1,17,91.4c-1.1,1.1-2.8,1.7-5.8,1.7H2.3v-1c2.1,0,2.3-.2,2.3-2.2V76.4c0-2-.2-2.2-2.3-2.2Zm5,8.8H9.5A6.2,6.2,0,0,0,13.4,81a3.9,3.9,0,0,0,1.2-3,3.5,3.5,0,0,0-1-2.5,5,5,0,0,0-3.4-1H8.1c-.8,0-.9.2-.9,1Zm0,8.5c0,1.1.2,1.3,1.1,1.3H11a4.6,4.6,0,0,0,3.6-1.3,4.6,4.6,0,0,0,1-3.2,3.7,3.7,0,0,0-1.4-3.1A6.8,6.8,0,0,0,10,83.2H7.3Z"/>
        <path id="パス_94180" data-name="パス 94180" d="M23,86.2a8.1,8.1,0,0,0,1,4.5,3.5,3.5,0,0,0,3,1.7,4.3,4.3,0,0,0,2.6-.8,4.6,4.6,0,0,0,1.5-1.8l.9.5a6.5,6.5,0,0,1-1.9,2.2,5.9,5.9,0,0,1-3.5,1.1,6.1,6.1,0,0,1-4.8-1.9,8.6,8.6,0,0,1-1.5-5.5A7.4,7.4,0,0,1,22.2,81a5.9,5.9,0,0,1,4.1-1.6,5.3,5.3,0,0,1,4.1,1.7,8.3,8.3,0,0,1,1.5,5.1Zm6.2-1a7,7,0,0,0-.8-3.6,2.5,2.5,0,0,0-2.2-1.2A2.8,2.8,0,0,0,24,81.5a6.6,6.6,0,0,0-1,3.6Z"/>
        <path id="パス_94181" data-name="パス 94181" d="M38.2,90.2c0,1.8.1,2,2,2V93H33.4v-.8c2,0,2.1-.3,2.1-2v-7c0-1.8-.1-1.9-2.1-1.9v-.8a12.6,12.6,0,0,0,4.5-1.3l.3.2ZM36.7,74A1.9,1.9,0,1,1,35,75.9,1.7,1.7,0,0,1,36.7,74Z"/>
        <path id="パス_94182" data-name="パス 94182" d="M54.1,90.3c0,1.7.1,2,1.4,2v.8H50.1v-.8c1.4,0,1.5-.2,1.5-2V83.7a3.7,3.7,0,0,0-.7-2.6,2.1,2.1,0,0,0-1.6-.6c-1.1,0-2.4,1.1-3.6,2.7v7c0,1.8.1,2,1.4,2V93H41.3v-.8c1.6,0,1.7-.2,1.7-2V83.3c0-1.8-.2-2-1.7-2v-.8a9.9,9.9,0,0,0,3.8-1.3l.4.2v2.2h.1A5.8,5.8,0,0,1,50,79.2a4.1,4.1,0,0,1,3,1,4.3,4.3,0,0,1,1.1,3.4Z"/>
        <path id="パス_94183" data-name="パス 94183" d="M64.6,91.5c4.3,0,5.7,1.9,5.7,3.9s-2.9,5-7.5,5-6.5-1.2-6.5-3.5,1.6-3,3.2-3.7c-1.1-.3-2.2-.9-2.2-2.2s1-2,2.2-2.6a4.7,4.7,0,0,1-2.2-4.1c0-3.2,2.5-5,5.8-5a7.5,7.5,0,0,1,3.5.8l3.9-.4v1.4l-2.9-.2A4.4,4.4,0,0,1,69,84.2c0,3.4-2.7,5-5.7,5a7.5,7.5,0,0,1-2.8-.5q-1.2.75-1.2,1.5c0,.5.8,1.2,2.5,1.2Zm-3.9,2c-1.4.9-2.2,1.8-2.2,3s1.7,2.8,4.5,2.8,5-1.6,5-3.3-.7-2.5-3.8-2.5ZM63,88.3c2,0,3.1-1.6,3.1-4s-1-3.9-3.2-3.9-3.1,1.9-3.1,3.9S61,88.3,63,88.3Z"/>
        <path id="パス_94184" data-name="パス 94184" d="M78.1,79.9c2-.2,2.9-1.4,3.5-4.2h.8v3.9h3.3v1H82.4V90c0,1.5.5,2.2,1.5,2.2a3,3,0,0,0,1.9-.7l.5.8a4.7,4.7,0,0,1-3.2,1.1c-1.7,0-3.3-.8-3.3-3.4V80.7H78.1Z"/>
        <path id="パス_94185" data-name="パス 94185" d="M89.9,86.2a8.1,8.1,0,0,0,1,4.5,3.5,3.5,0,0,0,3,1.7,4.3,4.3,0,0,0,2.6-.8A4.6,4.6,0,0,0,98,89.8l.9.5A6.5,6.5,0,0,1,97,92.4a5.9,5.9,0,0,1-3.5,1.1,6.1,6.1,0,0,1-4.8-1.9,8.6,8.6,0,0,1-1.5-5.5,7.4,7.4,0,0,1,1.9-5.2,5.9,5.9,0,0,1,4.1-1.6A5.3,5.3,0,0,1,97.3,81a8.3,8.3,0,0,1,1.5,5.1Zm6.2-1a7,7,0,0,0-.8-3.6,2.5,2.5,0,0,0-2.2-1.2A2.8,2.8,0,0,0,91,81.5a6.6,6.6,0,0,0-1,3.6Z"/>
        <path id="パス_94186" data-name="パス 94186" d="M113.6,90.3c0,1.7.1,2,1.4,2v.8h-5.5v-.8c1.4,0,1.5-.2,1.5-2V83.7a3.7,3.7,0,0,0-.7-2.6,2.1,2.1,0,0,0-1.6-.6c-1.1,0-2.4,1.1-3.6,2.7v7c0,1.8.1,2,1.4,2V93h-5.7v-.8c1.6,0,1.7-.2,1.7-2V83.3c0-1.8-.2-2-1.7-2v-.8a9.9,9.9,0,0,0,3.8-1.3l.4.2v2.2h.1a5.8,5.8,0,0,1,4.4-2.4,4.1,4.1,0,0,1,3,1,4.3,4.3,0,0,1,1.1,3.4Z"/>
        <path id="パス_94187" data-name="パス 94187" d="M126.7,90.3c0,1.4.3,1.9.9,1.9l.8-.2.2.8a4.9,4.9,0,0,1-2.1.4,2.1,2.1,0,0,1-2.2-1.5h-.1a5.7,5.7,0,0,1-4.3,1.7,4.6,4.6,0,0,1-2.8-.9,3.2,3.2,0,0,1-1.2-2.6,3.7,3.7,0,0,1,1.9-3.3,13.6,13.6,0,0,1,4.5-1.7l1.8-.4V83.3a4.1,4.1,0,0,0-.4-2,2.3,2.3,0,0,0-2-.9,2.7,2.7,0,0,0-1.9.7,3.7,3.7,0,0,0-.9,1.4,1.1,1.1,0,0,1-1.2.8.9.9,0,0,1-1-1,2.8,2.8,0,0,1,1.6-2.2,7.6,7.6,0,0,1,3.7-.8c2,0,3.1.4,3.9,1.2a4.2,4.2,0,0,1,1,3.1Zm-2.6-4.8a13.5,13.5,0,0,0-3.6,1.4,3,3,0,0,0-1.8,2.7,2.5,2.5,0,0,0,.6,1.8,2.3,2.3,0,0,0,1.8.7,4.2,4.2,0,0,0,3-1.4Z"/>
        <path id="パス_94188" data-name="パス 94188" d="M141,90.5a7.4,7.4,0,0,1-2,2.1,5.8,5.8,0,0,1-3.2.9,6.2,6.2,0,0,1-4.4-1.6,7.8,7.8,0,0,1-2-5.6,6.9,6.9,0,0,1,1.7-4.9,6,6,0,0,1,4.8-2,5.7,5.7,0,0,1,3.6,1.1,2.2,2.2,0,0,1,1,1.8c0,.6-.3,1.1-.9,1.1a1.2,1.2,0,0,1-.8-.3,5.6,5.6,0,0,1-.8-1.3,2.2,2.2,0,0,0-2.2-1.4,3.2,3.2,0,0,0-2.7,1.6,7.4,7.4,0,0,0-1.1,4.3,8.2,8.2,0,0,0,1,4.3,3.7,3.7,0,0,0,3.1,1.7,4.1,4.1,0,0,0,2.3-.6A5.4,5.4,0,0,0,140,90Z"/>
        <path id="パス_94189" data-name="パス 94189" d="M147,90.2c0,1.8.1,2,2,2V93h-6.8v-.8c2,0,2.1-.3,2.1-2v-7c0-1.8-.1-1.9-2.1-1.9v-.8a12.6,12.6,0,0,0,4.5-1.3l.3.2ZM145.5,74a1.9,1.9,0,1,1-1.6,1.9,1.7,1.7,0,0,1,1.6-1.9Z"/>
        <path id="パス_94190" data-name="パス 94190" d="M156.9,93.5a6.7,6.7,0,0,1-4.6-1.5c-1.2-1.1-2-2.9-2-5.7a7.2,7.2,0,0,1,1.9-5.4,6.4,6.4,0,0,1,4.7-1.6,6.6,6.6,0,0,1,4.7,1.7,7.2,7.2,0,0,1,1.8,5.3c0,2.7-.7,4.5-1.8,5.5a6.7,6.7,0,0,1-4.8,1.6Zm0-13.1a3.2,3.2,0,0,0-2.7,1.2c-.8,1-1.1,2.5-1.1,4.8a8.2,8.2,0,0,0,1.2,4.9,3.6,3.6,0,0,0,5.3,0,8.314,8.314,0,0,0,1.2-4.9c0-2.4-.4-3.8-1.1-4.8a3.2,3.2,0,0,0-2.7-1.2Z"/>
        <path id="パス_94191" data-name="パス 94191" d="M178.9,93.1H177l-2,.3h-.3v-2h-.1a5.5,5.5,0,0,1-4.3,2,4.1,4.1,0,0,1-2.9-.9,5.2,5.2,0,0,1-1.3-3.9V83.2c0-1.7-.1-1.9-1.5-1.9v-.8a11.8,11.8,0,0,0,3.8-1.3l.4.2v8.8a5,5,0,0,0,.6,3,2.1,2.1,0,0,0,1.8.8,4.3,4.3,0,0,0,3.3-2.1V83.2c0-1.7-.1-1.9-1.5-1.9v-.8a11.4,11.4,0,0,0,3.8-1.3l.4.2V90.3c0,1.8.1,2,1.7,2Z"/>
        <path id="パス_94192" data-name="パス 94192" d="M188.4,83.1c-.4-2.1-1.3-2.7-3-2.7a3.5,3.5,0,0,0-1.9.5,1.5,1.5,0,0,0-.8,1.4,2.2,2.2,0,0,0,1.1,1.7c.9.5,2.3,1,2.9,1.4A7.5,7.5,0,0,1,189,87a3.4,3.4,0,0,1,1.1,2.4,3.5,3.5,0,0,1-1.4,2.9,6.8,6.8,0,0,1-4.1,1.2,10.3,10.3,0,0,1-4.3-.8,24.6,24.6,0,0,0-.6-3.2l.9-.2c.7,2.5,1.9,3.2,3.8,3.2a3.7,3.7,0,0,0,2.3-.7,2.3,2.3,0,0,0,.8-1.7,2,2,0,0,0-.6-1.4A13.6,13.6,0,0,0,184,87a14.3,14.3,0,0,1-3-2,3.5,3.5,0,0,1-.8-2.3,2.8,2.8,0,0,1,1.3-2.4,6.4,6.4,0,0,1,3.8-1,10.1,10.1,0,0,1,3.6.6,25.8,25.8,0,0,0,.5,2.9Z"/>
        <path id="パス_94193" data-name="パス 94193" d="M203.5,90.2c0,1.8.1,2,2,2V93h-6.8v-.8c2,0,2.1-.3,2.1-2v-7c0-1.8-.1-1.9-2.1-1.9v-.8a12.6,12.6,0,0,0,4.5-1.3l.3.2ZM202,74a1.9,1.9,0,1,1-1.6,1.9A1.7,1.7,0,0,1,202,74Z"/>
        <path id="パス_94194" data-name="パス 94194" d="M215.2,83.1c-.4-2.1-1.3-2.7-3-2.7a3.5,3.5,0,0,0-1.9.5,1.5,1.5,0,0,0-.8,1.4,2.2,2.2,0,0,0,1.1,1.7c.9.5,2.3,1,2.9,1.4a7.5,7.5,0,0,1,2.3,1.6,3.4,3.4,0,0,1,1.1,2.4,3.5,3.5,0,0,1-1.4,2.9,6.8,6.8,0,0,1-4.1,1.2,10.3,10.3,0,0,1-4.3-.8,24.5,24.5,0,0,0-.6-3.2l.9-.2c.7,2.5,1.9,3.2,3.8,3.2a3.7,3.7,0,0,0,2.3-.7,2.3,2.3,0,0,0,.8-1.7,2,2,0,0,0-.6-1.4,13.6,13.6,0,0,0-2.9-1.7,14.3,14.3,0,0,1-3-2,3.5,3.5,0,0,1-.8-2.3,2.8,2.8,0,0,1,1.3-2.4,6.4,6.4,0,0,1,3.8-1,10.1,10.1,0,0,1,3.6.6,26.008,26.008,0,0,0,.5,2.9Z"/>
        <path id="パス_94195" data-name="パス 94195" d="M227.5,80.7h-2v-1h2V77.8a5.6,5.6,0,0,1,1.5-4.2,4.8,4.8,0,0,1,3.3-1.2,4.6,4.6,0,0,1,2.7.8,2.4,2.4,0,0,1,1.3,1.9.9.9,0,0,1-1,1.1c-.8,0-1.1-.7-1.4-1.4s-.6-1.3-1.5-1.3a1.7,1.7,0,0,0-1.3.6c-.6.7-.9,1.8-.9,3.8v1.8h3.6v1h-3.6v9.5c0,1.9.1,2,2.3,2V93h-7v-.8c2,0,2.1-.2,2.1-2.1Z"/>
        <path id="パス_94196" data-name="パス 94196" d="M249,93.1h-1.9l-2,.3h-.3v-2h-.1a5.5,5.5,0,0,1-4.3,2,4.1,4.1,0,0,1-2.9-.9,5.2,5.2,0,0,1-1.3-3.9V83.2c0-1.7-.1-1.9-1.5-1.9v-.8a11.8,11.8,0,0,0,3.8-1.3l.4.2v8.8a5,5,0,0,0,.6,3,2.2,2.2,0,0,0,1.8.8,4.3,4.3,0,0,0,3.3-2.1V83.2c0-1.7-.1-1.9-1.5-1.9v-.8a11.4,11.4,0,0,0,3.8-1.3l.4.2V90.3c0,1.8.1,2,1.7,2Z"/>
        <path id="パス_94197" data-name="パス 94197" d="M262.7,90.3c0,1.7.1,2,1.4,2v.8h-5.5v-.8c1.4,0,1.5-.2,1.5-2V83.7a3.7,3.7,0,0,0-.7-2.6,2.1,2.1,0,0,0-1.6-.6c-1.1,0-2.4,1.1-3.6,2.7v7c0,1.8.1,2,1.4,2V93h-5.7v-.8c1.6,0,1.7-.2,1.7-2V83.3c0-1.8-.2-2-1.7-2v-.8a9.9,9.9,0,0,0,3.8-1.3l.4.2v2.2h.1a5.8,5.8,0,0,1,4.4-2.4,4.1,4.1,0,0,1,3,1,4.3,4.3,0,0,1,1.1,3.4Z"/>
      </g>
    </g>
  </g>
</svg>
