<svg xmlns="http://www.w3.org/2000/svg" width="325.3" height="102.4" viewBox="0 0 325.3 102.4">
  <g id="アートワーク_18" data-name="アートワーク 18" transform="translate(162.65 51.2)">
    <g id="グループ_78216" data-name="グループ 78216" transform="translate(-162.65 -51.2)">
      <g id="グループ_78214" data-name="グループ 78214">
        <path id="パス_86333" data-name="パス 86333" d="M17.1,3.3H4.7V41.4H2V.6H17.1Z"/>
        <path id="パス_86334" data-name="パス 86334" d="M40,1c.5.1,1.2.3,1.2.8s-.8,1-2.1,1.5V7.5H43l2.6-3.1,4.6,3.4V9h-11v8h5l3-3.7,5.1,4v1.3H43.8l2.7.9a1.3,1.3,0,0,1,.8.9c0,.5-.2.6-2.1,1-3.1,5.1-3.5,5.7-4.6,7.3h4.2l2.7-3.2L52.1,29v1.3H39V38h4.5l2.8-3.3,4.6,3.7v1.2H39V52.1l-4.9.8V39.5H25.8L25,37.9h9V30.3H24.8l-.9-1.6H38.5A75.7,75.7,0,0,0,41,18.6H24.4L23.5,17H34.2V9H25.8l-.7-1.6h9.1V.4ZM28.3,19c4.6,1.9,6.1,4.5,6.1,6.6a2.6,2.6,0,0,1-2.7,2.8c-1.5,0-1.7-1.2-2.1-3.6a12.2,12.2,0,0,0-2.3-5.5Zm37.4-4.9h-5v6a90.2,90.2,0,0,1-.5,9.2c3.5,3.1,5,5.2,5,7.7,0,.5-.1,3-1.9,3s-1-.1-1.7-1.5a29.7,29.7,0,0,0-2.3-4.2c-2.1,8.1-5.9,13.6-15.7,18.6l-.7-1a26.2,26.2,0,0,0,9.9-11.3,30.5,30.5,0,0,0,2.7-10.8,46.7,46.7,0,0,0-5.9-5.5l.6-.9a56.8,56.8,0,0,1,5.5,2.9c.1-1.7.1-2.7.1-4V14.1H50.5L50,12.5h6V.7l5.6.6c.4.1,1.3.3,1.3.8s-.8,1-2.2,1.7v8.8h4.6l2-2.7L71.4,13c.5.3.9.7.9,1s-.6.9-2.2,1.5V26.3a66.2,66.2,0,0,0,1.8,16.6l.8-1.8,1.2-3.5.9-2.4,1.1.4-1.3,7.7a25.6,25.6,0,0,0-.3,2.6,8.2,8.2,0,0,0,2,4.9,3,3,0,0,1-2.8,1.6c-3.4,0-7.8-6.2-7.8-25.3Z"/>
        <path id="パス_86335" data-name="パス 86335" d="M111.1,1.9c.3.1,1,.4,1,.9s-.9.9-1.6,1c6.1,6.8,12.3,11.3,25,14.6v1.2c-2.3.5-3.2,1.2-4.6,3.7-4.6-2.3-15-7.6-21.6-19.1L108,5.6c-3.3,3.9-10,11.9-24.4,17.9l-.8-1.2c8.1-4.4,14.8-9.5,22.7-22.3ZM91.5,35.3a28.693,28.693,0,0,1,.2,3.5c0,5.7-2.8,9.7-6.2,9.7A2.5,2.5,0,0,1,83,46.1c0-1.7,1-2.3,3.3-3.7a7.9,7.9,0,0,0,4-7.1Zm25.9-10.8H90.9l-.6-1.6h27.4l1.4-2.1,4.6,2.8c.3.2.9.6.9,1s-.4.7-2.8,1.3c-.5,1.6-1.9,5.6-3.2,9.4l-4.9-1c.9-2.2,1.6-4.2,3-7.8ZM120.3,40h1.1a25.351,25.351,0,0,0-.1,2.6c0,3.9.7,4.3,2.9,4.8-.9,3.4-2.3,4.3-6.3,4.3H101.5c-1.9,0-4.8-.2-4.8-4.6V35l5.4.7c.3.1,1.4.3,1.4.9s-.6.8-2,1.3v7.9c0,1.4.4,1.8,1.8,1.8h11c2.4,0,3.5-.3,4.3-2.6Zm-9.6-23.4,3.1-3.2,4.7,3.5v1.3H98.1l-.8-1.6Zm-4,19.9a11.5,11.5,0,0,0-4.2-4.7l.6-.9c6.7,1.7,9.7,5.2,9.7,7.7a2.6,2.6,0,0,1-2.4,2.8,2.4,2.4,0,0,1-2.1-1.4Zm16.4-1.7c2.6,1,6.2,2.4,9.1,5.6.8.9,2.5,2.8,2.5,5.2s-.9,3.1-2.4,3.1-2.8-2.5-3.3-4.1c-1.4-4.6-3.1-6.3-6.5-8.9Z"/>
        <path id="パス_86336" data-name="パス 86336" d="M141.1,49.8h12.4V11.7h2.7V52.5H141.1Z"/>
      </g>
      <g id="グループ_78215" data-name="グループ 78215">
        <path id="パス_86337" data-name="パス 86337" d="M6.4,83H7.7A21.592,21.592,0,0,0,8,80.1c0-.5-.1-1.1-2-1.3v-.5H7.4c1.5,0,3.7.7,3.7,1.4s-.1.3-.4.7a6.9,6.9,0,0,0-.9,2.4l1.8-.3c3.4-.6,3.6-.7,4-1l.7-.4c.6,0,1.8,1,1.8,1.6s-.1.5-1.4.8-3.4.6-7.5,1.1A27.4,27.4,0,0,0,8.7,88a19.2,19.2,0,0,1,4.8-.4,1.5,1.5,0,0,0,.1-.6,1.39,1.39,0,0,0-1-1.2l.3-.5c.8.3,2.4.8,2.4,2v.5A9.7,9.7,0,0,1,19.1,89a6.2,6.2,0,0,1,2.6,5.2,6.9,6.9,0,0,1-4.4,6.5A18.9,18.9,0,0,1,9.9,102v-.7A18.1,18.1,0,0,0,16,99.5a6.7,6.7,0,0,0,3.4-5.8,5.1,5.1,0,0,0-1.8-4A6,6,0,0,0,15,88.6a32.2,32.2,0,0,1-5.3,7.5l.4.9a2.1,2.1,0,0,1,.2.9,1,1,0,0,1-1.1,1c-.7,0-1-.6-1.2-1.1-1.9,1.7-3.7,2.9-5.2,2.9S0,98.6,0,96.5a8.2,8.2,0,0,1,2.5-5.6,11.2,11.2,0,0,1,4.6-2.7c.1-1.3.3-2.6.4-3.7l-2.8.2c-1.5,0-2.1-.1-3.4-3.1l.5-.3c1,1.2,1.4,1.7,2.7,1.7Zm.5,8.2c0-.6.1-1.5.1-1.8s-4.9,2.3-4.9,6.5c0,2.2,1.1,2.5,1.5,2.5A13.419,13.419,0,0,0,7.4,96a20.8,20.8,0,0,1-.5-4.8Zm2.2,3a26.8,26.8,0,0,0,4-5.8,16.5,16.5,0,0,0-4.4.4,19,19,0,0,0,.5,5.4Z"/>
        <path id="パス_86338" data-name="パス 86338" d="M28.3,82.2a2.7,2.7,0,0,0,2.5,1.1,44.3,44.3,0,0,0,5.4-.8c-1.3-3.2-1.4-3.5-3.6-3.7v-.6H34c2.1,0,3.7.5,3.7,1.1a1.731,1.731,0,0,1-.1.7,10.8,10.8,0,0,0,.4,2.1,25.962,25.962,0,0,0,3.9-1.2c.7-.4.7-.6.9-.6s1.7.8,1.7,1.3-.2.4-.7.6a41.9,41.9,0,0,1-5.2,1.5l1.3,2.7A39.2,39.2,0,0,0,44.7,85l1.1-.5c.7,0,1.7.8,1.7,1.4s-.2.4-1.1.7L40.8,88a34.3,34.3,0,0,0,2.7,4.1c.4.4.5.6.5.8s-.4,2.3-1.3,2.3-1.2-.9-1.4-1a8.7,8.7,0,0,0-3-1.2,13.3,13.3,0,0,0-2.9-.3c-3.3,0-5.7,1.1-5.7,3.3S33,99.1,37,99.1a25.5,25.5,0,0,0,3.6-.2h.8l1.2-.3h.3c.5,0,1.7.9,1.7,1.5s-.7.8-.9.9a28.8,28.8,0,0,1-6,.4c-4.7,0-6.7-.5-8-1.5a4,4,0,0,1-1.6-3.2c0-2.4,2-4.9,7.8-4.9a21.4,21.4,0,0,1,5.2.6c-1-1.6-1.3-2.3-2.2-3.9a68.2,68.2,0,0,1-7.5,1.1H29c-1.6,0-2.2-.2-3.8-2.4l.5-.4A3.2,3.2,0,0,0,28.4,88a56.9,56.9,0,0,0,9.7-1.3L36.9,84a48,48,0,0,1-5.9.9c-1.4,0-2.3-.9-3.1-2.4Z"/>
        <path id="パス_86339" data-name="パス 86339" d="M55.2,83c3,1.1,3.2,2.5,3.2,2.7s-.1.3-.6,1a10,10,0,0,0-1.4,4.9c0,.4.1,1.2.1,1.3a16.7,16.7,0,0,1,9.4-3.4c4.9,0,6.3,3.1,6.3,5.2s-.9,4.7-5.5,6c-2.3.7-4.9.8-9,.8v-.7c3.4-.2,12.1-.8,12.1-6.6,0-3.2-3-3.7-4.4-3.7-3,0-7.4,2.1-8.3,4.5-.3.7-.3,1-.9,1s-1.7-.1-1.7-3.5a23.4,23.4,0,0,1,1.1-6.4,5.4,5.4,0,0,0,.2-1.3c0-.6-.2-.8-1-1.4Zm9.7-3.4a2.8,2.8,0,0,1,2.8,2c0,.6-.4.6-.7.6L65.2,82a13.3,13.3,0,0,0-5,1.3l-.3-.6,2.9-1.4c-2.7-.5-3.6-.9-4.9-2.9l.4-.3A5.5,5.5,0,0,0,61,79.5a9.6,9.6,0,0,0,2.6.2Z"/>
        <path id="パス_86340" data-name="パス 86340" d="M78.5,81.4a6.2,6.2,0,0,1,3.9,1.2c.5.4.5.8.6,2.1a11.6,11.6,0,0,0,.2,1.3,15.8,15.8,0,0,1,6.6-2,14.7,14.7,0,0,0,1-3.6c0-1.1-1.3-1.3-2.1-1.3v-.6a10,10,0,0,1,3.4.4c.9.3,1.7,1,1.7,1.4s-.1.3-.5.9l-.3.7L92.5,83l-.4,1a11.3,11.3,0,0,1,5.4,1.7,7.5,7.5,0,0,1,3.1,6.4c0,8.3-8.3,8.9-12.9,9.3v-.7c2.9-.5,10.6-1.8,10.6-9.2a5.8,5.8,0,0,0-3-5.4,7.8,7.8,0,0,0-3.6-1,63.1,63.1,0,0,1-4.6,8.5l1.6,1.5a1.2,1.2,0,0,1,.3.9c0,.8-.5,1.2-.9,1.2s-1.1-.7-2.2-1.9c-1.7,2.1-3.3,4.1-5,4.1s-3-2.2-3-4.9A9.2,9.2,0,0,1,80,88.7a10.2,10.2,0,0,1,1.6-1.5c-.2-.6-1-3.4-1.2-3.9A2.7,2.7,0,0,0,78.5,82Zm3.4,6.9a7.6,7.6,0,0,0-2.5,5.4c0,1.8.9,3.4,1.7,3.4s2.9-2.6,3.4-3.2a24.7,24.7,0,0,1-2.6-5.6Zm3.8,4a38.9,38.9,0,0,0,3.6-7.1,12.9,12.9,0,0,0-6,1.9,15.1,15.1,0,0,0,2.4,5.2Z"/>
        <path id="パス_86341" data-name="パス 86341" d="M105.3,82.3a2.7,2.7,0,0,0,2.4,1.6l3.1-.3a16.2,16.2,0,0,0,1-3.6c0-.7-.7-.9-1.9-1.1v-.6c2.9-.1,4.8.8,4.8,1.4l-.3.5a11.3,11.3,0,0,0-1.4,3l2-.6,1.1-.5c.2,0,1.7.8,1.7,1.5s-.8.6-1,.6l-3.1.6-1.6.3-1.3,3.1-1.3,3.1c-.6,1.4-1.3,3.2-2.1,5.2l-.6,1.6c-.6,1.5-.8,1.9-1.3,1.9a2.1,2.1,0,0,1-1.3-1.8c0-.3.1-.5.8-1.7a100,100,0,0,0,4.8-11l-2.5.2c-1.2,0-2.1-.5-3-3Zm17.2,13.3c3.1,1.2,5.7,2.5,5.7,4.1s-.2,1.1-.8,1.1a1.5,1.5,0,0,1-.8-.3l-.9-.7L122.9,98a3.4,3.4,0,0,1-1.2,2.9,7.6,7.6,0,0,1-3.9,1c-3.5,0-5.4-1.6-5.4-3.6s.4-3.6,5.2-3.6a12.8,12.8,0,0,1,2.6.3,40.2,40.2,0,0,1-.6-5.2c0-2.6,2.1-3.6,4.5-3.8a14.846,14.846,0,0,0-4.9-2.3v-.5c6.2,0,8.5,2.5,8.5,4s-.5,1-.9,1-.4,0-1.1-.6a2.8,2.8,0,0,0-1.8-.7,2.3,2.3,0,0,0-2.3,2.6,27.4,27.4,0,0,0,.8,5.3Zm-5.7.6c-.5,0-3.4,0-3.4,2s2.2,2,3.5,2a4.5,4.5,0,0,0,2.8-.8,2,2,0,0,0,.7-1.8v-.8a11.6,11.6,0,0,0-3.5-.5Z"/>
        <path id="パス_86342" data-name="パス 86342" d="M134.1,79.9a7.5,7.5,0,0,1,3.5,2.2,2.7,2.7,0,0,1,.8,1.5c0,.2-.1.4-.4.7a19.024,19.024,0,0,0-1.7,6,9.1,9.1,0,0,0,2.1,6l1.3-1.9,3.6-5.5.4.4L141.3,94a11.4,11.4,0,0,0-1.3,3.4c0,.3.3,1.3.3,1.6a1,1,0,0,1-.9,1.1c-1.4,0-4.7-3.2-4.7-10.1a28.4,28.4,0,0,1,.3-4l.3-1.9a7.7,7.7,0,0,0,.1-1.3,2.8,2.8,0,0,0-1.6-2.5Zm14.3,2.4c1.9,1,7.3,3.9,7.3,12.5,0,1.1-.2,2.5-1.5,2.5s-.8-.5-1.1-1-1.5-1.4-4.7-1.7V94l3.8-.2h1a13.9,13.9,0,0,0-5.1-11Z"/>
        <path id="パス_86343" data-name="パス 86343" d="M162.7,87.8c.3.5.7,1.4,1.6,1.4a11.8,11.8,0,0,0,2.6-.6A39.709,39.709,0,0,1,175,87a5.8,5.8,0,0,1,6.2,6.2c0,7.3-8.9,8.1-13.8,8.2v-.6c2.5-.3,11.7-1.3,11.7-8.1,0-1.9-1-4.5-4.1-4.5a19.6,19.6,0,0,0-8.6,2.8c-.9.7-1,.7-1.1.7s-2-.4-3-3.6Z"/>
        <path id="パス_86344" data-name="パス 86344" d="M204.7,82.4h-1.4c-2.8,0-4.1.6-5.5,2a11.8,11.8,0,0,0-3.6,8.3c0,2,.6,4.2,3.9,5.5a9.7,9.7,0,0,0,3.4.6h1c.5,0,1.3,1,1.3,1.7s-.3,1.1-1.5,1.1-9.9-.7-9.9-8a13,13,0,0,1,2.2-7.1,14.3,14.3,0,0,1,3.4-3.7l-1.1.2c-7.2,1.2-8.9,2-9.2,2.1s-.9.6-1.1.6a3.7,3.7,0,0,1-1.8-1.1,7,7,0,0,1-1.7-2.7l.6-.3a2.8,2.8,0,0,0,2.4,1.5l1.2-.2,3.9-.7c3-.5,8.1-1.1,9.8-1.3l1.8-.2,1.7-.3.7-.3a3.5,3.5,0,0,1,2.3,2c0,.4-.4.5-.7.5h-2.1Z"/>
        <path id="パス_86345" data-name="パス 86345" d="M210.7,95.6a8.3,8.3,0,0,1,4.3,1.8,4,4,0,0,1,1.4,2.7,1.7,1.7,0,0,1-1.5,1.8c-1.1,0-1.3-.7-1.7-2.2a5.4,5.4,0,0,0-2.7-3.6Z"/>
        <path id="パス_86346" data-name="パス 86346" d="M256.3,93.1l1.3-1.7,2.5,2v.5h-11a16.2,16.2,0,0,0,4.3,2.8,23.4,23.4,0,0,0,7.2,2.3l-.2.5c-1,.2-1.5.5-1.9,1.9a20.7,20.7,0,0,1-9.8-6.9v7.6l-2.5.3v-7a33.9,33.9,0,0,1-11.1,6.1l-.2-.5a35.4,35.4,0,0,0,9.7-7.2h-8.7l-.5-.8h10.9V90.7l2.8.3c.3,0,.6.1.6.4s-.3.4-.9.7v1Zm-21.2-3.9a58.8,58.8,0,0,0,7.2-3.4l.3.6-1.5,1.4-3.5,2.9c0,.8-.1.9-.3.9l-.4-.2Zm1.3-9.3c1.7.4,4.9,1.3,4.9,3.6a1.2,1.2,0,0,1-1.2,1.4,1.078,1.078,0,0,1-1.1-.8l-.6-1.2a7.1,7.1,0,0,0-2.3-2.4Zm8.6.5h1a29.382,29.382,0,0,0,.5-3.5l2.6.8c.3.1.4.3.4.4s-.1.3-.9.5l-1.4,1.7h2.4l.8-1.1,2,1.3c.1.1.5.3.5.5s-.1.3-.9.7v8.7l-2.3.3v-1H245v1l-2.3.4V79.4Zm4.8,4.2V81.2H245v3.4Zm0,4.5V85.4H245v3.8Zm9-8.5c.3.3.4.4.4.5s-.1.4-1.1.4a27.5,27.5,0,0,1-5.1,3.3l-.4-.4a34.6,34.6,0,0,0,4.3-5.4ZM253,85.5c4.7.8,6,2.6,6,3.9a1.2,1.2,0,0,1-1,1.3c-.7,0-1-.6-1.2-1a10,10,0,0,0-3.9-3.7Z"/>
        <path id="パス_86347" data-name="パス 86347" d="M266.8,78.3c2,.1,2.9.1,4.1,1.1s.8.8.8,1.2,0,.3-.3.8c-1.5,2.7-1.6,11.8-1.6,11.9,0,3.2.4,5.4,4.3,5.4s8.5-3.6,11.2-7.9l.6.3c-1.3,2.7-2.3,4.7-4.6,6.8a10.8,10.8,0,0,1-7.2,3.1,6.8,6.8,0,0,1-4.6-1.6c-1.4-1.3-1.6-3.4-1.6-6.3q0-.952.1-1.9l.7-9V80.9a4.094,4.094,0,0,0,.1-.6c0-.8-.7-1.1-2.2-1.5Z"/>
        <path id="パス_86348" data-name="パス 86348" d="M292.1,79.9a7.5,7.5,0,0,1,3.5,2.2,2.7,2.7,0,0,1,.8,1.5c0,.2-.1.4-.4.7a19.024,19.024,0,0,0-1.7,6,9.1,9.1,0,0,0,2.1,6l1.3-1.9,3.6-5.5.4.4L299.3,94a11.4,11.4,0,0,0-1.3,3.4c0,.3.3,1.3.3,1.6a1,1,0,0,1-.9,1.1c-1.4,0-4.7-3.2-4.7-10.1a28.4,28.4,0,0,1,.3-4l.3-1.9a7.705,7.705,0,0,0,.1-1.3,2.8,2.8,0,0,0-1.6-2.5Zm14.3,2.4c1.9,1,7.3,3.9,7.3,12.5,0,1.1-.2,2.5-1.5,2.5s-.8-.5-1.1-1-1.5-1.4-4.7-1.7V94l3.8-.2h1a13.9,13.9,0,0,0-5.1-11Z"/>
        <path id="パス_86349" data-name="パス 86349" d="M325.3,98.4a3.4,3.4,0,1,1-1.031-2.44A3.4,3.4,0,0,1,325.3,98.4Zm-5.6,0a2.2,2.2,0,0,0,4.4,0,2.1,2.1,0,0,0-2.2-2.2,2.2,2.2,0,0,0-2.3,2.2Z"/>
      </g>
    </g>
  </g>
</svg>
