<svg xmlns="http://www.w3.org/2000/svg" width="522.685" height="87.56" viewBox="0 0 522.685 87.56">
  <g id="doryoku_ai" transform="translate(261.342 43.828)">
    <g id="doryoku_ai-2" data-name="doryoku_ai" transform="translate(-260.766 -43.732)">
      <g id="グループ_86325" data-name="グループ 86325" transform="translate(0 0.48)">
        <path id="パス_171499" data-name="パス 171499" d="M131.8,35.181c0-.577.288-.769.673-.769l2.4.48c.961,0,1.441-.192,6.15-2.21,1.922-.769,7.015-2.883,10.763-2.883a9.61,9.61,0,0,1,9.9,9.61c0,7.4-7.88,11.244-15.28,11.244-.481,0-1.249,0-1.249-.577s.192-.48,1.73-.673c8.841-1.249,11.628-7.3,11.628-11.436a6.246,6.246,0,0,0-6.054-6.535c-3.075,0-7.015,1.922-11.82,5.093-2.787,1.922-3.171,2.114-4.228,2.114S131.8,36.335,131.8,35.181Z" transform="translate(-5.718 -1.835)" fill="#231815" stroke="#231815" stroke-width="1.153"/>
        <path id="パス_171500" data-name="パス 171500" d="M174.395,14.965c2.691,0,3.556-.288,12.109-2.691,5.478-1.538,19.6-5.574,23.737-5.574,2.21,0,5,.865,5,2.979a2.5,2.5,0,0,1-2.5,2.306c-.769,0-4.324-.673-5.093-.673-7.88,0-16.625,7.207-16.625,23.256,0,10.379,3.94,11.051,7.592,11.051l5.862-.384c1.922,0,3.075.769,3.075,2.306,0,3.267-6.823,3.267-7.207,3.267-12.685,0-12.685-10.379-12.685-13.262s.1-15.856,9.033-23.833a10.956,10.956,0,0,0,1.441-1.345c0-.1-.288-.1-.384-.1-3.556,0-16.433,5.478-18.355,6.631a4.517,4.517,0,0,1-2.21.769c-3.075,0-5.958-4.132-5.285-5S174.106,14.965,174.395,14.965Z" transform="translate(-7.278 -0.934)" fill="#231815" stroke="#231815" stroke-width="1.153"/>
        <path id="パス_171501" data-name="パス 171501" d="M92.4,17.268c-1.73,0-1.73.384-2.018,3.171-1.249,14.415-4.228,22.487-11.628,28.253A32.385,32.385,0,0,1,68.377,54.17a.352.352,0,0,1-.384-.384c0-.288.1-.288,1.345-.961a31.713,31.713,0,0,0,14.9-20.181,73.9,73.9,0,0,0,1.922-13.838c0-.673-.1-1.634-1.634-1.634H70.683l-1.153.192c-.192,0-.288-.192-.48-.384l-1.057-1.345c-.192-.192-.192-.288-.192-.384a.192.192,0,0,1,.192-.192l2.5.192,7.784.192h6.439c1.634,0,1.826-.577,1.826-4.132A61.108,61.108,0,0,0,86.155,4.2c-.1-.673-.192-1.634-.192-1.922a.506.506,0,0,1,.577-.577c.48,0,6.919.673,6.919,2.018s-.1.577-1.345,1.057-.865.865-.865,1.73-.48,5.382-.48,6.246.1,2.595,1.73,2.595H104.99c1.057,0,1.538-.1,2.018-.865s.865-1.153,1.153-1.153,4.324,2.114,4.324,3.075-.192.673-1.057,1.345a2.21,2.21,0,0,0-.673,1.73c-.48,13.07-.865,24.794-3.46,29.5A9.226,9.226,0,0,1,100.57,53.4c-1.057,0-1.057-.48-1.057-1.345s-.384-2.018-4.324-4.228c-1.345-.769-1.441-.865-1.441-1.057a.288.288,0,0,1,.384-.288l2.114.48,4.132.48c3.171,0,4.132-1.73,4.8-6.727a175.48,175.48,0,0,0,1.249-21.526c0-1.345,0-2.114-1.826-2.114Z" transform="translate(-3.221 -0.739)" fill="#231815" stroke="#231815" stroke-width="1.153"/>
        <path id="パス_171502" data-name="パス 171502" d="M19.435,7.523a1.826,1.826,0,0,0,1.922-.961,2.306,2.306,0,0,1,1.249-.769c.673,0,3.844,2.114,3.844,2.979a.673.673,0,0,1-.288.577l-1.249.577a47.184,47.184,0,0,0-2.5,4.324c-.384.673-2.691,3.844-2.691,3.94s.192.48,1.634,1.153S24.529,20.785,24.529,23a1.73,1.73,0,0,1-1.441,1.73c-.769,0-1.057-.192-3.171-2.114-.577-.48-2.018-1.73-2.595-1.73s-.48.1-1.441.961c-5.766,4.709-13.166,7.4-15.088,7.4-.1,0-.192,0-.192-.192s.1-.192,1.441-.865c5.574-2.691,12.493-8.168,12.493-9.129S10.69,16.46,10.306,16.46s-.48.1-.961,1.249a2.787,2.787,0,0,1-2.4,1.538A1.73,1.73,0,0,1,5.117,17.9c0-.1,3.267-6.727,3.267-8.072s-.577-.769-1.057-.769l-4.421.288c-.192,0-.288-.1-.48-.384L1.273,7.619c-.192-.288-.192-.288-.192-.384s.1-.1.192-.1l5.958.288c1.441,0,2.114-.192,2.4-.961a13.262,13.262,0,0,0,.961-3.748,2.018,2.018,0,0,0-.192-.961,1.549,1.549,0,0,1-.384-.673A.384.384,0,0,1,10.4.7c.865,0,5.189,2.114,5.189,2.883s-.192.48-.769.769a3.171,3.171,0,0,0-1.441,2.4c0,.769.577.769,1.249.769ZM41.25,34.911a1.922,1.922,0,0,0,1.634-.481c.384-.288,1.73-2.114,2.114-2.114s4.517,2.5,4.517,3.46-.1.48-1.153,1.249-1.057.769-1.153,1.441c-.384,3.556-.769,7.784-2.4,10.763A8.745,8.745,0,0,1,37.6,53.747c-.288,0-1.826-2.114-2.21-2.4a28.111,28.111,0,0,1-2.4-2.4.207.207,0,0,1,.192-.192h1.153c4.228,0,5.958,0,7.015-1.249s2.114-8.361,2.114-9.61a1.534,1.534,0,0,0-1.73-1.634h-14.8a1.826,1.826,0,0,0-2.018,1.249c-1.73,3.748-2.691,6.054-6.246,9.418a21.142,21.142,0,0,1-13.934,5.67c-.288,0-1.345,0-1.345-.192s0-.192.384-.288A28.349,28.349,0,0,0,7.519,50.96C17.8,47.02,21.165,37.89,21.165,37.314a1.048,1.048,0,0,0-1.057-.961H12.42c-1.345,0-5.189,0-7.207.192H4.06a.49.49,0,0,1-.48-.384L2.426,35.008c-.288-.288-.288-.288-.288-.384s.1-.1.192-.1l2.5.192,7.784.192H20.4c.865,0,1.73,0,2.018-1.345a20.95,20.95,0,0,0,.48-3.46,3.94,3.94,0,0,0-.1-.769,4.613,4.613,0,0,1-.288-.769c0-.192.192-.288.48-.288l3.556.769c1.345.288,1.826.48,1.826,1.057s-.673.961-.961,1.345a5.382,5.382,0,0,0-1.249,2.787c0,.865.577.865,1.057.865ZM14.342,8.965c-1.345,0-1.922,0-2.595,1.826A40.073,40.073,0,0,0,10.4,15.019c0,.481.48.577.865.673s4.517,1.538,4.8,1.538,4.517-6.054,4.517-7.4-.673-.769-1.057-.769ZM40.385,5.889c1.153,0,1.922,0,2.691-1.345s.865-1.249,1.345-1.249,3.748,1.922,4.421,2.21a1.057,1.057,0,0,1,.577.961c0,.769-.865,1.249-1.441,1.249a1.8,1.8,0,0,0-1.634.961,44.3,44.3,0,0,1-5.285,7.688C40.193,17.421,40,17.806,40,18.19a1.442,1.442,0,0,0,.769,1.057,31.232,31.232,0,0,0,10.475,4.517c1.249.192,1.441.192,1.441.384s-.48.192-.769.192a8.553,8.553,0,0,0-4.132,1.73c-.192.192-1.057,1.441-1.345,1.441a66.97,66.97,0,0,1-6.823-4.8,7.164,7.164,0,0,0-2.691-1.826,2.306,2.306,0,0,0-1.153.48A48.338,48.338,0,0,1,28.661,25.4c-1.922.865-7.592,2.787-8.937,2.787s-.48-.1-.48-.192l5.67-2.883c2.979-1.634,9.706-5.478,9.706-7.207s-.192-.769-.865-1.922a29.31,29.31,0,0,1-2.883-7.4c-.192-.769-.192-1.057-.769-1.057H28.949a.49.49,0,0,1-.48-.384L27.316,6.082c-.192-.288-.192-.288-.192-.384s.1-.1.192-.1l2.5.192c1.634.1,4.517.192,7.784.192ZM37.31,7.427c-5,0-5.574,0-5.574.673s3.94,7.592,5.189,7.592,4.8-6.919,4.8-7.4-.769-.865-1.153-.865Z" transform="translate(-0.6 -0.7)" fill="#231815" stroke="#231815" stroke-width="1.153"/>
      </g>
      <g id="グループ_86326" data-name="グループ 86326" transform="translate(338.078 0.577)">
        <path id="パス_171503" data-name="パス 171503" d="M364.124,35.4h-7.4l-1.249.192c-.192,0-.288-.192-.48-.384l-1.057-1.249-.192-.384a.192.192,0,0,1,.192-.192l2.595.192,7.976.192H377c1.153,0,1.538-.288,1.538-1.538a21.048,21.048,0,0,0-.288-2.883,19.688,19.688,0,0,1-.48-2.306c0-.384.1-.673.769-.673a23.632,23.632,0,0,1,3.94.961c.48.192.961.384.961.961a10.574,10.574,0,0,1-.673,1.441,3.075,3.075,0,0,0-.48,2.114c0,1.441.1,2.018,1.73,2.018h12.012c2.5,0,2.787,0,3.363-.48s1.922-2.4,2.4-2.4,4.324,3.075,4.324,3.748-1.249.865-3.171.865H385.17c-.48,0-.961,0-.961.673s10.475,9.9,22.391,10.859c.1,0,1.057.1,1.057.192s-.1.192-.673.384-3.844,1.153-4.8,3.556c-.288.673-.288.769-.481.769s-13.838-6.15-18.451-14.319c-.384-.673-.481-.961-.673-.961s-.384.673-.384.769c0,2.21.384,11.724.384,13.742a2.21,2.21,0,0,1-2.306,2.5c-.673,0-2.21-.384-2.21-2.595s.384-10.955.384-12.781c0-.192,0-.577-.384-.577s-2.306,2.114-2.787,2.595a42.38,42.38,0,0,1-19.989,10.09l-2.595.48c-.192,0-.288-.1-.288-.192s.1-.192.961-.577c9.994-3.748,20.661-12.4,20.661-14.223s-.961-.673-1.345-.673Zm-3.652-5.189c-.1.384-.1.961-.769.961s-4.9-3.171-4.9-4.036.192-.384,1.826-1.249,12.493-8.649,12.589-8.649a.192.192,0,0,1,.192.192c0,.48-7.111,9.514-8.361,11.148A2.691,2.691,0,0,0,360.472,30.206ZM363.74,14.35c-1.153,0-1.538-.673-2.018-1.538a21.141,21.141,0,0,0-5.574-6.727l-.481-.384c0-.1.1-.192.288-.192a16.144,16.144,0,0,1,4.9,1.153c4.228,1.73,5.285,2.691,5.285,5a2.6,2.6,0,0,1-2.4,2.595Zm20.469-6.919a2.979,2.979,0,0,0,2.018-.577c.192-.192,1.249-1.73,1.634-1.73s3.94,2.306,3.94,3.363a1.345,1.345,0,0,1-.481.769c-.769.673-.769.769-.769,1.345s.48,11.532.48,13.742-1.057,3.46-2.691,3.46a1.73,1.73,0,0,1-1.73-1.826c-.1-1.538-.769-1.634-1.634-1.634h-9.033a1.442,1.442,0,0,0-1.73,1.345c-.1,1.153-.192,2.883-2.691,2.883s-1.73-1.249-1.73-1.826.384-9.322.384-11.051a54.863,54.863,0,0,0-.481-7.88,18.648,18.648,0,0,1-.384-1.922c0-.384.288-.48.673-.48s3.94,2.114,4.8,2.114,1.538-3.171,1.538-4.613a4.9,4.9,0,0,0-.1-1.441A.853.853,0,0,1,377.1.8c.577,0,5.67.865,5.67,1.922s-.192.48-1.538,1.345-3.075,2.306-3.075,2.883.384.384,1.153.384Zm.577,7.3c1.922,0,1.922-.961,1.922-2.787s0-2.979-1.922-2.979H376.04c-1.922,0-1.922.865-1.922,2.691s0,3.075,1.922,3.075Zm.1,8.072c1.826,0,1.826-.673,1.826-3.363s0-3.171-1.826-3.171H376.04c-1.922,0-1.922.865-1.922,2.787s0,3.748,1.922,3.748Zm18.163,6.439c-.961,0-1.153-.192-4.8-4.324-.961-1.057-6.15-6.343-6.15-6.439a.207.207,0,0,1,.192-.192c.1,0,12.4,3.363,12.4,9.033a1.577,1.577,0,0,1-1.634,1.73Zm-9.129-14.031c-.192,0-.192-.1-.192-.192l1.73-2.114c1.441-1.922,4.036-5.67,4.324-7.4s.1-.961.481-.961,5.382,3.46,5.382,4.132-.288.48-1.249.769a4.421,4.421,0,0,0-2.018.961c-1.826,1.057-7.4,4.613-8.553,4.613Z" transform="translate(-352.4 -0.8)" fill="#231815" stroke="#231815" stroke-width="1.153"/>
        <path id="パス_171504" data-name="パス 171504" d="M485.746,16.919c0,.48-.1.673-.769,2.595a22.583,22.583,0,0,0-1.538,8.265c0,6.439,3.363,11.148,5.285,11.148s1.345-.288,3.267-3.556c.384-.673,1.441-2.21,2.018-2.21s.288.288.288.481a7.5,7.5,0,0,1-.192,1.249c-.673,2.979-.865,3.556-.865,4.9a8.648,8.648,0,0,0,.384,2.595,15.758,15.758,0,0,1,.48,2.114,2.312,2.312,0,0,1-2.4,2.018c-4.132,0-12.109-6.727-12.109-18.932,0-1.826.865-9.706.865-11.34a17.684,17.684,0,0,0-.48-3.748,8.746,8.746,0,0,1-.481-2.21c0-.192.288-.288.384-.288C482.863,10.1,485.746,15.189,485.746,16.919Zm31.232,1.441a15.952,15.952,0,0,1,5.67,12.2c0,1.249-.1,4.228-3.171,4.228s-3.171-3.46-3.171-4.324c0-5.285,0-7.976-3.363-11.436-.48-.48-3.075-2.5-3.075-2.883s.288-.288.577-.288a12.493,12.493,0,0,1,6.535,2.595Z" transform="translate(-357.358 -1.159)" fill="#231815" stroke="#231815" stroke-width="1.153"/>
        <path id="パス_171505" data-name="パス 171505" d="M542.785,48.043a6.343,6.343,0,1,1-6.342-6.343A6.343,6.343,0,0,1,542.785,48.043Zm-11.051-.1a4.805,4.805,0,0,0,4.805,4.8,4.709,4.709,0,0,0,4.709-4.709,4.8,4.8,0,0,0-4.8-4.8,4.613,4.613,0,0,0-4.709,4.709Z" transform="translate(-359.331 -2.395)" fill="#231815" stroke="#231815" stroke-width="1.153"/>
        <path id="パス_171506" data-name="パス 171506" d="M437.331,10.762a26.624,26.624,0,0,1-.961,3.267,139.242,139.242,0,0,0-1.634,20.661c.192,5.862,1.538,11.051,9.226,10.667a28.541,28.541,0,0,0,12.012-3.46c.865-.48,5.189-3.075,5.382-3.075a.288.288,0,0,1,.288.288c0,.673-8.168,10.283-19.028,10.667-7.5.288-11.244-3.94-11.724-15.568-.1-3.556-.1-4.709.673-16.145.192-1.922.48-6.727.48-8.265a7.3,7.3,0,0,0-.673-2.787L430.7,5.477c0-.384.48-.577.769-.577C434.544,4.8,437.235,9.417,437.331,10.762Z" transform="translate(-355.454 -0.96)" fill="#231815" stroke="#231815" stroke-width="1.153"/>
      </g>
      <g id="グループ_86329" data-name="グループ 86329" transform="translate(236.116)">
        <g id="グループ_86327" data-name="グループ 86327">
          <rect id="長方形_14398" data-name="長方形 14398" width="76.783" height="18.941" fill="#b9bcbd"/>
          <rect id="長方形_14399" data-name="長方形 14399" width="76.783" height="18.941" transform="translate(0 37.863)" fill="#b9bcbd"/>
        </g>
        <g id="グループ_86328" data-name="グループ 86328" transform="translate(0.096 72.354)">
          <path id="パス_171507" data-name="パス 171507" d="M254.665,79.055c-.384-2.114-.865-2.787-3.267-2.787a3.652,3.652,0,0,0-2.4.769,1.922,1.922,0,0,0-.673,1.538,2.5,2.5,0,0,0,.673,1.634,10.858,10.858,0,0,0,2.595,1.634c1.634.769,2.787,1.249,3.652,2.306a3.844,3.844,0,0,1,.865,2.4,3.556,3.556,0,0,1-1.153,2.691,5.862,5.862,0,0,1-4.036,1.249,11.916,11.916,0,0,1-3.844-.673,20.38,20.38,0,0,0-.673-2.979l.673-.192c.673,2.5,1.826,3.075,3.94,3.075a4.036,4.036,0,0,0,2.4-.769,2.716,2.716,0,0,0,.384-3.94,9.226,9.226,0,0,0-2.979-1.826,11.436,11.436,0,0,1-3.556-2.4,3.364,3.364,0,0,1-.577-1.922,2.979,2.979,0,0,1,1.249-2.4,5.574,5.574,0,0,1,3.46-.961,8.937,8.937,0,0,1,3.363.577c.1.865.288,1.922.48,2.883Z" transform="translate(-246.4 -75.491)" fill="#231815"/>
          <path id="パス_171508" data-name="パス 171508" d="M259.637,85.811a5.286,5.286,0,0,1,.865-3.267,2.787,2.787,0,0,1,4.036,0,6.786,6.786,0,0,1,0,6.631,2.691,2.691,0,0,1-3.94,0A5.286,5.286,0,0,1,259.637,85.811Zm-1.441,0a5.093,5.093,0,0,0,1.249,3.844,5,5,0,0,0,6.15,0,6.247,6.247,0,0,0,0-7.4,4.8,4.8,0,0,0-6.15,0,5,5,0,0,0-1.345,3.556Z" transform="translate(-246.856 -75.711)" fill="#231815"/>
          <path id="パス_171509" data-name="パス 171509" d="M269.938,81.672H268.4V81h1.538V79.75a3.94,3.94,0,0,1,.961-2.883,3.171,3.171,0,0,1,3.844-.288,1.73,1.73,0,0,1,.865,1.249c0,.384-.192.673-.577.673s-.673-.48-.865-.865a1.268,1.268,0,0,0-1.153-.865,1.345,1.345,0,0,0-1.057.48,4.036,4.036,0,0,0-.673,2.691v1.249h2.595v.673h-2.595V88.5c0,1.249.1,1.345,1.634,1.345v.48H268.4v-.48c1.441,0,1.538-.1,1.538-1.345Z" transform="translate(-247.258 -75.513)" fill="#231815"/>
          <path id="パス_171510" data-name="パス 171510" d="M275.092,81.387c1.249-.1,2.21-.577,2.4-2.787h.48v2.595h2.114v.673h-2.114V88.5c0,.961.288,1.441.961,1.441a2.018,2.018,0,0,0,1.249-.48l.288.48a2.883,2.883,0,0,1-2.018.769,1.826,1.826,0,0,1-2.018-2.114V81.771H274.9Z" transform="translate(-247.512 -75.612)" fill="#231815"/>
          <path id="パス_171511" data-name="パス 171511" d="M285.171,77.244c0-.577.1-.673.577-.673h1.922a4.517,4.517,0,0,1,2.883.769,2.6,2.6,0,0,1,.769,1.826,2.691,2.691,0,0,1-.961,2.21,5.189,5.189,0,0,1-3.267.865h-2.018ZM283.634,88.1c0,1.441-.1,1.538-1.634,1.538v.577h6.631c2.114,0,3.363-.48,4.132-1.249a3.748,3.748,0,0,0,1.153-2.787,3.075,3.075,0,0,0-1.345-2.5,5.766,5.766,0,0,0-3.363-1.057h0a5,5,0,0,0,2.787-1.153,3.075,3.075,0,0,0,1.057-2.306,2.787,2.787,0,0,0-1.345-2.4,7.111,7.111,0,0,0-4.228-.865H282v.577c1.538,0,1.634.1,1.634,1.538Zm1.538-5.093h2.5a5.67,5.67,0,0,1,3.556.865,2.691,2.691,0,0,1,1.153,2.21,3.268,3.268,0,0,1-.769,2.306,3.94,3.94,0,0,1-3.075,1.057h-2.5c-.673,0-.769-.192-.769-.961Z" transform="translate(-247.789 -75.505)" fill="#231815"/>
          <path id="パス_171512" data-name="パス 171512" d="M301.278,88.783a3.075,3.075,0,0,1-2.21,1.057,1.922,1.922,0,0,1-1.345-.481,1.73,1.73,0,0,1-.48-1.249,2.114,2.114,0,0,1,1.345-1.922,10.474,10.474,0,0,1,2.595-.961Zm1.441-5a2.691,2.691,0,0,0-.673-2.018,2.979,2.979,0,0,0-2.4-.769,4.421,4.421,0,0,0-2.306.577,1.922,1.922,0,0,0-1.057,1.442.577.577,0,0,0,.577.577.673.673,0,0,0,.673-.481,2.306,2.306,0,0,1,.673-.961,2.114,2.114,0,0,1,1.345-.48,1.73,1.73,0,0,1,1.441.577,2.5,2.5,0,0,1,.288,1.441v.865l-1.249.288A8.745,8.745,0,0,0,297.049,86,2.5,2.5,0,0,0,295.8,88.3a2.114,2.114,0,0,0,.769,1.73,2.979,2.979,0,0,0,1.922.577,3.844,3.844,0,0,0,2.883-1.153h.1a1.249,1.249,0,0,0,1.249,1.153,2.691,2.691,0,0,0,1.249-.288V89.84h-.577c-.384,0-.577-.384-.577-1.345Z" transform="translate(-248.327 -75.704)" fill="#231815"/>
          <path id="パス_171513" data-name="パス 171513" d="M313.365,88.58c0,1.153.1,1.345.961,1.345v.48h-3.46v-.48c.961,0,1.057-.1,1.057-1.345V84.063a2.691,2.691,0,0,0-.481-1.826,1.538,1.538,0,0,0-1.153-.384c-.865,0-1.73.769-2.595,1.922v4.9c0,1.249,0,1.345.961,1.345v.48H305.1v-.48c1.057,0,1.153-.1,1.153-1.345V83.583c0-1.153-.1-1.345-1.153-1.345v-.481a4.9,4.9,0,0,0,2.306-.865h.192V82.43h0a3.94,3.94,0,0,1,2.979-1.73,2.691,2.691,0,0,1,1.922.673,2.979,2.979,0,0,1,.769,2.306Z" transform="translate(-248.69 -75.694)" fill="#231815"/>
          <path id="パス_171514" data-name="パス 171514" d="M318.595,85.229l2.883-2.787c.577-.48.673-.865-.288-.865V81.1h2.979v.48a1.826,1.826,0,0,0-1.345.577l-2.114,2.018,3.171,4.709a1.441,1.441,0,0,0,1.538.769v.481h-2.306l-3.363-5.189-1.153,1.153v2.114c0,1.153,0,1.345,1.153,1.345v.48H316v-.48c1.153,0,1.249-.192,1.249-1.345V78.695c0-1.153-.1-1.345-1.249-1.345v-.384a5.862,5.862,0,0,0,2.4-.865h.192v9.033Z" transform="translate(-249.115 -75.514)" fill="#231815"/>
        </g>
      </g>
    </g>
  </g>
</svg>
