<svg xmlns="http://www.w3.org/2000/svg" width="279.2" height="152.4" viewBox="0 0 279.2 152.4">
  <g id="アートワーク_30" data-name="アートワーク 30" transform="translate(139.6 76.2)">
    <g id="アートワーク_30-2" data-name="アートワーク 30" transform="translate(-139.6 -76.2)">
      <g id="グループ_78479" data-name="グループ 78479">
        <path id="パス_94233" data-name="パス 94233" d="M30.4,35.3c2.3,3.5,3.2,3.9,5.9,3.9v2H27.8L16,22.2H10.4V34.7c0,4.1.3,4.4,4.6,4.4v2H.2v-2c4.3,0,4.6-.4,4.6-4.4V6.4C4.8,2.4,4.5,2,.2,2V0H16.3C22,0,25.5.6,28.5,2.7a9.2,9.2,0,0,1,4.1,7.9A10.1,10.1,0,0,1,29.4,18a15.1,15.1,0,0,1-8,3.5Zm-20-15.6H15c4.1,0,7-.8,9-2.4s2.8-3.9,2.8-6.7a7.3,7.3,0,0,0-2.7-6c-1.6-1.3-4-2.1-7.9-2.1H11.9c-1.5,0-1.6.5-1.6,3.4Z"/>
        <path id="パス_94234" data-name="パス 94234" d="M43.6,26.7c0,3.7.5,6.8,2,9.2a7.3,7.3,0,0,0,6.3,3.5,8.8,8.8,0,0,0,5.3-1.7A9.6,9.6,0,0,0,60.3,34l1.9,1a13.4,13.4,0,0,1-3.9,4.5A12.2,12.2,0,0,1,51,41.7c-4,0-7.5-1.2-9.9-4s-3.2-6.1-3.2-11.3a15.4,15.4,0,0,1,3.9-10.7,12.2,12.2,0,0,1,8.6-3.2A10.9,10.9,0,0,1,59,16a17.2,17.2,0,0,1,3.2,10.6Zm12.9-2.1c0-2.8-.5-5.7-1.7-7.5a5.2,5.2,0,0,0-4.5-2.4,5.9,5.9,0,0,0-4.6,2.4,13.7,13.7,0,0,0-2.1,7.5Z"/>
        <path id="パス_94235" data-name="パス 94235" d="M77.5,41.8l-10.1-23c-1.6-3.5-2-3.8-4.1-3.8V13.3h12V15c-2.9,0-3.2.5-2.1,3.1L80,35h.1l7.1-17.7c.7-1.7.6-2.3-2.1-2.3V13.3h8.1V15c-1.7,0-2.3.3-3.3,2.8l-10.1,24Z"/>
        <path id="パス_94236" data-name="パス 94236" d="M100.5,26.7c0,3.7.5,6.8,2,9.2a7.3,7.3,0,0,0,6.3,3.5,8.8,8.8,0,0,0,5.3-1.7,9.6,9.6,0,0,0,3.1-3.7l1.9,1a13.4,13.4,0,0,1-3.9,4.5,12.2,12.2,0,0,1-7.3,2.2c-4,0-7.5-1.2-9.9-4s-3.2-6.1-3.2-11.3a15.4,15.4,0,0,1,3.9-10.7,12.2,12.2,0,0,1,8.6-3.2,11,11,0,0,1,8.6,3.5A17.2,17.2,0,0,1,119,26.7Zm12.9-2.1c0-2.8-.5-5.7-1.7-7.5a5.2,5.2,0,0,0-4.5-2.4,5.9,5.9,0,0,0-4.6,2.4,13.7,13.7,0,0,0-2.1,7.5Z"/>
        <path id="パス_94237" data-name="パス 94237" d="M130.3,17.2c2.4-3.2,4.2-4.6,6.8-4.6a4.7,4.7,0,0,1,3.4,1.3,4,4,0,0,1,1.3,3c0,1.6-.8,2.5-2.1,2.5s-1.9-.5-2.3-2-.9-2.1-1.9-2.1-3.1,1.8-5.2,4.8V35.2c0,3.7.3,4.2,3.9,4.2v1.7H121.6V39.4c3.1,0,3.4-.4,3.4-4.2V20.7c0-3.6-.3-3.9-3.4-3.9V15.2a21.2,21.2,0,0,0,7.8-2.6l.6.4.2,4.2Z"/>
        <path id="パス_94238" data-name="パス 94238" d="M161.1,20.3c-.9-4.4-2.7-5.6-6.3-5.6a7.3,7.3,0,0,0-4,1,3.2,3.2,0,0,0-1.6,2.8,4.5,4.5,0,0,0,2.4,3.5c1.9,1,4.7,2,6,3a15.5,15.5,0,0,1,4.8,3.4,7,7,0,0,1,2.2,5,7.3,7.3,0,0,1-3,5.9,14.1,14.1,0,0,1-8.5,2.4,21.2,21.2,0,0,1-8.9-1.7,50.7,50.7,0,0,0-1.2-6.6l1.9-.5c1.4,5.2,3.9,6.6,7.8,6.6a7.6,7.6,0,0,0,4.8-1.5,4.9,4.9,0,0,0,1.6-3.6,4.1,4.1,0,0,0-1.2-3c-1.1-1.2-3.1-1.9-6-3.4s-4.8-2.5-6.2-4.1a7.2,7.2,0,0,1-1.7-4.7,5.8,5.8,0,0,1,2.7-4.9,13.5,13.5,0,0,1,7.8-2,21,21,0,0,1,7.5,1.3,53.5,53.5,0,0,0,1,6.1Z"/>
        <path id="パス_94239" data-name="パス 94239" d="M173.3,26.7c0,3.7.5,6.8,2,9.2a7.3,7.3,0,0,0,6.3,3.5,8.8,8.8,0,0,0,5.3-1.7A9.6,9.6,0,0,0,190,34l1.9,1a13.4,13.4,0,0,1-3.9,4.5,12.2,12.2,0,0,1-7.3,2.2c-4,0-7.5-1.2-9.9-4s-3.2-6.1-3.2-11.3a15.4,15.4,0,0,1,3.9-10.7,12.2,12.2,0,0,1,8.6-3.2,11,11,0,0,1,8.6,3.5,17.2,17.2,0,0,1,3.2,10.6Zm12.9-2.1c0-2.8-.5-5.7-1.7-7.5a5.2,5.2,0,0,0-4.5-2.4,5.9,5.9,0,0,0-4.6,2.4,13.7,13.7,0,0,0-2.1,7.5Z"/>
        <path id="パス_94240" data-name="パス 94240" d="M4.4,60.4c0-4-.3-4.4-4.4-4.4V54H14.6c5.9,0,9,.9,11.4,2.7a10.4,10.4,0,0,1,3.8,8.4c0,3.7-1.2,6.7-3.7,8.7s-5.9,3-12.2,3H10V88.7c0,4.1.2,4.4,5,4.4v2H0v-2c4.1,0,4.4-.4,4.4-4.4Zm6.9-3.9c-1.2,0-1.3.5-1.3,3.2V74.4h3.9c3,0,5.8-.5,7.7-2.3S24,68.6,24,65.2a8.9,8.9,0,0,0-2.5-6.7c-1.6-1.5-4.1-2-7.6-2Z"/>
        <path id="パス_94241" data-name="パス 94241" d="M37.1,60.4c0-3.5-.2-3.9-4.3-3.9V54.9a26.4,26.4,0,0,0,9.1-2.6l.7.4V89.1c0,3.7.2,4.2,4.2,4.2V95h-14V93.4c4.2,0,4.3-.5,4.3-4.2Z"/>
        <path id="パス_94242" data-name="パス 94242" d="M73,89.4c0,2.8.6,4,1.9,4a3.5,3.5,0,0,0,1.7-.5l.3,1.7a10.2,10.2,0,0,1-4.3.8c-2.6,0-3.9-1-4.6-3.1h-.2A11.9,11.9,0,0,1,59,95.7,9.4,9.4,0,0,1,53.2,94a6.6,6.6,0,0,1-2.6-5.4,7.7,7.7,0,0,1,3.9-6.9,28.1,28.1,0,0,1,9.3-3.4l3.7-.9V74.7a8.5,8.5,0,0,0-.9-4.2,4.8,4.8,0,0,0-4.2-1.8,5.6,5.6,0,0,0-4,1.5,7.6,7.6,0,0,0-1.9,3A2.4,2.4,0,0,1,54,74.8a1.9,1.9,0,0,1-2.1-2.1c0-1.6,1.3-3.3,3.3-4.5a15.7,15.7,0,0,1,7.6-1.6c4.2,0,6.4.8,8.1,2.6S73,72.8,73,75.6Zm-5.5-10a27.9,27.9,0,0,0-7.4,2.9c-2.2,1.3-3.8,2.9-3.8,5.6a5.2,5.2,0,0,0,1.3,3.8A4.8,4.8,0,0,0,61.4,93a8.8,8.8,0,0,0,6.1-3Z"/>
        <path id="パス_94243" data-name="パス 94243" d="M104.7,89.3c0,3.5.3,4.1,3,4.1v1.7H96.2V93.4c2.8,0,3-.4,3-4.2V75.7c0-2.3-.3-4.2-1.4-5.3a4.3,4.3,0,0,0-3.4-1.2c-2.4,0-5,2.2-7.4,5.5V89.1c0,3.8.1,4.2,2.8,4.2V95H78.1V93.4c3.3,0,3.5-.4,3.5-4.2V74.9c0-3.7-.3-4.2-3.5-4.1V69.2A20.4,20.4,0,0,0,86,66.6l.8.4.2,4.6h.1c2.5-3.1,5.7-5,9.2-5s4.8.6,6.1,2,2.3,3.6,2.3,7Z"/>
        <path id="パス_94244" data-name="パス 94244" d="M135.8,89.3c0,3.5.3,4.1,3,4.1v1.7H127.4V93.4c2.8,0,3-.4,3-4.2V75.7c0-2.3-.3-4.2-1.4-5.3a4.3,4.3,0,0,0-3.4-1.2c-2.4,0-5,2.2-7.4,5.5V89.1c0,3.8.1,4.2,2.8,4.2V95H109.2V93.4c3.3,0,3.5-.4,3.5-4.2V74.9c0-3.7-.3-4.2-3.5-4.1V69.2a20.4,20.4,0,0,0,7.9-2.6l.8.4.2,4.6h.1c2.5-3.1,5.7-5,9.2-5s4.8.6,6.1,2,2.3,3.6,2.3,7Z"/>
        <path id="パス_94245" data-name="パス 94245" d="M150.6,89.1c0,3.7.3,4.2,4.2,4.2V95h-14V93.4c4.2,0,4.4-.5,4.4-4.2V74.7c0-3.7-.2-3.9-4.4-3.9V69.2a26,26,0,0,0,9.2-2.6l.6.3Zm-3.1-33.6c1.7,0,3.2,1.5,3.2,3.9s-1.5,3.9-3.3,3.9-3.3-1.5-3.3-3.9,1.5-3.9,3.3-3.9Z"/>
        <path id="パス_94246" data-name="パス 94246" d="M183.7,89.3c0,3.5.3,4.1,3,4.1v1.7H175.2V93.4c2.8,0,3-.4,3-4.2V75.7c0-2.3-.3-4.2-1.4-5.3a4.3,4.3,0,0,0-3.4-1.2c-2.4,0-5,2.2-7.4,5.5V89.1c0,3.8.1,4.2,2.8,4.2V95H157.1V93.4c3.3,0,3.5-.4,3.5-4.2V74.9c0-3.7-.3-4.2-3.5-4.1V69.2a20.4,20.4,0,0,0,7.9-2.6l.8.4.2,4.6h.1c2.5-3.1,5.7-5,9.2-5s4.8.6,6.1,2,2.3,3.6,2.3,7Z"/>
        <path id="パス_94247" data-name="パス 94247" d="M205.3,91.8c8.9,0,11.7,4,11.7,8,0,5.7-5.9,10.3-15.5,10.3s-13.5-2.4-13.5-7.2,3.3-6.3,6.6-7.6c-2.3-.5-4.5-1.9-4.5-4.5s2.1-4.1,4.5-5.5a9.7,9.7,0,0,1-4.6-8.4c0-6.6,5.3-10.3,12-10.3a15.5,15.5,0,0,1,7.2,1.6l8.1-.9v3l-6-.3a9.1,9.1,0,0,1,3,6.9c0,7-5.5,10.4-11.9,10.4a15.6,15.6,0,0,1-5.8-1c-1.6,1-2.6,2-2.6,3.2s1.7,2.4,5.2,2.4ZM197.2,96c-2.8,1.8-4.6,3.8-4.6,6.3s3.6,5.7,9.2,5.7,10.7-3.3,10.7-6.9S211,96,204.6,96Zm4.9-10.8c4.1,0,6.4-3.2,6.4-8.2s-2.1-8.2-6.6-8.2-6.5,3.9-6.5,8.2,2.5,8.2,6.6,8.2Z"/>
      </g>
      <g id="グループ_78480" data-name="グループ 78480">
        <path id="パス_94248" data-name="パス 94248" d="M15.7,142.3c1.1,1.7,1.6,1.9,2.9,1.9v1H14.5L8.7,136H6v6c0,2,.1,2.1,2.2,2.1v1H1.1v-1c2.1,0,2.2-.2,2.2-2.1V128.3c0-1.9-.2-2.1-2.2-2.1v-1H8.9c2.8,0,4.4.3,5.9,1.3a4.4,4.4,0,0,1,2,3.8,4.9,4.9,0,0,1-1.5,3.6,7.3,7.3,0,0,1-3.9,1.7ZM6,134.8H8.3a6.6,6.6,0,0,0,4.3-1.2,3.9,3.9,0,0,0,1.3-3.2,3.5,3.5,0,0,0-1.3-2.9,5.8,5.8,0,0,0-3.8-1h-2c-.7,0-.8.2-.8,1.7Z"/>
        <path id="パス_94249" data-name="パス 94249" d="M22,138.2a8.1,8.1,0,0,0,1,4.5,3.5,3.5,0,0,0,3,1.7,4.3,4.3,0,0,0,2.6-.8,4.6,4.6,0,0,0,1.5-1.8l.9.5a6.5,6.5,0,0,1-1.9,2.2,5.9,5.9,0,0,1-3.5,1.1,6.1,6.1,0,0,1-4.8-1.9,8.6,8.6,0,0,1-1.5-5.5,7.4,7.4,0,0,1,1.9-5.2,5.9,5.9,0,0,1,4.1-1.6,5.3,5.3,0,0,1,4.1,1.7,8.3,8.3,0,0,1,1.5,5.1Zm6.2-1a7,7,0,0,0-.8-3.6,2.5,2.5,0,0,0-2.2-1.2,2.8,2.8,0,0,0-2.2,1.2,6.6,6.6,0,0,0-1,3.6Z"/>
        <path id="パス_94250" data-name="パス 94250" d="M38.4,145.5l-4.9-11.1c-.8-1.7-1-1.8-2-1.8v-.8h5.8v.8c-1.4,0-1.5.3-1,1.5l3.3,8.1h.1l3.4-8.6c.3-.8.3-1.1-1-1.1v-.8H46v.8c-.8,0-1.1.1-1.6,1.4l-4.9,11.6Z"/>
        <path id="パス_94251" data-name="パス 94251" d="M49.5,138.2a8.1,8.1,0,0,0,1,4.5,3.5,3.5,0,0,0,3,1.7,4.3,4.3,0,0,0,2.6-.8,4.6,4.6,0,0,0,1.5-1.8l.9.5a6.5,6.5,0,0,1-1.9,2.2,5.9,5.9,0,0,1-3.5,1.1,6.1,6.1,0,0,1-4.8-1.9,8.6,8.6,0,0,1-1.5-5.5,7.4,7.4,0,0,1,1.9-5.2,5.9,5.9,0,0,1,4.1-1.6,5.3,5.3,0,0,1,4.1,1.7,8.3,8.3,0,0,1,1.5,5.1Zm6.2-1a7,7,0,0,0-.8-3.6,2.5,2.5,0,0,0-2.2-1.2,2.8,2.8,0,0,0-2.2,1.2,6.6,6.6,0,0,0-1,3.6Z"/>
        <path id="パス_94252" data-name="パス 94252" d="M63.9,133.6c1.1-1.5,2-2.2,3.3-2.2a2.3,2.3,0,0,1,1.6.6,1.9,1.9,0,0,1,.6,1.4c0,.8-.4,1.2-1,1.2s-.9-.3-1.1-1-.4-1-.9-1-1.5.9-2.5,2.3v7.3c0,1.8.2,2,1.9,2v.8H59.7v-.8c1.5,0,1.6-.2,1.6-2v-7c0-1.7-.1-1.9-1.6-1.9v-.8a10.2,10.2,0,0,0,3.8-1.3l.3.2v2Z"/>
        <path id="パス_94253" data-name="パス 94253" d="M78.8,135.1c-.4-2.1-1.3-2.7-3-2.7a3.5,3.5,0,0,0-1.9.5,1.5,1.5,0,0,0-.8,1.4,2.2,2.2,0,0,0,1.1,1.7c.9.5,2.3,1,2.9,1.4a7.5,7.5,0,0,1,2.3,1.6,3.4,3.4,0,0,1,1.1,2.4,3.5,3.5,0,0,1-1.4,2.9,6.8,6.8,0,0,1-4.1,1.2,10.3,10.3,0,0,1-4.3-.8,24.5,24.5,0,0,0-.6-3.2l.9-.2c.7,2.5,1.9,3.2,3.8,3.2a3.7,3.7,0,0,0,2.3-.7,2.3,2.3,0,0,0,.8-1.7,2,2,0,0,0-.6-1.4,13.6,13.6,0,0,0-2.9-1.7,14.3,14.3,0,0,1-3-2,3.5,3.5,0,0,1-.8-2.3,2.8,2.8,0,0,1,1.3-2.4,6.4,6.4,0,0,1,3.8-1,10.1,10.1,0,0,1,3.6.6,26,26,0,0,0,.5,2.9Z"/>
        <path id="パス_94254" data-name="パス 94254" d="M84.7,138.2a8.1,8.1,0,0,0,1,4.5,3.5,3.5,0,0,0,3,1.7,4.3,4.3,0,0,0,2.6-.8,4.6,4.6,0,0,0,1.5-1.8l.9.5a6.5,6.5,0,0,1-1.9,2.2,5.9,5.9,0,0,1-3.5,1.1,6.1,6.1,0,0,1-4.8-1.9,8.6,8.6,0,0,1-1.5-5.5,7.4,7.4,0,0,1,1.9-5.2,5.9,5.9,0,0,1,4.1-1.6,5.3,5.3,0,0,1,4.1,1.7,8.3,8.3,0,0,1,1.5,5.1Zm6.2-1a7,7,0,0,0-.8-3.6,2.5,2.5,0,0,0-2.2-1.2,2.8,2.8,0,0,0-2.2,1.2,6.6,6.6,0,0,0-1,3.6Z"/>
        <path id="パス_94255" data-name="パス 94255" d="M106.4,149.2c0,1.7.1,1.9,1.7,1.9v.8h-6v-.8c1.6,0,1.7-.2,1.7-2V135.3c0-1.8-.1-2-1.7-2v-.8a11.2,11.2,0,0,0,3.9-1.3l.3.2V133h.1a5.2,5.2,0,0,1,4-1.8,4.8,4.8,0,0,1,3.8,1.7,7.7,7.7,0,0,1,1.6,5.2,8.5,8.5,0,0,1-1.5,5.4,5.6,5.6,0,0,1-7.8.3h-.1Zm0-6.8a4,4,0,0,0,3.2,1.8,2.9,2.9,0,0,0,2.5-1.5,9.4,9.4,0,0,0,.9-4.6,8.1,8.1,0,0,0-.9-4.2,2.8,2.8,0,0,0-2.4-1.4,4.5,4.5,0,0,0-3.3,2Z"/>
        <path id="パス_94256" data-name="パス 94256" d="M119.8,128.3c0-1.7-.1-1.9-2.1-1.9v-.8a12.8,12.8,0,0,0,4.4-1.3l.3.2v17.6c0,1.8.1,2,2,2v.8h-6.7v-.8c2,0,2.1-.3,2.1-2Z"/>
        <path id="パス_94257" data-name="パス 94257" d="M136.1,142.3c0,1.4.3,1.9.9,1.9l.8-.2.2.8a4.9,4.9,0,0,1-2.1.4,2.1,2.1,0,0,1-2.2-1.5h-.1a5.7,5.7,0,0,1-4.3,1.7,4.6,4.6,0,0,1-2.8-.9,3.2,3.2,0,0,1-1.2-2.6,3.7,3.7,0,0,1,1.9-3.3,13.6,13.6,0,0,1,4.5-1.7l1.8-.4v-1.3a4.1,4.1,0,0,0-.4-2,2.3,2.3,0,0,0-2-.9,2.7,2.7,0,0,0-1.9.7,3.7,3.7,0,0,0-.9,1.4,1.1,1.1,0,0,1-1.2.8.9.9,0,0,1-1-1,2.8,2.8,0,0,1,1.6-2.2,7.6,7.6,0,0,1,3.7-.8c2,0,3.1.4,3.9,1.2a4.2,4.2,0,0,1,1,3.1Zm-2.6-4.8a13.5,13.5,0,0,0-3.6,1.4,3,3,0,0,0-1.8,2.7,2.5,2.5,0,0,0,.6,1.8,2.3,2.3,0,0,0,1.8.7,4.2,4.2,0,0,0,3-1.4Z"/>
        <path id="パス_94258" data-name="パス 94258" d="M151.3,142.3c0,1.7.1,2,1.4,2v.8h-5.5v-.8c1.4,0,1.5-.2,1.5-2v-6.5a3.7,3.7,0,0,0-.7-2.6,2.1,2.1,0,0,0-1.6-.6c-1.1,0-2.4,1.1-3.6,2.7v7c0,1.8.1,2,1.4,2v.8h-5.7v-.8c1.6,0,1.7-.2,1.7-2v-6.9c0-1.8-.2-2-1.7-2v-.8a9.9,9.9,0,0,0,3.8-1.3l.4.2v2.2h.1a5.8,5.8,0,0,1,4.4-2.4,4.1,4.1,0,0,1,3,1,4.3,4.3,0,0,1,1.1,3.4Z"/>
        <path id="パス_94259" data-name="パス 94259" d="M166.4,142.3c0,1.7.1,2,1.4,2v.8h-5.5v-.8c1.4,0,1.5-.2,1.5-2v-6.5a3.7,3.7,0,0,0-.7-2.6,2.1,2.1,0,0,0-1.6-.6c-1.1,0-2.4,1.1-3.6,2.7v7c0,1.8.1,2,1.4,2v.8h-5.7v-.8c1.6,0,1.7-.2,1.7-2v-6.9c0-1.8-.2-2-1.7-2v-.8a9.9,9.9,0,0,0,3.8-1.3l.4.2v2.2h.1a5.8,5.8,0,0,1,4.4-2.4,4.1,4.1,0,0,1,3,1,4.3,4.3,0,0,1,1.1,3.4Z"/>
        <path id="パス_94260" data-name="パス 94260" d="M173.5,142.2c0,1.8.1,2,2,2v.8h-6.8v-.8c2,0,2.1-.3,2.1-2v-7c0-1.8-.1-1.9-2.1-1.9v-.8a12.6,12.6,0,0,0,4.5-1.3l.3.2ZM172,126a1.9,1.9,0,1,1-1.6,1.9A1.7,1.7,0,0,1,172,126Z"/>
        <path id="パス_94261" data-name="パス 94261" d="M189.5,142.3c0,1.7.1,2,1.4,2v.8h-5.5v-.8c1.4,0,1.5-.2,1.5-2v-6.5a3.7,3.7,0,0,0-.7-2.6,2.1,2.1,0,0,0-1.6-.6c-1.1,0-2.4,1.1-3.6,2.7v7c0,1.8.1,2,1.4,2v.8h-5.7v-.8c1.6,0,1.7-.2,1.7-2v-6.9c0-1.8-.2-2-1.7-2v-.8a9.9,9.9,0,0,0,3.8-1.3l.4.2v2.2h.1a5.8,5.8,0,0,1,4.4-2.4,4.1,4.1,0,0,1,3,1,4.3,4.3,0,0,1,1.1,3.4Z"/>
        <path id="パス_94262" data-name="パス 94262" d="M199.9,143.5c4.3,0,5.7,1.9,5.7,3.9s-2.9,5-7.5,5-6.5-1.2-6.5-3.5,1.6-3,3.2-3.7c-1.1-.3-2.2-.9-2.2-2.2s1-2,2.2-2.6a4.7,4.7,0,0,1-2.2-4.1c0-3.2,2.5-5,5.8-5a7.5,7.5,0,0,1,3.5.8l3.9-.4v1.4l-2.9-.2a4.4,4.4,0,0,1,1.4,3.3c0,3.4-2.7,5-5.7,5a7.5,7.5,0,0,1-2.8-.5q-1.2.75-1.2,1.5c0,.5.8,1.2,2.5,1.2Zm-3.9,2c-1.4.9-2.2,1.8-2.2,3s1.7,2.8,4.5,2.8,5.2-1.6,5.2-3.3-.7-2.5-3.8-2.5Zm2.4-5.2c2,0,3.1-1.6,3.1-4s-1-3.9-3.2-3.9-3.1,1.9-3.1,3.9S196.4,140.3,198.4,140.3Z"/>
        <path id="パス_94263" data-name="パス 94263" d="M218.5,142.2c0,1.8.1,2,2,2v.8h-6.8v-.8c2,0,2.1-.3,2.1-2v-7c0-1.8-.1-1.9-2.1-1.9v-.8a12.6,12.6,0,0,0,4.5-1.3l.3.2ZM217.1,126a1.9,1.9,0,1,1-1.6,1.9,1.7,1.7,0,0,1,1.6-1.9Z"/>
        <path id="パス_94264" data-name="パス 94264" d="M230.3,135.1c-.4-2.1-1.3-2.7-3-2.7a3.5,3.5,0,0,0-1.9.5,1.5,1.5,0,0,0-.8,1.4,2.2,2.2,0,0,0,1.1,1.7c.9.5,2.3,1,2.9,1.4a7.5,7.5,0,0,1,2.3,1.6,3.4,3.4,0,0,1,1.1,2.4,3.5,3.5,0,0,1-1.4,2.9,6.8,6.8,0,0,1-4.1,1.2,10.3,10.3,0,0,1-4.3-.8,24.6,24.6,0,0,0-.6-3.2l.9-.2c.7,2.5,1.9,3.2,3.8,3.2a3.7,3.7,0,0,0,2.3-.7,2.3,2.3,0,0,0,.8-1.7,2,2,0,0,0-.6-1.4,13.6,13.6,0,0,0-2.9-1.7,14.3,14.3,0,0,1-3-2,3.5,3.5,0,0,1-.8-2.3,2.8,2.8,0,0,1,1.3-2.4,6.4,6.4,0,0,1,3.8-1,10.1,10.1,0,0,1,3.6.6,25.8,25.8,0,0,0,.5,2.9Z"/>
        <path id="パス_94265" data-name="パス 94265" d="M242.6,132.7h-2v-1h2v-1.8a5.6,5.6,0,0,1,1.5-4.2,4.8,4.8,0,0,1,3.3-1.2,4.6,4.6,0,0,1,2.7.8,2.4,2.4,0,0,1,1.3,1.9.9.9,0,0,1-1,1.1c-.8,0-1.1-.7-1.4-1.4s-.6-1.3-1.5-1.3a1.7,1.7,0,0,0-1.3.6c-.6.7-.9,1.8-.9,3.8v1.8h3.6v1h-3.6v9.5c0,1.9.1,2,2.3,2v.8h-7v-.8c2,0,2.1-.2,2.1-2.1Z"/>
        <path id="パス_94266" data-name="パス 94266" d="M264.1,145.1h-1.9l-2,.3H260v-1.9h-.1a5.5,5.5,0,0,1-4.3,2,4.1,4.1,0,0,1-2.9-.9,5.2,5.2,0,0,1-1.3-3.9v-5.4c0-1.7-.1-1.9-1.5-1.9v-.8a11.8,11.8,0,0,0,3.8-1.3l.4.2v8.8a5,5,0,0,0,.6,3,2.1,2.1,0,0,0,1.8.8,4.3,4.3,0,0,0,3.3-2.1v-6.7c0-1.7-.1-1.9-1.5-1.9v-.8a11.4,11.4,0,0,0,3.8-1.3l.4.2v10.8c0,1.8.1,2,1.7,2Z"/>
        <path id="パス_94267" data-name="パス 94267" d="M277.8,142.3c0,1.7.1,2,1.4,2v.8h-5.5v-.8c1.4,0,1.5-.2,1.5-2v-6.5a3.7,3.7,0,0,0-.7-2.6,2.1,2.1,0,0,0-1.6-.6c-1.1,0-2.4,1.1-3.6,2.7v7c0,1.8.1,2,1.4,2v.8H265v-.8c1.6,0,1.7-.2,1.7-2v-6.9c0-1.8-.2-2-1.7-2v-.8a9.9,9.9,0,0,0,3.8-1.3l.4.2v2.2h.1a5.8,5.8,0,0,1,4.4-2.4,4.1,4.1,0,0,1,3,1,4.3,4.3,0,0,1,1.1,3.4Z"/>
      </g>
    </g>
  </g>
</svg>
