<svg xmlns="http://www.w3.org/2000/svg" width="221.5" height="103.2" viewBox="0 0 221.5 103.2">
  <g id="アートワーク_16" data-name="アートワーク 16" transform="translate(110.75 51.6)">
    <g id="グループ_78210" data-name="グループ 78210" transform="translate(-110.75 -51.6)">
      <g id="グループ_78208" data-name="グループ 78208" transform="translate(0 0)">
        <path id="パス_86304" data-name="パス 86304" d="M19.2,3.7H6.8V41.8H4V1H19.2Z"/>
        <path id="パス_86305" data-name="パス 86305" d="M32.8,25.6H26.3L25.6,24h6.6l2.4-3.5,4.6,3.7a1.9,1.9,0,0,1,.8,1.3c0,.5-.2.6-2,1.4V42.4c3.9,4.8,8.6,5.2,17.8,5.2H78.9v1.2a3.8,3.8,0,0,0-2.5,3.5H56.1c-7.9,0-14,0-19.4-8.7L34.4,46l-4.9,5.1c-.3,1.6-.3,1.8-.9,1.8s-.6-.1-.9-.8l-2.2-5.3c3.1-1.2,4.1-1.6,7.3-3ZM27.9,2.5c2.1.2,5.5.5,8.4,3a5.5,5.5,0,0,1,2.2,4.1c0,1.7-1,3.1-2.4,3.1s-2.7-2-3.5-3.4a13.6,13.6,0,0,0-5-5.6ZM71.1,3c.5.3.9.7.9,1s-1,.7-2.3.6l-4,4.2L64,10.5l-1.6,1.7h7.7l3-3.6,4.8,4.1v1.1H61.2V30.5h8V17.1l6,.6c.5.1,1,.4,1,.8s-.5.9-2,1.5V34.8l-5,.8V32.1H61.1c-.2,1.9-.6,4.8-4.4,8.4a22.8,22.8,0,0,1-11.1,5.7l-.7-.7C50.8,42,54.6,39.6,56.1,32H48.7v3.5l-4.9.7V16.6l5.9.8c.6.1,1.1.5,1.1.8s-1.2,1.2-2.1,1.6V30.5h7.5V13.8H39.5L39,12.2H60.3A88.3,88.3,0,0,0,65.8.1ZM49,7.3a11.2,11.2,0,0,0-3.9-5.6l.5-.9c3.8.9,9.2,2.8,9.2,7.1A3.2,3.2,0,0,1,52,11.3c-1.4,0-2-1.2-2.4-2.1Z"/>
        <path id="パス_86306" data-name="パス 86306" d="M103.9,5.4l2.3-3.1,4.3,3.4V7H99.1c3.4,1.6,4.1,2.6,4.1,4a2.5,2.5,0,0,1-2.5,2.6c-1.6,0-2-1.3-2.3-2.1l-.5-2A5.5,5.5,0,0,0,96.4,7H94.8c-3.4,4.9-5,6.9-9.5,10.5l-.9-.9A42.2,42.2,0,0,0,92.6.2l5.8,1.3c.3.1,1,.3,1,.8s-.2.8-2.6,1.5l-1,1.6Zm24.8-.1,2.7-3.5,5.2,3.8V7H120.3c.9.4,3.7,1.5,3.7,3.9a2.5,2.5,0,0,1-2.2,2.7c-1.7,0-2.1-1.5-2.4-2.6a10.7,10.7,0,0,0-1.9-4H116a51.4,51.4,0,0,1-8.8,7.8h16.3l1.9-2.6,4.5,3c.3.2.8.6.8.9s-.6.9-1.9,1.5V35.3l-5.1.8V34.5h-3.4v5.3h9.1l2.8-3.7,5,4.1v1.1h-17V52.5l-5.1.8V41.4h-8.7c-.9,2.4-2.2,5.8-8.5,8.9a37,37,0,0,1-12.1,3.4l-.3-1.3c6-1.3,12.1-3.2,15.8-11h-16l-.8-1.6h17.2a34.8,34.8,0,0,0,.6-5.3h-4v1.6l-4.9.9V12.2l5.3,2.6H105A38,38,0,0,0,114.5,0L120,1.5c.4.1.8.4.8.8s-.2.6-2.2,1.2l-1.3,1.9Zm-5,15v-4H98.4v4.1Zm0,5.9V21.9H98.4v4.3Zm0,6.6v-5H98.4v5Zm-8.5,7V34.5h-7.7a25.9,25.9,0,0,1-.6,5.3Z"/>
        <path id="パス_86307" data-name="パス 86307" d="M143.2,50.1h12.4V12h2.7V52.8H143.2Z"/>
      </g>
      <g id="グループ_78209" data-name="グループ 78209" transform="translate(0 0)">
        <path id="パス_86308" data-name="パス 86308" d="M3.5,89.7H.4L0,88.9H3.2l1.2-1.7L6.6,89a.9.9,0,0,1,.4.6c0,.3-.1.3-1,.7v7.5c1.9,2.3,4.2,2.5,8.6,2.5H25.8v.6a1.8,1.8,0,0,0-1.2,1.7H14.8c-3.8,0-6.7,0-9.4-4.2L4.3,99.6,1.9,102c-.2.8-.2.9-.4.9s-.3-.1-.4-.4L0,99.9l3.5-1.4ZM1.2,78.5a6.9,6.9,0,0,1,4,1.4,2.7,2.7,0,0,1,1.1,2,1.4,1.4,0,0,1-1.2,1.5c-.8,0-1.3-1-1.7-1.7A6.6,6.6,0,0,0,1,79.1Zm20.9.2a.51.51,0,0,1,.4.5c0,.2-.5.3-1.1.3l-1.9,2-.8.8-.8.8h3.7L23,81.5l2.3,2V84H17.2v8h3.9V85.6l2.9.3a.458.458,0,0,1,.5.4c0,.2-.3.4-1,.7v7.1l-2.4.4V92.8H17.2a6.1,6.1,0,0,1-2.1,4.1,11,11,0,0,1-5.4,2.8l-.3-.3c2.8-1.7,4.7-2.8,5.4-6.5H11.2v1.7l-2.4.3V85.4l2.8.4a.458.458,0,0,1,.5.4c0,.2-.6.6-1,.8v5h3.6V84h-8l-.3-.8H16.8a42.6,42.6,0,0,0,2.7-5.9ZM11.3,80.8a5.4,5.4,0,0,0-1.9-2.7l.2-.4c1.8.4,4.5,1.4,4.5,3.4a1.5,1.5,0,0,1-1.4,1.6,1.178,1.178,0,0,1-1.1-1Z"/>
        <path id="パス_86309" data-name="パス 86309" d="M37.9,79.9,39,78.4l2.1,1.7v.6H35.5c1.7.8,2,1.3,2,1.9a1.2,1.2,0,0,1-1.2,1.3,1.093,1.093,0,0,1-1.1-1l-.2-1a2.7,2.7,0,0,0-.7-1.2h-.8a19,19,0,0,1-4.6,5.1l-.4-.4a20.4,20.4,0,0,0,4-7.9l2.8.6c.1.1.5.1.5.4s-.1.4-1.2.7l-.5.8Zm12,0,1.3-1.7L53.7,80v.6H45.8c.4.2,1.8.7,1.8,1.9a1.2,1.2,0,0,1-1.1,1.3c-.8,0-1-.7-1.1-1.2a5.2,5.2,0,0,0-.9-2h-.7a24.9,24.9,0,0,1-4.3,3.8h7.9l.9-1.3,2.2,1.4c.1.1.4.3.4.4s-.3.4-.9.7v8.6l-2.5.4V94H45.8v2.6h4.4l1.4-1.8,2.4,2v.5H45.8v5.4l-2.5.4V97.3H39.1c-.4,1.1-1.1,2.8-4.1,4.3a17.9,17.9,0,0,1-5.9,1.6l-.2-.6c2.9-.6,5.8-1.6,7.6-5.3H28.9l-.4-.8h8.3a16.8,16.8,0,0,0,.3-2.6H35.2v.8l-2.4.4v-12l2.5,1.2h3.1a18.4,18.4,0,0,0,4.6-7l2.7.7c.2.1.4.2.4.4s-.1.3-1.1.6l-.6.9Zm-2.4,7.3v-2H35.2v2Zm0,2.9V87.9H35.2V90Zm0,3.2V90.8H35.2v2.4Zm-4.1,3.4V94H39.6a12.5,12.5,0,0,1-.3,2.6Z"/>
        <path id="パス_86310" data-name="パス 86310" d="M58.9,88.2c.3.5.7,1.4,1.6,1.4a11.8,11.8,0,0,0,2.6-.6,39.71,39.71,0,0,1,8.1-1.6,5.8,5.8,0,0,1,6.2,6.2c0,7.3-8.9,8.1-13.8,8.2v-.6c2.5-.3,11.7-1.3,11.7-8.1,0-1.9-1-4.5-4.1-4.5a19.6,19.6,0,0,0-8.6,2.8c-.9.7-1,.7-1.1.7s-2-.4-3-3.6Z"/>
        <path id="パス_86311" data-name="パス 86311" d="M100.9,82.8H99.5c-2.8,0-4.1.6-5.5,2A11.8,11.8,0,0,0,90.4,93c0,2,.6,4.2,3.9,5.5a9.7,9.7,0,0,0,3.4.6h1c.5,0,1.3,1,1.3,1.7s-.3,1.1-1.5,1.1-9.9-.7-9.9-8a13,13,0,0,1,2.2-7.1,14.3,14.3,0,0,1,3.4-3.7l-1.1.2c-7.2,1.2-8.9,2-9.2,2.1s-.9.6-1.1.6A3.7,3.7,0,0,1,81,84.9a7,7,0,0,1-1.7-2.7l.6-.3a2.8,2.8,0,0,0,2.4,1.5l1.2-.2,3.9-.7c3-.5,8.1-1.1,9.8-1.3L99,81l1.7-.3.7-.3a3.5,3.5,0,0,1,2.3,2c0,.4-.4.5-.7.5h-2.1Z"/>
        <path id="パス_86312" data-name="パス 86312" d="M106.9,95.9a8.3,8.3,0,0,1,4.3,1.8,4,4,0,0,1,1.4,2.7,1.7,1.7,0,0,1-1.5,1.8c-1.1,0-1.3-.7-1.7-2.2a5.4,5.4,0,0,0-2.7-3.6Z"/>
        <path id="パス_86313" data-name="パス 86313" d="M152.5,93.5l1.3-1.7,2.5,2v.5h-11a16.2,16.2,0,0,0,4.3,2.8,23.4,23.4,0,0,0,7.2,2.3l-.2.5c-1,.2-1.5.5-1.9,1.9a20.7,20.7,0,0,1-9.8-6.9v7.6l-2.5.3v-7a33.9,33.9,0,0,1-11.1,6.1l-.2-.5a35.4,35.4,0,0,0,9.7-7.2H132l-.5-.8h10.9V91.1l2.8.3c.3,0,.6.1.6.4s-.3.4-.9.7v1Zm-21.2-3.9a58.8,58.8,0,0,0,7.2-3.4l.3.6-1.5,1.4L133.8,91c0,.8-.1.9-.3.9l-.4-.2Zm1.3-9.3c1.7.4,4.9,1.3,4.9,3.6a1.2,1.2,0,0,1-1.2,1.4,1.078,1.078,0,0,1-1.1-.8l-.6-1.2a7.1,7.1,0,0,0-2.3-2.4Zm8.6.5h1a29.382,29.382,0,0,0,.5-3.5l2.6.8c.3.1.4.3.4.4s-.1.3-.9.5l-1.4,1.7h2.4l.8-1.1,2,1.3c.1.1.5.3.5.5s-.1.3-.9.7V91l-2.3.3v-1h-4.8v1l-2.3.4v-12ZM146,85V81.6h-4.8V85Zm0,4.5V85.8h-4.8v3.8Zm9-8.5c.3.3.4.4.4.5s-.1.4-1.1.4a27.5,27.5,0,0,1-5.1,3.3l-.4-.4a34.6,34.6,0,0,0,4.3-5.4Zm-5.8,4.9c4.7.8,6,2.6,6,3.9a1.2,1.2,0,0,1-1,1.3c-.7,0-1-.6-1.2-1a10,10,0,0,0-3.9-3.7Z"/>
        <path id="パス_86314" data-name="パス 86314" d="M163,78.7c2,.1,2.9.1,4.1,1.1s.8.8.8,1.2,0,.3-.3.8c-1.5,2.7-1.6,11.8-1.6,11.9,0,3.2.4,5.4,4.3,5.4s8.5-3.6,11.2-7.9l.6.3c-1.3,2.7-2.3,4.7-4.6,6.8a10.8,10.8,0,0,1-7.2,3.1,6.8,6.8,0,0,1-4.6-1.6c-1.4-1.3-1.6-3.4-1.6-6.3q0-.952.1-1.9l.7-9V81.3a4.1,4.1,0,0,0,.1-.6c0-.8-.7-1.1-2.2-1.5Z"/>
        <path id="パス_86315" data-name="パス 86315" d="M188.3,80.2a7.5,7.5,0,0,1,3.5,2.2,2.7,2.7,0,0,1,.8,1.5c0,.2-.1.4-.4.7a19.024,19.024,0,0,0-1.7,6,9.1,9.1,0,0,0,2.1,6l1.3-1.9,3.6-5.5.4.4-2.5,4.8a11.4,11.4,0,0,0-1.3,3.4c0,.3.3,1.3.3,1.6a1,1,0,0,1-.9,1.1c-1.4,0-4.7-3.2-4.7-10.1a28.4,28.4,0,0,1,.3-4l.3-1.9a7.7,7.7,0,0,0,.1-1.3,2.8,2.8,0,0,0-1.6-2.5Zm14.3,2.4c1.9,1,7.3,3.9,7.3,12.5,0,1.1-.2,2.5-1.5,2.5s-.8-.5-1.1-1-1.5-1.4-4.7-1.7v-.6l3.8-.2h1a13.9,13.9,0,0,0-5.1-11Z"/>
        <path id="パス_86316" data-name="パス 86316" d="M221.5,98.7a3.4,3.4,0,1,1-1.031-2.44A3.4,3.4,0,0,1,221.5,98.7Zm-5.6,0a2.2,2.2,0,1,0,4.4,0,2.1,2.1,0,0,0-2.2-2.2,2.2,2.2,0,0,0-2.2,2.3Z"/>
      </g>
    </g>
  </g>
</svg>
