<svg xmlns="http://www.w3.org/2000/svg" width="144.7" height="101.7" viewBox="0 0 144.7 101.7">
  <g id="アートワーク_28" data-name="アートワーク 28" transform="translate(72.35 50.85)">
    <g id="グループ_78472" data-name="グループ 78472" transform="translate(-72.35 -50.85)">
      <g id="グループ_78470" data-name="グループ 78470">
        <path id="パス_94156" data-name="パス 94156" d="M23,11.4c-1.3-6-2.7-8-8.8-8A9.3,9.3,0,0,0,8,5.5,5.2,5.2,0,0,0,6.2,9.6a6.2,6.2,0,0,0,1.7,4.3c1.3,1.5,3.4,2.6,7,4.7s7.7,3.9,9.9,6.6a10.9,10.9,0,0,1,2.4,7A10.5,10.5,0,0,1,24,39.9c-2.4,2.3-6.2,3.8-11.4,3.8A33.2,33.2,0,0,1,1.8,41.8,61.6,61.6,0,0,0,0,32.9l2.4-.6c1.8,7.1,4.9,8.9,10.5,8.9a9.7,9.7,0,0,0,6.3-2,7.1,7.1,0,0,0,2.6-5.6,7.1,7.1,0,0,0-1.7-4.9c-1.7-2-4.3-3.4-7.7-5.2s-7.7-4-9.7-6.8A10.7,10.7,0,0,1,1,10.8,9,9,0,0,1,4.6,3.7C6.7,2,10,.9,14.4.9A26,26,0,0,1,24,2.6c.3,2.3.8,5.4,1.3,8.4Z"/>
        <path id="パス_94157" data-name="パス 94157" d="M39.1,51.4c0,3.5.3,4,3.5,4v1.7H30.2V55.4c3.3,0,3.5-.5,3.5-4.1V22.6c0-3.7-.2-4.1-3.5-4.1V16.9a23.1,23.1,0,0,0,8-2.6l.6.4.2,3.4h.1a10.7,10.7,0,0,1,8.4-3.8,9.9,9.9,0,0,1,7.8,3.5c2,2.3,3.4,5.9,3.4,10.8s-1,8.6-3.1,11.2A10.5,10.5,0,0,1,47,43.6a10.6,10.6,0,0,1-7.7-3h-.1Zm0-14c1.8,2.4,4.1,3.8,6.7,3.8a5.9,5.9,0,0,0,5.2-3c1.2-2,1.9-5,1.9-9.6s-.7-6.8-1.9-8.8a5.8,5.8,0,0,0-5-2.9c-2.9,0-5,2-6.8,4.1Z"/>
        <path id="パス_94158" data-name="パス 94158" d="M67.3,28.5c0,3.7.5,6.8,2,9.2a7.3,7.3,0,0,0,6.3,3.5A8.8,8.8,0,0,0,81,39.6a9.6,9.6,0,0,0,3-3.7l1.9,1A13.4,13.4,0,0,1,82,41.4a12.2,12.2,0,0,1-7.3,2.2c-4,0-7.5-1.2-9.9-4s-3.2-6.1-3.2-11.3a15.4,15.4,0,0,1,3.9-10.7,12.2,12.2,0,0,1,8.6-3.2,11,11,0,0,1,8.6,3.5,17.2,17.2,0,0,1,3.2,10.6Zm12.9-2.1c0-2.8-.5-5.7-1.7-7.5A5.2,5.2,0,0,0,74,16.5a5.9,5.9,0,0,0-4.6,2.4,13.7,13.7,0,0,0-2.1,7.5Z"/>
        <path id="パス_94159" data-name="パス 94159" d="M94.7,28.5c0,3.7.5,6.8,2,9.2a7.3,7.3,0,0,0,6.3,3.5,8.8,8.8,0,0,0,5.3-1.7,9.6,9.6,0,0,0,3.1-3.7l1.9,1a13.4,13.4,0,0,1-3.9,4.5,12.2,12.2,0,0,1-7.3,2.2c-4,0-7.5-1.2-9.9-4S89,33.4,89,28.2a15.4,15.4,0,0,1,3.9-10.7,12.2,12.2,0,0,1,8.6-3.2,11,11,0,0,1,8.6,3.5,17.2,17.2,0,0,1,3.2,10.6Zm12.9-2.1c0-2.8-.5-5.7-1.7-7.5a5.2,5.2,0,0,0-4.5-2.4,5.9,5.9,0,0,0-4.6,2.4,13.7,13.7,0,0,0-2.1,7.5Z"/>
        <path id="パス_94160" data-name="パス 94160" d="M136,8.1c0-3.5-.2-4-3.6-4V2.6A22.4,22.4,0,0,0,140.8,0l.7.3V37.6c0,3.4.4,3.7,3.2,3.7v1.5h-3.8a20,20,0,0,0-4,.7l-.5-.3-.2-3.1h-.1a11.2,11.2,0,0,1-16.5-.4c-2.1-2.6-3.2-6.4-3.2-11.3a15.8,15.8,0,0,1,3.1-10c2-2.6,5-4.1,9.3-4.1a9.9,9.9,0,0,1,7.1,3h.1Zm0,12.5c-1.3-2-3.6-3.9-6.2-3.9a7,7,0,0,0-5.7,2.9c-1.2,1.9-2,4.8-2,9.3a17.5,17.5,0,0,0,2,9,6.2,6.2,0,0,0,5.3,3.3c2.9,0,5.1-2,6.6-4Z"/>
      </g>
      <g id="グループ_78471" data-name="グループ 78471">
        <path id="パス_94161" data-name="パス 94161" d="M12,79.7c-.6-2.9-1.3-3.9-4.2-3.9a4.5,4.5,0,0,0-3,1,2.5,2.5,0,0,0-.9,2,3,3,0,0,0,.8,2.1,14.9,14.9,0,0,0,3.4,2.3c2.2,1.2,3.7,1.9,4.8,3.2a5.3,5.3,0,0,1,1.2,3.4,5.1,5.1,0,0,1-1.6,3.8A7.8,7.8,0,0,1,7,95.3a16,16,0,0,1-5.2-.9,29.8,29.8,0,0,0-.9-4.3l1.2-.3C3,93.2,4.5,94,7.2,94a4.7,4.7,0,0,0,3-1,3.7,3.7,0,0,0,.4-5.1,12.4,12.4,0,0,0-3.7-2.5c-1.7-1-3.7-1.9-4.7-3.3a5.2,5.2,0,0,1-.8-2.8,4.3,4.3,0,0,1,1.7-3.4,7.8,7.8,0,0,1,4.8-1.3,12.5,12.5,0,0,1,4.6.8c.1,1.1.4,2.6.6,4Z"/>
        <path id="パス_94162" data-name="パス 94162" d="M19.8,99c0,1.7.1,1.9,1.7,1.9v.8h-6v-.8c1.6,0,1.7-.2,1.7-2V85.1c0-1.8-.1-2-1.7-2v-.8A11.2,11.2,0,0,0,19.4,81l.3.2v1.6h.1a5.2,5.2,0,0,1,4-1.8,4.8,4.8,0,0,1,3.8,1.7A7.7,7.7,0,0,1,29.2,88a8.5,8.5,0,0,1-1.5,5.4,5.1,5.1,0,0,1-4.1,1.8,5.1,5.1,0,0,1-3.7-1.5h-.1Zm0-6.8A4,4,0,0,0,23.1,94a2.9,2.9,0,0,0,2.5-1.5,9.4,9.4,0,0,0,.9-4.6,8.1,8.1,0,0,0-.9-4.2,2.8,2.8,0,0,0-2.4-1.4,4.5,4.5,0,0,0-3.3,2Z"/>
        <path id="パス_94163" data-name="パス 94163" d="M33.5,87.9a8.1,8.1,0,0,0,1,4.5,3.5,3.5,0,0,0,3,1.7,4.3,4.3,0,0,0,2.6-.8,4.6,4.6,0,0,0,1.5-1.8l.9.5a6.5,6.5,0,0,1-1.9,2.2,5.9,5.9,0,0,1-3.6,1,6.1,6.1,0,0,1-4.8-1.9,8.6,8.6,0,0,1-1.5-5.5,7.4,7.4,0,0,1,1.9-5.2A5.9,5.9,0,0,1,36.7,81a5.3,5.3,0,0,1,4.1,1.7,8.3,8.3,0,0,1,1.5,5.1Zm6.2-1a7,7,0,0,0-.8-3.6,2.5,2.5,0,0,0-2.2-1.2,2.8,2.8,0,0,0-2.2,1.2,6.6,6.6,0,0,0-1,3.6Z"/>
        <path id="パス_94164" data-name="パス 94164" d="M46.7,87.9a8.1,8.1,0,0,0,1,4.5,3.5,3.5,0,0,0,3,1.7,4.3,4.3,0,0,0,2.6-.8,4.6,4.6,0,0,0,1.5-1.8l.9.5a6.5,6.5,0,0,1-1.9,2.2,5.9,5.9,0,0,1-3.5,1.1,6.1,6.1,0,0,1-4.8-1.9A8.6,8.6,0,0,1,44,87.9a7.4,7.4,0,0,1,1.9-5.2A5.9,5.9,0,0,1,50,81.1a5.3,5.3,0,0,1,4.1,1.7,8.3,8.3,0,0,1,1.5,5.1Zm6.2-1a7,7,0,0,0-.8-3.6,2.5,2.5,0,0,0-2.2-1.2,2.8,2.8,0,0,0-2.2,1.2,6.6,6.6,0,0,0-1,3.6Z"/>
        <path id="パス_94165" data-name="パス 94165" d="M66.6,78.1c0-1.7-.1-1.9-1.7-1.9v-.8a10.8,10.8,0,0,0,4-1.2l.3.2v18c0,1.6.2,1.8,1.6,1.8v.7H69l-1.9.3-.3-.2V93.5h-.1a5.4,5.4,0,0,1-8-.2,8.3,8.3,0,0,1-1.6-5.4,7.6,7.6,0,0,1,1.5-4.8,5.4,5.4,0,0,1,4.5-2,4.8,4.8,0,0,1,3.4,1.4h.1Zm0,6a3.8,3.8,0,0,0-3-1.9,3.4,3.4,0,0,0-2.8,1.4,8.5,8.5,0,0,0-1,4.5,8.4,8.4,0,0,0,1,4.3A3,3,0,0,0,63.4,94a4.1,4.1,0,0,0,3.2-1.9Z"/>
        <path id="パス_94166" data-name="パス 94166" d="M83.9,92c0,1.8.1,2,2,2v.8H79.1V94c2,0,2.1-.3,2.1-2V85c0-1.8-.1-1.9-2.1-1.9v-.8A12.6,12.6,0,0,0,83.6,81l.3.2ZM82.4,75.8a1.9,1.9,0,1,1-1.6,1.9,1.7,1.7,0,0,1,1.6-1.9Z"/>
        <path id="パス_94167" data-name="パス 94167" d="M95.6,84.8c-.4-2.1-1.3-2.7-3-2.7a3.5,3.5,0,0,0-1.9.5,1.5,1.5,0,0,0-.8,1.4A2.2,2.2,0,0,0,91,85.7c.9.5,2.3,1,2.9,1.4a7.5,7.5,0,0,1,2.3,1.6,3.4,3.4,0,0,1,1.1,2.4A3.5,3.5,0,0,1,95.9,94a6.8,6.8,0,0,1-4.1,1.2,10.3,10.3,0,0,1-4.3-.8,24.6,24.6,0,0,0-.6-3.2l.9-.2c.7,2.5,1.9,3.2,3.8,3.2a3.7,3.7,0,0,0,2.3-.7,2.3,2.3,0,0,0,.8-1.7,2,2,0,0,0-.6-1.4,13.6,13.6,0,0,0-2.9-1.7,14.3,14.3,0,0,1-3-2,3.5,3.5,0,0,1-.8-2.3A2.8,2.8,0,0,1,88.6,82a6.4,6.4,0,0,1,3.8-1,10.1,10.1,0,0,1,3.6.6,25.8,25.8,0,0,0,.5,2.9Z"/>
        <path id="パス_94168" data-name="パス 94168" d="M107.9,82.5h-2v-1h2V79.6a5.6,5.6,0,0,1,1.5-4.2,4.8,4.8,0,0,1,3.3-1.2,4.6,4.6,0,0,1,2.7.8,2.4,2.4,0,0,1,1.3,1.9.9.9,0,0,1-1,1.1c-.8,0-1.1-.7-1.4-1.4s-.6-1.3-1.5-1.3a1.7,1.7,0,0,0-1.3.6c-.6.7-.9,1.8-.9,3.8v1.8h3.6v1h-3.6V92c0,1.9.1,2,2.3,2v.8h-7V94c2,0,2.1-.2,2.1-2.1Z"/>
        <path id="パス_94169" data-name="パス 94169" d="M129.4,94.8h-1.9l-2,.3h-.3V93.2h-.1a5.5,5.5,0,0,1-4.3,2,4.1,4.1,0,0,1-2.9-.9,5.2,5.2,0,0,1-1.3-3.9V85c0-1.7-.1-1.9-1.5-1.9v-.8a11.8,11.8,0,0,0,3.8-1.3l.4.2V90a5,5,0,0,0,.6,3,2.1,2.1,0,0,0,1.8.8,4.3,4.3,0,0,0,3.3-2.1V85c0-1.7-.1-1.9-1.5-1.9v-.8a11.4,11.4,0,0,0,3.8-1.3l.4.2V92c0,1.8.1,2,1.7,2Z"/>
        <path id="パス_94170" data-name="パス 94170" d="M143.1,92c0,1.7.1,2,1.4,2v.8H139V94c1.4,0,1.5-.2,1.5-2V85.5a3.7,3.7,0,0,0-.7-2.6,2.1,2.1,0,0,0-1.6-.6c-1.1,0-2.4,1.1-3.6,2.7v7c0,1.8.1,2,1.4,2v.8h-5.7V94c1.6,0,1.7-.2,1.7-2V85.1c0-1.8-.2-2-1.7-2v-.8a9.9,9.9,0,0,0,3.8-1.3l.4.2v2.2h.1A5.8,5.8,0,0,1,139,81a4.1,4.1,0,0,1,3,1,4.3,4.3,0,0,1,1.1,3.4Z"/>
      </g>
    </g>
  </g>
</svg>
