<svg xmlns="http://www.w3.org/2000/svg" width="506" height="64.852" viewBox="0 0 506 64.852">
  <g id="アートワーク_31" data-name="アートワーク 31" transform="translate(253 32.426)">
    <g id="グループ_78598" data-name="グループ 78598" transform="translate(-253 -32.426)">
      <path id="パス_98847" data-name="パス 98847" d="M22.2,41.351c0,4.506.25,4.923,6.008,4.923v2.253H9.93V46.275c5.758,0,6.008-.417,6.008-4.923V5.3H8.177c-3.755,0-4.256.334-5.591,7.76H0L1.5,2.3h35.13l1.5,10.681h-2.5c-1.335-7.51-1.919-7.76-5.674-7.76H22.2Z" transform="translate(0 -0.371)"/>
      <path id="パス_98848" data-name="パス 98848" d="M54.246,24.373C56.916,20.785,59,19.2,61.923,19.2a5.257,5.257,0,0,1,3.755,1.5,4.506,4.506,0,0,1,1.5,3.338c0,1.752-.918,2.837-2.42,2.837s-2.086-.584-2.587-2.253-1-2.336-2.086-2.336-3.5,2-5.758,5.424V44.65c0,4.089.417,4.673,4.422,4.673v1.919H44.4V49.323c3.421,0,3.755-.417,3.755-4.756V28.379c0-4.005-.334-4.422-3.755-4.422V22.2a23.781,23.781,0,0,0,8.762-2.921l.751.417.25,4.673Z" transform="translate(-7.351 -3.169)"/>
      <path id="パス_98849" data-name="パス 98849" d="M77.957,26.458C76.121,22.453,75.7,22.2,73.284,22.2v-2H86.635v1.919c-3.421,0-3.672.668-2.42,3.588l8.094,18.608h.167L100.4,24.706c.834-2,.5-2.5-2.587-2.5v-2h9.513v1.919c-2.17,0-2.754.334-3.922,3.087L89.472,59.168a19.609,19.609,0,0,1-4.089,6.425,8.428,8.428,0,0,1-6.175,2.587,8.678,8.678,0,0,1-5.09-1.419A4.005,4.005,0,0,1,72.2,63.591a2.086,2.086,0,0,1,2-2.17,3.5,3.5,0,0,1,3.171,2.17c.668,1.168,1.335,2.086,2.67,2.086,2.837,0,5.09-4.005,6.342-6.592l3-8.011Z" transform="translate(-11.954 -3.334)"/>
      <path id="パス_98850" data-name="パス 98850" d="M139.405,9.012c0-3.922-.417-4.339-4.005-4.339V2.921A27.7,27.7,0,0,0,144.746,0l.751.417V21.445h.167c2.837-3.338,6.342-5.424,10.514-5.424s5.173.751,6.509,2.17,2.67,4.589,2.67,9.012V41.388c0,4.089.334,4.756,3.421,4.756v1.919H155.76V46.144c3.171,0,3.421-.417,3.421-4.756V27.453c0-3.421-.167-5.424-1.335-6.926a4.673,4.673,0,0,0-3.838-1.669c-2.837,0-5.758,2.5-8.511,6.091V41.388c0,4.256.334,4.756,3.254,4.756v1.919H135.4V46.144c3.671,0,4.005-.5,4.005-4.756Z" transform="translate(-22.418 0.01)"/>
      <path id="パス_98851" data-name="パス 98851" d="M204.432,44.848c0,3.171.751,4.506,2.086,4.506a3.922,3.922,0,0,0,1.919-.5l.417,1.919a11.432,11.432,0,0,1-4.923.918c-2.921,0-4.423-1.168-5.173-3.421h-.167a13.351,13.351,0,0,1-9.93,3.838,10.6,10.6,0,0,1-6.425-2.086A7.343,7.343,0,0,1,179.4,43.93a8.754,8.754,0,0,1,4.422-7.76c3.087-2,5.841-2.837,10.43-3.838l4.172-1V28.41a9.512,9.512,0,0,0-1-4.756c-1-1.335-2.5-2-4.756-2a6.342,6.342,0,0,0-4.506,1.669,8.512,8.512,0,0,0-2.086,3.338,2.67,2.67,0,0,1-2.837,1.919A2.17,2.17,0,0,1,180.9,26.24c0-1.752,1.419-3.672,3.672-5.007a17.69,17.69,0,0,1,8.511-1.836c4.673,0,7.26.834,9.1,2.837s2.336,4.089,2.336,7.26ZM198.34,33.583A31.291,31.291,0,0,0,190,36.837c-2.5,1.419-4.256,3.254-4.256,6.258a5.841,5.841,0,0,0,1.419,4.256,5.424,5.424,0,0,0,4.256,1.585c3.087,0,5.257-1.752,6.926-3.338Z" transform="translate(-29.702 -3.2)"/>
      <path id="パス_98852" data-name="パス 98852" d="M227.446,24.373c2.67-3.588,4.756-5.173,7.677-5.173a5.257,5.257,0,0,1,3.755,1.5,4.506,4.506,0,0,1,1.5,3.338c0,1.752-.918,2.837-2.42,2.837s-2.086-.584-2.587-2.253-1-2.336-2.086-2.336-3.5,2-5.758,5.424V44.65c0,4.089.417,4.673,4.422,4.673v1.919H217.6V49.323c3.421,0,3.755-.417,3.755-4.756V28.379c0-4.005-.334-4.422-3.755-4.422V22.2a23.781,23.781,0,0,0,8.762-2.921l.751.417.25,4.673Z" transform="translate(-36.027 -3.169)"/>
      <path id="パス_98853" data-name="パス 98853" d="M267.912,9.1c0-3.922-.25-4.506-4.005-4.506V2.837A25.116,25.116,0,0,0,273.253,0L274,.417V42.139c0,3.755.417,4.089,3.671,4.089V47.9a35.584,35.584,0,0,0-4.256.167,22.446,22.446,0,0,0-4.506.751l-.584-.417-.167-3.421H268a12.517,12.517,0,0,1-18.524-.417c-2.42-2.837-3.672-7.176-3.672-12.6s1.168-8.428,3.5-11.265,5.674-4.589,10.43-4.589a11.1,11.1,0,0,1,8.011,3.338h.167Zm0,14.018c-1.5-2.253-4.005-4.339-6.926-4.339a7.844,7.844,0,0,0-6.425,3.254c-1.335,2.086-2.253,5.424-2.253,10.43s.751,7.51,2.253,10.1a6.926,6.926,0,0,0,6.008,3.672c3.254,0,5.758-2.253,7.343-4.506Z" transform="translate(-40.696 0.01)"/>
      <path id="パス_98854" data-name="パス 98854" d="M292.783,62.75a8.979,8.979,0,0,0,4.005-6.592,1.5,1.5,0,0,1-.584.5,1.919,1.919,0,0,1-1,.167c-1.168,0-2.5-1.168-2.5-3.338a3.5,3.5,0,0,1,3.588-3.588c2.336,0,3.5,1.919,3.5,4.506a11.1,11.1,0,0,1-5.924,9.763Z" transform="translate(-48.461 -8.251)"/>
      <path id="パス_98855" data-name="パス 98855" d="M330.905,9.012c0-3.922-.417-4.339-4.005-4.339V2.921A27.7,27.7,0,0,0,336.246,0L337,.417V21.445h.167c2.837-3.338,6.342-5.424,10.514-5.424s5.173.751,6.509,2.17,2.67,4.589,2.67,9.012V41.388c0,4.089.334,4.756,3.421,4.756v1.919H347.26V46.144c3.171,0,3.421-.417,3.421-4.756V27.453c0-3.421-.167-5.424-1.335-6.926a4.673,4.673,0,0,0-3.838-1.669c-2.837,0-5.758,2.5-8.511,6.091V41.388c0,4.256.334,4.756,3.254,4.756v1.919H326.983V46.144c3.672,0,4.005-.5,4.005-4.756Z" transform="translate(-54.124 0.01)"/>
      <path id="パス_98856" data-name="パス 98856" d="M395.932,44.848c0,3.171.751,4.506,2.086,4.506a3.922,3.922,0,0,0,1.919-.5l.417,1.919a11.432,11.432,0,0,1-4.84.918c-2.921,0-4.422-1.168-5.173-3.421h-.167a13.351,13.351,0,0,1-10.013,3.838,10.6,10.6,0,0,1-6.425-2.086A7.343,7.343,0,0,1,370.9,43.93a8.754,8.754,0,0,1,4.422-7.76c3.087-2,5.841-2.837,10.43-3.838l4.172-1V28.41a9.512,9.512,0,0,0-1-4.756c-1-1.335-2.5-2-4.756-2a6.342,6.342,0,0,0-4.506,1.669,8.594,8.594,0,0,0-2.086,3.338,2.67,2.67,0,0,1-2.837,1.919A2.17,2.17,0,0,1,372.4,26.24c0-1.752,1.419-3.672,3.672-5.007a17.69,17.69,0,0,1,8.511-1.836c4.673,0,7.26.834,9.1,2.837s2.336,4.089,2.336,7.26ZM389.84,33.583a31.291,31.291,0,0,0-8.344,3.254c-2.5,1.419-4.256,3.254-4.256,6.258a5.841,5.841,0,0,0,1.419,4.256,5.424,5.424,0,0,0,4.256,1.585c3.087,0,5.257-1.752,6.926-3.338Z" transform="translate(-61.408 -3.2)"/>
      <path id="パス_98857" data-name="パス 98857" d="M420.238,52.242,408.889,26.458c-1.752-4.005-2.253-4.256-4.589-4.256v-2h13.434v1.919c-3.254,0-3.588.584-2.42,3.5l7.593,18.942h.167L431,24.622c.751-1.919.668-2.5-2.42-2.5V20.2h9.1v1.919c-1.919,0-2.5.334-3.672,3.171L422.658,52.242Z" transform="translate(-66.939 -3.334)"/>
      <path id="パス_98858" data-name="パス 98858" d="M449.823,35.137c0,4.089.5,7.593,2.253,10.347a8.261,8.261,0,0,0,7.009,4.005,9.93,9.93,0,0,0,6.008-1.919,10.764,10.764,0,0,0,3.421-4.089l2.086,1.085a15.1,15.1,0,0,1-4.339,5.007,13.685,13.685,0,0,1-8.177,2.5c-4.506,0-8.428-1.335-11.1-4.506S443.4,40.644,443.4,34.887a17.273,17.273,0,0,1,4.339-12.016,13.684,13.684,0,0,1,9.6-3.671,12.169,12.169,0,0,1,9.6,4.005c2.336,2.67,3.588,7.009,3.588,11.932ZM464.342,32.8c0-3.087-.5-6.342-1.919-8.428a5.758,5.758,0,0,0-5.09-2.754,6.592,6.592,0,0,0-5.173,2.754c-1.335,1.836-2.253,4.589-2.42,8.428Z" transform="translate(-73.411 -3.168)"/>
      <path id="パス_98859" data-name="パス 98859" d="M504.84,19.273h-4.756v-2.42h4.756V12.6c0-4.339,1.085-7.51,3.421-9.846A11.1,11.1,0,0,1,516.021,0a10.68,10.68,0,0,1,6.342,1.752,5.794,5.794,0,0,1,2.921,4.422,2.258,2.258,0,0,1-2.253,2.5c-1.5,0-2.587-1.669-3.338-3.171s-1.5-3.087-3.588-3.087a3.838,3.838,0,0,0-3.087,1.419c-1.335,1.585-2,4.089-2,8.928v4.172h8.261v2.42h-8.261V41.386c0,4.339.334,4.756,5.34,4.756v1.919H500V46.142c4.589,0,4.923-.417,4.923-4.923Z" transform="translate(-82.784 0.012)"/>
      <path id="パス_98860" data-name="パス 98860" d="M557.61,51.175a38.448,38.448,0,0,0-4.422.167,22.28,22.28,0,0,0-4.589.751l-.668-.334-.25-4.422h-.167a12.683,12.683,0,0,1-9.93,4.756c-2.837,0-5.09-.668-6.675-2.17s-3-4.756-3-9.1V28.312c0-4.005-.167-4.339-3.5-4.339V22.221a27.452,27.452,0,0,0,8.845-2.921l.834.417v20.36c0,3.171.417,5.424,1.5,6.926a5.007,5.007,0,0,0,4.256,1.919c2.92,0,5.507-1.836,7.76-4.923V28.312c0-4.005-.167-4.339-3.421-4.339V22.221a26.618,26.618,0,0,0,8.762-2.921l.834.417V44.75c0,4.256.25,4.673,3.922,4.673Z" transform="translate(-86.824 -3.185)"/>
      <path id="パス_98861" data-name="パス 98861" d="M596.473,44.75c0,4.005.334,4.589,3.338,4.589v1.919H586.96V49.34c3.171,0,3.421-.417,3.421-4.756V29.48c0-2.5-.334-4.673-1.585-6.008a4.756,4.756,0,0,0-3.755-1.335c-2.67,0-5.674,2.5-8.344,6.175V44.583c0,4.256.167,4.756,3.171,4.756v1.919H566.6V49.34c3.672,0,4.005-.417,4.005-4.756V28.562c0-4.089-.417-4.673-4.005-4.589V22.221a22.948,22.948,0,0,0,8.845-2.921l.834.417.25,5.173h.167c2.837-3.421,6.342-5.591,10.263-5.591s5.34.751,6.926,2.253,2.587,4.005,2.587,7.844Z" transform="translate(-93.81 -3.185)"/>
    </g>
  </g>
</svg>
