<svg xmlns="http://www.w3.org/2000/svg" width="158" height="37.103" viewBox="0 0 158 37.103">
  <g id="logo_sbg" transform="translate(79 18.551)">
    <g id="グループ_10832" data-name="グループ 10832" transform="translate(-79 -18.551)">
      <g id="グループ_10831" data-name="グループ 10831">
        <path id="パス_5554" data-name="パス 5554" d="M93.9,5.547c-.65-3.2-1.35-4.35-5.05-4.35a5.6,5.6,0,0,0-3.7,1.2,2.9,2.9,0,0,0-1.1,2.4A3.8,3.8,0,0,0,85.1,7.3a14.7,14.7,0,0,0,3.95,2.45c1.95.95,4.3,2,5.65,3.5a5.95,5.95,0,0,1,1.3,3.7,5.45,5.45,0,0,1-1.75,4.15,8.951,8.951,0,0,1-6.15,1.95A18.45,18.45,0,0,1,82.25,22a30.149,30.149,0,0,0-1.05-4.6l1.1-.3c1,3.85,2.75,4.8,6.05,4.8a6.15,6.15,0,0,0,3.75-1.15,4,4,0,0,0,1.6-3.25,3.9,3.9,0,0,0-1-2.8c-1-1.2-2.7-1.95-4.5-2.85s-4.55-2.4-5.45-3.65a5.25,5.25,0,0,1-.95-3,4.55,4.55,0,0,1,1.95-3.7A8.212,8.212,0,0,1,89,0a13.85,13.85,0,0,1,5.2.9c.2,1.3.45,2.95.75,4.4Zm6.9,10.05c0-2.4.45-3.95,1.3-5.05a4.25,4.25,0,0,1,6-.15l.15.15c.85,1.1,1.3,2.65,1.3,5.05a8.76,8.76,0,0,1-1.3,5.15,4.15,4.15,0,0,1-5.85.2l-.2-.2c-.85-1.05-1.4-2.65-1.4-5.2Zm-2.25-.05c0,2.85.75,4.7,1.95,5.9A6.134,6.134,0,0,0,105.15,23a6.721,6.721,0,0,0,4.75-1.65c1.25-1.15,1.9-3,1.9-5.8s-.7-4.4-1.9-5.6a6.165,6.165,0,0,0-4.75-1.7,6.4,6.4,0,0,0-4.65,1.7A7.6,7.6,0,0,0,98.55,15.547Zm17.45-6h-2.3v-1H116V6.6a5.889,5.889,0,0,1,1.5-4.4,4.9,4.9,0,0,1,5.85-.45A2.65,2.65,0,0,1,124.7,3.7c0,.65-.3.95-.9.95S122.75,4,122.45,3.3a1.827,1.827,0,0,0-1.7-1.35,2.05,2.05,0,0,0-1.55.7c-.6.75-1,1.85-1,4.1V8.6h3.9v1h-3.95V19.8c0,1.9.1,2.05,2.45,2.05v.8h-7v-.8c2.2,0,2.35-.2,2.35-2.15Z" transform="translate(-40.6 0.006)"/>
        <path id="パス_5555" data-name="パス 5555" d="M165.8,9.3c1.95-.2,3.3-.95,3.7-4.25h.8V9h3.3v1h-3.3V20.1c0,1.5.45,2.25,1.55,2.25a3.1,3.1,0,0,0,1.95-.7l.5.7a4.4,4.4,0,0,1-3.05,1.1c-1.6,0-3.05-.75-3.05-3.2V10h-2.35Zm15.05-6.1c0-.85.1-1.1.95-1.1h2.95a6.868,6.868,0,0,1,4.45,1.2,4,4,0,0,1,1.25,2.85A4.1,4.1,0,0,1,189,9.5a7.8,7.8,0,0,1-5.05,1.35H180.8Zm-2.3,16.6c0,2.25-.2,2.4-2.55,2.4v.9h10.2c3.25,0,5.1-.75,6.3-1.95a5.8,5.8,0,0,0,1.75-4.3,4.75,4.75,0,0,0-2-3.85,8.9,8.9,0,0,0-5.2-1.65h0A7.981,7.981,0,0,0,191.3,9.6,4.8,4.8,0,0,0,192.85,6a4.35,4.35,0,0,0-2-3.65C189.2,1.2,187.3.9,184.4.9H176v.9c2.35,0,2.55.15,2.55,2.4Zm2.3-7.75h3.9c2.55,0,4.3.45,5.4,1.3a4.2,4.2,0,0,1,1.7,3.45,4.624,4.624,0,0,1-1.25,3.55,7.127,7.127,0,0,1-4.7,1.55H182c-.95,0-1.15-.2-1.15-1.55ZM204.7,20.6a4.75,4.75,0,0,1-3.4,1.6,2.9,2.9,0,0,1-2.05-.75,2.7,2.7,0,0,1-.7-1.95c0-1.45.9-2.25,2.1-2.9a16.05,16.05,0,0,1,4.05-1.55Zm2.15-7.6a3.984,3.984,0,0,0-1.05-3.15c-.85-.9-1.9-1.2-3.75-1.2a6.8,6.8,0,0,0-3.55.9,2.956,2.956,0,0,0-1.65,2.2.85.85,0,0,0,.75.9h.1a1,1,0,0,0,1.1-.75,3.6,3.6,0,0,1,1-1.55,3.2,3.2,0,0,1,2.15-.7,2.6,2.6,0,0,1,2.25.95,3.95,3.95,0,0,1,.5,2.2v1.35l-1.85.45a13.65,13.65,0,0,0-4.65,1.75,3.9,3.9,0,0,0-1.95,3.45,3.3,3.3,0,0,0,1.25,2.7,4.6,4.6,0,0,0,2.9.95,5.85,5.85,0,0,0,4.4-1.75h.1a1.95,1.95,0,0,0,2.05,1.6,4.2,4.2,0,0,0,1.9-.45l-.2-.7a1.55,1.55,0,0,1-.85.2c-.6,0-.95-.6-.95-2.05Zm15.9,7.3c0,1.75.15,2,1.55,2v.8H219v-.8c1.5,0,1.6-.2,1.6-2.05v-7a4.044,4.044,0,0,0-.75-2.85,2.4,2.4,0,0,0-1.8-.6c-1.3,0-2.7,1.2-4,2.9v7.55c0,1.9.05,2.05,1.5,2.05v.8H210.1v-.8c1.7,0,1.8-.2,1.8-2.05v-7.6c0-1.8-.15-2.05-1.8-2v-.7a7.4,7.4,0,0,0,3.45-1.3l.3.2.15,2.4h.05a5.963,5.963,0,0,1,4.55-2.6,4.15,4.15,0,0,1,3,1,4.587,4.587,0,0,1,1.1,3.45Zm7.35-4.9,4.45-4.35c.85-.8,1.05-1.25-.45-1.25V9h4.65v.8a2.8,2.8,0,0,0-2.15.95l-3.2,3.1,4.8,7.25a2.25,2.25,0,0,0,2.3,1.2v.8h-3.6l-5.1-7.9-1.75,1.75v3.3c0,1.8.05,2.05,1.8,2.05v.8h-5.8v-.8c1.8,0,1.85-.25,1.85-2.05V5.4c0-1.8-.2-2.05-1.85-2.05V2.7a9.05,9.05,0,0,0,3.75-1.3l.3.2V15.4Z" transform="translate(-82.9 -0.447)"/>
        <path id="パス_5556" data-name="パス 5556" d="M0,0H31.3V7.7H0ZM0,15.4H31.3v7.7H0Z" transform="translate(0 0.003)" fill="#b7bbbe"/>
        <path id="パス_5557" data-name="パス 5557" d="M258.5,51.945c-2.45,0-4.1,1.85-4.1,4.45s1.6,4.55,4.1,4.55a6.7,6.7,0,0,0,2.35-.35V56.1h-2.7v.95h1.65V59.8h-.15a4.05,4.05,0,0,1-1.15.1c-1.75,0-3-1.45-3-3.5s1.25-3.5,3.1-3.5a3.5,3.5,0,0,1,2.15.55l.1-1.15a5.3,5.3,0,0,0-2.25-.4Zm4.25,3.3h.95v.85h0a1.7,1.7,0,0,1,1.45-1l.65.1v.9l-.55-.1c-.9,0-1.5.85-1.5,2.25v2.5h-1Zm6.4-.15a2.75,2.75,0,0,1,2.8,2.9,2.827,2.827,0,0,1-5.65.2V58a2.75,2.75,0,0,1,2.9-2.9Zm0,4.95A1.87,1.87,0,0,0,270.9,58a1.939,1.939,0,0,0-1.75-2.05A1.879,1.879,0,0,0,267.4,58c0,1.05.55,2.1,1.75,2.1Zm9,.7h-1v-.9h0a2,2,0,0,1-1.8,1c-1.45,0-2.05-.9-2.05-2.4V55.2h1v2.85c0,1.3.3,1.9,1.15,2s1.7-.95,1.7-2.3V55.2h1Zm1.75-5.55h1V56h0a2.25,2.25,0,0,1,1.9-.9c1.6,0,2.4,1.3,2.4,2.8s-.7,3-2.4,3a2,2,0,0,1-1.85-.9h0v3.05h-1Zm2.65.7c-1.1,0-1.65,1.05-1.65,2.1s.5,2.05,1.65,2.05,1.55-1.25,1.55-2.1-.4-2.05-1.5-2.05Z" transform="translate(-127.2 -25.943)"/>
      </g>
      <rect id="長方形_5960" data-name="長方形 5960" width="158" height="37" transform="translate(0 0.003)" fill="none"/>
    </g>
  </g>
</svg>
