<svg id="グループ_79002" data-name="グループ 79002" xmlns="http://www.w3.org/2000/svg" width="321.562" height="26.547" viewBox="0 0 321.562 26.547">
  <g id="グループ_79001" data-name="グループ 79001" transform="translate(33.615)">
    <path id="パス_103618" data-name="パス 103618" d="M86.076,56.523c0,1.769.147,2.064,2.064,2.064v.885H81.653v-.885c1.622,0,1.769-.147,1.769-2.064V50.331H74.871v6.34c0,1.769.147,2.064,1.769,2.064v.885H70.3v-.885c1.917,0,2.064-.147,2.064-2.064V43.549c0-1.917-.147-2.064-2.064-2.064V40.6h6.34v.885c-1.622,0-1.769.147-1.769,1.917V49h8.551V43.549c0-1.769-.147-1.917-1.769-1.917v-.885h6.34v.885c-1.917,0-2.064.147-2.064,2.064Z" transform="translate(-70.3 -39.856)"/>
    <path id="パス_103619" data-name="パス 103619" d="M94.574,55.027c0,1.327.295,1.769.885,1.769H96.2v.737a4.718,4.718,0,0,1-2.064.442A1.917,1.917,0,0,1,92.068,56.5H91.92a5.455,5.455,0,0,1-3.686,1.474,4.276,4.276,0,0,1-2.654-.885A2.949,2.949,0,0,1,84.4,54.585a3.538,3.538,0,0,1,1.769-3.1,12.827,12.827,0,0,1,4.276-1.622l1.769-.442V48.245a3.834,3.834,0,0,0-.442-1.917,2.212,2.212,0,0,0-1.917-.885,2.506,2.506,0,0,0-1.769.59,3.538,3.538,0,0,0-.885,1.327,1.032,1.032,0,0,1-1.179.737.885.885,0,0,1-.885-.885,2.654,2.654,0,0,1,1.474-2.064,7.224,7.224,0,0,1,3.538-.737,4.57,4.57,0,0,1,3.686,1.179,3.981,3.981,0,0,1,.885,2.949Zm-2.506-4.571a12.827,12.827,0,0,0-3.391,1.327,2.8,2.8,0,0,0-1.769,2.506,2.359,2.359,0,0,0,.59,1.769,2.212,2.212,0,0,0,1.769.737,3.981,3.981,0,0,0,2.8-1.327Z" transform="translate(-63.613 -38.065)"/>
    <path id="パス_103620" data-name="パス 103620" d="M97.628,61.55c0,1.622.147,1.769,1.622,1.769v.737H93.5v-.737c1.474,0,1.622-.147,1.622-1.917V48.428c0-1.622-.147-1.917-1.622-1.917v-.737A10.615,10.615,0,0,0,97.186,44.6h.295v1.474h0a4.865,4.865,0,0,1,3.833-1.769,4.571,4.571,0,0,1,3.538,1.622,7.224,7.224,0,0,1,1.474,5.013,8.109,8.109,0,0,1-1.474,5.16,5.308,5.308,0,0,1-7.372.295h0Zm0-6.487a3.833,3.833,0,0,0,3.1,1.769,2.654,2.654,0,0,0,2.359-1.327,8.994,8.994,0,0,0,.885-4.423,7.667,7.667,0,0,0-.885-3.981,2.654,2.654,0,0,0-2.212-1.327,4.276,4.276,0,0,0-3.1,1.917Z" transform="translate(-59.295 -38.101)"/>
    <path id="パス_103621" data-name="パス 103621" d="M107.828,61.55c0,1.622.147,1.769,1.622,1.769v.737H103.7v-.737c1.474,0,1.622-.147,1.622-1.917V48.428c0-1.622-.147-1.917-1.622-1.917v-.737a10.615,10.615,0,0,0,3.686-1.179h.295v1.474h0a4.865,4.865,0,0,1,3.833-1.769,4.571,4.571,0,0,1,3.538,1.622,7.224,7.224,0,0,1,1.474,5.013,8.109,8.109,0,0,1-1.474,5.16,5.308,5.308,0,0,1-7.372.295h0Zm0-6.487a3.833,3.833,0,0,0,3.1,1.769,2.654,2.654,0,0,0,2.359-1.327,8.994,8.994,0,0,0,.885-4.423,7.666,7.666,0,0,0-.885-3.981,2.654,2.654,0,0,0-2.212-1.327,4.276,4.276,0,0,0-3.1,1.917Z" transform="translate(-54.456 -38.101)"/>
    <path id="パス_103622" data-name="パス 103622" d="M118.571,56.441c0,1.769.147,1.917,1.917,1.917V59.1H114v-.737c1.917,0,2.064-.295,2.064-1.917V49.954c0-1.769-.147-1.769-2.064-1.769v-.737a11.942,11.942,0,0,0,4.276-1.179h.295ZM117.1,41.108a1.769,1.769,0,1,1-1.474,1.769,1.622,1.622,0,0,1,1.474-1.769Z" transform="translate(-49.571 -39.627)"/>
    <path id="パス_103623" data-name="パス 103623" d="M132.29,55.02c0,1.622.147,1.917,1.327,1.917v.737h-5.16v-.737c1.327,0,1.327-.147,1.327-1.917V48.828a3.538,3.538,0,0,0-.59-2.506,1.917,1.917,0,0,0-1.474-.59c-1.032,0-2.359,1.032-3.391,2.506v6.635c0,1.769,0,1.917,1.327,1.917v.737H120.2v-.737c1.474,0,1.622-.147,1.622-1.917V48.385c0-1.622-.147-1.917-1.622-1.917v-.737a9.288,9.288,0,0,0,3.538-1.179h.295v2.064h0a5.455,5.455,0,0,1,4.128-2.212,3.833,3.833,0,0,1,2.8.885,4.128,4.128,0,0,1,1.032,3.244Z" transform="translate(-46.629 -38.058)"/>
    <path id="パス_103624" data-name="パス 103624" d="M133.258,50.895a7.667,7.667,0,0,0,.885,4.276,3.391,3.391,0,0,0,2.8,1.622,3.981,3.981,0,0,0,2.506-.737,4.423,4.423,0,0,0,1.474-1.622l.885.442a6.193,6.193,0,0,1-1.769,2.064,5.6,5.6,0,0,1-3.391,1.032,5.75,5.75,0,0,1-4.571-1.769,8.109,8.109,0,0,1-1.474-5.16,7.077,7.077,0,0,1,1.769-4.865,5.6,5.6,0,0,1,3.981-1.474,5.013,5.013,0,0,1,3.981,1.622,7.961,7.961,0,0,1,1.474,4.865Zm5.9-.885a6.635,6.635,0,0,0-.737-3.391,2.359,2.359,0,0,0-2.064-1.179,2.654,2.654,0,0,0-2.064,1.179,6.34,6.34,0,0,0-1.032,3.391Z" transform="translate(-41.701 -37.914)"/>
    <path id="パス_103625" data-name="パス 103625" d="M148.109,47.947c-.442-2.064-1.179-2.506-2.8-2.506a3.391,3.391,0,0,0-1.769.442,1.474,1.474,0,0,0-.737,1.327,2.064,2.064,0,0,0,1.032,1.622l2.8,1.327a7.077,7.077,0,0,1,2.212,1.474,3.244,3.244,0,0,1,1.032,2.359,3.391,3.391,0,0,1-1.327,2.654,6.487,6.487,0,0,1-3.833,1.179,9.731,9.731,0,0,1-4.128-.737A23.153,23.153,0,0,0,140,54.14h.885c.59,2.359,1.769,3.1,3.538,3.1a3.538,3.538,0,0,0,2.212-.737,2.212,2.212,0,0,0,.737-1.622,1.917,1.917,0,0,0-.59-1.327,12.827,12.827,0,0,0-2.8-1.622,13.565,13.565,0,0,1-2.8-1.917,3.244,3.244,0,0,1-.737-2.212,2.654,2.654,0,0,1,1.179-2.212,6.045,6.045,0,0,1,3.538-.885,9.584,9.584,0,0,1,3.391.59,24.77,24.77,0,0,0,.442,2.8Z" transform="translate(-37.237 -37.915)"/>
    <path id="パス_103626" data-name="パス 103626" d="M156.556,47.947c-.442-2.064-1.18-2.506-2.8-2.506a3.391,3.391,0,0,0-1.769.442,1.474,1.474,0,0,0-.737,1.327,2.064,2.064,0,0,0,1.032,1.622l2.8,1.327a7.077,7.077,0,0,1,2.212,1.474,3.244,3.244,0,0,1,.885,2.359,3.391,3.391,0,0,1-1.327,2.654,6.487,6.487,0,0,1-3.833,1.179,9.731,9.731,0,0,1-4.128-.737,23.145,23.145,0,0,0-.59-2.949h.885c.59,2.359,1.769,3.1,3.538,3.1a3.538,3.538,0,0,0,2.212-.737,2.211,2.211,0,0,0,.737-1.622,1.917,1.917,0,0,0-.59-1.327,12.826,12.826,0,0,0-2.8-1.622,13.564,13.564,0,0,1-2.8-1.917,3.244,3.244,0,0,1-.737-2.212,2.654,2.654,0,0,1,1.179-2.212,6.045,6.045,0,0,1,3.538-.885,9.584,9.584,0,0,1,3.391.59,24.77,24.77,0,0,0,.442,2.8Z" transform="translate(-33.3 -37.915)"/>
    <path id="パス_103627" data-name="パス 103627" d="M164.217,47.916H162.3V46.884h1.917V45.262a5.308,5.308,0,0,1,1.474-3.981,4.57,4.57,0,0,1,3.1-1.179,4.276,4.276,0,0,1,2.654.737,2.359,2.359,0,0,1,1.18,1.769.885.885,0,0,1-.885,1.032c-.737,0-1.032-.737-1.327-1.327s-.59-1.327-1.474-1.327a1.622,1.622,0,0,0-1.327.59,5.6,5.6,0,0,0-.885,3.686v1.769h3.391v1.032h-3.391v8.994c0,1.769.147,1.917,2.212,1.917v.737H162.3v-.737c1.917,0,2.064-.147,2.064-2.064Z" transform="translate(-26.659 -40.095)"/>
    <path id="パス_103628" data-name="パス 103628" d="M175.147,57.922a6.34,6.34,0,0,1-4.423-1.474,6.93,6.93,0,0,1-1.917-5.308,6.782,6.782,0,0,1,1.769-5.16A6.045,6.045,0,0,1,175,44.505a6.192,6.192,0,0,1,4.423,1.622,6.782,6.782,0,0,1,1.769,5.013,7.077,7.077,0,0,1-1.769,5.308,6.34,6.34,0,0,1-4.571,1.474Zm0-12.385a3.1,3.1,0,0,0-2.506,1.179,7.519,7.519,0,0,0-1.032,4.571,7.814,7.814,0,0,0,1.179,4.718,3.391,3.391,0,0,0,5.013,0,7.667,7.667,0,0,0,1.18-4.718,7.519,7.519,0,0,0-1.032-4.571,3.1,3.1,0,0,0-2.506-1.179Z" transform="translate(-23.583 -38.011)"/>
    <path id="パス_103629" data-name="パス 103629" d="M182.876,46.664c1.032-1.474,1.917-2.064,3.1-2.064a2.212,2.212,0,0,1,1.474.59,1.917,1.917,0,0,1,.59,1.327A1.052,1.052,0,0,1,187,47.7a.975.975,0,0,1-1.032-.885q-.221-.885-.885-.885c-.442,0-1.474.885-2.359,2.212v6.929c0,1.622.147,1.917,1.769,1.917v.737h-5.9v-.737c1.474,0,1.474-.147,1.474-1.917V48.286c0-1.622-.147-1.769-1.474-1.769v-.737a9.731,9.731,0,0,0,3.538-1.179h.295v2.064Z" transform="translate(-18.927 -37.958)"/>
    <path id="パス_103630" data-name="パス 103630" d="M194.758,50.895a7.667,7.667,0,0,0,.885,4.276,3.391,3.391,0,0,0,2.8,1.622,3.981,3.981,0,0,0,2.506-.737,4.423,4.423,0,0,0,1.474-1.622l.885.442a6.192,6.192,0,0,1-1.769,2.064,5.6,5.6,0,0,1-3.391,1.032,5.75,5.75,0,0,1-4.571-1.769,8.109,8.109,0,0,1-1.474-5.16,7.077,7.077,0,0,1,1.769-4.865,5.6,5.6,0,0,1,3.981-1.474,5.013,5.013,0,0,1,3.981,1.622,7.961,7.961,0,0,1,1.474,4.865Zm5.9-.885a6.635,6.635,0,0,0-.737-3.391,2.359,2.359,0,0,0-2.064-1.179,2.654,2.654,0,0,0-2.064,1.179,6.34,6.34,0,0,0-1.032,3.391Z" transform="translate(-12.528 -37.914)"/>
    <path id="パス_103631" data-name="パス 103631" d="M207.187,57.774l-4.571-10.468c-.737-1.622-.885-1.769-1.917-1.769V44.8h5.455v.737c-1.327,0-1.474.295-1.032,1.474l3.1,7.667h0l3.244-8.109c.295-.737.295-1.032-1.032-1.032V44.8h3.686v.737c-.737,0-1.032.147-1.474,1.327l-4.718,10.91Z" transform="translate(-8.444 -37.864)"/>
    <path id="パス_103632" data-name="パス 103632" d="M213.158,50.895a7.667,7.667,0,0,0,.885,4.276,3.391,3.391,0,0,0,2.8,1.622,3.981,3.981,0,0,0,2.506-.737,4.423,4.423,0,0,0,1.474-1.622l.885.442a6.192,6.192,0,0,1-1.769,2.064,5.6,5.6,0,0,1-3.391,1.032,5.75,5.75,0,0,1-4.571-1.769,8.109,8.109,0,0,1-1.474-5.16,7.077,7.077,0,0,1,1.769-4.865,5.6,5.6,0,0,1,3.981-1.474,5.013,5.013,0,0,1,3.981,1.622,7.961,7.961,0,0,1,1.474,4.865Zm5.9-.885a6.634,6.634,0,0,0-.737-3.391,2.359,2.359,0,0,0-2.064-1.179,2.654,2.654,0,0,0-2.064,1.179,6.34,6.34,0,0,0-1.032,3.391Z" transform="translate(-3.799 -37.914)"/>
    <path id="パス_103633" data-name="パス 103633" d="M223.676,46.664c1.032-1.474,1.917-2.064,3.1-2.064a2.212,2.212,0,0,1,1.474.59,1.917,1.917,0,0,1,.59,1.327A1.052,1.052,0,0,1,227.8,47.7a.975.975,0,0,1-1.032-.885q-.221-.885-.885-.885c-.442,0-1.474.885-2.359,2.212v6.929c0,1.622.147,1.917,1.769,1.917v.737h-5.9v-.737c1.474,0,1.474-.147,1.474-1.917V48.286c0-1.622-.147-1.769-1.474-1.769v-.737a9.731,9.731,0,0,0,3.538-1.18h.295v2.064Z" transform="translate(0.427 -37.958)"/>
    <path id="パス_103634" data-name="パス 103634" d="M229.306,47.306c-.737-1.622-.885-1.769-1.917-1.769V44.8h5.455v.737c-1.327,0-1.474.295-1.032,1.474l3.244,7.519h0l3.244-7.962c.295-.885.147-1.032-1.032-1.032V44.8H241.1v.737c-.885,0-1.18.147-1.622,1.327l-5.75,13.859a7.961,7.961,0,0,1-1.622,2.654,3.391,3.391,0,0,1-2.506,1.032,3.539,3.539,0,0,1-2.064-.59,1.622,1.622,0,0,1-.737-1.327.885.885,0,0,1,.885-.885,1.474,1.474,0,0,1,1.327.885c.295.442.59.885,1.032.885s2.064-1.622,2.506-2.654l1.18-3.244Z" transform="translate(3.937 -37.864)"/>
    <path id="パス_103635" data-name="パス 103635" d="M243.847,57.922a6.34,6.34,0,0,1-4.423-1.474,6.93,6.93,0,0,1-1.917-5.308,6.782,6.782,0,0,1,1.769-5.16,6.045,6.045,0,0,1,4.423-1.474,6.192,6.192,0,0,1,4.423,1.622,6.782,6.782,0,0,1,1.917,5.013,7.077,7.077,0,0,1-1.769,5.308,6.34,6.34,0,0,1-4.571,1.474Zm0-12.385a3.1,3.1,0,0,0-2.506,1.179,7.519,7.519,0,0,0-1.032,4.571,7.814,7.814,0,0,0,1.18,4.718,3.391,3.391,0,0,0,5.013,0,7.519,7.519,0,0,0,1.18-4.718,7.52,7.52,0,0,0-1.032-4.57,3.1,3.1,0,0,0-2.506-1.179Z" transform="translate(9.005 -38.011)"/>
    <path id="パス_103636" data-name="パス 103636" d="M259.69,55.02c0,1.622.147,1.917,1.327,1.917v.737h-5.16v-.737c1.327,0,1.327-.147,1.327-1.917V48.828a3.538,3.538,0,0,0-.59-2.506,1.917,1.917,0,0,0-1.474-.59c-1.032,0-2.359,1.032-3.391,2.506v6.635c0,1.769,0,1.917,1.327,1.917v.737H247.6v-.737c1.474,0,1.622-.147,1.622-1.917V48.385c0-1.622-.147-1.917-1.622-1.917v-.737a9.288,9.288,0,0,0,3.538-1.179h.295v2.064h0a5.455,5.455,0,0,1,4.128-2.212,3.833,3.833,0,0,1,2.8.885,4.128,4.128,0,0,1,1.032,3.244Z" transform="translate(13.804 -38.058)"/>
    <path id="パス_103637" data-name="パス 103637" d="M260.658,50.895a7.666,7.666,0,0,0,.885,4.276,3.391,3.391,0,0,0,2.8,1.622,3.981,3.981,0,0,0,2.506-.737,4.423,4.423,0,0,0,1.474-1.622l.885.442a6.191,6.191,0,0,1-1.769,2.064,5.6,5.6,0,0,1-3.391,1.032,5.75,5.75,0,0,1-4.57-1.769A8.109,8.109,0,0,1,258,51.042a7.077,7.077,0,0,1,1.769-4.865,5.6,5.6,0,0,1,3.981-1.474,5.013,5.013,0,0,1,3.981,1.622,7.961,7.961,0,0,1,1.474,4.865Zm5.9-.885a6.635,6.635,0,0,0-.737-3.391,2.359,2.359,0,0,0-2.064-1.179,2.654,2.654,0,0,0-2.064,1.179,6.34,6.34,0,0,0-1.032,3.391Z" transform="translate(18.733 -37.914)"/>
  </g>
  <rect id="長方形_10032" data-name="長方形 10032" width="20.936" height="0.354" transform="translate(0 9.738)"/>
</svg>
