<svg id="グループ_78458" data-name="グループ 78458" xmlns="http://www.w3.org/2000/svg" width="517.077" height="20.045" viewBox="0 0 517.077 20.045">
  <path id="パス_87865" data-name="パス 87865" d="M17.676,55.946l1.169-1.315,2.046,1.608v.438H16.653v7.015l-1.9.292v-1.9H11.538v2.192l-1.9.292V56.53H6.715v9.792H17.238l1.315-1.461L20.6,66.468v.438H6.715v1.754l-1.9.292V56.53H1.892L1.6,55.946H4.815V50.392l2.338.292c.292,0,.585.146.585.292s-.292.292-.877.585v4.384H9.638V50.1h2.338c.146,0,.438.146.438.292s-.292.292-.877.585v4.677H14.9V50.392h2.192c.292,0,.438.146.438.292s-.292.292-.877.585V55.8ZM14.753,61.5V56.53H11.538V61.5Z" transform="translate(-1.6 -49.346)"/>
  <path id="パス_87866" data-name="パス 87866" d="M22.177,58.038v.731l-1.754.292V50l2.192,1.023h9.353L32.7,50l1.608,1.169c.146.146.438.292.438.438s-.438.438-.585.585v6.284l-1.9.292v-.731H29.046A14.907,14.907,0,0,0,37.23,62.13v.438c-.877.146-1.169.438-1.461,1.461A15.492,15.492,0,0,1,31.238,61.4V69l-1.9.292V59.5l-.877-1.461H26.707l-1.608,1.9h.731l.438.292c0,.292-.438.292-.731.438v2.046c0,2.338-.146,5.115-6.577,6.577l-.292-.438c4.823-1.9,4.969-4.238,4.969-6.284V61.107a20.46,20.46,0,0,1-5.846,3.069l-.292-.292a16.222,16.222,0,0,0,6.577-5.846Zm3.946-6.43H22.177v2.484h3.946Zm0,3.069H22.177v2.777h3.946Zm5.992-.585V51.608H28.023v2.484Zm0,3.361V54.677H28.023v2.777Z" transform="translate(5.737 -49.392)"/>
  <path id="パス_87867" data-name="パス 87867" d="M36.992,53.992h4.823V49.9l2.338.292c.292,0,.438.146.438.292s-.292.292-.877.585v3.069h4.969l.731-1.023,1.754,1.169.292.292s0,.292-.731.438v7.307l-1.9.292V61.153H43.715V68.9l-1.9.292V61.153H36.7v1.608l-1.9.292V53.115Zm4.823,6.577V54.577H36.7v5.992Zm7.015,0V54.577H43.715v5.992Z" transform="translate(13.72 -49.438)"/>
  <path id="パス_87868" data-name="パス 87868" d="M58.784,66.218c2.046-.585,7.161-1.9,7.161-7.746a5.846,5.846,0,0,0-6.284-6.138h-.877a3.069,3.069,0,0,1,1.169,2.338,24.991,24.991,0,0,1-2.923,8.476c-1.608,2.631-2.046,2.777-2.484,2.777A6.235,6.235,0,0,1,50.6,59.934a8.769,8.769,0,0,1,9.207-8.33c5.115,0,8.038,3.069,8.038,7.307,0,6.577-5.554,7.6-8.769,7.892ZM52.061,59.5c0,2.484,1.608,4.092,2.192,4.092l.585-.292a25.43,25.43,0,0,0,1.754-3.069,18.853,18.853,0,0,0,1.9-6.284,2.485,2.485,0,0,0-.585-1.461C53.669,53.65,52.061,56.573,52.061,59.5Z" transform="translate(21.012 -48.657)"/>
  <path id="パス_87869" data-name="パス 87869" d="M74.392,50.738c.292,0,.585.146.585.438s-.292.292-.877.585a21.483,21.483,0,0,0,2.484,9.061,16.369,16.369,0,0,0,3.361,3.946,13.445,13.445,0,0,0,2.923,1.9v.438c-.877,0-1.169.146-1.754,1.315-3.361-2.338-6.138-5.554-7.161-13.738-.877,6.723-2.046,10.23-9.061,13.884L64.6,68.13c6.869-4.677,7.453-10.523,7.453-17.83Z" transform="translate(27.472 -49.254)"/>
  <path id="パス_87870" data-name="パス 87870" d="M85.354,51.3c2.484.438,3.654,1.461,3.654,1.754s-.146.146-.438.292-.292.146-.438.438l-1.023,1.9,5.115-.438.438-.438.438-.438,2.192,1.461v.292c0,.146,0,.292-.877.438l-.877,1.023-1.754,2.192-2.192,2.484c1.169.731,2.631,1.608,2.631,2.923a1.023,1.023,0,0,1-.877,1.023c-.438,0-.585-.146-1.754-1.461a15.93,15.93,0,0,0-5.407-3.8v-.438a18.414,18.414,0,0,1,4.531,1.461,42.675,42.675,0,0,0,3.215-5.846,32.589,32.589,0,0,0-5.115,1.023l-.292.292h-.146l-.438-.292A21.483,21.483,0,0,1,80.092,62.7l-.292-.292a21.776,21.776,0,0,0,6.43-9.646c0-.731-.438-.877-1.169-1.169Z" transform="translate(34.486 -48.792)"/>
  <path id="パス_87871" data-name="パス 87871" d="M98.592,55.661l1.315-.292.438-1.023a7.6,7.6,0,0,0,.731-2.338c0-.585-.585-.877-1.461-1.169V50.4c2.484.146,3.654,1.023,3.654,1.461s0,.146-.438.731a18.27,18.27,0,0,0-1.315,2.484h1.315c2.631,0,3.215,1.608,3.215,3.508s-.731,6.577-2.192,8.623-.877,1.023-1.461,1.023-.731-.438-.731-.877a2.046,2.046,0,0,0-.585-1.315l-1.754-1.461.292-.438,3.069,1.608a16.222,16.222,0,0,0,1.9-7.453c0-1.023,0-2.192-1.754-2.192h-1.754l-.438,1.169-.438,1.169-2.923,6.723-.731,1.754c-.292.877-.438,1.023-.731,1.023s-1.169-1.169-1.169-1.461,0-.146.292-.731a62.553,62.553,0,0,0,4.092-8.476l.292-.731a8.476,8.476,0,0,0-2.192,1.023L96.4,58a1.2,1.2,0,0,1-.877-.585A3.946,3.946,0,0,1,94.5,55.077h.438c.146.438.438,1.169,1.023,1.169h.731Zm8.476-2.338a9.207,9.207,0,0,1,4.531,4.384,9.938,9.938,0,0,1,1.169,4.238c0,1.023-.438,1.461-.877,1.461s-.438,0-.731-.585-.877-.877-3.069-.877v-.438h.585l1.461-.292h.731a14.468,14.468,0,0,0-1.461-4.238,8.623,8.623,0,0,0-2.777-3.215Z" transform="translate(41.27 -49.208)"/>
  <path id="パス_87872" data-name="パス 87872" d="M111.738,54.054c2.338.877,2.484,1.9,2.484,2.046s0,.292-.438.731a7.6,7.6,0,0,0-1.023,3.8c0,.292,0,.877,0,1.023a12.715,12.715,0,0,1,7.161-2.484c3.8,0,4.823,2.338,4.823,3.946s-.731,3.508-4.092,4.531a26.014,26.014,0,0,1-6.869.585v-.585c2.631-.146,9.207-.585,9.207-4.969A2.923,2.923,0,0,0,119.63,59.9c-2.338,0-5.7,1.608-6.284,3.361s-.292.731-.731.731-1.315-.146-1.315-2.631a17.83,17.83,0,0,1,.877-4.969,4.092,4.092,0,0,0,.146-1.023c0-.438-.146-.585-.731-1.023Zm7.307-2.631a2.192,2.192,0,0,1,2.192,1.461c0,.438-.292.438-.585.438h-1.461a10.084,10.084,0,0,0-3.8,1.023l-.292-.438,2.192-1.023c-2.046-.292-2.777-.731-3.8-2.192l.292-.292a4.092,4.092,0,0,0,2.192,1.023h3.069Z" transform="translate(49.022 -49.208)"/>
  <path id="パス_87873" data-name="パス 87873" d="M141.161,57.746l1.169-1.315,1.9,1.461v.438h-9.792v2.046h6.43l.731-1.023,1.754,1.315c.146.146.292.292.292.438s-.292.292-1.023.585a15.93,15.93,0,0,1-2.484,3.946,13.3,13.3,0,0,0,4.092,1.608v.438c-.731.146-1.023.292-1.315,1.461a13.445,13.445,0,0,1-3.8-2.338,14.176,14.176,0,0,1-4.092,2.484L134.73,69a13.007,13.007,0,0,0,3.507-3.069,10.084,10.084,0,0,1-2.192-4.823h-1.608V69l-1.9.438V65.784a35.66,35.66,0,0,1-5.992,2.046c-.146.438-.292.731-.585.731s-.292-.292-.438-.438l-1.023-1.9h2.338V58.33h-2.046l-.292-.585Zm-11.253-1.461v.585l-1.9.292V50l2.046,1.023h8.623L139.407,50l1.754,1.169.438.438c0,.292-.292.292-.731.585v4.823l-1.754.438v-.731Zm2.631,3.946v-1.9h-3.654v1.9Zm0,.585h-3.654v2.046h3.654Zm0,2.631h-3.654v2.338l3.654-.731Zm6.43-11.984h-9.061v1.754h9.061Zm0,2.338h-9.061v1.9h9.061Zm-2.338,7.161a8.476,8.476,0,0,0,2.484,3.654,16.513,16.513,0,0,0,1.9-3.654Z" transform="translate(55.114 -49.392)"/>
  <path id="パス_87874" data-name="パス 87874" d="M146.369,54.684a13.736,13.736,0,0,0,.438-2.631c0-.877-.585-1.023-1.608-1.315V50.3c3.215.146,3.8,1.461,3.8,1.608l-.292.438a4.238,4.238,0,0,0-.731,1.461l-.292.877h2.338l.731-.292c.292,0,1.023.877,1.023,1.169s-.585.585-1.608.585h-2.923a34.2,34.2,0,0,0-.877,3.654h3.8c.438,0,1.023.731,1.023,1.169s-.292.585-2.923.585h-2.046a13.014,13.014,0,0,0-.146,1.461,4.531,4.531,0,0,0,.731,2.631,4.481,4.481,0,0,0,8.038-2.631,5.407,5.407,0,0,0-2.923-4.531l.292-.438a7.746,7.746,0,0,1,2.631,1.608,5.115,5.115,0,0,1,1.754,3.8c0,3.361-3.069,4.969-5.992,4.969s-5.846-.292-5.846-5.261a11.4,11.4,0,0,1,.146-1.754c-1.169-.146-3.069-.438-3.069-2.046a3.069,3.069,0,0,1,.877-1.9h.438a2.046,2.046,0,0,0-.438,1.169c0,.731.731,1.023,2.338,1.169s.438-2.484.731-3.654c-3.069-.292-3.654-.292-4.384-3.069h.438c.438,1.461,1.754,1.608,3.361,1.754Z" transform="translate(62.912 -49.254)"/>
  <path id="パス_87875" data-name="パス 87875" d="M163.007,54.484c.292,0,.438.146.438.292s-.146.292-.731.585v7.307a36.974,36.974,0,0,0,7.453-11.546l2.046,1.169a.585.585,0,0,1,.292.438c0,.292-.585.292-1.023.292-3.361,5.846-5.261,8.33-8.915,11.253v1.608c0,.585.146.731.731.731h4.238c1.315,0,1.461-.438,1.754-1.461l.585-2.338h.438c0,.731-.146,1.461-.146,1.9s.731,1.608,1.169,1.608-.585,1.9-2.631,1.9h-6.138a1.461,1.461,0,0,1-1.754-1.754V65.3a27.767,27.767,0,0,1-4.823,2.338L155.7,67.2a25.867,25.867,0,0,0,4.969-3.069V53.9Zm-4.531,2.631a16.22,16.22,0,0,1,.292,2.923c0,1.9-.438,4.238-2.046,4.238a.877.877,0,0,1-.877-.877c0-.146,0-.438.585-1.169a8.038,8.038,0,0,0,1.461-4.969Zm3.361-7.015a7.746,7.746,0,0,1,4.238,1.608,2.338,2.338,0,0,1,.877,1.608c0,.146-.146,1.023-.877,1.023s-.585-.146-.877-.731a8.623,8.623,0,0,0-3.361-3.215Zm8.915,7.6a9.938,9.938,0,0,1,3.654,2.923,3.946,3.946,0,0,1,.877,2.192c0,1.023-.585,1.315-1.023,1.315s-.877-.731-1.023-1.461a14.322,14.322,0,0,0-1.023-2.631,10.523,10.523,0,0,0-1.608-2.046Z" transform="translate(69.511 -49.346)"/>
  <path id="パス_87876" data-name="パス 87876" d="M182.053,59.5c.146.146.438.292.438.438s-.292.292-.877.292l-.877,1.461h8.038l1.169-1.315,1.9,1.608v.438h-4.238a13.153,13.153,0,0,1-2.631,3.215c1.315.292,5.7,1.169,5.7,2.777a.731.731,0,0,1-.731.731c-.438,0-.731-.146-1.9-.731a24.406,24.406,0,0,0-4.384-1.754,15.346,15.346,0,0,1-4.384,1.754,25.722,25.722,0,0,1-6.43.731v-.438a19.876,19.876,0,0,0,8.915-2.484l-3.508-.731-.731,1.169-1.754-.731,2.484-3.361h-5.261l-.292-.585h5.992l1.461-2.631h-3.508v.731l-1.754.292V53.654l1.754,1.023h2.338V52.046h-5.992l-.292-.585h15.638L189.507,50l1.9,1.608v.438H184.83v2.484h2.631l.585-.877,1.608,1.023.438.438c0,.146-.292.292-.731.585v4.238l-1.754.292v-.877h-6.284Zm-3.069-4.384H176.5v3.508h2.484Zm-.585,9.792,4.238.438a10.96,10.96,0,0,0,2.484-3.069h-4.969l-1.315,1.9Zm4.823-10.376V52.046h-2.484v2.484Zm0,4.092V55.115h-2.484v3.508Zm4.384,0V55.115H184.83v3.508Z" transform="translate(77.356 -49.392)"/>
  <path id="パス_87877" data-name="パス 87877" d="M193.369,50.6h.877c1.608,0,2.923.438,2.923,1.023l-.292.731a16.221,16.221,0,0,0-.292,3.215c0,1.754.146,2.046.438,2.338l1.315-.438,2.192-.731.877-.292.731-.292.438-.292a3.182,3.182,0,0,1,1.315,1.023,1.023,1.023,0,0,1,.292.585c0,.292,0,.292-1.315.438h-1.023s-10.522,1.461-10.522,5.554a2.192,2.192,0,0,0,1.461,1.9,15.637,15.637,0,0,0,5.407.438,16.66,16.66,0,0,0,4.384-.292l.731-.292c.438,0,1.461.877,1.461,1.461a.516.516,0,0,1-.585.585,39.318,39.318,0,0,1-5.407.292c-5.407,0-8.476-.585-8.476-3.946s2.777-4.238,5.554-5.554c-.585-.585-1.023-1.023-1.023-2.923a20.555,20.555,0,0,1,.146-2.631,1.624,1.624,0,0,0-1.608-1.608Z" transform="translate(85.478 -49.115)"/>
  <path id="パス_87878" data-name="パス 87878" d="M204.692,53.909a2.777,2.777,0,0,0,2.631,1.169l4.823-.585-.877-2.046c-.585-1.315-1.023-1.461-2.484-1.608V50.4h1.169a5.261,5.261,0,0,1,2.338.438c.438.146.438.438.438.731a7.747,7.747,0,0,0,.731,2.777,19.877,19.877,0,0,0,3.508-1.023l.731-.438,1.315.585a.731.731,0,0,1,.292.438c0,.292-.438.438-1.169.731l-4.092,1.023a22.069,22.069,0,0,0,3.069,4.384c.731.731.731.877.731,1.315s-.438,1.608-.877,1.608-1.023-.877-1.315-1.023a8.915,8.915,0,0,0-4.531-1.023c-3.069,0-4.531,1.315-4.531,2.777s2.338,2.484,5.261,2.484a21.482,21.482,0,0,0,4.092-.438h.731c.292,0,1.315.731,1.315,1.315s-.292.585-.731.585a31.567,31.567,0,0,1-4.677.292,12.13,12.13,0,0,1-5.554-.877,3.215,3.215,0,0,1-1.754-2.923c0-2.192,1.9-3.946,5.992-3.946a19.437,19.437,0,0,1,4.238.585l-.585-.877-2.046-3.654a43.11,43.11,0,0,1-5.554.585c-1.461,0-2.046-.731-2.923-2.192Z" transform="translate(91.984 -49.209)"/>
  <path id="パス_87879" data-name="パス 87879" d="M221.715,50.4h.877c1.461,0,2.923.731,2.923,1.169s0,.292-.292.731-.146.292-.292,1.9l.585-.292c.438,0,.877.877.877.877l-.292.292-1.461,1.315v1.169a24.409,24.409,0,0,1,3.508-2.777,8.623,8.623,0,0,1,4.092-1.754,2.192,2.192,0,0,1,2.484,2.338,20.179,20.179,0,0,1-.146,2.192,48.089,48.089,0,0,0-.438,5.846c0,1.023,0,2.338,1.169,2.338a2.338,2.338,0,0,0,1.461-.731l.731-1.023.438.292a5.261,5.261,0,0,1-1.169,1.9,3.215,3.215,0,0,1-2.046.877,2.192,2.192,0,0,1-1.754-1.023,4.238,4.238,0,0,1-.438-2.338,30.765,30.765,0,0,1,.146-3.361V58.146c0-.292.146-1.608.146-2.046s0-1.754-1.461-1.754a9.646,9.646,0,0,0-4.092,2.046,22.356,22.356,0,0,0-2.777,2.338v7.6a2.046,2.046,0,0,1-1.315,1.9c-.292,0-.438-.292-.438-.585v-.585c-.146-.877-.877-1.754-2.338-3.508l-.731,1.169a.585.585,0,0,1-.438.292c-.292,0-.731-.438-.731-1.315s.146-.438.438-.877l.585-.585L223.177,58V55.807a6.577,6.577,0,0,0-2.192,1.169h-.292c-.146,0-.438-.146-.877-.585a3.654,3.654,0,0,1-1.023-2.192h.438c.585,1.023.877,1.169,1.315,1.169l2.631-.731V52.008a2.137,2.137,0,0,0-1.754-1.169Zm1.461,13.884V60.192l-1.608,2.046-.585.877,2.192,2.046Z" transform="translate(98.491 -49.208)"/>
  <path id="パス_87880" data-name="パス 87880" d="M239.563,58.746a12.715,12.715,0,0,1,5.407-1.315c3.361,0,5.261,1.9,5.261,4.677s-3.215,5.554-7.161,5.554-4.823-1.023-4.823-2.777a2.046,2.046,0,0,1,2.338-2.046,5.846,5.846,0,0,1,3.946,1.608,2.631,2.631,0,0,1,1.023,1.608,4.384,4.384,0,0,0,1.754-1.461,5.115,5.115,0,0,0,.731-2.631,3.361,3.361,0,0,0-3.8-3.508,10.961,10.961,0,0,0-7.746,3.654c-1.023,1.169-1.023,1.169-1.315,1.169s-.877-.877-.877-1.315a.585.585,0,0,1,.292-.585l.585-.438a94.7,94.7,0,0,0,8.769-8.476h-1.023a12.13,12.13,0,0,0-3.654,1.023l-.585.292c-.292,0-.877-.585-1.169-.877a4.822,4.822,0,0,1-.877-1.9h.438c.438.731.731,1.169,1.608,1.169h.585l3.507-.438h.877l.877-.292.585-.292.731.585c.731.731.877.877.877,1.023l-.438.292-.877.585-4.384,4.092Zm.731,5.115a1.023,1.023,0,0,0-1.169,1.023c0,.877,1.023,1.754,3.361,1.754h1.754C242.047,63.861,240.732,63.861,240.294,63.861Z" transform="translate(105.78 -48.931)"/>
  <path id="パス_87881" data-name="パス 87881" d="M259.923,50.431c.146,0,.585.146.585.292s-.438.438-.731.438a13.882,13.882,0,0,0,2.631,2.923,17.246,17.246,0,0,0,5.7,3.215l1.023.438v.438c-.731,0-1.023.146-1.608,1.315a15.93,15.93,0,0,1-8.038-8.184,32,32,0,0,1-3.215,3.946,23.968,23.968,0,0,1-6.577,4.531l-.292-.438a22.361,22.361,0,0,0,8.184-9.646Zm2.923,10.523,1.169-1.461,1.9,1.461v.438h-5.554v6.284h5.115l1.315-1.461,2.046,1.754v.438H250.277l-.292-.585H253.2v-8.33l2.046.292c.438,0,.438.146.438.292s-.292.292-.731.438v7.161h3.361V56.13l2.192.292c.292,0,.585.146.585.292s-.292.292-.877.585v3.508Z" transform="translate(112.75 -49.531)"/>
  <path id="パス_87882" data-name="パス 87882" d="M282.33,54.277l1.169-1.461,1.9,1.608v.438h-5.261c.438.292.585.292.585.438s-.438.292-.731.292L277.8,57.93h3.508l1.169-1.461,1.9,1.608v.438H276.63v1.754h3.8l1.169-1.315,1.754,1.461v.438H276.63v1.9h5.846l1.169-1.315,1.9,1.461v.438h-8.476a16.807,16.807,0,0,0,8.476,3.654v.438a1.9,1.9,0,0,0-1.461,1.608,16.954,16.954,0,0,1-4.677-2.484,10.815,10.815,0,0,1-2.777-2.923v5.407l-1.9.292V64.361a20.606,20.606,0,0,1-8.33,4.823v-.438a20.46,20.46,0,0,0,6.723-5.407h-6.284l-.292-.585h8.184v-1.9h-5.992l-.292-.585h6.284V58.515h-7.015l-.292-.585h5.115a.877.877,0,0,1-.292-.585v-.731a3.946,3.946,0,0,0-.877-1.9h-4.531l-.292-.585h6.577V49.746h1.9c.292,0,.585.146.585.292s-.292.292-.731.585v3.361h1.754V49.6h1.9c.146,0,.438.146.438.292s-.146.292-.585.585v3.361h1.023a23.381,23.381,0,0,0,1.754-4.092l2.046,1.023a.438.438,0,0,1,.292.292c0,.292-.292.292-.731.292l-2.338,2.338Zm-13.592-3.654c1.9.438,3.215,1.315,3.215,2.484a.877.877,0,0,1-1.023,1.023c-.438,0-.731-.146-1.023-1.023a3.507,3.507,0,0,0-1.315-2.192Zm3.654,4.384c1.608.877,1.9,1.608,1.9,2.192a1.023,1.023,0,0,1-.292.877h3.215a27.037,27.037,0,0,0,1.315-3.069Z" transform="translate(120.595 -49.577)"/>
  <path id="パス_87883" data-name="パス 87883" d="M288.231,50.915c2.484.292,3.8,1.461,3.8,1.754s-.146.292-.292.438a.877.877,0,0,0-.585.438l-.731,1.461h.877a21.191,21.191,0,0,0,4.823-.585l.731-.731,1.754,1.315c.438.292.585.438.585.585s-.438.292-.877.438c-3.361,9.646-8.476,11.838-13.738,13.007V68.6a16.953,16.953,0,0,0,7.453-4.531,20.9,20.9,0,0,0,4.384-8.33,39.02,39.02,0,0,1-5.261.438h-1.169a16.075,16.075,0,0,1-5.992,6.138l-.292-.438a17.976,17.976,0,0,0,5.554-9.353c0-.731-.877-1.023-1.169-1.023Zm8.476.292c1.315.292,3.654,1.169,3.654,2.338a.731.731,0,0,1-.585.731c-.292,0-.585-.146-1.023-.731a8.037,8.037,0,0,0-2.192-2.046Zm1.169-1.608a9.06,9.06,0,0,1,2.923.877,1.608,1.608,0,0,1,1.023,1.315c0,.146-.146.731-.585.731s-.438-.146-.877-.585a8.622,8.622,0,0,0-2.484-1.9Z" transform="translate(128.578 -49.577)"/>
  <path id="パス_87884" data-name="パス 87884" d="M300.361,52.108c1.754.146,3.508,1.023,3.508,1.461l-.292.438v1.754c-.146,5.115-.292,8.769-6.284,12.13L297,67.6c3.946-2.923,4.823-6.723,4.823-11.692,0-2.631,0-2.923-1.315-3.508Zm5.261-1.608c1.9.146,3.654,1.169,3.654,1.608s0,.292-.438.585v.292a31.792,31.792,0,0,0-.146,3.8v7.892a27.768,27.768,0,0,0,7.015-7.307l.438.292A24.405,24.405,0,0,1,310.3,65.7l-1.754,1.608c-.146.731-.146.731-.292.731l-.438-.292-1.461-1.608.731-.438V53.423c0-1.461,0-2.046-1.461-2.484Z" transform="translate(134.715 -49.161)"/>
  <path id="パス_87885" data-name="パス 87885" d="M313.685,55a2.192,2.192,0,0,0,2.192,1.315h1.608l9.207-.438,2.484-.292h.292c.438,0,1.9,1.023,1.9,1.608s-.438.438-.585.438H326.4a87.69,87.69,0,0,0-9.792.438l-1.169.438h-.146c-.146,0-1.169-.292-2.192-3.215Z" transform="translate(142.145 -47.085)"/>
  <path id="パス_87886" data-name="パス 87886" d="M340.969,53.553l.585-.731,1.9,1.461c.146.146.292.292.292.438s-.438.438-.877.585a26.451,26.451,0,0,1-2.631,6.43,15.345,15.345,0,0,1-6.43,5.407,19.729,19.729,0,0,1-3.8,1.315v-.438a17.1,17.1,0,0,0,8.184-6.138,18.415,18.415,0,0,0,2.923-7.307h-.877a59.483,59.483,0,0,0-8.476.877l-.731.438-.292.292c-.292,0-.731-.438-.877-.731a5.846,5.846,0,0,1-1.461-2.631h.292a2.631,2.631,0,0,0,2.338,1.169h3.215l5.992-.292Zm3.654-.146a2.192,2.192,0,0,1-2.192-2.192,2.106,2.106,0,1,1,2.192,2.338Zm0-3.508a1.315,1.315,0,1,0,1.315,1.315,1.461,1.461,0,0,0-1.315-1.315Z" transform="translate(149.205 -49.584)"/>
  <path id="パス_87887" data-name="パス 87887" d="M342.592,57.438a1.754,1.754,0,0,0,1.023.877c.292,0,.292-.146,1.023-.877a36.683,36.683,0,0,1,3.508-3.8,2.192,2.192,0,0,1,1.315-.438,2.66,2.66,0,0,1,1.9,1.023,52.9,52.9,0,0,0,8.915,7.746c.731.438,1.169.731,1.169,1.315a.877.877,0,0,1-.877,1.023c-.877,0-4.092-2.923-5.115-3.8l-4.969-5.115c-.585-.585-.877-.731-1.169-.731a22.976,22.976,0,0,0-3.654,4.823l-.292.877h-.292a2.777,2.777,0,0,1-1.315-.585,3.8,3.8,0,0,1-1.462-2.192Z" transform="translate(155.62 -47.916)"/>
</svg>
