<svg xmlns="http://www.w3.org/2000/svg" width="540.3" height="96.112" viewBox="0 0 540.3 96.112">
  <g id="グループ_79639" data-name="グループ 79639" transform="translate(-345.7 -168.588)">
    <path id="パス_36841" data-name="パス 36841" d="M25.2.6c3.2,0,5.2.1,7.55.3V-5.7a52.534,52.534,0,0,1-7.3.4h-14A12.053,12.053,0,0,1,14.3-9.8a43.742,43.742,0,0,1,5.95-5c6.5-4.45,7-4.85,8.4-6.15a10.149,10.149,0,0,0,3.55-8C32.2-35.8,26.8-40,18.05-40c-5,0-8.95,1.55-11.45,4.45-1.85,2.15-2.75,4.2-3.45,8l7.15.85a9.5,9.5,0,0,1,1.55-4.6c1.25-1.95,3.45-2.95,6.35-2.95,4.25,0,6.9,2.1,6.9,5.5,0,2.55-1.4,4.2-6,7.35a68.855,68.855,0,0,0-8.25,6.05A24.677,24.677,0,0,0,4-5.55,25.548,25.548,0,0,0,2.7.85,46.08,46.08,0,0,1,9.15.6Zm28.15.8c5.2,0,9.35-2,12.15-5.9,2.35-3.25,3.7-8.65,3.7-14.8a33.625,33.625,0,0,0-1.95-11.6,14.008,14.008,0,0,0-3.3-5.05A14.523,14.523,0,0,0,53.4-40a14.217,14.217,0,0,0-12.75,6.95C38.8-30,37.6-24.5,37.6-19.2A33.463,33.463,0,0,0,39.55-7.7a14.008,14.008,0,0,0,3.3,5.05A14.4,14.4,0,0,0,53.35,1.4Zm.05-5.8A7.326,7.326,0,0,1,47-7.65c-1.6-2.3-2.55-6.65-2.55-11.9,0-5.45,1.1-9.55,3.3-12.15a6.725,6.725,0,0,1,5.6-2.55,7.226,7.226,0,0,1,5.45,2.1c2.25,2.45,3.5,7,3.5,12.8,0,5.85-1.25,10.5-3.5,12.85A7.266,7.266,0,0,1,53.4-4.4Zm43,5c3.2,0,5.2.1,7.55.3V-5.7a52.534,52.534,0,0,1-7.3.4h-14A12.053,12.053,0,0,1,85.5-9.8a43.742,43.742,0,0,1,5.95-5c6.5-4.45,7-4.85,8.4-6.15a10.149,10.149,0,0,0,3.55-8C103.4-35.8,98-40,89.25-40c-5,0-8.95,1.55-11.45,4.45-1.85,2.15-2.75,4.2-3.45,8l7.15.85a9.5,9.5,0,0,1,1.55-4.6c1.25-1.95,3.45-2.95,6.35-2.95,4.25,0,6.9,2.1,6.9,5.5,0,2.55-1.4,4.2-6,7.35a68.855,68.855,0,0,0-8.25,6.05,24.677,24.677,0,0,0-6.85,9.8A25.548,25.548,0,0,0,73.9.85,46.08,46.08,0,0,1,80.35.6Zm29.3,0a41.914,41.914,0,0,1-.4-6.5V-31.2a75.34,75.34,0,0,1,.4-8.25,36.363,36.363,0,0,1-5.1.25H116a27.786,27.786,0,0,1-5-.3v6.35a44.467,44.467,0,0,1,5.15-.3h2.4V-5.9a41.5,41.5,0,0,1-.4,6.5Zm20.75-13H143.9a41.9,41.9,0,0,1-5.45-.3V-7a43,43,0,0,1,5.45-.3h16.8v6.15a36.441,36.441,0,0,1-.3,5.45h6.1a30.108,30.108,0,0,1-.3-5.35V-7.3h11.6a42.447,42.447,0,0,1,5.45.3v-5.7a40.843,40.843,0,0,1-5.45.3H166.2v-8.1h8.2a47.054,47.054,0,0,1,5,.2v-5.3a36.7,36.7,0,0,1-5.15.25H166.2v-6.5h10.2a36.8,36.8,0,0,1,5.1.25v-5.45a35.5,35.5,0,0,1-5.1.25H153c.9-1.95,1.4-3,1.45-3.15.35-.75.45-.9.75-1.5l-5.95-1.2a14.443,14.443,0,0,1-1.2,3.65c-2.05,4.9-4.65,8.2-9.75,12.55A21.887,21.887,0,0,1,142-22a46.106,46.106,0,0,0,8.25-9.85H160.7v6.5H149.8c-1.35,0-2.45-.05-3.5-.15a27.45,27.45,0,0,1,.15,2.9Zm5.25,0v-8.1h9v8.1Zm39.25,3.55c.9,2.9,1.55,4.2,2.8,5.6C196.6,0,200.6,1.5,206.45,1.5c5.35,0,9.55-1.4,12.3-4.05a10.588,10.588,0,0,0,3-7.3,9.6,9.6,0,0,0-2.4-6.9c-1.75-1.95-3.6-2.8-7.15-3.35,2.65-.7,3.75-1.1,4.85-1.95a9.116,9.116,0,0,0,3.45-7.35c0-6.5-5.4-10.7-13.75-10.7a16.234,16.234,0,0,0-9.8,2.75c-2.35,1.7-3.5,3.45-4.75,7.15l7.15,1.2a7.345,7.345,0,0,1,2.1-3.85,8.336,8.336,0,0,1,5.45-1.55c4.25,0,6.6,1.95,6.6,5.4,0,3.85-2.95,6.15-7.95,6.15a34.278,34.278,0,0,1-4.85-.25v6.2a42.7,42.7,0,0,1,5.35-.25,12.952,12.952,0,0,1,5.75,1.2,5.825,5.825,0,0,1,2.8,5.25c0,3.95-3.15,6.5-8.1,6.5a9.442,9.442,0,0,1-6.05-1.95c-1.25-1-1.7-1.8-2.35-4.1Zm72.65-2.7V-2.9c0,1.1-.35,1.35-1.85,1.35a50.556,50.556,0,0,1-7.35-.6,18.09,18.09,0,0,1,1.45,5.6c2.55.15,4.2.2,5.8.2,3.3,0,4.7-.25,5.8-1,1.25-.8,1.8-2.25,1.8-4.75V-34.5a37.717,37.717,0,0,1,.25-5.65,45.067,45.067,0,0,1-5.8.25H242.85a50.447,50.447,0,0,1-5.85-.25,70.464,70.464,0,0,1,.25,7.55c0,13-.5,18.85-2,23.5A18.931,18.931,0,0,1,229.9-.3a19.342,19.342,0,0,1,4.65,4.6,28.037,28.037,0,0,0,5.9-9.9,37.057,37.057,0,0,0,1.45-5.95Zm-21.1-5.1c.3-4.05.4-5.15.4-6.7h20.7v6.7Zm.45-11.8V-34.7H263.6v6.25ZM318.4-11.6v9.35c0,.9-.35,1.1-1.9,1.1a23.089,23.089,0,0,1-4.4-.5,21.467,21.467,0,0,1,1.3,5.5c2.45.15,2.55.15,3.15.15a13.312,13.312,0,0,0,4.95-.7c1.4-.6,2.1-2.15,2.1-4.6V-34.45a47.392,47.392,0,0,1,.2-5.5,48.18,48.18,0,0,1-5.4.2h-7.25a54.339,54.339,0,0,1-5.55-.2,51.221,51.221,0,0,1,.25,6.5c0,12.85-.3,20.25-1,24.55a16.943,16.943,0,0,1-4.3,9.3,32.411,32.411,0,0,1,4.25,4.05c3.5-4.5,4.75-8.15,5.5-16.05Zm0-11.8v7.05h-7.75c.15-2.25.2-4.1.25-7.05Zm0-4.8h-7.45v-6.6h7.45Zm-34.65-8.2a16.21,16.21,0,0,1-3.8-.25v5.05a21.471,21.471,0,0,1,3.8-.2v19.3h-.65a22.363,22.363,0,0,1-3.7-.2v5.05a22.913,22.913,0,0,1,3.85-.2h16.4a40.707,40.707,0,0,1,4.2.15v-5a19.475,19.475,0,0,1-3,.2V-31.8a18.05,18.05,0,0,1,3.4.2v-5.05a22.513,22.513,0,0,1-3.4.25v-.85a24.772,24.772,0,0,1,.25-4.25h-5.45a23.73,23.73,0,0,1,.25,4.25v.85h-7.2v-.85a25.49,25.49,0,0,1,.25-4.25H283.5a25.49,25.49,0,0,1,.25,4.25Zm4.95,23.9v-3.8h7.2v3.8Zm0-8.2v-3.4h7.2v3.4Zm0-7.8v-3.3h7.2v3.3Zm-2,21.1A22.956,22.956,0,0,1,279.4.35a18.7,18.7,0,0,1,3.85,3.95,31.788,31.788,0,0,0,7.7-9.1Zm6.45,2.7A28.318,28.318,0,0,0,298,1.75a18.819,18.819,0,0,1,3.75-3.7A18.9,18.9,0,0,1,297.1-7.3ZM386.7-15.55a44.132,44.132,0,0,1,5.55.3V-21.2a30.2,30.2,0,0,1-4.2.3v-9.9a26.727,26.727,0,0,1,.2-4,34.565,34.565,0,0,1-4.65.2h-7.65v-2.75A19.69,19.69,0,0,1,376.3-42h-6.1a23.023,23.023,0,0,1,.35,4.7v2.7h-4.1c-2.1,0-3.75-.1-5.3-.25v5.65a49.451,49.451,0,0,1,5.3-.25h4.15c-.05,2.8-.15,5.7-.4,8.55h-5.6a43.577,43.577,0,0,1-5.55-.3v5.95a42.8,42.8,0,0,1,5.6-.3h4.8C367.8-8.45,363.7-4,355.8-.65a16.845,16.845,0,0,1,3.45,5.05c7.8-4.15,12.1-8.9,14.55-16C376.35-5.4,382,.2,389.45,4.05a18.316,18.316,0,0,1,2.95-5.7c-7.45-3-12.3-7.4-15.3-13.9ZM375.5-20.9c.25-2.6.35-4.55.4-8.55h6.9v8.55ZM347.65-37.65a38.253,38.253,0,0,1,8.75,7.15l3.5-4.5a42.206,42.206,0,0,0-8.75-6.65ZM345.8-25.2a48.744,48.744,0,0,1,9,6.85L358-23a49.186,49.186,0,0,0-9-6.3Zm7.65,9.75c-2.6,7.55-4.6,11.6-7.4,15L350.8,3.7c.15-.3,1.2-2.15,1.55-2.8a76.639,76.639,0,0,0,5.5-13.2Zm54.25-19.1a22.374,22.374,0,0,1,2.05,4.25H406.9a37.545,37.545,0,0,1-4-.15c.05,1.15.1,2.1.1,3.6v11.5a39.842,39.842,0,0,1-.2,5c1.65-.1,2.6-.15,5.3-.15h2.1c0,1,0,1.35-.05,2.15H402.4a41.545,41.545,0,0,1-5.65-.3v5.1a47.608,47.608,0,0,1,5.65-.3H409a7.624,7.624,0,0,1-4.45,3,28.683,28.683,0,0,1-6,1A20.3,20.3,0,0,1,401.7,4.7,23.592,23.592,0,0,0,409.6,2a11.037,11.037,0,0,0,4.85-5.85H424.5v3.5a27.236,27.236,0,0,1-.3,4.5H430a30.371,30.371,0,0,1-.3-4.5v-3.5H436a47.331,47.331,0,0,1,5.8.3v-5.1a41.015,41.015,0,0,1-5.8.3h-6.3V-10.5h1.25c2.75,0,3.7.05,5.3.15a41.864,41.864,0,0,1-.2-5.3V-25c0-2.55.05-4.1.15-5.45-1.3.1-2.25.15-4.8.15l3.3-1.1a32.8,32.8,0,0,0-1.9-3.15h3.9a36.362,36.362,0,0,1,5.1.25v-5.05a32.574,32.574,0,0,1-5.1.3h-9.5l1.25-2.5-5.2-1.35a21,21,0,0,1-4.5,7.9v-4.35a27.845,27.845,0,0,1-4.7.3H407.8c.7-1.35,1.1-2.15,1.25-2.45l-5.25-1.25A14.462,14.462,0,0,1,401.4-38a25.392,25.392,0,0,1-5.3,5.7,22.433,22.433,0,0,1,3.55,4.1,34.5,34.5,0,0,0,5.45-6.35Zm6.85,0c1.45,0,2.7.05,3.7.1-.6.65-.85.85-1.6,1.55a13.509,13.509,0,0,1,3.4,2.6H411l3.55-1.05a27.03,27.03,0,0,0-1.85-3.2Zm6.7,4.25a32.333,32.333,0,0,0,3.35-4.25h3.05A24.6,24.6,0,0,1,430-30.3ZM415.3-8.35a15.122,15.122,0,0,0,.1-2.15h9.1v2.15ZM408.1-26.6h22.8v1.75H408.1Zm0,5.2h22.8v1.85H408.1Zm0,5.3h22.8v1.85H408.1Zm52.45-.8c0,.55,0,.9-.05,1.55h-7.15a30.2,30.2,0,0,1-5.25-.3v5.35a31.944,31.944,0,0,1,5.25-.3h6.4a11.365,11.365,0,0,1-3.55,5.55c-2.2,2-4.6,3.15-9.25,4.45a18.25,18.25,0,0,1,3.55,4.9c6.15-2.4,9.15-4.4,11.65-7.7a17.583,17.583,0,0,0,3.1-7.2h6.45V-.9c0,3.5,1.6,4.35,8.4,4.35,9.6,0,10.5-.75,11.6-9.2a17.06,17.06,0,0,1-5.4-1.75c-.15,2.75-.45,4.4-.9,5-.55.7-1.75.95-4.5.95a11.564,11.564,0,0,1-3.2-.25c-.75-.2-.8-.3-.8-1.35V-10.6h7.95a38.145,38.145,0,0,1,5.25.3v-5.35a29.862,29.862,0,0,1-5.25.3H476.9v-5.4a40.306,40.306,0,0,1,4.8.2V-22.7a50.113,50.113,0,0,0,8.25,4.5,20.4,20.4,0,0,1,2.8-4.95,44.369,44.369,0,0,1-8-3.8,38.729,38.729,0,0,0,4.5-4.6c1-1.1,1.1-1.25,1.4-1.55l-4.6-2.6a29.481,29.481,0,0,1-5.2,6.05c-1.05-.8-1.6-1.25-2.95-2.4a51.641,51.641,0,0,0,3.7-3.75c1.15-1.35,1.8-2.1,1.95-2.3l-4.6-2.55c-.15.25-.15.25-.4.65a8.767,8.767,0,0,1-1.05,1.45,26.287,26.287,0,0,1-2.95,3.2c-1.9-2.3-2.6-3.45-3.1-5.45a28.79,28.79,0,0,1-4.3.2H457.9a28.571,28.571,0,0,1-4.15-.25v5.2l-1.6-1.3-4.1,3.05a34.252,34.252,0,0,1,7,6.55,42.888,42.888,0,0,1-9.55,4.85,18.917,18.917,0,0,1,2.95,4.6,49.291,49.291,0,0,0,8.8-4.85v2.2c1.25-.1,1.8-.15,3.35-.2Zm5.35-3.85h5.8v5.4h-5.85V-16.5Zm-1.8-15.1a32.336,32.336,0,0,1-4.9,5.35,43.017,43.017,0,0,0-5.45-5.15,22.258,22.258,0,0,1,3.05-.2Zm-1.9,10.4h-1.35a41.747,41.747,0,0,0,8.45-9.05,41.885,41.885,0,0,0,8.5,9.05H462.2Zm56.7,8.05a40.606,40.606,0,0,0,5.9,10.3c3.55,4.35,8.1,7.65,14.9,10.6A18.934,18.934,0,0,1,543-1.9a34.937,34.937,0,0,1-10.95-5.65,68.437,68.437,0,0,0,5.9-5.2l1.15-1.15-5-3.1a30.411,30.411,0,0,1-5.85,5.75,25.071,25.071,0,0,1-3.9-6.15H536a48.192,48.192,0,0,1,5.75.3v-5.4a32.516,32.516,0,0,1-5.75.3H521.55v-3.2H532.1a48.973,48.973,0,0,1,5.55.2v-5a46.74,46.74,0,0,1-5.55.2H521.55v-3.05h12.9a39.041,39.041,0,0,1,5.6.25v-5.25a43.994,43.994,0,0,1-5.95.3H521.55a18.914,18.914,0,0,1,.3-4.3H515.7a19.178,19.178,0,0,1,.3,4.3H504.25a44.368,44.368,0,0,1-5.85-.3v5.25a38.613,38.613,0,0,1,5.6-.25h12V-30h-9.75a47.39,47.39,0,0,1-5.5-.2v5a48.514,48.514,0,0,1,5.5-.2H516v3.2H502.3a33.517,33.517,0,0,1-5.8-.3v5.4a49.389,49.389,0,0,1,5.85-.3h9.45a38.669,38.669,0,0,1-16.1,8.25,21.308,21.308,0,0,1,3.1,5.35,53.98,53.98,0,0,0,10.65-5.5v6.85a63.208,63.208,0,0,1-6.9.6L503.75,4c.45-.1,1.4-.3,2.4-.5,1.15-.15,1.15-.15,2.35-.35,2.75-.45,2.95-.5,6.35-1.15C520.4.85,521.55.6,525.3-.45V-5.7c-4.4,1.15-6.5,1.65-10.35,2.35v-10.3a30.617,30.617,0,0,0,3.65-3.75Z" transform="translate(343 260)" fill="#fff"/>
    <path id="パス_36842" data-name="パス 36842" d="M3.12-18.33a33.479,33.479,0,0,1,3.3,8.4l3.38-1.2a37.018,37.018,0,0,0-3.51-8.294Zm15.964-1.144a23.348,23.348,0,0,1-1.3,5.876,19.633,19.633,0,0,1-4.238,7.384A20,20,0,0,1,6.318-1.248,9.721,9.721,0,0,1,8.71,1.56,23.715,23.715,0,0,0,16.2-4.108,26.789,26.789,0,0,0,21.97-16.094a11.808,11.808,0,0,1,.7-2.548Zm26.364.26a9.5,9.5,0,0,1-2.782.26H30.732a18.313,18.313,0,0,1-3.328-.182v3.38a20.64,20.64,0,0,1,3.276-.156H43.056A18.015,18.015,0,0,1,35.178-4.576a21.154,21.154,0,0,1-5.694,2.652A9.568,9.568,0,0,1,31.772,1.17a25.315,25.315,0,0,0,9.672-6.63c2.5-2.808,4.03-5.928,5.33-10.894a3.91,3.91,0,0,1,.442-1.17ZM58.812,1.17a28.583,28.583,0,0,1-.1-2.886V-8.58a13.442,13.442,0,0,0-.1-1.768,8.4,8.4,0,0,0,.884.442,61.514,61.514,0,0,1,9.2,4.966l1.82-3.068a76.386,76.386,0,0,0-11.8-5.486V-18.33a17.429,17.429,0,0,1,.1-2.73H55.25a16.712,16.712,0,0,1,.156,2.652V-1.742A17.515,17.515,0,0,1,55.25,1.17Zm22.75-20.644v.364a19.078,19.078,0,0,1-.234,2.522A31.62,31.62,0,0,1,78.884-7.67a17.521,17.521,0,0,1-3.718,5.538A11.4,11.4,0,0,1,78.13.1a24.824,24.824,0,0,0,4.6-8.034,46.517,46.517,0,0,0,2.054-8.892,11.006,11.006,0,0,1,.338-2Zm7.722.624a12.956,12.956,0,0,1,.364,1.872,40.723,40.723,0,0,0,2.47,9.464A27.313,27.313,0,0,0,96.538.13,11.205,11.205,0,0,1,99.4-2.262a25.147,25.147,0,0,1-5.8-11.232,33.657,33.657,0,0,1-1.092-5.98Zm4.03.52a15.778,15.778,0,0,1,1.924,3.718l1.95-.91a13.52,13.52,0,0,0-1.95-3.666Zm6.656,1.482a14.9,14.9,0,0,0-1.924-3.484l-1.82.832A18.55,18.55,0,0,1,98.1-15.912Zm3.562.156a27.3,27.3,0,0,1,6.63,5.278l2.236-2.834a36.824,36.824,0,0,0-6.708-5.018Zm.91,17.16a9.2,9.2,0,0,1,1.716-.442,28.084,28.084,0,0,0,9.906-3.9c3.562-2.366,6.032-5.434,8.242-10.192a11.212,11.212,0,0,1-2.756-2.548,21.711,21.711,0,0,1-2.652,5.2,17.371,17.371,0,0,1-7.722,6.37,24.774,24.774,0,0,1-7.7,1.924Zm41.7-18.746a4.606,4.606,0,0,1-1.9.26l-5.694.078c-.494,0-.91.026-1.248.052a6.133,6.133,0,0,0,.416-.832l.338-.676a5.247,5.247,0,0,1,.338-.728,5.319,5.319,0,0,1,.442-.806l-3.562-.7a9.7,9.7,0,0,1-1.326,3.432,20,20,0,0,1-6.734,7.54,6.908,6.908,0,0,1,2.522,2.236,25.449,25.449,0,0,0,6.084-6.656l7.826-.13a20.589,20.589,0,0,1-7.592,10.972,23.414,23.414,0,0,1-5.694,3.068,8.011,8.011,0,0,1,2.21,2.73,26.266,26.266,0,0,0,9.256-6.6,26.968,26.968,0,0,0,5.33-10.036,4.891,4.891,0,0,1,.65-1.56Zm24.544.6,1.378-.494a12.211,12.211,0,0,0-2-3.354l-2.08.728a14.252,14.252,0,0,1,1.794,2.99,7.156,7.156,0,0,1-1.3.078l-5.694.078c-.546.026-.962.026-1.248.052.364-.676.546-1.066,1.014-2.106a3.61,3.61,0,0,1,.52-.936l-3.562-.728a9.794,9.794,0,0,1-1.326,3.458,20,20,0,0,1-6.734,7.54,6.908,6.908,0,0,1,2.522,2.236,25.147,25.147,0,0,0,6.084-6.682l7.826-.1A20.687,20.687,0,0,1,160.29-3.952,22.57,22.57,0,0,1,154.6-.91a8.011,8.011,0,0,1,2.21,2.73,25.9,25.9,0,0,0,9.256-6.578,26.968,26.968,0,0,0,5.33-10.036,4.622,4.622,0,0,1,.65-1.56Zm4.55-1.508a13.56,13.56,0,0,0-2-3.224l-2.028.78a16.725,16.725,0,0,1,1.95,3.3Zm5.278-1.144a13.067,13.067,0,0,1,.1,2.366c0,7.28-.6,10.634-2.47,13.624a10.682,10.682,0,0,1-2.678,2.99A9.253,9.253,0,0,1,178.1,1.17a16.557,16.557,0,0,0,3.588-4.81c1.352-2.678,1.924-5.616,2.106-10.686a54.343,54.343,0,0,1,.26-5.824Zm6.89-.182a11.253,11.253,0,0,1,.1,1.716v.78l-.13,14.664A11.652,11.652,0,0,1,187.148-.6l1.664,1.768A11.312,11.312,0,0,1,189.93.7a17.172,17.172,0,0,0,5.538-3.12A16.135,16.135,0,0,0,199.6-8.476a10.9,10.9,0,0,1-2.444-2.444,12.705,12.705,0,0,1-2.548,4.758A10.453,10.453,0,0,1,190.632-3.2l.13-14.794a14.09,14.09,0,0,1,.182-2.47Zm14.9,12.35a28.543,28.543,0,0,1,4.238-.13H220.35a28.543,28.543,0,0,1,4.238.13v-3.614a25.533,25.533,0,0,1-4.212.182H206.518a25.533,25.533,0,0,1-4.212-.182ZM230.282-18.9a18.314,18.314,0,0,1-3.328-.182v3.38a20.64,20.64,0,0,1,3.276-.156h12.376a18.015,18.015,0,0,1-7.878,11.336,21.154,21.154,0,0,1-5.694,2.652,9.568,9.568,0,0,1,2.288,3.094,27.7,27.7,0,0,0,4.94-2.574,22.675,22.675,0,0,0,6.474-6.292,26.774,26.774,0,0,0,3.51-8.4,1.719,1.719,0,0,0,.286.026,2.869,2.869,0,0,0,2.834-2.886,2.852,2.852,0,0,0-2.86-2.86,2.857,2.857,0,0,0-2.86,2.808,14.131,14.131,0,0,1-1.43.052Zm16.224-1.482a1.465,1.465,0,0,1,1.482,1.482,1.5,1.5,0,0,1-1.482,1.482,1.5,1.5,0,0,1-1.482-1.482A1.5,1.5,0,0,1,246.506-20.384Zm21.788,5.356h3.068a20.134,20.134,0,0,1,2.782.156v-2.86a19.12,19.12,0,0,1-2.782.156h-3.068V-19.37a15.264,15.264,0,0,1,.156-2.47h-3.016a15.488,15.488,0,0,1,.156,2.47v1.794h-2.106c.13-.494.182-.676.338-1.274a14.162,14.162,0,0,1,.39-1.4l-2.652-.676a16.74,16.74,0,0,1-1.976,6.318v-2.574a7.029,7.029,0,0,1-1.4.1h-.78v-2.106a22.45,22.45,0,0,1,.13-2.678h-2.99a15.986,15.986,0,0,1,.156,2.678v2.106h-1.3a7.484,7.484,0,0,1-1.742-.13V-14.4a7.9,7.9,0,0,1,1.742-.13h1.04a23.857,23.857,0,0,1-3.484,7.852,9.452,9.452,0,0,1,1.2,2.886,20.612,20.612,0,0,0,2.73-6.136,29.953,29.953,0,0,0-.182,3.354v5.59a26.382,26.382,0,0,1-.156,3.2h3.016a25.8,25.8,0,0,1-.156-3.2V-7.644c0-1.144-.052-2.574-.1-3.432a15.118,15.118,0,0,0,1.586,3.25A8.173,8.173,0,0,1,260-10.01v1.066a22.359,22.359,0,0,1,2.834-.156h1.716a17.069,17.069,0,0,1-6.63,6.812,11.568,11.568,0,0,1,1.612,2.47,18.584,18.584,0,0,0,6.162-6.734c-.078,1.014-.1,1.95-.1,2.678V-.78a24.911,24.911,0,0,1-.156,3.016h2.99a23.739,23.739,0,0,1-.156-3.016V-4.056c0-.754-.026-1.69-.1-2.574a18.405,18.405,0,0,0,2.782,3.978,16.693,16.693,0,0,0,2.912,2.73,6.805,6.805,0,0,1,1.82-2.7A17.015,17.015,0,0,1,269.2-9.1h2.912c1.118,0,1.95.052,2.808.13v-2.938a20.665,20.665,0,0,1-2.782.156h-3.848Zm-2.7,0v3.276h-2.756A20.969,20.969,0,0,1,260-11.908v1.482a17.542,17.542,0,0,1-2.444-4.108h.65a9.3,9.3,0,0,1,1.274.078c-.13.208-.208.312-.442.624a9.51,9.51,0,0,1,2.132,1.69,16.7,16.7,0,0,0,1.456-2.886ZM297.1-17.342l2.106-1.2a23.057,23.057,0,0,0-2.574-2.938l-2.262,1.066a15.982,15.982,0,0,1,2.47,3.068h-3.068c-.026-.858-.026-1.612-.026-2.054a17.841,17.841,0,0,1,.1-2.106h-3.146a14.988,14.988,0,0,1,.156,2.028c0,.78,0,.78.078,2.132h-10.3A23.9,23.9,0,0,1,277.6-17.5v2.912a27.3,27.3,0,0,1,3.042-.156h10.4a40.774,40.774,0,0,0,.624,6.188,18.9,18.9,0,0,0,2.886,7.826c1.144,1.534,2.47,2.522,3.458,2.522A2.237,2.237,0,0,0,299.806.7a12,12,0,0,0,1.482-4.888,11.656,11.656,0,0,1-2.47-1.456c-.338,2.7-.65,3.952-.962,3.952a1.91,1.91,0,0,1-.6-.468,8.464,8.464,0,0,1-1.56-2.574c-1.014-2.392-1.586-5.486-1.82-10.01h3.8a22.8,22.8,0,0,1,3.042.156V-17.5a12.566,12.566,0,0,1-2.522.156ZM282.88-9.022V-2.6a36.977,36.977,0,0,1-5.226.6l.468,2.938c.442-.078.728-.13.962-.182,3.484-.52,7.592-1.352,11.986-2.418V-4.316c-2.5.624-3.51.832-5.33,1.2v-5.9h1.794a25.121,25.121,0,0,1,2.6.13v-2.756a22.1,22.1,0,0,1-2.626.13h-6.292a23.1,23.1,0,0,1-2.678-.13v2.756a25.27,25.27,0,0,1,2.626-.13Zm25.662-2.314a20.8,20.8,0,0,1,2.236-.1h8.684a19.75,19.75,0,0,1,2.34.1v-2.028A27.724,27.724,0,0,0,326.248-11a11.579,11.579,0,0,1,1.43-2.912A27.483,27.483,0,0,1,321-17.42a15.79,15.79,0,0,1-4.394-4.316h-3.094a17.121,17.121,0,0,1-4.108,4.368,24.262,24.262,0,0,1-6.526,3.614,12.076,12.076,0,0,1,1.508,2.652,24.464,24.464,0,0,0,4.16-2.236Zm2.262-2.808c-.468,0-.624,0-1.066-.026a22.2,22.2,0,0,0,5.408-5.044,21.18,21.18,0,0,0,5.434,5.044c-.494.026-.728.026-1.144.026Zm.26,7.514a26.921,26.921,0,0,1-2.782,5.2c-1.326.078-2.106.1-2.288.1-.364,0-.806-.026-1.508-.078l.416,3.172a30.916,30.916,0,0,1,3.354-.364c1.04-.078,6.188-.546,8.762-.78.962-.1,2.522-.286,4.68-.572.442.624.7.988,1.56,2.262l2.5-1.638a53.207,53.207,0,0,0-6.006-6.942l-2.574,1.144c1.456,1.508,1.9,1.976,2.73,2.886-3.64.39-3.64.39-8.242.65a28.263,28.263,0,0,0,2.7-5.044h8.944a24.191,24.191,0,0,1,3.042.156V-9.49a24.48,24.48,0,0,1-3.042.156h-16.2a25.537,25.537,0,0,1-3.068-.156v3.016a24.357,24.357,0,0,1,3.068-.156Zm24.856-1.4A14.272,14.272,0,0,0,339.274-5.1a11.089,11.089,0,0,1,1.43-2.548,15.33,15.33,0,0,1-4.134-3.3,21.362,21.362,0,0,0,2.6-4.446,7.228,7.228,0,0,1,.572-1.092l-1.248-1.352a9.471,9.471,0,0,1-1.508.078H335.92V-19.89a11.082,11.082,0,0,1,.156-2.028H332.93a11.938,11.938,0,0,1,.156,1.976v2.184h-1.3a15.874,15.874,0,0,1-2.054-.1v2.886a17.8,17.8,0,0,1,2.184-.1h4.238a15.448,15.448,0,0,1-2.834,4,17.933,17.933,0,0,1-4.472,3.51,10.074,10.074,0,0,1,1.326,2.7,17.521,17.521,0,0,0,2.886-2.21V-.546a15.554,15.554,0,0,1-.156,2.7h3.146a18.462,18.462,0,0,1-.13-2.652Zm11.024-3.848H349.7c.91,0,1.716.052,2.548.13V-14.69a16.91,16.91,0,0,1-2.548.13h-2.756v-4.576a15.242,15.242,0,0,1,.182-2.7h-3.25a18.406,18.406,0,0,1,.182,2.7v4.576h-1.95a17.552,17.552,0,0,1-2.548-.13v2.938c.832-.078,1.664-.13,2.548-.13h1.95V-1.716h-2.834a23.576,23.576,0,0,1-2.99-.156V1.274a20.967,20.967,0,0,1,2.938-.182h8.892a21.349,21.349,0,0,1,2.964.182V-1.872a22.3,22.3,0,0,1-2.964.156h-3.12Z" transform="translate(343 191)" fill="#fff"/>
  </g>
</svg>
