<svg xmlns="http://www.w3.org/2000/svg" width="710.82" height="86.484" viewBox="0 0 710.82 86.484">
  <g id="グループ_79624" data-name="グループ 79624" transform="translate(-411.716 -428.524)">
    <path id="パス_36843" data-name="パス 36843" d="M1.716-1.452H24.64l.88-8.756L24.288-10.3c-1.232,6.072-2.816,7.524-8.36,7.524H8.976V-17.336h4.532c2.6,0,4.312.352,4.972,1.012.616.66.924,1.5,1.232,3.52h1.232v-10.34H19.712c-.484,3.872-1.32,4.488-6.2,4.488H8.976V-32.032h6.072c5.632,0,7.26,1.32,8.316,6.644l1.276-.088-.7-7.876H1.716V-32.3c2.024,0,2.816.352,3.124,1.276.132.4.132.44.22,3.256V-7.04c-.088,3.3-.088,3.344-.572,3.872-.4.44-1.276.66-2.772.66ZM49.1-2.464c-1.672,0-2.2-.132-2.464-.484a9.966,9.966,0,0,1-.484-3.784L46.2-8.756l.044-4.18c.088-4.312.088-4.312.088-4.444,0-2.42-.4-3.872-1.276-4.972-1.056-1.276-3.08-1.936-5.9-1.936a13.226,13.226,0,0,0-6.424,1.408c-1.848,1.056-2.992,2.64-2.992,4.224,0,.924.66,1.32,2.156,1.32a2.842,2.842,0,0,0,1.54-.352c.352-.264.44-.572.484-1.5.176-2.728,1.672-4.048,4.576-4.048,1.8,0,3.036.572,3.608,1.716a8.882,8.882,0,0,1,.616,4v2.772a48.308,48.308,0,0,0-7.832,1.056c-4.268.968-6.468,3.212-6.468,6.688A6.321,6.321,0,0,0,30.36-2.332,6.674,6.674,0,0,0,34.848-.968a8.706,8.706,0,0,0,5.72-1.892,11.089,11.089,0,0,0,2.156-1.892C42.9-1.8,43.252-1.1,44.572-1.1A37.254,37.254,0,0,0,49.1-1.54Zm-6.38-9.2c0,2.9-.308,4.752-1.012,5.984A6.754,6.754,0,0,1,36.08-2.464c-2.2,0-3.7-1.892-3.7-4.664a5.179,5.179,0,0,1,2.948-5.016c1.76-.88,3.476-1.232,7.392-1.584Zm8.1-12.012v.968c2.508,0,3.036.66,3.036,3.96V-6.952c0,4.092-.264,4.444-3.212,4.532v.968H60.72V-2.42c-2.948-.088-3.168-.4-3.168-4.532V-13.86a11.447,11.447,0,0,1,1.188-5.588c.924-1.672,2.156-2.64,3.3-2.64.7,0,.968.264,1.232,1.232.264.836.66,1.1,1.628,1.1,1.408,0,2.332-.7,2.332-1.8,0-1.54-1.452-2.728-3.344-2.728-2.6,0-4.972,1.892-6.424,5.236V-20.46c0-.924-.044-1.5-.132-3.7Zm23.32-.484-6.644.484v.968c2.508,0,3.036.66,3.036,3.96V-6.952c0,4.092-.264,4.444-3.212,4.532v.968H77.352V-2.42c-2.992-.088-3.212-.4-3.212-4.532v-7.612a10.7,10.7,0,0,1,1.5-5.368,5.623,5.623,0,0,1,4.972-2.948,3.922,3.922,0,0,1,3.872,2.332,11.562,11.562,0,0,1,.7,4.752v8.844c0,.308-.088,1.936-.132,2.42a2.365,2.365,0,0,1-.44,1.452c-.352.44-1.144.616-2.6.66v.968H92V-2.42c-2.992-.088-3.212-.4-3.212-4.532V-16.06c0-2.684-.308-4.224-1.144-5.5-1.188-1.892-2.992-2.728-5.764-2.728-3.652,0-5.808,1.276-7.744,4.664Zm19.1.484v.968c1.54,0,2.244.088,2.6.4.484.4.66,1.408.66,3.608V-6.952c0,4.092-.22,4.444-3.256,4.532v.968h10.032V-2.42c-2.948-.088-3.168-.44-3.168-4.532v-8.976c0-1.848.132-5.676.264-8.228Zm2.42-7.348a2.479,2.479,0,0,0,2.508,2.508,2.47,2.47,0,0,0,2.464-2.508,2.46,2.46,0,0,0-2.464-2.464A2.47,2.47,0,0,0,95.656-31.02Zm15.928,6.864-6.644.484v.968c2.508,0,3.036.66,3.036,3.96V-6.952c0,4.092-.264,4.444-3.212,4.532v.968H114.8V-2.42c-2.992-.088-3.212-.4-3.212-4.532v-7.612a10.7,10.7,0,0,1,1.5-5.368,5.623,5.623,0,0,1,4.972-2.948,3.922,3.922,0,0,1,3.872,2.332,11.562,11.562,0,0,1,.7,4.752v8.844c0,.308-.088,1.936-.132,2.42a2.365,2.365,0,0,1-.44,1.452c-.352.44-1.144.616-2.6.66v.968h9.988V-2.42c-2.992-.088-3.212-.4-3.212-4.532V-16.06c0-2.684-.308-4.224-1.144-5.5-1.188-1.892-2.992-2.728-5.764-2.728-3.652,0-5.808,1.276-7.744,4.664Zm39.82,1.98v-1.672c-2.376.088-3.7.132-4.8.132a14.1,14.1,0,0,1-2.772-.264,15.6,15.6,0,0,0-2.948-.308,10.607,10.607,0,0,0-5.412,1.32,7.768,7.768,0,0,0-3.432,6.864,7.231,7.231,0,0,0,1.408,4.532,8.515,8.515,0,0,0,2.2,1.892l-1.716,1.144c-1.716,1.188-2.112,1.76-2.112,2.992,0,1.76.88,2.992,2.772,3.872-2.728,1.76-3.08,2.2-3.08,4.048a4.387,4.387,0,0,0,2.376,4.268,13.982,13.982,0,0,0,6.82,1.364A15.273,15.273,0,0,0,148.5,6.336,6.467,6.467,0,0,0,151.8.88a4.563,4.563,0,0,0-3.652-4.752,22.779,22.779,0,0,0-5.632-.44h-3.08c-3.7,0-4.84-.528-4.84-2.2,0-1.012.66-1.76,2.288-2.64a14.51,14.51,0,0,0,3.872.528c5.28,0,8.712-2.992,8.712-7.656a8,8,0,0,0-2.508-5.9ZM135.74-16.632c0-4.4,1.716-6.644,5.016-6.644,3.256,0,4.928,2.376,4.928,7,0,4.356-1.716,6.688-4.928,6.688a4.466,4.466,0,0,1-4-2.112A10.527,10.527,0,0,1,135.74-16.632Zm.484,15.268c.044-.044,2.684-.088,4.224-.088a39.032,39.032,0,0,1,5.016.176c2.376.4,3.388,1.364,3.388,3.212,0,3.08-2.9,5.016-7.612,5.016-4.488,0-6.82-1.716-6.82-4.972C134.42.132,134.992-.924,136.224-1.364Zm17.424,0a13.359,13.359,0,0,1,1.98-.176,11.51,11.51,0,0,1,1.628.132,22.566,22.566,0,0,0,4.4.528c4.136,0,6.82-2.6,6.82-6.644a6.1,6.1,0,0,0-1.452-4.18c-1.012-1.1-2.112-1.76-5.06-2.992a21.157,21.157,0,0,1-4.576-2.288A2.768,2.768,0,0,1,156.2-19.36c0-2.376,1.76-3.916,4.488-3.916,3.212,0,5.148,2.332,5.236,6.248h1.452l.22-6.952a8.968,8.968,0,0,1-2.112.308,8.061,8.061,0,0,1-.924-.088,19.318,19.318,0,0,0-4.092-.528,6.8,6.8,0,0,0-5.456,2.508,6.992,6.992,0,0,0-1.188,4.048c0,2.992,1.452,4.576,6.2,6.644,4,1.76,4.136,1.8,4.928,2.464a3.408,3.408,0,0,1,1.056,2.552c0,2.6-1.8,4.136-4.8,4.136a5.614,5.614,0,0,1-4.8-2.376c-.748-.968-1.056-2.024-1.232-4.092h-1.364Zm38.236-15.224h2.684a8.954,8.954,0,0,1,3.124.528c1.32.44,2.156,1.32,3.212,3.212a86.055,86.055,0,0,1,4.8,11.4h6.864V-2.42a3.352,3.352,0,0,1-2.332-.836C209.352-4,209-4.62,206.844-9.5c-1.452-3.256-2.288-4.576-3.652-5.764a7.417,7.417,0,0,0-3.52-1.584v-.4c3.3-.352,6.072-1.54,7.392-3.256a8.539,8.539,0,0,0,1.5-4.972c0-5.368-3.74-7.876-11.792-7.876H184.58V-32.3c3.168.132,3.388.44,3.388,4.532V-7.04c0,4.048-.264,4.4-3.388,4.488v1.1h10.736v-1.1c-3.168-.088-3.432-.44-3.432-4.488Zm0-1.32V-32.032h4.048c5.632,0,8.36,2.244,8.36,6.864,0,2.684-.924,4.708-2.684,5.9a11.168,11.168,0,0,1-6.072,1.364Zm41.36,4.048a13.97,13.97,0,0,0-.7-4.84,8.493,8.493,0,0,0-8.4-5.588c-6.2,0-10.428,4.884-10.428,12.012,0,6.732,4.312,11.4,10.6,11.4,4.312,0,7.3-1.892,9.284-5.94l-1.012-.572c-1.76,3.344-4.136,4.972-7.26,4.972-3.168,0-5.324-1.584-6.6-4.84a17.594,17.594,0,0,1-1.012-6.6ZM217.8-15.048a12.334,12.334,0,0,1,1.188-4.708c1.188-2.244,2.948-3.432,5.06-3.432,2.068,0,3.564,1.1,4.532,3.256a11.608,11.608,0,0,1,.836,4.884ZM236.1-1.364a13.359,13.359,0,0,1,1.98-.176,11.51,11.51,0,0,1,1.628.132,22.566,22.566,0,0,0,4.4.528c4.136,0,6.82-2.6,6.82-6.644a6.1,6.1,0,0,0-1.452-4.18c-1.012-1.1-2.112-1.76-5.06-2.992a21.157,21.157,0,0,1-4.576-2.288,2.768,2.768,0,0,1-1.188-2.376c0-2.376,1.76-3.916,4.488-3.916,3.212,0,5.148,2.332,5.236,6.248h1.452l.22-6.952a8.968,8.968,0,0,1-2.112.308,8.061,8.061,0,0,1-.924-.088,19.318,19.318,0,0,0-4.092-.528,6.8,6.8,0,0,0-5.456,2.508,6.992,6.992,0,0,0-1.188,4.048c0,2.992,1.452,4.576,6.2,6.644,4,1.76,4.136,1.8,4.928,2.464a3.408,3.408,0,0,1,1.056,2.552c0,2.6-1.8,4.136-4.8,4.136a5.614,5.614,0,0,1-4.8-2.376c-.748-.968-1.056-2.024-1.232-4.092H236.28Zm40.788-.088V-2.42h-.308c-2.288,0-2.684-.792-2.684-5.192v-8.316c0-1.98.088-4.884.22-8.184l-6.82.44v.968h.792a2.222,2.222,0,0,1,1.5.44c.528.4.66,1.232.66,3.564v6.776c0,2.728-.132,3.7-.792,5.192-1.144,2.684-3.3,4.268-5.72,4.268a3.417,3.417,0,0,1-3.564-2.464c-.528-1.54-.616-2.728-.616-7.172v-3.828c0-3.036.044-4.092.264-8.184l-6.82.44v.968h.792c.836.044,1.232.132,1.5.4.484.4.66,1.32.66,3.608v7.26c0,3.828.176,5.632.616,6.82a5.869,5.869,0,0,0,5.852,3.7,8.96,8.96,0,0,0,7.832-4.752,35.89,35.89,0,0,0,.22,4.532Zm1.54,0h9.944V-2.42c-2.948-.088-3.168-.44-3.168-4.532V-24.9c0-2.332.088-5.852.264-8.8l-7.04.352v.968c1.5.044,2.156.132,2.464.4.484.4.66,1.452.66,3.608V-6.952c0,4.092-.22,4.444-3.124,4.532Zm18.26-21.032h5.28v-1.188h-5.28c0-2.9.044-4.576.132-6.468l-2.024.572c-.66,4.136-1.98,5.852-4.576,6.072v1.012H293V-8.228c0,3.256.132,4.224.616,5.1.748,1.408,2.376,2.156,4.532,2.156a9.361,9.361,0,0,0,4.444-1.1l-.4-1.144a5.132,5.132,0,0,1-2.772.792,2.449,2.449,0,0,1-2.156-.924c-.44-.616-.572-1.76-.572-4.356ZM304.3-1.364a13.359,13.359,0,0,1,1.98-.176,11.51,11.51,0,0,1,1.628.132,22.566,22.566,0,0,0,4.4.528c4.136,0,6.82-2.6,6.82-6.644a6.1,6.1,0,0,0-1.452-4.18c-1.012-1.1-2.112-1.76-5.06-2.992a21.156,21.156,0,0,1-4.576-2.288,2.768,2.768,0,0,1-1.188-2.376c0-2.376,1.76-3.916,4.488-3.916,3.212,0,5.148,2.332,5.236,6.248h1.452l.22-6.952a8.968,8.968,0,0,1-2.112.308,8.062,8.062,0,0,1-.924-.088,19.318,19.318,0,0,0-4.092-.528,6.8,6.8,0,0,0-5.456,2.508,6.991,6.991,0,0,0-1.188,4.048c0,2.992,1.452,4.576,6.2,6.644,4,1.76,4.136,1.8,4.928,2.464a3.409,3.409,0,0,1,1.056,2.552c0,2.6-1.8,4.136-4.8,4.136a5.614,5.614,0,0,1-4.8-2.376c-.748-.968-1.056-2.024-1.232-4.092H304.48Zm30.976-.088h11.792a29.653,29.653,0,0,0,7.436-.792c3.96-1.276,5.9-3.784,5.9-7.832a7.41,7.41,0,0,0-4.4-7.172,11.012,11.012,0,0,0-5.06-1.188v-.308c5.544-.7,8.228-3.036,8.228-7.216a6.225,6.225,0,0,0-3.784-6.116,21.1,21.1,0,0,0-8.1-1.276H335.28V-32.3c2.024,0,2.816.352,3.124,1.276.132.4.132.44.22,3.256V-7.04c-.088,3.3-.088,3.344-.572,3.872-.4.44-1.276.66-2.772.66Zm7.26-17.776v-12.8h4.048c5.676,0,8.4,2.024,8.4,6.248,0,4.312-2.728,6.556-8.008,6.556Zm0,16.456v-15h4.268a13.765,13.765,0,0,1,5.852,1.056c2.112,1.144,3.256,3.3,3.256,6.292,0,2.6-.792,4.708-2.2,5.852-1.408,1.232-3.7,1.8-6.908,1.8Zm20.548-20.9v.968c2.508,0,3.036.66,3.036,3.96V-6.952c0,4.092-.264,4.444-3.212,4.532v.968h10.076V-2.42c-2.948-.088-3.168-.4-3.168-4.532V-13.86a11.448,11.448,0,0,1,1.188-5.588c.924-1.672,2.156-2.64,3.3-2.64.7,0,.968.264,1.232,1.232.264.836.66,1.1,1.628,1.1,1.408,0,2.332-.7,2.332-1.8,0-1.54-1.452-2.728-3.344-2.728-2.6,0-4.972,1.892-6.424,5.236V-20.46c0-.924-.044-1.5-.132-3.7Zm16.632,0v.968c1.54,0,2.244.088,2.6.4.484.4.66,1.408.66,3.608V-6.952c0,4.092-.22,4.444-3.256,4.532v.968h10.032V-2.42c-2.948-.088-3.168-.44-3.168-4.532v-8.976c0-1.848.132-5.676.264-8.228Zm2.42-7.348a2.479,2.479,0,0,0,2.508,2.508,2.47,2.47,0,0,0,2.464-2.508,2.46,2.46,0,0,0-2.464-2.464A2.47,2.47,0,0,0,382.14-31.02Zm29.436,17.16a13.97,13.97,0,0,0-.7-4.84,8.493,8.493,0,0,0-8.4-5.588c-6.2,0-10.428,4.884-10.428,12.012,0,6.732,4.312,11.4,10.6,11.4,4.312,0,7.3-1.892,9.284-5.94l-1.012-.572c-1.76,3.344-4.136,4.972-7.26,4.972-3.168,0-5.324-1.584-6.6-4.84a17.594,17.594,0,0,1-1.012-6.6Zm-15.444-1.188a12.334,12.334,0,0,1,1.188-4.708c1.188-2.244,2.948-3.432,5.06-3.432,2.068,0,3.564,1.1,4.532,3.256a11.609,11.609,0,0,1,.836,4.884Zm24.288-7.436h5.764c1.672,0,2.42.176,2.728.616.308.4.484,1.54.484,3.432V-6.952c0,4.136-.22,4.444-3.256,4.532v.968h10.076V-2.42c-2.992-.088-3.212-.4-3.212-4.532v-9.02c0-1.892.088-5.412.264-8.184a49.14,49.14,0,0,1-7.128.484h-5.72v-1.012a14.045,14.045,0,0,1,1.056-5.764,4.255,4.255,0,0,1,4.048-2.42c1.584,0,2.948.66,2.948,1.5v.044c-.132,1.1-.22,1.628-.22,1.628a2.2,2.2,0,0,0,2.42,2.156,2.453,2.453,0,0,0,2.508-2.508c0-2.376-2.508-3.74-7-3.74-3.608,0-6.16.924-7.568,2.728a10.42,10.42,0,0,0-1.8,6.248v1.144h-3.388v1.188h3.388V-6.952c0,4.092-.22,4.444-3.168,4.532v.968H423.9V-2.42c-3.212-.088-3.476-.44-3.476-4.532Zm23.98-1.672-6.644.484v.968c2.508,0,3.036.66,3.036,3.96V-6.952c0,4.092-.264,4.444-3.212,4.532v.968h10.032V-2.42c-2.992-.088-3.212-.4-3.212-4.532v-7.612a10.7,10.7,0,0,1,1.5-5.368,5.623,5.623,0,0,1,4.972-2.948,3.922,3.922,0,0,1,3.872,2.332,11.562,11.562,0,0,1,.7,4.752v8.844c0,.308-.088,1.936-.132,2.42a2.365,2.365,0,0,1-.44,1.452c-.352.44-1.144.616-2.6.66v.968h9.988V-2.42c-2.992-.088-3.212-.4-3.212-4.532V-16.06c0-2.684-.308-4.224-1.144-5.5-1.188-1.892-2.992-2.728-5.764-2.728-3.652,0-5.808,1.276-7.744,4.664Zm39.82,1.98v-1.672c-2.376.088-3.7.132-4.8.132a14.1,14.1,0,0,1-2.772-.264,15.6,15.6,0,0,0-2.948-.308,10.607,10.607,0,0,0-5.412,1.32A7.768,7.768,0,0,0,464.86-16.1a7.231,7.231,0,0,0,1.408,4.532,8.515,8.515,0,0,0,2.2,1.892l-1.716,1.144c-1.716,1.188-2.112,1.76-2.112,2.992,0,1.76.88,2.992,2.772,3.872-2.728,1.76-3.08,2.2-3.08,4.048a4.387,4.387,0,0,0,2.376,4.268,13.982,13.982,0,0,0,6.82,1.364,15.273,15.273,0,0,0,7.788-1.672,6.467,6.467,0,0,0,3.3-5.456,4.563,4.563,0,0,0-3.652-4.752,22.779,22.779,0,0,0-5.632-.44h-3.08c-3.7,0-4.84-.528-4.84-2.2,0-1.012.66-1.76,2.288-2.64a14.51,14.51,0,0,0,3.872.528c5.28,0,8.712-2.992,8.712-7.656a8,8,0,0,0-2.508-5.9Zm-15.664,5.544c0-4.4,1.716-6.644,5.016-6.644,3.256,0,4.928,2.376,4.928,7,0,4.356-1.716,6.688-4.928,6.688a4.466,4.466,0,0,1-4-2.112A10.527,10.527,0,0,1,468.556-16.632Zm.484,15.268c.044-.044,2.684-.088,4.224-.088a39.032,39.032,0,0,1,5.016.176c2.376.4,3.388,1.364,3.388,3.212,0,3.08-2.9,5.016-7.612,5.016-4.488,0-6.82-1.716-6.82-4.972C467.236.132,467.808-.924,469.04-1.364Zm36.74-21.12h5.852v-1.188H505.78c0-.7-.044-1.276-.044-1.716-.044-2.112-.044-2.552-.044-3.212,0-2.86.88-4.268,2.6-4.268,1.276,0,1.848.528,2.068,1.892.22,1.188.22,1.188.484,1.452a2.386,2.386,0,0,0,1.452.4c1.32,0,2.156-.528,2.156-1.408,0-1.848-2.42-3.256-5.544-3.256a7.783,7.783,0,0,0-5.192,1.76,5.134,5.134,0,0,0-1.628,4.268c0,.792.044,2.376.088,4.092h-3.388v1.188h3.388V-6.952c0,4.092-.22,4.444-3.168,4.532v.968h10.252V-2.42c-3.212-.088-3.476-.44-3.476-4.532Zm6.864,10.252c0,6.82,4.224,11.352,10.6,11.352,6.688,0,10.912-4.62,10.912-11.968,0-6.908-4.224-11.44-10.648-11.44a10.629,10.629,0,0,0-7.656,2.948A13.173,13.173,0,0,0,512.644-12.232Zm4.092-.572c0-6.732,2.332-10.472,6.556-10.472,4.312,0,6.776,3.96,6.776,10.824,0,6.776-2.376,10.516-6.688,10.516C519.156-1.936,516.736-5.9,516.736-12.8Zm19.8-10.868v.968c2.508,0,3.036.66,3.036,3.96V-6.952c0,4.092-.264,4.444-3.212,4.532v.968h10.076V-2.42c-2.948-.088-3.168-.4-3.168-4.532V-13.86a11.448,11.448,0,0,1,1.188-5.588c.924-1.672,2.156-2.64,3.3-2.64.7,0,.968.264,1.232,1.232.264.836.66,1.1,1.628,1.1,1.408,0,2.332-.7,2.332-1.8,0-1.54-1.452-2.728-3.344-2.728-2.6,0-4.972,1.892-6.424,5.236V-20.46c0-.924-.044-1.5-.132-3.7ZM573.98-17.16h4.708c4.8,0,5.544.572,6.16,4.532h1.232v-10.3h-1.232c-.484,3.828-1.32,4.444-6.16,4.444H573.98V-32.032h5.72c5.9,0,7.48,1.232,8.492,6.6l1.408-.088-.528-7.832H566.72V-32.3c2.024,0,2.816.352,3.124,1.276.132.4.132.44.22,3.256V-7.04c0,4.048-.264,4.4-3.344,4.488v1.1h11v-1.1c-3.476-.088-3.74-.44-3.74-4.488Zm33.484.352,7.392-10.824c2.288-3.344,3.74-4.444,6.072-4.664v-1.056H610.72V-32.3c2.6.132,3.52.572,3.52,1.628a7.51,7.51,0,0,1-1.5,3.388L606.452-18l-6.424-9.812c-1.188-1.8-1.452-2.332-1.452-2.992,0-.968.836-1.408,2.948-1.5v-1.056h-11.4V-32.3c1.98.176,2.9.924,4.928,3.916L603.5-15.84v8.8c0,4.048-.308,4.4-3.828,4.488v1.1h11.616v-1.1c-3.52-.088-3.828-.4-3.828-4.488ZM642.312-1.452,643.5-9.108l-1.32-.308c-.88,3.7-1.98,4.664-5.148,4.664H624.316a12.508,12.508,0,0,1,3.608-5.588c1.936-1.892,3.124-2.772,8.624-6.16,4.884-2.992,6.512-5.236,6.512-8.888a7.108,7.108,0,0,0-1.408-4.664c-1.672-2.112-4.752-3.3-8.448-3.3-5.9,0-10.3,3.388-10.3,7.92,0,1.276.616,1.8,2.244,1.8,1.54,0,2.024-.4,2.112-1.892a11.807,11.807,0,0,1,.44-3.212,5.108,5.108,0,0,1,5.236-3.432c3.564,0,5.984,2.508,5.984,6.2a7.251,7.251,0,0,1-.968,3.7,13.73,13.73,0,0,1-3.344,3.432c-5.632,4.576-7.48,6.336-9.2,8.8a18.168,18.168,0,0,0-3.256,8.58Zm4.092-15.62a24.617,24.617,0,0,0,2.508,11.4,9.437,9.437,0,0,0,8.536,4.884,9.335,9.335,0,0,0,8.492-4.884,24.488,24.488,0,0,0,2.508-11.4,24.361,24.361,0,0,0-2.508-11.4,9.335,9.335,0,0,0-8.492-4.884,9.355,9.355,0,0,0-8.536,4.884A24.617,24.617,0,0,0,646.4-17.072Zm4.268.044c0-10.516,2.068-15.18,6.776-15.18s6.776,4.62,6.776,15.136-2.068,15.136-6.776,15.136S650.672-6.556,650.672-17.028ZM691.416-1.452,692.6-9.108l-1.32-.308c-.88,3.7-1.98,4.664-5.148,4.664H673.42a12.508,12.508,0,0,1,3.608-5.588c1.936-1.892,3.124-2.772,8.624-6.16,4.884-2.992,6.512-5.236,6.512-8.888a7.108,7.108,0,0,0-1.408-4.664c-1.672-2.112-4.752-3.3-8.448-3.3-5.9,0-10.3,3.388-10.3,7.92,0,1.276.616,1.8,2.244,1.8,1.54,0,2.024-.4,2.112-1.892a11.807,11.807,0,0,1,.44-3.212,5.108,5.108,0,0,1,5.236-3.432c3.564,0,5.984,2.508,5.984,6.2a7.251,7.251,0,0,1-.968,3.7,13.73,13.73,0,0,1-3.344,3.432c-5.632,4.576-7.48,6.336-9.2,8.8a18.168,18.168,0,0,0-3.256,8.58Zm9.108,0h12.012V-2.728c-2.508-.132-2.684-.176-3.212-.616-.616-.528-.792-1.408-.792-4.356V-20.768c0-5.192.132-8.932.352-12.408a50.476,50.476,0,0,1-8.36,1.144v1.276H702.2c1.1,0,1.628.088,1.98.4s.352.308.44,4.136V-7.7c0,3.168-.22,4.092-1.188,4.532a7.893,7.893,0,0,1-2.9.44Z" transform="translate(410 507)" fill="#fff"/>
    <path id="パス_36842" data-name="パス 36842" d="M1.914-1.023a12.175,12.175,0,0,1,2.277-.33,6.665,6.665,0,0,1,1.089.1A19.506,19.506,0,0,0,9.7-.693a7.867,7.867,0,0,0,5.379-1.815A5.528,5.528,0,0,0,16.962-7a6.259,6.259,0,0,0-.924-3.63c-.924-1.452-2.475-2.541-6.6-4.488-3.927-1.848-4.983-2.937-4.983-5.115A4.692,4.692,0,0,1,5.412-23.1a4.294,4.294,0,0,1,3.5-1.386,5.262,5.262,0,0,1,4.752,2.343,7.516,7.516,0,0,1,.924,3.465h1.089l.2-6.5a6.06,6.06,0,0,1-1.98.5,6.6,6.6,0,0,1-1.221-.165,13.536,13.536,0,0,0-3.894-.561,6.758,6.758,0,0,0-4.719,1.584A6.165,6.165,0,0,0,1.98-19.041a5.468,5.468,0,0,0,1.452,3.894c.924.99,1.947,1.617,4.752,2.97C13.1-9.8,14.322-8.547,14.322-5.94c0,2.706-1.782,4.29-4.785,4.29a6.317,6.317,0,0,1-4.95-1.881C3.7-4.587,3.366-5.643,3.234-7.689H2.145ZM19.14-9.174c0,5.115,3.168,8.514,7.953,8.514,5.016,0,8.184-3.465,8.184-8.976,0-5.181-3.168-8.58-7.986-8.58a7.972,7.972,0,0,0-5.742,2.211A9.88,9.88,0,0,0,19.14-9.174ZM22.209-9.6c0-5.049,1.749-7.854,4.917-7.854,3.234,0,5.082,2.97,5.082,8.118,0,5.082-1.782,7.887-5.016,7.887C24.024-1.452,22.209-4.422,22.209-9.6Zm19.866-7.26h4.389v-.891H42.075c0-.528-.033-.957-.033-1.287-.033-1.584-.033-1.914-.033-2.409,0-2.145.66-3.2,1.947-3.2.957,0,1.386.4,1.551,1.419.165.891.165.891.363,1.089a1.79,1.79,0,0,0,1.089.3c.99,0,1.617-.4,1.617-1.056,0-1.386-1.815-2.442-4.158-2.442a5.837,5.837,0,0,0-3.894,1.32,3.85,3.85,0,0,0-1.221,3.2c0,.594.033,1.782.066,3.069H36.828v.891h2.541V-5.214c0,3.069-.165,3.333-2.376,3.4v.726h7.689v-.726c-2.409-.066-2.607-.33-2.607-3.4Zm9.735,0h3.96v-.891H51.81c0-2.178.033-3.432.1-4.851l-1.518.429c-.5,3.1-1.485,4.389-3.432,4.554v.759h2.079V-6.171c0,2.442.1,3.168.462,3.828A3.591,3.591,0,0,0,52.9-.726a7.021,7.021,0,0,0,3.333-.825l-.3-.858a3.849,3.849,0,0,1-2.079.594,1.837,1.837,0,0,1-1.617-.693c-.33-.462-.429-1.32-.429-3.267ZM57.057-1.089H65.9a22.24,22.24,0,0,0,5.577-.594C74.448-2.64,75.9-4.521,75.9-7.557a5.557,5.557,0,0,0-3.3-5.379,8.259,8.259,0,0,0-3.8-.891v-.231c4.158-.528,6.171-2.277,6.171-5.412a4.668,4.668,0,0,0-2.838-4.587,15.824,15.824,0,0,0-6.072-.957H57.057v.792c1.518,0,2.112.264,2.343.957a8.965,8.965,0,0,1,.165,2.442V-5.28c-.066,2.475-.066,2.508-.429,2.9-.3.33-.957.5-2.079.5ZM62.5-14.421v-9.6h3.036c4.257,0,6.3,1.518,6.3,4.686,0,3.234-2.046,4.917-6.006,4.917Zm0,12.342V-13.332h3.2a10.324,10.324,0,0,1,4.389.792,4.968,4.968,0,0,1,2.442,4.719,5.548,5.548,0,0,1-1.65,4.389c-1.056.924-2.772,1.353-5.181,1.353Zm31.119.231c-1.254,0-1.65-.1-1.848-.363a7.475,7.475,0,0,1-.363-2.838l.033-1.518L91.476-9.7c.066-3.234.066-3.234.066-3.333a5.62,5.62,0,0,0-.957-3.729c-.792-.957-2.31-1.452-4.422-1.452a9.919,9.919,0,0,0-4.818,1.056A3.922,3.922,0,0,0,79.1-13.992c0,.693.5.99,1.617.99a2.131,2.131,0,0,0,1.155-.264c.264-.2.33-.429.363-1.122.132-2.046,1.254-3.036,3.432-3.036a2.745,2.745,0,0,1,2.706,1.287,6.661,6.661,0,0,1,.462,3v2.079a36.231,36.231,0,0,0-5.874.792c-3.2.726-4.851,2.409-4.851,5.016a4.741,4.741,0,0,0,1.452,3.5A5.006,5.006,0,0,0,82.929-.726a6.53,6.53,0,0,0,4.29-1.419,8.317,8.317,0,0,0,1.617-1.419c.132,2.211.4,2.739,1.386,2.739a27.94,27.94,0,0,0,3.4-.33Zm-4.785-6.9a9.272,9.272,0,0,1-.759,4.488,5.065,5.065,0,0,1-4.224,2.409c-1.65,0-2.772-1.419-2.772-3.5a3.884,3.884,0,0,1,2.211-3.762c1.32-.66,2.607-.924,5.544-1.188Zm10.989-9.372-4.983.363v.726c1.881,0,2.277.5,2.277,2.97v8.844c0,3.069-.2,3.333-2.409,3.4v.726h7.524v-.726c-2.244-.066-2.409-.3-2.409-3.4v-5.709a8.022,8.022,0,0,1,1.122-4.026,4.217,4.217,0,0,1,3.729-2.211,2.941,2.941,0,0,1,2.9,1.749,8.671,8.671,0,0,1,.528,3.564v6.633c0,.231-.066,1.452-.1,1.815a1.774,1.774,0,0,1-.33,1.089c-.264.33-.858.462-1.947.495v.726h7.491v-.726c-2.244-.066-2.409-.3-2.409-3.4v-6.831a7.116,7.116,0,0,0-.858-4.125c-.891-1.419-2.244-2.046-4.323-2.046-2.739,0-4.356.957-5.808,3.5ZM118.9-6.864l2.574-2.871,3.366,5.478c.33.594,1.386,2.475,1.716,3.168h4.488v-.726c-1.452-.231-2.013-.66-3.135-2.442l-4.62-7.26L125-13.365c1.98-2.145,2.112-2.244,3.234-2.937a4.747,4.747,0,0,1,2.211-.726v-.726h-7.293v.726c1.452.066,2.079.4,2.079,1.089a3.627,3.627,0,0,1-1.155,2.046L118.9-8.217V-18.678c0-1.716.066-4.389.2-6.6l-5.181.264v.726c2.211.033,2.343.2,2.343,3V-5.214c0,3.069-.165,3.333-2.343,3.4v.726h7.359v-.726c-2.211-.066-2.376-.33-2.376-3.4Zm37.422-5.148v.792c2.574.132,2.8.4,2.8,3.2v4.95a10.751,10.751,0,0,1-5.61,1.518,6.616,6.616,0,0,1-6.1-3.63,16.48,16.48,0,0,1-1.782-8.019,16.154,16.154,0,0,1,1.683-7.821,6.911,6.911,0,0,1,6.468-3.564,6.231,6.231,0,0,1,5.247,2.211,9.256,9.256,0,0,1,1.452,4.125H161.5v-6.93a4.181,4.181,0,0,1-1.98.5,8.2,8.2,0,0,1-1.683-.231,16.21,16.21,0,0,0-4.356-.561c-6.732,0-11.154,5.082-11.154,12.8,0,7.491,4.092,12.012,10.89,12.012a20.856,20.856,0,0,0,4.917-.66,23.4,23.4,0,0,1,3.927-.759c-.066-1.089-.1-1.815-.1-3.5V-8.019c0-2.9.132-3.069,2.409-3.2v-.792Zm9.306-5.742v.726c1.881,0,2.277.5,2.277,2.97v8.844c0,3.069-.2,3.333-2.409,3.4v.726h7.557v-.726c-2.211-.066-2.376-.3-2.376-3.4V-10.4a8.586,8.586,0,0,1,.891-4.191,3.232,3.232,0,0,1,2.475-1.98c.528,0,.726.2.924.924.2.627.495.825,1.221.825,1.056,0,1.749-.528,1.749-1.353a2.275,2.275,0,0,0-2.508-2.046c-1.947,0-3.729,1.419-4.818,3.927v-1.056c0-.693-.033-1.122-.1-2.772Zm12.9,8.58c0,5.115,3.168,8.514,7.953,8.514,5.016,0,8.184-3.465,8.184-8.976,0-5.181-3.168-8.58-7.986-8.58a7.972,7.972,0,0,0-5.742,2.211A9.88,9.88,0,0,0,178.53-9.174ZM181.6-9.6c0-5.049,1.749-7.854,4.917-7.854,3.234,0,5.082,2.97,5.082,8.118,0,5.082-1.782,7.887-5.016,7.887C183.414-1.452,181.6-4.422,181.6-9.6Zm32.274,8.514v-.726h-.231c-1.716,0-2.013-.594-2.013-3.894v-6.237c0-1.485.066-3.663.165-6.138l-5.115.33v.726h.594a1.667,1.667,0,0,1,1.122.33c.4.3.495.924.495,2.673v5.082a8.141,8.141,0,0,1-.594,3.894,4.766,4.766,0,0,1-4.29,3.2A2.563,2.563,0,0,1,201.333-3.7c-.4-1.155-.462-2.046-.462-5.379v-2.871c0-2.277.033-3.069.2-6.138l-5.115.33v.726h.594c.627.033.924.1,1.122.3.363.3.495.99.495,2.706V-8.58c0,2.871.132,4.224.462,5.115a4.4,4.4,0,0,0,4.389,2.772,6.72,6.72,0,0,0,5.874-3.564,26.916,26.916,0,0,0,.165,3.4Zm5.676-17.028-4.95.363v.726c1.881,0,2.277.5,2.277,2.97V1.881c0,3.069-.165,3.3-2.409,3.366v.759h7.623V5.247c-2.376-.1-2.541-.3-2.541-3.366V-2.937c1.815,1.65,2.937,2.145,4.884,2.145a6.647,6.647,0,0,0,5.445-2.541A11.35,11.35,0,0,0,231.726-9.9c0-5.181-2.541-8.316-6.765-8.316a6.121,6.121,0,0,0-5.412,2.937Zm-.132,8.745a11.014,11.014,0,0,1,1.287-5.775,4.432,4.432,0,0,1,3.762-2.145c2.805,0,4.191,2.541,4.191,7.755s-1.485,7.854-4.488,7.854C221.034-1.683,219.417-4.257,219.417-9.372Zm44.352-8.085v-7.194a4.419,4.419,0,0,1-1.716.462,7.253,7.253,0,0,1-2.442-.561,14.176,14.176,0,0,0-4.191-.726,10.581,10.581,0,0,0-6.237,2.013c-2.97,2.178-4.653,6.1-4.653,10.725a12.645,12.645,0,0,0,3.1,8.877,10.239,10.239,0,0,0,7.59,3.234,10.1,10.1,0,0,0,7.095-2.508,11.3,11.3,0,0,0,2.706-4.356l-.957-.429a8.264,8.264,0,0,1-7.92,5.973c-4.983,0-8.283-4.521-8.283-11.418a15.339,15.339,0,0,1,1.914-8.019,6.73,6.73,0,0,1,5.775-3.2,7.072,7.072,0,0,1,5.511,2.673,8.883,8.883,0,0,1,1.65,4.455Zm2.607,8.283c0,5.115,3.168,8.514,7.953,8.514,5.016,0,8.184-3.465,8.184-8.976,0-5.181-3.168-8.58-7.986-8.58a7.972,7.972,0,0,0-5.742,2.211A9.88,9.88,0,0,0,266.376-9.174Zm3.069-.429c0-5.049,1.749-7.854,4.917-7.854,3.234,0,5.082,2.97,5.082,8.118,0,5.082-1.782,7.887-5.016,7.887C271.26-1.452,269.445-4.422,269.445-9.6Zm14.85-8.151v.726c1.881,0,2.277.5,2.277,2.97v8.844c0,3.069-.2,3.333-2.409,3.4v.726h7.557v-.726c-2.211-.066-2.376-.3-2.376-3.4V-10.4a8.585,8.585,0,0,1,.891-4.191,3.232,3.232,0,0,1,2.475-1.98c.528,0,.726.2.924.924.2.627.495.825,1.221.825,1.056,0,1.749-.528,1.749-1.353a2.275,2.275,0,0,0-2.508-2.046c-1.947,0-3.729,1.419-4.818,3.927v-1.056c0-.693-.033-1.122-.1-2.772Zm17.094-.363-4.95.363v.726c1.881,0,2.277.5,2.277,2.97V1.881c0,3.069-.165,3.3-2.409,3.366v.759h7.623V5.247c-2.376-.1-2.541-.3-2.541-3.366V-2.937c1.815,1.65,2.937,2.145,4.884,2.145a6.647,6.647,0,0,0,5.445-2.541A11.35,11.35,0,0,0,313.566-9.9c0-5.181-2.541-8.316-6.765-8.316a6.121,6.121,0,0,0-5.412,2.937Zm-.132,8.745a11.014,11.014,0,0,1,1.287-5.775,4.432,4.432,0,0,1,3.762-2.145c2.8,0,4.191,2.541,4.191,7.755s-1.485,7.854-4.488,7.854C302.874-1.683,301.257-4.257,301.257-9.372Zm18.282,4.059A2.264,2.264,0,0,0,317.2-3,2.291,2.291,0,0,0,319.539-.66,2.283,2.283,0,0,0,321.849-3,2.256,2.256,0,0,0,319.539-5.313Z" transform="translate(410 454)" fill="#fff"/>
  </g>
</svg>
