<svg xmlns="http://www.w3.org/2000/svg" width="571.168" height="157.54" viewBox="0 0 571.168 157.54">
  <g id="グループ_79624" data-name="グループ 79624" transform="translate(-344.56 -102.524)">
    <path id="パス_36840" data-name="パス 36840" d="M2.028-1.716H29.12l1.04-10.348-1.456-.1c-1.456,7.176-3.328,8.892-9.88,8.892H10.608V-20.488h5.356c3.068,0,5.1.416,5.876,1.2.728.78,1.092,1.768,1.456,4.16h1.456v-12.22H23.3c-.572,4.576-1.56,5.3-7.332,5.3H10.608V-37.856h7.176c6.656,0,8.58,1.56,9.828,7.852l1.508-.1-.832-9.308H2.028v1.248c2.392,0,3.328.416,3.692,1.508.156.468.156.52.26,3.848V-8.32c-.1,3.9-.1,3.952-.676,4.576-.468.52-1.508.78-3.276.78Zm56-1.2c-1.976,0-2.6-.156-2.912-.572a11.778,11.778,0,0,1-.572-4.472l.052-2.392.052-4.94c.1-5.1.1-5.1.1-5.252,0-2.86-.468-4.576-1.508-5.876C52-27.924,49.608-28.7,46.28-28.7a15.63,15.63,0,0,0-7.592,1.664c-2.184,1.248-3.536,3.12-3.536,4.992,0,1.092.78,1.56,2.548,1.56a3.358,3.358,0,0,0,1.82-.416c.416-.312.52-.676.572-1.768.208-3.224,1.976-4.784,5.408-4.784,2.132,0,3.588.676,4.264,2.028a10.5,10.5,0,0,1,.728,4.732v3.276a57.092,57.092,0,0,0-9.256,1.248c-5.044,1.144-7.644,3.8-7.644,7.9A7.471,7.471,0,0,0,35.88-2.756a7.888,7.888,0,0,0,5.3,1.612,10.289,10.289,0,0,0,6.76-2.236,13.105,13.105,0,0,0,2.548-2.236C50.7-2.132,51.116-1.3,52.676-1.3a44.027,44.027,0,0,0,5.356-.52ZM50.492-13.78c0,3.432-.364,5.616-1.2,7.072a7.982,7.982,0,0,1-6.656,3.8c-2.6,0-4.368-2.236-4.368-5.512a6.121,6.121,0,0,1,3.484-5.928c2.08-1.04,4.108-1.456,8.736-1.872Zm9.568-14.2v1.144c2.964,0,3.588.78,3.588,4.68V-8.216c0,4.836-.312,5.252-3.8,5.356v1.144H71.76V-2.86c-3.484-.1-3.744-.468-3.744-5.356V-16.38a13.529,13.529,0,0,1,1.4-6.6c1.092-1.976,2.548-3.12,3.9-3.12.832,0,1.144.312,1.456,1.456.312.988.78,1.3,1.924,1.3,1.664,0,2.756-.832,2.756-2.132,0-1.82-1.716-3.224-3.952-3.224-3.068,0-5.876,2.236-7.592,6.188V-24.18c0-1.092-.052-1.768-.156-4.368Zm27.56-.572-7.852.572v1.144c2.964,0,3.588.78,3.588,4.68V-8.216c0,4.836-.312,5.252-3.8,5.356v1.144H91.416V-2.86c-3.536-.1-3.8-.468-3.8-5.356v-9a12.641,12.641,0,0,1,1.768-6.344,6.645,6.645,0,0,1,5.876-3.484,4.635,4.635,0,0,1,4.576,2.756,13.664,13.664,0,0,1,.832,5.616V-8.216c0,.364-.1,2.288-.156,2.86A2.8,2.8,0,0,1,100-3.64c-.416.52-1.352.728-3.068.78v1.144h11.8V-2.86c-3.536-.1-3.8-.468-3.8-5.356V-18.98c0-3.172-.364-4.992-1.352-6.5-1.4-2.236-3.536-3.224-6.812-3.224-4.316,0-6.864,1.508-9.152,5.512Zm22.568.572v1.144c1.82,0,2.652.1,3.068.468.572.468.78,1.664.78,4.264V-8.216c0,4.836-.26,5.252-3.848,5.356v1.144h11.856V-2.86c-3.484-.1-3.744-.52-3.744-5.356V-18.824c0-2.184.156-6.708.312-9.724Zm2.86-8.684a2.93,2.93,0,0,0,2.964,2.964,2.919,2.919,0,0,0,2.912-2.964,2.907,2.907,0,0,0-2.912-2.912A2.919,2.919,0,0,0,113.048-36.66Zm18.824,8.112-7.852.572v1.144c2.964,0,3.588.78,3.588,4.68V-8.216c0,4.836-.312,5.252-3.8,5.356v1.144h11.856V-2.86c-3.536-.1-3.8-.468-3.8-5.356v-9a12.641,12.641,0,0,1,1.768-6.344,6.645,6.645,0,0,1,5.876-3.484,4.635,4.635,0,0,1,4.576,2.756,13.664,13.664,0,0,1,.832,5.616V-8.216c0,.364-.1,2.288-.156,2.86a2.8,2.8,0,0,1-.52,1.716c-.416.52-1.352.728-3.068.78v1.144h11.8V-2.86c-3.536-.1-3.8-.468-3.8-5.356V-18.98c0-3.172-.364-4.992-1.352-6.5-1.4-2.236-3.536-3.224-6.812-3.224-4.316,0-6.864,1.508-9.152,5.512Zm47.06,2.34v-1.976c-2.808.1-4.368.156-5.668.156a16.663,16.663,0,0,1-3.276-.312A18.441,18.441,0,0,0,166.5-28.7a12.536,12.536,0,0,0-6.4,1.56c-2.548,1.508-4.056,4.576-4.056,8.112a8.546,8.546,0,0,0,1.664,5.356,10.063,10.063,0,0,0,2.6,2.236l-2.028,1.352c-2.028,1.4-2.5,2.08-2.5,3.536,0,2.08,1.04,3.536,3.276,4.576-3.224,2.08-3.64,2.6-3.64,4.784a5.185,5.185,0,0,0,2.808,5.044c1.976,1.092,4.576,1.612,8.06,1.612,3.9,0,6.864-.624,9.2-1.976a7.643,7.643,0,0,0,3.9-6.448,5.393,5.393,0,0,0-4.316-5.616,26.921,26.921,0,0,0-6.656-.52h-3.64c-4.368,0-5.72-.624-5.72-2.6,0-1.2.78-2.08,2.7-3.12a17.149,17.149,0,0,0,4.576.624c6.24,0,10.3-3.536,10.3-9.048a9.448,9.448,0,0,0-2.964-6.968ZM160.42-19.656c0-5.2,2.028-7.852,5.928-7.852,3.848,0,5.824,2.808,5.824,8.268,0,5.148-2.028,7.9-5.824,7.9a5.278,5.278,0,0,1-4.732-2.5A12.441,12.441,0,0,1,160.42-19.656Zm.572,18.044c.052-.052,3.172-.1,4.992-.1a46.129,46.129,0,0,1,5.928.208c2.808.468,4,1.612,4,3.8,0,3.64-3.432,5.928-9,5.928-5.3,0-8.06-2.028-8.06-5.876C158.86.156,159.536-1.092,160.992-1.612Zm20.592,0a15.787,15.787,0,0,1,2.34-.208,13.6,13.6,0,0,1,1.924.156,26.669,26.669,0,0,0,5.2.624c4.888,0,8.06-3.068,8.06-7.852a7.208,7.208,0,0,0-1.716-4.94c-1.2-1.3-2.5-2.08-5.98-3.536-3.432-1.456-4.42-1.976-5.408-2.7a3.271,3.271,0,0,1-1.4-2.808c0-2.808,2.08-4.628,5.3-4.628,3.8,0,6.084,2.756,6.188,7.384h1.716l.26-8.216a10.6,10.6,0,0,1-2.5.364,9.526,9.526,0,0,1-1.092-.1,22.831,22.831,0,0,0-4.836-.624A8.035,8.035,0,0,0,183.2-25.74a8.263,8.263,0,0,0-1.4,4.784c0,3.536,1.716,5.408,7.332,7.852,4.732,2.08,4.888,2.132,5.824,2.912A4.028,4.028,0,0,1,196.2-7.176c0,3.068-2.132,4.888-5.668,4.888A6.635,6.635,0,0,1,184.86-5.1c-.884-1.144-1.248-2.392-1.456-4.836h-1.612ZM226.772-19.6h3.172a10.581,10.581,0,0,1,3.692.624c1.56.52,2.548,1.56,3.8,3.8A101.7,101.7,0,0,1,243.1-1.716h8.112V-2.86a3.961,3.961,0,0,1-2.756-.988c-1.04-.884-1.456-1.612-4-7.384-1.716-3.848-2.7-5.408-4.316-6.812a8.765,8.765,0,0,0-4.16-1.872v-.468c3.9-.416,7.176-1.82,8.736-3.848a10.091,10.091,0,0,0,1.768-5.876c0-6.344-4.42-9.308-13.936-9.308h-14.4v1.248c3.744.156,4,.52,4,5.356V-8.32c0,4.784-.312,5.2-4,5.3v1.3h12.688v-1.3c-3.744-.1-4.056-.52-4.056-5.3Zm0-1.56V-37.856h4.784c6.656,0,9.88,2.652,9.88,8.112,0,3.172-1.092,5.564-3.172,6.968-1.508,1.04-4.056,1.612-7.176,1.612Zm48.88,4.784a16.511,16.511,0,0,0-.832-5.72,10.038,10.038,0,0,0-9.932-6.6c-7.332,0-12.324,5.772-12.324,14.2,0,7.956,5.1,13.468,12.532,13.468,5.1,0,8.632-2.236,10.972-7.02l-1.2-.676c-2.08,3.952-4.888,5.876-8.58,5.876-3.744,0-6.292-1.872-7.8-5.72a20.793,20.793,0,0,1-1.2-7.8Zm-18.252-1.4a14.577,14.577,0,0,1,1.4-5.564c1.4-2.652,3.484-4.056,5.98-4.056,2.444,0,4.212,1.3,5.356,3.848a13.719,13.719,0,0,1,.988,5.772ZM279.032-1.612a15.787,15.787,0,0,1,2.34-.208,13.6,13.6,0,0,1,1.924.156,26.669,26.669,0,0,0,5.2.624c4.888,0,8.06-3.068,8.06-7.852a7.208,7.208,0,0,0-1.716-4.94c-1.2-1.3-2.5-2.08-5.98-3.536-3.432-1.456-4.42-1.976-5.408-2.7a3.271,3.271,0,0,1-1.4-2.808c0-2.808,2.08-4.628,5.3-4.628,3.8,0,6.084,2.756,6.188,7.384h1.716l.26-8.216a10.6,10.6,0,0,1-2.5.364,9.526,9.526,0,0,1-1.092-.1,22.831,22.831,0,0,0-4.836-.624,8.035,8.035,0,0,0-6.448,2.964,8.263,8.263,0,0,0-1.4,4.784c0,3.536,1.716,5.408,7.332,7.852,4.732,2.08,4.888,2.132,5.824,2.912a4.028,4.028,0,0,1,1.248,3.016c0,3.068-2.132,4.888-5.668,4.888A6.635,6.635,0,0,1,282.308-5.1c-.884-1.144-1.248-2.392-1.456-4.836H279.24Zm48.2-.1V-2.86h-.364c-2.7,0-3.172-.936-3.172-6.136v-9.828c0-2.34.1-5.772.26-9.672l-8.06.52v1.144h.936a2.626,2.626,0,0,1,1.768.52c.624.468.78,1.456.78,4.212v8.008c0,3.224-.156,4.368-.936,6.136-1.352,3.172-3.9,5.044-6.76,5.044a4.038,4.038,0,0,1-4.212-2.912c-.624-1.82-.728-3.224-.728-8.476v-4.524c0-3.588.052-4.836.312-9.672l-8.06.52v1.144h.936c.988.052,1.456.156,1.768.468.572.468.78,1.56.78,4.264v8.58c0,4.524.208,6.656.728,8.06,1.04,2.756,3.588,4.368,6.916,4.368a10.589,10.589,0,0,0,9.256-5.616,42.412,42.412,0,0,0,.26,5.356Zm1.82,0h11.752V-2.86c-3.484-.1-3.744-.52-3.744-5.356V-29.432c0-2.756.1-6.916.312-10.4l-8.32.416v1.144c1.768.052,2.548.156,2.912.468.572.468.78,1.716.78,4.264V-8.216c0,4.836-.26,5.252-3.692,5.356Zm21.58-24.856h6.24v-1.4h-6.24c0-3.432.052-5.408.156-7.644l-2.392.676c-.78,4.888-2.34,6.916-5.408,7.176v1.2h3.276V-9.724c0,3.848.156,4.992.728,6.032.884,1.664,2.808,2.548,5.356,2.548a11.063,11.063,0,0,0,5.252-1.3L357.136-3.8a6.065,6.065,0,0,1-3.276.936,2.894,2.894,0,0,1-2.548-1.092c-.52-.728-.676-2.08-.676-5.148Zm9,24.96a15.787,15.787,0,0,1,2.34-.208,13.6,13.6,0,0,1,1.924.156,26.669,26.669,0,0,0,5.2.624c4.888,0,8.06-3.068,8.06-7.852a7.208,7.208,0,0,0-1.716-4.94c-1.2-1.3-2.5-2.08-5.98-3.536-3.432-1.456-4.42-1.976-5.408-2.7a3.271,3.271,0,0,1-1.4-2.808c0-2.808,2.08-4.628,5.3-4.628,3.8,0,6.084,2.756,6.188,7.384h1.716l.26-8.216a10.6,10.6,0,0,1-2.5.364,9.526,9.526,0,0,1-1.092-.1,22.831,22.831,0,0,0-4.836-.624,8.035,8.035,0,0,0-6.448,2.964,8.263,8.263,0,0,0-1.4,4.784c0,3.536,1.716,5.408,7.332,7.852,4.732,2.08,4.888,2.132,5.824,2.912a4.028,4.028,0,0,1,1.248,3.016c0,3.068-2.132,4.888-5.668,4.888A6.635,6.635,0,0,1,362.908-5.1c-.884-1.144-1.248-2.392-1.456-4.836H359.84Zm36.608-.1h13.936a35.045,35.045,0,0,0,8.788-.936c4.68-1.508,6.968-4.472,6.968-9.256a8.757,8.757,0,0,0-5.2-8.476,13.014,13.014,0,0,0-5.98-1.4v-.364c6.552-.832,9.724-3.588,9.724-8.528A7.356,7.356,0,0,0,420-37.908c-2.028-.936-5.512-1.508-9.568-1.508h-14.2v1.248c2.392,0,3.328.416,3.692,1.508.156.468.156.52.26,3.848V-8.32c-.1,3.9-.1,3.952-.676,4.576-.468.52-1.508.78-3.276.78Zm8.58-21.008V-37.856H409.6c6.708,0,9.932,2.392,9.932,7.384,0,5.1-3.224,7.748-9.464,7.748Zm0,19.448V-21.008h5.044a16.268,16.268,0,0,1,6.916,1.248c2.5,1.352,3.848,3.9,3.848,7.436,0,3.068-.936,5.564-2.6,6.916-1.664,1.456-4.368,2.132-8.164,2.132Zm24.284-24.7v1.144c2.964,0,3.588.78,3.588,4.68V-8.216c0,4.836-.312,5.252-3.8,5.356v1.144H440.8V-2.86c-3.484-.1-3.744-.468-3.744-5.356V-16.38a13.529,13.529,0,0,1,1.4-6.6c1.092-1.976,2.548-3.12,3.9-3.12.832,0,1.144.312,1.456,1.456.312.988.78,1.3,1.924,1.3,1.664,0,2.756-.832,2.756-2.132,0-1.82-1.716-3.224-3.952-3.224-3.068,0-5.876,2.236-7.592,6.188V-24.18c0-1.092-.052-1.768-.156-4.368Zm19.656,0v1.144c1.82,0,2.652.1,3.068.468.572.468.78,1.664.78,4.264V-8.216c0,4.836-.26,5.252-3.848,5.356v1.144h11.856V-2.86c-3.484-.1-3.744-.52-3.744-5.356V-18.824c0-2.184.156-6.708.312-9.724Zm2.86-8.684a2.93,2.93,0,0,0,2.964,2.964A2.919,2.919,0,0,0,457.5-36.66a2.907,2.907,0,0,0-2.912-2.912A2.919,2.919,0,0,0,451.62-36.66Zm34.788,20.28a16.51,16.51,0,0,0-.832-5.72,10.038,10.038,0,0,0-9.932-6.6c-7.332,0-12.324,5.772-12.324,14.2,0,7.956,5.1,13.468,12.532,13.468,5.1,0,8.632-2.236,10.972-7.02l-1.2-.676c-2.08,3.952-4.888,5.876-8.58,5.876-3.744,0-6.292-1.872-7.8-5.72a20.793,20.793,0,0,1-1.2-7.8Zm-18.252-1.4a14.577,14.577,0,0,1,1.4-5.564c1.4-2.652,3.484-4.056,5.98-4.056,2.444,0,4.212,1.3,5.356,3.848a13.719,13.719,0,0,1,.988,5.772Zm28.7-8.788h6.812c1.976,0,2.86.208,3.224.728.364.468.572,1.82.572,4.056V-8.216c0,4.888-.26,5.252-3.848,5.356v1.144h11.908V-2.86c-3.536-.1-3.8-.468-3.8-5.356v-10.66c0-2.236.1-6.4.312-9.672a58.075,58.075,0,0,1-8.424.572h-6.76v-1.2a16.6,16.6,0,0,1,1.248-6.812,5.029,5.029,0,0,1,4.784-2.86c1.872,0,3.484.78,3.484,1.768v.052c-.156,1.3-.26,1.924-.26,1.924a2.606,2.606,0,0,0,2.86,2.548,2.9,2.9,0,0,0,2.964-2.964c0-2.808-2.964-4.42-8.268-4.42-4.264,0-7.28,1.092-8.944,3.224a12.314,12.314,0,0,0-2.132,7.384v1.352h-4v1.4h4V-8.216c0,4.836-.26,5.252-3.744,5.356v1.144h12.116V-2.86c-3.8-.1-4.108-.52-4.108-5.356Zm28.34-1.976-7.852.572v1.144c2.964,0,3.588.78,3.588,4.68V-8.216c0,4.836-.312,5.252-3.8,5.356v1.144H529V-2.86c-3.536-.1-3.8-.468-3.8-5.356v-9a12.641,12.641,0,0,1,1.768-6.344,6.645,6.645,0,0,1,5.876-3.484,4.635,4.635,0,0,1,4.576,2.756,13.665,13.665,0,0,1,.832,5.616V-8.216c0,.364-.1,2.288-.156,2.86a2.8,2.8,0,0,1-.52,1.716c-.416.52-1.352.728-3.068.78v1.144h11.8V-2.86c-3.536-.1-3.8-.468-3.8-5.356V-18.98c0-3.172-.364-4.992-1.352-6.5-1.4-2.236-3.536-3.224-6.812-3.224-4.316,0-6.864,1.508-9.152,5.512Zm47.06,2.34v-1.976c-2.808.1-4.368.156-5.668.156a16.663,16.663,0,0,1-3.276-.312,18.44,18.44,0,0,0-3.484-.364,12.536,12.536,0,0,0-6.4,1.56c-2.548,1.508-4.056,4.576-4.056,8.112a8.546,8.546,0,0,0,1.664,5.356,10.063,10.063,0,0,0,2.6,2.236l-2.028,1.352c-2.028,1.4-2.5,2.08-2.5,3.536,0,2.08,1.04,3.536,3.276,4.576-3.224,2.08-3.64,2.6-3.64,4.784a5.185,5.185,0,0,0,2.808,5.044c1.976,1.092,4.576,1.612,8.06,1.612,3.9,0,6.864-.624,9.2-1.976a7.643,7.643,0,0,0,3.9-6.448,5.393,5.393,0,0,0-4.316-5.616,26.92,26.92,0,0,0-6.656-.52h-3.64c-4.368,0-5.72-.624-5.72-2.6,0-1.2.78-2.08,2.7-3.12a17.149,17.149,0,0,0,4.576.624c6.24,0,10.3-3.536,10.3-9.048a9.448,9.448,0,0,0-2.964-6.968Zm-18.512,6.552c0-5.2,2.028-7.852,5.928-7.852,3.848,0,5.824,2.808,5.824,8.268,0,5.148-2.028,7.9-5.824,7.9a5.278,5.278,0,0,1-4.732-2.5A12.441,12.441,0,0,1,553.748-19.656Zm.572,18.044c.052-.052,3.172-.1,4.992-.1a46.128,46.128,0,0,1,5.928.208c2.808.468,4,1.612,4,3.8,0,3.64-3.432,5.928-9,5.928-5.3,0-8.06-2.028-8.06-5.876C552.188.156,552.864-1.092,554.32-1.612ZM9.828,38.428h6.916v-1.4H9.828c0-.832-.052-1.508-.052-2.028-.052-2.5-.052-3.016-.052-3.8,0-3.38,1.04-5.044,3.068-5.044,1.508,0,2.184.624,2.444,2.236.26,1.4.26,1.4.572,1.716a2.82,2.82,0,0,0,1.716.468c1.56,0,2.548-.624,2.548-1.664,0-2.184-2.86-3.848-6.552-3.848a9.2,9.2,0,0,0-6.136,2.08c-1.4,1.3-1.924,2.7-1.924,5.044,0,.936.052,2.808.1,4.836h-4v1.4h4V56.784c0,4.836-.26,5.252-3.744,5.356v1.144H13.936V62.14c-3.8-.1-4.108-.52-4.108-5.356ZM17.94,50.544c0,8.06,4.992,13.416,12.532,13.416,7.9,0,12.9-5.46,12.9-14.144,0-8.164-4.992-13.52-12.584-13.52a12.562,12.562,0,0,0-9.048,3.484C19.344,42.224,17.94,46.228,17.94,50.544Zm4.836-.676c0-7.956,2.756-12.376,7.748-12.376,5.1,0,8.008,4.68,8.008,12.792,0,8.008-2.808,12.428-7.9,12.428C25.636,62.712,22.776,58.032,22.776,49.868Zm23.4-12.844v1.144c2.964,0,3.588.78,3.588,4.68V56.784c0,4.836-.312,5.252-3.8,5.356v1.144H57.876V62.14c-3.484-.1-3.744-.468-3.744-5.356V48.62a13.529,13.529,0,0,1,1.4-6.6c1.092-1.976,2.548-3.12,3.9-3.12.832,0,1.144.312,1.456,1.456.312.988.78,1.3,1.924,1.3,1.664,0,2.756-.832,2.756-2.132,0-1.82-1.716-3.224-3.952-3.224-3.068,0-5.876,2.236-7.592,6.188V40.82c0-1.092-.052-1.768-.156-4.368Zm44.252,7.7h5.564c5.668,0,6.552.676,7.28,5.356h1.456V37.908h-1.456c-.572,4.524-1.56,5.252-7.28,5.252H90.428V27.144h6.76c6.968,0,8.84,1.456,10.036,7.8l1.664-.1-.624-9.256H81.848v1.248c2.392,0,3.328.416,3.692,1.508.156.468.156.52.26,3.848V56.68c0,4.784-.312,5.2-3.952,5.3v1.3h13v-1.3c-4.108-.1-4.42-.52-4.42-5.3ZM130,45.136l8.736-12.792c2.7-3.952,4.42-5.252,7.176-5.512V25.584H133.848v1.248c3.068.156,4.16.676,4.16,1.924a8.875,8.875,0,0,1-1.768,4L128.8,43.732l-7.592-11.6C119.808,30,119.5,29.38,119.5,28.6c0-1.144.988-1.664,3.484-1.768V25.584H109.512v1.248c2.34.208,3.432,1.092,5.824,4.628l9.984,14.82v10.4c0,4.784-.364,5.2-4.524,5.3v1.3h13.728v-1.3c-4.16-.1-4.524-.468-4.524-5.3Zm41.184,18.148,1.4-9.048-1.56-.364c-1.04,4.368-2.34,5.512-6.084,5.512H149.916a14.782,14.782,0,0,1,4.264-6.6c2.288-2.236,3.692-3.276,10.192-7.28,5.772-3.536,7.7-6.188,7.7-10.5a8.4,8.4,0,0,0-1.664-5.512c-1.976-2.5-5.616-3.9-9.984-3.9-6.968,0-12.168,4-12.168,9.36,0,1.508.728,2.132,2.652,2.132,1.82,0,2.392-.468,2.5-2.236a13.956,13.956,0,0,1,.52-3.8c.884-2.6,3.12-4.056,6.188-4.056,4.212,0,7.072,2.964,7.072,7.332a8.57,8.57,0,0,1-1.144,4.368,16.228,16.228,0,0,1-3.952,4.056c-6.656,5.408-8.84,7.488-10.868,10.4a21.472,21.472,0,0,0-3.848,10.14Zm4.836-18.46a29.093,29.093,0,0,0,2.964,13.468,11.153,11.153,0,0,0,10.088,5.772,11.032,11.032,0,0,0,10.036-5.772,28.941,28.941,0,0,0,2.964-13.468,28.791,28.791,0,0,0-2.964-13.468,11.656,11.656,0,0,0-20.124,0A29.093,29.093,0,0,0,176.02,44.824Zm5.044.052c0-12.428,2.444-17.94,8.008-17.94s8.008,5.46,8.008,17.888-2.444,17.888-8.008,17.888S181.064,57.252,181.064,44.876Zm48.152,18.408,1.4-9.048-1.56-.364c-1.04,4.368-2.34,5.512-6.084,5.512H207.948a14.782,14.782,0,0,1,4.264-6.6C214.5,50.544,215.9,49.5,222.4,45.5c5.772-3.536,7.7-6.188,7.7-10.5a8.4,8.4,0,0,0-1.664-5.512c-1.976-2.5-5.616-3.9-9.984-3.9-6.968,0-12.168,4-12.168,9.36,0,1.508.728,2.132,2.652,2.132,1.82,0,2.392-.468,2.5-2.236a13.956,13.956,0,0,1,.52-3.8c.884-2.6,3.12-4.056,6.188-4.056,4.212,0,7.072,2.964,7.072,7.332a8.57,8.57,0,0,1-1.144,4.368,16.228,16.228,0,0,1-3.952,4.056c-6.656,5.408-8.84,7.488-10.868,10.4a21.472,21.472,0,0,0-3.848,10.14Zm10.764,0h14.2V61.776c-2.964-.156-3.172-.208-3.8-.728-.728-.624-.936-1.664-.936-5.148V40.456c0-6.136.156-10.556.416-14.664a59.653,59.653,0,0,1-9.88,1.352v1.508h1.976c1.3,0,1.924.1,2.34.468s.416.364.52,4.888V55.9c0,3.744-.26,4.836-1.4,5.356-.676.312-1.2.364-3.432.52Z" transform="translate(343 196)" fill="#fff"/>
    <path id="パス_36841" data-name="パス 36841" d="M1.914-1.023a12.175,12.175,0,0,1,2.277-.33,6.665,6.665,0,0,1,1.089.1A19.506,19.506,0,0,0,9.7-.693a7.867,7.867,0,0,0,5.379-1.815A5.528,5.528,0,0,0,16.962-7a6.259,6.259,0,0,0-.924-3.63c-.924-1.452-2.475-2.541-6.6-4.488-3.927-1.848-4.983-2.937-4.983-5.115A4.692,4.692,0,0,1,5.412-23.1a4.294,4.294,0,0,1,3.5-1.386,5.262,5.262,0,0,1,4.752,2.343,7.516,7.516,0,0,1,.924,3.465h1.089l.2-6.5a6.06,6.06,0,0,1-1.98.5,6.6,6.6,0,0,1-1.221-.165,13.536,13.536,0,0,0-3.894-.561,6.758,6.758,0,0,0-4.719,1.584A6.165,6.165,0,0,0,1.98-19.041a5.468,5.468,0,0,0,1.452,3.894c.924.99,1.947,1.617,4.752,2.97C13.1-9.8,14.322-8.547,14.322-5.94c0,2.706-1.782,4.29-4.785,4.29a6.317,6.317,0,0,1-4.95-1.881C3.7-4.587,3.366-5.643,3.234-7.689H2.145ZM19.14-9.174c0,5.115,3.168,8.514,7.953,8.514,5.016,0,8.184-3.465,8.184-8.976,0-5.181-3.168-8.58-7.986-8.58a7.972,7.972,0,0,0-5.742,2.211A9.88,9.88,0,0,0,19.14-9.174ZM22.209-9.6c0-5.049,1.749-7.854,4.917-7.854,3.234,0,5.082,2.97,5.082,8.118,0,5.082-1.782,7.887-5.016,7.887C24.024-1.452,22.209-4.422,22.209-9.6Zm19.866-7.26h4.389v-.891H42.075c0-.528-.033-.957-.033-1.287-.033-1.584-.033-1.914-.033-2.409,0-2.145.66-3.2,1.947-3.2.957,0,1.386.4,1.551,1.419.165.891.165.891.363,1.089a1.79,1.79,0,0,0,1.089.3c.99,0,1.617-.4,1.617-1.056,0-1.386-1.815-2.442-4.158-2.442a5.837,5.837,0,0,0-3.894,1.32,3.85,3.85,0,0,0-1.221,3.2c0,.594.033,1.782.066,3.069H36.828v.891h2.541V-5.214c0,3.069-.165,3.333-2.376,3.4v.726h7.689v-.726c-2.409-.066-2.607-.33-2.607-3.4Zm9.735,0h3.96v-.891H51.81c0-2.178.033-3.432.1-4.851l-1.518.429c-.5,3.1-1.485,4.389-3.432,4.554v.759h2.079V-6.171c0,2.442.1,3.168.462,3.828A3.591,3.591,0,0,0,52.9-.726a7.021,7.021,0,0,0,3.333-.825l-.3-.858a3.849,3.849,0,0,1-2.079.594,1.837,1.837,0,0,1-1.617-.693c-.33-.462-.429-1.32-.429-3.267ZM57.057-1.089H65.9a22.24,22.24,0,0,0,5.577-.594C74.448-2.64,75.9-4.521,75.9-7.557a5.557,5.557,0,0,0-3.3-5.379,8.259,8.259,0,0,0-3.8-.891v-.231c4.158-.528,6.171-2.277,6.171-5.412a4.668,4.668,0,0,0-2.838-4.587,15.824,15.824,0,0,0-6.072-.957H57.057v.792c1.518,0,2.112.264,2.343.957a8.965,8.965,0,0,1,.165,2.442V-5.28c-.066,2.475-.066,2.508-.429,2.9-.3.33-.957.5-2.079.5ZM62.5-14.421v-9.6h3.036c4.257,0,6.3,1.518,6.3,4.686,0,3.234-2.046,4.917-6.006,4.917Zm0,12.342V-13.332h3.2a10.324,10.324,0,0,1,4.389.792,4.968,4.968,0,0,1,2.442,4.719,5.548,5.548,0,0,1-1.65,4.389c-1.056.924-2.772,1.353-5.181,1.353Zm31.119.231c-1.254,0-1.65-.1-1.848-.363a7.475,7.475,0,0,1-.363-2.838l.033-1.518L91.476-9.7c.066-3.234.066-3.234.066-3.333a5.62,5.62,0,0,0-.957-3.729c-.792-.957-2.31-1.452-4.422-1.452a9.919,9.919,0,0,0-4.818,1.056A3.922,3.922,0,0,0,79.1-13.992c0,.693.5.99,1.617.99a2.131,2.131,0,0,0,1.155-.264c.264-.2.33-.429.363-1.122.132-2.046,1.254-3.036,3.432-3.036a2.745,2.745,0,0,1,2.706,1.287,6.661,6.661,0,0,1,.462,3v2.079a36.231,36.231,0,0,0-5.874.792c-3.2.726-4.851,2.409-4.851,5.016a4.741,4.741,0,0,0,1.452,3.5A5.006,5.006,0,0,0,82.929-.726a6.53,6.53,0,0,0,4.29-1.419,8.317,8.317,0,0,0,1.617-1.419c.132,2.211.4,2.739,1.386,2.739a27.94,27.94,0,0,0,3.4-.33Zm-4.785-6.9a9.272,9.272,0,0,1-.759,4.488,5.065,5.065,0,0,1-4.224,2.409c-1.65,0-2.772-1.419-2.772-3.5a3.884,3.884,0,0,1,2.211-3.762c1.32-.66,2.607-.924,5.544-1.188Zm10.989-9.372-4.983.363v.726c1.881,0,2.277.5,2.277,2.97v8.844c0,3.069-.2,3.333-2.409,3.4v.726h7.524v-.726c-2.244-.066-2.409-.3-2.409-3.4v-5.709a8.022,8.022,0,0,1,1.122-4.026,4.217,4.217,0,0,1,3.729-2.211,2.941,2.941,0,0,1,2.9,1.749,8.671,8.671,0,0,1,.528,3.564v6.633c0,.231-.066,1.452-.1,1.815a1.774,1.774,0,0,1-.33,1.089c-.264.33-.858.462-1.947.495v.726h7.491v-.726c-2.244-.066-2.409-.3-2.409-3.4v-6.831a7.116,7.116,0,0,0-.858-4.125c-.891-1.419-2.244-2.046-4.323-2.046-2.739,0-4.356.957-5.808,3.5ZM118.9-6.864l2.574-2.871,3.366,5.478c.33.594,1.386,2.475,1.716,3.168h4.488v-.726c-1.452-.231-2.013-.66-3.135-2.442l-4.62-7.26L125-13.365c1.98-2.145,2.112-2.244,3.234-2.937a4.747,4.747,0,0,1,2.211-.726v-.726h-7.293v.726c1.452.066,2.079.4,2.079,1.089a3.627,3.627,0,0,1-1.155,2.046L118.9-8.217V-18.678c0-1.716.066-4.389.2-6.6l-5.181.264v.726c2.211.033,2.343.2,2.343,3V-5.214c0,3.069-.165,3.333-2.343,3.4v.726h7.359v-.726c-2.211-.066-2.376-.33-2.376-3.4Zm37.422-5.148v.792c2.574.132,2.8.4,2.8,3.2v4.95a10.751,10.751,0,0,1-5.61,1.518,6.616,6.616,0,0,1-6.1-3.63,16.48,16.48,0,0,1-1.782-8.019,16.154,16.154,0,0,1,1.683-7.821,6.911,6.911,0,0,1,6.468-3.564,6.231,6.231,0,0,1,5.247,2.211,9.256,9.256,0,0,1,1.452,4.125H161.5v-6.93a4.181,4.181,0,0,1-1.98.5,8.2,8.2,0,0,1-1.683-.231,16.21,16.21,0,0,0-4.356-.561c-6.732,0-11.154,5.082-11.154,12.8,0,7.491,4.092,12.012,10.89,12.012a20.856,20.856,0,0,0,4.917-.66,23.4,23.4,0,0,1,3.927-.759c-.066-1.089-.1-1.815-.1-3.5V-8.019c0-2.9.132-3.069,2.409-3.2v-.792Zm9.306-5.742v.726c1.881,0,2.277.5,2.277,2.97v8.844c0,3.069-.2,3.333-2.409,3.4v.726h7.557v-.726c-2.211-.066-2.376-.3-2.376-3.4V-10.4a8.586,8.586,0,0,1,.891-4.191,3.232,3.232,0,0,1,2.475-1.98c.528,0,.726.2.924.924.2.627.495.825,1.221.825,1.056,0,1.749-.528,1.749-1.353a2.275,2.275,0,0,0-2.508-2.046c-1.947,0-3.729,1.419-4.818,3.927v-1.056c0-.693-.033-1.122-.1-2.772Zm12.9,8.58c0,5.115,3.168,8.514,7.953,8.514,5.016,0,8.184-3.465,8.184-8.976,0-5.181-3.168-8.58-7.986-8.58a7.972,7.972,0,0,0-5.742,2.211A9.88,9.88,0,0,0,178.53-9.174ZM181.6-9.6c0-5.049,1.749-7.854,4.917-7.854,3.234,0,5.082,2.97,5.082,8.118,0,5.082-1.782,7.887-5.016,7.887C183.414-1.452,181.6-4.422,181.6-9.6Zm32.274,8.514v-.726h-.231c-1.716,0-2.013-.594-2.013-3.894v-6.237c0-1.485.066-3.663.165-6.138l-5.115.33v.726h.594a1.667,1.667,0,0,1,1.122.33c.4.3.495.924.495,2.673v5.082a8.141,8.141,0,0,1-.594,3.894,4.766,4.766,0,0,1-4.29,3.2A2.563,2.563,0,0,1,201.333-3.7c-.4-1.155-.462-2.046-.462-5.379v-2.871c0-2.277.033-3.069.2-6.138l-5.115.33v.726h.594c.627.033.924.1,1.122.3.363.3.495.99.495,2.706V-8.58c0,2.871.132,4.224.462,5.115a4.4,4.4,0,0,0,4.389,2.772,6.72,6.72,0,0,0,5.874-3.564,26.916,26.916,0,0,0,.165,3.4Zm5.676-17.028-4.95.363v.726c1.881,0,2.277.5,2.277,2.97V1.881c0,3.069-.165,3.3-2.409,3.366v.759h7.623V5.247c-2.376-.1-2.541-.3-2.541-3.366V-2.937c1.815,1.65,2.937,2.145,4.884,2.145a6.647,6.647,0,0,0,5.445-2.541A11.35,11.35,0,0,0,231.726-9.9c0-5.181-2.541-8.316-6.765-8.316a6.121,6.121,0,0,0-5.412,2.937Zm-.132,8.745a11.014,11.014,0,0,1,1.287-5.775,4.432,4.432,0,0,1,3.762-2.145c2.805,0,4.191,2.541,4.191,7.755s-1.485,7.854-4.488,7.854C221.034-1.683,219.417-4.257,219.417-9.372Zm44.352-8.085v-7.194a4.419,4.419,0,0,1-1.716.462,7.253,7.253,0,0,1-2.442-.561,14.176,14.176,0,0,0-4.191-.726,10.581,10.581,0,0,0-6.237,2.013c-2.97,2.178-4.653,6.1-4.653,10.725a12.645,12.645,0,0,0,3.1,8.877,10.239,10.239,0,0,0,7.59,3.234,10.1,10.1,0,0,0,7.095-2.508,11.3,11.3,0,0,0,2.706-4.356l-.957-.429a8.264,8.264,0,0,1-7.92,5.973c-4.983,0-8.283-4.521-8.283-11.418a15.339,15.339,0,0,1,1.914-8.019,6.73,6.73,0,0,1,5.775-3.2,7.072,7.072,0,0,1,5.511,2.673,8.883,8.883,0,0,1,1.65,4.455Zm2.607,8.283c0,5.115,3.168,8.514,7.953,8.514,5.016,0,8.184-3.465,8.184-8.976,0-5.181-3.168-8.58-7.986-8.58a7.972,7.972,0,0,0-5.742,2.211A9.88,9.88,0,0,0,266.376-9.174Zm3.069-.429c0-5.049,1.749-7.854,4.917-7.854,3.234,0,5.082,2.97,5.082,8.118,0,5.082-1.782,7.887-5.016,7.887C271.26-1.452,269.445-4.422,269.445-9.6Zm14.85-8.151v.726c1.881,0,2.277.5,2.277,2.97v8.844c0,3.069-.2,3.333-2.409,3.4v.726h7.557v-.726c-2.211-.066-2.376-.3-2.376-3.4V-10.4a8.585,8.585,0,0,1,.891-4.191,3.232,3.232,0,0,1,2.475-1.98c.528,0,.726.2.924.924.2.627.495.825,1.221.825,1.056,0,1.749-.528,1.749-1.353a2.275,2.275,0,0,0-2.508-2.046c-1.947,0-3.729,1.419-4.818,3.927v-1.056c0-.693-.033-1.122-.1-2.772Zm17.094-.363-4.95.363v.726c1.881,0,2.277.5,2.277,2.97V1.881c0,3.069-.165,3.3-2.409,3.366v.759h7.623V5.247c-2.376-.1-2.541-.3-2.541-3.366V-2.937c1.815,1.65,2.937,2.145,4.884,2.145a6.647,6.647,0,0,0,5.445-2.541A11.35,11.35,0,0,0,313.566-9.9c0-5.181-2.541-8.316-6.765-8.316a6.121,6.121,0,0,0-5.412,2.937Zm-.132,8.745a11.014,11.014,0,0,1,1.287-5.775,4.432,4.432,0,0,1,3.762-2.145c2.8,0,4.191,2.541,4.191,7.755s-1.485,7.854-4.488,7.854C302.874-1.683,301.257-4.257,301.257-9.372Zm18.282,4.059A2.264,2.264,0,0,0,317.2-3,2.291,2.291,0,0,0,319.539-.66,2.283,2.283,0,0,0,321.849-3,2.256,2.256,0,0,0,319.539-5.313Z" transform="translate(343 128)" fill="#fff"/>
  </g>
</svg>
