<svg id="グループ_78457" data-name="グループ 78457" xmlns="http://www.w3.org/2000/svg" width="516.188" height="40.19" viewBox="0 0 516.188 40.19">
  <path id="パス_87854" data-name="パス 87854" d="M4.061,10.646a13.3,13.3,0,0,1,1.023,5.407c0,3.069-1.023,5.261-2.631,5.261S.7,20.145.7,19.414.846,18.1,1.869,16.638a7.6,7.6,0,0,0,1.315-5.7Zm6.723-8.915c.438,0,.877.292.877.585s-.585.731-1.461,1.023V39.583l-3.8.585V1.146Zm.146,7.6c1.023.438,4.238,1.608,4.238,4.092a1.9,1.9,0,0,1-1.608,2.192c-1.315,0-1.461-1.315-1.461-2.338a5.992,5.992,0,0,0-1.461-3.508ZM28.322,1.438c.292,0,.877.146.877.585s-.438.585-1.461,1.023V6.115h5.554l2.484-2.631,4.092,3.069V7.43H27.737v3.654h4.384l2.046-2.338,3.508,2.777v.731H27.737v4.092H34.46l2.192-2.484,3.654,2.923v.877H13.415l-.731-1.169H23.937V12.253H15.9l-.731-1.169h8.769v-3.8H14.292l-.731-1.169H23.937V1Zm-8.33,29.814v8.33l-3.654.585V18.976l4.092,1.9H31.975l1.169-2.046L36.8,21.168c.438.292.731.438.731.731s-.438.731-1.461,1.315V36.952c0,1.315-.292,2.046-2.192,2.923a7.307,7.307,0,0,1-2.484.585c-.585,0-.585-.146-.877-1.608s-.877-1.461-4.092-1.9v-.877h5.992V31.252Zm12.276-9.207H19.991v3.361H32.268Zm0,4.531H19.991v3.508H32.268Z" transform="translate(-0.7 -0.269)"/>
  <path id="パス_87855" data-name="パス 87855" d="M48.561,1.585c.731.146,1.023.438,1.023.585S49,2.9,47.83,3.484V6.7h1.754l1.754-2.192,3.508,2.631v.731H47.83v5.407h2.923l1.9-2.338,3.508,2.631v1.023H50.9l2.631,1.315c.292.146.731.438.731.731s-.731.585-1.608.877l-1.169,1.754-2.923,3.654H50.9l2.046-2.631,3.508,2.631v1.023H47.83v5.261h1.9l1.9-2.484,3.654,2.631v1.023H47.83v9.207l-3.8.585V30.522H37.308l-.585-1.169H44.03V24.091h-7.6l-.585-1.169h5.407a3.069,3.069,0,0,1-.877-2.338,8.476,8.476,0,0,0-1.608-4.969l.585-.585c2.046,1.315,4.823,2.923,4.823,5.7a2.484,2.484,0,0,1-1.023,2.338H47.1a55.972,55.972,0,0,0,2.338-8.476H36.285L35.7,13.422h8.476V7.869H37.6L37.015,6.7H44.03V1Zm11.984,3.8v14.03h9.061l1.461-2.046L74.575,20c.146.146.585.438.585.731s-.585.585-1.754,1.023a40.044,40.044,0,0,1-4.238,10.523,33.467,33.467,0,0,0,6.577,4.969v.585a3.508,3.508,0,0,0-2.923,2.338,26.16,26.16,0,0,1-5.115-5.261,19.876,19.876,0,0,1-5.7,5.261l-.585-.585a31.567,31.567,0,0,0,4.969-6.577A31.86,31.86,0,0,1,62.3,20.876H60.983v19l-3.654.585V2.315l3.654,1.9h7.307l1.461-2.192L73.26,4.508c.146.146.731.438.731.731s-.585.585-1.754,1.023v7.307a2.338,2.338,0,0,1-1.315,2.484,7.161,7.161,0,0,1-3.508,1.169c-.585,0-.585-.146-.877-1.315s-1.315-1.315-3.361-1.608V13.276h5.407V5.384Zm2.338,15.2a24.845,24.845,0,0,0,4.384,9.5,48.959,48.959,0,0,0,2.484-9.5Z" transform="translate(15.451 -0.269)"/>
  <path id="パス_87856" data-name="パス 87856" d="M103.129,6.354l2.192-2.777,3.946,3.069v.877H98.16v7.015l-3.8.438V13.369H91.583v4.092h8.769l1.461-2.192,3.508,2.338c.292.146.731.585.731.877s-.585.731-1.461,1.023v8.184l-3.8.438V26.522H91.583v4.384h11.984l2.338-2.777,3.946,3.069v.877H91.583v7.6l-3.8.438V32.221H70.538L70.1,31.052H87.784V26.668H79.161v1.754l-3.8.585V15.268L79.6,17.461h8.184V13.369H85.153v1.608l-3.8.585V7.669H71.123L70.538,6.5H81.353V.8l4.238.438c.438.146,1.023.292,1.023.731s-.585.731-1.608,1.315V6.354h9.207V.946l4.238.438c.292,0,1.023.146,1.023.585s-.585.877-1.608,1.315V6.354Zm-15.345,19V18.776H79.161v6.577ZM94.506,12.2V7.669H85.153V12.2Zm6.284,13.153V18.776H91.583v6.577Z" transform="translate(31.325 -0.362)"/>
  <path id="パス_87857" data-name="パス 87857" d="M111.138,31.629v4.238l-3.654.585V17.161l-3.946,1.754-.438-.877a44.282,44.282,0,0,0,10.815-8.623A49.4,49.4,0,0,0,120.784.5l4.531,1.461c.731.146,1.023.585,1.023.877s-1.169.731-1.754.877a30.691,30.691,0,0,0,8.33,6.43,48.228,48.228,0,0,0,10.23,4.384l-.292,1.023c-1.461.292-2.046.585-2.923,2.631a35.367,35.367,0,0,1-16.076-14.03c-5.992,6.577-9.646,9.646-16.222,13.007l4.092,2.046h4.969l1.169-2.046,3.508,2.192c.438.292.877.585.877.877s-.585.877-1.608,1.315V33.383l-3.654.585V31.629Zm5.846-11.253h-5.846V30.46h5.846Zm8.769-6.723,1.9-2.484,3.654,2.631v.877H113.915l-.292-1.169Zm13.3,19a2.484,2.484,0,0,1-1.315,2.484,8.915,8.915,0,0,1-3.069.731c-1.023,0-1.023-.292-1.023-1.608s-1.315-1.461-3.361-1.754v-.877h5.261V20.23h-7.161V39.813l-3.8.585V17.015l4.238,2.046h6.138l1.169-1.9,3.654,2.338c.438.292.877.585.877.731A4.479,4.479,0,0,1,139.2,21.4Z" transform="translate(46.554 -0.5)"/>
  <path id="パス_87858" data-name="パス 87858" d="M138.877,5.992a4.384,4.384,0,0,0,3.654,2.192l6.869-.877c6.284-1.023,12.715-2.046,18.853-2.484l2.484-.438L172.2,3.8a5.407,5.407,0,0,1,3.654,3.215c0,.731-1.023.731-1.315.731l-5.115-.292c-3.654,0-6.138.438-9.061,3.361A18.853,18.853,0,0,0,155.1,23.384c0,4.969,2.484,6.869,4.677,8.038a14.176,14.176,0,0,0,6.138,1.461h1.9c1.023,0,2.046,1.9,2.046,2.777s-.438,1.461-2.631,1.461c-4.531,0-15.053-2.046-15.053-12.569a21.045,21.045,0,0,1,3.654-11.107,23.091,23.091,0,0,1,5.261-5.7l-1.754.292c-8.476,1.461-12.13,2.338-14.03,3.215l-1.315.877h-.585c-1.169,0-2.631-1.461-2.923-1.754A15.638,15.638,0,0,1,138,6.284Zm25.429,6.869a10.376,10.376,0,0,1,5.115,2.192,3.507,3.507,0,0,1,1.461,2.777c0,.877-.292,2.046-1.315,2.046s-1.023-.438-1.754-1.754a12.861,12.861,0,0,0-3.654-4.531Zm4.677-2.631c2.923.585,6.869,1.9,6.869,4.969s-1.023,1.608-1.461,1.608-.877-.292-2.484-2.631a11.692,11.692,0,0,0-3.508-3.215Z" transform="translate(62.659 1.023)"/>
  <path id="パス_87859" data-name="パス 87859" d="M190.56,2.731c.585.146,1.023.438,1.023.877s-.585.731-1.754,1.169a43.844,43.844,0,0,0,5.115,18.561,33.467,33.467,0,0,0,7.015,8.184,27.475,27.475,0,0,0,5.846,3.8V36.2c-1.608.146-2.484.438-3.654,2.777-7.015-4.677-12.715-11.546-14.761-28.206-1.754,13.738-4.092,20.9-18.707,28.352l-.585-.731c13.884-9.5,15.2-21.63,15.2-36.39Z" transform="translate(77.471 0.192)"/>
  <path id="パス_87860" data-name="パス 87860" d="M213.507,3.8c5.261.877,7.6,2.923,7.6,3.654s-.146.438-.877.731-.585.292-1.023,1.023l-2.046,3.654a95.153,95.153,0,0,0,10.523-1.023c1.9-.438.292-.146.877-.877s.731-1.023,1.023-1.023a47.788,47.788,0,0,1,4.384,3.069.585.585,0,0,1,.292.585c0,.438-.146.438-1.9,1.023l-1.754,2.046L227.1,21.045l-4.677,4.969c2.484,1.461,5.407,3.361,5.407,6.138a1.9,1.9,0,0,1-1.754,2.046c-1.023,0-1.315-.292-3.507-2.923a32.59,32.59,0,0,0-10.961-7.892l.292-.877a37.705,37.705,0,0,1,9.353,2.923,87.106,87.106,0,0,0,6.577-11.984,66.643,66.643,0,0,0-10.522,2.046l-.731.731h-.438c-.292,0-.585-.292-1.023-.731a43.99,43.99,0,0,1-12.13,11.4l-.585-.585c10.376-9.646,13.153-19.145,13.153-19.584a4.339,4.339,0,0,0-2.338-2.338Z" transform="translate(92.377 1.023)"/>
  <path id="パス_87861" data-name="パス 87861" d="M244.338,8.477c1.461-2.338,2.046-3.215,2.046-3.946s-.146-.731-.585-1.023a6.722,6.722,0,0,0-2.338-.585l.292-1.023c5.992.146,7.6,1.9,7.6,2.338s-.146.585-1.023,1.461a14.32,14.32,0,0,0-2.046,2.484,33.906,33.906,0,0,0,7.161-1.461l1.169-.438c.585,0,2.631,1.608,2.631,2.192s-1.754,1.169-3.946,1.608l-3.508.585-5.554.585-1.754,2.192-3.215,4.384a13.153,13.153,0,0,1,5.992-1.9c4.531,0,4.969,3.069,5.261,4.677l7.6-2.923c.877-.292,1.315-.585,1.315-1.169s-.292-.877-1.461-1.608l.585-.585c4.677,1.9,5.115,5.115,5.115,5.261a1.559,1.559,0,0,1-1.169.877,49.982,49.982,0,0,0-11.984,2.631c.146,2.631.146,3.215.146,3.8s0,3.8-2.192,3.8-1.461-1.023-1.461-1.608V23.822c-5.846,2.192-8.476,3.946-8.476,7.015s6.284,3.654,10.084,3.654a59.335,59.335,0,0,0,7.6-.438l1.9-.585a3.8,3.8,0,0,1,2.777,2.777c0,.877-1.169,1.169-1.608,1.169l-6.869.438c-7.015,0-10.376-.292-12.569-1.315a5.554,5.554,0,0,1-3.507-5.261c0-5.115,5.992-7.746,10.815-9.646-.146-1.9-.146-2.631-.731-3.215a2.631,2.631,0,0,0-2.192-1.023,9.353,9.353,0,0,0-4.677,1.461,28.352,28.352,0,0,0-5.115,4.823l-.731,1.023L234.4,26.306h-.292c-.877,0-1.608-1.754-1.608-2.484s.146-.585,1.169-1.608a74.678,74.678,0,0,0,8.915-11.253l-4.531.292c-2.192,0-3.069-.731-4.677-4.384l.731-.438a4.677,4.677,0,0,0,4.531,2.192l3.8-.292Z" transform="translate(106.267 0.146)"/>
  <path id="パス_87862" data-name="パス 87862" d="M291.829,6.454l2.485-2.923L298.552,6.6V7.623H284.23v6.138h11.253l2.338-2.923,4.238,3.069V14.93H290.806l1.9.877a1.461,1.461,0,0,1,.731.877c0,.438-.731.585-1.754.731-3.069,4.238-3.361,4.677-4.238,5.846h6.723l2.484-2.923,4.238,3.069V24.43H284.376v5.992h8.476l2.338-2.777,4.092,3.069v1.023H284.376v7.892l-3.946.585V31.591h-13.3l-.585-1.169H280.43V24.43H264.792l-.585-1.169h11.107a2.923,2.923,0,0,1-.731-1.608V19.607a8.768,8.768,0,0,0-1.9-4.677h-9.5l-.585-1.169h17.538V7.623H267.569l-.585-1.169h13.153V.9l4.238.438c.146,0,1.169.146,1.169.731s-.585.731-1.608,1.169V6.454ZM274.292,14.93c1.169.731,4.092,2.338,4.092,5.554a3.215,3.215,0,0,1-1.315,2.777h8.769a65.628,65.628,0,0,0,2.631-8.33Z" transform="translate(120.157 -0.315)"/>
  <path id="パス_87863" data-name="パス 87863" d="M297.077,13.6a4.384,4.384,0,0,0,3.654,1.754l5.992-1.023c.146-2.046.146-3.508.146-5.115s0-2.923-3.361-3.508V4.833c6.577.146,7.892,2.484,7.892,2.777a9.047,9.047,0,0,1-.585,1.315,35.083,35.083,0,0,0-.877,4.969l5.115-.585,7.015-.731c0-.877.146-5.115.146-5.846a4.063,4.063,0,0,0-3.654-3.654V2.2a14.907,14.907,0,0,1,6.284,1.169c1.461.731,1.461,1.169,1.461,1.461a21.2,21.2,0,0,1-.877,2.338,28.061,28.061,0,0,0-.438,5.261,30.545,30.545,0,0,0,5.846-.585l1.461-.585c.585,0,3.361,1.754,3.361,3.361s-.877.731-1.169.731l-4.384-.292h-5.261v9.646a4.677,4.677,0,0,1-3.361,4.384c-.438,0-.585-.292-.877-1.023s-4.238-4.969-5.7-5.7l.292-1.023a69.857,69.857,0,0,1,7.161,2.923V15.063a119.4,119.4,0,0,0-12.568,1.461c-.146,3.215-.292,6.577-.292,9.792,0,5.846.731,7.161,6.723,7.161h3.069l3.8-.292H324.7a5.115,5.115,0,0,0,2.192-.585h.585c.877,0,2.923,2.046,2.923,3.069s-1.023,1.023-1.754,1.023a63.428,63.428,0,0,1-9.061.585c-6.577,0-9.061-.292-10.815-1.9s-2.484-5.115-2.484-9.646.146-4.969.292-8.33l-4.092,1.315c-.877.731-1.023.731-1.315.731a3.654,3.654,0,0,1-1.608-.731,10.376,10.376,0,0,1-3.361-4.092Z" transform="translate(135.662 0.282)"/>
  <path id="パス_87864" data-name="パス 87864" d="M331.442,2.6a12.276,12.276,0,0,1,5.115,3.069,3.654,3.654,0,0,1,1.169,2.192c0,.292-.146.438-.731,1.169a32.152,32.152,0,0,0-3.361,14.907,20.9,20.9,0,0,0,.438,4.384l4.238-8.476.877.438c-2.923,8.476-3.215,9.5-3.215,11.546a9.208,9.208,0,0,0,.146,2.046,14.782,14.782,0,0,1,.292,1.754,1.461,1.461,0,0,1-1.461,1.461C332.9,37.09,331,32.122,331,24.668a42.1,42.1,0,0,1,.585-8.038l1.169-5.261a34.2,34.2,0,0,0,.731-4.238c0-1.754-1.315-2.631-2.484-3.361Zm10.815,9.207c3.069-2.631,6.138-4.969,14.468-4.969,3.361,0,5.992.292,5.992,2.631s-.877.877-2.485,1.169S353.51,13.269,350,15.9l-.585-.731,4.238-3.946,1.315-1.315c-7.015,0-8.915.731-12.422,2.484Zm1.315,13.153c.731,3.361,1.608,7.746,11.107,7.746a35.22,35.22,0,0,0,5.992-.438l1.608-.438a3.069,3.069,0,0,1,2.192,2.631c0,.585-.146.877-.877,1.023a25.137,25.137,0,0,1-6.138.438c-5.554,0-9.353-.146-12.13-3.069s-2.485-4.969-2.777-7.892Z" transform="translate(151.717 0.469)"/>
</svg>
