<svg id="グループ_79000" data-name="グループ 79000" xmlns="http://www.w3.org/2000/svg" width="460" height="33.341" viewBox="0 0 460 33.341">
  <path id="パス_103597" data-name="パス 103597" d="M4.981,9.965c0-3.1-.147-3.391-3.981-3.391V5.1H13.237V6.574c-3.686,0-3.981.295-3.981,3.391V31.638c0,3.1.147,3.391,3.981,3.391V36.5H1V35.029c3.833,0,3.981-.295,3.981-3.391Z" transform="translate(-1 -3.766)"/>
  <path id="パス_103598" data-name="パス 103598" d="M32.746,29.006c0,2.654.295,3.1,2.212,3.1v1.327h-8.7V32.1c2.212,0,2.359-.295,2.359-3.244V18.538a5.9,5.9,0,0,0-1.032-4.128,3.244,3.244,0,0,0-2.506-.885c-1.769,0-3.833,1.622-5.6,4.128V28.711c0,2.949.147,3.244,2.212,3.244v1.327H12.4V31.954c2.506,0,2.654-.295,2.654-3.244V17.948c0-2.8-.295-3.244-2.654-3.1V13.672a15.628,15.628,0,0,0,6.045-2.064l.59.295v3.538h.147a9.141,9.141,0,0,1,6.929-3.833,6.487,6.487,0,0,1,4.718,1.474A6.782,6.782,0,0,1,32.6,18.39Z" transform="translate(4.408 -0.691)"/>
  <path id="パス_103599" data-name="パス 103599" d="M33.391,17.324H30.147V15.7h3.244V12.753A8.846,8.846,0,0,1,35.75,6.119,7.519,7.519,0,0,1,40.91,4.2a7.224,7.224,0,0,1,4.276,1.179A3.833,3.833,0,0,1,47.1,8.33a1.474,1.474,0,0,1-1.474,1.622c-1.327,0-1.769-1.032-2.212-2.212s-1.032-2.064-2.359-2.064a2.654,2.654,0,0,0-2.212,1.179c-.885,1.032-1.327,2.8-1.327,6.045v2.8h5.6v1.622h-5.6V32.362c0,2.949.295,3.244,3.686,3.244v1.327H30V35.606c3.1,0,3.391-.295,3.391-3.391Z" transform="translate(12.756 -4.196)"/>
  <path id="パス_103600" data-name="パス 103600" d="M50.928,34.017A10.615,10.615,0,0,1,43.7,31.658c-1.917-1.769-3.1-4.718-3.1-8.994a11.353,11.353,0,0,1,3.1-8.551,10.173,10.173,0,0,1,7.372-2.506,10.321,10.321,0,0,1,7.519,2.654,11.353,11.353,0,0,1,2.949,8.4c0,4.276-1.032,7.077-2.949,8.7a10.615,10.615,0,0,1-7.519,2.506Zm0-20.641A5.013,5.013,0,0,0,46.8,15.145c-1.179,1.622-1.769,3.981-1.769,7.667s.737,6.192,1.917,7.814a5.6,5.6,0,0,0,8.4,0c1.179-1.474,1.917-3.981,1.917-7.667s-.59-6.045-1.769-7.667a5.013,5.013,0,0,0-4.128-1.917Z" transform="translate(17.777 -0.69)"/>
  <path id="パス_103601" data-name="パス 103601" d="M63.435,15.138c1.769-2.359,3.244-3.538,5.16-3.538A3.538,3.538,0,0,1,71.1,12.632a3.1,3.1,0,0,1,1.032,2.212c0,1.179-.59,1.917-1.622,1.917s-1.474-.442-1.769-1.474-.737-1.622-1.474-1.622-2.359,1.327-3.981,3.686v11.5c0,2.8.295,3.244,2.949,3.244v1.327H56.8V32.094c2.359,0,2.506-.295,2.506-3.244V17.792c0-2.8-.295-2.949-2.506-2.949V13.664A16.218,16.218,0,0,0,62.7,11.6l.442.295v3.244Z" transform="translate(25.469 -0.683)"/>
  <path id="パス_103602" data-name="パス 103602" d="M101.926,29.149c0,2.654.295,2.949,2.359,2.949v1.327H95.438V32.1c2.064,0,2.359-.295,2.359-2.8V19.418a9.878,9.878,0,0,0-.737-4.128,2.949,2.949,0,0,0-2.8-1.622c-2.064,0-3.833,1.474-5.455,3.833V29.149c0,2.8.295,2.949,2.359,2.949v1.327H82.317V32.1c2.064,0,2.359-.295,2.359-2.8V19.565a8.846,8.846,0,0,0-.737-4.423,2.949,2.949,0,0,0-2.654-1.474c-1.769,0-3.391,1.327-5.455,3.833V29c0,2.8.147,3.1,2.359,3.1v1.327H68.9V32.1c2.654,0,2.8-.295,2.8-3.244V17.943c0-2.8-.295-3.1-2.8-3.1V13.668A16.218,16.218,0,0,0,75.092,11.6l.59.295v3.244h0A9.583,9.583,0,0,1,82.464,11.6a6.487,6.487,0,0,1,4.128,1.179,5.013,5.013,0,0,1,1.622,2.506h.147A9.288,9.288,0,0,1,95.438,11.6a5.9,5.9,0,0,1,4.571,1.769c1.179,1.179,1.622,2.949,1.622,5.75Z" transform="translate(31.209 -0.687)"/>
  <path id="パス_103603" data-name="パス 103603" d="M111.9,28.954c0,2.212.442,3.1,1.474,3.1l1.327-.295L115,33.082a7.814,7.814,0,0,1-3.244.59,3.244,3.244,0,0,1-3.538-2.359h-.147a9.141,9.141,0,0,1-6.782,2.654,7.224,7.224,0,0,1-4.423-1.474A5.013,5.013,0,0,1,94.8,28.364a5.9,5.9,0,0,1,2.949-5.308,21.526,21.526,0,0,1,7.077-2.654l2.8-.737V17.749a6.487,6.487,0,0,0-.737-3.244,3.686,3.686,0,0,0-3.244-1.327,4.276,4.276,0,0,0-3.1,1.179,5.75,5.75,0,0,0-1.474,2.212A1.769,1.769,0,0,1,97.16,17.9a1.474,1.474,0,0,1-1.622-1.622,4.423,4.423,0,0,1,2.506-3.391,11.942,11.942,0,0,1,5.75-1.179c3.244,0,4.865.59,6.192,1.917a6.635,6.635,0,0,1,1.622,4.865Zm-4.128-7.667a21.231,21.231,0,0,0-5.6,2.212,4.718,4.718,0,0,0-2.949,4.276,3.981,3.981,0,0,0,1.032,2.949A3.686,3.686,0,0,0,103.2,31.9a6.635,6.635,0,0,0,4.718-2.212Z" transform="translate(43.494 -0.64)"/>
  <path id="パス_103604" data-name="パス 103604" d="M109.4,14.435c3.1-.295,4.571-2.212,5.6-6.635h1.327v6.192h5.16v1.622h-5.308V30.358c0,2.359.737,3.538,2.359,3.538a4.718,4.718,0,0,0,2.949-1.032l.885,1.179a7.519,7.519,0,0,1-5.16,1.769c-2.654,0-5.16-1.179-5.16-5.308V15.762H109.4Z" transform="translate(50.421 -2.486)"/>
  <path id="パス_103605" data-name="パス 103605" d="M128.019,31.554c0,2.8.147,3.244,3.244,3.244v1.327H120.5V34.8c3.244,0,3.391-.442,3.391-3.244V20.5c0-2.8-.147-2.949-3.391-2.949V16.368a19.9,19.9,0,0,0,7.077-2.064l.442.295ZM125.66,5.9a2.654,2.654,0,0,1,2.506,2.949,2.506,2.506,0,1,1-5.013,0A2.654,2.654,0,0,1,125.66,5.9Z" transform="translate(55.686 -3.387)"/>
  <path id="パス_103606" data-name="パス 103606" d="M139.928,34.017a10.615,10.615,0,0,1-7.224-2.359c-1.917-1.769-3.1-4.718-3.1-8.994a11.353,11.353,0,0,1,3.1-8.551,10.173,10.173,0,0,1,7.372-2.506,10.321,10.321,0,0,1,7.519,2.654,11.353,11.353,0,0,1,2.949,8.4c0,4.276-1.032,7.077-2.949,8.7a10.615,10.615,0,0,1-7.519,2.506Zm0-20.641a5.013,5.013,0,0,0-4.128,1.917c-1.179,1.622-1.769,3.981-1.769,7.667s.737,6.192,1.917,7.814a5.6,5.6,0,0,0,8.4,0c1.179-1.474,1.917-3.981,1.917-7.667s-.59-6.045-1.769-7.667a5.013,5.013,0,0,0-4.128-1.917Z" transform="translate(59.995 -0.69)"/>
  <path id="パス_103607" data-name="パス 103607" d="M165.951,29.006c0,2.654.295,3.1,2.212,3.1v1.327h-8.7V32.1c2.212,0,2.359-.295,2.359-3.244V18.538a5.9,5.9,0,0,0-1.032-4.128,3.244,3.244,0,0,0-2.506-.885c-1.769,0-3.833,1.622-5.6,4.128V28.711c0,2.949.147,3.244,2.212,3.244v1.327H145.9V31.954c2.506,0,2.654-.295,2.654-3.244V17.948c0-2.8-.295-3.244-2.654-3.1V13.672a15.628,15.628,0,0,0,6.045-2.064l.59.295v3.538h.147a9.141,9.141,0,0,1,6.929-3.833,6.487,6.487,0,0,1,4.718,1.474A6.782,6.782,0,0,1,166.1,18.39Z" transform="translate(67.735 -0.691)"/>
  <path id="パス_103608" data-name="パス 103608" d="M195.3,32.081c1.769,2.654,2.506,2.949,4.57,2.949V36.5h-6.487L184.39,22.055h-4.276v9.583c0,3.1.295,3.391,3.538,3.391V36.5H172.3V35.029c3.244,0,3.538-.295,3.538-3.391V9.965c0-3.1-.295-3.391-3.538-3.391V5.1h12.237c4.423,0,6.929.442,9.288,2.064a7.077,7.077,0,0,1,3.1,6.045,7.667,7.667,0,0,1-2.506,5.6,11.5,11.5,0,0,1-6.045,2.654ZM179.967,20.286h3.538a10.468,10.468,0,0,0,6.93-1.917,6.045,6.045,0,0,0,2.064-5.16,5.6,5.6,0,0,0-2.064-4.571,9.141,9.141,0,0,0-6.045-1.622h-3.244c-1.032,0-1.179.295-1.179,2.654Z" transform="translate(80.258 -3.766)"/>
  <path id="パス_103609" data-name="パス 103609" d="M195.937,22.513a12.827,12.827,0,0,0,1.622,7.077,5.6,5.6,0,0,0,4.718,2.654,6.782,6.782,0,0,0,4.128-1.327,7.372,7.372,0,0,0,2.359-2.8l1.474.737a10.173,10.173,0,0,1-2.949,3.391,9.289,9.289,0,0,1-5.6,1.622,9.583,9.583,0,0,1-7.519-3.1,13.564,13.564,0,0,1-2.359-8.551,11.8,11.8,0,0,1,2.949-8.109,9.288,9.288,0,0,1,6.487-2.506,8.4,8.4,0,0,1,6.487,2.654,13.122,13.122,0,0,1,2.506,8.109Zm9.878-1.622a11.057,11.057,0,0,0-1.327-5.75,3.981,3.981,0,0,0-3.391-1.917,4.571,4.571,0,0,0-3.538,1.917,10.468,10.468,0,0,0-1.622,5.75Z" transform="translate(89.499 -0.685)"/>
  <path id="パス_103610" data-name="パス 103610" d="M215.663,33.821,208,16.276c-1.179-2.654-1.474-2.949-3.1-2.949V12h8.994v1.327c-2.212,0-2.359.442-1.622,2.359l5.16,12.827h.147l5.455-13.564c.59-1.327.442-1.769-1.622-1.769V12h6.192v1.327c-1.327,0-1.769.147-2.506,2.212l-7.667,18.282Z" transform="translate(95.722 -0.493)"/>
  <path id="パス_103611" data-name="パス 103611" d="M231.228,34.017A10.615,10.615,0,0,1,224,31.658c-1.917-1.769-3.1-4.718-3.1-8.994a11.352,11.352,0,0,1,3.1-8.551,10.173,10.173,0,0,1,7.372-2.506,10.321,10.321,0,0,1,7.519,2.654,11.353,11.353,0,0,1,2.949,8.4c0,4.276-1.032,7.077-2.949,8.7a10.615,10.615,0,0,1-7.519,2.506Zm0-20.641a5.013,5.013,0,0,0-4.276,1.769c-1.179,1.622-1.769,3.981-1.769,7.667S225.92,29,227.1,30.626a5.6,5.6,0,0,0,8.4,0c1.179-1.474,1.917-3.981,1.917-7.667s-.59-6.045-1.769-7.667a5.013,5.013,0,0,0-4.128-1.917Z" transform="translate(103.304 -0.69)"/>
  <path id="パス_103612" data-name="パス 103612" d="M240.044,10.345c0-2.654-.147-2.949-3.244-2.949V6.217a20.2,20.2,0,0,0,6.93-1.917l.59.295V32.313c0,2.8.147,3.244,3.244,3.244v1.327H236.947V35.556c3.244,0,3.391-.442,3.391-3.244Z" transform="translate(110.854 -4.146)"/>
  <path id="パス_103613" data-name="パス 103613" d="M267.81,33.273h-2.949l-3.1.59-.442-.295V30.619h-.147a8.7,8.7,0,0,1-6.782,3.244,6.487,6.487,0,0,1-4.571-1.474c-1.327-1.179-2.064-3.244-2.064-6.192v-8.4c0-2.654-.147-2.949-2.359-2.949V13.664a18.577,18.577,0,0,0,5.9-2.064l.59.295V25.754a7.814,7.814,0,0,0,1.032,4.718,3.391,3.391,0,0,0,2.949,1.327c2.064,0,3.686-1.179,5.308-3.244V17.792c0-2.8-.147-2.949-2.359-2.949V13.664a17.987,17.987,0,0,0,5.9-2.064l.59.295V29c0,2.949.147,3.244,2.654,3.244Z" transform="translate(114.933 -0.683)"/>
  <path id="パス_103614" data-name="パス 103614" d="M261.9,14.435c3.1-.295,4.571-2.212,5.6-6.635h1.327v6.192h5.013v1.622h-5.16V30.358c0,2.359.737,3.538,2.359,3.538a4.718,4.718,0,0,0,2.949-1.032l.885,1.179a7.519,7.519,0,0,1-5.16,1.769c-2.654,0-5.16-1.179-5.16-5.308V15.762H261.9Z" transform="translate(122.76 -2.486)"/>
  <path id="パス_103615" data-name="パス 103615" d="M280.519,31.554c0,2.8.295,3.244,3.244,3.244v1.327H273V34.8c3.244,0,3.391-.442,3.391-3.244V20.5c0-2.8-.147-2.949-3.391-2.949V16.368a19.9,19.9,0,0,0,7.077-2.064l.442.295ZM278.16,5.9a2.654,2.654,0,0,1,2.506,2.949,2.506,2.506,0,1,1-5.013,0A2.654,2.654,0,0,1,278.16,5.9Z" transform="translate(128.026 -3.387)"/>
  <path id="パス_103616" data-name="パス 103616" d="M292.428,34.017a10.615,10.615,0,0,1-7.224-2.359c-1.917-1.769-3.1-4.718-3.1-8.994a11.352,11.352,0,0,1,3.1-8.551,10.173,10.173,0,0,1,7.372-2.506,10.32,10.32,0,0,1,7.519,2.654,11.353,11.353,0,0,1,2.949,8.4c0,4.276-1.032,7.077-2.8,8.7a10.615,10.615,0,0,1-7.519,2.506Zm0-20.641a5.013,5.013,0,0,0-4.128,1.917c-1.18,1.622-1.769,3.981-1.769,7.667s.737,6.192,1.917,7.814a5.6,5.6,0,0,0,8.4,0c1.179-1.474,1.917-3.981,1.917-7.667s-.59-6.045-1.769-7.667a5.013,5.013,0,0,0-4.128-1.917Z" transform="translate(132.335 -0.69)"/>
  <path id="パス_103617" data-name="パス 103617" d="M317.951,29.006c0,2.654.147,3.1,2.211,3.1v1.327h-8.7V32.1c2.212,0,2.359-.295,2.359-3.244V18.538a5.9,5.9,0,0,0-1.032-4.128,3.244,3.244,0,0,0-2.506-.885c-1.769,0-3.833,1.622-5.6,4.128V28.711c0,2.949.147,3.244,2.212,3.244v1.327H297.9V31.954c2.506,0,2.654-.295,2.654-3.244V17.948c0-2.8-.295-3.244-2.654-3.1V13.672a15.628,15.628,0,0,0,6.045-2.064l.59.295v3.538h.147a9.141,9.141,0,0,1,6.93-3.833,6.487,6.487,0,0,1,4.718,1.474A6.782,6.782,0,0,1,318.1,18.39Z" transform="translate(139.837 -0.691)"/>
</svg>
