<svg id="グループ_90520" data-name="グループ 90520" xmlns="http://www.w3.org/2000/svg" xmlns:xlink="http://www.w3.org/1999/xlink" width="420" height="620.343" viewBox="0 0 420 620.343">
  <defs>
    <clipPath id="clip-path">
      <rect id="長方形_16828" data-name="長方形 16828" width="420" height="620.343" fill="none"/>
    </clipPath>
  </defs>
  <rect id="長方形_16812" data-name="長方形 16812" width="419.647" height="58.291" transform="translate(0.176 87.516)" fill="#237593"/>
  <rect id="長方形_16813" data-name="長方形 16813" width="419.647" height="432.997" transform="translate(0.176 187.346)" fill="#dee2e5"/>
  <rect id="長方形_16814" data-name="長方形 16814" width="344.374" height="69.182" transform="translate(37.813 221.751)" fill="#002060"/>
  <rect id="長方形_16815" data-name="長方形 16815" width="420" height="45.894" transform="translate(0 0.001)" fill="#002060"/>
  <g id="グループ_90521" data-name="グループ 90521">
    <g id="グループ_90520-2" data-name="グループ 90520" clip-path="url(#clip-path)">
      <path id="パス_220671" data-name="パス 220671" d="M145.94,17.76a11.735,11.735,0,0,1-.89,1.75,4.465,4.465,0,0,0-1.044-.813,9.229,9.229,0,0,0,1.535-4.161l1.29.322a2.777,2.777,0,0,0-.077.307c-.061.2-.123.415-.169.615-.107.384-.154.552-.215.752h1.444v-1.2a7.866,7.866,0,0,0-.093-1.4h1.49a7.452,7.452,0,0,0-.093,1.382v1.213h1.935a9.553,9.553,0,0,0,1.55-.092v1.4a12.116,12.116,0,0,0-1.55-.077h-1.935v2.119h2.4a10.617,10.617,0,0,0,1.566-.092V21.23a14.157,14.157,0,0,0-1.566-.077h-1.965a10.982,10.982,0,0,0,3.93,3.992,5.281,5.281,0,0,0-.89,1.274,12.347,12.347,0,0,1-3.546-4.1c.046.553.061,1.135.061,1.55V26.1a11.676,11.676,0,0,0,.092,1.673h-1.474a11.952,11.952,0,0,0,.093-1.673v-2.15c0-.4.015-.983.061-1.581a11.223,11.223,0,0,1-3.731,4.115,6.088,6.088,0,0,0-.814-1.183,10.384,10.384,0,0,0,3.992-4.145h-1.275a11.386,11.386,0,0,0-1.6.092v-.537a5.385,5.385,0,0,0-.629,1.151,9.767,9.767,0,0,1-1-2.18c.015.246.015.43.03.522,0,.261.031.845.047,1.72v4.022a13.072,13.072,0,0,0,.091,1.812h-1.474a12.984,12.984,0,0,0,.093-1.812V22.289c0-.752.015-1.228.092-2.195a12.247,12.247,0,0,1-1.75,4.038,5.051,5.051,0,0,0-.645-1.352,13.04,13.04,0,0,0,2.15-4.789h-.707a7.757,7.757,0,0,0-1.029.06V16.732a5.567,5.567,0,0,0,1.029.061h.86v-1.32a8.568,8.568,0,0,0-.093-1.551h1.459a12.64,12.64,0,0,0-.076,1.536v1.335h.475a4.28,4.28,0,0,0,.86-.061v1.3a5.832,5.832,0,0,0-.844-.045h-.445a10.322,10.322,0,0,0,1.5,2.686v-.89a11.228,11.228,0,0,0,1.6.092h1.767V17.76Z" fill="#fff"/>
      <path id="パス_220672" data-name="パス 220672" d="M157.266,18.144a10.628,10.628,0,0,0-1.735.077V16.763a12.454,12.454,0,0,0,1.719.091h8.783a13.189,13.189,0,0,0,1.734-.091v1.458a11.88,11.88,0,0,0-1.719-.077H162.3V21h3.071a12.717,12.717,0,0,0,1.551-.076v1.428a9.761,9.761,0,0,0-1.52-.077h-3.1v3.454h4.3a14.82,14.82,0,0,0,1.841-.092v1.5a11.9,11.9,0,0,0-1.811-.107h-9.794a12.9,12.9,0,0,0-1.889.107v-1.5a13.835,13.835,0,0,0,1.842.092h4.053V22.274h-2.809a13.783,13.783,0,0,0-1.628.077V20.923a9.07,9.07,0,0,0,1.535.076h2.9V18.144Zm2.763-4.36a23.285,23.285,0,0,1,3.762,1.719l-.906,1.136a16.725,16.725,0,0,0-3.854-1.827Z" fill="#fff"/>
      <path id="パス_220673" data-name="パス 220673" d="M174.7,20.8a1.513,1.513,0,1,1-1.52-1.52,1.5,1.5,0,0,1,1.52,1.52" fill="#fff"/>
      <path id="パス_220674" data-name="パス 220674" d="M179.843,15.458a10.148,10.148,0,0,0-.092-1.535h1.52a10.07,10.07,0,0,0-.092,1.519v1.3h.86a4.182,4.182,0,0,0,.813-.061v1.32a6.1,6.1,0,0,0-.844-.046h-.829v2.564c.476-.169.767-.291,1.4-.568V21.2c-.615.276-.906.4-1.4.583v4.529a1.042,1.042,0,0,1-.507,1.044,3.948,3.948,0,0,1-1.551.215c-.184,0-.337-.016-.767-.031a3.826,3.826,0,0,0-.292-1.32,9.347,9.347,0,0,0,1.321.107c.368,0,.46-.091.46-.444V22.275c-.338.122-.691.229-1.013.353-.169.061-.246.091-.737.26l-.307-1.381a13.331,13.331,0,0,0,2.057-.537V17.96h-.829a7.23,7.23,0,0,0-1.074.062V16.671a7.022,7.022,0,0,0,1.074.076h.829Zm10.639,5.588a5.352,5.352,0,0,0-.414.63,12.616,12.616,0,0,1-2.257,2.917A10.507,10.507,0,0,0,191.7,26.22a4.68,4.68,0,0,0-.783,1.351,12.112,12.112,0,0,1-4.175-2.072,13.11,13.11,0,0,1-4.361,2.118,3.461,3.461,0,0,0-.783-1.259,12.186,12.186,0,0,0,4.131-1.765,9.4,9.4,0,0,1-2.012-3.117c-.307.015-.568.031-.8.062V20.2a8.444,8.444,0,0,0,1.212.077h4.668a4.147,4.147,0,0,0,.921-.077Zm-5.066-5.45c-.031,2.21-.644,3.5-2.165,4.452a3.108,3.108,0,0,0-1.013-.936,3.194,3.194,0,0,0,1.6-1.75,8.06,8.06,0,0,0,.276-2.488,5.19,5.19,0,0,0-.046-.6,7.951,7.951,0,0,0,1,.046h2.855a7.239,7.239,0,0,0,.968-.046,6.945,6.945,0,0,0-.047,1v2.349c0,.323.062.353.63.353s.737-.06.8-.26a9.93,9.93,0,0,0,.077-1.658,3.339,3.339,0,0,0,1.244.6c-.154,2.364-.322,2.548-2.242,2.548-1.5,0-1.811-.184-1.811-1.075V15.6Zm-.322,5.88a7.167,7.167,0,0,0,1.689,2.287,8.84,8.84,0,0,0,1.888-2.287Z" fill="#fff"/>
      <path id="パス_220675" data-name="パス 220675" d="M199.167,16.087a9.631,9.631,0,0,1-1.412,1.29,2.718,2.718,0,0,0-.876-.845,6.016,6.016,0,0,0,2.4-2.747l1.321.291c-.322.522-.461.722-.63.968h4.56a8.2,8.2,0,0,0,1.321-.062l.768.6-.078.107-.092.108a.69.69,0,0,1-.092.138,7.442,7.442,0,0,1-1.458,1.643,7.453,7.453,0,0,0-1.167-.507,4.2,4.2,0,0,0,1.151-.983h-2.656c.491,1.535,2.181,2.456,4.852,2.656a4.132,4.132,0,0,0-.568,1.228A11.249,11.249,0,0,1,205,19.6c-.03.292-.046.891-.046,1.5v2.749c.016,1,.031,1.35.061,1.565-.383-.03-.966-.045-1.627-.045h-.906a11.474,11.474,0,0,0,4.437,1.182,5.885,5.885,0,0,0-.768,1.167,12.527,12.527,0,0,1-4.8-1.674l.906-.675h-4.529l.937.675a12.508,12.508,0,0,1-4.653,1.689,4.09,4.09,0,0,0-.766-1.136,10.379,10.379,0,0,0,4.221-1.228h-.737c-.691,0-1.228.015-1.643.045a12.567,12.567,0,0,0,.062-1.5V21.046c0-.614-.016-1.3-.047-1.581.231.031.861.045,1.536.045h1.106a3.54,3.54,0,0,0-.661-1c2.149-.2,3.47-1.044,3.777-2.426Zm-1.72,2.027c-1.013.491-1.765.8-2.931,1.259-.292.123-.4.169-.661.291l-.506-1.32a15.219,15.219,0,0,0,3.73-1.335Zm-1.243-1.52a10.481,10.481,0,0,0-2.41-1.49l.813-.951a15.467,15.467,0,0,1,2.442,1.413Zm.246,4.591h7.2v-.706h-7.2Zm0,1.6h7.2v-.706h-7.2Zm0,1.612h7.2v-.721h-7.2Zm7.016-4.883c.721,0,.768,0,1.152-.014a5.152,5.152,0,0,1-3.041-2.272c-.629,1.2-1.75,1.9-3.638,2.286Z" fill="#fff"/>
      <path id="パス_220676" data-name="パス 220676" d="M215.528,18.6a9.651,9.651,0,0,1-.967.753,6.135,6.135,0,0,1,1.4,2.1,9.107,9.107,0,0,1,.875,3.792,2.533,2.533,0,0,1-.63,2.011,2.46,2.46,0,0,1-1.581.353c-.414,0-1.043-.031-1.673-.093a4.168,4.168,0,0,0-.353-1.366,9.859,9.859,0,0,0,1.9.231c.829,0,1.013-.277,1.013-1.6a4.429,4.429,0,0,0-.062-.767,21.55,21.55,0,0,1-6,3.086,5.742,5.742,0,0,0-.8-1.168,18.436,18.436,0,0,0,6.494-3.146,7.9,7.9,0,0,0-.384-1.014,18.8,18.8,0,0,1-5.266,2.441,3.752,3.752,0,0,0-.752-1.121,18.366,18.366,0,0,0,5.481-2.3,6.5,6.5,0,0,0-.675-.8,17.146,17.146,0,0,1-3.761,1.474,3.828,3.828,0,0,0-.706-1.136,13.883,13.883,0,0,0,4.743-1.735h-1.5a14.1,14.1,0,0,0-1.474.076V17.392a8.882,8.882,0,0,0,1.474.077h6.248a8.544,8.544,0,0,0,1.474-.077v1.289a13.678,13.678,0,0,0-1.474-.076h-1.29a12.274,12.274,0,0,0,.814,2.5,8.89,8.89,0,0,0,2.1-2.042l1.183.937c-.03.031-.062.062-.077.062l-.138.122a7.294,7.294,0,0,0-.661.568,19.755,19.755,0,0,1-1.827,1.474,9.836,9.836,0,0,0,3.715,3.424,8.661,8.661,0,0,0-1.012,1.213c-2.9-2-4.437-4.376-5.312-8.26Zm-.921-3.823a4.348,4.348,0,0,0-.092-.906H216.1a3.95,3.95,0,0,0-.092.906v.384h4.283a14.519,14.519,0,0,0,1.6-.062,6.237,6.237,0,0,0-.062,1.029v1.09a6.7,6.7,0,0,0,.062,1.045h-1.366v-1.9H210.369v1.9H209a6.43,6.43,0,0,0,.062-1.06V16.133A6.612,6.612,0,0,0,209,15.1a14.892,14.892,0,0,0,1.6.062h4.007Z" fill="#fff"/>
      <path id="パス_220677" data-name="パス 220677" d="M231.168,25.805c2.994-.859,4.36-2.5,4.36-4.806a4.074,4.074,0,0,0-4.069-4.16,15.917,15.917,0,0,1-1.673,7.139c-.813,1.52-1.766,2.057-2.9,2.057-1.551,0-2.856-1.458-2.856-4.221,0-3.271,2.611-6.372,6.909-6.372,3.607,0,6.157,2.288,6.157,5.557,0,3.148-1.874,5.175-5.068,6.2ZM225.549,21.8c0,1.965.753,2.671,1.382,2.671.537,0,1.028-.245,1.519-1.151a14.5,14.5,0,0,0,1.474-6.433,4.877,4.877,0,0,0-4.375,4.913" fill="#fff"/>
      <path id="パス_220678" data-name="パス 220678" d="M240.544,15.349a7.55,7.55,0,0,0-.091-1.427h1.519a10.986,10.986,0,0,0-.077,1.427v.2h2.318a6.149,6.149,0,0,0,1.229-.091v1.381a7.03,7.03,0,0,0-1.229-.077H241.9v2.011c.953-.138,1.735-.276,3.624-.691l.015,1.152c-1.98.476-2.686.614-5.189,1.044a11.12,11.12,0,0,0-1.336.261l-.185-1.443c.262,0,.491-.015.706-.031.123-.015.462-.046,1.014-.108ZM248.988,21a14.056,14.056,0,0,0,1.612-.061,13.986,13.986,0,0,0-.062,1.642v3.548a9.874,9.874,0,0,0,.094,1.565h-1.414v-.645h-7v.645h-1.4a10.347,10.347,0,0,0,.091-1.565V22.58a14.693,14.693,0,0,0-.061-1.642,13.78,13.78,0,0,0,1.6.061h1.9a6.9,6.9,0,0,0,.568-1.336l1.444.293A6.528,6.528,0,0,1,245.81,21Zm-6.77,2.4h7V22.1h-7Zm0,2.487h7V24.5h-7Zm5.251-7.6c0,.445.183.506,1.689.506.982,0,1.442-.076,1.6-.245a4.238,4.238,0,0,0,.308-1.858,3.1,3.1,0,0,0,1.259.461c-.246,2.7-.4,2.84-3.241,2.84a12.617,12.617,0,0,1-1.886-.092c-.785-.138-1.076-.43-1.076-1.106V15.227a9.59,9.59,0,0,0-.077-1.305h1.506a6.281,6.281,0,0,0-.077,1.259V15.9a12.742,12.742,0,0,0,3.807-1.6l.906,1.121c-.585.245-.723.291-.983.4a22.323,22.323,0,0,1-3.73,1.259Z" fill="#fff"/>
      <path id="パス_220679" data-name="パス 220679" d="M262.755,21.521a16.024,16.024,0,0,1-2.2-3.024,52.277,52.277,0,0,1-5.542.445,4.056,4.056,0,0,1-.183-1.166,1.815,1.815,0,0,1,.015-.293,42.568,42.568,0,0,0,5.036-.307,22.467,22.467,0,0,1-1.059-2.839,4.412,4.412,0,0,1,1.472-.246,16.65,16.65,0,0,0,1.076,2.886,32.719,32.719,0,0,0,4.113-.875,2.8,2.8,0,0,1,.277,1.228v.184c-1.121.292-2.41.537-3.731.768a18.915,18.915,0,0,0,3.163,4.053,2.672,2.672,0,0,1-.845,1.09,10.683,10.683,0,0,0-4.466-1.029c-2.135,0-2.81.829-2.81,1.689,0,1.044.936,1.8,3.731,1.8a20.238,20.238,0,0,0,2.18-.124,2.958,2.958,0,0,1,.168,1.014,3.875,3.875,0,0,1-.03.415,15.4,15.4,0,0,1-2.318.153c-3.639,0-5.251-1.321-5.251-3.27,0-1.474,1.289-2.964,4.253-2.964a9.019,9.019,0,0,1,2.9.462Z" fill="#fff"/>
      <path id="パス_220680" data-name="パス 220680" d="M273.59,16.317c-.015-.706-.03-1.443-.045-2.164a4.026,4.026,0,0,1,.751-.077,3.911,3.911,0,0,1,.753.077c-.015.706-.03,1.428-.047,2.134,1.352-.046,2.641-.123,3.93-.261a3.888,3.888,0,0,1,.094.875c0,.184-.015.368-.032.537-1.3.108-2.64.2-3.992.23,0,.645.017,1.306.017,1.874,1.473-.046,2.947-.154,4.313-.323a3.988,3.988,0,0,1,.092.876c0,.184-.015.368-.03.521-1.366.154-2.872.246-4.33.307.031.645.076,1.413.138,2.134a13.522,13.522,0,0,1,4.759,2.227,3.034,3.034,0,0,1-.95,1.274,12.988,12.988,0,0,0-3.716-2.165c0,.169.015.307.015.429,0,1.9-1.244,2.595-3.347,2.595-1.842,0-3.04-.844-3.04-2.287,0-1.228,1.213-2.395,3.531-2.395a12.242,12.242,0,0,1,1.321.062c-.062-.615-.092-1.244-.124-1.843h-.614c-1.612,0-2.931-.015-4.052-.092a3.888,3.888,0,0,1-.047-.629,4.294,4.294,0,0,1,.062-.784c1.227.093,2.456.123,3.992.123h.629c-.015-.6-.031-1.182-.031-1.873h-.521c-1.26,0-2.457-.015-3.578-.061a4.421,4.421,0,0,1-.046-.66,4.1,4.1,0,0,1,.061-.768c1.168.062,2.38.107,3.516.107Zm-1.166,7.677c-1.429,0-2.027.552-2.027,1.121,0,.6.537.952,1.519.952,1.229,0,1.92-.369,1.92-1.352,0-.138,0-.322-.015-.568a6.388,6.388,0,0,0-1.4-.153" fill="#fff"/>
      <path id="パス_220681" data-name="パス 220681" d="M159.39,101.23a13.918,13.918,0,0,0-1.811.093V99.91a12.506,12.506,0,0,0,1.888.107h4.1v-.076a6.831,6.831,0,0,0-.107-1.367h1.55a7.228,7.228,0,0,0-.107,1.367v.076h4.268a10.7,10.7,0,0,0,1.935-.107v1.413a14.887,14.887,0,0,0-1.858-.093H164.9v1h3.209a10.3,10.3,0,0,0,1.673-.077c-.046.431-.046.676-.061,1.551v2.564a11.006,11.006,0,0,0,.061,1.551,14.179,14.179,0,0,0-1.689-.077h-2.1a11.164,11.164,0,0,0,5.6,2.886,8.167,8.167,0,0,0-.752,1.336,12.959,12.959,0,0,1-5.973-3.715c.016.322.031.859.031,1.1v1.259a10.294,10.294,0,0,0,.107,1.7h-1.55a10.432,10.432,0,0,0,.107-1.7v-1.259a10.659,10.659,0,0,1,.047-1.075,12.434,12.434,0,0,1-5.666,3.685,5.383,5.383,0,0,0-.736-1.275,11.686,11.686,0,0,0,5.312-2.947h-1.874a11.134,11.134,0,0,0-1.719.077,1.233,1.233,0,0,0,.016-.185l.03-.23a1.544,1.544,0,0,0,.016-.338v-3.331a13.777,13.777,0,0,0-.062-1.582,10.576,10.576,0,0,0,1.658.077h2.978v-1Zm.937,3.194h3.239v-1.09h-3.239Zm0,2.241h3.239V105.5h-3.239Zm4.575-2.241h3.486v-1.09H164.9Zm0,2.241h3.486V105.5H164.9Z" fill="#fff"/>
      <path id="パス_220682" data-name="パス 220682" d="M177.318,107.986a12.367,12.367,0,0,1-3.593,3.822,4.485,4.485,0,0,0-.921-1.09,8.176,8.176,0,0,0,3.332-3.423Zm1.536-8.214a6.136,6.136,0,0,0-.093-1.167h1.582a5.541,5.541,0,0,0-.093,1.152v.491h4.437a9.452,9.452,0,0,0,1.72-.107V101.6a9.855,9.855,0,0,0-1.643-.092H174.631a8.28,8.28,0,0,0-1.612.092v-1.458a9.732,9.732,0,0,0,1.75.107h4.085Zm-2.718,7.093a10.056,10.056,0,0,0-1.351.061,8.372,8.372,0,0,0,.061-1.212v-1.981l-.015-.66a2.623,2.623,0,0,0-.016-.354l-.015-.107-.015-.122a.694.694,0,0,0,.139.015l.2.015c.061.015.6.031,1.013.031h6.939a9.4,9.4,0,0,0,1.382-.061,9,9,0,0,0-.061,1.243v1.981a11.788,11.788,0,0,0,.046,1.2,12.583,12.583,0,0,0-1.367-.046H180.45V110.8c0,1.043-.46,1.335-2.042,1.335-.245,0-.614-.016-1.29-.031a3.874,3.874,0,0,0-.383-1.351,11.126,11.126,0,0,0,1.657.138c.538,0,.661-.061.661-.337v-3.685Zm.046-1.228h6.878v-1.858h-6.878Zm6.8,1.658a9.034,9.034,0,0,0,3.562,3.332,5.268,5.268,0,0,0-.906,1.181A13.254,13.254,0,0,1,181.878,108Z" fill="#fff"/>
      <path id="パス_220683" data-name="パス 220683" d="M188.121,101.108a6.448,6.448,0,0,0,1.214.076h3.024a8,8,0,0,0,1.213-.061v1.32a6.336,6.336,0,0,0-1.121-.061h-3.116a8.835,8.835,0,0,0-1.214.061Zm.461,11.268a9.9,9.9,0,0,0,.092-1.458v-2.15a7.123,7.123,0,0,0-.076-1.228,8.579,8.579,0,0,0,1.182.062h2.272a6.565,6.565,0,0,0,1.044-.047,9.788,9.788,0,0,0-.046,1.121v2.3a9.227,9.227,0,0,0,.046,1.2h-1.228v-.553h-2v.752Zm.031-13.357a8.776,8.776,0,0,0,1.213.062h2.165a8.91,8.91,0,0,0,1.212-.062v1.244a8.513,8.513,0,0,0-1.212-.061h-2.165a8.809,8.809,0,0,0-1.213.061Zm.061,4.329a7.8,7.8,0,0,0,1.029.047h2.425a7.586,7.586,0,0,0,1-.047v1.2a8.8,8.8,0,0,0-1-.047H189.7a8.835,8.835,0,0,0-1.029.047Zm0,2.089a8.525,8.525,0,0,0,1.029.046h2.41a8.233,8.233,0,0,0,1.014-.046v1.2a6.127,6.127,0,0,0-1.029-.046h-2.41a7.9,7.9,0,0,0-1.014.046Zm1.2,5.082h2v-1.827h-2Zm7.553-9.98h-1.858a11.351,11.351,0,0,0-1.642.092V99.188a10.875,10.875,0,0,0,1.658.092h4.56a10.929,10.929,0,0,0,1.643-.092v1.443a10.926,10.926,0,0,0-1.643-.092h-1.412v3.915H200.1a8.9,8.9,0,0,0,1.474-.092v1.443a8.523,8.523,0,0,0-1.474-.092h-1.366v4.744H200.4a12.1,12.1,0,0,0,1.612-.092v1.458a10.694,10.694,0,0,0-1.627-.092h-5.251a13.2,13.2,0,0,0-1.627.077v-1.413a6.083,6.083,0,0,0,1.044.062v-5.941a10.783,10.783,0,0,0-.093-1.6h1.474a10.1,10.1,0,0,0-.092,1.6v5.941h1.581Z" fill="#fff"/>
      <path id="パス_220684" data-name="パス 220684" d="M214.093,105.161a9.9,9.9,0,0,0,3.393,2.18,4.607,4.607,0,0,0-.829,1.32,12.063,12.063,0,0,1-2.5-1.673c-.016.246-.016.277-.031.522a11.427,11.427,0,0,1-.568,3.93c-.276.492-.722.661-1.766.661-.4,0-.983-.016-1.6-.062a4.5,4.5,0,0,0-.307-1.366,12.552,12.552,0,0,0,1.857.169c.415,0,.615-.093.691-.323a12.955,12.955,0,0,0,.308-2.733H210.01c-.415,2.349-2.027,3.9-4.775,4.668a3.58,3.58,0,0,0-.814-1.228c2.441-.538,3.869-1.72,4.191-3.44h-.583a10.553,10.553,0,0,0-1.581.092V107a14.516,14.516,0,0,1-2.319,1.565,2.931,2.931,0,0,0-.89-1.151,10.359,10.359,0,0,0,3.316-2.257h-1.3a10.361,10.361,0,0,0-1.643.093v-1.413a10.684,10.684,0,0,0,1.643.091h2.318a11.065,11.065,0,0,0,.906-1.58h-2.241a12.152,12.152,0,0,0-1.658.076v-1.366a10.342,10.342,0,0,0,1.658.092h.369a10.62,10.62,0,0,0-1.137-1.8l1.29-.43a14.21,14.21,0,0,1,1.259,2.226h.936a10.464,10.464,0,0,0,.507-2.549.412.412,0,0,0-.016-.122l1.535.169c-.061.23-.122.506-.2.814a13.778,13.778,0,0,1-.461,1.688h1.735A9.605,9.605,0,0,0,213.48,98.9l1.412.43a15.4,15.4,0,0,1-1.3,1.827h.921a10.329,10.329,0,0,0,1.674-.092v1.366a11.889,11.889,0,0,0-1.674-.076h-2.395a10.568,10.568,0,0,0,.936,1.58h2.365a10.767,10.767,0,0,0,1.658-.091v1.413a11.718,11.718,0,0,0-1.658-.093ZM212.6,106.62c.43,0,.552,0,1.121-.016a10.641,10.641,0,0,1-1.305-1.443h-4.176a10.389,10.389,0,0,1-1.336,1.428c.476.031.522.031.922.031Zm-1.013-2.688a10.261,10.261,0,0,1-.768-1.58h-.936a12.69,12.69,0,0,1-.8,1.58Z" fill="#fff"/>
      <path id="パス_220685" data-name="パス 220685" d="M225.786,100.37c-.26-.015-.336-.015-.629-.015v10.456a9.961,9.961,0,0,0,.093,1.6h-1.505a14.006,14.006,0,0,0,.093-1.6V109.26c-1,.307-2.3.645-3.256.859-.614.124-.614.124-.752.154-.322.092-.522.139-.6.17L218.863,109a9.617,9.617,0,0,0,1.244-.169v-8.475a7.247,7.247,0,0,0-1.09.077V99.051a9.969,9.969,0,0,0,1.274.076H224.9a6.981,6.981,0,0,0,1.259-.076v.982c.445.031.536.031.982.031h4.022a9.205,9.205,0,0,0,1.183-.077c-.032.261-.077.568-.108.921a18.085,18.085,0,0,1-2.242,7.017A8.8,8.8,0,0,0,233,110.657a11.068,11.068,0,0,0-.751,1.474,11.571,11.571,0,0,1-3.071-2.963,12.525,12.525,0,0,1-3.147,2.993,5.2,5.2,0,0,0-.783-1.4,10.182,10.182,0,0,0,3.163-2.84,16.063,16.063,0,0,1-1.9-6.587,3.949,3.949,0,0,0-.723.062Zm-4.343,1.874h2.4v-1.889h-2.4Zm0,2.963h2.4v-1.842h-2.4Zm0,3.378c1.042-.216,1.534-.323,2.4-.569v-1.673h-2.4Zm6.34-7.262a14.538,14.538,0,0,0,1.427,5.3,14.758,14.758,0,0,0,1.6-5.3Z" fill="#fff"/>
      <path id="パス_220686" data-name="パス 220686" d="M240.107,105.775a9.239,9.239,0,0,0,1.259-.061c-.03.307-.046.46-.061.783a13,13,0,0,1-.875,4.559c-.338.707-.92.968-2.226.968-.691,0-1.489-.047-2.425-.138a7.052,7.052,0,0,0-.323-1.474,15.294,15.294,0,0,0,2.748.291c.583,0,.844-.107,1-.414a9.783,9.783,0,0,0,.645-3.3h-4.16c-.445,0-.8.016-1.121.046a22.218,22.218,0,0,0,.721-4.544,8.924,8.924,0,0,0,1.229.061H239.8v-2.072h-3.609a10.824,10.824,0,0,0-1.519.091V99.143a10.83,10.83,0,0,0,1.551.092h3.607a12.315,12.315,0,0,0,1.412-.062c-.03.277-.045.737-.045,1.183v2.3a10.7,10.7,0,0,0,.045,1.151c-.336-.03-.736-.046-1.319-.046h-3.347c-.108.753-.262,1.519-.385,2.011Zm6.019-6.939a9.309,9.309,0,0,0-.108,1.581v10.01a11.953,11.953,0,0,0,.108,1.843H244.5a15.641,15.641,0,0,0,.092-1.858v-10a9.708,9.708,0,0,0-.092-1.581Z" fill="#fff"/>
      <path id="パス_220687" data-name="パス 220687" d="M255.1,105.729a10.526,10.526,0,0,0,.046,1.167,3.078,3.078,0,0,0-.414-.03h-.309l-.706-.016H251.11a10.869,10.869,0,0,1-1.366,5.389,4.009,4.009,0,0,0-1.121-.952c.983-1.628,1.243-3.193,1.243-7.292,0-1.137-.015-1.505-.06-2.089a14.361,14.361,0,0,0,1.58.062h2.288a12.992,12.992,0,0,0,1.474-.062,11.9,11.9,0,0,0-.046,1.275Zm-5.942-6.463a12.916,12.916,0,0,0,1.55.076H254.1a8.871,8.871,0,0,0,1.536-.076v1.412a10.4,10.4,0,0,0-1.489-.077h-3.5a12.49,12.49,0,0,0-1.49.077Zm4.653,6.4V103.15h-2.657v1.289c0,.722,0,.815-.015,1.228Zm3.76-1.2c-.183,3.823-.906,5.757-2.948,7.83a3.9,3.9,0,0,0-1.044-1.029c2.2-2.057,2.688-3.792,2.688-9.441,0-.952-.017-1.351-.062-1.858a14.164,14.164,0,0,0,5.558-1.32l.767,1.274a7,7,0,0,0-.676.184,23.712,23.712,0,0,1-4.251,1v2.073h3.622a8.659,8.659,0,0,0,1.429-.092v1.458a8.174,8.174,0,0,0-1.336-.077h-.338v6.172a8.861,8.861,0,0,0,.092,1.6h-1.521a10.452,10.452,0,0,0,.093-1.612V104.47Z" fill="#fff"/>
      <path id="パス_220688" data-name="パス 220688" d="M130.674,123.567a16.743,16.743,0,0,1,3.823,1.9l-.767,1.35a21.373,21.373,0,0,0-3.761-2Zm-.369,6.909c4.806-.721,8.246-2.855,10.287-7.338l1.321,1c-2.227,4.744-6,7.031-11.162,7.906Zm1.675-10.486a16.249,16.249,0,0,1,3.715,1.874l-.767,1.335a19.958,19.958,0,0,0-3.67-1.965Z" fill="#fff"/>
      <path id="パス_220689" data-name="パス 220689" d="M144.78,120.667a17.206,17.206,0,0,1,3.639,2.947l-1.167,1.228a21.269,21.269,0,0,0-3.469-3.116Zm-.721,9.7c4.759-1.074,8.167-3.639,9.81-7.983l1.4.829c-1.781,4.744-5.666,7.538-10.7,8.628Z" fill="#fff"/>
      <path id="パス_220690" data-name="パス 220690" d="M157.719,124.075v-1.352h4.068c.015-.444.031-.906.031-1.381v-1.765h1.55v1.734c0,.476-.016.952-.031,1.412h4.315l.8.753a50.2,50.2,0,0,1-.507,6.371c-.276,1.7-1.09,2.365-2.456,2.365a12.244,12.244,0,0,1-1.889-.154l-.168-1.535a9.67,9.67,0,0,0,1.918.2c.6,0,.937-.215,1.09-1.136a35.772,35.772,0,0,0,.431-5.511H163.23c-.46,4.1-2.2,6.632-5.282,8.4L157,131.321a8.869,8.869,0,0,0,4.683-7.246Zm9.779-4.637a10.227,10.227,0,0,1,1.658,2.472l-.952.522a10.811,10.811,0,0,0-1.566-2.5Zm1.7-.829A10.207,10.207,0,0,1,170.876,121l-.952.522a11.233,11.233,0,0,0-1.581-2.441Z" fill="#fff"/>
      <path id="パス_220691" data-name="パス 220691" d="M171.684,130.123a12.534,12.534,0,0,0,2.349-4.728l1.443.43a14.8,14.8,0,0,1-2.548,5.112Zm12.052-6.463h-4.7v7.031c0,1.336-.629,1.781-1.919,1.781a10.021,10.021,0,0,1-1.627-.138l-.215-1.489a8.781,8.781,0,0,0,1.673.169c.4,0,.568-.107.568-.507V123.66h-5.066v-1.366h5.066v-2.733h1.52v2.733h3.884v-.046a1.725,1.725,0,0,1-1.2-1.658,1.782,1.782,0,1,1,2.012,1.749Zm-1.673,1.627a20.679,20.679,0,0,1,2.594,4.867l-1.535.645a21.606,21.606,0,0,0-2.318-4.9Zm.46-4.7a.975.975,0,1,0,.968-.968.949.949,0,0,0-.968.968" fill="#fff"/>
      <rect id="長方形_16816" data-name="長方形 16816" width="12.267" height="1.597" transform="translate(187.248 125.103)" fill="#fff"/>
      <path id="パス_220692" data-name="パス 220692" d="M205.758,120.5v3.469c0,3.547-1.044,6.018-3.393,7.938l-1.136-1.075c2.149-1.613,2.963-3.731,2.963-6.97V120.5Zm4.207-.43v9.779a11.541,11.541,0,0,0,4.376-3.546l.9,1.289a14.278,14.278,0,0,1-6.018,4.269l-.844-.691v-11.1Z" fill="#fff"/>
      <path id="パス_220693" data-name="パス 220693" d="M216.225,121.572a6.423,6.423,0,0,0,1.213.076h3.024a7.983,7.983,0,0,0,1.212-.061v1.32a6.308,6.308,0,0,0-1.12-.061h-3.116a8.791,8.791,0,0,0-1.213.061Zm.459,11.268a9.891,9.891,0,0,0,.093-1.458v-2.15A7.123,7.123,0,0,0,216.7,128a8.571,8.571,0,0,0,1.181.062h2.272a6.58,6.58,0,0,0,1.045-.047,9.915,9.915,0,0,0-.048,1.121v2.3a9.277,9.277,0,0,0,.048,1.2H219.97v-.553h-1.995v.752Zm.031-13.357a8.787,8.787,0,0,0,1.213.062h2.164a8.959,8.959,0,0,0,1.215-.062v1.244a8.541,8.541,0,0,0-1.215-.061h-2.164a8.819,8.819,0,0,0-1.213.061Zm.062,4.329a7.785,7.785,0,0,0,1.028.047h2.425a7.584,7.584,0,0,0,1-.047v1.2a8.78,8.78,0,0,0-1-.047H217.8a8.8,8.8,0,0,0-1.028.047Zm0,2.089a8.5,8.5,0,0,0,1.028.046h2.411a8.216,8.216,0,0,0,1.013-.046v1.2a6.121,6.121,0,0,0-1.028-.046H217.79a7.88,7.88,0,0,0-1.013.046Zm1.2,5.082h1.995v-1.827h-1.995Zm7.554-9.98h-1.86a11.35,11.35,0,0,0-1.642.092v-1.443a10.878,10.878,0,0,0,1.657.092h4.56a10.935,10.935,0,0,0,1.644-.092V121.1a10.931,10.931,0,0,0-1.644-.092h-1.412v3.915H228.2a8.888,8.888,0,0,0,1.474-.092v1.443a8.507,8.507,0,0,0-1.474-.092h-1.367v4.744h1.675a12.074,12.074,0,0,0,1.611-.092v1.458a10.687,10.687,0,0,0-1.626-.092H223.24a13.227,13.227,0,0,0-1.627.077v-1.413a6.1,6.1,0,0,0,1.045.062V124.98a11.064,11.064,0,0,0-.093-1.6h1.473a10.38,10.38,0,0,0-.091,1.6v5.941h1.582Z" fill="#fff"/>
      <path id="パス_220694" data-name="パス 220694" d="M242.2,125.625a9.876,9.876,0,0,0,3.392,2.18,4.62,4.62,0,0,0-.829,1.321,12.114,12.114,0,0,1-2.5-1.674c-.015.246-.015.277-.03.522a11.453,11.453,0,0,1-.568,3.93c-.276.492-.721.661-1.765.661-.4,0-.983-.016-1.6-.062a4.5,4.5,0,0,0-.307-1.366,12.541,12.541,0,0,0,1.857.169c.415,0,.615-.093.691-.323a12.906,12.906,0,0,0,.307-2.732h-2.733c-.415,2.349-2.027,3.9-4.775,4.667a3.562,3.562,0,0,0-.812-1.228c2.441-.538,3.868-1.72,4.19-3.439h-.583a10.588,10.588,0,0,0-1.581.091v-.874a14.6,14.6,0,0,1-2.318,1.565,2.943,2.943,0,0,0-.891-1.151,10.359,10.359,0,0,0,3.316-2.257h-1.3a10.365,10.365,0,0,0-1.644.093v-1.413a10.652,10.652,0,0,0,1.644.092h2.318a11.127,11.127,0,0,0,.9-1.581h-2.239a12.169,12.169,0,0,0-1.659.076v-1.366a10.341,10.341,0,0,0,1.659.092h.368a10.672,10.672,0,0,0-1.136-1.8l1.289-.43a14.211,14.211,0,0,1,1.259,2.226h.936a10.459,10.459,0,0,0,.506-2.548.44.44,0,0,0-.015-.123l1.535.169c-.061.23-.123.506-.2.814a13.664,13.664,0,0,1-.46,1.688h1.734a9.671,9.671,0,0,0,1.429-2.257l1.412.43a15.027,15.027,0,0,1-1.306,1.827h.921a10.313,10.313,0,0,0,1.674-.092v1.366a11.864,11.864,0,0,0-1.674-.076h-2.4a10.453,10.453,0,0,0,.938,1.581h2.363a10.743,10.743,0,0,0,1.659-.092v1.413a11.733,11.733,0,0,0-1.659-.093Zm-1.49,1.459c.429,0,.552,0,1.12-.016a10.569,10.569,0,0,1-1.3-1.443h-4.176a10.328,10.328,0,0,1-1.336,1.428c.476.031.523.031.921.031Zm-1.013-2.687a10.231,10.231,0,0,1-.768-1.581h-.936a12.64,12.64,0,0,1-.8,1.581Z" fill="#fff"/>
      <path id="パス_220695" data-name="パス 220695" d="M253.889,120.834c-.26-.015-.336-.015-.628-.015v10.456a9.987,9.987,0,0,0,.092,1.6h-1.5a14.009,14.009,0,0,0,.093-1.6v-1.551c-1,.307-2.3.645-3.256.859-.613.124-.613.124-.751.154-.323.092-.523.139-.6.17l-.368-1.444a9.617,9.617,0,0,0,1.244-.169v-8.475a7.257,7.257,0,0,0-1.09.077v-1.381a9.969,9.969,0,0,0,1.274.076H253a6.981,6.981,0,0,0,1.259-.076v.982c.445.031.536.031.983.031h4.021a9.2,9.2,0,0,0,1.183-.077c-.032.261-.077.568-.108.921a18.075,18.075,0,0,1-2.242,7.016,8.794,8.794,0,0,0,3.009,2.733,11.066,11.066,0,0,0-.751,1.474,11.571,11.571,0,0,1-3.071-2.963,12.525,12.525,0,0,1-3.147,2.993,5.2,5.2,0,0,0-.783-1.4,10.173,10.173,0,0,0,3.163-2.841,16.054,16.054,0,0,1-1.9-6.586,3.967,3.967,0,0,0-.723.062Zm-4.343,1.874h2.395v-1.889h-2.395Zm0,2.963h2.395v-1.842h-2.395Zm0,3.378c1.042-.216,1.534-.323,2.395-.569v-1.673h-2.395Zm6.34-7.262a14.538,14.538,0,0,0,1.427,5.3,14.777,14.777,0,0,0,1.6-5.3Z" fill="#fff"/>
      <path id="パス_220696" data-name="パス 220696" d="M268.21,126.239a9.241,9.241,0,0,0,1.259-.061c-.03.307-.046.46-.061.783a13,13,0,0,1-.875,4.559c-.338.707-.92.968-2.226.968-.691,0-1.489-.047-2.427-.138a6.984,6.984,0,0,0-.321-1.474,15.3,15.3,0,0,0,2.748.291c.583,0,.844-.107,1-.414a9.782,9.782,0,0,0,.645-3.3h-4.16c-.445,0-.8.016-1.121.046a22.387,22.387,0,0,0,.723-4.544,8.875,8.875,0,0,0,1.227.061H267.9v-2.072H264.3a10.824,10.824,0,0,0-1.519.091v-1.427a10.831,10.831,0,0,0,1.551.092h3.607a12.317,12.317,0,0,0,1.412-.062c-.03.277-.045.737-.045,1.183v2.3a10.7,10.7,0,0,0,.045,1.151c-.336-.03-.736-.046-1.319-.046H264.68c-.108.753-.262,1.519-.385,2.011Zm6.019-6.939a9.31,9.31,0,0,0-.108,1.581v10.01a11.955,11.955,0,0,0,.108,1.843H272.6a15.641,15.641,0,0,0,.092-1.858v-10a9.71,9.71,0,0,0-.092-1.581Z" fill="#fff"/>
      <path id="パス_220697" data-name="パス 220697" d="M283.2,126.193a10.521,10.521,0,0,0,.046,1.167,3.079,3.079,0,0,0-.414-.03h-.309l-.706-.016h-2.609a10.859,10.859,0,0,1-1.366,5.389,4.009,4.009,0,0,0-1.121-.952c.983-1.628,1.243-3.193,1.243-7.292,0-1.137-.015-1.5-.06-2.089a14.363,14.363,0,0,0,1.58.062h2.288a13,13,0,0,0,1.474-.062,11.889,11.889,0,0,0-.046,1.275Zm-5.942-6.463a12.93,12.93,0,0,0,1.552.076h3.392a8.873,8.873,0,0,0,1.536-.076v1.412a10.411,10.411,0,0,0-1.491-.077h-3.5a12.49,12.49,0,0,0-1.49.077Zm4.653,6.4v-2.517h-2.657V124.9c0,.722,0,.815-.015,1.228Zm3.76-1.2c-.183,3.823-.906,5.757-2.948,7.83a3.9,3.9,0,0,0-1.044-1.029c2.2-2.057,2.688-3.792,2.688-9.441,0-.952-.017-1.351-.062-1.858a14.16,14.16,0,0,0,5.558-1.32l.767,1.274a7,7,0,0,0-.676.184,23.712,23.712,0,0,1-4.251,1v2.073h3.622a8.66,8.66,0,0,0,1.429-.092v1.458a8.173,8.173,0,0,0-1.336-.077h-.338v6.172a8.861,8.861,0,0,0,.092,1.6h-1.519a10.766,10.766,0,0,0,.091-1.612v-6.157Z" fill="#fff"/>
      <rect id="長方形_16817" data-name="長方形 16817" width="1.719" height="11.545" transform="translate(188.453 240.392)" fill="#fff"/>
      <path id="パス_220698" data-name="パス 220698" d="M194.27,251.937V240.392h3.668c2.211,0,3.623,1.075,3.623,3.1a3.257,3.257,0,0,1-2.256,3.316l3.5,5.128h-2.088l-2.979-4.575h-1.811v4.575Zm3.132-6c1.457,0,2.364-.737,2.364-2.149,0-1.259-.815-1.9-2.181-1.9h-1.658v4.053Z" fill="#fff"/>
      <path id="パス_220699" data-name="パス 220699" d="M210.279,244.86a8.232,8.232,0,0,0,1.335-.077v1.4a8.321,8.321,0,0,0-1.274-.076h-5.051a8.909,8.909,0,0,0-1.474.076v-1.4a11.057,11.057,0,0,0,1.49.077h3.07a11.7,11.7,0,0,0,.921-2.671l1.29.353a12.784,12.784,0,0,1-.937,2.318Zm-.215-4.069a7.575,7.575,0,0,0,1.382-.076v1.366A6.543,6.543,0,0,0,210.14,242h-4.7a6.869,6.869,0,0,0-1.275.077v-1.366a7.671,7.671,0,0,0,1.413.076h1.658v-.475a5.04,5.04,0,0,0-.092-1.106h1.52a6.744,6.744,0,0,0-.077,1.106v.475Zm-3.976,12.16h-1.382a10.287,10.287,0,0,0,.061-1.382v-3.193a11.414,11.414,0,0,0-.046-1.244,11.8,11.8,0,0,0,1.2.046h3.746a7.951,7.951,0,0,0,1.105-.046,6.7,6.7,0,0,0-.046,1.167v3.5a7.6,7.6,0,0,0,.062,1.136h-1.4v-.875h-3.3Zm.245-10.824a11.1,11.1,0,0,1,.86,2.257l-1.229.4a8.955,8.955,0,0,0-.813-2.241Zm-.245,8.736H209.4v-2.486h-3.316ZM217.6,240.469a7.059,7.059,0,0,0-.291.645,36.819,36.819,0,0,1-1.72,3.638,7.055,7.055,0,0,1,1.551,2.242,5.727,5.727,0,0,1,.429,2.1,1.914,1.914,0,0,1-.783,1.736,3.161,3.161,0,0,1-1.6.275c-.368,0-.567-.015-1-.046a3.1,3.1,0,0,0-.277-1.381,7.2,7.2,0,0,0,1.259.107c.8,0,1.06-.2,1.06-.813a4.688,4.688,0,0,0-.476-1.981,6.713,6.713,0,0,0-1.659-2.057,19.223,19.223,0,0,0,1.8-4.038h-2.457v10.44a9.335,9.335,0,0,0,.108,1.719h-1.52a11.92,11.92,0,0,0,.092-1.688V240.914a12.166,12.166,0,0,0-.061-1.289c.276.03.737.045,1.213.045h2.533a6.84,6.84,0,0,0,1.182-.06Z" fill="#fff"/>
      <path id="パス_220700" data-name="パス 220700" d="M231.216,247.884c-.215.184-.353.322-.431.383a11.216,11.216,0,0,1-2,1.536,14.6,14.6,0,0,0,4.223,1.566,6.947,6.947,0,0,0-.691,1.443c-3.654-.937-6.449-2.979-7.646-5.6H223.14v3.67a29.37,29.37,0,0,0,3.116-.891l.031,1.259a50.376,50.376,0,0,1-5.819,1.535c-.245.062-.384.093-.675.153l-.307-1.427a13.883,13.883,0,0,0,2.241-.322v-3.977h-.966a10.087,10.087,0,0,0-1.521.092v-1.381a8.239,8.239,0,0,0,1.551.092h.936v-4.744a11.861,11.861,0,0,0-.061-1.505,14.063,14.063,0,0,0,1.612.077h6.586a10.632,10.632,0,0,0,1.705-.092v1.367a10.885,10.885,0,0,0-1.689-.078h-6.725v.891h6.418a10.159,10.159,0,0,0,1.4-.076v1.3a11.658,11.658,0,0,0-1.413-.076h-6.4v.875h6.4a8.846,8.846,0,0,0,1.413-.078v1.3a8.779,8.779,0,0,0-1.4-.076h-6.418v.906h8.121a9.007,9.007,0,0,0,1.474-.092V247.3a8.266,8.266,0,0,0-1.381-.092H230Zm-5.128-.676a5.409,5.409,0,0,0,1.689,1.919,11.069,11.069,0,0,0,2.164-1.919Z" fill="#fff"/>
      <path id="パス_220701" data-name="パス 220701" d="M199.2,268.421a12.625,12.625,0,0,1,2.03,1.517l-.465.669a9.5,9.5,0,0,0-2.019-1.636Zm2.1,3.787a20.574,20.574,0,0,1-1.541,3.189,1.675,1.675,0,0,0-.12.2l-.071.131-.048.084-.693-.609a10.205,10.205,0,0,0,1.852-3.452Zm-1.529-6.617a10,10,0,0,1,1.959,1.625l-.478.608a9.266,9.266,0,0,0-1.959-1.708Zm5.7,5.637a6.962,6.962,0,0,0,3.858,3.93,3.214,3.214,0,0,0-.466.764,8.02,8.02,0,0,1-3.893-4.336,6.455,6.455,0,0,1-3.512,4.42,2.514,2.514,0,0,0-.513-.657,5.374,5.374,0,0,0,3.379-4.121H202.9a7.743,7.743,0,0,0-1.218.072v-.824a7.889,7.889,0,0,0,1.206.072h1.553a19.934,19.934,0,0,0,.155-2.5h-1.254a9.267,9.267,0,0,0-1.135.059v-.8a9.307,9.307,0,0,0,1.135.059H204.6v-.824a5.826,5.826,0,0,0-.083-1.146h.9a5.606,5.606,0,0,0-.083,1.134v.836h1.9a6.955,6.955,0,0,0,1.051-.047,6.235,6.235,0,0,0-.047.991v2.234h.119a6.038,6.038,0,0,0,1-.072v.824a7.343,7.343,0,0,0-1.182-.072Zm2.031-.68v-2.5h-2.186a20.542,20.542,0,0,1-.156,2.5Z" fill="#fff"/>
      <path id="パス_220702" data-name="パス 220702" d="M216.916,271.885a8.331,8.331,0,0,1-1.29,1.028,6.761,6.761,0,0,0,1.326,1.122c-.1.1-.275.263-.514.514a6.97,6.97,0,0,1-2.472-3.308,8.4,8.4,0,0,1-.586.764v2.556a14.592,14.592,0,0,0,1.721-.681l.023.657a18.41,18.41,0,0,1-2.759,1.027l-.717.215-.166-.729a6.566,6.566,0,0,0,1.218-.274v-2.09a10.431,10.431,0,0,1-1.672,1.206,2.129,2.129,0,0,0-.406-.6,6.9,6.9,0,0,0,2.735-2.174h-1.231a6.373,6.373,0,0,0-1.039.06v-.74a7.628,7.628,0,0,0,1.039.059h1.649v-.322a5.347,5.347,0,0,0-.048-.682h.776a5.185,5.185,0,0,0-.048.682v.322h1.613a5.747,5.747,0,0,0,1.027-.059v.74a5.957,5.957,0,0,0-1.027-.06h-1.541a5.125,5.125,0,0,0,.741,1.361,5.239,5.239,0,0,0,1.158-1.062Zm3.643-1.6c-.084.167-.143.3-.275.609a12.655,12.655,0,0,1-1.266,2.353c.406.956,1.015,1.852,1.266,1.852.191-.06.418-.765.55-1.7a2.064,2.064,0,0,0,.621.5,5.935,5.935,0,0,1-.467,1.493c-.19.358-.405.525-.68.525-.514,0-1.123-.7-1.768-2.054a9.766,9.766,0,0,1-2.413,2.15,1.736,1.736,0,0,0-.573-.537,8.822,8.822,0,0,0,2.687-2.317,13.676,13.676,0,0,1-.764-3.918h-5.554a7.739,7.739,0,0,0-1.17.071v-.788a7.588,7.588,0,0,0,1.17.072h1.852v-1.242H212.58a7.634,7.634,0,0,0-1.051.06v-.741a5.77,5.77,0,0,0,1.051.06h1.195v-.168a5.022,5.022,0,0,0-.072-1.015h.836a4.555,4.555,0,0,0-.084,1.027v.156h1.123a5.7,5.7,0,0,0,1.039-.06v.741a7.417,7.417,0,0,0-1.039-.06h-1.123V268.6h2.975c-.036-.705-.049-1.23-.06-2.174a4.1,4.1,0,0,0-.072-.86h.86a4.844,4.844,0,0,0-.071,1.147c0,.334.011.967.047,1.887h1.911a7.279,7.279,0,0,0,1.171-.072v.788a7.422,7.422,0,0,0-1.171-.071H218.17a14.433,14.433,0,0,0,.561,3.236,7.137,7.137,0,0,0,1.1-2.519Zm-1.41-4.3a9.778,9.778,0,0,1,1.505,1.852l-.573.394a8.751,8.751,0,0,0-1.469-1.911Z" fill="#fff"/>
      <rect id="長方形_16818" data-name="長方形 16818" width="344.374" height="69.182" transform="translate(37.813 520.423)" fill="#002060"/>
      <path id="パス_220703" data-name="パス 220703" d="M99.1,548.706a7.993,7.993,0,0,0,2.932.583c1.627,0,2.165-.767,2.165-1.581,0-.967-.353-1.413-1.812-2.1l-.8-.368c-1.811-.813-2.333-1.735-2.333-3.1,0-1.888,1.428-3.24,3.9-3.24a9.612,9.612,0,0,1,2.456.338v1.643a7.5,7.5,0,0,0-2.579-.461c-1.336,0-2.026.6-2.026,1.52,0,.814.291,1.244,1.519,1.812l.83.4c1.872.875,2.655,1.612,2.655,3.194,0,2.134-1.551,3.469-4.007,3.469a7.966,7.966,0,0,1-2.9-.491Z" fill="#fff"/>
      <path id="パス_220704" data-name="パス 220704" d="M112.635,539.064c2.211,0,3.454.921,3.454,2.733a2.517,2.517,0,0,1-1.965,2.64,2.667,2.667,0,0,1,2.365,2.81c0,2.057-1.352,3.362-3.685,3.362h-3.823V539.064Zm-.353,4.836c1.366,0,2.073-.66,2.073-1.765,0-1.121-.584-1.643-1.966-1.643h-1.75V543.9Zm.184,5.281c1.489,0,2.242-.721,2.242-2.026s-.921-1.888-2.426-1.888h-1.643v3.914Z" fill="#fff"/>
      <path id="パス_220705" data-name="パス 220705" d="M127.846,550.487a18.157,18.157,0,0,1-3.009.261c-3.593,0-6.234-1.658-6.234-5.727,0-4.191,2.964-6.08,6.172-6.08a11.564,11.564,0,0,1,2.395.2v1.55a10.936,10.936,0,0,0-2.379-.229,4.081,4.081,0,0,0-4.407,4.359c0,3.332,2.058,4.437,4.806,4.437.307,0,.644-.015,1-.046v-3.27h-2.44v-1.428h4.1Z" fill="#fff"/>
      <path id="パス_220706" data-name="パス 220706" d="M132.371,547.216c-.015-.353-.015-.69-.046-.906-.8.292-1.09.4-1.9.66a3.833,3.833,0,0,0-.629-1.3,18.318,18.318,0,0,0,5.91-2.44,11.393,11.393,0,0,1-1.9-1.981,13.125,13.125,0,0,1-2.81,2.1,3.53,3.53,0,0,0-.844-1.09,10.757,10.757,0,0,0,4.713-4.559l1.489.307c-.353.537-.507.783-.752,1.121h3.3a9.95,9.95,0,0,0,1.367-.077l.722.859c-.2.262-.322.4-.768.968a15.747,15.747,0,0,1-2.256,2.3,19.54,19.54,0,0,0,5.695,2.211,5.254,5.254,0,0,0-.614,1.4c-1-.307-1.382-.445-1.827-.613a10.078,10.078,0,0,0-.031,1.043v3.055a10.059,10.059,0,0,0,.077,1.428h-1.413v-.859h-6.141v.859h-1.427a13.7,13.7,0,0,0,.092-1.428Zm7.692-1.259h.583a18.027,18.027,0,0,1-3.807-1.919,17.2,17.2,0,0,1-3.608,1.919h6.832Zm-6.357,3.685h6.126v-2.517h-6.126Zm.922-9.3a11.324,11.324,0,0,0,2.18,2.1,12.661,12.661,0,0,0,2.165-2.18h-4.284Z" fill="#fff"/>
      <path id="パス_220707" data-name="パス 220707" d="M151.649,543.532a8.227,8.227,0,0,0,1.335-.077v1.4a8.3,8.3,0,0,0-1.274-.076h-5.05a8.9,8.9,0,0,0-1.474.076v-1.4a11.035,11.035,0,0,0,1.489.077h3.07a11.745,11.745,0,0,0,.922-2.672l1.289.354a12.7,12.7,0,0,1-.936,2.318Zm-.215-4.069a7.585,7.585,0,0,0,1.382-.076v1.366a6.542,6.542,0,0,0-1.306-.077h-4.7a6.869,6.869,0,0,0-1.275.077v-1.366a7.668,7.668,0,0,0,1.413.076h1.658v-.475a5.114,5.114,0,0,0-.091-1.106h1.519a6.849,6.849,0,0,0-.077,1.106v.475Zm-3.976,12.16h-1.382a10.289,10.289,0,0,0,.061-1.382v-3.193a11.418,11.418,0,0,0-.046-1.244,11.8,11.8,0,0,0,1.2.046h3.746a7.979,7.979,0,0,0,1.106-.046,6.554,6.554,0,0,0-.047,1.167v3.5a7.459,7.459,0,0,0,.062,1.136h-1.4v-.875h-3.3ZM147.7,540.8a11.044,11.044,0,0,1,.86,2.257l-1.228.4a8.957,8.957,0,0,0-.814-2.241Zm-.245,8.736h3.316v-2.486h-3.316Zm11.515-10.394a6.549,6.549,0,0,0-.291.645,37.281,37.281,0,0,1-1.72,3.638,7.049,7.049,0,0,1,1.55,2.242,5.727,5.727,0,0,1,.429,2.1,1.914,1.914,0,0,1-.783,1.736,3.162,3.162,0,0,1-1.6.275c-.368,0-.568-.015-1-.046a3.109,3.109,0,0,0-.277-1.381,7.212,7.212,0,0,0,1.259.107c.8,0,1.06-.2,1.06-.813a4.673,4.673,0,0,0-.476-1.981,6.712,6.712,0,0,0-1.659-2.057,19.224,19.224,0,0,0,1.8-4.038h-2.455v10.44a9.375,9.375,0,0,0,.106,1.719H153.4a11.889,11.889,0,0,0,.093-1.688V539.586a12.16,12.16,0,0,0-.062-1.289c.276.03.737.045,1.213.045h2.533a6.835,6.835,0,0,0,1.182-.06Z" fill="#fff"/>
      <path id="パス_220708" data-name="パス 220708" d="M162.637,549.827a11.608,11.608,0,0,0,.093,1.78h-1.521a12.61,12.61,0,0,0,.092-1.8v-9.826a15.15,15.15,0,0,0-.061-1.673,13.047,13.047,0,0,0,1.551.061h2.457a12.733,12.733,0,0,0,1.534-.061c-.031.323-.046.845-.046,1.413v2.747c0,.692.015,1.106.031,1.382-.338-.03-.906-.046-1.428-.046h-2.7Zm0-9.258h2.871v-1.106h-2.871Zm0,2.18h2.871v-1.136h-2.871Zm10.931,7.123c0,1.244-.383,1.536-2.057,1.536-.476,0-.875-.016-1.581-.031a5.209,5.209,0,0,0-.353-1.381,15.825,15.825,0,0,0,1.965.153c.568,0,.691-.077.691-.384v-5.957h-2.871c-.538,0-1.167.016-1.443.046.03-.322.046-.752.046-1.382v-2.747c0-.661-.016-1-.046-1.413a12.564,12.564,0,0,0,1.534.061h2.611a13.166,13.166,0,0,0,1.565-.061c-.046.476-.061,1-.061,1.673Zm-4.375-9.3h3.04v-1.106h-3.04Zm0,2.18h3.04v-1.136h-3.04Z" fill="#fff"/>
      <path id="パス_220709" data-name="パス 220709" d="M181.086,549.565c0,1.182-.583,1.674-1.489,1.674a3.8,3.8,0,0,1-2.026-.707c-1.029-.645-1.382-1.289-1.382-1.9,0-.891.675-2.211,3.485-3.5V542.4c-1.029.092-2.057.122-2.978.122a3.635,3.635,0,0,1-.078-.721,3.4,3.4,0,0,1,.062-.691h.369c.844,0,1.734-.046,2.625-.108-.016-.875-.016-1.781-.047-2.671a3.13,3.13,0,0,1,.692-.062,4.5,4.5,0,0,1,.829.077c-.031.875-.047,1.735-.062,2.534.86-.093,1.673-.231,2.41-.384a2.991,2.991,0,0,1,.2,1.09,1.44,1.44,0,0,1-.015.261c-.784.169-1.674.307-2.6.414v2.457a10.134,10.134,0,0,1,3.025-.507c2.5,0,4.006,1.32,4.006,3.116,0,2.165-1.366,3.393-3.608,3.393a8.678,8.678,0,0,1-1.12-.061l-.292-1.505a6.383,6.383,0,0,0,1.259.123c1.382,0,2.242-.6,2.242-1.95,0-1.028-.768-1.78-2.518-1.78a9.436,9.436,0,0,0-2.994.537Zm-1.412-2.994c-1.674.876-2.012,1.536-2.012,1.966,0,.291.154.506.646.8a2.072,2.072,0,0,0,1.028.353c.23,0,.338-.092.338-.384Zm9.257-4.8a2.889,2.889,0,0,1-.952,1.167,10.076,10.076,0,0,0-3.07-2.288,2.9,2.9,0,0,1,.783-1.121,11.081,11.081,0,0,1,3.239,2.242" fill="#fff"/>
      <path id="パス_220710" data-name="パス 220710" d="M197.1,541.475a32.619,32.619,0,0,0,4.268-.338,4.388,4.388,0,0,1,.108,1.028,3.893,3.893,0,0,1-.016.431,41.325,41.325,0,0,1-4.314.275c.046,1.229.138,2.472.245,3.686a15.016,15.016,0,0,1,5.251,2.333,3.481,3.481,0,0,1-.921,1.335,13.573,13.573,0,0,0-4.191-2.241c.015.184.03.4.03.553,0,1.965-1.243,2.778-3.423,2.778-1.95,0-3.116-.936-3.116-2.456,0-1.3,1.228-2.61,3.53-2.61a13.33,13.33,0,0,1,1.352.077c-.169-1.858-.262-3.884-.262-5.481,0-.844-.015-1.688-.061-2.533a4.152,4.152,0,0,1,.752-.061,4.774,4.774,0,0,1,.83.076c-.031.845-.062,1.674-.062,2.533Zm-2.533,6.11c-1.4,0-2.042.568-2.042,1.259,0,.675.583,1.074,1.566,1.074,1.244,0,1.965-.491,1.965-1.489a5.928,5.928,0,0,0-.046-.691,6.96,6.96,0,0,0-1.443-.153" fill="#fff"/>
      <path id="パス_220711" data-name="パス 220711" d="M208.237,541a23.246,23.246,0,0,1-3.27.307,4.462,4.462,0,0,1-.092-.936c0-.184.015-.353.03-.507a43.573,43.573,0,0,0,5.22-.307,3.341,3.341,0,0,1,.4,1.121c-3.209,2.38-3.853,4.36-3.853,6.248a2.664,2.664,0,0,0,2.671,2.886c2.241,0,3.853-1.734,3.853-5.633a18.917,18.917,0,0,0-.6-4.714,4.574,4.574,0,0,1,1.35-.307,16.111,16.111,0,0,0,3.747,6.525,3.455,3.455,0,0,1-1.2,1.151,14.192,14.192,0,0,1-2.134-3.884l-.077.015a11.053,11.053,0,0,1,.184,1.9c0,4.33-2.21,6.479-5.1,6.479a4.048,4.048,0,0,1-4.176-4.36,7.82,7.82,0,0,1,3.055-5.926Zm7.093-3.055a10.521,10.521,0,0,1,1.444,2.564l-.983.46a12.107,12.107,0,0,0-1.4-2.625Zm1.735-.721a10.179,10.179,0,0,1,1.489,2.5l-.983.446a9.614,9.614,0,0,0-1.412-2.549Z" fill="#fff"/>
      <path id="パス_220712" data-name="パス 220712" d="M221.928,547.216c-.015-.353-.015-.69-.046-.906-.8.292-1.09.4-1.9.66a3.832,3.832,0,0,0-.629-1.3,18.318,18.318,0,0,0,5.91-2.44,11.392,11.392,0,0,1-1.9-1.981,13.125,13.125,0,0,1-2.81,2.1,3.53,3.53,0,0,0-.844-1.09,10.757,10.757,0,0,0,4.713-4.559l1.489.307c-.353.537-.507.783-.752,1.121h3.3a9.951,9.951,0,0,0,1.367-.077l.722.859c-.2.262-.322.4-.768.968a15.746,15.746,0,0,1-2.256,2.3,19.54,19.54,0,0,0,5.7,2.211,5.254,5.254,0,0,0-.614,1.4c-1-.307-1.382-.445-1.827-.613a10.083,10.083,0,0,0-.031,1.043v3.055a10.057,10.057,0,0,0,.077,1.428H229.4v-.859h-6.141v.859h-1.427a13.693,13.693,0,0,0,.092-1.428Zm7.692-1.259h.583a18.027,18.027,0,0,1-3.807-1.919,17.2,17.2,0,0,1-3.608,1.919h6.832Zm-6.357,3.685h6.126v-2.517h-6.126Zm.922-9.3a11.325,11.325,0,0,0,2.18,2.1,12.66,12.66,0,0,0,2.165-2.18h-4.284Z" fill="#fff"/>
      <path id="パス_220713" data-name="パス 220713" d="M244.967,540.753l.845.951a15.178,15.178,0,0,1-8.552,9.734l-1.028-1.274a13.643,13.643,0,0,0,7.737-8.076h-4.6a16.034,16.034,0,0,1-3.286,3.378l-1.09-.952a15.081,15.081,0,0,0,4.713-6.141l1.551.476a18.663,18.663,0,0,1-1,1.9Zm.476-2.917a11.192,11.192,0,0,1,1.244,2.656l-1.044.4a10.642,10.642,0,0,0-1.168-2.748Zm1.781-.614a9.807,9.807,0,0,1,1.336,2.625l-1.029.368a9.623,9.623,0,0,0-1.228-2.656Z" fill="#fff"/>
      <path id="パス_220714" data-name="パス 220714" d="M253.161,539.341v3.469c0,3.547-1.044,6.018-3.393,7.938l-1.136-1.075c2.149-1.613,2.963-3.731,2.963-6.97v-3.362Zm4.207-.43v9.779a11.541,11.541,0,0,0,4.376-3.546l.9,1.289a14.278,14.278,0,0,1-6.018,4.269l-.844-.691v-11.1Z" fill="#fff"/>
      <rect id="長方形_16819" data-name="長方形 16819" width="12.267" height="1.597" transform="translate(264.395 543.946)" fill="#fff"/>
      <path id="パス_220715" data-name="パス 220715" d="M287.8,540.093a1.744,1.744,0,0,1-.108-.63,1.782,1.782,0,0,1,1.782-1.78,1.781,1.781,0,1,1,0,3.561,1.694,1.694,0,0,1-.415-.046A12.383,12.383,0,0,1,280.7,551.27l-.859-1.382c4.145-1.489,6.785-4.422,7.492-8.352H278.3v-1.443Zm.706-.614a.932.932,0,0,0,.952.967.975.975,0,1,0,0-1.95.937.937,0,0,0-.952.983" fill="#fff"/>
      <path id="パス_220716" data-name="パス 220716" d="M295.383,542.641a14.955,14.955,0,0,1-2.534,1.412,3.908,3.908,0,0,0-.767-1.259,13.289,13.289,0,0,0,6.249-4.82h1.488a13.974,13.974,0,0,0,6.525,4.744,5.911,5.911,0,0,0-.737,1.4,16.924,16.924,0,0,1-2.7-1.489v1.213a9.259,9.259,0,0,0-1.3-.062h-4.974c-.415,0-.967.031-1.243.062Zm-.875,3.945a12.125,12.125,0,0,0-1.75.093V545.19a13.064,13.064,0,0,0,1.75.092h9.319a12.357,12.357,0,0,0,1.734-.092v1.489a12.178,12.178,0,0,0-1.734-.093H298.56a19.781,19.781,0,0,1-1.7,3.194l1.8-.138c1.612-.123,1.965-.154,3.425-.338-.569-.629-.983-1.075-1.629-1.7l1.152-.63a34.625,34.625,0,0,1,3.532,3.992l-1.2.83c-.431-.661-.66-1-.953-1.383-2.119.293-3.931.477-7.6.784a19.216,19.216,0,0,0-2.181.23l-.2-1.551c.322.031.613.046.812.046.093,0,.185,0,1.429-.061a18.787,18.787,0,0,0,1.734-3.271Zm7.078-4.1c.474,0,.751-.016,1.059-.031a13.863,13.863,0,0,1-3.532-3.27,14.017,14.017,0,0,1-3.454,3.27,8.591,8.591,0,0,0,.983.031Z" fill="#fff"/>
      <path id="パス_220717" data-name="パス 220717" d="M311.268,550.2a9.591,9.591,0,0,0,.092,1.505h-1.535a9.64,9.64,0,0,0,.092-1.536V546a14.426,14.426,0,0,1-1.842,1.5,4.776,4.776,0,0,0-.676-1.275,11.091,11.091,0,0,0,4.376-4.621h-2.61a9.9,9.9,0,0,0-1.244.061v-1.4a9.363,9.363,0,0,0,1.182.061h.829v-1.32a7.616,7.616,0,0,0-.091-1.152h1.534a6.205,6.205,0,0,0-.091,1.167v1.3h.721a5.339,5.339,0,0,0,.875-.046l.615.675a4.5,4.5,0,0,0-.324.6,12.564,12.564,0,0,1-1.6,2.594A9.626,9.626,0,0,0,314,546.142a4.994,4.994,0,0,0-.706,1.213,9.215,9.215,0,0,1-2.027-1.78Zm6.31-.537h2.042a11.314,11.314,0,0,0,1.688-.092v1.566a13.777,13.777,0,0,0-1.672-.108H314.37a10.191,10.191,0,0,0-1.659.108v-1.566a11.837,11.837,0,0,0,1.674.092h1.8v-6.079h-1.259a13.418,13.418,0,0,0-1.474.076v-1.474a8.664,8.664,0,0,0,1.474.092h1.259v-2.886a8.894,8.894,0,0,0-.108-1.489h1.612a7.823,7.823,0,0,0-.107,1.489v2.886h1.75a8.61,8.61,0,0,0,1.489-.092v1.474a13.287,13.287,0,0,0-1.489-.076h-1.75Z" fill="#fff"/>
      <path id="パス_220718" data-name="パス 220718" d="M188.171,567.249a4.523,4.523,0,0,0,.919-.06v.753a6.086,6.086,0,0,0-.919-.049h-3.308a6.584,6.584,0,0,0-.932.049v-.753a6,6,0,0,0,.932.06h1.4v-1.194h-1.1a6.223,6.223,0,0,0-.884.047v-.74a5.253,5.253,0,0,0,.884.047h1.1v-.358a7.223,7.223,0,0,0-.072-1h.836a6.576,6.576,0,0,0-.071,1v.358h.931a5.179,5.179,0,0,0,.872-.047v.74a5.746,5.746,0,0,0-.872-.047h-.931v1.194Zm0,2.628a4.45,4.45,0,0,0,.919-.06v.752a5.733,5.733,0,0,0-.919-.048h-1.218V571.7h1.075a5.712,5.712,0,0,0,.871-.048v.752a5.832,5.832,0,0,0-.871-.047h-1.075v1.265a7.677,7.677,0,0,0,.071,1.039h-.836a7.721,7.721,0,0,0,.072-1.11v-1.194h-1.195a5.821,5.821,0,0,0-.884.047v-.752a5.8,5.8,0,0,0,.884.048h1.195v-1.183h-1.4a6.3,6.3,0,0,0-.932.048v-.752a4.731,4.731,0,0,0,.932.06h2.161a7.026,7.026,0,0,0,.621-1.84l.657.191a11.162,11.162,0,0,1-.621,1.649Zm-2.855-.144a8.04,8.04,0,0,0-.442-1.529l.6-.191a9.709,9.709,0,0,1,.454,1.517Zm4.789-.848V573.5a7.051,7.051,0,0,0,.084,1.169h-.86a7.046,7.046,0,0,0,.083-1.169v-7.872a8.586,8.586,0,0,0-.059-1.1,8.816,8.816,0,0,0,1.111.059h2.7a6,6,0,0,0,.98-.047c-.013.119-.024.179-.036.286,0,.06-.024.239-.048.55a4.5,4.5,0,0,1-.358,1.647c-.156.264-.418.347-1,.347a10.942,10.942,0,0,1-1.158-.072,2.167,2.167,0,0,0-.156-.7,8.58,8.58,0,0,0,1.35.155c.454,0,.514-.131.621-1.493H190.1v2.986h2.545a5.428,5.428,0,0,0,.931-.048l.43.43a2.694,2.694,0,0,0-.143.478,12.512,12.512,0,0,1-1.182,3.117,7.961,7.961,0,0,0,1.958,1.684,2.978,2.978,0,0,0-.478.657,9.71,9.71,0,0,1-1.875-1.732,8.622,8.622,0,0,1-1.541,1.72,3.35,3.35,0,0,0-.525-.585,7.559,7.559,0,0,0,1.625-1.7,9.614,9.614,0,0,1-1.386-3.38Zm1.016,0a8,8,0,0,0,1.111,2.747,10.857,10.857,0,0,0,.955-2.747Z" fill="#fff"/>
      <path id="パス_220719" data-name="パス 220719" d="M198.173,566.46a7.241,7.241,0,0,1-1.41,1.577,1.878,1.878,0,0,0-.6-.49,5.9,5.9,0,0,0,1.923-2.377,5.528,5.528,0,0,0,.347-.967l.776.286c-.048.084-.06.12-.1.192-.023.036-.06.131-.132.275-.2.442-.31.657-.4.836H200.8v-.61a5.037,5.037,0,0,0-.071-1.1h.895a5.324,5.324,0,0,0-.083,1.122v.586h2.484a7.592,7.592,0,0,0,1.194-.072v.812a7.225,7.225,0,0,0-1.182-.072h-2.5v2.019h3.451a7.51,7.51,0,0,0,1.195-.072v.824a7.459,7.459,0,0,0-1.195-.071h-7.835a8.551,8.551,0,0,0-1.194.071v-.824a8.208,8.208,0,0,0,1.182.072H200.8V566.46Zm-.789,8.17a7.65,7.65,0,0,0,.072-1.183v-2.126a6.987,6.987,0,0,0-.048-.99,10.384,10.384,0,0,0,1.147.047h5.04a10.6,10.6,0,0,0,1.158-.047,7.342,7.342,0,0,0-.047.99v2.126a7.384,7.384,0,0,0,.071,1.183h-.824v-.573H198.2v.573Zm.824-1.242h5.745v-2.341h-5.745Z" fill="#fff"/>
      <path id="パス_220720" data-name="パス 220720" d="M211.067,569.351a1.082,1.082,0,0,1-1.074,1.063,1.049,1.049,0,0,1-1.063-1.063,1.083,1.083,0,0,1,1.063-1.075,1.119,1.119,0,0,1,1.074,1.075" fill="#fff"/>
      <path id="パス_220721" data-name="パス 220721" d="M216.425,566.986a7.564,7.564,0,0,0,1.672,2.7,3.379,3.379,0,0,0-.43.657,8.8,8.8,0,0,1-1.35-2.46c.025.836.048,1.517.048,1.9v3.559a9.246,9.246,0,0,0,.072,1.361h-.872a10.9,10.9,0,0,0,.071-1.361v-3.308c0-.49.013-.92.06-1.911a10.733,10.733,0,0,1-1.719,3.714,2.623,2.623,0,0,0-.467-.681,10.272,10.272,0,0,0,2.007-4.168h-.836a4.941,4.941,0,0,0-.836.048v-.741a4.429,4.429,0,0,0,.836.048h.955v-1.123a6.272,6.272,0,0,0-.071-1.218h.86a7.225,7.225,0,0,0-.06,1.206v1.135h.848a4.262,4.262,0,0,0,.776-.048v.729a7.1,7.1,0,0,0-.764-.036Zm1.971,7.656c.036-.359.059-.836.059-1.434v-7.333c-.012-.549-.012-.776-.048-1.266a8.493,8.493,0,0,0,.908.024h3.464a7.435,7.435,0,0,0,.9-.035,10.855,10.855,0,0,0-.036,1.17V573.2c0,.657.024,1.218.048,1.4H222.9v-.8h-3.7v.848Zm.8-7.238h3.7v-2.09h-3.7Zm0,2.759h3.7v-2.09h-3.7Zm0,2.962h3.7v-2.293h-3.7Z" fill="#fff"/>
      <path id="パス_220722" data-name="パス 220722" d="M225.615,566.067a5.951,5.951,0,0,0,.943.06H228.7a4.577,4.577,0,0,0,.944-.06v.764a5.037,5.037,0,0,0-.849-.048h-2.233a6.849,6.849,0,0,0-.943.048Zm.489,8.5a9.666,9.666,0,0,0,.06-1.135V571.86c0-.335-.024-.753-.048-.956a3.691,3.691,0,0,0,.753.047h1.672a4.649,4.649,0,0,0,.717-.035,8.166,8.166,0,0,0-.036.92v1.325c0,.3.012.586.023.765a4.447,4.447,0,0,0-.68-.036h-1.72v.681Zm.036-6.844a4.585,4.585,0,0,0,.789.048h1.516a4.178,4.178,0,0,0,.777-.048v.716a5.028,5.028,0,0,0-.777-.047h-1.516a5,5,0,0,0-.789.047Zm0,1.612a4.585,4.585,0,0,0,.789.048h1.516a4.268,4.268,0,0,0,.777-.048v.717a4.6,4.6,0,0,0-.789-.048h-1.5a4.417,4.417,0,0,0-.789.048Zm.012-4.885a3.829,3.829,0,0,0,.848.06h1.409a3.973,3.973,0,0,0,.849-.06v.741a5.294,5.294,0,0,0-.849-.048H227a5.491,5.491,0,0,0-.848.048Zm.681,8.815h1.732v-1.732h-1.732Zm6.39-4.455a4.208,4.208,0,0,0-.06.789,4.127,4.127,0,0,0,.764,2.568A5.282,5.282,0,0,0,236.376,574a2.763,2.763,0,0,0-.442.729,5.757,5.757,0,0,1-3.093-3.38,4.855,4.855,0,0,1-3.058,3.392,1.947,1.947,0,0,0-.489-.657,4.364,4.364,0,0,0,2.376-1.637,4.608,4.608,0,0,0,.777-2.806,4.444,4.444,0,0,0-.06-.824Zm.024-4.622a5.731,5.731,0,0,0-.06.753,3.607,3.607,0,0,0,.621,2.209,4.581,4.581,0,0,0,2.365,1.672,2.6,2.6,0,0,0-.43.681,5.213,5.213,0,0,1-2.891-2.926,4.59,4.59,0,0,1-2.89,2.926,1.863,1.863,0,0,0-.465-.646,4.279,4.279,0,0,0,1.791-.931,3.7,3.7,0,0,0,1.182-2.95,5.448,5.448,0,0,0-.047-.788Zm-1.911,5.709a6.518,6.518,0,0,1-.98,2.161l-.669-.3a4.168,4.168,0,0,0,.944-2.054Zm.108-4.945a6.422,6.422,0,0,1-.956,2.173l-.669-.286a4.228,4.228,0,0,0,.919-2.066Zm4.5.072a9.9,9.9,0,0,1-1.422,1.887,4.639,4.639,0,0,0-.561-.394,5.4,5.4,0,0,0,1.278-1.828Zm-.036,5.04a10.453,10.453,0,0,1-1.314,1.839,3.888,3.888,0,0,0-.573-.393,5.6,5.6,0,0,0,1.207-1.781Z" fill="#fff"/>
      <rect id="長方形_16820" data-name="長方形 16820" width="198.715" height="83.315" transform="translate(183.472 363.168)" fill="#002060"/>
      <rect id="長方形_16821" data-name="長方形 16821" width="1.719" height="11.545" transform="translate(269.387 378.679)" fill="#fff"/>
      <path id="パス_220723" data-name="パス 220723" d="M275.2,390.225V378.68h3.669c2.211,0,3.623,1.075,3.623,3.1a3.257,3.257,0,0,1-2.256,3.316l3.5,5.128h-2.088l-2.979-4.575h-1.811v4.575Zm3.132-6c1.458,0,2.364-.737,2.364-2.149,0-1.259-.814-1.9-2.18-1.9h-1.658v4.053Z" fill="#fff"/>
      <path id="パス_220724" data-name="パス 220724" d="M291.214,383.147a8.232,8.232,0,0,0,1.335-.077v1.4a8.318,8.318,0,0,0-1.274-.076h-5.051a8.906,8.906,0,0,0-1.474.076v-1.4a11.058,11.058,0,0,0,1.49.077h3.07a11.694,11.694,0,0,0,.921-2.672l1.29.354a12.786,12.786,0,0,1-.937,2.318ZM291,379.078a7.579,7.579,0,0,0,1.382-.076v1.366a6.541,6.541,0,0,0-1.306-.077h-4.7a6.868,6.868,0,0,0-1.275.077V379a7.675,7.675,0,0,0,1.413.076h1.658V378.6a5.038,5.038,0,0,0-.092-1.106h1.52a6.737,6.737,0,0,0-.077,1.106v.475Zm-3.976,12.16h-1.382a10.285,10.285,0,0,0,.061-1.382v-3.193a11.415,11.415,0,0,0-.046-1.244,11.8,11.8,0,0,0,1.2.046H290.6a7.948,7.948,0,0,0,1.1-.046,6.7,6.7,0,0,0-.046,1.167v3.5a7.59,7.59,0,0,0,.062,1.136h-1.4v-.875h-3.3Zm.245-10.824a11.1,11.1,0,0,1,.86,2.257l-1.229.4a8.954,8.954,0,0,0-.813-2.241Zm-.245,8.736h3.316v-2.486h-3.316Zm11.514-10.394a7.068,7.068,0,0,0-.291.645,36.819,36.819,0,0,1-1.72,3.638,7.055,7.055,0,0,1,1.551,2.242,5.727,5.727,0,0,1,.429,2.1,1.914,1.914,0,0,1-.783,1.736,3.161,3.161,0,0,1-1.6.275c-.368,0-.567-.015-1-.046a3.1,3.1,0,0,0-.277-1.381,7.2,7.2,0,0,0,1.259.107c.8,0,1.06-.2,1.06-.813a4.688,4.688,0,0,0-.476-1.981,6.713,6.713,0,0,0-1.659-2.057,19.224,19.224,0,0,0,1.8-4.038h-2.457v10.44a9.335,9.335,0,0,0,.108,1.719h-1.52a11.918,11.918,0,0,0,.092-1.688V379.2a12.162,12.162,0,0,0-.061-1.289c.276.03.737.045,1.213.045h2.533a6.842,6.842,0,0,0,1.182-.06Z" fill="#fff"/>
      <path id="パス_220725" data-name="パス 220725" d="M198.122,408.3a4.625,4.625,0,0,0,.9.06h.573a6.734,6.734,0,0,0,.9-.06,8.235,8.235,0,0,0-.06,1.231v2.3a1.628,1.628,0,0,0,.561.764,4.021,4.021,0,0,0,2.724.644,41.979,41.979,0,0,0,5.147-.226,2.716,2.716,0,0,0-.275.848c-1.242.048-2.4.071-4.025.071-1.971,0-2.615-.083-3.3-.4a2.848,2.848,0,0,1-1.219-1.111,11.769,11.769,0,0,1-1.433,1.277,2.683,2.683,0,0,0-.263.228l-.083.071-.394-.764a7.679,7.679,0,0,0,1.839-1.4V409h-.741a4.093,4.093,0,0,0-.847.06Zm.7-4.383a14.451,14.451,0,0,1,1.875,2.066l-.6.526a11.893,11.893,0,0,0-1.815-2.127Zm8.469.717a7.241,7.241,0,0,0,1.218-.072v.728a7.926,7.926,0,0,0-1.194-.059h-.562c-.108.286-.323.752-.5,1.1h.646a11.458,11.458,0,0,0,1.241-.047,11.254,11.254,0,0,0-.047,1.278v4.12c0,.728-.2.872-1.23.872-.192,0-.466-.012-.824-.024a2.629,2.629,0,0,0-.168-.7,8.851,8.851,0,0,0,1.111.083c.346,0,.418-.047.418-.275V406.9h-5.183v4.276a9.5,9.5,0,0,0,.059,1.349h-.812a9.539,9.539,0,0,0,.071-1.349v-3.655c0-.633-.011-.944-.035-1.231.322.024.6.036,1.325.036h.478a7.274,7.274,0,0,0-.478-1.1h-.513a7.6,7.6,0,0,0-1.218.059v-.728a7.626,7.626,0,0,0,1.218.072h2.09a5.2,5.2,0,0,0-.06-.992h.848a5.068,5.068,0,0,0-.059.992Zm-3.632,3.857a8.627,8.627,0,0,0-1,.048v-.657a6.366,6.366,0,0,0,1,.06h.837a4.963,4.963,0,0,0-.048-.789h.7a4.437,4.437,0,0,0-.047.789h.9a6.353,6.353,0,0,0,1.015-.06v.657a8.737,8.737,0,0,0-1.015-.048h-.9v.872h.406a6.007,6.007,0,0,0,.919-.048c-.024.227-.035.525-.035.86v.621a5.349,5.349,0,0,0,.024.776,8.256,8.256,0,0,0-.836-.035h-1.8v.573h-.669a7.872,7.872,0,0,0,.036-.848v-1.123c0-.334-.012-.549-.036-.824a5.756,5.756,0,0,0,.908.048h.478v-.872Zm1.9-2.162a7.737,7.737,0,0,0,.478-1.1h-2.5a11.123,11.123,0,0,1,.454,1.1Zm-1.792,4.682h2.018v-1.122h-2.018Z" fill="#fff"/>
      <path id="パス_220726" data-name="パス 220726" d="M210.62,405.467c0-.538-.024-.872-.048-1.124a1.746,1.746,0,0,0,.347.024,1.61,1.61,0,0,0,.286.012h1.314a9.5,9.5,0,0,0,1.051-.036,8.192,8.192,0,0,0-.036,1.159v6.414a9.791,9.791,0,0,0,.036,1.123h-.728v-.585H211.3v.955h-.753a8.25,8.25,0,0,0,.072-1.23Zm.693,2.483h1.529v-2.914h-1.529Zm0,3.847h1.529v-3.213h-1.529Zm4.085-6.032a8.188,8.188,0,0,0-1.123.06v-.776a6.3,6.3,0,0,0,1.11.071h1.254v-.382a5.385,5.385,0,0,0-.071-.943h.86a5.191,5.191,0,0,0-.072.943v.382h1.661a6.392,6.392,0,0,0,1.11-.071v.776a8.767,8.767,0,0,0-1.11-.06h-1.661v1.517h2.066a7.143,7.143,0,0,0,1.183-.072V408a6.655,6.655,0,0,0-1.134-.073h-.383V409.3h.37a6.917,6.917,0,0,0,1.135-.071v.812a6.879,6.879,0,0,0-1.135-.072h-.37v3.272c0,.729-.274.92-1.314.92-.167,0-.382-.011-1.086-.035a2.225,2.225,0,0,0-.179-.789,6.928,6.928,0,0,0,1.325.143c.454,0,.537-.047.537-.3v-3.213h-3.308a7.939,7.939,0,0,0-1.171.072v-.812a7.2,7.2,0,0,0,1.183.071h3.3v-1.374h-3.3a7.527,7.527,0,0,0-1.183.073v-.789a7.243,7.243,0,0,0,1.183.072h1.564v-1.517Zm.9,7.035a10.5,10.5,0,0,0-1.624-1.971l.573-.406a12.452,12.452,0,0,1,1.685,1.9Z" fill="#fff"/>
      <path id="パス_220727" data-name="パス 220727" d="M223.274,412.931a8.113,8.113,0,0,0,.072,1.314h-.86a8.541,8.541,0,0,0,.072-1.314v-7.68a11.6,11.6,0,0,0-.048-1.29,9.782,9.782,0,0,0,1.218.048h1.78a9.469,9.469,0,0,0,1.194-.048c-.024.252-.036.681-.036,1.111v1.434c0,.513.012.848.036,1.087-.275-.025-.681-.036-1.183-.036h-2.245Zm0-7.453H226v-.9h-2.723Zm0,1.505H226v-.943h-2.723Zm2.186,2.1c-.442,0-.92.024-1.111.048v-.693a6.458,6.458,0,0,0,1.111.06h3.715a6.692,6.692,0,0,0,1.122-.06v.693c-.191-.024-.668-.048-1.11-.048h-.431v1.445h.585a8.258,8.258,0,0,0,1.124-.059v.7a8.35,8.35,0,0,0-1.124-.06h-.585v1.8a5.574,5.574,0,0,0,.06,1h-.8a4.915,4.915,0,0,0,.071-1v-1.8H226.32a3.937,3.937,0,0,1-1.541,2.9,2.133,2.133,0,0,0-.585-.489,3.106,3.106,0,0,0,1.469-2.413h-.418a6.611,6.611,0,0,0-1.123.06v-.7a8.231,8.231,0,0,0,1.123.059h.466c.036-.573.036-.633.047-1.445Zm.967.132v.131c0,.323-.023.884-.047,1.182h1.707v-1.445h-1.66Zm5.614,3.87c0,.752-.251.967-1.135.967-.179,0-.824-.024-1.111-.048a2.825,2.825,0,0,0-.215-.752,8.189,8.189,0,0,0,1.279.131c.382,0,.465-.06.465-.334v-5.494h-2.388c-.431,0-.92.011-1.183.036.024-.3.036-.538.036-1.087v-1.434c0-.55-.012-.764-.036-1.111a9.137,9.137,0,0,0,1.183.048h1.934a10.027,10.027,0,0,0,1.231-.048,10.282,10.282,0,0,0-.06,1.278Zm-3.583-7.609h2.866v-.9h-2.866Zm0,1.505h2.866v-.943h-2.866Z" fill="#fff"/>
      <path id="パス_220728" data-name="パス 220728" d="M237.218,409.133a10.433,10.433,0,0,1-2.52,4.061,3.233,3.233,0,0,0-.668-.537,8.023,8.023,0,0,0,2.424-3.81Zm-1.767-1.3a8.032,8.032,0,0,0-1.218.072v-.861a8.011,8.011,0,0,0,1.23.072h7.572a8.23,8.23,0,0,0,1.23-.072v.861a7.724,7.724,0,0,0-1.218-.072h-3.332v5.243c0,.752-.239.931-1.278.931-.442,0-1.075-.023-1.541-.071a3.137,3.137,0,0,0-.191-.8,10.722,10.722,0,0,0,1.672.144c.466,0,.55-.048.55-.287v-5.159Zm7.644-2.6a8.491,8.491,0,0,0-1.231-.071h-5.338a8.894,8.894,0,0,0-1.219.071v-.86a8.167,8.167,0,0,0,1.231.072h5.339a8.094,8.094,0,0,0,1.218-.072Zm-1.039,3.619a10.281,10.281,0,0,0,2.532,3.679,3.791,3.791,0,0,0-.657.608,12.937,12.937,0,0,1-2.556-3.988Z" fill="#fff"/>
      <path id="パス_220729" data-name="パス 220729" d="M248.331,404.761a5.08,5.08,0,0,0-.071-1.026h.848a5.669,5.669,0,0,0-.072,1.026v.06h4.133v-.071a5.091,5.091,0,0,0-.072-1.015h.848a5.519,5.519,0,0,0-.072,1.015v.071h1.087a7.281,7.281,0,0,0,1.183-.071v.764a10.746,10.746,0,0,0-1.183-.06h-1.087v3.763h1.3a7.818,7.818,0,0,0,1.194-.072v.765a7.4,7.4,0,0,0-1.182-.073h-1.755a6.822,6.822,0,0,0,3.272,1.625,2.675,2.675,0,0,0-.418.7,8,8,0,0,1-3.75-2.329h-2.891a7.432,7.432,0,0,1-3.607,2.378,2.1,2.1,0,0,0-.406-.7,6.012,6.012,0,0,0,3.141-1.673h-1.708a7.79,7.79,0,0,0-1.17.073v-.765a6.972,6.972,0,0,0,1.17.072h1.266v-3.763h-.871a10.569,10.569,0,0,0-1.183.06v-.764a7.384,7.384,0,0,0,1.183.071h.871Zm2.353,6.415a4.9,4.9,0,0,0-.059-.932h.812a4.963,4.963,0,0,0-.06.932v.107h1.684a7.286,7.286,0,0,0,1.015-.048v.729a7.972,7.972,0,0,0-1.015-.048h-1.684v1.3H254.6a9.342,9.342,0,0,0,1.218-.06v.776a8.9,8.9,0,0,0-1.254-.071h-6.724a9.258,9.258,0,0,0-1.278.071v-.776a9.583,9.583,0,0,0,1.254.06h2.866v-1.3h-1.433a7.972,7.972,0,0,0-1.015.048v-.729a7.509,7.509,0,0,0,1.015.048h1.433Zm2.485-5.722h-4.133v.849h4.133Zm0,1.457h-4.133v.824h4.133Zm0,1.433h-4.133v.873h4.133Z" fill="#fff"/>
      <path id="パス_220730" data-name="パス 220730" d="M258.358,405.92a11.68,11.68,0,0,1,1.875,1.17l-.442.61a8.741,8.741,0,0,0-1.911-1.254Zm4.992,7.238a7.233,7.233,0,0,0,.084,1.23h-.908a7.643,7.643,0,0,0,.083-1.23v-1.087h-3.535a7.613,7.613,0,0,0-1.194.072v-.824a7.218,7.218,0,0,0,1.135.071h3.594v-.071a6.389,6.389,0,0,0-.047-.8h.836a5.453,5.453,0,0,0-.048.8v.071h3.75a7.214,7.214,0,0,0,1.171-.071v.824a7.72,7.72,0,0,0-1.194-.072H263.35Zm-2.4-4.694a14.55,14.55,0,0,1-2.126,1.959l-.19.155c-.036.024-.072.06-.108.084l-.1.084-.478-.681a10.468,10.468,0,0,0,2.64-2.2ZM259,403.711A9.3,9.3,0,0,1,260.794,405l-.466.586a6.9,6.9,0,0,0-1.815-1.362Zm7.633,2.747a7.167,7.167,0,0,0,1.1-.048v.68a8.471,8.471,0,0,0-1.1-.047h-1.374v.92h1.374a7.924,7.924,0,0,0,1.1-.048v.681a7.808,7.808,0,0,0-1.1-.048h-1.374v1.027h1.9a8.651,8.651,0,0,0,1.111-.06v.729a9.067,9.067,0,0,0-1.135-.06h-4.587a7.752,7.752,0,0,0-.943.048,6.206,6.206,0,0,0,.048-.884v-1.923c0-.525.012-.776.048-1.242a7.42,7.42,0,0,1-.956,1.039,1.572,1.572,0,0,0-.477-.537,7.545,7.545,0,0,0,2.389-3.129l.716.239c-.036.071-.06.1-.083.143-.013.023-.036.059-.072.119l-.048.1c-.144.25-.191.322-.49.788h1.947a5.455,5.455,0,0,0,.728-1.3l.669.227a7.62,7.62,0,0,1-.7,1.075h1.624a9.534,9.534,0,0,0,1.111-.06v.716a7.9,7.9,0,0,0-1.039-.059h-1.756v.92Zm-2.03-.92h-2.27v.919h2.27Zm-2.27,2.425h2.27v-.92h-2.27Zm0,1.612h2.27v-1.028h-2.27Z" fill="#fff"/>
      <path id="パス_220731" data-name="パス 220731" d="M269.793,405.706a6.11,6.11,0,0,0,.943.059h2.21a4.461,4.461,0,0,0,.932-.059v.764a5.1,5.1,0,0,0-.848-.048h-2.294a6.275,6.275,0,0,0-.943.048Zm.442,8.623a6.984,6.984,0,0,0,.072-1.135v-1.612a6.993,6.993,0,0,0-.06-.98c.239.024.645.048.944.048h1.516a5.936,5.936,0,0,0,.849-.036,9.078,9.078,0,0,0-.036.919v1.685a8.3,8.3,0,0,0,.047.955h-.7V413.7H271v.634Zm.036-6.964a5.1,5.1,0,0,0,.848.048h1.624a5.032,5.032,0,0,0,.836-.048v.717a5.422,5.422,0,0,0-.836-.047h-1.624a5.124,5.124,0,0,0-.848.047Zm0,1.625a4.961,4.961,0,0,0,.848.047h1.624a4.889,4.889,0,0,0,.836-.047v.717a5.592,5.592,0,0,0-.836-.049h-1.636a5.489,5.489,0,0,0-.836.049Zm.047-4.909a4.632,4.632,0,0,0,.9.06h1.446a4.632,4.632,0,0,0,.9-.06v.74a6.306,6.306,0,0,0-.9-.047h-1.446a6.523,6.523,0,0,0-.9.047Zm.67,9.005h1.875v-1.828h-1.875Zm8.981-3.882c-.358.478-.644.849-.86,1.135a11.7,11.7,0,0,1-1.027,1.171,8.382,8.382,0,0,0,2.556,1.959,2.827,2.827,0,0,0-.526.657,11.362,11.362,0,0,1-2.532-2.139,13.6,13.6,0,0,1-3.26,2.21,2.049,2.049,0,0,0-.514-.621,11.664,11.664,0,0,0,4.145-2.962,7.476,7.476,0,0,0,1.349-1.863Zm-.776-2.2a2.259,2.259,0,0,0-.191.239c-.1.132-.131.179-.3.418a12.76,12.76,0,0,1-4.275,3.989,2.685,2.685,0,0,0-.478-.585,10.693,10.693,0,0,0,2.46-1.732,13.009,13.009,0,0,0-2.221-1.958l.465-.5a9.415,9.415,0,0,1,.764.586,6.235,6.235,0,0,0,1.1-1.708h-1.231a7.77,7.77,0,0,0-1.075.06v-.777a5.991,5.991,0,0,0,1.075.06h1.553v-.55a4.139,4.139,0,0,0-.072-.919h.86a4.767,4.767,0,0,0-.071.919v.55h1.719a6.229,6.229,0,0,0,1.075-.06v.777a7.943,7.943,0,0,0-1.062-.06h-1.96a9.591,9.591,0,0,1-1.421,2.126c.346.31.657.609.992.967a8.385,8.385,0,0,0,1.589-2.257Z" fill="#fff"/>
      <path id="パス_220732" data-name="パス 220732" d="M286.329,404.714a5.378,5.378,0,0,0-.071-1.051h.907a5.294,5.294,0,0,0-.071,1.051v3.451h3.021a5.5,5.5,0,0,0,.92-.071,7.183,7.183,0,0,0-.048.932v4.132a8.336,8.336,0,0,0,.072,1.183h-.824v-.622h-7.107a6.859,6.859,0,0,0-1.087.072v-.848a7.65,7.65,0,0,0,1.075.06h7.119v-1.792h-6.677a7.685,7.685,0,0,0-1.039.06v-.824a6.166,6.166,0,0,0,1.075.06h6.641v-1.625h-7.023a6.588,6.588,0,0,0-1.075.06v-.836a6.9,6.9,0,0,0,1.11.059h3.082Zm-3.308-.335a13.718,13.718,0,0,1,1.815,2.843l-.681.4a11.765,11.765,0,0,0-1.8-2.879Zm8.062.275a12.444,12.444,0,0,1-1.959,3.165l-.645-.394a9.729,9.729,0,0,0,1.875-3.117Z" fill="#fff"/>
      <path id="パス_220733" data-name="パス 220733" d="M296.488,408.966a1.082,1.082,0,0,1-1.074,1.063,1.049,1.049,0,0,1-1.063-1.063,1.083,1.083,0,0,1,1.063-1.075,1.119,1.119,0,0,1,1.074,1.075" fill="#fff"/>
      <path id="パス_220734" data-name="パス 220734" d="M300.389,406.291a7.042,7.042,0,0,0-1.086.059v-.8a5.606,5.606,0,0,0,1.086.072h2.389v-.573a8.361,8.361,0,0,0-.071-1.314h.871a7.593,7.593,0,0,0-.06,1.314v2.878a15.537,15.537,0,0,1-.107,1.959c.215-.072.382-.12.824-.263v.669l-.717.227-.143.047-.071.013a5.012,5.012,0,0,1-3.106,3.774,3.194,3.194,0,0,0-.549-.657,4.3,4.3,0,0,0,2.819-2.867c-.646.179-1.1.3-1.876.49a9.6,9.6,0,0,0-1.289.371l-.239-.813a23.847,23.847,0,0,0,3.571-.764,13.765,13.765,0,0,0,.131-1.517h-2.042a7.807,7.807,0,0,0-1.088.059v-.776a5.14,5.14,0,0,0,1.088.06h2.054v-1.648Zm5.53,6.581a7.577,7.577,0,0,0,.072,1.386h-.872a8.713,8.713,0,0,0,.071-1.386v-7.787a11.339,11.339,0,0,0-.059-1.35h.86a8.63,8.63,0,0,0-.072,1.35v.573h2.449a5.548,5.548,0,0,0,1.087-.072v.8a5.746,5.746,0,0,0-1.087-.06h-2.449v1.745h2.222a5.206,5.206,0,0,0,1.075-.06v.776a5.775,5.775,0,0,0-1.075-.059h-2.222v1.91h2.5a6.482,6.482,0,0,0,1.123-.059v.812a7.025,7.025,0,0,0-1.123-.072h-2.5Z" fill="#fff"/>
      <path id="パス_220735" data-name="パス 220735" d="M311.084,405.706a6.11,6.11,0,0,0,.943.059h2.21a4.461,4.461,0,0,0,.932-.059v.764a5.1,5.1,0,0,0-.848-.048h-2.294a6.275,6.275,0,0,0-.943.048Zm.442,8.623a6.985,6.985,0,0,0,.072-1.135v-1.612a6.988,6.988,0,0,0-.06-.98c.239.024.645.048.944.048H314a5.936,5.936,0,0,0,.849-.036,9.08,9.08,0,0,0-.036.919v1.685a8.3,8.3,0,0,0,.047.955h-.7V413.7H312.29v.634Zm.036-6.964a5.1,5.1,0,0,0,.848.048h1.624a5.031,5.031,0,0,0,.836-.048v.717a5.422,5.422,0,0,0-.836-.047H312.41a5.124,5.124,0,0,0-.848.047Zm0,1.625a4.96,4.96,0,0,0,.848.047h1.624a4.889,4.889,0,0,0,.836-.047v.717a5.592,5.592,0,0,0-.836-.049H312.4a5.489,5.489,0,0,0-.836.049Zm.047-4.909a4.631,4.631,0,0,0,.9.06h1.446a4.631,4.631,0,0,0,.9-.06v.74a6.306,6.306,0,0,0-.9-.047h-1.446a6.523,6.523,0,0,0-.9.047Zm.67,9.005h1.875v-1.828h-1.875Zm8.981-3.882c-.358.478-.644.849-.86,1.135a11.7,11.7,0,0,1-1.027,1.171,8.382,8.382,0,0,0,2.556,1.959,2.827,2.827,0,0,0-.526.657,11.361,11.361,0,0,1-2.532-2.139,13.6,13.6,0,0,1-3.26,2.21,2.049,2.049,0,0,0-.514-.621,11.664,11.664,0,0,0,4.145-2.962,7.476,7.476,0,0,0,1.349-1.863Zm-.776-2.2a2.259,2.259,0,0,0-.191.239c-.1.132-.131.179-.3.418a12.76,12.76,0,0,1-4.275,3.989,2.685,2.685,0,0,0-.478-.585,10.691,10.691,0,0,0,2.46-1.732,13.009,13.009,0,0,0-2.221-1.958l.465-.5a9.426,9.426,0,0,1,.764.586,6.235,6.235,0,0,0,1.1-1.708h-1.231a7.77,7.77,0,0,0-1.075.06v-.777a5.991,5.991,0,0,0,1.075.06h1.553v-.55a4.139,4.139,0,0,0-.072-.919h.86a4.767,4.767,0,0,0-.071.919v.55h1.719a6.228,6.228,0,0,0,1.075-.06v.777a7.943,7.943,0,0,0-1.062-.06h-1.96a9.59,9.59,0,0,1-1.421,2.126c.346.31.657.609.992.967a8.386,8.386,0,0,0,1.589-2.257Z" fill="#fff"/>
      <path id="パス_220736" data-name="パス 220736" d="M327.62,404.714a5.378,5.378,0,0,0-.071-1.051h.907a5.3,5.3,0,0,0-.071,1.051v3.451h3.021a5.5,5.5,0,0,0,.92-.071,7.189,7.189,0,0,0-.048.932v4.132a8.336,8.336,0,0,0,.072,1.183h-.824v-.622h-7.107a6.859,6.859,0,0,0-1.087.072v-.848a7.649,7.649,0,0,0,1.075.06h7.119v-1.792h-6.677a7.686,7.686,0,0,0-1.039.06v-.824a6.167,6.167,0,0,0,1.075.06h6.641v-1.625H324.5a6.587,6.587,0,0,0-1.075.06v-.836a6.9,6.9,0,0,0,1.11.059h3.082Zm-3.308-.335a13.718,13.718,0,0,1,1.815,2.843l-.681.4a11.766,11.766,0,0,0-1.8-2.879Zm8.062.275a12.443,12.443,0,0,1-1.959,3.165l-.645-.394a9.728,9.728,0,0,0,1.875-3.117Z" fill="#fff"/>
      <path id="パス_220737" data-name="パス 220737" d="M340.06,413.015c2.4-.669,3.6-2.067,3.6-3.942a3.465,3.465,0,0,0-3.631-3.488,11.68,11.68,0,0,1-1.349,5.829,2.34,2.34,0,0,1-2.1,1.457c-1.027,0-2.006-1.218-2.006-3.2a5.008,5.008,0,0,1,5.255-4.813c2.52,0,4.694,1.624,4.694,4.216,0,2.389-1.457,3.917-3.942,4.706Zm-4.682-3.357c0,1.577.68,2.329,1.23,2.329.466,0,.943-.262,1.374-1.051a10.751,10.751,0,0,0,1.206-5.315,4.156,4.156,0,0,0-3.81,4.037" fill="#fff"/>
      <path id="パス_220738" data-name="パス 220738" d="M347.207,404.821a4.645,4.645,0,0,0-1,.072V404.1a6.34,6.34,0,0,0,1.051.073h1.624a5.453,5.453,0,0,0,.98-.073v.765a5.784,5.784,0,0,0-.848-.048h-.669a16.733,16.733,0,0,1-.776,3.01h1.277a4.255,4.255,0,0,0,.729-.048,6.821,6.821,0,0,0-.047.956v3.619a7.178,7.178,0,0,0,.047.992h-.7v-.586h-1.279v1.23h-.764a6.887,6.887,0,0,0,.072-1.135V410.2c.024-.466.048-.884.06-1.254a6.023,6.023,0,0,1-.8,1.457,2.23,2.23,0,0,0-.418-.657,9.985,9.985,0,0,0,1.887-4.921Zm.382,7.3h1.278v-3.643h-1.278Zm7.74,1.015a6.507,6.507,0,0,0,1.1-.059v.752a7.79,7.79,0,0,0-1.1-.072h-3.893v.586H350.7a7.763,7.763,0,0,0,.072-1.219v-3.165c.023-.621.036-1.015.047-1.17a6.17,6.17,0,0,1-.811,1,2.341,2.341,0,0,0-.443-.609,9.766,9.766,0,0,0,2.508-3.631h-1.349v1.3h-.729a4.638,4.638,0,0,0,.048-.693v-.681c0-.1,0-.3-.012-.382l-.012-.119v-.108a8.683,8.683,0,0,0,1.028.024h1.265a10.993,10.993,0,0,0,.335-1.3l.764.144-.084.239-.119.369c-.071.228-.1.275-.191.55h2.317a8.418,8.418,0,0,0,1.183-.06,5.424,5.424,0,0,0-.036.777v.585a3.3,3.3,0,0,0,.047.645h-.752v-1.29h-3a10.638,10.638,0,0,1-.944,1.815h1.565a5.937,5.937,0,0,0,.49-1.325l.7.167c-.036.1-.06.155-.072.179l-.107.3-.156.334c-.071.155-.107.251-.119.275l-.036.071h1.027a6.093,6.093,0,0,0,1.063-.059v.729a9.511,9.511,0,0,0-1.039-.06h-1.242v1.29h1.051a6.228,6.228,0,0,0,1.075-.06v.728a9.373,9.373,0,0,0-1.051-.06h-1.075v1.255h1.051a8.292,8.292,0,0,0,1.075-.048v.717a7.251,7.251,0,0,0-1.051-.06h-1.075v1.4Zm-2.09-5.159h-1.8v1.29h1.8Zm-1.8,3.153h1.8v-1.255h-1.8Zm0,2.006h1.8v-1.4h-1.8Z" fill="#fff"/>
      <path id="パス_220739" data-name="パス 220739" d="M358,405.753a5.685,5.685,0,0,0,.932.06h2.031a4.3,4.3,0,0,0,.931-.06v.753a8.2,8.2,0,0,0-.848-.036H358.93a6.41,6.41,0,0,0-.932.048Zm.418-1.624a4.034,4.034,0,0,0,.848.06h1.517a4.1,4.1,0,0,0,.848-.06v.74a5.389,5.389,0,0,0-.848-.048h-1.517a5.488,5.488,0,0,0-.848.048Zm.048,3.26a4.409,4.409,0,0,0,.788.048h1.565a4.258,4.258,0,0,0,.776-.048v.729a4.111,4.111,0,0,0-.776-.047h-1.565a4.341,4.341,0,0,0-.788.047Zm0,1.625a4.78,4.78,0,0,0,.788.047h1.565a4.526,4.526,0,0,0,.776-.047v.729a5.018,5.018,0,0,0-.788-.049h-1.553a4.745,4.745,0,0,0-.788.049Zm.024,5.255a10.374,10.374,0,0,0,.06-1.135v-1.6a7.08,7.08,0,0,0-.048-.955,6.72,6.72,0,0,0,.955.047h1.231a6.55,6.55,0,0,0,.859-.036,8.894,8.894,0,0,0-.036.92v1.648a6.453,6.453,0,0,0,.06.968h-.717v-.514h-1.636v.657ZM359.2,413h1.648v-1.78H359.2Zm3.953-2.424a8.544,8.544,0,0,1-.777,2.83l-.633-.322a6.38,6.38,0,0,0,.741-2.652Zm-.3-4.957c.646.227.86.31,1.433.561a8.487,8.487,0,0,0,.252-1.254h-1.1a6.722,6.722,0,0,0-1.171.071v-.787a7.276,7.276,0,0,0,1.182.071h3.572a7.689,7.689,0,0,0,1.1-.048c-.024.167-.024.251-.049.561a10.745,10.745,0,0,1-.572,3.7c-.168.322-.418.418-1.064.418-.286,0-.633-.024-.955-.047a2.155,2.155,0,0,0-.167-.753,4.528,4.528,0,0,0,1.1.143c.4,0,.513-.107.644-.608a14.671,14.671,0,0,0,.3-2.724h-2.126a7.839,7.839,0,0,1-.346,1.541c.466.238.693.37,1.3.74l-.394.573a9.83,9.83,0,0,0-1.135-.728,5.757,5.757,0,0,1-2.3,2.4,1.814,1.814,0,0,0-.5-.573,4.578,4.578,0,0,0,2.21-2.138,13.79,13.79,0,0,0-1.553-.62Zm1.529,7.476c0,.252.12.3.729.3.25,0,.788-.024.907-.036.4-.047.49-.167.574-.657a9.388,9.388,0,0,0,.083-.991,2.355,2.355,0,0,0,.669.239,4.482,4.482,0,0,1-.322,1.613c-.191.369-.586.477-1.72.477-1.35,0-1.6-.119-1.6-.741v-2.1a5.3,5.3,0,0,0-.072-.944h.812a5.284,5.284,0,0,0-.06.895Zm.1-4.3a9.258,9.258,0,0,1,1.887,1.516l-.538.5a6.141,6.141,0,0,0-1.863-1.6Zm3.069,1.469a11.384,11.384,0,0,1,1.421,2.472l-.621.394a9.353,9.353,0,0,0-1.385-2.544Z" fill="#fff"/>
      <path id="パス_220740" data-name="パス 220740" d="M230.46,423.645a4.619,4.619,0,0,0,.9.06h.573a6.707,6.707,0,0,0,.9-.06,8.4,8.4,0,0,0-.059,1.231v2.3a1.626,1.626,0,0,0,.561.765,4.02,4.02,0,0,0,2.723.644,42,42,0,0,0,5.148-.226,2.716,2.716,0,0,0-.275.848c-1.242.048-2.4.071-4.025.071-1.971,0-2.615-.083-3.3-.4a2.848,2.848,0,0,1-1.219-1.111,11.77,11.77,0,0,1-1.433,1.277,2.754,2.754,0,0,0-.263.227l-.083.072-.394-.764a7.661,7.661,0,0,0,1.839-1.4v-2.831h-.741a4.093,4.093,0,0,0-.847.06Zm.7-4.383a14.4,14.4,0,0,1,1.875,2.066l-.6.526a11.892,11.892,0,0,0-1.815-2.127Zm8.468.717a7.359,7.359,0,0,0,1.219-.072v.728a7.921,7.921,0,0,0-1.194-.059H239.1c-.108.286-.323.752-.5,1.1h.646a11.163,11.163,0,0,0,1.241-.048,11.286,11.286,0,0,0-.047,1.279v4.12c0,.728-.2.872-1.23.872-.192,0-.466-.012-.825-.024a2.59,2.59,0,0,0-.167-.7,8.823,8.823,0,0,0,1.111.083c.346,0,.418-.047.418-.275v-4.729h-5.184v4.275a9.44,9.44,0,0,0,.06,1.35H233.8a9.545,9.545,0,0,0,.071-1.35v-3.654c0-.633-.011-.944-.035-1.231.322.024.6.036,1.325.036h.478a7.273,7.273,0,0,0-.478-1.1h-.513a7.6,7.6,0,0,0-1.218.059v-.728a7.749,7.749,0,0,0,1.218.072h2.09a5.2,5.2,0,0,0-.06-.992h.848a4.989,4.989,0,0,0-.059.992ZM236,423.836a8.627,8.627,0,0,0-1,.048v-.657a6.366,6.366,0,0,0,1,.06h.837a4.963,4.963,0,0,0-.048-.789h.7a4.438,4.438,0,0,0-.047.789h.9a6.353,6.353,0,0,0,1.015-.06v.657a8.737,8.737,0,0,0-1.015-.048h-.9v.872h.406a6,6,0,0,0,.919-.048c-.024.227-.035.525-.035.86v.621a5.348,5.348,0,0,0,.024.776,8.265,8.265,0,0,0-.836-.035h-1.8v.573h-.669a7.871,7.871,0,0,0,.036-.848v-1.123c0-.334-.012-.549-.036-.824a5.751,5.751,0,0,0,.908.048h.478v-.872Zm1.9-2.162a7.624,7.624,0,0,0,.477-1.1h-2.5a11.121,11.121,0,0,1,.454,1.1Zm-1.792,4.682h2.018v-1.122h-2.018Z" fill="#fff"/>
      <path id="パス_220741" data-name="パス 220741" d="M242.958,420.815a11.248,11.248,0,0,0-.048-1.124,1.748,1.748,0,0,0,.347.024,1.61,1.61,0,0,0,.286.012h1.314a9.513,9.513,0,0,0,1.051-.036,8.191,8.191,0,0,0-.036,1.159v6.414a9.79,9.79,0,0,0,.036,1.123h-.728V427.8h-1.541v.955h-.753a8.248,8.248,0,0,0,.072-1.23Zm.693,2.483h1.529v-2.914h-1.529Zm0,3.847h1.529v-3.213h-1.529Zm4.085-6.032a8.188,8.188,0,0,0-1.123.06V420.4a6.3,6.3,0,0,0,1.11.071h1.254v-.382a5.388,5.388,0,0,0-.071-.943h.86a5.189,5.189,0,0,0-.072.943v.382h1.661a6.392,6.392,0,0,0,1.11-.071v.776a8.767,8.767,0,0,0-1.11-.06h-1.661v1.517h2.066a7.147,7.147,0,0,0,1.183-.072v.789a6.655,6.655,0,0,0-1.134-.073h-.383v1.374h.37a6.916,6.916,0,0,0,1.135-.071v.811a7.009,7.009,0,0,0-1.135-.071h-.37v3.272c0,.729-.274.92-1.314.92-.167,0-.382-.011-1.086-.035a2.225,2.225,0,0,0-.179-.789,6.928,6.928,0,0,0,1.325.143c.454,0,.537-.047.537-.3v-3.213H247.4a8.093,8.093,0,0,0-1.171.071v-.811a7.2,7.2,0,0,0,1.183.071h3.3v-1.374h-3.3a7.527,7.527,0,0,0-1.183.073v-.789a7.247,7.247,0,0,0,1.183.072h1.564v-1.517Zm.9,7.035a10.5,10.5,0,0,0-1.624-1.971l.573-.406a12.451,12.451,0,0,1,1.685,1.9Z" fill="#fff"/>
      <path id="パス_220742" data-name="パス 220742" d="M255.612,428.279a8.111,8.111,0,0,0,.072,1.314h-.86a8.575,8.575,0,0,0,.071-1.314V420.6a11.657,11.657,0,0,0-.047-1.29,9.782,9.782,0,0,0,1.218.048h1.78a9.469,9.469,0,0,0,1.194-.048c-.024.252-.036.681-.036,1.111v1.434c0,.513.012.847.036,1.086-.275-.024-.681-.035-1.183-.035h-2.245Zm0-7.453h2.723v-.9h-2.723Zm0,1.505h2.723v-.943h-2.723Zm2.186,2.1c-.442,0-.92.024-1.111.048v-.693a6.458,6.458,0,0,0,1.111.06h3.715a6.692,6.692,0,0,0,1.122-.06v.693c-.191-.024-.668-.048-1.111-.048h-.43v1.445h.585a8.253,8.253,0,0,0,1.124-.059v.7a8.556,8.556,0,0,0-1.124-.059h-.585v1.8a5.562,5.562,0,0,0,.06,1h-.8a4.9,4.9,0,0,0,.071-1v-1.8h-1.767a3.937,3.937,0,0,1-1.541,2.9,2.133,2.133,0,0,0-.585-.489A3.109,3.109,0,0,0,258,426.464h-.418a6.744,6.744,0,0,0-1.123.059v-.7a8.226,8.226,0,0,0,1.123.059h.466c.036-.573.036-.633.047-1.445Zm.967.132v.131c0,.323-.023.884-.048,1.182h1.708v-1.445h-1.66Zm5.614,3.869c0,.753-.251.968-1.135.968-.179,0-.824-.024-1.111-.048a2.825,2.825,0,0,0-.215-.752,8.19,8.19,0,0,0,1.278.131c.383,0,.466-.06.466-.334V422.9h-2.388c-.431,0-.92.011-1.183.035.024-.3.036-.537.036-1.086V420.42c0-.55-.012-.764-.036-1.111a9.136,9.136,0,0,0,1.183.048h1.934a10.027,10.027,0,0,0,1.231-.048,10.272,10.272,0,0,0-.06,1.278Zm-3.583-7.608h2.866v-.9H260.8Zm0,1.505h2.866v-.943H260.8Z" fill="#fff"/>
      <path id="パス_220743" data-name="パス 220743" d="M269.555,424.481a10.433,10.433,0,0,1-2.52,4.061,3.234,3.234,0,0,0-.668-.537,8.023,8.023,0,0,0,2.424-3.81Zm-1.767-1.3a8.027,8.027,0,0,0-1.218.072v-.861a8.01,8.01,0,0,0,1.23.072h7.572a8.229,8.229,0,0,0,1.23-.072v.861a7.728,7.728,0,0,0-1.218-.072h-3.332v5.243c0,.752-.239.931-1.278.931-.442,0-1.075-.023-1.541-.071a3.138,3.138,0,0,0-.191-.8,10.722,10.722,0,0,0,1.672.144c.466,0,.55-.048.55-.287V423.18Zm7.644-2.6a8.5,8.5,0,0,0-1.231-.071h-5.338a8.9,8.9,0,0,0-1.219.071v-.86a8.167,8.167,0,0,0,1.231.072h5.339a8.094,8.094,0,0,0,1.218-.072Zm-1.039,3.619a10.281,10.281,0,0,0,2.532,3.679,3.791,3.791,0,0,0-.657.608,12.937,12.937,0,0,1-2.556-3.988Z" fill="#fff"/>
      <path id="パス_220744" data-name="パス 220744" d="M282.2,428.375a10.421,10.421,0,0,1-3.488,1.254,2.179,2.179,0,0,0-.429-.644,8.5,8.5,0,0,0,3.332-1.04Zm-.645-6.211c-.74.335-1.469.634-2.341.956a5.317,5.317,0,0,0-.525.227l-.287-.764a12.578,12.578,0,0,0,2.962-1.028Zm-.848-1.158a7.437,7.437,0,0,0-1.911-1.171l.454-.549a10.735,10.735,0,0,1,1.911,1.134Zm5.255,2.377a9.676,9.676,0,0,0,1.219-.048c-.024.263-.036.7-.036,1.29v2.042a9.4,9.4,0,0,0,.047,1.207,12.3,12.3,0,0,0-1.313-.049h-4.789a12.314,12.314,0,0,0-1.314.049,9.123,9.123,0,0,0,.047-1.2V424.6c0-.562-.012-.991-.036-1.254.3.024.706.036,1.218.036Zm-5.422,1.3h5.888v-.729h-5.888Zm0,1.278h5.888v-.729h-5.888Zm0,1.3h5.888v-.752h-5.888Zm2.269-6.724a7.076,7.076,0,0,1-1.111,1.027,1.664,1.664,0,0,0-.513-.454,4.688,4.688,0,0,0,1.839-2.186l.717.228-.119.179c-.013.024-.06.1-.12.191-.023.036-.06.1-.119.191l-.084.132-.084.119h3.99a3.5,3.5,0,0,0,.788-.06l.454.37-.06.084-.071.1a.4.4,0,0,0-.084.108l-.072.1a5.053,5.053,0,0,1-1.087,1.075,3.182,3.182,0,0,0-.657-.3,2.968,2.968,0,0,0,1.039-.9h-2.412c.394,1.23,1.84,2.1,3.845,2.329a2.329,2.329,0,0,0-.369.669c-1.947-.406-3.154-1.135-3.822-2.3-.5,1.051-1.482,1.66-3.165,1.97a1.952,1.952,0,0,0-.395-.584c1.78-.18,2.879-.9,3.142-2.079Zm2.449,7.417a9.2,9.2,0,0,0,3.476,1,2.415,2.415,0,0,0-.443.669,10.231,10.231,0,0,1-3.594-1.254Z" fill="#fff"/>
      <path id="パス_220745" data-name="パス 220745" d="M291.484,423.716a6.8,6.8,0,0,0-1.015.06v-.753a6.033,6.033,0,0,0,1.015.06h.92v-2.758a7.655,7.655,0,0,0-.072-1.255h.848a9.834,9.834,0,0,0-.059,1.242v2.771h.692a5.674,5.674,0,0,0,.873-.047v.728a8.157,8.157,0,0,0-.885-.048h-.633a7.056,7.056,0,0,0,1.661,2.174,3.877,3.877,0,0,0-.407.633,7.3,7.3,0,0,1-1.374-2.067c.025.407.025.455.049.873,0,.191.011.37.011.454,0,.191.013.382.013.4v2.2a9.546,9.546,0,0,0,.059,1.29h-.848a9.857,9.857,0,0,0,.072-1.3V426.38c0-.478.024-1.278.047-1.815a9.1,9.1,0,0,1-1.791,3.355,2.093,2.093,0,0,0-.442-.657,9.131,9.131,0,0,0,2.043-3.547Zm-.358-3.918a14.643,14.643,0,0,1,.788,2.521l-.621.263a10.66,10.66,0,0,0-.764-2.5Zm3.833.239a13.179,13.179,0,0,1-.943,2.545l-.573-.275a9.192,9.192,0,0,0,.86-2.544Zm3.8.264a7.073,7.073,0,0,0-.071-1.231h.9a6.576,6.576,0,0,0-.073,1.219v5.4l.167-.047a6.5,6.5,0,0,0,1.088-.335l.131.824a9.757,9.757,0,0,0-1.111.215l-.275.06v1.97a8.411,8.411,0,0,0,.073,1.267h-.9a9.071,9.071,0,0,0,.071-1.29v-1.768l-3.082.74a9.271,9.271,0,0,0-1.086.323l-.156-.824a7.861,7.861,0,0,0,1.123-.191l3.2-.765Zm-3.129,2.555a11.218,11.218,0,0,1,2.1,1.78l-.49.6a8.687,8.687,0,0,0-2.114-1.839Zm.358-2.926a12.3,12.3,0,0,1,2.1,1.839l-.478.6a10.03,10.03,0,0,0-2.139-1.886Z" fill="#fff"/>
      <path id="パス_220746" data-name="パス 220746" d="M307.721,428.363c2.4-.669,3.6-2.067,3.6-3.942a3.465,3.465,0,0,0-3.631-3.488,11.68,11.68,0,0,1-1.349,5.829,2.34,2.34,0,0,1-2.1,1.457c-1.027,0-2.006-1.218-2.006-3.2a5.008,5.008,0,0,1,5.255-4.813c2.52,0,4.694,1.624,4.694,4.216,0,2.389-1.457,3.917-3.942,4.706Zm-4.682-3.357c0,1.577.681,2.329,1.23,2.329.466,0,.943-.262,1.374-1.051a10.762,10.762,0,0,0,1.206-5.315,4.156,4.156,0,0,0-3.81,4.037" fill="#fff"/>
      <path id="パス_220747" data-name="パス 220747" d="M317.3,419.214c-.143.347-.179.43-.262.656a16.577,16.577,0,0,1-.872,1.935v6.415a10.97,10.97,0,0,0,.083,1.4h-.919a10.067,10.067,0,0,0,.083-1.433V424.3c0-.573.012-.8.048-1.517a8.806,8.806,0,0,1-1.457,1.863l-.072-.119a2.005,2.005,0,0,0-.418-.514,10.048,10.048,0,0,0,2.974-5.076Zm1.768,2.305a12.818,12.818,0,0,1-1.851,2.843,1.878,1.878,0,0,0-.585-.561,10.067,10.067,0,0,0,2.568-4.85l.811.263c-.083.2-.107.275-.226.6-.179.5-.192.526-.406,1.039H323.1a6.5,6.5,0,0,0,1.075-.071v.8a6.321,6.321,0,0,0-1.075-.06h-2.747v1.887h2.377a5.765,5.765,0,0,0,1.027-.072v.813a6.612,6.612,0,0,0-1.039-.072h-2.365v1.9h2.413a6.514,6.514,0,0,0,1.039-.072v.812a6.42,6.42,0,0,0-1.039-.072h-2.413v1.792a7.126,7.126,0,0,0,.083,1.23h-.907a6.767,6.767,0,0,0,.071-1.23v-6.915Z" fill="#fff"/>
      <path id="パス_220748" data-name="パス 220748" d="M335.3,422.9c-.072.143-.179.406-.347.788a11.009,11.009,0,0,1-1.564,2.855,4.1,4.1,0,0,0,1.194,1.552,1.047,1.047,0,0,0,.5.275c.192,0,.383-.609.526-1.684a2.791,2.791,0,0,0,.633.514,5.334,5.334,0,0,1-.418,1.421c-.191.37-.43.562-.728.562a2.195,2.195,0,0,1-1.243-.717,5.877,5.877,0,0,1-.967-1.326,10.185,10.185,0,0,1-3.237,2.341,2.112,2.112,0,0,0-.573-.6,8.618,8.618,0,0,0,3.476-2.425,15.252,15.252,0,0,1-1-4.873h-4.109c-.012,1.028-.012,1.457-.023,1.911h2.233a5.578,5.578,0,0,0,.872-.047,2.508,2.508,0,0,0-.024.286l-.012.119c0,.036-.024.407-.048.908a8.389,8.389,0,0,1-.346,2.52c-.179.358-.43.466-1.087.466a8,8,0,0,1-1.23-.108,2.58,2.58,0,0,0-.143-.764,6.049,6.049,0,0,0,1.385.192c.382,0,.478-.108.561-.622a16.973,16.973,0,0,0,.155-2.293h-2.34c-.12,2.711-.454,4.12-1.266,5.279a2.3,2.3,0,0,0-.621-.525,4.974,4.974,0,0,0,.824-1.768,21.941,21.941,0,0,0,.382-4.921,7.653,7.653,0,0,0-.072-1.361,14.186,14.186,0,0,0,1.421.06h3.464a13.526,13.526,0,0,0-.119-1.9h.908a4.71,4.71,0,0,0-.072.979c0,.192,0,.371.023.921h2.557a7.074,7.074,0,0,0,1.254-.072v.8a8.715,8.715,0,0,0-1.314-.06h-2.472a14.034,14.034,0,0,0,.776,4.216,9.263,9.263,0,0,0,1.433-3.224Zm-.634-2.174a8.046,8.046,0,0,0-1.7-1.242l.5-.406a9.913,9.913,0,0,1,1.684,1.158Z" fill="#fff"/>
      <rect id="長方形_16822" data-name="長方形 16822" width="100.844" height="83.315" transform="translate(37.813 363.168)" fill="#002060"/>
      <path id="パス_220749" data-name="パス 220749" d="M59.77,389.473a11.142,11.142,0,0,0,.092,1.765H58.357a11.9,11.9,0,0,0,.092-1.8V379.57a15.125,15.125,0,0,0-.061-1.673,13.657,13.657,0,0,0,1.551.06h2.533a13.022,13.022,0,0,0,1.535-.06c-.031.368-.046.906-.046,1.412v1.919c0,.63.015,1.059.03,1.382-.4-.031-.813-.046-1.427-.046H59.77Zm0-9.688h2.963v-.86H59.77Zm0,1.8h2.963v-.891H59.77Zm5.573,5.788a5.26,5.26,0,0,0,2.962,1.72,5.535,5.535,0,0,0-.384.706,6.81,6.81,0,0,0,1.168.107c.414,0,.506-.076.506-.414v-6.924H66.571c-.63,0-1.106.015-1.443.046.031-.246.046-.814.046-1.382v-1.919c0-.537-.015-1.075-.046-1.412a13,13,0,0,0,1.534.06h2.764a13.489,13.489,0,0,0,1.551-.06c-.046.537-.061.982-.061,1.658v10.071c0,1.228-.323,1.489-1.766,1.489-.246,0-.66-.015-1-.03a3.48,3.48,0,0,0-.246-1.229,2.834,2.834,0,0,0-.153.43,6.528,6.528,0,0,1-3.163-2.226,5.3,5.3,0,0,1-3.5,2.671,3.829,3.829,0,0,0-.722-1.074c1.843-.477,2.764-1.121,3.255-2.288H61.965a7.955,7.955,0,0,0-1.32.077v-1.183a6.768,6.768,0,0,0,1.259.077h1.965c.031-.322.046-.522.061-1.09H62.118a7.041,7.041,0,0,0-1.166.062v-1.121a7.242,7.242,0,0,0,1.136.061H62.7a6.488,6.488,0,0,0-.8-1.12l1.135-.338a12.486,12.486,0,0,1,.922,1.458h1.366a9.9,9.9,0,0,0,.768-1.473l1.2.276a9.8,9.8,0,0,1-.721,1.2h.66a7.837,7.837,0,0,0,1.167-.061v1.121a7.056,7.056,0,0,0-1.167-.062H65.143c-.031.553-.031.706-.077,1.09H67.4a6.461,6.461,0,0,0,1.274-.077v1.183a6.954,6.954,0,0,0-1.274-.077Zm1.059-7.584H69.6v-.86H66.4Zm0,1.8H69.6v-.891H66.4Z" fill="#fff"/>
      <path id="パス_220750" data-name="パス 220750" d="M74.58,385.189c0-.415.015-1.244.046-2.058A9.779,9.779,0,0,1,73.46,384.9a8.644,8.644,0,0,0-.63-1.413,13.552,13.552,0,0,0,2.9-6.1l1.458.353c-.077.2-.138.369-.153.431-.016.03-.062.153-.123.337a25.835,25.835,0,0,1-1.029,2.656v8.352a14.238,14.238,0,0,0,.077,1.827H74.488a14.284,14.284,0,0,0,.092-1.812Zm5.25,1.658a12.363,12.363,0,0,1-2.287,3.792,6.338,6.338,0,0,0-1.1-.8,8.326,8.326,0,0,0,2.195-3.5Zm-3.208-2.211a7.87,7.87,0,0,0,1.2.062c.368,0,.706,0,1.3-.016a11.434,11.434,0,0,0,1.059-.875,20.152,20.152,0,0,0-2.962-2.073l.783-1c.491.291.6.353.814.506l.2.123.062-.062.107-.092a7.474,7.474,0,0,0,1.152-1.366l-.184.015-.185.015c-.676.077-1.551.154-2.349.184a5.285,5.285,0,0,0-.154-.629c-.045-.123-.061-.168-.245-.614,2.886,0,7.6-.66,8.306-1.151l.752,1.2c-.215.031-.246.047-.338.062s-.154.03-.215.045l-.292.077c-.6.154-2.64.507-3.362.584A16.566,16.566,0,0,1,80,382.041c.492.353.753.553,1.152.875a13.589,13.589,0,0,0,2.518-3.04l1.305.676c-.062.061-.093.107-.108.107-.015.031-.169.216-.614.753a29.087,29.087,0,0,1-3.239,3.224c1.443-.031,2.456-.092,3.562-.185-.338-.475-.538-.736-1.075-1.4l1.059-.522a18.9,18.9,0,0,1,2.364,3.408l-1.166.629c-.261-.553-.338-.706-.522-1.044-1.32.123-1.458.123-3.056.215v3.992a10.583,10.583,0,0,0,.093,1.612H80.767a10.719,10.719,0,0,0,.093-1.612V385.8l-2.242.092-1.29.03a4.931,4.931,0,0,0-.583.062Zm7.8,1.627a10.925,10.925,0,0,0,2.456,3.531,8.213,8.213,0,0,0-1.074.845,14.65,14.65,0,0,1-2.5-3.808Z" fill="#fff"/>
      <path id="パス_220751" data-name="パス 220751" d="M94.933,383.147a8.231,8.231,0,0,0,1.335-.077v1.4a8.318,8.318,0,0,0-1.274-.076H89.943a8.913,8.913,0,0,0-1.474.076v-1.4a11.058,11.058,0,0,0,1.49.077h3.07a11.694,11.694,0,0,0,.921-2.672l1.29.354a12.785,12.785,0,0,1-.937,2.318Zm-.215-4.069A7.585,7.585,0,0,0,96.1,379v1.366a6.541,6.541,0,0,0-1.306-.077H90.1a6.868,6.868,0,0,0-1.275.077V379a7.668,7.668,0,0,0,1.413.076h1.658V378.6A5.039,5.039,0,0,0,91.8,377.5h1.52a6.736,6.736,0,0,0-.077,1.106v.475Zm-3.976,12.16H89.36a10.289,10.289,0,0,0,.061-1.382v-3.193a11.416,11.416,0,0,0-.046-1.244,11.8,11.8,0,0,0,1.2.046h3.746a7.949,7.949,0,0,0,1.105-.046,6.7,6.7,0,0,0-.046,1.167v3.5a7.46,7.46,0,0,0,.062,1.136h-1.4v-.875h-3.3Zm.245-10.824a11.1,11.1,0,0,1,.86,2.257l-1.229.4a8.954,8.954,0,0,0-.813-2.241Zm-.245,8.736h3.316v-2.486H90.742Zm11.514-10.394a7.061,7.061,0,0,0-.291.645,36.819,36.819,0,0,1-1.72,3.638,7.055,7.055,0,0,1,1.551,2.242,5.727,5.727,0,0,1,.429,2.1,1.914,1.914,0,0,1-.783,1.736,3.162,3.162,0,0,1-1.6.275c-.368,0-.568-.015-1-.046a3.109,3.109,0,0,0-.277-1.381,7.2,7.2,0,0,0,1.259.107c.8,0,1.06-.2,1.06-.813a4.688,4.688,0,0,0-.476-1.981,6.713,6.713,0,0,0-1.659-2.057,19.223,19.223,0,0,0,1.8-4.038H98.1v10.44a9.355,9.355,0,0,0,.107,1.719h-1.52a11.918,11.918,0,0,0,.092-1.688V379.2a12.164,12.164,0,0,0-.061-1.289c.276.03.737.045,1.213.045h2.533a6.841,6.841,0,0,0,1.182-.06Z" fill="#fff"/>
      <path id="パス_220752" data-name="パス 220752" d="M105.921,389.442a11.778,11.778,0,0,0,.092,1.78h-1.52a12.762,12.762,0,0,0,.092-1.8V379.6a15.148,15.148,0,0,0-.061-1.673,13.039,13.039,0,0,0,1.551.061h2.456a12.744,12.744,0,0,0,1.535-.061c-.031.323-.046.845-.046,1.413v2.748c0,.691.015,1.1.031,1.381-.338-.03-.906-.046-1.428-.046h-2.7Zm0-9.258h2.871v-1.106h-2.871Zm0,2.18h2.871v-1.136h-2.871Zm10.931,7.124c0,1.243-.384,1.535-2.057,1.535-.477,0-.876-.016-1.582-.031a5.171,5.171,0,0,0-.353-1.381,15.837,15.837,0,0,0,1.965.153c.568,0,.692-.077.692-.384v-5.957h-2.872c-.537,0-1.166.016-1.443.046.03-.322.046-.752.046-1.381V379.34c0-.661-.016-1-.046-1.413a12.586,12.586,0,0,0,1.535.061h2.611a13.158,13.158,0,0,0,1.565-.061c-.046.476-.061,1-.061,1.673Zm-4.376-9.3h3.04v-1.106h-3.04Zm0,2.18h3.04v-1.136h-3.04Z" fill="#fff"/>
      <path id="パス_220753" data-name="パス 220753" d="M64.752,406.088c-.012.2-.036.31-.06.5a7.136,7.136,0,0,0,3.5,3.918,2.946,2.946,0,0,0-.514.68,7.963,7.963,0,0,1-3.224-3.559A6.073,6.073,0,0,1,61.36,411.3a2.672,2.672,0,0,0-.526-.6,5.364,5.364,0,0,0,3.178-4.61h-3.38v6.82a8.1,8.1,0,0,0,.059,1.3h-.908a7.227,7.227,0,0,0,.084-1.3v-6.534c0-.418-.024-.812-.048-1.05a11.414,11.414,0,0,0,1.158.059h3.094c.024-.347.036-.562.036-.848a4.545,4.545,0,0,0-.084-.968h.908a4.9,4.9,0,0,0-.083.836c-.013.669-.013.717-.036.98h3.225a11.712,11.712,0,0,0,1.182-.059,8.436,8.436,0,0,0-.048,1.038v6.76c0,.741-.239.884-1.48.884-.371,0-.849-.023-1.339-.072a2.762,2.762,0,0,0-.179-.8,8.219,8.219,0,0,0,1.6.156c.549,0,.633-.036.633-.311v-6.891Z" fill="#fff"/>
      <path id="パス_220754" data-name="パス 220754" d="M73.058,410.71l-.119.084a12.991,12.991,0,0,1-1.35.788,2.182,2.182,0,0,0-.442-.657,11.025,11.025,0,0,0,4.873-3.81h.753a10.816,10.816,0,0,0,4.908,3.774,2.756,2.756,0,0,0-.442.717,18.5,18.5,0,0,1-1.672-.98v2.652a7.074,7.074,0,0,0,.072,1.039h-.8v-.585h-4.92v.585h-.813a6.929,6.929,0,0,0,.072-1.039v-2.64Zm2.794-6.378a3.494,3.494,0,0,0-.071-.729h.9a3.418,3.418,0,0,0-.072.729v.358h3.476c.406,0,.836-.012,1.182-.047a4.837,4.837,0,0,0-.047.8v.74a4.755,4.755,0,0,0,.047.813H80.5v-1.625h-8.23V407H71.5a5.283,5.283,0,0,0,.048-.813v-.74a5.1,5.1,0,0,0-.048-.8c.335.035.777.047,1.182.047h3.165Zm-.668,1.923a9.843,9.843,0,0,1-2.9,2.509,2.2,2.2,0,0,0-.562-.6,6.888,6.888,0,0,0,2.819-2.269Zm3.679,3.882a10.42,10.42,0,0,1-2.449-2.4,11.433,11.433,0,0,1-2.52,2.4Zm-4.945,2.926h4.92v-2.245h-4.92Zm4.156-7.178a7.787,7.787,0,0,0,3.022,2.209,2.6,2.6,0,0,0-.442.645,9.7,9.7,0,0,1-3.177-2.46Z" fill="#fff"/>
      <path id="パス_220755" data-name="パス 220755" d="M88.651,413.015c2.4-.669,3.6-2.067,3.6-3.942a3.465,3.465,0,0,0-3.631-3.488,11.681,11.681,0,0,1-1.349,5.829,2.34,2.34,0,0,1-2.1,1.457c-1.027,0-2.006-1.218-2.006-3.2a5.008,5.008,0,0,1,5.255-4.813c2.52,0,4.694,1.624,4.694,4.216,0,2.389-1.457,3.917-3.942,4.706Zm-4.682-3.357c0,1.577.681,2.329,1.23,2.329.466,0,.943-.262,1.374-1.051a10.762,10.762,0,0,0,1.206-5.315,4.156,4.156,0,0,0-3.81,4.037" fill="#fff"/>
      <path id="パス_220756" data-name="パス 220756" d="M95.8,404.821a4.65,4.65,0,0,0-1,.072V404.1a6.362,6.362,0,0,0,1.052.073h1.624a5.46,5.46,0,0,0,.98-.073v.765a5.8,5.8,0,0,0-.849-.048h-.668a16.733,16.733,0,0,1-.776,3.01h1.277a4.27,4.27,0,0,0,.729-.048,6.792,6.792,0,0,0-.048.956v3.619a7.145,7.145,0,0,0,.048.992h-.705v-.586H96.181v1.23h-.764a6.9,6.9,0,0,0,.071-1.135V410.2c.024-.466.048-.884.06-1.254a6.057,6.057,0,0,1-.8,1.457,2.229,2.229,0,0,0-.418-.657,9.995,9.995,0,0,0,1.887-4.921Zm.382,7.3h1.278v-3.643H96.181Zm7.74,1.015a6.515,6.515,0,0,0,1.1-.059v.752a7.81,7.81,0,0,0-1.1-.072h-3.894v.586h-.74a7.914,7.914,0,0,0,.071-1.219v-3.165c.024-.621.036-1.015.048-1.17a6.129,6.129,0,0,1-.812,1,2.362,2.362,0,0,0-.442-.609,9.789,9.789,0,0,0,2.508-3.631H99.31v1.3h-.728a4.641,4.641,0,0,0,.048-.693v-.681a3.634,3.634,0,0,0-.013-.382l-.011-.119v-.108a8.672,8.672,0,0,0,1.027.024H100.9a11.194,11.194,0,0,0,.335-1.3l.764.144-.084.239-.119.369c-.072.228-.1.275-.192.55h2.318a8.4,8.4,0,0,0,1.182-.06,5.58,5.58,0,0,0-.036.777v.585a3.288,3.288,0,0,0,.048.645h-.752v-1.29h-3a10.638,10.638,0,0,1-.943,1.815h1.565a5.98,5.98,0,0,0,.489-1.325l.705.167c-.035.1-.06.155-.071.179l-.108.3-.155.334c-.072.155-.108.251-.119.275l-.036.071h1.026a6.113,6.113,0,0,0,1.064-.059v.729a9.511,9.511,0,0,0-1.039-.06H102.5v1.29h1.051a6.227,6.227,0,0,0,1.075-.06v.728a9.373,9.373,0,0,0-1.051-.06H102.5v1.255h1.051a8.283,8.283,0,0,0,1.075-.048v.717a7.243,7.243,0,0,0-1.051-.06H102.5v1.4Zm-2.09-5.159h-1.8v1.29h1.8Zm-1.8,3.153h1.8v-1.255h-1.8Zm0,2.006h1.8v-1.4h-1.8Z" fill="#fff"/>
      <path id="パス_220757" data-name="パス 220757" d="M106.589,405.753a5.684,5.684,0,0,0,.932.06h2.031a4.3,4.3,0,0,0,.931-.06v.753a8.2,8.2,0,0,0-.848-.036h-2.114a6.41,6.41,0,0,0-.932.048Zm.418-1.624a4.038,4.038,0,0,0,.849.06h1.516a4.092,4.092,0,0,0,.848-.06v.74a5.389,5.389,0,0,0-.848-.048h-1.516a5.493,5.493,0,0,0-.849.048Zm.048,3.26a4.409,4.409,0,0,0,.788.048h1.565a4.278,4.278,0,0,0,.777-.048v.729a4.13,4.13,0,0,0-.777-.047h-1.565a4.341,4.341,0,0,0-.788.047Zm0,1.625a4.779,4.779,0,0,0,.788.047h1.565a4.547,4.547,0,0,0,.777-.047v.729a5.04,5.04,0,0,0-.789-.049h-1.553a4.745,4.745,0,0,0-.788.049Zm.024,5.255a10.376,10.376,0,0,0,.06-1.135v-1.6a7.082,7.082,0,0,0-.048-.955,6.72,6.72,0,0,0,.955.047h1.231a6.55,6.55,0,0,0,.859-.036,8.9,8.9,0,0,0-.036.92v1.648a6.452,6.452,0,0,0,.06.968h-.717v-.514h-1.636v.657ZM107.8,413h1.648v-1.78H107.8Zm3.953-2.424a8.544,8.544,0,0,1-.777,2.83l-.633-.322a6.364,6.364,0,0,0,.741-2.652Zm-.3-4.957c.646.227.86.31,1.433.561a8.487,8.487,0,0,0,.252-1.254h-1.1a6.722,6.722,0,0,0-1.171.071v-.787a7.276,7.276,0,0,0,1.182.071h3.572a7.689,7.689,0,0,0,1.1-.048c-.024.167-.024.251-.049.561a10.744,10.744,0,0,1-.572,3.7c-.168.322-.418.418-1.064.418-.286,0-.633-.024-.955-.047a2.155,2.155,0,0,0-.167-.753,4.535,4.535,0,0,0,1.1.143c.4,0,.513-.107.644-.608a14.673,14.673,0,0,0,.3-2.724h-2.126a7.839,7.839,0,0,1-.346,1.541c.466.238.693.37,1.3.74l-.394.573a9.83,9.83,0,0,0-1.135-.728,5.757,5.757,0,0,1-2.305,2.4,1.814,1.814,0,0,0-.5-.573,4.578,4.578,0,0,0,2.21-2.138,13.79,13.79,0,0,0-1.553-.62Zm1.529,7.476c0,.252.12.3.729.3.25,0,.788-.024.907-.036.4-.047.49-.167.574-.657a9.4,9.4,0,0,0,.083-.991,2.355,2.355,0,0,0,.669.239,4.483,4.483,0,0,1-.322,1.613c-.191.369-.586.477-1.72.477-1.35,0-1.6-.119-1.6-.741v-2.1a5.3,5.3,0,0,0-.072-.944h.812a5.285,5.285,0,0,0-.06.895Zm.1-4.3a9.258,9.258,0,0,1,1.887,1.516l-.537.5a6.157,6.157,0,0,0-1.864-1.6Zm3.069,1.469a11.342,11.342,0,0,1,1.421,2.472l-.621.394a9.353,9.353,0,0,0-1.385-2.544Z" fill="#fff"/>
      <path id="パス_220758" data-name="パス 220758" d="M81.1,419.237a2.373,2.373,0,0,1,.824.192,15.283,15.283,0,0,1-.538,1.9c.586-.048,1.124-.108,1.672-.191a2.042,2.042,0,0,1,.049.465,2.973,2.973,0,0,1-.024.3c-.633.084-1.279.155-1.947.215a29.7,29.7,0,0,1-2.353,5.017,2.242,2.242,0,0,1-.729-.466,21.448,21.448,0,0,0,2.222-4.5c-.681.036-1.35.072-2.006.1a3.109,3.109,0,0,1-.06-.573,1.653,1.653,0,0,1,.011-.239h.562c.573,0,1.159-.011,1.743-.035.228-.7.419-1.458.574-2.175m6.616,8.433a1.575,1.575,0,0,1-.5.753,8.519,8.519,0,0,0-2.246-1.267c.013.2.025.335.025.454,0,1.231-.9,1.78-2.186,1.78-1.266,0-2.079-.609-2.079-1.565,0-.859.921-1.684,2.354-1.684a5.816,5.816,0,0,1,.991.084,31.067,31.067,0,0,1-.191-3.309c.143-.011.275-.024.418-.024s.263.013.382.024a27.855,27.855,0,0,0,.179,3.428,8.529,8.529,0,0,1,2.854,1.326m-4.562-.836c-1.218,0-1.66.537-1.66.991,0,.5.538.824,1.29.824.991,0,1.4-.406,1.4-1.218a4.137,4.137,0,0,0-.036-.49,5.423,5.423,0,0,0-.992-.107m4.694-4.419a2.37,2.37,0,0,1-.514.716,8.428,8.428,0,0,0-2.627-1.612,2.715,2.715,0,0,1,.394-.657,10.939,10.939,0,0,1,2.747,1.553" fill="#fff"/>
      <path id="パス_220759" data-name="パス 220759" d="M96.692,421.961a1.429,1.429,0,0,1,.251.836,21.5,21.5,0,0,0-3.989,1.565c-1.434.776-2.079,1.7-2.079,2.532,0,.8.753,1.4,2.664,1.4a22.321,22.321,0,0,0,3.9-.37,2.335,2.335,0,0,1,.108.7,1.032,1.032,0,0,1-.012.192,23.723,23.723,0,0,1-3.942.322c-2.46,0-3.559-.872-3.559-2.245,0-1.028.812-2.163,2.365-3.082a22.106,22.106,0,0,1-1.063-4.132,1.566,1.566,0,0,1,.669-.155.909.909,0,0,1,.167.011,19.757,19.757,0,0,0,.932,3.906,26.55,26.55,0,0,1,3.583-1.481m-.657-2.986a9.513,9.513,0,0,1,.848,2.222l-.693.226a10.885,10.885,0,0,0-.8-2.221Zm1.421-.323a8.452,8.452,0,0,1,.932,2.162l-.716.2a7.912,7.912,0,0,0-.849-2.174Z" fill="#fff"/>
      <rect id="長方形_16823" data-name="長方形 16823" width="7.041" height="24.219" transform="translate(206.479 58.098)" fill="#333"/>
      <path id="パス_220760" data-name="パス 220760" d="M210,49.305l-9.559,13.189h19.118Z" fill="#333"/>
      <rect id="長方形_16824" data-name="長方形 16824" width="7.041" height="24.219" transform="translate(206.479 158.01)" fill="#333"/>
      <path id="パス_220761" data-name="パス 220761" d="M210,149.218l-9.559,13.189h19.118Z" fill="#333"/>
      <rect id="長方形_16825" data-name="長方形 16825" width="7.041" height="55.634" transform="translate(206.479 459.673)" fill="#333"/>
      <path id="パス_220762" data-name="パス 220762" d="M210,449.893l-9.559,13.189h19.118Z" fill="#333"/>
      <rect id="長方形_16826" data-name="長方形 16826" width="7.041" height="53.187" transform="translate(206.479 304.865)" fill="#333"/>
      <path id="パス_220763" data-name="パス 220763" d="M210,294.343l-9.559,13.189h19.118Z" fill="#333"/>
      <rect id="長方形_16827" data-name="長方形 16827" width="24.219" height="7.041" transform="translate(147.375 401.305)" fill="#333"/>
      <path id="パス_220764" data-name="パス 220764" d="M180.387,404.825,167.2,395.266v19.118Z" fill="#333"/>
      <path id="パス_220765" data-name="パス 220765" d="M142.068,404.825l13.189,9.559V395.266Z" fill="#333"/>
    </g>
  </g>
</svg>
