<svg xmlns="http://www.w3.org/2000/svg" width="526.089" height="88.129" viewBox="0 0 526.089 88.129">
  <g id="doryoku_ai" transform="translate(261.342 43.825)">
    <g id="doryoku_ai-2" data-name="doryoku_ai" transform="translate(-260.765 -43.732)">
      <g id="グループ_86325" data-name="グループ 86325" transform="translate(0 0.483)">
        <path id="パス_171499" data-name="パス 171499" d="M131.8,35.216c0-.581.29-.774.677-.774l2.416.483c.967,0,1.45-.193,6.19-2.224,1.935-.774,7.061-2.9,10.833-2.9a9.673,9.673,0,0,1,9.965,9.673c0,7.448-7.931,11.317-15.38,11.317-.484,0-1.257,0-1.257-.581s.193-.483,1.741-.677c8.9-1.257,11.7-7.348,11.7-11.511a6.287,6.287,0,0,0-6.094-6.578c-3.1,0-7.061,1.935-11.9,5.126-2.805,1.935-3.192,2.128-4.256,2.128S131.8,36.378,131.8,35.216Z" transform="translate(-4.896 -1.652)" fill="#231815" stroke="#231815" stroke-width="1.153"/>
        <path id="パス_171500" data-name="パス 171500" d="M174.412,15.019c2.709,0,3.579-.29,12.188-2.709,5.514-1.548,19.728-5.61,23.892-5.61,2.224,0,5.033.871,5.033,3a2.516,2.516,0,0,1-2.516,2.321c-.774,0-4.352-.677-5.126-.677-7.931,0-16.734,7.254-16.734,23.408,0,10.447,3.966,11.123,7.642,11.123l5.9-.387c1.935,0,3.1.774,3.1,2.321,0,3.288-6.868,3.288-7.254,3.288-12.768,0-12.768-10.447-12.768-13.349s.1-15.96,9.092-23.989a11.026,11.026,0,0,0,1.45-1.354c0-.1-.29-.1-.387-.1-3.579,0-16.54,5.514-18.475,6.674a4.547,4.547,0,0,1-2.224.774c-3.1,0-6-4.159-5.32-5.033S174.121,15.019,174.412,15.019Z" transform="translate(-6.205 -0.896)" fill="#231815" stroke="#231815" stroke-width="1.153"/>
        <path id="パス_171501" data-name="パス 171501" d="M92.561,17.37c-1.741,0-1.741.387-2.031,3.192C89.272,35.071,86.274,43.2,78.826,49a32.6,32.6,0,0,1-10.445,5.514.354.354,0,0,1-.387-.387c0-.29.1-.29,1.354-.967a31.92,31.92,0,0,0,15-20.313A74.382,74.382,0,0,0,86.28,18.918c0-.677-.1-1.645-1.645-1.645H70.7l-1.161.193c-.193,0-.29-.193-.483-.387l-1.064-1.354c-.193-.193-.193-.29-.193-.387a.193.193,0,0,1,.193-.193l2.516.193,7.835.193h6.481c1.645,0,1.838-.581,1.838-4.159a61.508,61.508,0,0,0-.39-7.157c-.1-.677-.193-1.645-.193-1.935a.509.509,0,0,1,.581-.581c.483,0,6.964.677,6.964,2.031s-.1.581-1.354,1.064-.871.871-.871,1.741-.483,5.417-.483,6.287.1,2.612,1.741,2.612h12.573c1.064,0,1.548-.1,2.031-.871s.871-1.161,1.161-1.161,4.352,2.128,4.352,3.1-.193.677-1.064,1.354a2.224,2.224,0,0,0-.677,1.741c-.483,13.155-.871,24.956-3.483,29.693a9.286,9.286,0,0,1-6.769,4.45c-1.064,0-1.064-.483-1.064-1.354s-.387-2.031-4.352-4.256c-1.354-.774-1.45-.871-1.45-1.064a.29.29,0,0,1,.387-.29l2.128.483,4.159.483c3.192,0,4.159-1.741,4.831-6.771A176.626,176.626,0,0,0,106.679,19.3c0-1.354,0-2.128-1.838-2.128Z" transform="translate(-2.8 -0.733)" fill="#231815" stroke="#231815" stroke-width="1.153"/>
        <path id="パス_171502" data-name="パス 171502" d="M19.558,7.568A1.838,1.838,0,0,0,21.493,6.6a2.321,2.321,0,0,1,1.257-.774c.677,0,3.869,2.128,3.869,3a.677.677,0,0,1-.29.581l-1.257.581a47.492,47.492,0,0,0-2.516,4.352c-.387.677-2.709,3.869-2.709,3.966s.193.483,1.645,1.161,3.194,1.451,3.194,3.681a1.741,1.741,0,0,1-1.45,1.741c-.774,0-1.064-.193-3.192-2.128-.581-.483-2.031-1.741-2.612-1.741s-.483.1-1.45.967c-5.8,4.74-13.252,7.448-15.187,7.448-.1,0-.193,0-.193-.193s.1-.193,1.45-.871c5.61-2.709,12.575-8.221,12.575-9.189s-3.87-2.618-4.257-2.618-.483.1-.967,1.257a2.805,2.805,0,0,1-2.416,1.548,1.741,1.741,0,0,1-1.84-1.356c0-.1,3.288-6.771,3.288-8.125s-.581-.774-1.064-.774l-4.45.29c-.193,0-.29-.1-.483-.387L1.277,7.664c-.193-.29-.193-.29-.193-.387s.1-.1.193-.1l6,.29c1.45,0,2.128-.193,2.416-.967a13.349,13.349,0,0,0,.967-3.772,2.031,2.031,0,0,0-.193-.967,1.559,1.559,0,0,1-.387-.677A.387.387,0,0,1,10.464.7c.871,0,5.223,2.128,5.223,2.9s-.193.483-.774.774a3.192,3.192,0,0,0-1.45,2.416c0,.774.581.774,1.257.774ZM41.515,35.134a1.935,1.935,0,0,0,1.645-.484c.387-.29,1.741-2.128,2.128-2.128s4.546,2.516,4.546,3.483-.1.483-1.161,1.257-1.064.774-1.161,1.45c-.387,3.579-.774,7.835-2.416,10.833a8.8,8.8,0,0,1-7.256,4.548c-.29,0-1.838-2.128-2.224-2.416A28.294,28.294,0,0,1,33.2,49.262a.208.208,0,0,1,.193-.193h1.161c4.256,0,6,0,7.061-1.257s2.128-8.416,2.128-9.673A1.544,1.544,0,0,0,42,36.494h-14.9a1.838,1.838,0,0,0-2.031,1.257c-1.741,3.772-2.709,6.094-6.287,9.479A21.28,21.28,0,0,1,4.763,52.938c-.29,0-1.354,0-1.354-.193s0-.193.387-.29a28.535,28.535,0,0,0,3.768-1.167C17.912,47.322,21.3,38.133,21.3,37.553a1.055,1.055,0,0,0-1.064-.967H12.5c-1.354,0-5.223,0-7.254.193H4.083a.493.493,0,0,1-.483-.387L2.438,35.232c-.29-.29-.29-.29-.29-.387s.1-.1.193-.1l2.516.193,7.835.193h7.837c.871,0,1.741,0,2.031-1.354a21.087,21.087,0,0,0,.483-3.483,3.966,3.966,0,0,0-.1-.774,4.643,4.643,0,0,1-.29-.774c0-.193.193-.29.483-.29l3.579.774c1.354.29,1.838.483,1.838,1.064s-.677.967-.967,1.354a5.417,5.417,0,0,0-1.257,2.805c0,.871.581.871,1.064.871ZM14.432,9.019c-1.354,0-1.935,0-2.612,1.838a40.335,40.335,0,0,0-1.356,4.256c0,.484.483.581.871.677s4.546,1.548,4.831,1.548,4.546-6.094,4.546-7.448-.677-.774-1.064-.774Zm26.213-3.1c1.161,0,1.935,0,2.709-1.354s.871-1.257,1.354-1.257,3.772,1.935,4.45,2.224a1.064,1.064,0,0,1,.581.967c0,.774-.871,1.257-1.45,1.257a1.812,1.812,0,0,0-1.645.967,44.59,44.59,0,0,1-5.32,7.738c-.872,1.064-1.066,1.451-1.066,1.838a1.451,1.451,0,0,0,.774,1.064,31.436,31.436,0,0,0,10.543,4.546c1.257.193,1.45.193,1.45.387s-.483.193-.774.193a8.609,8.609,0,0,0-4.159,1.741c-.193.193-1.064,1.45-1.354,1.45a67.408,67.408,0,0,1-6.868-4.831,7.211,7.211,0,0,0-2.709-1.838A2.321,2.321,0,0,0,36,21.5a48.654,48.654,0,0,1-7.157,4.061c-1.935.871-7.642,2.805-9,2.805s-.483-.1-.483-.193l5.707-2.9c3-1.645,9.769-5.514,9.769-7.254s-.193-.774-.871-1.935a29.5,29.5,0,0,1-2.9-7.448c-.193-.774-.193-1.064-.774-1.064H29.134a.493.493,0,0,1-.483-.387L27.49,6.117c-.193-.29-.193-.29-.193-.387s.1-.1.193-.1l2.516.193c1.645.1,4.546.193,7.835.193Zm-3.1,1.548c-5.033,0-5.61,0-5.61.677s3.966,7.642,5.223,7.642,4.831-6.964,4.831-7.448-.774-.871-1.161-.871Z" transform="translate(-0.601 -0.7)" fill="#231815" stroke="#231815" stroke-width="1.153"/>
      </g>
      <g id="グループ_86326" data-name="グループ 86326" transform="translate(340.289 0.58)">
        <path id="パス_171503" data-name="パス 171503" d="M364.2,35.626h-7.448l-1.257.193c-.193,0-.29-.193-.483-.387l-1.064-1.257-.193-.387a.193.193,0,0,1,.193-.193l2.612.193,8.028.193h12.573c1.161,0,1.548-.29,1.548-1.548a21.187,21.187,0,0,0-.29-2.9,19.809,19.809,0,0,1-.483-2.321c0-.387.1-.677.774-.677a23.788,23.788,0,0,1,3.966.967c.483.193.967.386.967.967a10.64,10.64,0,0,1-.677,1.45,3.1,3.1,0,0,0-.483,2.128c0,1.45.1,2.031,1.741,2.031h12.09c2.516,0,2.805,0,3.385-.483s1.935-2.416,2.416-2.416,4.352,3.1,4.352,3.772-1.257.871-3.192.871H385.384c-.483,0-.967,0-.967.677s10.543,9.965,22.537,10.93c.1,0,1.064.1,1.064.193s-.1.193-.677.387-3.869,1.161-4.831,3.579c-.29.677-.29.774-.484.774S388.1,46.172,383.454,37.95c-.387-.677-.484-.967-.677-.967s-.387.677-.387.774c0,2.224.387,11.8.387,13.832a2.224,2.224,0,0,1-2.321,2.516c-.677,0-2.224-.387-2.224-2.612s.387-11.027.387-12.864c0-.193,0-.581-.387-.581s-2.321,2.128-2.805,2.612a42.657,42.657,0,0,1-20.12,10.156l-2.612.483c-.193,0-.29-.1-.29-.193s.1-.193.967-.581c10.059-3.772,20.8-12.481,20.8-14.316s-.967-.677-1.354-.677ZM360.525,30.4c-.1.387-.1.967-.774.967s-4.932-3.192-4.932-4.062.193-.387,1.838-1.257,12.575-8.705,12.671-8.705a.193.193,0,0,1,.193.193c0,.483-7.157,9.576-8.416,11.221a2.709,2.709,0,0,0-.581,1.639Zm3.289-15.965c-1.161,0-1.548-.677-2.031-1.548a21.279,21.279,0,0,0-5.61-6.771l-.484-.387c0-.1.1-.193.29-.193A16.249,16.249,0,0,1,360.91,6.7c4.256,1.741,5.319,2.709,5.319,5.033a2.617,2.617,0,0,1-2.416,2.612Zm20.6-6.964a3,3,0,0,0,2.031-.581c.193-.193,1.257-1.741,1.645-1.741s3.966,2.321,3.966,3.385a1.354,1.354,0,0,1-.484.774c-.774.677-.774.774-.774,1.354s.483,11.607.483,13.832-1.064,3.483-2.709,3.483a1.741,1.741,0,0,1-1.741-1.838c-.1-1.548-.774-1.645-1.645-1.645H376.1a1.451,1.451,0,0,0-1.741,1.354c-.1,1.161-.193,2.9-2.709,2.9s-1.741-1.257-1.741-1.838.387-9.383.387-11.123a55.223,55.223,0,0,0-.484-7.931,18.765,18.765,0,0,1-.387-1.935c0-.387.29-.483.677-.483s3.966,2.128,4.831,2.128,1.548-3.192,1.548-4.643a4.933,4.933,0,0,0-.1-1.45A.859.859,0,0,1,377.261.8c.581,0,5.707.871,5.707,1.935s-.193.483-1.548,1.354-3.1,2.321-3.1,2.9.387.387,1.161.387ZM385,14.822c1.935,0,1.935-.967,1.935-2.805s0-3-1.935-3h-8.8c-1.935,0-1.935.871-1.935,2.709s0,3.1,1.935,3.1Zm.1,8.125c1.838,0,1.838-.677,1.838-3.385s0-3.192-1.838-3.192h-8.9c-1.935,0-1.935.871-1.935,2.805s0,3.772,1.935,3.772Zm18.282,6.481c-.967,0-1.161-.193-4.831-4.352-.967-1.064-6.19-6.384-6.19-6.481a.208.208,0,0,1,.193-.193c.1,0,12.481,3.385,12.481,9.092a1.587,1.587,0,0,1-1.645,1.741Zm-9.189-14.123c-.193,0-.193-.1-.193-.193l1.741-2.128c1.45-1.935,4.062-5.707,4.352-7.448s.1-.967.484-.967,5.417,3.483,5.417,4.159-.29.483-1.257.774a4.45,4.45,0,0,0-2.031.967c-1.838,1.064-7.448,4.643-8.609,4.643Z" transform="translate(-352.404 -0.799)" fill="#231815" stroke="#231815" stroke-width="1.153"/>
        <path id="パス_171504" data-name="パス 171504" d="M485.787,16.964c0,.483-.1.677-.774,2.612a22.732,22.732,0,0,0-1.548,8.319c0,6.481,3.385,11.221,5.32,11.221s1.354-.29,3.288-3.579c.387-.677,1.45-2.224,2.031-2.224s.29.29.29.484a7.542,7.542,0,0,1-.193,1.257c-.677,3-.871,3.579-.871,4.932a8.7,8.7,0,0,0,.386,2.612,15.856,15.856,0,0,1,.483,2.128,2.327,2.327,0,0,1-2.416,2.031c-4.159,0-12.188-6.771-12.188-19.056,0-1.838.871-9.769.871-11.414a17.8,17.8,0,0,0-.483-3.772,8.8,8.8,0,0,1-.484-2.224c0-.193.29-.29.386-.29C482.885,10.1,485.787,15.223,485.787,16.964Zm31.436,1.45a16.056,16.056,0,0,1,5.707,12.28c0,1.257-.1,4.256-3.192,4.256s-3.192-3.483-3.192-4.352c0-5.32,0-8.028-3.385-11.511-.483-.483-3.1-2.516-3.1-2.9s.29-.29.581-.29a12.575,12.575,0,0,1,6.578,2.612Z" transform="translate(-356.565 -1.1)" fill="#231815" stroke="#231815" stroke-width="1.153"/>
        <path id="パス_171505" data-name="パス 171505" d="M542.868,48.084a6.384,6.384,0,1,1-6.384-6.384,6.384,6.384,0,0,1,6.384,6.384Zm-11.123-.1a4.836,4.836,0,0,0,4.836,4.831,4.74,4.74,0,0,0,4.74-4.74,4.831,4.831,0,0,0-4.831-4.831,4.643,4.643,0,0,0-4.74,4.74Z" transform="translate(-358.22 -2.137)" fill="#231815" stroke="#231815" stroke-width="1.153"/>
        <path id="パス_171506" data-name="パス 171506" d="M437.374,10.8a26.8,26.8,0,0,1-.967,3.288,140.15,140.15,0,0,0-1.645,20.8c.193,5.9,1.548,11.123,9.286,10.737a28.728,28.728,0,0,0,12.09-3.483c.871-.483,5.223-3.1,5.417-3.1a.29.29,0,0,1,.29.29c0,.677-8.221,10.35-19.152,10.737-7.549.29-11.317-3.966-11.8-15.67-.1-3.579-.1-4.74.677-16.25.193-1.935.483-6.771.483-8.319a7.348,7.348,0,0,0-.677-2.805L430.7,5.481c0-.387.483-.581.774-.581C434.569,4.8,437.278,9.447,437.374,10.8Z" transform="translate(-354.967 -0.933)" fill="#231815" stroke="#231815" stroke-width="1.153"/>
      </g>
      <g id="グループ_86329" data-name="グループ 86329" transform="translate(237.657)">
        <g id="グループ_86327" data-name="グループ 86327">
          <rect id="長方形_14398" data-name="長方形 14398" width="77.284" height="19.065" fill="#b9bcbd"/>
          <rect id="長方形_14399" data-name="長方形 14399" width="77.284" height="19.065" transform="translate(0 38.11)" fill="#b9bcbd"/>
        </g>
        <g id="グループ_86328" data-name="グループ 86328" transform="translate(0.101 72.828)">
          <path id="パス_171507" data-name="パス 171507" d="M254.719,79.078c-.387-2.128-.871-2.805-3.288-2.805a3.676,3.676,0,0,0-2.416.774,1.934,1.934,0,0,0-.677,1.548,2.516,2.516,0,0,0,.677,1.645,10.929,10.929,0,0,0,2.612,1.645c1.645.774,2.805,1.257,3.676,2.321a3.869,3.869,0,0,1,.871,2.416,3.579,3.579,0,0,1-1.16,2.709,5.9,5.9,0,0,1-4.062,1.257,11.994,11.994,0,0,1-3.869-.677,20.513,20.513,0,0,0-.677-3l.677-.193c.677,2.516,1.838,3.1,3.966,3.1a4.062,4.062,0,0,0,2.416-.774,2.734,2.734,0,0,0,.386-3.966,9.287,9.287,0,0,0-3-1.838,11.511,11.511,0,0,1-3.579-2.416,3.386,3.386,0,0,1-.581-1.935,3,3,0,0,1,1.257-2.416,5.61,5.61,0,0,1,3.483-.967,9,9,0,0,1,3.385.581c.1.871.29,1.935.483,2.9Z" transform="translate(-246.404 -75.493)" fill="#231815"/>
          <path id="パス_171508" data-name="パス 171508" d="M259.647,85.841a5.321,5.321,0,0,1,.871-3.288,2.805,2.805,0,0,1,4.062,0,6.83,6.83,0,0,1,0,6.674,2.709,2.709,0,0,1-3.966,0,5.321,5.321,0,0,1-.967-3.386Zm-1.45,0a5.126,5.126,0,0,0,1.257,3.869,5.033,5.033,0,0,0,6.19,0,6.288,6.288,0,0,0,0-7.448,4.831,4.831,0,0,0-6.19,0,5.033,5.033,0,0,0-1.354,3.579Z" transform="translate(-246.787 -75.677)" fill="#231815"/>
          <path id="パス_171509" data-name="パス 171509" d="M269.948,81.709H268.4v-.676h1.548V79.774a3.966,3.966,0,0,1,.967-2.9,3.192,3.192,0,0,1,3.869-.29,1.741,1.741,0,0,1,.871,1.257c0,.387-.193.677-.581.677s-.677-.483-.871-.871a1.276,1.276,0,0,0-1.161-.871,1.354,1.354,0,0,0-1.064.483,4.062,4.062,0,0,0-.677,2.709v1.257h2.612V81.9H271.3v6.679c0,1.257.1,1.354,1.645,1.354v.483H268.4v-.483c1.45,0,1.548-.1,1.548-1.354Z" transform="translate(-247.124 -75.511)" fill="#231815"/>
          <path id="パス_171510" data-name="パス 171510" d="M275.093,81.405c1.257-.1,2.224-.581,2.416-2.805h.483v2.612h2.128v.677h-2.128v6.675c0,.967.29,1.45.967,1.45a2.031,2.031,0,0,0,1.257-.483l.29.483a2.9,2.9,0,0,1-2.031.774,1.838,1.838,0,0,1-2.031-2.128v-6.87H274.9Z" transform="translate(-247.337 -75.594)" fill="#231815"/>
          <path id="パス_171511" data-name="パス 171511" d="M285.192,77.253c0-.581.1-.677.581-.677h1.935a4.546,4.546,0,0,1,2.9.774,2.617,2.617,0,0,1,.774,1.838,2.709,2.709,0,0,1-.967,2.224,5.223,5.223,0,0,1-3.288.871H285.1ZM283.645,88.18c0,1.45-.1,1.548-1.645,1.548v.581h6.674c2.128,0,3.385-.483,4.159-1.257a3.772,3.772,0,0,0,1.161-2.805,3.1,3.1,0,0,0-1.354-2.516,5.8,5.8,0,0,0-3.385-1.064h0a5.033,5.033,0,0,0,2.805-1.161,3.1,3.1,0,0,0,1.064-2.321,2.805,2.805,0,0,0-1.354-2.416,7.158,7.158,0,0,0-4.256-.871H282v.581c1.548,0,1.645.1,1.645,1.548Zm1.548-5.126h2.516a5.707,5.707,0,0,1,3.579.871,2.709,2.709,0,0,1,1.161,2.224,3.289,3.289,0,0,1-.774,2.321,3.966,3.966,0,0,1-3.1,1.064h-2.516c-.677,0-.774-.193-.774-.967Z" transform="translate(-247.57 -75.505)" fill="#231815"/>
          <path id="パス_171512" data-name="パス 171512" d="M301.314,88.834a3.1,3.1,0,0,1-2.224,1.064,1.935,1.935,0,0,1-1.354-.484,1.741,1.741,0,0,1-.483-1.257,2.128,2.128,0,0,1,1.354-1.935,10.544,10.544,0,0,1,2.612-.967Zm1.45-5.033a2.708,2.708,0,0,0-.677-2.031A3,3,0,0,0,299.671,81a4.45,4.45,0,0,0-2.321.581,1.934,1.934,0,0,0-1.064,1.451.581.581,0,0,0,.581.581.677.677,0,0,0,.677-.484,2.321,2.321,0,0,1,.677-.967,2.128,2.128,0,0,1,1.354-.483,1.741,1.741,0,0,1,1.45.581,2.516,2.516,0,0,1,.29,1.45v.871l-1.257.29a8.8,8.8,0,0,0-3,1.167,2.516,2.516,0,0,0-1.257,2.315,2.128,2.128,0,0,0,.774,1.741,3,3,0,0,0,1.935.581,3.869,3.869,0,0,0,2.9-1.161h.1a1.257,1.257,0,0,0,1.257,1.161,2.708,2.708,0,0,0,1.257-.29V89.9h-.581c-.387,0-.581-.387-.581-1.354Z" transform="translate(-248.021 -75.672)" fill="#231815"/>
          <path id="パス_171513" data-name="パス 171513" d="M313.419,88.631c0,1.161.1,1.354.967,1.354v.483H310.9v-.483c.967,0,1.064-.1,1.064-1.354V84.085a2.708,2.708,0,0,0-.484-1.838,1.548,1.548,0,0,0-1.161-.386c-.871,0-1.741.774-2.612,1.935v4.932c0,1.257,0,1.354.967,1.354v.483H305.1v-.483c1.064,0,1.161-.1,1.161-1.354V83.6c0-1.161-.1-1.354-1.161-1.354v-.484a4.932,4.932,0,0,0,2.321-.871h.193v1.548h0a3.966,3.966,0,0,1,3-1.741,2.709,2.709,0,0,1,1.935.677,3,3,0,0,1,.774,2.321Z" transform="translate(-248.326 -75.663)" fill="#231815"/>
          <path id="パス_171514" data-name="パス 171514" d="M318.612,85.289l2.9-2.805c.581-.483.677-.871-.29-.871v-.48h3v.483a1.838,1.838,0,0,0-1.354.581l-2.128,2.031,3.192,4.74a1.45,1.45,0,0,0,1.548.774v.484h-2.321L319.774,85l-1.161,1.161v2.128c0,1.161,0,1.354,1.161,1.354v.483H316v-.483c1.161,0,1.257-.193,1.257-1.354V78.712c0-1.161-.1-1.354-1.257-1.354v-.387a5.9,5.9,0,0,0,2.416-.871h.193v9.092Z" transform="translate(-248.682 -75.512)" fill="#231815"/>
        </g>
      </g>
    </g>
  </g>
</svg>
