<svg xmlns="http://www.w3.org/2000/svg" width="206.4" height="100.4" viewBox="0 0 206.4 100.4">
  <g id="アートワーク_25" data-name="アートワーク 25" transform="translate(103.2 50.2)">
    <g id="グループ_78460" data-name="グループ 78460" transform="translate(-103.2 -50.2)">
      <g id="グループ_78458" data-name="グループ 78458">
        <path id="パス_94037" data-name="パス 94037" d="M30.8,34.2h.1V6.4c0-4.1-.5-4.4-4.6-4.4V0H37.9V2c-3.8,0-4.2.3-4.2,4.4V41.6H29.9L7.3,5.2H7.2V34.7c0,4.1.4,4.4,4.4,4.4v2H.1v-2c4,0,4.4-.3,4.4-4.4V6.4C4.5,2.3,4.1,2,0,2V0H10Z"/>
        <path id="パス_94038" data-name="パス 94038" d="M56.8,41.8c-3.9,0-7-.9-9.5-3.1s-4-6-4-11.7,1.4-8.6,4-11.1,5.4-3.3,9.7-3.3,7.4,1.2,9.8,3.4,3.8,6.2,3.8,11-1.4,9.2-3.8,11.5-5.8,3.3-9.9,3.3Zm0-27.1a6.6,6.6,0,0,0-5.5,2.5c-1.6,2.1-2.4,5.2-2.4,10s1,8.2,2.4,10.1a7.4,7.4,0,0,0,11,0c1.5-2,2.4-5.2,2.4-10.1s-.8-7.9-2.4-10a6.6,6.6,0,0,0-5.5-2.5Z"/>
        <path id="パス_94039" data-name="パス 94039" d="M78.5,35.2a3.2,3.2,0,1,1-.1,0Z"/>
        <path id="パス_94040" data-name="パス 94040" d="M93.4,5.5A48.7,48.7,0,0,0,103.7.6l.8.4V34.7c0,4.1.3,4.5,5.3,4.5v2H93.6v-2c5.2,0,5.5-.4,5.5-4.5V9.7c0-2.4-.3-3.4-1.4-3.4a11.9,11.9,0,0,0-3.8,1.1Z"/>
      </g>
      <g id="グループ_78459" data-name="グループ 78459">
        <path id="パス_94041" data-name="パス 94041" d="M1.2,73.3H8.7c2.8,0,4.4.2,5.9,1.2a3.8,3.8,0,0,1,1.7,3.3A4.2,4.2,0,0,1,14.9,81a7.2,7.2,0,0,1-4,1.6h0A8,8,0,0,1,15.6,84a4,4,0,0,1,1.8,3.5,5.2,5.2,0,0,1-1.6,3.9c-1.1,1.1-2.8,1.7-5.8,1.7H1.2v-1c2.1,0,2.3-.2,2.3-2.2V76.4c0-2-.2-2.2-2.3-2.2Zm5,8.8H8.4A6.2,6.2,0,0,0,12.3,81a3.9,3.9,0,0,0,1.2-3,3.5,3.5,0,0,0-1-2.5,5,5,0,0,0-3.4-1H7c-.8,0-.9.2-.9,1Zm0,8.5c0,1.1.2,1.3,1.1,1.3H9.9a4.6,4.6,0,0,0,3.6-1.3,4.6,4.6,0,0,0,1-3.2,3.7,3.7,0,0,0-1.4-3.1,6.8,6.8,0,0,0-4.1-1H6.2Z"/>
        <path id="パス_94042" data-name="パス 94042" d="M22.5,86.2a8.1,8.1,0,0,0,1,4.5,3.5,3.5,0,0,0,3,1.7,4.3,4.3,0,0,0,2.6-.8,4.6,4.6,0,0,0,1.5-1.8l.9.5a6.5,6.5,0,0,1-1.9,2.2,5.9,5.9,0,0,1-3.6,1,6.1,6.1,0,0,1-4.8-1.9,8.6,8.6,0,0,1-1.5-5.5,7.4,7.4,0,0,1,1.9-5.2,5.9,5.9,0,0,1,4.1-1.6A5.3,5.3,0,0,1,29.8,81a8.3,8.3,0,0,1,1.5,5.1Zm6.2-1a7,7,0,0,0-.8-3.6,2.5,2.5,0,0,0-2.2-1.2,2.8,2.8,0,0,0-2.2,1.2,6.6,6.6,0,0,0-1,3.6Z"/>
        <path id="パス_94043" data-name="パス 94043" d="M37.6,90.2c0,1.8.1,2,2,2V93H32.8v-.8c2,0,2.1-.3,2.1-2v-7c0-1.8-.1-1.9-2.1-1.9v-.8a12.6,12.6,0,0,0,4.5-1.3l.3.2ZM36.1,74a1.9,1.9,0,1,1-1.6,1.9A1.7,1.7,0,0,1,36.1,74Z"/>
        <path id="パス_94044" data-name="パス 94044" d="M53.6,90.3c0,1.7.1,2,1.4,2v.8H49.5v-.8c1.4,0,1.5-.2,1.5-2V83.7a3.7,3.7,0,0,0-.7-2.6,2.1,2.1,0,0,0-1.6-.6c-1.1,0-2.4,1.1-3.6,2.7v7c0,1.8.1,2,1.4,2V93H40.7v-.8c1.6,0,1.7-.2,1.7-2V83.3c0-1.8-.2-2-1.7-2v-.8a9.9,9.9,0,0,0,3.8-1.3l.4.2v2.2H45a5.8,5.8,0,0,1,4.4-2.4,4.1,4.1,0,0,1,3,1,4.3,4.3,0,0,1,1.1,3.4Z"/>
        <path id="パス_94045" data-name="パス 94045" d="M64,91.5c4.3,0,5.7,1.9,5.7,3.9s-2.9,5-7.5,5-6.5-1.2-6.5-3.5,1.6-3,3.2-3.7c-1.1-.3-2.2-.9-2.2-2.2s1-2,2.2-2.6a4.7,4.7,0,0,1-2.2-4.1c0-3.2,2.5-5,5.8-5a7.5,7.5,0,0,1,3.5.8l3.9-.4v1.4L67,80.9a4.4,4.4,0,0,1,1.4,3.3c0,3.4-2.7,5-5.7,5a7.5,7.5,0,0,1-2.8-.5q-1.2.75-1.2,1.5c0,.5.8,1.2,2.5,1.2Zm-3.9,2c-1.4.9-2.2,1.8-2.2,3s1.7,2.8,4.5,2.8,5.2-1.6,5.2-3.3-.7-2.5-3.8-2.5Zm2.4-5.2c2,0,3.1-1.6,3.1-4s-1-3.9-3.2-3.9-3.1,1.9-3.1,3.9S60.5,88.3,62.5,88.3Z"/>
        <path id="パス_94046" data-name="パス 94046" d="M92.6,89.8h.1V76.3c0-2-.2-2.1-2.2-2.1v-1H96v1c-1.8,0-2,.2-2,2.1v17H92.2L81.3,75.8h-.1V90c0,2,.2,2.1,2.1,2.1v1H77.8v-1c1.9,0,2.1-.2,2.1-2.1V76.3c0-2-.2-2.1-2.2-2.1v-1h4.8Z"/>
        <path id="パス_94047" data-name="パス 94047" d="M104.6,93.5A6.7,6.7,0,0,1,100,92c-1.2-1.1-2-2.9-2-5.7a7.2,7.2,0,0,1,1.9-5.4,6.4,6.4,0,0,1,4.7-1.6,6.6,6.6,0,0,1,4.7,1.7,7.2,7.2,0,0,1,1.8,5.3c0,2.7-.7,4.5-1.8,5.5a6.7,6.7,0,0,1-4.8,1.6Zm0-13.1a3.2,3.2,0,0,0-2.7,1.2c-.8,1-1.1,2.5-1.1,4.8a8.2,8.2,0,0,0,1.2,4.9,3.6,3.6,0,0,0,5.3,0,8.314,8.314,0,0,0,1.2-4.9c0-2.4-.4-3.8-1.1-4.8a3.2,3.2,0,0,0-2.7-1.2Z"/>
        <path id="パス_94048" data-name="パス 94048" d="M115.1,90.3a1.6,1.6,0,1,1-1.5,1.6,1.5,1.5,0,0,1,1.5-1.6Z"/>
        <path id="パス_94049" data-name="パス 94049" d="M121.7,75.9a23.5,23.5,0,0,0,5-2.4l.4.2V90c0,2,.2,2.2,2.5,2.2v1h-7.8v-1c2.5,0,2.7-.2,2.7-2.2V77.9c0-1.1-.1-1.6-.7-1.6a5.7,5.7,0,0,0-1.8.5Z"/>
        <path id="パス_94050" data-name="パス 94050" d="M145.7,90.2c0,1.8.1,2,2,2V93h-6.8v-.8c2,0,2.1-.3,2.1-2v-7c0-1.8-.1-1.9-2.1-1.9v-.8a12.6,12.6,0,0,0,4.5-1.3l.3.2ZM144.2,74a1.9,1.9,0,1,1-1.6,1.9,1.7,1.7,0,0,1,1.6-1.9Z"/>
        <path id="パス_94051" data-name="パス 94051" d="M157.4,83.1c-.4-2.1-1.3-2.7-3-2.7a3.5,3.5,0,0,0-1.9.5,1.5,1.5,0,0,0-.8,1.4,2.2,2.2,0,0,0,1.1,1.7c.9.5,2.3,1,2.9,1.4A7.5,7.5,0,0,1,158,87a3.4,3.4,0,0,1,1.1,2.4,3.5,3.5,0,0,1-1.4,2.9,6.8,6.8,0,0,1-4.1,1.2,10.2,10.2,0,0,1-4.3-.8,24.6,24.6,0,0,0-.6-3.2l.9-.2c.7,2.5,1.9,3.2,3.8,3.2a3.7,3.7,0,0,0,2.3-.7,2.3,2.3,0,0,0,.8-1.7,2,2,0,0,0-.6-1.4A13.7,13.7,0,0,0,153,87a14.3,14.3,0,0,1-3-2,3.5,3.5,0,0,1-.8-2.3,2.8,2.8,0,0,1,1.3-2.4,6.4,6.4,0,0,1,3.8-1,10.1,10.1,0,0,1,3.6.6,25.8,25.8,0,0,0,.5,2.9Z"/>
        <path id="パス_94052" data-name="パス 94052" d="M169.7,80.7h-2v-1h2V77.8a5.6,5.6,0,0,1,1.5-4.2,4.8,4.8,0,0,1,3.3-1.2,4.6,4.6,0,0,1,2.7.8,2.4,2.4,0,0,1,1.3,1.9.9.9,0,0,1-1,1.1c-.8,0-1.1-.7-1.4-1.4s-.6-1.3-1.5-1.3a1.7,1.7,0,0,0-1.3.6c-.6.7-.9,1.8-.9,3.8v1.8H176v1h-3.6v9.5c0,1.9.1,2,2.3,2V93h-7v-.8c2,0,2.1-.2,2.1-2.1Z"/>
        <path id="パス_94053" data-name="パス 94053" d="M191.2,93.1h-1.9l-2,.3H187v-2h-.1a5.5,5.5,0,0,1-4.3,2,4.1,4.1,0,0,1-2.9-.9,5.2,5.2,0,0,1-1.3-3.9V83.2c0-1.7-.1-1.9-1.5-1.9v-.8a11.8,11.8,0,0,0,3.8-1.3l.4.2v8.8a5,5,0,0,0,.6,3,2.1,2.1,0,0,0,1.8.8,4.3,4.3,0,0,0,3.3-2.1V83.2c0-1.7-.1-1.9-1.5-1.9v-.8a11.4,11.4,0,0,0,3.8-1.3l.4.2V90.3c0,1.8.1,2,1.7,2Z"/>
        <path id="パス_94054" data-name="パス 94054" d="M205,90.3c0,1.7.1,2,1.4,2v.8h-5.5v-.8c1.4,0,1.5-.2,1.5-2V83.7a3.7,3.7,0,0,0-.7-2.6,2.1,2.1,0,0,0-1.6-.6c-1.1,0-2.4,1.1-3.6,2.7v7c0,1.8.1,2,1.4,2V93h-5.7v-.8c1.6,0,1.7-.2,1.7-2V83.3c0-1.8-.2-2-1.7-2v-.8a9.9,9.9,0,0,0,3.8-1.3l.4.2v2.2h.1a5.8,5.8,0,0,1,4.4-2.4,4.1,4.1,0,0,1,3,1,4.3,4.3,0,0,1,1.1,3.4Z"/>
      </g>
    </g>
  </g>
</svg>
