<svg xmlns="http://www.w3.org/2000/svg" width="275.4" height="101.8" viewBox="0 0 275.4 101.8">
  <g id="アートワーク_14" data-name="アートワーク 14" transform="translate(137.7 50.9)">
    <g id="グループ_78204" data-name="グループ 78204" transform="translate(-137.7 -50.9)">
      <g id="グループ_78202" data-name="グループ 78202">
        <path id="パス_86274" data-name="パス 86274" d="M17.1,2.7H4.7V40.8H2V0H17.1Z"/>
        <path id="パス_86275" data-name="パス 86275" d="M53.1,41h.1V13.2c0-4.1-.5-4.4-4.6-4.4v-2H60.2v2c-3.8,0-4.2.3-4.2,4.4V48.5H52.2L29.6,12h-.1V41.6c0,4.1.4,4.4,4.4,4.4v2H22.4V46c4,0,4.4-.3,4.4-4.4V13.2c0-4.1-.3-4.4-4.5-4.4v-2h10Z"/>
        <path id="パス_86276" data-name="パス 86276" d="M79.2,48.7c-3.9,0-7-.9-9.5-3.1s-4.1-6.1-4.1-11.7,1.4-8.6,4-11.1,5.4-3.3,9.7-3.3,7.4,1.2,9.8,3.4,3.8,6.2,3.8,11-1.4,9.2-3.8,11.5S83.3,48.7,79.2,48.7Zm0-27.1A6.6,6.6,0,0,0,73.7,24c-1.6,2.1-2.4,5.2-2.4,10s1,8.2,2.4,10.1a7.4,7.4,0,0,0,11,0c1.5-2,2.4-5.2,2.4-10.1s-.8-7.9-2.4-10a6.6,6.6,0,0,0-5.5-2.5Z"/>
        <path id="パス_86277" data-name="パス 86277" d="M100.9,42a3.2,3.2,0,1,1-.1,0Z"/>
        <path id="パス_86278" data-name="パス 86278" d="M115.8,12.3A48.7,48.7,0,0,0,126,7.4l.8.4V41.5c0,4.1.3,4.5,5.3,4.5v2H115.9V46c5.2,0,5.5-.4,5.5-4.5v-25c0-2.4-.3-3.4-1.4-3.4a11.9,11.9,0,0,0-3.8,1.1Z"/>
        <path id="パス_86279" data-name="パス 86279" d="M140.7,49.1h12.4V11h2.7V51.9H140.7Z"/>
      </g>
      <g id="グループ_78203" data-name="グループ 78203">
        <path id="パス_86280" data-name="パス 86280" d="M.3,79.2a7.5,7.5,0,0,1,3.5,2.2,2.7,2.7,0,0,1,.8,1.5c0,.2-.1.4-.4.7a19.024,19.024,0,0,0-1.7,6,9.1,9.1,0,0,0,2.1,6L6,93.7l3.6-5.5.4.4L7.5,93.4a11.4,11.4,0,0,0-1.3,3.4c0,.3.3,1.3.3,1.6a1,1,0,0,1-.9,1.1C4.2,99.5.9,96.2.9,89.4a28.4,28.4,0,0,1,.3-4l.3-1.9a7.7,7.7,0,0,0,.1-1.3A2.8,2.8,0,0,0,0,79.8Zm14.3,2.4c1.9,1,7.3,3.9,7.3,12.5,0,1.1-.2,2.5-1.5,2.5s-.8-.5-1.1-1-1.5-1.4-4.7-1.7v-.6l3.8-.2h1a13.9,13.9,0,0,0-5.1-11Z"/>
        <path id="パス_86281" data-name="パス 86281" d="M28.1,81.2c.8,1.5,1.4,1.8,3.3,1.8h2.5l.5-1.6a10.8,10.8,0,0,0,.5-2.2c0-.7-.9-.9-1.9-1v-.6h1.3c2.2,0,3.7.8,3.7,1.3s-.2.4-.6.8a12.5,12.5,0,0,0-1.6,3.2c2.4-.3,5.9-.8,7.3-1.6l.4-.2c.6,0,1.7.8,1.7,1.6s0,.5-1.4.8a68.1,68.1,0,0,1-8.6,1.1A28.9,28.9,0,0,0,34,91.8a16.5,16.5,0,0,1,8.3-2.5c4.3,0,6,2.6,6,5s-.6,3.9-4.1,5.5-7.9,1.4-9.9,1.4H33.1v-.7A27,27,0,0,0,42,98.8a5.591,5.591,0,0,0,3.9-5.1c0-1.6-1.3-3.4-4.1-3.4-1,0-5,.4-7.1,3.3L34,94.7c-.3.4-.4.5-.6.5a2.361,2.361,0,0,1-.9-.6,3,3,0,0,1-.6-2.1c0-1.5.4-3.6,1.4-7.9H31.2c-1.8,0-2.6-.2-3.6-3.2Z"/>
        <path id="パス_86282" data-name="パス 86282" d="M56.3,77.8a6.9,6.9,0,0,1,3.5,1.8,2.8,2.8,0,0,1,.8,1.4c0,.3-.1.3-.6,1.1a27.121,27.121,0,0,0-2,9.4,12.2,12.2,0,0,0,.3,2.9c.6-1.1,1.2-2.1,2.5-4.7l.8-1.7.6.3c-2.7,6.7-2.7,7.4-2.7,8.7a5.4,5.4,0,0,0,0,.6l.3,1.3a2.5,2.5,0,0,1,0,.4c0,.6-.3,1.1-.9,1.1s-2.7-4.1-2.7-8.2a56.4,56.4,0,0,1,1.1-9.9,19.191,19.191,0,0,0,.3-2.2,3.8,3.8,0,0,0-1.7-2Zm7.4,4.4c1,1.2,1.4,1.7,3,1.7a42.1,42.1,0,0,0,5.2-.4,26,26,0,0,0-.3-4c-.3-.9-1.4-1.1-2.1-1.3v-.6c3.7.1,4.6,1.1,4.6,1.7a9.6,9.6,0,0,1-.2,1c-.1.4-.1,1.4-.2,2.9a17.6,17.6,0,0,0,2.5-.5l.8-.4c.4,0,1.7.9,1.7,1.5s-.4.6-1.2.7l-1.4.3-2.5.3c0,2,0,3,.1,5.3l.2,4c1.1.5,5.3,2.5,5.3,4.3a1,1,0,0,1-.9,1.1c-.4,0-.5-.1-2-1.4a18.8,18.8,0,0,0-2.4-1.7,3.3,3.3,0,0,1-.9,2.5,5.9,5.9,0,0,1-3.9,1.1c-3.2,0-5.2-1.5-5.2-3.6s.3-3.5,4.5-3.5a13.9,13.9,0,0,1,3.2.4V85.2l-5.2.3c-.9,0-2.4,0-3.5-3.1Zm4.6,12.5c-2.6,0-2.9,1.5-2.9,2,0,2,2.9,2,3.4,2,3.2,0,3.2-1.6,3.2-3.2a10.3,10.3,0,0,0-3.7-.7Zm7.9-14.9a7.3,7.3,0,0,0-1.9-2.5l.3-.4c1.1.4,3.7,1.3,3.7,3.2a1,1,0,0,1-.9,1.1c-.4,0-.6-.3-.8-.7Zm.5-4.3c.6.1,4.2.8,4.2,2.8,0,.4-.3,1.2-.8,1.2s-.6-.3-1.2-1.2A8.4,8.4,0,0,0,76.5,76Z"/>
        <path id="パス_86283" data-name="パス 86283" d="M90.4,90.9c1.1-1,3-2.6,5.4-2.6s2.9,1.4,2.9,2.9a4.1,4.1,0,0,1,0,.6l-.3,3.7a5.3,5.3,0,0,0,0,.7c0,.9,0,2.5,2.1,2.5,4.8,0,6.2-6.3,6.8-9.2h.6c-.1,2-.4,6.5-2.6,9a6.9,6.9,0,0,1-5.1,2.2,4.7,4.7,0,0,1-3.4-1.2A3.9,3.9,0,0,1,96,97c0-.7.1-1.4.1-1.8l.3-3.6c.1-1.1-.1-2.2-1.5-2.2s-3,1.2-4.1,2.4a28,28,0,0,0-3.6,6.4l-.7,1.8c-.2.6-.4.8-.7.8a4.6,4.6,0,0,1-1.6-2c0-.4,0-.3.8-1.5s8.2-16.2,8.2-17.6-.9-1.1-2-1.5l.2-.6a7.5,7.5,0,0,1,3.7,1.1c.9.6,1.1,1.1,1.1,1.3s-.1.3-.6.9a75.122,75.122,0,0,0-4.3,7.8Z"/>
        <path id="パス_86284" data-name="パス 86284" d="M112.9,87.2c.3.5.7,1.4,1.6,1.4a11.8,11.8,0,0,0,2.6-.6,39.71,39.71,0,0,1,8.1-1.6,5.8,5.8,0,0,1,6.2,6.2c0,7.3-8.9,8.1-13.8,8.2v-.6c2.5-.3,11.7-1.3,11.7-8.1,0-1.9-1-4.5-4.1-4.5a19.6,19.6,0,0,0-8.6,2.8c-.9.7-1,.7-1.1.7s-2-.4-3-3.6Z"/>
        <path id="パス_86285" data-name="パス 86285" d="M154.8,81.8h-1.4c-2.8,0-4.1.6-5.5,2a11.8,11.8,0,0,0-3.6,8.3c0,2,.6,4.2,3.9,5.5a9.7,9.7,0,0,0,3.4.6h1c.5,0,1.3,1,1.3,1.7s-.3,1.1-1.5,1.1-9.9-.7-9.9-8a13,13,0,0,1,2.2-7.1,14.3,14.3,0,0,1,3.4-3.7l-1.1.2c-7.2,1.2-8.9,2-9.2,2.1s-.9.6-1.1.6a3.7,3.7,0,0,1-1.8-1.1,7,7,0,0,1-1.7-2.7l.6-.3a2.8,2.8,0,0,0,2.4,1.5l1.2-.2,3.9-.7c3-.5,8.1-1.1,9.8-1.3l1.8-.2,1.7-.3.7-.3a3.5,3.5,0,0,1,2.3,2c0,.4-.4.5-.7.5h-2.1Z"/>
        <path id="パス_86286" data-name="パス 86286" d="M160.8,95a8.3,8.3,0,0,1,4.3,1.8,4,4,0,0,1,1.4,2.7,1.7,1.7,0,0,1-1.5,1.8c-1.1,0-1.3-.7-1.7-2.2a5.4,5.4,0,0,0-2.7-3.6Z"/>
        <path id="パス_86287" data-name="パス 86287" d="M206.4,92.5l1.3-1.7,2.5,2v.5h-11a16.2,16.2,0,0,0,4.3,2.8,23.4,23.4,0,0,0,7.2,2.3l-.2.5c-1,.2-1.5.5-1.9,1.9a20.7,20.7,0,0,1-9.8-6.9v7.6l-2.5.3v-7a33.9,33.9,0,0,1-11.1,6.1l-.2-.5a35.4,35.4,0,0,0,9.7-7.2H186l-.5-.8h10.9V90.1l2.8.3c.3,0,.6.1.6.4s-.3.4-.9.7v1Zm-21.2-3.9a58.8,58.8,0,0,0,7.2-3.4l.3.6-1.5,1.4-3.5,2.9c0,.8-.1.9-.3.9l-.4-.2Zm1.3-9.3c1.7.4,4.9,1.3,4.9,3.6a1.2,1.2,0,0,1-1.2,1.4,1.078,1.078,0,0,1-1.1-.8l-.6-1.2a7.1,7.1,0,0,0-2.3-2.4Zm8.6.5h1a29.381,29.381,0,0,0,.5-3.5l2.6.8c.3.1.4.3.4.4s-.1.3-.9.5l-1.4,1.7h2.4l.8-1.1,2,1.3c.1.1.5.3.5.5s-.1.3-.9.7V90l-2.3.3v-1H195v1l-2.3.4v-12Zm4.8,4.2V80.6h-4.8V84Zm0,4.5V84.8h-4.8v3.8Zm9-8.5c.3.3.4.4.4.5s-.1.4-1.1.4a27.5,27.5,0,0,1-5.1,3.3l-.4-.4a34.6,34.6,0,0,0,4.3-5.4Zm-5.8,4.9c4.7.8,6,2.6,6,3.9a1.2,1.2,0,0,1-1,1.3c-.7,0-1-.6-1.2-1a10,10,0,0,0-3.9-3.7Z"/>
        <path id="パス_86288" data-name="パス 86288" d="M216.9,77.7c2,.1,2.9.1,4.1,1.1s.8.8.8,1.2,0,.3-.3.8c-1.5,2.7-1.6,11.8-1.6,11.9,0,3.2.4,5.4,4.3,5.4s8.5-3.6,11.2-7.9l.6.3c-1.3,2.7-2.3,4.7-4.6,6.8a10.8,10.8,0,0,1-7.2,3.1,6.8,6.8,0,0,1-4.6-1.6c-1.4-1.3-1.6-3.4-1.6-6.3a18.1,18.1,0,0,1,.1-1.9l.7-9V80.3a4.1,4.1,0,0,0,.1-.6c0-.8-.7-1.1-2.2-1.5Z"/>
        <path id="パス_86289" data-name="パス 86289" d="M242.2,79.2a7.5,7.5,0,0,1,3.5,2.2,2.7,2.7,0,0,1,.8,1.5c0,.2-.1.4-.4.7a19.024,19.024,0,0,0-1.7,6,9.1,9.1,0,0,0,2.1,6l1.3-1.9,3.6-5.5.4.4-2.5,4.8a11.4,11.4,0,0,0-1.3,3.4c0,.3.3,1.3.3,1.6a1,1,0,0,1-.9,1.1c-1.4,0-4.7-3.2-4.7-10.1a28.4,28.4,0,0,1,.3-4l.3-1.9a7.7,7.7,0,0,0,.1-1.3,2.8,2.8,0,0,0-1.6-2.5Zm14.3,2.4c1.9,1,7.3,3.9,7.3,12.5,0,1.1-.2,2.5-1.5,2.5s-.8-.5-1.1-1-1.5-1.4-4.7-1.7v-.6l3.8-.2h1a13.9,13.9,0,0,0-5.1-11Z"/>
        <path id="パス_86290" data-name="パス 86290" d="M275.4,97.8a3.4,3.4,0,1,1-1.031-2.44A3.4,3.4,0,0,1,275.4,97.8Zm-5.6,0a2.2,2.2,0,0,0,4.4,0,2.1,2.1,0,0,0-2.2-2.2,2.2,2.2,0,0,0-2.2,2.2Z"/>
      </g>
    </g>
  </g>
</svg>
