<svg xmlns="http://www.w3.org/2000/svg" width="320.8" height="102.1" viewBox="0 0 320.8 102.1">
  <g id="アートワーク_26" data-name="アートワーク 26" transform="translate(160.4 51.05)">
    <g id="グループ_78466" data-name="グループ 78466" transform="translate(-160.4 -51.05)">
      <g id="グループ_78464" data-name="グループ 78464">
        <path id="パス_94088" data-name="パス 94088" d="M32.8,32.5a18.5,18.5,0,0,1-5.2,7.8A14.4,14.4,0,0,1,18,43.7c-5.6,0-9.9-1.8-12.9-5.1S0,29.2,0,21.9,1.9,9.6,5.5,6s7.7-5,13.6-5a24.7,24.7,0,0,1,6.3.7A31.7,31.7,0,0,1,29.6,3c.4,3.2.9,6.3,1.6,9.5l-2.4.5c-.9-4.1-1.6-6.7-3.2-7.9s-3.1-1.7-6.2-1.7a12,12,0,0,0-9.2,3.9C7.6,10,5.9,14.9,5.9,21.7S7,32.7,9.8,36.4a11.5,11.5,0,0,0,9,4.5,10.5,10.5,0,0,0,7.1-2.6,16.2,16.2,0,0,0,4.4-6.7Z"/>
        <path id="パス_94089" data-name="パス 94089" d="M39.3,8.1c0-3.5-.3-3.9-3.5-3.9V2.6A24.7,24.7,0,0,0,44.1,0l.7.4V19.1h.1c2.5-3,5.7-4.8,9.3-4.8A8.1,8.1,0,0,1,60,16.2c1.9,1.9,2.4,4.1,2.4,8.1V36.9c0,3.7.3,4.2,3.1,4.2v1.7H53.9V41.1c2.8,0,3.1-.4,3.1-4.2V24.5c0-3-.2-4.8-1.2-6.1a4.1,4.1,0,0,0-3.4-1.5c-2.6,0-5.2,2.3-7.6,5.5V36.9c0,3.8.3,4.2,2.9,4.2v1.7H35.8V41.1c3.3,0,3.5-.5,3.5-4.2Z"/>
        <path id="パス_94090" data-name="パス 94090" d="M90.8,37.1c0,2.8.6,4,1.9,4a3.5,3.5,0,0,0,1.7-.5l.3,1.7a10.2,10.2,0,0,1-4.3.8c-2.6,0-3.9-1-4.6-3.1h-.2a11.9,11.9,0,0,1-8.8,3.4,9.4,9.4,0,0,1-5.7-1.9,6.6,6.6,0,0,1-2.6-5.4,7.7,7.7,0,0,1,3.9-6.9A28.1,28.1,0,0,1,81.6,26l3.7-.9V22.4a8.5,8.5,0,0,0-.9-4.2,4.8,4.8,0,0,0-4.2-1.8,5.6,5.6,0,0,0-4,1.5,7.6,7.6,0,0,0-1.9,3,2.4,2.4,0,0,1-2.6,1.7,1.9,1.9,0,0,1-2.1-2.1c0-1.6,1.3-3.3,3.3-4.5a15.7,15.7,0,0,1,7.6-1.6c4.2,0,6.4.8,8.1,2.6s2.1,3.7,2.1,6.4Zm-5.5-10A27.8,27.8,0,0,0,77.9,30c-2.2,1.3-3.8,2.9-3.8,5.6a5.2,5.2,0,0,0,1.3,3.8,4.8,4.8,0,0,0,3.8,1.5,8.8,8.8,0,0,0,6.1-3Z"/>
        <path id="パス_94091" data-name="パス 94091" d="M100.4,8.1c0-3.5-.2-3.9-4.3-3.9V2.6A26.4,26.4,0,0,0,105.2,0l.7.4V36.9c0,3.7.2,4.2,4.2,4.2v1.7H96V41.1c4.2,0,4.3-.5,4.3-4.2Z"/>
        <path id="パス_94092" data-name="パス 94092" d="M117.1,8.1c0-3.5-.2-3.9-4.3-3.9V2.6A26.4,26.4,0,0,0,121.9,0l.7.4V36.9c0,3.7.2,4.2,4.2,4.2v1.7h-14V41.1c4.2,0,4.3-.5,4.3-4.2Z"/>
        <path id="パス_94093" data-name="パス 94093" d="M135.4,28.5c0,3.7.5,6.8,2,9.2a7.3,7.3,0,0,0,6.3,3.5,8.8,8.8,0,0,0,5.3-1.7,9.6,9.6,0,0,0,3.1-3.7l1.9,1a13.4,13.4,0,0,1-3.9,4.5,12.2,12.2,0,0,1-7.3,2.2c-4,0-7.5-1.2-9.9-4s-3.2-6.1-3.2-11.3a15.4,15.4,0,0,1,3.9-10.7,12.2,12.2,0,0,1,8.6-3.2,10.9,10.9,0,0,1,8.6,3.5A17.2,17.2,0,0,1,154,28.4Zm12.9-2.1c0-2.8-.5-5.7-1.7-7.5a5.2,5.2,0,0,0-4.5-2.4,5.9,5.9,0,0,0-4.6,2.4,13.7,13.7,0,0,0-2.1,7.5Z"/>
        <path id="パス_94094" data-name="パス 94094" d="M183.2,37c0,3.5.3,4.1,3,4.1v1.7H174.8V41.1c2.8,0,3-.4,3-4.2V23.4c0-2.3-.3-4.2-1.4-5.3a4.3,4.3,0,0,0-3.4-1.2c-2.4,0-5,2.2-7.4,5.5V36.9c0,3.8.1,4.2,2.8,4.2v1.7H156.6V41.1c3.3,0,3.5-.4,3.5-4.2V22.6c0-3.7-.3-4.2-3.5-4.1V16.9a20.4,20.4,0,0,0,7.9-2.6l.8.4.2,4.6h.1c2.5-3.1,5.7-5,9.2-5s4.8.6,6.1,2,2.3,3.6,2.3,7Z"/>
        <path id="パス_94095" data-name="パス 94095" d="M204.8,39.5c8.9,0,11.7,4,11.7,8,0,5.7-5.9,10.3-15.5,10.3s-13.5-2.4-13.5-7.2,3.3-6.3,6.6-7.6c-2.3-.5-4.5-1.9-4.5-4.5s2.1-4.1,4.5-5.5a9.7,9.7,0,0,1-4.6-8.4c0-6.6,5.3-10.3,12-10.3a15.5,15.5,0,0,1,7.2,1.6l8.1-.9v3l-6-.3a9.1,9.1,0,0,1,3,6.9c0,7-5.5,10.4-11.9,10.4a15.6,15.6,0,0,1-5.8-1c-1.6,1-2.6,2-2.6,3.2s1.7,2.4,5.2,2.4Zm-8.1,4.2c-2.8,1.8-4.6,3.8-4.6,6.3s3.6,5.7,9.2,5.7S212,52.4,212,48.8s-1.5-5.1-7.9-5.1Zm4.9-10.8c4.1,0,6.4-3.2,6.4-8.2s-2.1-8.2-6.6-8.2-6.5,3.9-6.5,8.2,2.5,8.2,6.6,8.2Z"/>
        <path id="パス_94096" data-name="パス 94096" d="M224.5,28.5c0,3.7.5,6.8,2,9.2a7.3,7.3,0,0,0,6.3,3.5,8.8,8.8,0,0,0,5.3-1.7,9.6,9.6,0,0,0,3.1-3.7l1.9,1a13.4,13.4,0,0,1-3.9,4.5,12.2,12.2,0,0,1-7.3,2.2c-4,0-7.5-1.2-9.9-4s-3.2-6.1-3.2-11.3a15.4,15.4,0,0,1,3.9-10.7,12.2,12.2,0,0,1,8.6-3.2,10.9,10.9,0,0,1,8.6,3.5A17.2,17.2,0,0,1,243,28.5Zm12.9-2.1c0-2.8-.5-5.7-1.7-7.5a5.2,5.2,0,0,0-4.5-2.4,5.9,5.9,0,0,0-4.6,2.4,13.7,13.7,0,0,0-2.1,7.5Z"/>
      </g>
      <g id="グループ_78465" data-name="グループ 78465">
        <path id="パス_94097" data-name="パス 94097" d="M16.4,89.9a8.9,8.9,0,0,1-2.5,3.8,7,7,0,0,1-4.6,1.6,8,8,0,0,1-6.2-2.5C1.4,90.9.6,88.3.6,84.8s.9-5.9,2.7-7.7a9,9,0,0,1,6.6-2.4,11.9,11.9,0,0,1,3,.3l2,.6a40.406,40.406,0,0,0,.8,4.6l-1.2.3c-.4-2-.8-3.2-1.5-3.8a4.5,4.5,0,0,0-3-.8,5.8,5.8,0,0,0-4.5,1.9c-1.2,1.4-2.1,3.7-2.1,7a11.8,11.8,0,0,0,1.9,7.1,5.5,5.5,0,0,0,4.4,2.2,5.1,5.1,0,0,0,3.4-1.2,7.8,7.8,0,0,0,2.1-3.2Z"/>
        <path id="パス_94098" data-name="パス 94098" d="M20.2,78.1c0-1.7-.2-1.9-1.7-1.9v-.8a11.9,11.9,0,0,0,4-1.3l.3.2v9h.1A5.9,5.9,0,0,1,27.4,81a3.9,3.9,0,0,1,2.8.9c.9.9,1.1,2,1.1,3.9V92c0,1.8.1,2,1.5,2v.8H27.2V94c1.4,0,1.5-.2,1.5-2V86a4.9,4.9,0,0,0-.6-3,2,2,0,0,0-1.7-.7c-1.2,0-2.5,1.1-3.7,2.6v7c0,1.8.1,2,1.4,2v.8H18.5V94c1.6,0,1.7-.2,1.7-2Z"/>
        <path id="パス_94099" data-name="パス 94099" d="M44.4,92.1c0,1.4.3,1.9.9,1.9l.8-.2.2.8a4.9,4.9,0,0,1-2.1.4A2.1,2.1,0,0,1,42,93.5h-.1a5.7,5.7,0,0,1-4.3,1.7,4.6,4.6,0,0,1-2.8-.9,3.2,3.2,0,0,1-1.2-2.6,3.7,3.7,0,0,1,1.9-3.3A13.6,13.6,0,0,1,40,86.7l1.8-.4V85a4.1,4.1,0,0,0-.4-2,2.3,2.3,0,0,0-2-.9,2.7,2.7,0,0,0-1.9.7,3.7,3.7,0,0,0-.9,1.4,1.1,1.1,0,0,1-1.2.8.9.9,0,0,1-1-1A2.8,2.8,0,0,1,36,81.8a7.6,7.6,0,0,1,3.7-.8c2,0,3.1.4,3.9,1.2a4.2,4.2,0,0,1,1,3.1Zm-2.6-4.8a13.4,13.4,0,0,0-3.6,1.4,3,3,0,0,0-1.8,2.7,2.5,2.5,0,0,0,.6,1.8,2.3,2.3,0,0,0,1.8.7,4.2,4.2,0,0,0,3-1.4Z"/>
        <path id="パス_94100" data-name="パス 94100" d="M49.1,78.1c0-1.7-.1-1.9-2.1-1.9v-.8a12.8,12.8,0,0,0,4.4-1.3l.3.2V92c0,1.8.1,2,2,2v.8H47V94c2,0,2.1-.3,2.1-2Z"/>
        <path id="パス_94101" data-name="パス 94101" d="M57.2,78.1c0-1.7-.1-1.9-2.1-1.9v-.8a12.8,12.8,0,0,0,4.4-1.3l.3.2V92c0,1.8.1,2,2,2v.8H55.1V94c2,0,2.1-.3,2.1-2Z"/>
        <path id="パス_94102" data-name="パス 94102" d="M66,87.9a8.1,8.1,0,0,0,1,4.5,3.5,3.5,0,0,0,3,1.7,4.3,4.3,0,0,0,2.6-.8,4.6,4.6,0,0,0,1.5-1.8l.9.5a6.5,6.5,0,0,1-1.9,2.2,5.9,5.9,0,0,1-3.5,1.1,6.1,6.1,0,0,1-4.8-1.9,8.6,8.6,0,0,1-1.5-5.5,7.4,7.4,0,0,1,1.9-5.2,5.9,5.9,0,0,1,4.1-1.6,5.3,5.3,0,0,1,4.1,1.7,8.3,8.3,0,0,1,1.5,5.1Zm6.2-1a7,7,0,0,0-.8-3.6,2.5,2.5,0,0,0-2.2-1.2A2.8,2.8,0,0,0,67,83.3a6.6,6.6,0,0,0-1,3.6Z"/>
        <path id="パス_94103" data-name="パス 94103" d="M89.1,92c0,1.7.1,2,1.4,2v.8H85V94c1.4,0,1.5-.2,1.5-2V85.5a3.7,3.7,0,0,0-.7-2.6,2.1,2.1,0,0,0-1.6-.6c-1.1,0-2.4,1.1-3.6,2.7v7c0,1.8.1,2,1.4,2v.8H76.2V94c1.6,0,1.7-.2,1.7-2V85.1c0-1.8-.2-2-1.7-2v-.8A9.9,9.9,0,0,0,80,81.1l.4.2v2.2h.1A5.8,5.8,0,0,1,85,81.1a4.1,4.1,0,0,1,3,1,4.3,4.3,0,0,1,1.1,3.4Z"/>
        <path id="パス_94104" data-name="パス 94104" d="M99.5,93.2c4.3,0,5.7,1.9,5.7,3.9s-2.9,5-7.5,5-6.5-1.2-6.5-3.5,1.6-3,3.2-3.7c-1.1-.3-2.2-.9-2.2-2.2s1-2,2.2-2.6A4.7,4.7,0,0,1,92.1,86c0-3.2,2.5-5,5.8-5a7.5,7.5,0,0,1,3.5.8l3.9-.4v1.4l-2.9-.2a4.4,4.4,0,0,1,1.4,3.3c0,3.4-2.7,5-5.7,5a7.5,7.5,0,0,1-2.8-.5q-1.2.75-1.2,1.5c0,.5.8,1.2,2.5,1.2Zm-3.9,2c-1.4.9-2.2,1.8-2.2,3s1.7,2.8,4.5,2.8,5.2-1.6,5.2-3.3-.7-2.5-3.8-2.5ZM97.9,90c2,0,3.1-1.6,3.1-4s-1-3.9-3.2-3.9-3,1.9-3,3.9S96,90,98,90Z"/>
        <path id="パス_94105" data-name="パス 94105" d="M110.9,92c0,1.8.1,2,2,2v.8h-6.8V94c2,0,2.1-.3,2.1-2V85c0-1.8-.1-1.9-2.1-1.9v-.8a12.6,12.6,0,0,0,4.5-1.3l.3.2Zm-1.5-16.2a1.9,1.9,0,1,1-1.6,1.9,1.7,1.7,0,0,1,1.6-1.9Z"/>
        <path id="パス_94106" data-name="パス 94106" d="M126.9,92c0,1.7.1,2,1.4,2v.8h-5.5V94c1.4,0,1.5-.2,1.5-2V85.5a3.7,3.7,0,0,0-.7-2.6,2.1,2.1,0,0,0-1.6-.6c-1.1,0-2.4,1.1-3.6,2.7v7c0,1.8.1,2,1.4,2v.8H114V94c1.6,0,1.7-.2,1.7-2V85.1c0-1.8-.2-2-1.7-2v-.8a9.9,9.9,0,0,0,3.8-1.3l.4.2v2.2h.1a5.8,5.8,0,0,1,4.4-2.4,4.1,4.1,0,0,1,3,1,4.3,4.3,0,0,1,1.1,3.4Z"/>
        <path id="パス_94107" data-name="パス 94107" d="M137.3,93.2c4.3,0,5.7,1.9,5.7,3.9s-2.9,5-7.5,5-6.5-1.2-6.5-3.5,1.6-3,3.2-3.7c-1.1-.3-2.2-.9-2.2-2.2s1-2,2.2-2.6A4.7,4.7,0,0,1,130,86c0-3.2,2.5-5,5.8-5a7.5,7.5,0,0,1,3.5.8l3.9-.4v1.4l-2.9-.2a4.4,4.4,0,0,1,1.4,3.3c0,3.4-2.7,5-5.7,5a7.5,7.5,0,0,1-2.8-.5q-1.2.75-1.2,1.5c0,.5.8,1.2,2.5,1.2Zm-3.9,2c-1.4.9-2.2,1.8-2.2,3s1.7,2.8,4.5,2.8,5.2-1.6,5.2-3.3-.7-2.5-3.8-2.5Zm2.4-5.2c2,0,3.1-1.6,3.1-4s-1-3.9-3.2-3.9-3.1,1.9-3.1,3.9S133.8,90,135.8,90Z"/>
        <path id="パス_94108" data-name="パス 94108" d="M152.5,84.1c-.8-1.7-1-1.8-2-1.8v-.8h5.8v.8c-1.5,0-1.6.3-1,1.5l3.5,8h.1l3.4-8.5c.4-.9.2-1.1-1.1-1.1v-.8h4.1v.8c-.9,0-1.2.1-1.7,1.3l-6,14.6a8.4,8.4,0,0,1-1.8,2.7,3.6,3.6,0,0,1-2.7,1.1,3.7,3.7,0,0,1-2.2-.6,1.7,1.7,0,0,1-.8-1.4.9.9,0,0,1,.9-.9,1.5,1.5,0,0,1,1.4.9c.3.5.6.9,1.1.9s2.2-1.7,2.7-2.8l1.3-3.4Z"/>
        <path id="パス_94109" data-name="パス 94109" d="M172.3,95.2a6.7,6.7,0,0,1-4.6-1.5c-1.2-1.1-2-2.9-2-5.7a7.2,7.2,0,0,1,1.9-5.4,6.4,6.4,0,0,1,4.7-1.6,6.6,6.6,0,0,1,4.7,1.7,7.2,7.2,0,0,1,1.8,5.3c0,2.7-.7,4.5-1.8,5.5a6.7,6.7,0,0,1-4.8,1.6Zm0-13.1a3.2,3.2,0,0,0-2.7,1.2c-.8,1-1.1,2.5-1.1,4.8a8.2,8.2,0,0,0,1.2,4.9,3.6,3.6,0,0,0,5.3,0,8.314,8.314,0,0,0,1.2-4.9c0-2.4-.4-3.8-1.1-4.8a3.2,3.2,0,0,0-2.7-1.2Z"/>
        <path id="パス_94110" data-name="パス 94110" d="M194.3,94.8h-1.9l-2,.3h-.3V93.2H190a5.5,5.5,0,0,1-4.3,2,4.1,4.1,0,0,1-2.9-.9,5.2,5.2,0,0,1-1.3-3.9V85c0-1.7-.1-1.9-1.5-1.9v-.8a11.8,11.8,0,0,0,3.8-1.3l.4.2V90a5,5,0,0,0,.6,3,2.2,2.2,0,0,0,1.8.8,4.3,4.3,0,0,0,3.3-2.1V85c0-1.7-.1-1.9-1.5-1.9v-.8a11.4,11.4,0,0,0,3.8-1.3l.4.2V92c0,1.8.1,2,1.7,2Z"/>
        <path id="パス_94111" data-name="パス 94111" d="M199.4,83.3c1.1-1.5,2-2.2,3.3-2.2a2.3,2.3,0,0,1,1.6.6,1.9,1.9,0,0,1,.6,1.4c0,.8-.4,1.2-1,1.2s-.9-.3-1.1-1-.4-1-.9-1-1.5.9-2.5,2.3V92c0,1.8.2,2,1.9,2v.8h-6.2V94c1.5,0,1.6-.2,1.6-2V85c0-1.7-.1-1.9-1.6-1.9v-.8a10.2,10.2,0,0,0,3.8-1.3l.3.2v2Z"/>
        <path id="パス_94112" data-name="パス 94112" d="M214.2,84.8c-.4-2.1-1.3-2.7-3-2.7a3.5,3.5,0,0,0-1.9.5,1.5,1.5,0,0,0-.8,1.4,2.2,2.2,0,0,0,1.1,1.7c.9.5,2.3,1,2.9,1.4a7.5,7.5,0,0,1,2.3,1.6,3.4,3.4,0,0,1,1.1,2.4,3.5,3.5,0,0,1-1.4,2.9,6.8,6.8,0,0,1-4.1,1.2,10.3,10.3,0,0,1-4.3-.8,24.5,24.5,0,0,0-.6-3.2l.9-.2c.7,2.5,1.9,3.2,3.8,3.2a3.7,3.7,0,0,0,2.3-.7,2.3,2.3,0,0,0,.8-1.7,2,2,0,0,0-.6-1.4,13.6,13.6,0,0,0-2.9-1.7,14.3,14.3,0,0,1-3-2,3.5,3.5,0,0,1-.8-2.3,2.8,2.8,0,0,1,1.3-2.4,6.4,6.4,0,0,1,3.8-1,10.1,10.1,0,0,1,3.6.6,26.008,26.008,0,0,0,.5,2.9Z"/>
        <path id="パス_94113" data-name="パス 94113" d="M220.1,87.9a8.1,8.1,0,0,0,1,4.5,3.5,3.5,0,0,0,3,1.7,4.3,4.3,0,0,0,2.6-.8,4.6,4.6,0,0,0,1.5-1.8l.9.5a6.5,6.5,0,0,1-1.9,2.2,5.9,5.9,0,0,1-3.5,1.1,6.1,6.1,0,0,1-4.8-1.9,8.6,8.6,0,0,1-1.5-5.5,7.4,7.4,0,0,1,1.9-5.2,5.9,5.9,0,0,1,4.1-1.6,5.3,5.3,0,0,1,4.1,1.7,8.3,8.3,0,0,1,1.5,5.1Zm6.2-1a7,7,0,0,0-.8-3.6,2.5,2.5,0,0,0-2.2-1.2,2.8,2.8,0,0,0-2.2,1.2,6.6,6.6,0,0,0-1,3.6Z"/>
        <path id="パス_94114" data-name="パス 94114" d="M232.5,78.1c0-1.7-.1-1.9-2.1-1.9v-.8a12.8,12.8,0,0,0,4.4-1.3l.3.2V92c0,1.8.1,2,2,2v.8h-6.7V94c2,0,2.1-.3,2.1-2Z"/>
        <path id="パス_94115" data-name="パス 94115" d="M240.6,82.5h-2v-1h2V79.6a5.6,5.6,0,0,1,1.5-4.2,4.8,4.8,0,0,1,3.3-1.2,4.6,4.6,0,0,1,2.7.8,2.4,2.4,0,0,1,1.3,1.9.9.9,0,0,1-1,1.1c-.8,0-1.1-.7-1.4-1.4s-.6-1.3-1.5-1.3a1.7,1.7,0,0,0-1.3.6c-.6.7-.9,1.8-.9,3.8v1.8h3.6v1h-3.6V92c0,1.9.1,2,2.3,2v.8h-7V94c2,0,2.1-.2,2.1-2.1Z"/>
        <path id="パス_94116" data-name="パス 94116" d="M260.1,92c0,1.8.1,2,2,2v.8h-6.8V94c2,0,2.1-.3,2.1-2V85c0-1.8-.1-1.9-2.1-1.9v-.8a12.6,12.6,0,0,0,4.5-1.3l.3.2Zm-1.5-16.2a1.9,1.9,0,1,1-1.6,1.9,1.7,1.7,0,0,1,1.6-1.9Z"/>
        <path id="パス_94117" data-name="パス 94117" d="M271.9,84.8c-.4-2.1-1.3-2.7-3-2.7a3.5,3.5,0,0,0-1.9.5,1.5,1.5,0,0,0-.8,1.4,2.2,2.2,0,0,0,1.1,1.7c.9.5,2.3,1,2.9,1.4a7.5,7.5,0,0,1,2.3,1.6,3.4,3.4,0,0,1,1.1,2.4,3.5,3.5,0,0,1-1.4,2.9,6.8,6.8,0,0,1-4.1,1.2,10.3,10.3,0,0,1-4.3-.8,24.5,24.5,0,0,0-.6-3.2l.9-.2c.7,2.5,1.9,3.2,3.8,3.2a3.7,3.7,0,0,0,2.3-.7,2.3,2.3,0,0,0,.8-1.7,2,2,0,0,0-.6-1.4,13.6,13.6,0,0,0-2.9-1.7,14.3,14.3,0,0,1-3-2,3.5,3.5,0,0,1-.8-2.3A2.8,2.8,0,0,1,265,82a6.4,6.4,0,0,1,3.8-1,10.1,10.1,0,0,1,3.6.6,26,26,0,0,0,.5,2.9Z"/>
        <path id="パス_94118" data-name="パス 94118" d="M284.2,82.5h-2v-1h2V79.6a5.6,5.6,0,0,1,1.5-4.2,4.8,4.8,0,0,1,3.3-1.2,4.6,4.6,0,0,1,2.7.8,2.4,2.4,0,0,1,1.3,1.9.9.9,0,0,1-1,1.1c-.8,0-1.1-.7-1.4-1.4s-.6-1.3-1.5-1.3a1.7,1.7,0,0,0-1.3.6c-.6.7-.9,1.8-.9,3.8v1.8h3.6v1h-3.6V92c0,1.9.1,2,2.3,2v.8h-7V94c2,0,2.1-.2,2.1-2.1Z"/>
        <path id="パス_94119" data-name="パス 94119" d="M305.7,94.8h-1.9l-2,.3h-.3V93.2h-.1a5.5,5.5,0,0,1-4.3,2,4.1,4.1,0,0,1-2.9-.9,5.2,5.2,0,0,1-1.3-3.9V85c0-1.7-.1-1.9-1.5-1.9v-.8a11.8,11.8,0,0,0,3.8-1.3l.4.2V90a5,5,0,0,0,.6,3,2.2,2.2,0,0,0,1.8.8,4.3,4.3,0,0,0,3.3-2.1V85c0-1.7-.1-1.9-1.5-1.9v-.8a11.4,11.4,0,0,0,3.8-1.3l.4.2V92c0,1.8.1,2,1.7,2Z"/>
        <path id="パス_94120" data-name="パス 94120" d="M319.4,92c0,1.7.1,2,1.4,2v.8h-5.5V94c1.4,0,1.5-.2,1.5-2V85.5a3.7,3.7,0,0,0-.7-2.6,2.1,2.1,0,0,0-1.6-.6c-1.1,0-2.4,1.1-3.6,2.7v7c0,1.8.1,2,1.4,2v.8h-5.7V94c1.6,0,1.7-.2,1.7-2V85.1c0-1.8-.2-2-1.7-2v-.8a9.9,9.9,0,0,0,3.8-1.3l.4.2v2.2h.1a5.8,5.8,0,0,1,4.4-2.4,4.1,4.1,0,0,1,3,1,4.3,4.3,0,0,1,1.1,3.4Z"/>
      </g>
    </g>
  </g>
</svg>
