<svg xmlns="http://www.w3.org/2000/svg" width="920.842" height="315.034" viewBox="0 0 920.842 315.034">
  <g id="グループ_85090" data-name="グループ 85090" transform="translate(-390.157 -4200)">
    <g id="年間スケジュール" transform="translate(851 4357.517)">
      <g id="年間スケジュール-2" data-name="年間スケジュール" transform="translate(-460 -157.517)">
        <rect id="長方形_12263" data-name="長方形 12263" width="140.502" height="34.536" rx="17.184" transform="translate(544.992 62.67)" fill="#002060"/>
        <rect id="長方形_12264" data-name="長方形 12264" width="140.502" height="34.536" rx="17.184" transform="translate(319.919 62.67)" fill="#002060"/>
        <path id="パス_219701" data-name="パス 219701" d="M0,0H72.609V44.88H0Z" transform="translate(0 134.605)" fill="#dee2e5" stroke="#535557" stroke-width="1.685"/>
        <g id="グループ_82351" data-name="グループ 82351" transform="translate(21.395 147.741)">
          <path id="パス_141007" data-name="パス 141007" d="M18.933,103.6v-3.538H12.7V97.7l5.391-9.6H21.46v9.6h2.022v2.19H21.46v3.538Zm0-5.728V90.964l-3.706,6.907Z" transform="translate(-12.7 -87.421)" fill="#333"/>
          <path id="パス_141008" data-name="パス 141008" d="M24.717,99.158a14.994,14.994,0,0,1-.505,2.359,11.119,11.119,0,0,1-2.359,3.875A7.581,7.581,0,0,0,20,103.538,7.413,7.413,0,0,0,22.19,100a31.5,31.5,0,0,0,.842-9.266,27.312,27.312,0,0,0-.169-3.037l12.8,0a19.2,19.2,0,0,0,0,2.19v12.8c0,1.011-.168,1.516-.674,1.853a4.212,4.212,0,0,1-2.359.337H30.277a7.412,7.412,0,0,0-.505-2.19h2.864c.505,0,.674-.168.674-.505V98.821Zm8.592-2.022v-2.7H25.054a21.305,21.305,0,0,1-.168,2.7Zm0-4.717V89.892H25.054v2.527Z" transform="translate(-7.702 -87.697)" fill="#333"/>
        </g>
        <rect id="長方形_12266" data-name="長方形 12266" width="72.609" height="44.88" transform="translate(75.979 134.605)" fill="#dee2e5" stroke="#535557" stroke-width="1.685"/>
        <g id="グループ_82352" data-name="グループ 82352" transform="translate(98.553 147.741)">
          <path id="パス_141009" data-name="パス 141009" d="M58.5,101.1l2.864.337c2.359,0,3.369-1.011,3.369-2.7s-1.011-2.527-3.032-2.527l-2.359.505-.842-.674.337-7.749h8.255v2.359H61.027v3.706H62.88A4.212,4.212,0,0,1,67.6,98.913c0,3.032-2.022,5.222-5.728,5.222L58.5,103.8Z" transform="translate(-58.5 -87.285)" fill="#333"/>
          <path id="パス_141010" data-name="パス 141010" d="M69.817,99.158a14.993,14.993,0,0,1-.505,2.359,11.118,11.118,0,0,1-2.359,3.875,7.581,7.581,0,0,0-1.853-1.853A7.413,7.413,0,0,0,67.29,100a31.5,31.5,0,0,0,.842-9.266,27.316,27.316,0,0,0-.169-3.037l12.8,0a19.209,19.209,0,0,0,0,2.19v12.8c0,1.011-.168,1.516-.674,1.853a4.212,4.212,0,0,1-2.359.337H75.377a7.414,7.414,0,0,0-.505-2.19h2.864c.505,0,.674-.168.674-.505V98.821Zm8.592-2.022v-2.7H70.154a21.307,21.307,0,0,1-.168,2.7Zm0-4.717V89.892H70.154v2.527Z" transform="translate(-53.981 -87.697)" fill="#333"/>
        </g>
        <rect id="長方形_12267" data-name="長方形 12267" width="72.609" height="44.88" transform="translate(151.958 134.605)" fill="#dee2e5" stroke="#535557" stroke-width="1.685"/>
        <g id="グループ_82353" data-name="グループ 82353" transform="translate(173.69 147.741)">
          <path id="パス_141011" data-name="パス 141011" d="M112.2,89.585a11.456,11.456,0,0,0-5.9,5.222,5.391,5.391,0,0,1,2.7-.674,4.38,4.38,0,0,1,4.38,4.717,4.886,4.886,0,0,1-5.222,5.222c-3.2,0-5.054-2.19-5.054-5.9s2.7-8.086,7.75-10.277Zm-6.4,7.581v1.011c0,.168.842,3.706,2.527,3.706a2.359,2.359,0,0,0,2.359-2.7,2.527,2.527,0,0,0-2.527-2.7,3.706,3.706,0,0,0-2.359.674Z" transform="translate(-103.1 -87.558)" fill="#333"/>
          <path id="パス_141012" data-name="パス 141012" d="M114.917,99.158a15,15,0,0,1-.505,2.359,11.119,11.119,0,0,1-2.359,3.875,7.582,7.582,0,0,0-1.853-1.853A7.413,7.413,0,0,0,112.39,100a31.5,31.5,0,0,0,.842-9.266,27.316,27.316,0,0,0-.169-3.037l12.8,0a19.206,19.206,0,0,0,0,2.19v12.8c0,1.011-.168,1.516-.674,1.853a4.212,4.212,0,0,1-2.359.337h-2.359a7.413,7.413,0,0,0-.505-2.19h2.864c.505,0,.674-.168.674-.505V98.821Zm8.592-2.022v-2.7h-8.255a21.307,21.307,0,0,1-.168,2.7Zm0-4.717V89.892h-8.086v2.527Z" transform="translate(-98.239 -87.697)" fill="#333"/>
        </g>
        <rect id="長方形_12268" data-name="長方形 12268" width="72.609" height="44.88" transform="translate(227.936 134.605)" fill="#535557"/>
        <g id="グループ_82354" data-name="グループ 82354" transform="translate(250.174 147.742)">
          <path id="パス_141013" data-name="パス 141013" d="M148.837,103.462l6.4-12.8H148.5V88.3h9.6v1.853l-6.4,13.309Z" transform="translate(-148.5 -87.285)" fill="#fff"/>
          <path id="パス_141014" data-name="パス 141014" d="M160.017,99.158a14.994,14.994,0,0,1-.505,2.359,11.119,11.119,0,0,1-2.359,3.875,7.581,7.581,0,0,0-1.853-1.853A7.413,7.413,0,0,0,157.49,100a31.5,31.5,0,0,0,.842-9.266,27.306,27.306,0,0,0-.169-3.037l12.8,0a19.2,19.2,0,0,0,0,2.19v12.8c0,1.011-.168,1.516-.674,1.853a4.212,4.212,0,0,1-2.359.337h-2.359a7.412,7.412,0,0,0-.505-2.19h2.864c.505,0,.674-.168.674-.505V98.821Zm8.592-2.022v-2.7h-8.255a21.305,21.305,0,0,1-.168,2.7Zm0-4.717V89.892h-8.086v2.527Z" transform="translate(-143.844 -87.697)" fill="#fff"/>
        </g>
        <path id="パス_219700" data-name="パス 219700" d="M0,0H72.609V44.88H0Z" transform="translate(303.915 134.605)" fill="#535557"/>
        <g id="グループ_82355" data-name="グループ 82355" transform="translate(325.31 147.742)">
          <path id="パス_141015" data-name="パス 141015" d="M200.681,95.513c2.022,1.179,2.864,2.19,2.864,3.875s-2.022,4.38-5.391,4.38-5.054-1.179-5.054-3.875a4.549,4.549,0,0,1,2.864-4.043,3.875,3.875,0,0,1-2.527-3.706c0-2.19,1.685-4.043,4.886-4.043s4.549,1.348,4.549,3.538a4.043,4.043,0,0,1-2.19,3.875Zm-2.864,1.348c-1.516,1.011-2.022,1.685-2.022,2.7a2.221,2.221,0,0,0,2.527,2.19c1.853,0,2.527-1.179,2.527-2.022s-.337-1.685-2.864-3.032Zm1.011-2.19c1.348-.842,1.685-1.516,1.685-2.527a1.967,1.967,0,0,0-2.19-1.853,1.853,1.853,0,0,0-2.022,1.685c.168,1.011.674,1.685,2.7,2.7Z" transform="translate(-193.1 -87.422)" fill="#fff"/>
          <path id="パス_141016" data-name="パス 141016" d="M205.117,99.158a14.994,14.994,0,0,1-.505,2.359,11.119,11.119,0,0,1-2.359,3.875,7.581,7.581,0,0,0-1.853-1.853A7.413,7.413,0,0,0,202.59,100a31.5,31.5,0,0,0,.842-9.266,27.306,27.306,0,0,0-.169-3.037l12.8,0a19.206,19.206,0,0,0,0,2.19v12.8c0,1.011-.168,1.516-.674,1.853a4.212,4.212,0,0,1-2.359.337h-2.359a7.413,7.413,0,0,0-.505-2.19h2.864c.505,0,.674-.168.674-.505V98.821Zm8.592-2.022v-2.7h-8.255a21.3,21.3,0,0,1-.168,2.7Zm0-4.717V89.892h-8.086v2.527Z" transform="translate(-188.102 -87.697)" fill="#fff"/>
        </g>
        <rect id="長方形_12270" data-name="長方形 12270" width="72.609" height="44.88" transform="translate(379.894 134.605)" fill="#535557"/>
        <g id="グループ_82356" data-name="グループ 82356" transform="translate(401.445 147.741)">
          <path id="パス_141017" data-name="パス 141017" d="M239.485,102.593a11.119,11.119,0,0,0,5.9-5.222,5.223,5.223,0,0,1-2.7.674,4.38,4.38,0,0,1-4.38-4.717,4.886,4.886,0,0,1,5.222-5.222c3.2,0,5.054,2.19,5.054,5.9s-2.7,8.086-7.75,10.277Zm6.4-7.581V94c0-.337-.842-3.706-2.527-3.706a2.359,2.359,0,0,0-2.359,2.7,2.527,2.527,0,0,0,2.527,2.7A3.538,3.538,0,0,0,245.886,95.012Z" transform="translate(-238.292 -87.427)" fill="#fff"/>
          <path id="パス_141018" data-name="パス 141018" d="M250.217,99.158a14.991,14.991,0,0,1-.505,2.359,11.119,11.119,0,0,1-2.358,3.875,7.581,7.581,0,0,0-1.853-1.853A7.412,7.412,0,0,0,247.69,100a31.5,31.5,0,0,0,.842-9.266,27.3,27.3,0,0,0-.169-3.037l12.8,0a19.206,19.206,0,0,0,0,2.19v12.8c0,1.011-.168,1.516-.674,1.853a4.212,4.212,0,0,1-2.359.337h-2.359a7.413,7.413,0,0,0-.505-2.19h2.864c.505,0,.674-.168.674-.505V98.821Zm8.592-2.022v-2.7h-8.255a21.3,21.3,0,0,1-.168,2.7Zm0-4.717V89.892h-8.086v2.527Z" transform="translate(-233.357 -87.697)" fill="#fff"/>
        </g>
        <rect id="長方形_12271" data-name="長方形 12271" width="72.609" height="44.88" transform="translate(455.873 134.605)" fill="#dee2e5" stroke="#535557" stroke-width="1.685"/>
        <g id="グループ_82357" data-name="グループ 82357" transform="translate(472.045 147.742)">
          <path id="パス_141019" data-name="パス 141019" d="M283.906,103.531V91.064L280.2,92.243V89.716l4.549-1.516H286.6v15.331Z" transform="translate(-280.2 -87.353)" fill="#333"/>
          <path id="パス_141020" data-name="パス 141020" d="M287.1,95.949c0-5.222,1.516-7.749,5.222-7.749s5.223,2.7,5.223,7.749-1.516,7.749-5.223,7.749S287.1,101.172,287.1,95.949Zm7.581,0c0-3.875-.674-5.559-2.527-5.559s-2.527,1.685-2.527,5.559.674,5.559,2.527,5.559S294.681,99.824,294.681,95.949Z" transform="translate(-275.476 -87.353)" fill="#333"/>
          <path id="パス_141021" data-name="パス 141021" d="M298.917,99.158a14.809,14.809,0,0,1-.505,2.359,11.118,11.118,0,0,1-2.359,3.875,7.58,7.58,0,0,0-1.853-1.853A7.412,7.412,0,0,0,296.39,100a31.5,31.5,0,0,0,.842-9.266,27.317,27.317,0,0,0-.169-3.037l12.8,0a19.178,19.178,0,0,0,0,2.19v12.8c0,1.011-.168,1.516-.674,1.853a4.212,4.212,0,0,1-2.359.337h-2.359a7.413,7.413,0,0,0-.505-2.19h2.864c.505,0,.674-.168.674-.505V98.821Zm8.592-2.022v-2.7h-8.255a21.307,21.307,0,0,1-.168,2.7Zm0-4.717V89.892h-8.086v2.527Z" transform="translate(-270.615 -87.697)" fill="#333"/>
        </g>
        <rect id="長方形_12272" data-name="長方形 12272" width="72.609" height="44.88" transform="translate(531.851 134.605)" fill="#dee2e5" stroke="#535557" stroke-width="1.685"/>
        <g id="グループ_82358" data-name="グループ 82358" transform="translate(548.024 147.746)">
          <path id="パス_141022" data-name="パス 141022" d="M329.006,103.531V91.064L325.3,92.243V89.716l4.549-1.516H331.7v15.331Z" transform="translate(-325.3 -87.358)" fill="#333"/>
          <path id="パス_141023" data-name="パス 141023" d="M336.306,103.531V91.064L332.6,92.243V89.716l4.549-1.516H339v15.331Z" transform="translate(-320.302 -87.358)" fill="#333"/>
          <path id="パス_141024" data-name="パス 141024" d="M344.017,99.156a14.816,14.816,0,0,1-.505,2.359,11.12,11.12,0,0,1-2.359,3.875,7.582,7.582,0,0,0-1.853-1.853A7.412,7.412,0,0,0,341.49,100a31.505,31.505,0,0,0,.842-9.266,27.441,27.441,0,0,0-.168-3.028l12.8,0a19.164,19.164,0,0,0,0,2.19v12.8c0,1.011-.169,1.516-.674,1.853a4.211,4.211,0,0,1-2.358.337h-2.359a7.414,7.414,0,0,0-.505-2.19h2.864c.505,0,.674-.168.674-.505V98.819Zm8.592-2.022v-2.7h-8.255a21.3,21.3,0,0,1-.169,2.7Zm0-4.717V89.89h-8.086v2.527Z" transform="translate(-315.715 -87.7)" fill="#333"/>
        </g>
        <rect id="長方形_12273" data-name="長方形 12273" width="72.609" height="44.88" transform="translate(607.83 134.605)" fill="#dee2e5" stroke="#535557" stroke-width="1.685"/>
        <g id="グループ_82359" data-name="グループ 82359" transform="translate(624.003 147.746)">
          <path id="パス_141025" data-name="パス 141025" d="M374.106,103.531V91.064L370.4,92.243V89.716l4.549-1.516H376.8v15.331Z" transform="translate(-370.4 -87.358)" fill="#333"/>
          <path id="パス_141026" data-name="パス 141026" d="M377.4,103.6v-2.864c4.38-3.875,6.739-5.559,6.739-7.918s-1.011-2.359-2.527-2.359a8.255,8.255,0,0,0-3.369.842V88.943a9.434,9.434,0,0,1,4.043-.842c3.032,0,4.717,1.685,4.717,4.212s-.674,4.043-6.739,8.929h7.076V103.6Z" transform="translate(-365.607 -87.427)" fill="#333"/>
          <path id="パス_141027" data-name="パス 141027" d="M389.117,99.156a14.83,14.83,0,0,1-.505,2.359,11.119,11.119,0,0,1-2.359,3.875,7.581,7.581,0,0,0-1.853-1.853A7.413,7.413,0,0,0,386.59,100a31.5,31.5,0,0,0,.842-9.266,27.447,27.447,0,0,0-.168-3.028l12.8,0a19.206,19.206,0,0,0,0,2.19v12.8c0,1.011-.168,1.516-.674,1.853a4.212,4.212,0,0,1-2.359.337h-2.359a7.417,7.417,0,0,0-.505-2.19h2.864c.505,0,.674-.168.674-.505V98.819Zm8.592-2.022v-2.7h-8.255a21.3,21.3,0,0,1-.169,2.7Zm0-4.717V89.89h-8.086v2.527Z" transform="translate(-360.815 -87.7)" fill="#333"/>
        </g>
        <rect id="長方形_12274" data-name="長方形 12274" width="72.609" height="44.88" transform="translate(683.809 134.605)" fill="#535557"/>
        <g id="グループ_82360" data-name="グループ 82360" transform="translate(706.215 147.746)">
          <path id="パス_141028" data-name="パス 141028" d="M422.906,103.531V91.064L419.2,92.243V89.716l4.549-1.516H425.6v15.331Z" transform="translate(-419.2 -87.358)" fill="#fff"/>
          <path id="パス_141029" data-name="パス 141029" d="M430.617,99.156a14.837,14.837,0,0,1-.505,2.359,11.117,11.117,0,0,1-2.359,3.875,7.58,7.58,0,0,0-1.853-1.853A7.413,7.413,0,0,0,428.09,100a31.5,31.5,0,0,0,.842-9.266,27.451,27.451,0,0,0-.168-3.028l12.8,0a19.213,19.213,0,0,0,0,2.19v12.8c0,1.011-.168,1.516-.674,1.853a4.211,4.211,0,0,1-2.358.337h-2.359a7.411,7.411,0,0,0-.505-2.19h2.864c.505,0,.674-.168.674-.505V98.819Zm8.592-2.022v-2.7h-8.255a21.3,21.3,0,0,1-.169,2.7Zm0-4.717V89.89h-8.086v2.527Z" transform="translate(-414.613 -87.7)" fill="#fff"/>
        </g>
        <rect id="長方形_12275" data-name="長方形 12275" width="72.609" height="44.88" transform="translate(759.619 134.605)" fill="#535557"/>
        <g id="グループ_82361" data-name="グループ 82361" transform="translate(781.688 147.746)">
          <path id="パス_141030" data-name="パス 141030" d="M464,103.6v-2.864c4.38-3.875,6.739-5.559,6.739-7.918s-1.011-2.359-2.527-2.359a8.255,8.255,0,0,0-3.369.842V88.943a9.435,9.435,0,0,1,4.043-.842c3.032,0,4.717,1.685,4.717,4.212s-.674,4.043-6.739,8.929h7.076V103.6Z" transform="translate(-464 -87.427)" fill="#fff"/>
          <path id="パス_141031" data-name="パス 141031" d="M475.617,99.156a14.824,14.824,0,0,1-.505,2.359,11.119,11.119,0,0,1-2.359,3.875,7.581,7.581,0,0,0-1.853-1.853A7.413,7.413,0,0,0,473.09,100a31.5,31.5,0,0,0,.842-9.266,27.434,27.434,0,0,0-.168-3.028l12.8,0a19.206,19.206,0,0,0,0,2.19v12.8c0,1.011-.168,1.516-.674,1.853a4.212,4.212,0,0,1-2.359.337h-2.359a7.411,7.411,0,0,0-.505-2.19h2.864c.505,0,.674-.168.674-.505V98.819Zm8.592-2.022v-2.7h-8.086a21.3,21.3,0,0,1-.169,2.7Zm0-4.717V89.89h-8.086v2.527Z" transform="translate(-459.276 -87.7)" fill="#fff"/>
        </g>
        <rect id="長方形_12276" data-name="長方形 12276" width="72.609" height="44.88" transform="translate(835.598 134.605)" fill="#535557"/>
        <g id="グループ_82362" data-name="グループ 82362" transform="translate(857.667 147.746)">
          <path id="パス_141032" data-name="パス 141032" d="M509.1,101.073a10.952,10.952,0,0,0,3.032.505c2.527,0,3.538-1.011,3.538-2.359s-1.011-2.19-3.033-2.19h-2.19l.505-2.19h1.011c2.527,0,3.538-1.011,3.538-2.359s-1.179-2.022-2.7-2.022a9.1,9.1,0,0,0-3.2.674V88.774a11.455,11.455,0,0,1,4.043-.674c3.2,0,4.549,1.516,4.549,3.875a3.875,3.875,0,0,1-2.527,3.538,3.538,3.538,0,0,1,3.032,3.538c0,2.527-2.022,4.717-5.9,4.717a10.95,10.95,0,0,1-3.369-.505Z" transform="translate(-509.1 -87.427)" fill="#fff"/>
          <path id="パス_141033" data-name="パス 141033" d="M520.717,99.156a15,15,0,0,1-.505,2.359,11.118,11.118,0,0,1-2.358,3.875A7.582,7.582,0,0,0,516,103.536,7.412,7.412,0,0,0,518.19,100a31.5,31.5,0,0,0,.842-9.266,26.933,26.933,0,0,0-.168-3.032h12.8a19.22,19.22,0,0,0,0,2.19v12.8c0,1.011-.168,1.516-.674,1.853a4.212,4.212,0,0,1-2.359.337h-2.359a7.412,7.412,0,0,0-.505-2.19h2.864c.505,0,.674-.168.674-.505V98.819Zm8.592-2.022v-2.7h-8.255a21.307,21.307,0,0,1-.168,2.7Zm0-4.717V89.89h-8.086v2.527Z" transform="translate(-504.376 -87.7)" fill="#fff"/>
        </g>
        <line id="線_3907" data-name="線 3907" y1="101.08" transform="translate(85.918 33.525)" fill="none" stroke="#333" stroke-miterlimit="10" stroke-width="1.685"/>
        <rect id="長方形_12277" data-name="長方形 12277" width="100.407" height="34.536" rx="17.184" transform="translate(36.22)" fill="#002060"/>
        <g id="グループ_82363" data-name="グループ 82363" transform="translate(53.91 9.771)">
          <path id="パス_141034" data-name="パス 141034" d="M33.011,10.112l3.032,2.022-1.011,1.516A15.836,15.836,0,0,0,32,11.459Zm2.864,5.559a24.934,24.934,0,0,1-1.853,4.38l-.505.842L32,19.546a14.657,14.657,0,0,0,2.359-4.886Zm-2.19-9.6a13.477,13.477,0,0,1,2.864,2.19L35.369,9.775a12.466,12.466,0,0,0-2.864-2.359Zm8.592,8.592a8.76,8.76,0,0,0,5.054,4.549,6.233,6.233,0,0,0-1.011,1.853A10.782,10.782,0,0,1,41.1,15.84a8.929,8.929,0,0,1-4.717,5.391A5.559,5.559,0,0,0,35.2,19.546a6.739,6.739,0,0,0,4.549-4.886H36.38V12.807h3.706a15.414,15.414,0,0,0,.168-2.864h-3.2V8.259h3.032V7.416A7.412,7.412,0,0,0,39.918,5.9H41.94a9.1,9.1,0,0,0-.168,1.516v.842h4.043a8.592,8.592,0,0,0,0,1.348v3.2h1.348v2.022H42.108Zm1.853-1.685V10.112H41.94a13.673,13.673,0,0,1-.168,2.864Z" transform="translate(-32 -5.732)" fill="#fff"/>
          <path id="パス_141035" data-name="パス 141035" d="M45.032,8.5a10.951,10.951,0,0,1-1.853,2.022L42,9.169a8.255,8.255,0,0,0,1.685-1.853A4.549,4.549,0,0,0,44.527,5.8l1.685.505-.505.842h3.706V8.5a7.076,7.076,0,0,0,1.516-2.527l1.685.505-.337.842h4.886V9H54.13l.674,1.011-1.011.337h1.516v4.886a13.648,13.648,0,0,0,0,1.685h-2.19v.674h4.043v1.685H53.119v1.179a8.086,8.086,0,0,0,.168,1.516H51.266a8.759,8.759,0,0,0,.168-1.516V19.277H48.065a3.538,3.538,0,0,1-1.516,1.853,7.918,7.918,0,0,1-2.7.842l-1.011-1.516,2.022-.337a2.527,2.527,0,0,0,1.516-1.011H42.337V17.424h4.38V16.75H44.19a12.974,12.974,0,0,0,0-1.685V9.843h2.19L45.706,8.5Zm1.011,3.2h7.581v-.674H46.043Zm0,1.685h7.581v-.505H46.043Zm0,1.685h7.581V14.56H46.043Zm1.516-6.739.674,1.011-1.179.337h3.032l-1.179-.842.505-.505Zm3.875,8.592v-.674H48.4a4.888,4.888,0,0,1,0,.674Zm1.853-7.244-.842-1.348H51.434L50.255,9.675Z" transform="translate(-25.153 -5.8)" fill="#fff"/>
          <path id="パス_141036" data-name="パス 141036" d="M55.775,12.1l-2.864,1.516L51.9,12.1l3.2-1.516a11.961,11.961,0,0,0-2.359-2.19L54.09,7.379l.505.505V6.2h5.9A4.043,4.043,0,0,0,61.5,8.053l1.011-1.011.337-.505h.168l1.516.842-.674.674L62.682,9.232l1.011.842a9.434,9.434,0,0,0,1.685-2.022l1.516.842-.505.505-1.516,1.516,2.7,1.179a6.739,6.739,0,0,0-.842,1.685L63.861,12.1v.674H62.345v1.853h4.38v1.685h-4.38v2.527c0,.337,0,.337.337.505h1.011A2.425,2.425,0,0,0,65.209,19a3.706,3.706,0,0,0,.337-1.685l1.685.337c-.337,2.864-.674,3.032-3.875,3.032s-2.864-.168-2.864-1.348v-3.2H58.47A5.9,5.9,0,0,1,57.459,18.5a7.75,7.75,0,0,1-3.875,2.527,5.9,5.9,0,0,0-1.179-1.685,7.076,7.076,0,0,0,3.032-1.516,3.875,3.875,0,0,0,1.179-1.853H52.742V14.286h4.043V12.433H55.775Zm-.168-4.212H54.6L56.28,9.569l1.685-1.685Zm6.57,3.369h.337A14.151,14.151,0,0,1,59.65,8.222a13.309,13.309,0,0,1-2.7,3.032Zm-3.538,3.032v.337h1.853V12.77H58.639Z" transform="translate(-18.375 -5.526)" fill="#fff"/>
          <path id="パス_141037" data-name="パス 141037" d="M69.481,13.986,68.3,15.166v3.369l3.369-.842v1.685l-3.538.842-2.022.337H64.6L64.259,18.7h2.19V16.682l-3.538,1.853A7.75,7.75,0,0,0,61.9,16.85a12.8,12.8,0,0,0,5.222-2.7H62.068V12.47h6.4V11.459H63.416V9.775H68.47V8.932H62.911V7.248h5.728A9.266,9.266,0,0,0,68.47,5.9h2.022a6.065,6.065,0,0,0-.168,1.348h6.065V8.932h-5.9V9.943h5.222v1.685H70.492v1.011h6.739v1.685H71.5a8.424,8.424,0,0,0,1.348,2.022A10.277,10.277,0,0,0,74.7,14.492L76.388,15.5l-.337.337L74.03,17.524a11.961,11.961,0,0,0,3.538,1.853,6.4,6.4,0,0,0-1.179,1.853A12.3,12.3,0,0,1,71.5,17.693a13.477,13.477,0,0,1-1.853-3.369Z" transform="translate(-11.528 -5.732)" fill="#fff"/>
        </g>
        <line id="線_3908" data-name="線 3908" y1="37.063" transform="translate(204.688 97.543)" fill="none" stroke="#333" stroke-miterlimit="10" stroke-width="1.685"/>
        <rect id="長方形_12278" data-name="長方形 12278" width="152.8" height="34.536" rx="17.184" transform="translate(128.372 62.67)" fill="#002060"/>
        <g id="グループ_82364" data-name="グループ 82364" transform="translate(145.387 72.104)">
          <path id="パス_141038" data-name="パス 141038" d="M89.838,50.718,87.479,52.74A4.886,4.886,0,0,0,86.3,51.223a15.162,15.162,0,0,0,2.864-2.19,11.287,11.287,0,0,0,2.022-2.527h-4.38V44.653h5.054a7.075,7.075,0,0,0,.505-1.853h2.022l-.337.842v.674H101.8v2.19h-8.76L92.2,47.854h7.413q-.046.926,0,1.853v6.907a1.348,1.348,0,0,1-.674,1.348l-1.853.337H95.566a5.559,5.559,0,0,0-.337-1.685h1.853c.674,0,.842,0,.842-.505V54.93H91.691v1.348a18.018,18.018,0,0,0,0,2.022H89.838a18.369,18.369,0,0,0,.168-2.022Zm7.918-1.348H91.691v1.179h6.233Zm-6.233,2.7v1.179h6.233V52.066Z" transform="translate(-86.3 -42.8)" fill="#fff"/>
          <path id="パス_141039" data-name="パス 141039" d="M97.985,51.392V49.539l-1.011,1.685A8.93,8.93,0,0,0,96.3,49.2a12.635,12.635,0,0,0,2.527-4.212A10.276,10.276,0,0,0,99.5,42.8l1.853.674-.337.842-1.011,2.7v9.266q-.046.926,0,1.853h-2.19a16.84,16.84,0,0,0,.168-1.853Zm11.961-3.706h1.516a13.307,13.307,0,0,0,0,1.516v6.907a19.2,19.2,0,0,0,.168,2.022h-1.853v-.842h-7.244v.842H100.68c0-.505.168-1.179.168-1.853V49.37q.038-.758,0-1.516h3.032V45.5h-2.864V43.811H111.8v1.853h-3.706v2.19ZM102.533,49.2v6.233h1.348V49.37Zm4.212-3.706H105.4v2.19h1.348ZM105.4,55.6h1.348V49.37H105.4Zm2.864,0h1.348V49.37h-1.348Z" transform="translate(-79.453 -42.8)" fill="#fff"/>
          <path id="パス_141040" data-name="パス 141040" d="M106.5,45.459h6.065v1.685H106.5Zm.505,12.467q.037-.758,0-1.516V53.882a9.941,9.941,0,0,0,0-1.348h5.054v5.222h-1.516v-.505H108.69v.842Zm0-14.825h5.222v1.516h-5.222Zm0,4.886h5.054V49.5h-5.054Zm0,2.359h5.054V51.86h-5.054Zm1.516,5.559h1.853V54.219h-1.853Zm8.086-10.613H112.9V43.437h8.76V45.29h-3.2v4.043h3.032v1.853h-3.032v4.886h3.369v1.853h-9.266V55.567h1.011V49.333a13.816,13.816,0,0,0,0-1.853h1.853a10.276,10.276,0,0,0-.168,1.853v6.4h1.516Z" transform="translate(-72.47 -42.595)" fill="#fff"/>
          <path id="パス_141041" data-name="パス 141041" d="M121.117,48.7l.842-1.516h-4.212V45.5h2.022l-1.179-1.853,1.685-.505,1.348,2.359h.842a12.8,12.8,0,0,0,.505-2.7h2.022v.842l-.505,1.685h1.685a10.782,10.782,0,0,0,1.516-2.359l1.853.505-1.348,1.853h2.7v1.685h-4.212l.842,1.516h4.38v1.685h-3.2a9.6,9.6,0,0,0,3.538,2.19,5.391,5.391,0,0,0-1.011,1.685L128.7,52.4a16.174,16.174,0,0,1-.505,4.38c-.337.842-.842,1.011-2.359,1.011H124.15a5.054,5.054,0,0,0-.337-1.685h1.853c.505,0,.674-.168.674-.337a11.286,11.286,0,0,0,.337-2.7h-2.7a5.391,5.391,0,0,1-1.348,2.864,7.581,7.581,0,0,1-3.875,2.19,4.548,4.548,0,0,0-1.011-1.685l2.022-.674a4.212,4.212,0,0,0,2.022-1.685,2.7,2.7,0,0,0,.337-1.011h-2.19v-.842l-2.359,1.685A3.706,3.706,0,0,0,116.4,52.4a10.108,10.108,0,0,0,3.538-2.359h-3.032V48.359h4.38Zm.842,1.516L120.78,51.56h6.739l-1.179-1.348Zm3.369-1.516-.674-1.516h-.842l-.674,1.516Z" transform="translate(-65.691 -42.8)" fill="#fff"/>
          <path id="パス_141042" data-name="パス 141042" d="M132.4,47.349h1.348v1.685H132.9a10.448,10.448,0,0,1-.505,1.853h1.516v1.685h-2.7v1.348h2.527V55.6h-2.527v2.7h-1.853V55.435h-2.527V53.75h2.527V52.4H126.5V50.718h1.685a12.133,12.133,0,0,0-.337-1.853h-1.179V47.18h2.864V46h-2.527V44.316h2.527v-.337a7.922,7.922,0,0,0,0-1.179h1.853a6.908,6.908,0,0,0,0,1.179v.337h2.359V46h-2.359V47.18Zm-1.516,3.369a10.781,10.781,0,0,0,.505-1.853h-2.022a14.149,14.149,0,0,1,.337,1.853Zm10.445-1.179v.674a18.53,18.53,0,0,1-1.348,4.043,8.255,8.255,0,0,0,2.19,1.853l-1.011,1.685-2.19-2.19a10.949,10.949,0,0,1-2.022,2.19l-.842-1.348a13.645,13.645,0,0,0,.168,1.516h-2.19a13.814,13.814,0,0,0,.168-2.022V43.474h7.076v1.011c-.168,3.032-.337,3.369-2.19,3.369H137.45a6.574,6.574,0,0,0-.337-1.516H138.8c.505,0,.674-.168.674-1.348h-3.538v3.538h4.717Zm-5.391,6.739a8.592,8.592,0,0,0,1.853-1.853,12.635,12.635,0,0,1-1.516-4.212h-.337Zm1.685-6.065a9.1,9.1,0,0,0,1.011,2.7,11.454,11.454,0,0,0,.842-2.7Z" transform="translate(-58.776 -42.8)" fill="#fff"/>
          <path id="パス_141043" data-name="パス 141043" d="M140.206,46.638a10.446,10.446,0,0,1-1.853,2.022l-1.348-1.179a8.255,8.255,0,0,0,2.527-3.032l.505-1.348,1.853.505-.674,1.516h2.19v-.505a7.752,7.752,0,0,0-.168-1.516h2.022a9.773,9.773,0,0,0-.168,1.516v.505h5.054v1.853h-5.054V49h6.233v1.853H136.5v-2.19h6.57V46.638ZM138.69,58.094a13.817,13.817,0,0,0,.168-1.853v-3.2a11.963,11.963,0,0,0,0-1.516h11.119a11.8,11.8,0,0,0,0,1.516v3.032a12.637,12.637,0,0,0,.169,1.853h-1.853v-.674H140.88v.674Zm1.853-2.359h7.413V53.208h-7.413Z" transform="translate(-51.929 -42.595)" fill="#fff"/>
          <path id="パス_141044" data-name="パス 141044" d="M153.139,45.159h-5.054V43.642h5.054a4.72,4.72,0,0,0-.168-.842h1.853a4.214,4.214,0,0,0-.168.842h5.054a12.136,12.136,0,0,0,0,1.348V45.5h1.685v1.348h-1.685v.674a9.432,9.432,0,0,0,0,1.179h-5.054V49.2h5.559v1.348h-5.559v.505h6.739v1.516H146.4V51.055h6.57v-.505h-5.391V49.2h5.391V48.7h-5.054V47.349h5.054v-.505H146.4V45.327h6.57Zm-4.549,9.266a15.843,15.843,0,0,0,0-1.685h11.287a11.455,11.455,0,0,0,0,1.685v2.19a9.938,9.938,0,0,0,.169,1.685h-1.853v-.505h-7.581V58.3h-1.853a14.837,14.837,0,0,0,0-1.685Zm1.685.168h7.581v-.505h-7.581Zm0,1.685h7.581V55.6h-7.581Zm8.086-11.287h-3.369V45.5h3.369Zm-3.369,1.853v.505h3.369v-.505Z" transform="translate(-45.151 -42.8)" fill="#fff"/>
        </g>
        <line id="線_3909" data-name="線 3909" y1="37.063" transform="translate(204.688 180.092)" fill="none" stroke="#333" stroke-miterlimit="10" stroke-width="1.685"/>
        <path id="パス_141132" data-name="パス 141132" d="M17.184,0H120.117A17.184,17.184,0,0,1,137.3,17.184v.168a17.184,17.184,0,0,1-17.184,17.184H17.184A17.184,17.184,0,0,1,0,17.352v-.168A17.184,17.184,0,0,1,17.184,0Z" transform="translate(102.765 216.649)" fill="#0770c3"/>
        <g id="グループ_82365" data-name="グループ 82365" transform="translate(120.623 226.083)">
          <path id="パス_141045" data-name="パス 141045" d="M78.339,140.633H74.127v-1.685h9.6v1.685H80.023v2.022H84.74v1.685H80.023V147.2h6.4a5.728,5.728,0,0,0-.505,1.853H82.55c-3.875,0-6.065-.842-7.413-2.864a10.95,10.95,0,0,1-2.19,3.2,4.717,4.717,0,0,0-1.348-1.348,10.277,10.277,0,0,0,3.2-6.4l1.853.337v1.011l-.337,1.516a4.886,4.886,0,0,0,2.527,2.359ZM78,135.411a5.221,5.221,0,0,0-.168-1.011h2.022a5.055,5.055,0,0,0,0,1.011v.674h6.233a9.1,9.1,0,0,0,0,1.179v1.348a10.445,10.445,0,0,0,0,1.348H84.4v-2.022H73.79v2.022H71.937a9.608,9.608,0,0,0,0-1.348V137.1a9.43,9.43,0,0,0,0-1.179H78Z" transform="translate(-71.6 -134.063)" fill="#fff"/>
          <path id="パス_141046" data-name="パス 141046" d="M81.9,136.927a15.163,15.163,0,0,0,0-1.685h4.886v12.8H85.1V147.2H83.585v1.348H81.9a14.828,14.828,0,0,0,.168-2.022Zm1.685,3.369H85.1v-3.369H83.585Zm0,5.223H85.1v-3.706H83.585Zm5.728-7.749H87.628v-1.685h3.2v-.505a7.244,7.244,0,0,0-.168-1.179h1.853a6.572,6.572,0,0,0,0,1.179v.505h3.538v1.685H92.345v1.516h4.043v1.685H94.535v1.348h1.853v1.853H94.535v3.706c0,1.011-.168,1.348-.674,1.516l-1.853.337H90.66a4.211,4.211,0,0,0-.337-1.685h1.853c.505,0,.674,0,.674-.505v-3.706H87.122v-1.685H92.85V140.8H87.122v-1.685H90.66V137.6Zm.674,9.94a13.31,13.31,0,0,0-2.022-2.7l1.348-.842A13.477,13.477,0,0,1,91.5,146.7Z" transform="translate(-64.548 -134.063)" fill="#fff"/>
          <path id="パス_141047" data-name="パス 141047" d="M102.45,140.939h4.212v1.853h-3.706A11.118,11.118,0,0,0,107,146.835a4.212,4.212,0,0,0-1.179,1.685l-1.853-1.685a11.794,11.794,0,0,1-1.685-2.527v3.706a15.158,15.158,0,0,0,0,1.853H100.6a15.669,15.669,0,0,0,.168-1.853v-3.706a11.624,11.624,0,0,1-3.875,4.212L95.88,147a10.95,10.95,0,0,0,4.212-4.38H97.059v-.674a5.223,5.223,0,0,0-.674,1.348,8.76,8.76,0,0,1-1.011-2.022c0,.505,0,1.516,0,2.19v4.212a16.509,16.509,0,0,0,0,2.022H93.69a13.142,13.142,0,0,0,.168-2.022V144.14a12.086,12.086,0,0,1,.168-2.19,13.814,13.814,0,0,1-1.685,3.875,6.4,6.4,0,0,0-.842-1.853,15.33,15.33,0,0,0,2.19-5.054H92.005v-1.685h1.853v-1.348a10.278,10.278,0,0,0-.168-1.685h1.853a11.117,11.117,0,0,0,0,1.685v1.348h1.348v1.685a10.614,10.614,0,0,0,1.179-4.043l1.685.505v1.685H101.1v-1.179a9.77,9.77,0,0,0-.168-1.516h1.516a9.435,9.435,0,0,0-.168,1.516v1.179h3.706v1.853H102.45Zm-3.538-2.022-.842,1.853-1.348-1.011.337-.337H95.88A10.951,10.951,0,0,0,97.4,141.95v-1.011h3.538v-2.022Z" transform="translate(-57.975 -134.2)" fill="#fff"/>
          <path id="パス_141048" data-name="パス 141048" d="M104.3,139.254h-2.022V137.4h13.477v1.853h-5.9v2.864h5.054v1.853h-5.054v3.369h6.57v2.022H101.6V147.34H108v-3.369h-4.886v-1.853H108v-2.864Zm3.032-5.054,4.212,1.685L110.36,137.4a20.048,20.048,0,0,0-4.38-1.853Z" transform="translate(-51.06 -134.2)" fill="#fff"/>
          <path id="パス_141049" data-name="パス 141049" d="M111.5,141.444h1.179l.842-1.011a17.184,17.184,0,0,0-2.022-2.527l.842-1.348.505.674a10.445,10.445,0,0,0,1.179-2.7l1.685.674-.337.505-1.516,2.7.505.674a13.309,13.309,0,0,0,1.516-2.864l1.516.842-.505.674h-.337a7.413,7.413,0,0,0,2.864-3.538l1.516.842h0v.337a10.613,10.613,0,0,1-3.032,3.706,3.875,3.875,0,0,0-1.179-1.348l-2.19,3.2h1.685l-.505-1.011,1.011-.505a13.477,13.477,0,0,1,1.179,3.2l-1.179.505v-.674h-1.179v5.222a11.293,11.293,0,0,0,.168,1.685h-1.853a12.471,12.471,0,0,0,.168-1.685v-5.054h-2.19Zm2.022,2.527a20.047,20.047,0,0,1-.674,4.886l-1.348-.674a14.826,14.826,0,0,0,.674-4.549Zm2.7,3.2a16,16,0,0,0-.505-3.2l1.179-.337a13.31,13.31,0,0,1,.505,2.7,8.086,8.086,0,0,0,.337-2.19l1.516.337a14.489,14.489,0,0,1-1.011,4.212l-1.516-.842.505-1.179Zm8.423-4.212-.674-1.348-3.032.337,2.359,1.853-1.179,1.179a8.929,8.929,0,0,0-2.527-2.022l1.011-.842-2.7.337V140.77h1.011l.842-1.516a12.8,12.8,0,0,0,1.011-2.359l1.685.505-.674,1.348-1.011,1.853h2.7l-1.011-1.516,1.348-.674a27.46,27.46,0,0,1,2.527,3.875Zm-3.369,1.179a7.585,7.585,0,0,0,0,1.011v2.527c0,.337,0,.337.842.337h.674c.168-.168.168-.505.168-1.685l1.516.505c-.168,2.7-.505,2.864-2.864,2.864l-1.685-.337a.99.99,0,0,1-.337-.842v-3.032a9.94,9.94,0,0,0,0-1.179Zm2.19-9.6a8.086,8.086,0,0,0,1.516,1.853l1.853,1.179a5.558,5.558,0,0,0-1.011,1.516,11.287,11.287,0,0,1-3.538-3.538l-.337-.337Zm1.685,9.266a19.879,19.879,0,0,1,1.685,4.212l-1.685.842a15.667,15.667,0,0,0-1.348-4.212Z" transform="translate(-44.282 -134.2)" fill="#fff"/>
          <path id="パス_141050" data-name="パス 141050" d="M125.006,139.791l-2.7,1.348-1.011-1.685a15.836,15.836,0,0,0,4.212-2.359,10.95,10.95,0,0,0,2.527-2.7h2.022a10.445,10.445,0,0,0,2.864,2.7,17.521,17.521,0,0,0,4.212,2.19,7.917,7.917,0,0,0-.842,1.853l-2.864-1.516v1.348h-8.423ZM124.164,144h-1.853v-1.853h14.151V144h-7.581a17.687,17.687,0,0,1-1.685,3.2l5.222-.337-1.685-1.853,1.685-.674a35.546,35.546,0,0,1,3.875,4.38l-1.516,1.011-1.011-1.348-3.032.337-5.559.505h-2.19l-.337-2.022h2.359a17.523,17.523,0,0,0,1.685-3.369Zm7.749-4.717h.674a13.477,13.477,0,0,1-3.369-3.2,13.982,13.982,0,0,1-3.369,3.2Z" transform="translate(-37.572 -134.063)" fill="#fff"/>
        </g>
        <line id="線_3910" data-name="線 3910" y1="101.08" transform="translate(645.567 179.755)" fill="none" stroke="#333" stroke-miterlimit="10" stroke-width="1.685"/>
        <path id="パス_219702" data-name="パス 219702" d="M17.184,0H84.739a17.184,17.184,0,0,1,17.184,17.184v.168A17.184,17.184,0,0,1,84.739,34.536H17.184A17.184,17.184,0,0,1,0,17.352v-.168A17.184,17.184,0,0,1,17.184,0Z" transform="translate(594.353 280.498)" fill="#0770c3"/>
        <g id="グループ_82366" data-name="グループ 82366" transform="translate(611.705 289.932)">
          <path id="パス_141051" data-name="パス 141051" d="M374.219,178.67h4.212v1.853h-3.706a11.119,11.119,0,0,0,4.043,4.043,4.212,4.212,0,0,0-1.179,1.685l-1.853-1.685a11.8,11.8,0,0,1-1.685-2.527v3.706a15.139,15.139,0,0,0,0,1.853H372.2a15.838,15.838,0,0,0,.168-1.853V182.04a11.625,11.625,0,0,1-3.875,4.212l-1.011-1.516a10.95,10.95,0,0,0,4.212-4.38h-2.864v-.674a5.054,5.054,0,0,0-.674,1.348,8.757,8.757,0,0,1-1.011-2.022c0,.505,0,1.516,0,2.19v4.212a16.5,16.5,0,0,0,0,2.022H365.29a13.144,13.144,0,0,0,.168-2.022V182.04a12.082,12.082,0,0,1,.169-2.19,13.816,13.816,0,0,1-1.685,3.875,6.4,6.4,0,0,0-.842-1.853,15.331,15.331,0,0,0,2.19-5.054h-1.685v-1.685h1.853v-1.348a10.275,10.275,0,0,0-.168-1.685h1.853a11.119,11.119,0,0,0,0,1.685v1.348h1.348v1.685a10.614,10.614,0,0,0,1.179-4.043l1.685.505v1.685H372.7v-1.179a9.935,9.935,0,0,0-.168-1.516h1.853a9.606,9.606,0,0,0,0,1.516v1.179h3.706v1.853h-3.706Zm-3.538-2.022-.842,1.853-1.348-1.011.337-.337h-1.179a10.947,10.947,0,0,0,1.516,2.527V178.67H372.7v-2.022Z" transform="translate(-363.1 -172.1)" fill="#fff"/>
          <path id="パス_141052" data-name="パス 141052" d="M376,177.154h-2.022V175.3h13.477v1.853h-5.9v2.864h5.054v1.853h-5.054v3.369h6.57v2.022H373.3V185.24h6.4v-3.369h-4.886v-1.853H379.7v-2.864Zm3.032-5.054,4.212,1.685L382.06,175.3a20.217,20.217,0,0,0-4.38-1.853Z" transform="translate(-356.116 -172.1)" fill="#fff"/>
          <path id="パス_141053" data-name="パス 141053" d="M383.337,178.365h3.706a15.669,15.669,0,0,0,0,1.853v3.538l.842.842.842.505,3.2.337a47.843,47.843,0,0,0,6.907-.337,11.115,11.115,0,0,0-.505,2.022h-6.57a12.971,12.971,0,0,1-3.706-.337,4.043,4.043,0,0,1-1.853-1.348h-.337l-1.853,1.516L383,185.272l2.19-1.516v-3.538h-1.853Zm1.348-6.065a19.544,19.544,0,0,1,2.864,3.032L386.2,176.68a16.007,16.007,0,0,0-2.864-3.032Zm6.57,3.369-1.348-.842,1.348-.674h-3.369v-1.685h9.1l.842,1.011-.842.674-2.19,1.516h3.032a17.032,17.032,0,0,0,0,1.853v5.054c0,1.011,0,1.179-.337,1.516s-.674.337-1.685.337h-.674a4.38,4.38,0,0,0-.337-1.516H395.8c.337,0,.337,0,.337-.505V181.9h-2.527v.674a12.626,12.626,0,0,0,0,1.853H391.76a12.464,12.464,0,0,0,.168-1.853V181.9h-2.19v.842a8.592,8.592,0,0,0,.169,1.853h-1.853a12.3,12.3,0,0,0,0-1.853v-5.222a18.221,18.221,0,0,0,0-1.853Zm-1.348,1.348v1.011h2.19v-1.011Zm0,3.538h2.19v-1.179h-2.19Zm1.348-6.57,1.685,1.179,1.685-1.179Zm2.359,4.043h2.527v-1.011h-2.527Zm2.527,1.348h-2.527v1.179h2.527Z" transform="translate(-349.475 -171.963)" fill="#fff"/>
          <path id="パス_141054" data-name="パス 141054" d="M396.706,185.509a17.524,17.524,0,0,0,0,1.853h-1.853a16.165,16.165,0,0,0,.168-1.853V178.77l-1.179,1.853A9.094,9.094,0,0,0,393,178.6a12.129,12.129,0,0,0,2.527-4.212,10.11,10.11,0,0,0,.674-2.19l1.853.674-.337,1.011a16.836,16.836,0,0,1-1.011,2.359Zm.842-10.445H408.5v1.685h-10.95Zm2.527,12.3h-1.853a12.629,12.629,0,0,0,0-1.516v-3.538h8.929a11.452,11.452,0,0,0,0,1.348v2.359a10.8,10.8,0,0,0,0,1.516H405.3v-.674h-5.391Zm7.244-8.423h-8.76v-1.516h8.76Zm0,2.359h-8.76v-1.516h8.76Zm0-7.076h-8.592v-1.516h8.592ZM405.635,185v-1.348h-5.391V185Z" transform="translate(-342.628 -172.032)" fill="#fff"/>
        </g>
        <line id="線_3911" data-name="線 3911" y1="37.063" transform="translate(903.827 180.092)" fill="none" stroke="#333" stroke-miterlimit="10" stroke-width="1.685"/>
        <path id="パス_219703" data-name="パス 219703" d="M17.184,0H202.329a17.184,17.184,0,0,1,17.184,17.184v.168a17.184,17.184,0,0,1-17.184,17.184H17.184A17.184,17.184,0,0,1,0,17.352v-.168A17.184,17.184,0,0,1,17.184,0Z" transform="translate(700.487 216.649)" fill="#0770c3"/>
        <g id="グループ_82367" data-name="グループ 82367" transform="translate(719.355 226.083)">
          <path id="パス_141055" data-name="パス 141055" d="M428.348,135.848a8.263,8.263,0,0,0,0-1.348H430.2a10.781,10.781,0,0,0,0,1.348v.337h2.359v-.337a9.952,9.952,0,0,0,0-1.348h1.853a8.079,8.079,0,0,0,0,1.348v.337h1.179v1.685h-1.179v6.4h1.011v1.685H427v-1.685h1.516v-6.4h-1.179v-1.685h1.179Zm2.359,10.782a10.614,10.614,0,0,1-2.527,3.032L427,148.314a7.413,7.413,0,0,0,2.359-2.527Zm1.685-7.749v-1.011h-2.359v1.011Zm0,2.527v-1.179h-2.359v1.179Zm0,2.7v-1.348h-2.359V144.1Zm.337,1.685a6.233,6.233,0,0,0,1.516,1.685l-1.179,1.179a10.108,10.108,0,0,1-1.685-2.022Zm4.38-1.516a8.93,8.93,0,0,1-1.853,5.222l-1.348-1.348a5.392,5.392,0,0,0,1.348-3.032,58.1,58.1,0,0,0,.337-8.086,16.349,16.349,0,0,0,0-2.19h6.065a15.164,15.164,0,0,0,0,1.853v10.95c0,.842-.168,1.348-.674,1.516h-2.7a7.747,7.747,0,0,0-.337-1.853h1.516c.505,0,.674,0,.674-.337v-3.032Zm.168-3.875v2.359H439.8V140.4Zm2.527-3.706h-2.527v2.19H439.8Z" transform="translate(-427 -133.995)" fill="#fff"/>
          <path id="パス_141056" data-name="パス 141056" d="M449.872,136.659h2.022v1.853h-6.4v2.022h5.728v1.685h-4.885a11.456,11.456,0,0,0,2.358,2.527,16.341,16.341,0,0,0,3.875,2.359,8.254,8.254,0,0,0-1.179,1.853,15.162,15.162,0,0,1-3.369-2.359,12.8,12.8,0,0,1-2.527-2.864v4.212a14,14,0,0,0,.169,1.685h-2.022a10.785,10.785,0,0,0,.169-1.685v-4.212a15.163,15.163,0,0,1-5.728,5.222l-1.179-1.685a14.489,14.489,0,0,0,5.9-5.054h-4.549v-1.853h5.391v-2.19h-6.065v-1.853h6.065v-.842a7.41,7.41,0,0,0-.168-1.179h2.022a5.559,5.559,0,0,0-.168,1.179v1.011Z" transform="translate(-420.222 -134.132)" fill="#fff"/>
          <path id="パス_141057" data-name="パス 141057" d="M448.953,136.353H447.1v-1.685h7.75v1.685h-2.19V137.7h1.853v9.771a17.524,17.524,0,0,0,0,1.853H453v-.674h-3.875v.842h-1.685a19.725,19.725,0,0,0,.168-2.19v-9.6h2.022v-1.348Zm.169,7.918H453v-1.348h-.505c-1.011,0-1.179-.168-1.179-.674v-3.2h-.505a16.169,16.169,0,0,1-.337,3.032,5.39,5.39,0,0,1-.674,1.685,4.042,4.042,0,0,0-.674-1.179Zm0-1.516a7.918,7.918,0,0,0,.674-3.706h-.674Zm0,4.212H453v-1.348h-3.875Zm1.685-9.266h.505v-1.348h-.505Zm1.516,3.706c0,.337,0,.337.674.337v-2.527h-.674Zm9.1-1.348a14.83,14.83,0,0,0,0,1.685h-4.38v5.391c0,.337,0,.337.168.505h1.179c1.179,0,1.516-.168,1.685-.505a9.1,9.1,0,0,0,.169-2.359l1.685.674c-.168,2.022-.337,2.864-.674,3.2s-1.179.674-3.032.674-3.032-.168-3.032-1.685v-6.065a13.964,13.964,0,0,0,0-1.685h4.38v-3.538h-4.212V134.5h6.233a15.527,15.527,0,0,0,0,1.685Z" transform="translate(-413.238 -133.995)" fill="#fff"/>
          <path id="パス_141058" data-name="パス 141058" d="M463.2,135.985a10.781,10.781,0,0,0-.168-1.685h2.022a10.286,10.286,0,0,0-.168,1.685v4.38h5.559a11.451,11.451,0,0,0,0,1.348v6.065a13.981,13.981,0,0,0,.168,1.853h-2.022v-.674H457.3V147.1h11.287v-1.685H457.805v-1.853h10.782v-1.516H457.3V140.2h5.728Zm-4.043-.842a20.217,20.217,0,0,1,2.527,4.043L460,140.2a18.359,18.359,0,0,0-2.527-4.043Zm11.624.674a20.048,20.048,0,0,1-2.527,4.212l-1.516-1.011a14.153,14.153,0,0,0,2.359-4.043Z" transform="translate(-406.254 -134.132)" fill="#fff"/>
          <path id="パス_141059" data-name="パス 141059" d="M479.335,142.892l-1.516,1.516-2.022,1.853a17.688,17.688,0,0,0,5.9,1.516,7.077,7.077,0,0,0-.842,1.853,18.532,18.532,0,0,1-4.38-1.011l-2.359-1.179a21.059,21.059,0,0,1-6.57,2.19,7.415,7.415,0,0,0-.842-1.685,19.038,19.038,0,0,0,5.9-1.516,12.468,12.468,0,0,1-2.7-3.032h-.842v-1.685h9.1Zm-11.287-5.728a8.763,8.763,0,0,0-.674-1.685h1.348l7.413-.505,3.369-.674,1.179,1.516h-.674l-2.022.337,1.516.505-1.011,1.853h2.864v2.527a8.422,8.422,0,0,0,0,1.179H479.5v-1.685H468.722v2.19h-1.853a9.786,9.786,0,0,0,0-1.348v-2.527h2.864l-.674-1.685Zm5.559,1.685L472.933,137H471.08l.674,1.853Zm-1.516,4.38a7.413,7.413,0,0,0,2.19,2.19,10.277,10.277,0,0,0,2.527-2.19Zm4.717-4.38a15,15,0,0,0,1.011-2.359h-3.032a14.48,14.48,0,0,1,.674,2.022Z" transform="translate(-399.818 -134.132)" fill="#fff"/>
          <path id="パス_141060" data-name="パス 141060" d="M478.253,138.98l-1.179,1.011a4.714,4.714,0,0,0-.674-1.516,7.918,7.918,0,0,0,2.022-1.853A7.245,7.245,0,0,0,479.6,134.6h1.853a7.075,7.075,0,0,0,1.179,1.853,5.222,5.222,0,0,0,1.516,1.348,5.221,5.221,0,0,0-.842,1.685l-.674-.505v1.348h-4.38Zm-.168,3.706h-1.348V141h6.57v4.717c0,1.348-.505,1.685-2.022,1.685h-.337a3.875,3.875,0,0,0-.337-1.685h.842c.337,0,.337,0,.337-.168v-2.864h-1.348v4.886a10.109,10.109,0,0,0,0,1.685H478.59a11.3,11.3,0,0,0,.169-1.685v-4.886Zm3.2-4.212H482.3a10.274,10.274,0,0,1-1.853-2.7,9.433,9.433,0,0,1-1.853,2.7Zm5.559,8.592a9.772,9.772,0,0,1-3.538,2.359,4.548,4.548,0,0,0-1.011-1.348,8.086,8.086,0,0,0,2.359-1.179l.842-.674H484.15v-8.76h2.19l.505-1.179h-3.2V134.6h8.086v1.685h-3.2l-.505,1.179h3.032v8.76H489.2a8.086,8.086,0,0,0,3.032,2.022l-1.011,1.516a9.771,9.771,0,0,1-3.2-2.359l1.179-1.011h-3.369Zm-1.179-7.244h3.706v-1.011h-3.538Zm0,2.359h3.706V141.17h-3.538Zm0,2.359h3.706V143.7h-3.538Z" transform="translate(-393.177 -133.926)" fill="#fff"/>
          <path id="パス_141061" data-name="パス 141061" d="M497.55,140.939h4.212v1.853h-3.706a11.118,11.118,0,0,0,4.043,4.043,4.21,4.21,0,0,0-1.179,1.685l-1.853-1.685a11.962,11.962,0,0,1-1.685-2.527c0,.505,0,1.179,0,1.685v2.022a15,15,0,0,0,.168,1.853H495.7a15.5,15.5,0,0,0,.168-1.853v-3.706a11.623,11.623,0,0,1-3.875,4.212L490.98,147a10.949,10.949,0,0,0,4.212-4.38h-2.864v-.674a5.226,5.226,0,0,0-.674,1.348,8.76,8.76,0,0,1-1.011-2.022v6.4a16.848,16.848,0,0,0,0,2.022H488.79a13.148,13.148,0,0,0,.168-2.022V144.14a12.082,12.082,0,0,1,.169-2.19,13.984,13.984,0,0,1-1.685,3.875,6.4,6.4,0,0,0-.842-1.853,15.333,15.333,0,0,0,2.19-5.054h-1.685v-1.685h1.853v-1.348a10.272,10.272,0,0,0-.168-1.685h1.853a11.272,11.272,0,0,0,0,1.685v1.348h1.348v1.685a10.613,10.613,0,0,0,1.179-4.043l1.685.505v1.685H496.2v-1.179a9.607,9.607,0,0,0-.168-1.516h1.853a9.6,9.6,0,0,0,0,1.516v1.179h3.706v1.853h-3.706Zm-3.538-2.022-.842,1.853-1.348-1.011.337-.337h-1.516a11.119,11.119,0,0,0,1.516,2.527v-1.011H495.7v-2.022Z" transform="translate(-386.193 -134.2)" fill="#fff"/>
          <path id="パス_141062" data-name="パス 141062" d="M499.4,139.254h-2.022V137.4h13.477v1.853h-5.9v2.864h5.054v1.853h-5.054v3.369h6.57v2.022H496.7V147.34h6.4v-3.369h-4.886v-1.853H503.1v-2.864Zm3.032-5.054,4.212,1.685L505.46,137.4a20.053,20.053,0,0,0-4.38-1.853Z" transform="translate(-379.278 -134.2)" fill="#fff"/>
          <path id="パス_141063" data-name="パス 141063" d="M512.1,147.1a11.107,11.107,0,0,0,0,1.348H510.58v-.674H509.4v1.516h-1.685a16.518,16.518,0,0,0,0-1.685V143.06a5.053,5.053,0,0,1-.842,1.516,7.413,7.413,0,0,0-.674-2.022,9.774,9.774,0,0,0,1.853-3.538,13.478,13.478,0,0,0,.505-2.359h-1.685v-1.685h5.054v1.685h-1.685a18.2,18.2,0,0,1-1.011,3.706h2.7v1.516a11.454,11.454,0,0,0,2.864-4.38h-1.011v1.685H512.1v-2.359a7.235,7.235,0,0,0,0-.842h3.032l.337-1.685h1.853l-.505,1.348h4.549a6.758,6.758,0,0,0,0,1.179v1.011a6.574,6.574,0,0,0,0,1.011h-1.685v-1.516h-3.369a16.162,16.162,0,0,1-1.179,2.359h1.516a7.747,7.747,0,0,0,.674-1.853l1.685.337-.674,1.516h2.527v1.516h-2.864v1.179h2.527V143.9h-2.527v1.179h2.527V146.6h-2.527v1.179h3.2v1.685h-6.739v.674H512.77a11.123,11.123,0,0,0,.169-1.853V143.06l-.674.842-.674-1.011Zm-2.7-1.011h1.179v-4.38H509.4Zm7.581-3.875v-1.179H514.96v1.179Zm-2.022,2.527h2.022v-1.179H514.96Zm0,2.527h2.022v-1.179H514.96Z" transform="translate(-372.774 -134.132)" fill="#fff"/>
          <path id="パス_141064" data-name="パス 141064" d="M523.507,140.633h-4.043v-1.685h9.6v1.685h-3.875v2.022h4.717v1.685h-4.717V147.2h6.4a5.725,5.725,0,0,0-.505,1.853H527.55c-3.875,0-6.065-.842-7.413-2.864a10.948,10.948,0,0,1-2.19,3.2,4.715,4.715,0,0,0-1.348-1.348,10.276,10.276,0,0,0,3.2-6.4l1.853.337v1.011l-.337,1.516a4.885,4.885,0,0,0,2.527,2.359Zm-.337-5.223a5.227,5.227,0,0,0,0-1.011h2.022a5.058,5.058,0,0,0,0,1.011v.674h6.233a8.955,8.955,0,0,0,0,1.179v1.348a10.28,10.28,0,0,0,0,1.348h-1.853v-2.022H518.959v2.022h-1.853a9.433,9.433,0,0,0,0-1.348V137.1a9.25,9.25,0,0,0,0-1.179h6.065Z" transform="translate(-365.653 -134.063)" fill="#fff"/>
          <path id="パス_141065" data-name="パス 141065" d="M527.537,136.485V134.8h11.624a14.5,14.5,0,0,0,0,1.685V147.1a13.642,13.642,0,0,0,.168,2.022h-2.359v-1.011h-7.749v1.011H527.2a17.022,17.022,0,0,0,.168-2.022Zm1.853,3.875h7.581v-3.875h-7.749Zm0,5.9h7.581v-4.212h-7.749Z" transform="translate(-358.396 -133.789)" fill="#fff"/>
        </g>
        <line id="線_3912" data-name="線 3912" y1="37.063" transform="translate(448.965 180.092)" fill="none" stroke="#333" stroke-miterlimit="10" stroke-width="1.685"/>
        <path id="パス_141131" data-name="パス 141131" d="M17.184,0H198.96a17.184,17.184,0,0,1,17.184,17.184v.168A17.184,17.184,0,0,1,198.96,34.536H17.184A17.184,17.184,0,0,1,0,17.352v-.168A17.184,17.184,0,0,1,17.184,0Z" transform="translate(340.978 216.649)" fill="#0770c3"/>
        <g id="グループ_82368" data-name="グループ 82368" transform="translate(359.678 226.083)">
          <path id="パス_141066" data-name="パス 141066" d="M219.4,136.153a10.445,10.445,0,0,0-.168-1.853h2.022a11.956,11.956,0,0,0-.168,1.685V137h6.065a11.958,11.958,0,0,0,0,1.516v5.054a11.119,11.119,0,0,0,.168,1.685h-2.022V144.24h-4.043v3.369a12.8,12.8,0,0,0,.168,2.022h-2.19a13.477,13.477,0,0,0,.169-2.022V144.24h-3.875v1.011H213.5a12.129,12.129,0,0,0,0-1.685v-5.054a12.816,12.816,0,0,0,0-1.516h5.9Zm-3.875,2.7v3.538H219.4v-3.538Zm9.771,3.538v-3.538h-4.043v3.538Z" transform="translate(-213.5 -134.132)" fill="#fff"/>
          <path id="パス_141067" data-name="パス 141067" d="M225.085,147.372a14.149,14.149,0,0,0,.168,2.022H223.4a14.316,14.316,0,0,0,.168-2.022V136.59a18.037,18.037,0,0,0,0-1.853h5.9V140.3h-4.549Zm0-10.445h2.864v-.842h-2.864Zm0,2.022h2.864v-.842h-2.864Zm8.423,7.076v1.348h1.179c.505,0,.674-.168.674-.505v-6.907h-4.717V134.4h6.57v12.635c0,1.011-.168,1.348-.842,1.685H233.34a6.234,6.234,0,0,0-.337-1.685h-4.38v.842h-1.685a11.113,11.113,0,0,0,.168-1.685v-5.559h6.739v1.516Zm-5.054-2.359h3.369v-1.011h-3.369Zm0,2.359h3.369v-1.011h-3.369Zm3.875-9.1h3.032v-.842h-3.032Zm0,2.022h3.032v-.842h-3.032Z" transform="translate(-206.722 -134.063)" fill="#fff"/>
          <path id="パス_141068" data-name="パス 141068" d="M234.853,136.353H233v-1.685h7.75v1.685h-2.19V137.7h1.853v9.771a17.532,17.532,0,0,0,0,1.853H238.9v-.674h-3.875v.842h-1.685a19.718,19.718,0,0,0,.168-2.19v-9.6h2.022v-1.348Zm.168,7.918H238.9v-1.348h-.505c-1.011,0-1.179-.168-1.179-.674v-3.2h-.505a16.006,16.006,0,0,1-.337,3.032,5.392,5.392,0,0,1-.674,1.685,4.042,4.042,0,0,0-.674-1.179Zm0-1.516a7.749,7.749,0,0,0,.674-3.706h-.674Zm0,4.212H238.9v-1.348h-3.875Zm1.685-9.266h.505v-1.348h-.505Zm1.516,3.706c0,.337,0,.337.674.337v-2.527h-.674Zm9.1-1.348a14.837,14.837,0,0,0,0,1.685h-4.212v5.391c0,.337,0,.337.168.505h1.179c1.179,0,1.516-.168,1.685-.505a9.1,9.1,0,0,0,.168-2.359l1.685.674c-.168,2.022-.168,2.864-.674,3.2a4.85,4.85,0,0,1-3.032.674c-1.853,0-3.032-.168-3.032-1.685v-6.065a13.989,13.989,0,0,0,0-1.685h4.38v-3.538h-4.38V134.5h6.233a15.5,15.5,0,0,0,0,1.685Z" transform="translate(-200.149 -133.995)" fill="#fff"/>
          <path id="パス_141069" data-name="パス 141069" d="M249.028,135.985a10.778,10.778,0,0,0-.168-1.685h2.022a10.448,10.448,0,0,0-.168,1.685v4.38h5.559a11.3,11.3,0,0,0,0,1.348v6.065a13.991,13.991,0,0,0,.169,1.853h-1.853v-.674H243.3V147.1h11.287v-1.685H243.805v-1.853h10.782v-1.516H243.3V140.2h5.728Zm-4.043-.842a20.214,20.214,0,0,1,2.527,4.043l-1.685,1.011a18.363,18.363,0,0,0-2.527-4.043Zm11.624.674a20.048,20.048,0,0,1-2.527,4.212l-1.516-1.011a14.152,14.152,0,0,0,2.359-4.043Z" transform="translate(-193.097 -134.132)" fill="#fff"/>
          <path id="パス_141070" data-name="パス 141070" d="M265.235,142.892l-1.516,1.516-2.022,1.853a17.689,17.689,0,0,0,5.9,1.516,7.076,7.076,0,0,0-.842,1.853,18.529,18.529,0,0,1-4.38-1.011l-2.359-1.179a21.059,21.059,0,0,1-6.57,2.19,7.41,7.41,0,0,0-.842-1.685,19.037,19.037,0,0,0,5.9-1.516,12.468,12.468,0,0,1-2.7-3.032h-.842v-1.685h9.1Zm-11.287-5.728a8.759,8.759,0,0,0-.674-1.685h1.348l7.413-.505,3.369-.674,1.179,1.516h-.674l-2.022.337,1.516.505-1.011,1.853h2.864v2.527a8.6,8.6,0,0,0,0,1.179H265.4v-1.685H254.622v2.19h-1.853a9.767,9.767,0,0,0,0-1.348v-2.527h2.864l-.674-1.685Zm5.559,1.685L258.833,137H256.98l.674,1.853Zm-1.516,4.38a7.412,7.412,0,0,0,2.19,2.19,10.279,10.279,0,0,0,2.527-2.19Zm4.717-4.38a14.992,14.992,0,0,0,1.011-2.359h-3.032a14.316,14.316,0,0,1,.674,2.022Z" transform="translate(-186.729 -134.132)" fill="#fff"/>
          <path id="パス_141071" data-name="パス 141071" d="M264.253,138.98l-1.179,1.011a4.717,4.717,0,0,0-.674-1.516,7.919,7.919,0,0,0,2.022-1.853A7.247,7.247,0,0,0,265.6,134.6h1.853a7.075,7.075,0,0,0,1.179,1.853,5.223,5.223,0,0,0,1.516,1.348,5.224,5.224,0,0,0-.842,1.685l-.674-.505v1.348h-4.38Zm-.168,3.706h-1.348V141h6.57v4.717c0,1.348-.505,1.685-2.022,1.685h-.337a3.874,3.874,0,0,0-.337-1.685h.842c.337,0,.337,0,.337-.168v-2.864h-1.348v4.886a10.1,10.1,0,0,0,0,1.685H264.59a11.291,11.291,0,0,0,.168-1.685v-4.886Zm3.2-4.212H268.3a10.277,10.277,0,0,1-1.853-2.7,9.433,9.433,0,0,1-1.853,2.7Zm5.559,8.592a9.771,9.771,0,0,1-3.538,2.359,4.549,4.549,0,0,0-1.011-1.348,8.087,8.087,0,0,0,2.359-1.179l.842-.674h-1.348v-8.76h2.19l.337-1.179h-3.2V134.6h8.086v1.685h-3.2l-.505,1.179h3.032v8.76h-2.022a8.086,8.086,0,0,0,3.032,2.022l-1.011,1.516a9.772,9.772,0,0,1-3.2-2.359l1.179-1.011h-3.2Zm-1.179-7.244h3.706v-1.011h-3.706Zm0,2.359h3.706V141.17h-3.706Zm0,2.359h3.706V143.7h-3.706Z" transform="translate(-180.019 -133.926)" fill="#fff"/>
          <path id="パス_141072" data-name="パス 141072" d="M283.45,140.939h4.212v1.853h-3.706A11.119,11.119,0,0,0,288,146.835a4.212,4.212,0,0,0-1.179,1.685l-1.853-1.685a11.962,11.962,0,0,1-1.685-2.527c0,.505,0,1.179,0,1.685v2.022a14.985,14.985,0,0,0,.168,1.853H281.6a15.5,15.5,0,0,0,.168-1.853v-3.706a11.624,11.624,0,0,1-3.875,4.212L276.88,147a10.951,10.951,0,0,0,4.212-4.38h-2.864v-.674a5.221,5.221,0,0,0-.674,1.348,8.765,8.765,0,0,1-1.011-2.022v6.4a16.848,16.848,0,0,0,0,2.022H274.69a13.129,13.129,0,0,0,.169-2.022V144.14a12.086,12.086,0,0,1,.168-2.19,13.982,13.982,0,0,1-1.685,3.875,6.4,6.4,0,0,0-.842-1.853,15.331,15.331,0,0,0,2.19-5.054h-1.685v-1.685h1.853v-1.348a10.279,10.279,0,0,0-.169-1.685h1.853a11.28,11.28,0,0,0,0,1.685v1.348h1.348v1.685a10.613,10.613,0,0,0,1.179-4.043l1.685.505v1.685H282.1v-1.179a9.607,9.607,0,0,0-.169-1.516h1.516a9.606,9.606,0,0,0,0,1.516v1.179h3.706v1.853H283.45Zm-3.538-2.022-.842,1.853-1.348-1.011.337-.337H276.88a11.118,11.118,0,0,0,1.516,2.527v-1.011h3.369v-2.022Z" transform="translate(-173.104 -134.2)" fill="#fff"/>
          <path id="パス_141073" data-name="パス 141073" d="M285.3,139.254h-2.022V137.4h13.477v1.853h-5.9v2.864h5.054v1.853h-5.054v3.369h6.57v2.022H282.6V147.34H289v-3.369h-4.886v-1.853H289v-2.864Zm3.032-5.054,4.212,1.685L291.36,137.4a20.046,20.046,0,0,0-4.38-1.853Z" transform="translate(-166.189 -134.2)" fill="#fff"/>
          <path id="パス_141074" data-name="パス 141074" d="M298.1,147.1a11.119,11.119,0,0,0,0,1.348H296.58v-.674H295.4v1.516h-1.685a16.5,16.5,0,0,0,0-1.685V143.06a5.053,5.053,0,0,1-.842,1.516,7.41,7.41,0,0,0-.674-2.022,9.771,9.771,0,0,0,1.853-3.538,13.474,13.474,0,0,0,.505-2.359h-1.685v-1.685h5.054v1.685h-1.685a18.194,18.194,0,0,1-1.011,3.706h2.7v1.516a11.456,11.456,0,0,0,2.864-4.38h-1.011v1.685H298.1v-2.359a7.249,7.249,0,0,0,0-.842h3.032l.337-1.685h1.853l-.505,1.348h4.549a6.728,6.728,0,0,0,0,1.179v1.011a6.574,6.574,0,0,0,0,1.011h-1.685v-1.516h-3.369a16.174,16.174,0,0,1-1.179,2.359h1.516a7.747,7.747,0,0,0,.674-1.853l1.685.337-.674,1.516h2.527v1.516h-2.864v1.179h2.527V143.9h-2.527v1.179h2.527V146.6h-2.527v1.179h3.2v1.685h-6.739v.674H298.77a11.127,11.127,0,0,0,.168-1.853V143.06l-.674.842-.674-1.011Zm-2.7-1.011h1.179v-4.38H295.4Zm7.581-3.875v-1.179H300.96v1.179Zm-2.022,2.527h2.022v-1.179H300.96Zm0,2.527h2.022v-1.179H300.96Z" transform="translate(-159.616 -134.132)" fill="#fff"/>
          <path id="パス_141075" data-name="パス 141075" d="M309.407,140.633h-4.043v-1.685h9.6v1.685h-3.875v2.022h4.717v1.685h-4.717V147.2h6.4a5.726,5.726,0,0,0-.505,1.853H313.45c-3.875,0-6.065-.842-7.413-2.864a10.95,10.95,0,0,1-2.19,3.2,4.717,4.717,0,0,0-1.348-1.348,10.277,10.277,0,0,0,3.2-6.4l1.853.337v1.011l-.337,1.516a4.885,4.885,0,0,0,2.527,2.359Zm-.337-5.223a5.217,5.217,0,0,0,0-1.011h2.022a5.06,5.06,0,0,0,0,1.011v.674h6.233a8.924,8.924,0,0,0,0,1.179v1.348a10.291,10.291,0,0,0,0,1.348h-1.853v-2.022H304.859v2.022h-1.853a9.442,9.442,0,0,0,0-1.348V137.1a9.272,9.272,0,0,0,0-1.179h6.065Z" transform="translate(-152.564 -134.063)" fill="#fff"/>
          <path id="パス_141076" data-name="パス 141076" d="M313.368,136.485a5.194,5.194,0,0,0-.168-1.685h11.624a14.458,14.458,0,0,0,0,1.685V147.1a13.634,13.634,0,0,0,.168,2.022h-2.022v-1.011h-7.75v1.011H313.2a17.022,17.022,0,0,0,.168-2.022Zm1.853,3.875h7.75v-3.875h-7.75Zm0,5.9h7.75v-4.212h-7.75Z" transform="translate(-145.238 -133.789)" fill="#fff"/>
        </g>
        <line id="線_3913" data-name="線 3913" y1="99.396" transform="translate(312.338 35.21)" fill="none" stroke="#333" stroke-miterlimit="10" stroke-width="1.685"/>
        <rect id="長方形_12283" data-name="長方形 12283" width="189.02" height="34.536" rx="17.184" transform="translate(217.997)" fill="#002060"/>
        <rect id="長方形_12284" data-name="長方形 12284" width="189.02" height="34.536" rx="17.184" transform="translate(443.911)" fill="#002060"/>
        <rect id="長方形_12285" data-name="長方形 12285" width="189.02" height="34.536" rx="17.184" transform="translate(671.005)" fill="#002060"/>
        <g id="グループ_82369" data-name="グループ 82369" transform="translate(237.37 9.771)">
          <path id="パス_141077" data-name="パス 141077" d="M147.639,17.524a13.814,13.814,0,0,1-5.728,3.369L140.9,19.377a12.635,12.635,0,0,0,5.559-2.864H143.6v.842h-1.853a14.994,14.994,0,0,0,1.011-3.032,17.683,17.683,0,0,0,.168-1.853h4.886v-.842h-5.223V10.112l-.505.505-1.011-1.348A6.57,6.57,0,0,0,143.6,5.9l1.853.337-.505.842h3.706V8.427A6.57,6.57,0,0,0,150,5.9l1.685.337-.337.842h4.886V8.764H153.2l.674,1.179-1.348.337h2.359a6.572,6.572,0,0,0,0,1.179v1.685a7.584,7.584,0,0,0,0,1.179h-5.391v1.011h6.065v2.022c-.168,1.685-.337,2.022-.674,2.359a2.434,2.434,0,0,1-1.853.505h-1.853a6.907,6.907,0,0,0-.337-1.685h1.853c.842,0,1.011,0,1.011-1.853h-4.212v2.7a11.458,11.458,0,0,0,.168,1.853h-2.022a6.909,6.909,0,0,0,.168-1.348V17.524Zm-2.359-7.413L144.606,8.6h-.842l-1.348,1.516Zm2.359,4.043h-3.369v1.011h3.538Zm1.011-4.043L147.639,9.1l.674-.505h-1.853l.674,1.179-1.348.505Zm3.538,0L151.345,8.6h-1.011l-1.348,1.516Zm-2.7,2.527h3.538V11.628h-3.538Z" transform="translate(-140.9 -5.732)" fill="#fff"/>
          <path id="パス_141078" data-name="パス 141078" d="M155.432,19.4V8.959L152.4,9.969V7.948L156.106,6.6h1.516V19.4Z" transform="translate(-133.026 -5.252)" fill="#fff"/>
          <path id="パス_141079" data-name="パス 141079" d="M159.768,8.522A18.867,18.867,0,0,0,159.6,6.5h14.32a17.015,17.015,0,0,0-.168,2.022v9.94a13.311,13.311,0,0,0,.169,1.853h-1.853v-.842H161.622v.842h-1.853a11.452,11.452,0,0,0,.168-1.853Zm1.853,9.266h10.445v-9.6h-2.7v5.054c0,.337,0,.337.337.337h.505a9.77,9.77,0,0,0,.168-2.022l1.516.674c0,1.853-.168,2.359-.505,2.864s-.842.505-2.022.505-1.685-.168-1.685-1.348V8.185H166a20.389,20.389,0,0,1-.168,2.864,7.076,7.076,0,0,1-2.864,5.054l-1.179-1.348Zm0-3.032c1.853-1.179,2.527-2.864,2.527-6.4h-2.527Z" transform="translate(-128.097 -5.321)" fill="#fff"/>
          <path id="パス_141080" data-name="パス 141080" d="M181.7,11.628h1.853v1.853h-5.9v2.19h6.739v1.853h-6.739v2.19a12.13,12.13,0,0,0,.168,2.022h-2.19a12.633,12.633,0,0,0,.168-2.022v-2.7h-6.4V15.166h6.4V13.144h-5.559V11.459H175.8V7.922a13.81,13.81,0,0,0-.168-2.022h2.022a13.31,13.31,0,0,0-.168,2.022v3.706Zm-9.6-5.054a23.25,23.25,0,0,1,2.527,3.706l-1.685.842a18.025,18.025,0,0,0-2.527-3.875Zm10.95.842a21.9,21.9,0,0,1-2.527,3.875L179,10.449a16.678,16.678,0,0,0,2.359-3.875Z" transform="translate(-121.387 -5.732)" fill="#fff"/>
          <path id="パス_141081" data-name="パス 141081" d="M180.648,7.448a8.25,8.25,0,0,0,0-1.348H182.5a10.784,10.784,0,0,0,0,1.348v.168h2.359V7.448a10.108,10.108,0,0,0,0-1.348h1.853a8.091,8.091,0,0,0-.168,1.348v.168h1.179V9.3h-1.179v6.4h1.011v1.685h-8.086V15.7h1.516V9.132h-1.179V7.616h1.179Zm2.359,10.782a10.613,10.613,0,0,1-2.527,2.864L179.3,19.746a7.413,7.413,0,0,0,2.358-2.527Zm1.685-7.749V9.132h-2.359v1.011Zm0,2.527V11.659h-2.359v1.179Zm0,2.7V14.355h-2.359V15.7Zm.337,1.685a6.234,6.234,0,0,0,1.516,1.685l-1.179,1.179a10.11,10.11,0,0,1-1.516-2.022Zm4.38-1.516a8.929,8.929,0,0,1-1.853,5.222l-1.348-1.348a5.391,5.391,0,0,0,1.348-3.032,58.125,58.125,0,0,0,.337-8.086,16.344,16.344,0,0,0,0-2.19h6.065a15.17,15.17,0,0,0,0,1.853V19.24c0,.842-.168,1.348-.674,1.516h-2.7a7.749,7.749,0,0,0-.337-1.853h1.516c.505,0,.674,0,.674-.337v-2.7ZM189.577,12a10.359,10.359,0,0,1-.168,2.359h2.527V12ZM192.1,8.29h-2.527v2.022H192.1Z" transform="translate(-114.609 -5.595)" fill="#fff"/>
          <path id="パス_141082" data-name="パス 141082" d="M192.911,10.112l3.032,2.022-1.011,1.516a15.669,15.669,0,0,0-3.032-2.19Zm2.864,5.559a24.765,24.765,0,0,1-1.853,4.38l-.505.842L191.9,19.546a14.657,14.657,0,0,0,2.359-4.886Zm-2.19-9.6a13.476,13.476,0,0,1,2.864,2.19l-1.179,1.516a12.466,12.466,0,0,0-2.864-2.359Zm8.592,8.592a8.76,8.76,0,0,0,5.054,4.549,6.065,6.065,0,0,0-1.011,1.853A10.782,10.782,0,0,1,201,15.84a8.929,8.929,0,0,1-4.717,5.222,5.391,5.391,0,0,0-1.179-1.685,6.739,6.739,0,0,0,4.549-4.886H196.28V12.807h3.706c0-.842.168-1.853.168-2.864h-3.032V8.259h3.032V7.416a7.583,7.583,0,0,0-.168-1.516h2.022a9.1,9.1,0,0,0-.168,1.516v.842h4.043a8.93,8.93,0,0,0,0,1.348v3.2h1.348v2.022h-5.054Zm1.853-1.685V10.112h-2.359a13.671,13.671,0,0,1-.168,2.864Z" transform="translate(-105.982 -5.732)" fill="#fff"/>
          <path id="パス_141083" data-name="パス 141083" d="M204.932,8.5a10.95,10.95,0,0,1-1.853,2.022L201.9,9.169a8.255,8.255,0,0,0,1.685-1.853,4.379,4.379,0,0,0,.842-1.516l1.685.505-.505.842h3.706V8.5a7.075,7.075,0,0,0,1.516-2.527l1.685.505-.337.842h4.886V9H214.03l.674,1.011-1.011.337h1.516v4.886a13.312,13.312,0,0,0,0,1.685h-2.19v.674h4.043v1.685h-4.043v1.179a8.257,8.257,0,0,0,.168,1.516h-1.853a8.765,8.765,0,0,0,.168-1.516V19.277h-3.369a3.538,3.538,0,0,1-1.516,1.853,7.918,7.918,0,0,1-2.7.842l-1.011-1.516,2.022-.337a2.527,2.527,0,0,0,1.516-1.011h-4.043V17.424h4.38V16.75h-2.359a12.8,12.8,0,0,0,0-1.685V9.843h2.19L205.943,8.5Zm1.011,3.2h7.581v-.674h-7.581Zm0,1.685h7.581v-.505h-7.581Zm0,1.685h7.581V14.56h-7.581Zm1.516-6.739.674,1.011-1.179.337h3.032l-1.179-.842.505-.505Zm3.875,8.592v-.674H208.3a4.9,4.9,0,0,1,0,.674Zm1.853-7.244-.842-1.348h-1.011l-1.179,1.348Z" transform="translate(-99.135 -5.8)" fill="#fff"/>
          <path id="パス_141084" data-name="パス 141084" d="M215.675,12.1l-2.864,1.516L211.8,12.1,215,10.58a11.959,11.959,0,0,0-2.359-2.19l1.348-1.011.505.505V6.2h5.9A4.043,4.043,0,0,0,221.4,8.053l1.011-1.011.337-.505h.168l1.516.842-.674.674-1.179,1.179,1.011.842a9.435,9.435,0,0,0,1.685-2.022l1.516.842-.505.505-1.516,1.516,2.7,1.179a6.738,6.738,0,0,0-.842,1.685l-2.7-1.516v.674h-1.685v1.853h4.38v1.685h-4.38V19c0,.337,0,.337.168.505h1.011a2.425,2.425,0,0,0,1.516-.337,3.707,3.707,0,0,0,.337-1.685l1.853.505c-.337,2.864-.674,3.032-3.875,3.032s-2.7-.337-2.7-1.348V16.14h-2.19a5.9,5.9,0,0,1-1.011,2.359,7.75,7.75,0,0,1-3.875,2.527,5.9,5.9,0,0,0-1.179-1.685,7.076,7.076,0,0,0,3.032-1.516,3.875,3.875,0,0,0,1.179-1.853h-3.875V14.286h4.043V12.433h-1.011Zm-.168-4.38H214.5L216.18,9.4l1.685-1.685Zm6.57,3.369h.337a14.152,14.152,0,0,1-2.864-3.032,13.309,13.309,0,0,1-2.7,3.032Zm-3.538,3.032v.337h2.022V12.77h-1.853Z" transform="translate(-92.357 -5.526)" fill="#fff"/>
          <path id="パス_141085" data-name="パス 141085" d="M229.381,13.986,228.2,15.166v3.369l3.369-.842v1.685l-3.538.842-2.022.337H224.5l-.337-1.853h2.19V16.682l-3.538,1.853A7.752,7.752,0,0,0,221.8,16.85a12.8,12.8,0,0,0,5.223-2.7h-5.054V12.47h6.4V11.459h-5.054V9.775h5.054V8.932h-5.728V7.248h5.728A9.267,9.267,0,0,0,228.2,5.9h2.358a6.064,6.064,0,0,0-.168,1.348h6.065V8.932h-6.065V9.943h5.222v1.685h-5.222v1.011h6.739v1.685H231.4a8.424,8.424,0,0,0,1.348,2.022,10.277,10.277,0,0,0,1.853-1.853l1.685,1.011-.337.337-2.022,1.685a11.961,11.961,0,0,0,3.538,1.853,6.4,6.4,0,0,0-1.179,1.853,12.3,12.3,0,0,1-4.886-3.538,13.476,13.476,0,0,1-1.853-3.369Z" transform="translate(-85.51 -5.732)" fill="#fff"/>
        </g>
        <line id="線_3914" data-name="線 3914" y1="99.396" transform="translate(264.157 180.092)" fill="none" stroke="#333" stroke-miterlimit="10" stroke-width="1.685"/>
        <path id="パス_223774" data-name="パス 223774" d="M17.184,0H156.675a17.184,17.184,0,0,1,17.184,17.184v.168a17.184,17.184,0,0,1-17.184,17.184H17.184A17.184,17.184,0,0,1,0,17.352v-.168A17.184,17.184,0,0,1,17.184,0Z" transform="translate(177.565 279.487)" fill="#002060"/>
        <g id="グループ_82370" data-name="グループ 82370" transform="translate(196.096 289.343)">
          <path id="パス_141086" data-name="パス 141086" d="M129.709,173.879a10.782,10.782,0,0,1-4.043,5.054l-1.179-1.348a8.423,8.423,0,0,0,2.864-3.032H116.4V172.7h12.467Zm-6.233,2.022v1.348c0,4.38-1.685,6.907-5.391,8.423l-1.179-1.685c3.2-1.179,4.38-3.032,4.38-6.739V175.9Z" transform="translate(-116.4 -171.1)" fill="#fff"/>
          <path id="パス_141087" data-name="パス 141087" d="M139.046,181.418v2.022H125.4v-2.022Zm-12.13-7.918h10.445v2.022H126.916Z" transform="translate(-110.238 -170.552)" fill="#fff"/>
          <path id="パス_141088" data-name="パス 141088" d="M142.176,181.907a45.318,45.318,0,0,0,.842-5.222h-6.4V175h7.413l.842.842a62.17,62.17,0,0,1-1.011,6.233h3.2v1.685H135.1v-1.685Z" transform="translate(-103.597 -169.525)" fill="#fff"/>
          <path id="パス_141089" data-name="パス 141089" d="M157.309,173.879a10.782,10.782,0,0,1-4.043,5.054l-1.179-1.348a8.423,8.423,0,0,0,2.864-3.032H144V172.7h12.467Zm-6.233,2.022v1.348c0,4.38-1.685,6.907-5.391,8.423l-1.179-1.685c3.2-1.179,4.38-3.032,4.38-6.739V175.9Z" transform="translate(-97.503 -171.1)" fill="#fff"/>
          <path id="パス_141090" data-name="パス 141090" d="M157.622,172.974v3.875a10.277,10.277,0,0,1-3.706,8.76l-1.516-1.348a8.255,8.255,0,0,0,3.2-7.413v-3.706Zm4.549-.505v10.277a12.635,12.635,0,0,0,4.549-3.706l1.179,1.685a16.173,16.173,0,0,1-6.57,4.717l-1.011-1.011V172.3Z" transform="translate(-91.752 -171.373)" fill="#fff"/>
          <path id="パス_141091" data-name="パス 141091" d="M165.422,172.7v10.277a17.015,17.015,0,0,0,8.255-5.559l1.348,1.685a17.858,17.858,0,0,1-10.613,6.4l-1.011-1.179V172.7Z" transform="translate(-84.22 -171.1)" fill="#fff"/>
          <path id="パス_141092" data-name="パス 141092" d="M171.2,183.964a13.309,13.309,0,0,0,2.527-5.054l1.853.505a15.668,15.668,0,0,1-2.7,5.559Zm.842-6.739v-1.853H177.6V172.34h2.022v3.032h4.043a1.853,1.853,0,0,1-1.179-1.685,1.937,1.937,0,1,1,3.875,0,1.853,1.853,0,0,1-1.685,1.853v1.685h-5.054v7.244a2.062,2.062,0,0,1-2.359,2.359h-1.853l-.337-2.022h1.853c.505,0,.674-.168.674-.505v-7.076Zm10.782,1.516a21.4,21.4,0,0,1,2.7,5.391l-2.022.842a24.26,24.26,0,0,0-2.527-5.391Zm.505-5.222a1.011,1.011,0,1,0,1.011-1.011,1.011,1.011,0,0,0-1.011,1.011Z" transform="translate(-78.88 -171.75)" fill="#fff"/>
          <path id="パス_141093" data-name="パス 141093" d="M194.877,175.6v2.19H181.4V175.6Z" transform="translate(-71.896 -169.114)" fill="#fff"/>
          <path id="パス_141094" data-name="パス 141094" d="M194.653,176.849a32.174,32.174,0,0,1,6.739,3.032l-.842,1.853a35.211,35.211,0,0,0-5.728-2.7v7.244H192.8V172.3h2.19Z" transform="translate(-64.091 -171.373)" fill="#fff"/>
        </g>
        <line id="線_3915" data-name="線 3915" y1="37.063" transform="translate(341.82 97.543)" fill="none" stroke="#333" stroke-miterlimit="10" stroke-width="1.685"/>
        <g id="グループ_82371" data-name="グループ 82371" transform="translate(340.472 72.104)">
          <path id="パス_141095" data-name="パス 141095" d="M202.268,45.522A18.875,18.875,0,0,0,202.1,43.5h14.32a17.008,17.008,0,0,0-.168,2.022v9.94a13.316,13.316,0,0,0,.169,1.853h-1.853v-.842H204.122v.842h-1.853a11.453,11.453,0,0,0,.168-1.853Zm1.853,9.266h10.445v-9.6h-2.7v5.054c0,.337,0,.337.337.337h.505a9.772,9.772,0,0,0,.168-2.022l1.516.674c0,1.853-.168,2.359-.505,2.864s-.842.505-2.022.505-1.685-.168-1.685-1.348V45.185H208.5a20.4,20.4,0,0,1-.168,2.864,7.076,7.076,0,0,1-2.864,5.054l-1.179-1.348Zm0-3.032c1.853-1.179,2.527-2.864,2.527-6.4h-2.527Z" transform="translate(-202.1 -42.321)" fill="#fff"/>
          <path id="パス_141096" data-name="パス 141096" d="M224.13,48.628h1.853v1.853h-5.9v2.19h6.739v1.853h-6.739v2.19a12.131,12.131,0,0,0,.168,2.022h-2.19a12.628,12.628,0,0,0,.169-2.022v-2.7H212V52.166h6.4V50.144h-5.559V48.459H218.4V44.922a13.812,13.812,0,0,0-.168-2.022h2.022a13.3,13.3,0,0,0-.168,2.022v3.538Zm-9.6-5.054a23.25,23.25,0,0,1,2.527,3.706l-1.685.842a18.026,18.026,0,0,0-2.527-3.875Zm10.95.842a21.9,21.9,0,0,1-2.527,3.875l-1.516-.842a16.678,16.678,0,0,0,2.359-3.875Z" transform="translate(-195.322 -42.732)" fill="#fff"/>
          <path id="パス_141097" data-name="パス 141097" d="M223.248,44.516a8.25,8.25,0,0,0,0-1.348H225.1a10.787,10.787,0,0,0,0,1.348v.168h2.359v-.337a10.092,10.092,0,0,0,0-1.348h1.853a8.086,8.086,0,0,0-.168,1.348v.337h1.179v1.685h-1.179v6.4h1.011v1.685h-8.086V52.771h1.516V46.2h-1.516V44.685h1.179ZM225.606,55.3a10.613,10.613,0,0,1-2.527,3.032L221.9,56.983a7.413,7.413,0,0,0,2.359-2.527Zm1.685-7.749V46.538h-2.359v1.011Zm0,2.527V48.9h-2.359v1.179Zm0,2.7V51.423h-2.359v1.348Zm.337,1.685a6.234,6.234,0,0,0,1.516,1.685l-1.179,1.179a10.107,10.107,0,0,1-1.516-2.022Zm4.38-1.516a8.929,8.929,0,0,1-1.853,5.222l-1.348-1.348a5.391,5.391,0,0,0,1.348-3.032,58.125,58.125,0,0,0,.337-8.086,16.354,16.354,0,0,0,0-2.19h6.065a15.157,15.157,0,0,0,0,1.853v10.95c0,.842-.168,1.348-.674,1.516h-2.7a7.749,7.749,0,0,0-.337-1.853h1.516c.505,0,.674,0,.674-.337v-2.7Zm.168-3.875a10.359,10.359,0,0,1-.168,2.359h2.527V49.065Zm2.527-3.706h-2.527v2.19H234.7Z" transform="translate(-188.543 -42.663)" fill="#fff"/>
          <path id="パス_141098" data-name="パス 141098" d="M237.728,47.349h1.348v1.685h-.842a10.613,10.613,0,0,1-.505,1.853h1.516v1.685h-2.7v1.348h2.527V55.6h-2.527v1.011a5.73,5.73,0,0,0,.168,1.685h-1.853c0-.505.168-1.011.168-1.685V55.435h-2.527V53.75h2.527V52.4H232V50.718h1.685a12.3,12.3,0,0,0-.337-1.853H232V47.18h2.864V46h-2.527V44.316h2.527v-.337A7.921,7.921,0,0,0,234.7,42.8h1.853a6.9,6.9,0,0,0,0,1.179v.337h2.19V46H236.38V47.18Zm-1.516,3.369a10.785,10.785,0,0,0,.505-1.853H234.7a13.984,13.984,0,0,1,.337,1.853Zm10.445-1.179v.674a18.53,18.53,0,0,1-1.348,4.043,8.254,8.254,0,0,0,2.19,1.853l-1.011,1.685L244.3,55.6a10.949,10.949,0,0,1-2.022,2.19l-.842-1.348a13.8,13.8,0,0,0,.168,1.516h-1.853a13.814,13.814,0,0,0,.168-2.022V43.474h7.076v1.011c-.168,3.032-.337,3.369-2.19,3.369h-1.516a6.573,6.573,0,0,0-.337-1.516h1.685c.505,0,.674-.168.674-1.348h-3.538v3.538h4.717Zm-5.391,6.739a8.592,8.592,0,0,0,1.853-1.853,12.635,12.635,0,0,1-1.516-4.212h-.337Zm1.685-6.065a9.265,9.265,0,0,0,1.011,2.7,11.286,11.286,0,0,0,.842-2.7Z" transform="translate(-181.628 -42.8)" fill="#fff"/>
          <path id="パス_141099" data-name="パス 141099" d="M245.369,46.638a10.445,10.445,0,0,1-1.853,2.022l-1.348-1.179a8.255,8.255,0,0,0,2.527-3.032L245.2,43.1l1.853.505-.674,1.516h2.359v-.505a7.75,7.75,0,0,0-.168-1.516h2.022a9.762,9.762,0,0,0-.169,1.516v.505h5.054v1.853h-5.054V49h6.233v1.853H242v-2.19h6.739V46.638Zm-1.516,11.456a13.815,13.815,0,0,0,.168-1.853v-3.2a11.958,11.958,0,0,0,0-1.516H255.14a11.807,11.807,0,0,0,0,1.516v3.032a12.643,12.643,0,0,0,.169,1.853h-1.853v-.674h-7.413v.674Zm1.853-2.359h7.413V53.208h-7.413Z" transform="translate(-174.782 -42.595)" fill="#fff"/>
          <path id="パス_141100" data-name="パス 141100" d="M258.539,45.159h-5.054V43.642h5.054a4.717,4.717,0,0,0-.169-.842h1.853a4.21,4.21,0,0,0-.168.842h5.054a12.122,12.122,0,0,0,0,1.348V45.5h1.685v1.348h-1.685v.674a9.432,9.432,0,0,0,0,1.179h-5.054V49.2h5.559v1.348h-5.559v.505h6.739v1.516H251.8V51.055h6.57v-.505h-5.391V49.2h5.391V48.7h-5.054V47.349h5.054v-.505H251.8V45.327h6.57Zm-4.549,9.266a15.835,15.835,0,0,0,0-1.685h11.287a11.455,11.455,0,0,0,0,1.685v2.19a9.934,9.934,0,0,0,.168,1.685h-1.853v-.505h-7.581V58.3h-2.19a14.844,14.844,0,0,0,0-1.685Zm1.685.168h7.581v-.505h-7.581Zm0,1.685h7.581V55.6h-7.581Zm8.086-11.287h-3.369V45.5h3.369Zm-3.369,1.853v.505h3.369v-.505Z" transform="translate(-168.072 -42.8)" fill="#fff"/>
        </g>
        <line id="線_3916" data-name="線 3916" y1="99.396" transform="translate(537.579 35.21)" fill="none" stroke="#333" stroke-miterlimit="10" stroke-width="1.685"/>
        <g id="グループ_82372" data-name="グループ 82372" transform="translate(462.443 9.771)">
          <path id="パス_141101" data-name="パス 141101" d="M281.407,17.524a13.814,13.814,0,0,1-5.728,3.369l-1.011-1.516a12.635,12.635,0,0,0,5.559-2.864h-2.864l-.337.842h-1.853a14.989,14.989,0,0,0,1.011-3.032,17.67,17.67,0,0,0,.169-1.853h4.885v-.842h-5.222V10.112l-.505.505L274.5,9.269A6.57,6.57,0,0,0,277.027,5.9l1.853.337-.505.842h3.706V8.427A6.4,6.4,0,0,0,283.429,5.9l1.685.337-.337.842h4.885V8.764H286.63l.674,1.179-1.348.337h2.359a6.572,6.572,0,0,0,0,1.179v1.685a7.591,7.591,0,0,0,0,1.179h-5.391v1.011h6.065v2.022c-.168,1.685-.337,2.022-.674,2.359a2.434,2.434,0,0,1-1.853.505h-1.516a6.907,6.907,0,0,0-.337-1.685h1.853c.842,0,1.011,0,1.011-1.853H283.26v2.7a11.453,11.453,0,0,0,.168,1.853h-2.022a6.914,6.914,0,0,0,.168-1.348V17.524Zm-2.359-7.413L278.206,8.6h-.842l-1.348,1.516h3.032Zm2.359,4.043h-3.369v1.011h3.538Zm1.011-4.043L281.407,9.1l.674-.505h-1.853l.674,1.179-1.348.505Zm3.538,0L285.113,8.6H284.1l-1.348,1.516Zm-2.7,2.527H286.8V11.628H283.26Z" transform="translate(-274.5 -5.732)" fill="#fff"/>
          <path id="パス_141102" data-name="パス 141102" d="M285.8,19.472V17.113c3.706-3.2,5.559-4.717,5.559-6.57s-.842-1.853-2.19-1.853a6.907,6.907,0,0,0-2.7.674V7.342a7.918,7.918,0,0,1,3.369-.842c2.527,0,3.875,1.348,3.875,3.538s-.674,3.369-5.559,7.413h5.9v2.022Z" transform="translate(-266.763 -5.321)" fill="#fff"/>
          <path id="パス_141103" data-name="パス 141103" d="M293.368,8.522A18.709,18.709,0,0,0,293.2,6.5h14.32a17.021,17.021,0,0,0-.168,2.022v9.94a13.316,13.316,0,0,0,.168,1.853h-1.853v-.842H295.222v.842h-1.853a11.453,11.453,0,0,0,.169-1.853Zm1.853,9.266h10.445v-9.6h-2.7v5.054c0,.337,0,.337.337.337h.505a9.771,9.771,0,0,0,.169-2.022l1.516.674c0,1.853-.168,2.359-.505,2.864s-.842.505-2.022.505-1.685-.168-1.685-1.348V8.185H299.6a20.385,20.385,0,0,1-.168,2.864,7.076,7.076,0,0,1-2.864,5.054l-1.179-1.348Zm0-3.032c1.853-1.179,2.527-2.864,2.527-6.4h-2.527Z" transform="translate(-261.697 -5.321)" fill="#fff"/>
          <path id="パス_141104" data-name="パス 141104" d="M315.4,11.628h1.853v1.853h-5.9v2.19h6.739v1.853h-6.739v2.19a12.3,12.3,0,0,0,.168,2.022h-2.19a12.639,12.639,0,0,0,.169-2.022v-2.7h-6.4V15.166h6.4V13.144h-5.559V11.459H309.5V7.922a13.806,13.806,0,0,0-.168-2.022h2.022a13.14,13.14,0,0,0-.168,2.022v3.706Zm-9.6-5.054a23.249,23.249,0,0,1,2.527,3.706l-1.685.842a18.026,18.026,0,0,0-2.527-3.875Zm10.95.842a21.9,21.9,0,0,1-2.527,3.875l-1.516-.842a16.678,16.678,0,0,0,2.359-3.875Z" transform="translate(-254.918 -5.732)" fill="#fff"/>
          <path id="パス_141105" data-name="パス 141105" d="M314.348,7.448a8.26,8.26,0,0,0,0-1.348H316.2a10.787,10.787,0,0,0,0,1.348v.168h2.359V7.448a10.291,10.291,0,0,0,0-1.348h1.853a8.086,8.086,0,0,0-.169,1.348v.168h1.179V9.3h-1.179v6.4h1.011v1.685H313V15.7h1.516V9.132h-1.179V7.616h1.348Zm2.359,10.782a10.613,10.613,0,0,1-2.527,3.032L313,19.914a7.413,7.413,0,0,0,2.359-2.527Zm1.685-7.749V9.132h-2.359v1.011Zm0,2.527V11.659h-2.359v1.179Zm0,2.7V14.355h-2.359V15.7Zm.337,1.685a6.233,6.233,0,0,0,1.516,1.685l-1.179,1.179a10.11,10.11,0,0,1-1.516-2.022Zm4.38-1.516a8.93,8.93,0,0,1-1.853,5.222l-1.348-1.348a5.391,5.391,0,0,0,1.348-3.032,58.132,58.132,0,0,0,.337-8.086,16.349,16.349,0,0,0,0-2.19h6.065a15.164,15.164,0,0,0,0,1.853V19.24c0,.842-.168,1.348-.674,1.516h-2.7a7.578,7.578,0,0,0-.337-1.853h1.516c.505,0,.674,0,.674-.337v-2.7ZM323.277,12a10.361,10.361,0,0,1-.168,2.359h2.527V12ZM325.8,8.29h-2.527v2.022H325.8Z" transform="translate(-248.14 -5.595)" fill="#fff"/>
          <path id="パス_141106" data-name="パス 141106" d="M326.611,10.112l3.032,2.19-1.011,1.516a15.665,15.665,0,0,0-3.032-2.19Zm2.864,5.559a24.765,24.765,0,0,1-1.853,4.38l-.505.842L325.6,19.546a14.656,14.656,0,0,0,2.359-4.886Zm-2.19-9.6a13.476,13.476,0,0,1,2.864,2.19l-1.179,1.516a12.467,12.467,0,0,0-2.864-2.359Zm8.592,8.592a8.76,8.76,0,0,0,5.054,4.549,6.066,6.066,0,0,0-1.011,1.853A10.782,10.782,0,0,1,334.7,15.84a8.929,8.929,0,0,1-4.717,5.222,5.392,5.392,0,0,0-1.179-1.685,6.738,6.738,0,0,0,4.549-4.886H329.98V12.807h3.706c0-.842.168-1.853.168-2.864h-3.032V8.259h3.032V7.416a7.586,7.586,0,0,0-.168-1.516h2.022a9.094,9.094,0,0,0-.168,1.516v.842h4.043a8.918,8.918,0,0,0,0,1.348v3.2h1.348v2.022h-5.054Zm1.853-1.685V10.112h-2.359a13.674,13.674,0,0,1-.168,2.864Z" transform="translate(-239.513 -5.732)" fill="#fff"/>
          <path id="パス_141107" data-name="パス 141107" d="M338.632,8.5a10.949,10.949,0,0,1-1.853,2.022L335.6,9.169a8.258,8.258,0,0,0,1.685-1.853,4.38,4.38,0,0,0,.842-1.516l1.685.505-.505.842h3.706V8.5a7.075,7.075,0,0,0,1.516-2.527l1.685.505-.337.842h4.886V9H347.73l.674,1.011-1.011.337h1.516v4.886a13.318,13.318,0,0,0,0,1.685h-2.19v.674h4.043v1.685h-4.043v1.179a8.255,8.255,0,0,0,.169,1.516h-1.853a8.765,8.765,0,0,0,.169-1.516V19.277h-3.369a3.538,3.538,0,0,1-1.516,1.853,7.919,7.919,0,0,1-2.7.842l-1.011-1.516,2.022-.337a2.527,2.527,0,0,0,1.516-1.011h-4.043V17.424h4.38V16.75h-2.359a12.8,12.8,0,0,0,0-1.685V9.843h2.19L339.643,8.5Zm1.011,3.2h7.581v-.674h-7.581Zm0,1.685h7.581v-.505h-7.581Zm0,1.685h7.581V14.56h-7.581Zm1.516-6.739.674,1.011-1.179.337h3.032l-1.179-.842.505-.505h-1.853Zm3.875,8.592v-.674H342a4.888,4.888,0,0,1,0,.674Zm1.853-7.244-.842-1.348h-1.011l-1.179,1.348Z" transform="translate(-232.666 -5.8)" fill="#fff"/>
          <path id="パス_141108" data-name="パス 141108" d="M349.375,12.1l-2.864,1.516L345.5,12.1l3.2-1.516a11.959,11.959,0,0,0-2.358-2.19l1.348-1.011.505.505V6.2h5.9A4.042,4.042,0,0,0,355.1,8.053l1.011-1.011.337-.505h.168l1.516.842-.674.674-1.179,1.179,1.011.842a9.434,9.434,0,0,0,1.685-2.022l1.516.842-.505.505-1.516,1.516,2.7,1.179a6.742,6.742,0,0,0-.842,1.685l-2.7-1.516v.674h-1.516v1.853h4.38v1.685h-4.38V19c0,.337,0,.337.168.505h1.011a2.425,2.425,0,0,0,1.516-.337,3.706,3.706,0,0,0,.337-1.685l1.853.505c-.337,2.864-.674,3.032-3.875,3.032s-2.7-.337-2.7-1.348V16.14h-2.19a5.9,5.9,0,0,1-1.011,2.359,7.75,7.75,0,0,1-3.875,2.527,5.9,5.9,0,0,0-1.179-1.685,7.076,7.076,0,0,0,3.032-1.516,3.875,3.875,0,0,0,1.179-1.853h-4.043V14.286h4.043V12.433h-1.011Zm-.169-4.212H348.2l1.685,1.685,1.685-1.685Zm6.57,3.369h.337a14.15,14.15,0,0,1-2.864-3.032,13.308,13.308,0,0,1-2.7,3.032Zm-3.538,3.032v.337h1.853V12.77h-1.853Z" transform="translate(-225.888 -5.526)" fill="#fff"/>
          <path id="パス_141109" data-name="パス 141109" d="M363.081,13.986,361.9,15.166v3.369l3.369-.842v1.685l-3.538.842-2.022.337H358.2l-.337-1.853h2.19V16.682l-3.538,1.853A7.749,7.749,0,0,0,355.5,16.85a12.8,12.8,0,0,0,5.222-2.7h-5.054V12.47h6.4V11.459h-5.054V9.775h5.054V8.932h-5.728V7.248h5.728A9.277,9.277,0,0,0,361.9,5.9h2.022a6.06,6.06,0,0,0-.168,1.348h6.065V8.932h-6.065V9.943h5.223v1.685h-5.223v1.011h6.739v1.685h-5.728a8.422,8.422,0,0,0,1.348,2.022,10.275,10.275,0,0,0,1.853-1.853l1.685,1.011-.337.337-2.022,1.685a11.962,11.962,0,0,0,3.538,1.853,6.4,6.4,0,0,0-1.179,1.853,12.3,12.3,0,0,1-4.885-3.538,13.477,13.477,0,0,1-1.853-3.369Z" transform="translate(-219.041 -5.732)" fill="#fff"/>
        </g>
        <line id="線_3917" data-name="線 3917" y1="37.063" transform="translate(567.061 97.543)" fill="none" stroke="#333" stroke-miterlimit="10" stroke-width="1.685"/>
        <g id="グループ_82373" data-name="グループ 82373" transform="translate(565.713 72.104)">
          <path id="パス_141110" data-name="パス 141110" d="M335.968,45.522A18.686,18.686,0,0,0,335.8,43.5h14.32a16.989,16.989,0,0,0-.169,2.022v9.94a13.306,13.306,0,0,0,.169,1.853h-1.853v-.842H337.822v.842h-1.853a11.446,11.446,0,0,0,.169-1.853Zm1.853,9.266h10.445v-9.6h-2.7v5.054c0,.337,0,.337.337.337h.505a9.777,9.777,0,0,0,.168-2.022l1.516.674c0,1.853-.169,2.359-.505,2.864s-.842.505-2.022.505-1.685-.168-1.685-1.348V45.185H342.2a20.375,20.375,0,0,1-.168,2.864,7.076,7.076,0,0,1-2.864,5.054l-1.179-1.348Zm0-3.032c1.853-1.179,2.527-2.864,2.527-6.4h-2.527Z" transform="translate(-335.8 -42.321)" fill="#fff"/>
          <path id="パス_141111" data-name="パス 141111" d="M357.9,48.628h1.853v1.853h-5.9v2.19h6.739v1.853h-6.739v2.19a12.294,12.294,0,0,0,.168,2.022h-2.19A12.639,12.639,0,0,0,352,56.714v-2.7h-6.4V52.166H352V50.144h-5.559V48.459H352V44.922a13.81,13.81,0,0,0-.168-2.022h2.022a13.137,13.137,0,0,0-.168,2.022v3.538Zm-9.6-5.054a23.249,23.249,0,0,1,2.527,3.706l-1.685.842a18.026,18.026,0,0,0-2.527-3.875Zm10.95.842a21.906,21.906,0,0,1-2.527,3.875l-1.516-.842a16.678,16.678,0,0,0,2.359-3.875Z" transform="translate(-329.09 -42.732)" fill="#fff"/>
          <path id="パス_141112" data-name="パス 141112" d="M356.948,44.516a8.26,8.26,0,0,0,0-1.348H358.8a10.781,10.781,0,0,0,0,1.348v.168h2.359v-.337a10.28,10.28,0,0,0,0-1.348h1.853a8.083,8.083,0,0,0-.169,1.348v.337h1.179v1.685h-1.179v6.4h1.011v1.685h-8.086V52.771h1.516V46.2h-1.179V44.685h1.348ZM359.306,55.3a10.614,10.614,0,0,1-2.527,3.032L355.6,56.983a7.413,7.413,0,0,0,2.358-2.527Zm1.685-7.749V46.538h-2.359v1.011Zm0,2.527V48.9h-2.359v1.179Zm0,2.7V51.423h-2.359v1.348Zm.337,1.685a6.233,6.233,0,0,0,1.516,1.685l-1.179,1.179a10.108,10.108,0,0,1-1.516-2.022Zm4.38-1.516a8.929,8.929,0,0,1-1.853,5.222l-1.348-1.348a5.392,5.392,0,0,0,1.348-3.032,58.113,58.113,0,0,0,.337-8.086,16.349,16.349,0,0,0,0-2.19h6.065a15.163,15.163,0,0,0,0,1.853v10.95c0,.842-.168,1.348-.674,1.516h-2.7a7.576,7.576,0,0,0-.337-1.853h1.516c.505,0,.674,0,.674-.337v-2.7Zm.168-3.875a10.361,10.361,0,0,1-.168,2.359h2.527V49.065Zm2.527-3.706h-2.527v2.19H368.4Z" transform="translate(-322.243 -42.663)" fill="#fff"/>
          <path id="パス_141113" data-name="パス 141113" d="M371.359,47.349h1.348v1.685h-.842a10.621,10.621,0,0,1-.505,1.853h1.516v1.685h-2.7v1.348h2.527V55.6H370.18v1.011a5.731,5.731,0,0,0,.168,1.685H368.5c0-.505.168-1.011.168-1.685V55.435h-2.527V53.75h2.527V52.4H365.8V50.718h1.685a12.461,12.461,0,0,0-.337-1.853h-1.179V47.18h2.864V46h-2.527V44.316h2.527v-.337a7.921,7.921,0,0,0-.169-1.179h1.853a6.923,6.923,0,0,0,0,1.179v.337h2.359V46h-2.359V47.18Zm-1.516,3.369a10.774,10.774,0,0,0,.505-1.853h-2.022a13.819,13.819,0,0,1,.337,1.853Zm10.445-1.179v.674a18.529,18.529,0,0,1-1.348,4.043,8.257,8.257,0,0,0,2.19,1.853l-1.011,1.685-2.19-2.19a10.952,10.952,0,0,1-2.022,2.19l-.842-1.348a13.8,13.8,0,0,0,.169,1.516h-1.853a13.818,13.818,0,0,0,.168-2.022V43.474h7.076v1.011c-.168,3.032-.337,3.369-2.19,3.369h-1.516a6.574,6.574,0,0,0-.337-1.516h1.685c.505,0,.674-.168.674-1.348H375.4v3.538h4.717ZM374.9,56.277a8.591,8.591,0,0,0,1.853-1.853,12.635,12.635,0,0,1-1.516-4.212H374.9Zm1.685-6.065a9.263,9.263,0,0,0,1.011,2.7,11.289,11.289,0,0,0,.842-2.7Z" transform="translate(-315.26 -42.8)" fill="#fff"/>
          <path id="パス_141114" data-name="パス 141114" d="M379.206,46.638a10.447,10.447,0,0,1-1.853,2.022l-1.348-1.179a8.255,8.255,0,0,0,2.527-3.032l.505-1.348,1.853.505-.674,1.516h2.19v-.505a7.743,7.743,0,0,0-.169-1.516h2.022a9.777,9.777,0,0,0-.168,1.516v.505h5.054v1.853h-5.054V49h6.233v1.853H375.5v-2.19h6.57V46.638ZM377.69,58.094a13.822,13.822,0,0,0,.169-1.853v-3.2a11.969,11.969,0,0,0,0-1.516h11.119a11.812,11.812,0,0,0,0,1.516v3.032a12.639,12.639,0,0,0,.169,1.853h-1.853v-.674H379.88v.674Zm1.853-2.359h7.413V53.208h-7.413Z" transform="translate(-308.618 -42.595)" fill="#fff"/>
          <path id="パス_141115" data-name="パス 141115" d="M392.239,45.159h-5.054V43.642h5.054a4.72,4.72,0,0,0-.168-.842h1.853a4.206,4.206,0,0,0-.168.842h5.054a12.122,12.122,0,0,0,0,1.348V45.5h1.685v1.348h-1.685v.674a9.421,9.421,0,0,0,0,1.179h-5.054V49.2h5.559v1.348h-5.559v.505h6.739v1.516H385.5V51.055h6.57v-.505h-5.391V49.2h5.391V48.7h-5.054V47.349h5.054v-.505H385.5V45.327h6.57Zm-4.549,9.266a15.811,15.811,0,0,0,0-1.685h11.287a11.455,11.455,0,0,0,0,1.685v2.19a9.94,9.94,0,0,0,.168,1.685h-1.853v-.505h-7.581V58.3h-1.853a14.83,14.83,0,0,0,0-1.685Zm1.685.168h7.581v-.505h-7.581Zm0,1.685h7.581V55.6h-7.581Zm8.086-11.287h-3.369V45.5h3.369Zm-3.369,1.853v.505h3.369v-.505Z" transform="translate(-301.772 -42.8)" fill="#fff"/>
        </g>
        <line id="線_3918" data-name="線 3918" y1="99.396" transform="translate(765.516 35.21)" fill="none" stroke="#333" stroke-miterlimit="10" stroke-width="1.685"/>
        <g id="グループ_82374" data-name="グループ 82374" transform="translate(690.379 9.771)">
          <path id="パス_141116" data-name="パス 141116" d="M416.707,17.524a13.815,13.815,0,0,1-5.728,3.369l-1.011-1.516a12.635,12.635,0,0,0,5.559-2.864h-2.864l-.337.842h-1.853a14.992,14.992,0,0,0,1.011-3.032,17.7,17.7,0,0,0,.169-1.853h4.885v-.842h-5.222V10.112l-.505.505L409.8,9.269A6.57,6.57,0,0,0,412.327,5.9l1.853.337-.505.842h3.706V8.427A6.4,6.4,0,0,0,418.729,5.9l1.685.337-.337.842h4.886V8.764H421.93l.674,1.179-1.348.337h2.359a6.566,6.566,0,0,0,0,1.179v1.685a7.576,7.576,0,0,0,0,1.179h-5.391v1.011h6.065v2.022c-.168,1.685-.337,2.022-.674,2.359a2.434,2.434,0,0,1-1.853.505h-1.516a6.907,6.907,0,0,0-.337-1.685h1.853c.842,0,1.011,0,1.011-1.853H418.56v2.7a11.441,11.441,0,0,0,0,1.853h-2.022a6.911,6.911,0,0,0,.169-1.348Zm-2.359-7.413L413.506,8.6h-.842l-1.348,1.516h3.032Zm2.359,4.043h-3.369v1.011h3.538Zm1.011-4.043L416.707,9.1l.674-.505h-1.853l.674,1.179-1.348.505Zm3.538,0L420.413,8.6H419.4l-1.348,1.516Zm-2.7,2.527h3.369V11.628h-3.538Z" transform="translate(-409.8 -5.732)" fill="#fff"/>
          <path id="パス_141117" data-name="パス 141117" d="M421.2,17.384l2.527.337c2.19,0,2.864-.842,2.864-2.022s-.842-1.853-2.527-1.853h-1.853l.337-1.853h.842c2.19,0,3.032-.842,3.032-2.022s-1.011-1.685-2.359-1.685a7.581,7.581,0,0,0-2.7.505V7.107a9.6,9.6,0,0,1,3.369-.505c2.7,0,3.875,1.348,3.875,3.2a3.2,3.2,0,0,1-2.022,3.032,2.864,2.864,0,0,1,2.527,3.032c0,2.19-1.685,3.875-4.886,3.875l-2.864-.337Z" transform="translate(-401.995 -5.254)" fill="#fff"/>
          <path id="パス_141118" data-name="パス 141118" d="M428.669,8.522A18.709,18.709,0,0,0,428.5,6.5h14.32a17.009,17.009,0,0,0-.168,2.022v9.94a13.307,13.307,0,0,0,.169,1.853h-1.853v-.842H430.522v.842h-1.853a11.46,11.46,0,0,0,.168-1.853Zm1.853,9.266h10.445v-9.6h-2.7v5.054c0,.337,0,.337.337.337h.505a9.775,9.775,0,0,0,.168-2.022l1.516.674c0,1.853-.169,2.359-.505,2.864s-.842.505-2.022.505-1.685-.168-1.685-1.348V8.185H434.9a20.385,20.385,0,0,1-.168,2.864,7.075,7.075,0,0,1-2.864,5.054l-1.179-1.348Zm0-3.032c1.853-1.179,2.527-2.864,2.527-6.4h-2.527Z" transform="translate(-396.997 -5.321)" fill="#fff"/>
          <path id="パス_141119" data-name="パス 141119" d="M450.6,11.628h1.853v1.853h-5.9v2.19h6.739v1.853h-6.739v2.19a12.3,12.3,0,0,0,.168,2.022h-2.19a12.617,12.617,0,0,0,.169-2.022v-2.7h-6.4V15.166h6.4V13.144h-5.559V11.459H444.7V7.922a13.814,13.814,0,0,0-.169-2.022h2.022a13.133,13.133,0,0,0-.169,2.022v3.706ZM441,6.574a23.255,23.255,0,0,1,2.527,3.706l-1.685.842a18.027,18.027,0,0,0-2.527-3.875Zm10.95.842a21.9,21.9,0,0,1-2.527,3.875l-1.516-.842a16.678,16.678,0,0,0,2.359-3.875Z" transform="translate(-390.287 -5.732)" fill="#fff"/>
          <path id="パス_141120" data-name="パス 141120" d="M449.648,7.448a8.26,8.26,0,0,0,0-1.348H451.5a10.77,10.77,0,0,0,0,1.348v.168h2.359V7.448a10.291,10.291,0,0,0,0-1.348h1.853a8.077,8.077,0,0,0-.169,1.348v.168h1.179V9.3h-1.179v6.4h1.011v1.685h-8.086V15.7h1.516V9.132h-1.179V7.616h1.348Zm2.359,10.782a10.611,10.611,0,0,1-2.527,2.864L448.3,19.746a7.412,7.412,0,0,0,2.358-2.527Zm1.685-7.749V9.132h-2.359v1.011Zm0,2.527V11.659h-2.359v1.179Zm0,2.7V14.355h-2.359V15.7Zm.337,1.685a6.233,6.233,0,0,0,1.516,1.685l-1.179,1.179a10.115,10.115,0,0,1-1.516-2.022Zm4.38-1.516a8.929,8.929,0,0,1-1.853,5.222l-1.348-1.348a5.391,5.391,0,0,0,1.348-3.032,58.142,58.142,0,0,0,.337-8.086,16.349,16.349,0,0,0,0-2.19h6.065a15.164,15.164,0,0,0,0,1.853V19.24c0,.842-.168,1.348-.674,1.516h-2.7a7.579,7.579,0,0,0-.337-1.853h1.516c.505,0,.674,0,.674-.337v-2.7ZM458.577,12a10.357,10.357,0,0,1-.169,2.359h2.527V12ZM461.1,8.29h-2.527v2.022H461.1Z" transform="translate(-383.44 -5.595)" fill="#fff"/>
          <path id="パス_141121" data-name="パス 141121" d="M461.911,10.112l3.032,2.022-1.011,1.516a15.668,15.668,0,0,0-3.032-2.19Zm2.864,5.559a24.766,24.766,0,0,1-1.853,4.38l-.505.842L460.9,19.546a14.657,14.657,0,0,0,2.358-4.886Zm-2.19-9.6a13.476,13.476,0,0,1,2.864,2.19l-1.179,1.516a12.467,12.467,0,0,0-2.864-2.359Zm8.592,8.592a8.761,8.761,0,0,0,5.054,4.549,6.067,6.067,0,0,0-1.011,1.853A10.782,10.782,0,0,1,470,15.84a8.929,8.929,0,0,1-4.717,5.222,5.391,5.391,0,0,0-1.179-1.685,6.739,6.739,0,0,0,4.549-4.886H465.28V12.807h3.706c0-.842.168-1.853.168-2.864h-3.032V8.259h3.032V7.416a7.586,7.586,0,0,0-.168-1.516h2.022a9.094,9.094,0,0,0-.169,1.516v.842h4.043a8.926,8.926,0,0,0,0,1.348v3.2h1.348v2.022h-5.054Zm1.853-1.685V10.112h-2.359a13.674,13.674,0,0,1-.168,2.864Z" transform="translate(-374.813 -5.732)" fill="#fff"/>
          <path id="パス_141122" data-name="パス 141122" d="M473.932,8.5a10.952,10.952,0,0,1-1.853,2.022L470.9,9.169a8.259,8.259,0,0,0,1.685-1.853,4.38,4.38,0,0,0,.842-1.516l1.685.505-.505.842h3.706V8.5a7.076,7.076,0,0,0,1.516-2.527l1.685.505-.337.842h4.886V9H483.03l.674,1.011-1.011.337h1.516v4.886a13.318,13.318,0,0,0,0,1.685h-2.19v.674h4.043v1.685h-4.043v1.179a8.255,8.255,0,0,0,.169,1.516h-1.853a8.765,8.765,0,0,0,.168-1.516V19.277h-3.369a3.538,3.538,0,0,1-1.516,1.853,7.919,7.919,0,0,1-2.7.842l-1.011-1.516,2.022-.337a2.527,2.527,0,0,0,1.516-1.011h-4.38V17.424h4.38V16.75H473.09a12.782,12.782,0,0,0,0-1.685V9.843h2.19L474.606,8.5Zm1.011,3.2h7.581v-.674h-7.581Zm0,1.685h7.581v-.505h-7.581Zm0,1.685h7.581V14.56h-7.581Zm1.516-6.739.674,1.011-1.179.337h3.032l-1.179-.842.505-.505h-1.853Zm3.875,8.592v-.674H477.3a4.888,4.888,0,0,1,0,.674Zm1.853-7.244-.842-1.348h-1.011l-1.179,1.348Z" transform="translate(-367.966 -5.8)" fill="#fff"/>
          <path id="パス_141123" data-name="パス 141123" d="M484.675,12.1l-2.864,1.516L480.8,12.1,484,10.58a11.958,11.958,0,0,0-2.358-2.19l1.348-1.011.505.505V6.2h5.9A4.042,4.042,0,0,0,490.4,8.053l1.011-1.011.337-.505h.168l1.516.842-.674.674-1.179,1.179,1.011.842a9.436,9.436,0,0,0,1.685-2.022l1.516.842-.505.505-1.516,1.516,2.7,1.179a6.742,6.742,0,0,0-.842,1.685l-2.7-1.516v.674h-1.516v1.853h4.38v1.685h-4.38V19c0,.337,0,.337.168.505h1.011a2.425,2.425,0,0,0,1.516-.337,3.706,3.706,0,0,0,.337-1.685l1.853.505c-.337,2.864-.674,3.032-3.875,3.032s-2.7-.337-2.7-1.348V16.14h-2.19a5.9,5.9,0,0,1-1.011,2.359,7.75,7.75,0,0,1-3.875,2.527,5.9,5.9,0,0,0-1.179-1.685,7.075,7.075,0,0,0,3.032-1.516,3.875,3.875,0,0,0,1.179-1.853h-3.875V14.286h4.043V12.433h-1.011Zm-.169-4.38H483.5L485.18,9.4l1.685-1.685Zm6.57,3.369h.337a14.152,14.152,0,0,1-2.864-3.032,13.308,13.308,0,0,1-2.7,3.032Zm-3.538,3.032v.337h1.853V12.77h-1.853Z" transform="translate(-361.188 -5.526)" fill="#fff"/>
          <path id="パス_141124" data-name="パス 141124" d="M498.381,13.986,497.2,15.166v3.369l3.369-.842v1.685l-3.538.842-2.022.337H493.5l-.337-1.853h2.19V16.682l-3.538,1.853A7.749,7.749,0,0,0,490.8,16.85a12.8,12.8,0,0,0,5.223-2.7h-5.054V12.47h6.4V11.459h-5.054V9.775h5.054V8.932h-5.728V7.248h5.728A9.269,9.269,0,0,0,497.2,5.9h2.359a6.067,6.067,0,0,0-.168,1.348h6.065V8.932h-6.065V9.943h5.222v1.685h-5.222v1.011h6.739v1.685H500.4a8.426,8.426,0,0,0,1.348,2.022,10.279,10.279,0,0,0,1.853-1.853l1.685,1.011-.337.337-2.022,1.685a11.961,11.961,0,0,0,3.538,1.853,6.4,6.4,0,0,0-1.179,1.853,12.3,12.3,0,0,1-4.886-3.538,13.478,13.478,0,0,1-1.853-3.369Z" transform="translate(-354.341 -5.732)" fill="#fff"/>
        </g>
        <line id="線_3919" data-name="線 3919" y1="37.063" transform="translate(794.829 97.543)" fill="none" stroke="#333" stroke-miterlimit="10" stroke-width="1.685"/>
        <rect id="長方形_12287" data-name="長方形 12287" width="140.502" height="34.536" rx="17.184" transform="translate(773.602 62.67)" fill="#002060"/>
        <g id="グループ_82375" data-name="グループ 82375" transform="translate(795.334 72.104)">
          <path id="パス_141125" data-name="パス 141125" d="M472.268,45.522A18.851,18.851,0,0,0,472.1,43.5h14.32a17.145,17.145,0,0,0,0,2.022v9.94a13.46,13.46,0,0,0,0,1.853h-1.853v-.842H474.122v.842h-1.853a11.45,11.45,0,0,0,.169-1.853Zm1.853,9.266h10.445v-9.6h-2.7v5.054c0,.337,0,.337.337.337h.505a9.936,9.936,0,0,0,.169-2.022l1.516.674c0,1.853-.168,2.359-.505,2.864s-.842.505-2.022.505-1.685-.168-1.685-1.348V45.185H478.5a20.375,20.375,0,0,1-.169,2.864,7.075,7.075,0,0,1-2.864,5.054l-1.179-1.348Zm0-3.032c1.853-1.179,2.527-2.864,2.527-6.4h-2.527Z" transform="translate(-472.1 -42.321)" fill="#fff"/>
          <path id="パス_141126" data-name="パス 141126" d="M494.2,48.628h1.853v1.853h-5.9v2.19h6.739v1.853h-6.739v2.19a12.128,12.128,0,0,0,.168,2.022h-2.19a12.632,12.632,0,0,0,.169-2.022v-2.7h-6.4V52.166h6.4V50.144h-5.559V48.459H488.3V44.922a13.81,13.81,0,0,0-.169-2.022h2.022a13.312,13.312,0,0,0-.168,2.022v3.538Zm-9.6-5.054a23.243,23.243,0,0,1,2.527,3.706l-1.685.842a18.023,18.023,0,0,0-2.527-3.875Zm10.95.842a21.894,21.894,0,0,1-2.527,3.875l-1.516-.842a16.677,16.677,0,0,0,2.359-3.875Z" transform="translate(-465.39 -42.732)" fill="#fff"/>
          <path id="パス_141127" data-name="パス 141127" d="M493.316,44.516a8.26,8.26,0,0,0,0-1.348h1.853a10.77,10.77,0,0,0,0,1.348v.168h2.359v-.337a9.931,9.931,0,0,0,0-1.348h1.853a8.086,8.086,0,0,0,0,1.348v.337h1.179v1.685h-1.685v6.4h1.011v1.685H491.8V52.771h1.516V46.2h-1.179V44.685h1.179ZM495.675,55.3a10.616,10.616,0,0,1-2.527,3.032l-1.179-1.348a7.414,7.414,0,0,0,2.359-2.527Zm1.685-7.749V46.538H495v1.011Zm0,2.527V48.9H495v1.179Zm0,2.7V51.423H495v1.348Zm.337,1.685a6.231,6.231,0,0,0,1.516,1.685l-1.179,1.179a10.108,10.108,0,0,1-1.685-2.022Zm4.38-1.516a8.929,8.929,0,0,1-1.853,5.222l-1.348-1.348a5.39,5.39,0,0,0,1.348-3.032,58.123,58.123,0,0,0,.337-8.086,16.349,16.349,0,0,0,0-2.19h6.065a15.139,15.139,0,0,0,0,1.853v10.95c0,.842-.169,1.348-.674,1.516h-2.7a7.752,7.752,0,0,0-.337-1.853h1.516c.505,0,.674,0,.674-.337v-2.7Zm.168-3.875v2.359h2.527V49.065Zm2.527-3.706h-2.527v2.19h2.527Z" transform="translate(-458.612 -42.663)" fill="#fff"/>
          <path id="パス_141128" data-name="パス 141128" d="M507.8,47.349h1.348v1.685H508.3a10.615,10.615,0,0,1-.505,1.853h1.516v1.685h-2.7v1.348h2.527V55.6h-2.527v2.7h-1.853V55.435h-2.527V53.75h2.527V52.4H501.9V50.718h1.685a12.293,12.293,0,0,0-.337-1.853h-1.179V47.18h2.864V46h-2.527V44.316h2.527v-.337a7.906,7.906,0,0,0,0-1.179h1.853a6.9,6.9,0,0,0,0,1.179v.337h2.022V46h-2.359V47.18Zm-1.685,3.369a10.78,10.78,0,0,0,.505-1.853H504.6a14.146,14.146,0,0,1,.337,1.853Zm10.445-1.179v.674a18.529,18.529,0,0,1-1.348,4.043,8.257,8.257,0,0,0,2.19,1.853l-1.011,1.685L514.2,55.6a10.952,10.952,0,0,1-2.022,2.19l-.842-1.348a13.8,13.8,0,0,0,.168,1.516H509.65a13.81,13.81,0,0,0,.168-2.022V43.474h7.076v1.011c-.169,3.032-.337,3.369-2.19,3.369h-1.516a6.575,6.575,0,0,0-.337-1.516h1.685c.505,0,.674-.168.674-1.348h-3.538v3.538h4.717Zm-5.391,6.739a8.591,8.591,0,0,0,1.853-1.853,12.637,12.637,0,0,1-1.516-4.212h-.337Zm1.685-6.065a9.263,9.263,0,0,0,1.011,2.7,11.292,11.292,0,0,0,.843-2.7Z" transform="translate(-451.697 -42.8)" fill="#fff"/>
          <path id="パス_141129" data-name="パス 141129" d="M515.369,46.638a10.448,10.448,0,0,1-1.853,2.022l-1.348-1.179a8.256,8.256,0,0,0,2.527-3.032L515.2,43.1l1.853.505-.674,1.516h2.19v-.505A7.74,7.74,0,0,0,518.4,43.1h2.022a9.747,9.747,0,0,0-.168,1.516v.505h5.054v1.853h-5.054V49h6.233v1.853H512v-2.19h6.57V46.638Zm-1.516,11.456a13.822,13.822,0,0,0,.168-1.853v-3.2a11.969,11.969,0,0,0,0-1.516H525.14a11.768,11.768,0,0,0,0,1.516v3.032a12.647,12.647,0,0,0,.168,1.853h-1.853v-.674h-7.413v.674Zm1.853-2.359h7.413V53.208h-7.413Z" transform="translate(-444.782 -42.595)" fill="#fff"/>
          <path id="パス_141130" data-name="パス 141130" d="M528.539,45.159h-5.054V43.642h5.054a4.72,4.72,0,0,0-.168-.842h1.853a4.206,4.206,0,0,0-.168.842h5.054a12.107,12.107,0,0,0,0,1.348V45.5h1.685v1.348h-1.685v.674a9.432,9.432,0,0,0,0,1.179h-5.054V49.2h5.559v1.348h-5.559v.505h6.739v1.516H521.8V51.055h6.57v-.505h-5.391V49.2h5.391V48.7h-5.054V47.349h5.054v-.505H521.8V45.327h6.57Zm-4.549,9.266a15.827,15.827,0,0,0,0-1.685h11.287a11.438,11.438,0,0,0,0,1.685v2.19a9.946,9.946,0,0,0,.168,1.685h-1.853v-.505h-7.581V58.3h-2.19a14.83,14.83,0,0,0,0-1.685Zm1.685.168h7.581v-.505h-7.581Zm0,1.685h7.581V55.6h-7.581Zm8.086-11.287h-3.369V45.5h3.369Zm-3.369,1.853v.505h3.369v-.505Z" transform="translate(-438.072 -42.8)" fill="#fff"/>
        </g>
      </g>
    </g>
  </g>
</svg>
