<svg id="コンポーネント_22_2" data-name="コンポーネント 22 – 2" xmlns="http://www.w3.org/2000/svg" width="72" height="72" viewBox="0 0 72 72">
  <rect id="長方形_11181" data-name="長方形 11181" width="72" height="72" fill="#fff"/>
  <g id="グループ_86085" data-name="グループ 86085" transform="translate(-231.018 -362.394)">
    <path id="パス_143020" data-name="パス 143020" d="M236.8,421.563a1.051,1.051,0,0,1-.834-1.688l9.694-12.68c.4-.663,3.446-5.273,10.49-5.273,4.913,0,9.9-.308,12.877-.494,1.2-.074,2.07-.127,2.482-.133,1.6-.014,3.552.112,4.746,1.376a3.645,3.645,0,0,1,.91,2.887c-.274,3.84-3.981,4.458-7.566,5.055a84.655,84.655,0,0,1-8.578.854,1.068,1.068,0,0,1-1.1-1,1.051,1.051,0,0,1,1-1.1c.046,0,4.673-.218,8.327-.827,3.936-.656,5.675-1.15,5.817-3.133a1.532,1.532,0,0,0-.342-1.293c-.714-.755-2.579-.734-3.188-.719-.394.006-1.232.059-2.383.13-3,.187-8.029.5-13.007.5-6.161,0-8.6,4.106-8.706,4.281a1.021,1.021,0,0,1-.078.116l-9.731,12.729A1.046,1.046,0,0,1,236.8,421.563Z" fill="#237cd5"/>
    <path id="パス_143021" data-name="パス 143021" d="M250.134,431.206a1.053,1.053,0,0,1-.859-1.655,93.929,93.929,0,0,1,7.853-9.781c2.033-2.031,6.668-1.807,10.756-1.61,1.385.066,2.7.128,3.605.074,2.567-.156,10.281-6.944,14.631-11.577,2.921-3.113,9.342-11.505,10.026-13.257a3.61,3.61,0,0,0-1.991-.9,5.517,5.517,0,0,0-4.949,1.8c-5.139,5.277-7.618,7.686-9.668,8.942a1.051,1.051,0,1,1-1.1-1.793c1.858-1.137,4.252-3.47,9.26-8.615a7.481,7.481,0,0,1,8.259-2c1.435.583,2.327,1.548,2.327,2.52,0,2.138-9.028,13.026-10.635,14.738-.112.12-11.345,11.952-16.035,12.238-1.023.063-2.389,0-3.833-.075-3.289-.157-7.794-.375-9.169,1a93.6,93.6,0,0,0-7.619,9.5A1.052,1.052,0,0,1,250.134,431.206Zm46.072-37.721Zm-.013-.229Z" fill="#237cd5"/>
    <path id="パス_143022" data-name="パス 143022" d="M266.921,380.715a1.045,1.045,0,0,1-.742-.307l-6.551-6.551a1.05,1.05,0,0,1,1.485-1.485l5.808,5.807,6-6a1.051,1.051,0,0,1,1.487,1.485l-6.744,6.743A1.047,1.047,0,0,1,266.921,380.715Z" fill="#237cd5"/>
    <path id="パス_143023" data-name="パス 143023" d="M267.018,393.14a1.05,1.05,0,0,1-1.051-1.051V379.666a1.05,1.05,0,1,1,2.1,0v12.423A1.05,1.05,0,0,1,267.018,393.14Z" fill="#237cd5"/>
    <path id="パス_143024" data-name="パス 143024" d="M272.028,383.765h-10.02a1.05,1.05,0,1,1,0-2.1h10.02a1.05,1.05,0,1,1,0,2.1Z" fill="#237cd5"/>
    <path id="パス_143025" data-name="パス 143025" d="M272.028,387.39h-10.02a1.051,1.051,0,1,1,0-2.1h10.02a1.051,1.051,0,1,1,0,2.1Z" fill="#237cd5"/>
    <path id="パス_143026" data-name="パス 143026" d="M267.017,367.683a14.088,14.088,0,1,1-14.561,14.08,14.343,14.343,0,0,1,14.561-14.08m0-2.1a16.188,16.188,0,1,0,16.662,16.181,16.427,16.427,0,0,0-16.662-16.181" fill="#237cd5"/>
  </g>
</svg>
