<svg id="コンポーネント_23_2" data-name="コンポーネント 23 – 2" xmlns="http://www.w3.org/2000/svg" width="72" height="72" viewBox="0 0 72 72">
  <rect id="長方形_11180" data-name="長方形 11180" width="72" height="72" fill="#f2f2f2" opacity="0"/>
  <g id="グループ_86083" data-name="グループ 86083" transform="translate(-151.646 -362.394)">
    <g id="グループ_86079" data-name="グループ 86079">
      <path id="パス_143003" data-name="パス 143003" d="M200.151,427.216H174.009a1,1,0,0,1-1-1V385.774a1,1,0,0,1,1-1h26.142a1,1,0,0,1,1,1v40.442A1,1,0,0,1,200.151,427.216Zm-25.142-2h24.142V386.774H175.009Z" fill="#237cd5"/>
    </g>
    <path id="パス_143004" data-name="パス 143004" d="M184.216,397.162H179.86a1,1,0,0,1-1-1v-4.355a1,1,0,0,1,1-1h4.356a1,1,0,0,1,1,1v4.355A1,1,0,0,1,184.216,397.162Zm-3.356-2h2.356v-2.355H180.86Z" fill="#237cd5"/>
    <path id="パス_143005" data-name="パス 143005" d="M194.3,397.162h-4.356a1,1,0,0,1-1-1v-4.355a1,1,0,0,1,1-1H194.3a1,1,0,0,1,1,1v4.355A1,1,0,0,1,194.3,397.162Zm-3.356-2H193.3v-2.355h-2.356Z" fill="#237cd5"/>
    <path id="パス_143006" data-name="パス 143006" d="M184.216,406.192H179.86a1,1,0,0,1-1-1v-4.355a1,1,0,0,1,1-1h4.356a1,1,0,0,1,1,1v4.355A1,1,0,0,1,184.216,406.192Zm-3.356-2h2.356v-2.355H180.86Z" fill="#237cd5"/>
    <path id="パス_143007" data-name="パス 143007" d="M194.3,406.192h-4.356a1,1,0,0,1-1-1v-4.355a1,1,0,0,1,1-1H194.3a1,1,0,0,1,1,1v4.355A1,1,0,0,1,194.3,406.192Zm-3.356-2H193.3v-2.355h-2.356Z" fill="#237cd5"/>
    <g id="グループ_86080" data-name="グループ 86080">
      <path id="パス_143008" data-name="パス 143008" d="M191.814,424.274a1,1,0,0,1-1-1v-10.62h-7.468v10.62a1,1,0,1,1-2,0v-11.62a1,1,0,0,1,1-1h9.468a1,1,0,0,1,1,1v11.62A1,1,0,0,1,191.814,424.274Z" fill="#237cd5"/>
      <path id="パス_143009" data-name="パス 143009" d="M187.08,424.274a1,1,0,0,1-1-1v-11.62a1,1,0,1,1,2,0v11.62A1,1,0,0,1,187.08,424.274Z" fill="#237cd5"/>
    </g>
    <path id="パス_143010" data-name="パス 143010" d="M200.151,381.96H195.8a1,1,0,0,1-1-1v-4.355a1,1,0,0,1,1-1h4.354a1,1,0,0,1,1,1v4.355A1,1,0,0,1,200.151,381.96Zm-3.354-2h2.354v-2.355H196.8Z" fill="#237cd5"/>
    <path id="パス_143011" data-name="パス 143011" d="M210.235,381.96h-4.354a1,1,0,0,1-1-1v-4.355a1,1,0,0,1,1-1h4.354a1,1,0,0,1,1,1v4.355A1,1,0,0,1,210.235,381.96Zm-3.354-2h2.354v-2.355h-2.354Z" fill="#237cd5"/>
    <path id="パス_143012" data-name="パス 143012" d="M210.235,390.989h-4.354a1,1,0,0,1-1-1v-4.355a1,1,0,0,1,1-1h4.354a1,1,0,0,1,1,1v4.355A1,1,0,0,1,210.235,390.989Zm-3.354-2h2.354v-2.355h-2.354Z" fill="#237cd5"/>
    <g id="グループ_86081" data-name="グループ 86081">
      <path id="パス_143013" data-name="パス 143013" d="M216.087,412.013H205.88a1,1,0,0,1,0-2h9.207V371.572H190.943v10.822a1,1,0,0,1-2,0V370.572a1,1,0,0,1,1-1h26.144a1,1,0,0,1,1,1v40.441A1,1,0,0,1,216.087,412.013Z" fill="#237cd5"/>
    </g>
    <path id="パス_143014" data-name="パス 143014" d="M179.5,381.96h-4.354a1,1,0,0,1-1-1v-4.355a1,1,0,0,1,1-1H179.5a1,1,0,0,1,1,1v4.355A1,1,0,0,1,179.5,381.96Zm-3.354-2H178.5v-2.355h-2.354Z" fill="#237cd5"/>
    <path id="パス_143015" data-name="パス 143015" d="M169.411,381.96h-4.354a1,1,0,0,1-1-1v-4.355a1,1,0,0,1,1-1h4.354a1,1,0,0,1,1,1v4.355A1,1,0,0,1,169.411,381.96Zm-3.354-2h2.354v-2.355h-2.354Z" fill="#237cd5"/>
    <path id="パス_143016" data-name="パス 143016" d="M169.411,390.989h-4.354a1,1,0,0,1-1-1v-4.355a1,1,0,0,1,1-1h4.354a1,1,0,0,1,1,1v4.355A1,1,0,0,1,169.411,390.989Zm-3.354-2h2.354v-2.355h-2.354Z" fill="#237cd5"/>
    <g id="グループ_86082" data-name="グループ 86082">
      <path id="パス_143017" data-name="パス 143017" d="M169.412,412.013H159.206a1,1,0,0,1-1-1V370.572a1,1,0,0,1,1-1h26.142a1,1,0,0,1,1,1v11.822a1,1,0,0,1-2,0V371.572H160.206v38.441h9.206a1,1,0,1,1,0,2Z" fill="#237cd5"/>
    </g>
    <path id="パス_143018" data-name="パス 143018" d="M209.6,408.783a1,1,0,0,1-1-1V397.161h-2.028v10.622a1,1,0,0,1-2,0V396.161a1,1,0,0,1,1-1H209.6a1,1,0,0,1,1,1v11.622A1,1,0,0,1,209.6,408.783Z" fill="#237cd5"/>
    <path id="パス_143019" data-name="パス 143019" d="M169.411,408.783a1,1,0,0,1-1-1V397.161h-2.026v10.622a1,1,0,0,1-2,0V396.161a1,1,0,0,1,1-1h4.026a1,1,0,0,1,1,1v11.622A1,1,0,0,1,169.411,408.783Z" fill="#237cd5"/>
  </g>
</svg>
