<svg id="コンポーネント_24_2" data-name="コンポーネント 24 – 2" xmlns="http://www.w3.org/2000/svg" width="72" height="72" viewBox="0 0 72 72">
  <rect id="長方形_11182" data-name="長方形 11182" width="72" height="72" fill="#fff"/>
  <g id="グループ_86087" data-name="グループ 86087" transform="translate(-315.158 -362.394)">
    <path id="パス_143027" data-name="パス 143027" d="M351.287,407.991c-3.875,0-6.68-5.151-6.68-8.624a6.684,6.684,0,0,1,13.362-.4c0,.143,0,.287,0,.43h0C357.95,402.871,355.151,407.991,351.287,407.991Zm0-13.491-.151,0a4.689,4.689,0,0,0-4.531,4.833c0,2.863,2.314,6.656,4.68,6.656s4.681-3.793,4.681-6.624v-.048c0-.1,0-.191,0-.286A4.691,4.691,0,0,0,351.289,394.5Z" fill="#237cd5"/>
    <path id="パス_143028" data-name="パス 143028" d="M349.829,386.539c-3.874,0-6.679-5.152-6.679-8.624a6.683,6.683,0,0,1,13.361-.4c0,.144,0,.287,0,.431h0C356.493,381.419,353.693,386.539,349.829,386.539Zm0-13.491-.152,0a4.682,4.682,0,0,0-4.529,4.833c0,2.863,2.314,6.656,4.679,6.656s4.682-3.793,4.682-6.624v-.04c0-.1,0-.2,0-.294A4.69,4.69,0,0,0,349.831,373.048Z" fill="#237cd5"/>
    <path id="パス_143029" data-name="パス 143029" d="M333.386,403.545c-3.874,0-6.679-5.153-6.679-8.625a6.683,6.683,0,0,1,13.361-.4c0,.144,0,.287,0,.431h0C340.05,398.425,337.25,403.545,333.386,403.545Zm0-13.492h-.152a4.687,4.687,0,0,0-4.53,4.833c0,2.864,2.314,6.658,4.68,6.658s4.681-3.794,4.681-6.625v-.04c0-.1,0-.2,0-.294A4.69,4.69,0,0,0,333.388,390.053Z" fill="#237cd5"/>
    <path id="パス_143030" data-name="パス 143030" d="M368.778,399.918c-3.875,0-6.68-5.152-6.68-8.624a6.685,6.685,0,0,1,6.466-6.864,6.692,6.692,0,0,1,6.894,6.465c.006.141.006.29,0,.439h0C375.436,394.8,372.638,399.918,368.778,399.918Zm0-13.491h-.153a4.687,4.687,0,0,0-4.531,4.833c0,2.864,2.314,6.657,4.681,6.657s4.679-3.793,4.679-6.624c0-.019,0-.037,0-.056,0-.091,0-.181,0-.27A4.691,4.691,0,0,0,368.781,386.427Z" fill="#237cd5"/>
    <path id="パス_143031" data-name="パス 143031" d="M351.326,425.742c-4.967,0-10.941-3.116-10.941-5.074V413.53c0-4.069,3.209-4.822,6.04-5.486a1.006,1.006,0,0,1,1.041.39l3.86,5.373,3.856-5.369a.99.99,0,0,1,1.008-.4c2.564.512,6.076,1.213,6.076,5.489v7.138C362.266,422.626,356.292,425.742,351.326,425.742Zm-8.941-5.268c.661.818,4.646,3.268,8.941,3.268s8.277-2.45,8.94-3.269V413.53c0-2.089-1.021-2.778-3.839-3.4l-4.289,5.97a1.036,1.036,0,0,1-1.624,0l-4.28-5.958c-2.781.689-3.849,1.272-3.849,3.384Z" fill="#237cd5"/>
    <path id="パス_143032" data-name="パス 143032" d="M333.464,421.258c-4.971,0-10.944-3.117-10.944-5.075v-7.1c0-4.06,3.256-4.828,5.873-5.447a1,1,0,0,1,1.042.391l3.953,5.5L337.359,404a.994.994,0,0,1,1.007-.4c1.911.38,3.724.827,4.912,2.109a1,1,0,1,1-1.466,1.359A6.289,6.289,0,0,0,338.6,405.7l-4.4,6.133a1.038,1.038,0,0,1-1.625,0l-4.371-6.087c-2.608.655-3.684,1.255-3.684,3.342v6.907c.661.817,4.645,3.268,8.94,3.268a13.492,13.492,0,0,0,3.65-.522,1,1,0,0,1,.549,1.924A15.468,15.468,0,0,1,333.464,421.258Zm-9-5.352" fill="#237cd5"/>
    <path id="パス_143033" data-name="パス 143033" d="M368.856,417.669a15.421,15.421,0,0,1-4-.559,1,1,0,0,1,.533-1.928,13.344,13.344,0,0,0,3.478.487c4.29,0,8.274-2.45,8.935-3.269v-6.942c0-2.111-1.132-2.8-3.806-3.382l-4.4,6.126a1.038,1.038,0,0,1-1.625,0l-4.376-6.094c-2.63.659-3.716,1.26-3.716,3.35a1,1,0,0,1-2,0c0-4.062,3.138-4.8,5.906-5.454a1,1,0,0,1,1.042.39l3.957,5.51,3.965-5.522a1,1,0,0,1,1.007-.4c2.408.477,6.046,1.2,6.046,5.475V412.6C379.8,414.553,373.823,417.669,368.856,417.669Zm9-5.352Z" fill="#237cd5"/>
    <path id="パス_143034" data-name="パス 143034" d="M347.348,391.782a1,1,0,0,1-.813-.417l-1.9-2.643c-1.461.353-2.6.731-3.173,1.464a1,1,0,1,1-1.581-1.224c1.054-1.364,2.792-1.848,4.954-2.34a.987.987,0,0,1,1.034.391l2.288,3.186a1,1,0,0,1-.811,1.583Z" fill="#237cd5"/>
    <path id="パス_143035" data-name="パス 143035" d="M359.845,400.18a1,1,0,0,1-1-1v-7.1c0-2.109-1.13-2.8-3.8-3.38l-1.548,2.153a1,1,0,1,1-1.624-1.168L353.8,387a.99.99,0,0,1,1.006-.4c2.405.476,6.041,1.2,6.041,5.472v7.1A1,1,0,0,1,359.845,400.18Z" fill="#237cd5"/>
  </g>
</svg>
