<svg xmlns="http://www.w3.org/2000/svg" width="220" height="97.87" viewBox="0 0 220 97.87">
  <g id="アートワーク_32" data-name="アートワーク 32" transform="translate(110 48.935)">
    <g id="グループ_78600" data-name="グループ 78600" transform="translate(-110 -48.935)">
      <path id="パス_98892" data-name="パス 98892" d="M19.631,36.839c0,3.985.221,4.354,5.314,4.354v1.993H8.782V41.193c5.092,0,5.314-.369,5.314-4.354V4.957H7.232c-3.321,0-3.764.3-4.945,6.863H0L1.328,2.3H32.4l1.328,9.446H31.513c-1.181-6.642-1.7-6.863-5.018-6.863H19.631Z" transform="translate(0 -0.603)"/>
      <path id="パス_98893" data-name="パス 98893" d="M53.108,23.775C55.47,20.6,57.315,19.2,59.9,19.2a4.649,4.649,0,0,1,3.321,1.328,3.985,3.985,0,0,1,1.328,2.952c0,1.55-.812,2.509-2.14,2.509S60.562,25.473,60.12,24s-.886-2.066-1.845-2.066-3.1,1.771-5.092,4.8V41.709c0,3.616.369,4.133,3.911,4.133v1.7H44.4v-1.7c3.026,0,3.321-.369,3.321-4.207V27.318c0-3.542-.3-3.911-3.321-3.911v-1.55a21.033,21.033,0,0,0,7.749-2.583l.664.369.221,4.133Z" transform="translate(-11.632 -5.03)"/>
      <path id="パス_98894" data-name="パス 98894" d="M77.292,25.735c-1.624-3.542-1.993-3.764-4.133-3.764V20.2H84.967v1.7c-3.026,0-3.247.59-2.14,3.173l7.159,16.458h.148l7.011-17.343c.738-1.771.443-2.214-2.288-2.214V20.2h8.413v1.7c-1.919,0-2.435.3-3.469,2.731L87.476,54.665a17.343,17.343,0,0,1-3.616,5.683A7.454,7.454,0,0,1,78.4,62.635a7.675,7.675,0,0,1-4.5-1.255,3.542,3.542,0,0,1-1.7-2.8,1.845,1.845,0,0,1,1.771-1.919,3.1,3.1,0,0,1,2.8,1.919c.59,1.033,1.181,1.845,2.362,1.845,2.509,0,4.5-3.542,5.609-5.83L87.4,47.506Z" transform="translate(-18.915 -5.292)"/>
      <path id="パス_98895" data-name="パス 98895" d="M135.842,7.97c0-3.469-.369-3.838-3.542-3.838V2.583A24.5,24.5,0,0,0,140.566,0l.664.369v18.6h.148c2.509-2.952,5.609-4.8,9.3-4.8s4.576.664,5.756,1.919,2.362,4.059,2.362,7.97V36.605c0,3.616.3,4.207,3.026,4.207v1.7H150.307v-1.7c2.8,0,3.026-.369,3.026-4.207V24.28c0-3.026-.148-4.8-1.181-6.125a4.133,4.133,0,0,0-3.395-1.476c-2.509,0-5.092,2.214-7.528,5.387V36.605c0,3.764.3,4.207,2.878,4.207v1.7H132.3v-1.7c3.247,0,3.542-.443,3.542-4.207Z" transform="translate(-34.662)"/>
      <path id="パス_98896" data-name="パス 98896" d="M198.465,41.906c0,2.8.664,3.985,1.845,3.985a3.469,3.469,0,0,0,1.7-.443l.369,1.7a10.111,10.111,0,0,1-4.28.812c-2.583,0-3.911-1.033-4.576-3.026h-.148a11.808,11.808,0,0,1-8.782,3.395,9.373,9.373,0,0,1-5.683-1.845,6.5,6.5,0,0,1-2.509-5.387,7.742,7.742,0,0,1,3.911-6.863c2.731-1.771,5.166-2.509,9.225-3.395l3.69-.886V27.367a8.413,8.413,0,0,0-.886-4.207,4.825,4.825,0,0,0-4.207-1.771,5.609,5.609,0,0,0-3.985,1.476,7.6,7.6,0,0,0-1.845,2.952,2.362,2.362,0,0,1-2.509,1.7,1.919,1.919,0,0,1-2.066-2.066c0-1.55,1.255-3.247,3.247-4.428A15.646,15.646,0,0,1,188.5,19.4c4.133,0,6.421.738,8.044,2.509s2.066,3.616,2.066,6.421Zm-5.387-9.963a27.675,27.675,0,0,0-7.38,2.878c-2.214,1.255-3.764,2.878-3.764,5.535a5.166,5.166,0,0,0,1.255,3.764,4.8,4.8,0,0,0,3.764,1.4c2.731,0,4.649-1.55,6.125-2.952Z" transform="translate(-46.214 -5.079)"/>
      <path id="パス_98897" data-name="パス 98897" d="M223.208,23.775C225.57,20.6,227.415,19.2,230,19.2a4.649,4.649,0,0,1,3.321,1.328,3.985,3.985,0,0,1,1.328,2.952c0,1.55-.812,2.509-2.14,2.509s-1.845-.517-2.288-1.993-.886-2.066-1.845-2.066-3.1,1.771-5.092,4.8V41.709c0,3.616.369,4.133,3.911,4.133v1.7H214.5v-1.7c3.026,0,3.321-.369,3.321-4.207V27.318c0-3.542-.3-3.911-3.321-3.911v-1.55a21.033,21.033,0,0,0,7.749-2.583l.664.369.221,4.133Z" transform="translate(-56.197 -5.03)"/>
      <path id="パス_98898" data-name="パス 98898" d="M262.257,8.044c0-3.469-.221-3.985-3.542-3.985V2.509A22.214,22.214,0,0,0,266.98,0l.664.369v36.9c0,3.321.369,3.616,3.247,3.616v1.476a31.472,31.472,0,0,0-3.764.148,19.852,19.852,0,0,0-3.985.664l-.517-.369-.148-3.026h-.148a11.07,11.07,0,0,1-16.384-.369c-2.14-2.509-3.247-6.347-3.247-11.144s1.033-7.454,3.1-9.963a11.264,11.264,0,0,1,9.225-4.059A9.816,9.816,0,0,1,262.11,17.2h.148Zm0,12.4c-1.328-1.993-3.542-3.838-6.125-3.838a6.937,6.937,0,0,0-5.683,2.878c-1.181,1.845-1.993,4.8-1.993,9.225s.664,6.642,1.993,8.93a6.125,6.125,0,0,0,5.314,3.247c2.878,0,5.092-1.993,6.494-3.985Z" transform="translate(-63.586 0)"/>
      <path id="パス_98899" data-name="パス 98899" d="M289.673,61.265a7.942,7.942,0,0,0,3.542-5.83,1.328,1.328,0,0,1-.517.443,1.7,1.7,0,0,1-.886.148c-1.033,0-2.214-1.033-2.214-2.952a3.1,3.1,0,0,1,3.173-3.173c2.066,0,3.1,1.7,3.1,3.985a9.816,9.816,0,0,1-5.24,8.635Z" transform="translate(-75.873 -13.073)"/>
      <path id="パス_98900" data-name="パス 98900" d="M9.542,81.97c0-3.469-.369-3.838-3.542-3.838v-1.55A24.5,24.5,0,0,0,14.266,74l.664.369v18.6h.148c2.509-2.952,5.609-4.8,9.3-4.8s4.576.664,5.756,1.919,2.362,4.059,2.362,7.97v12.472c0,3.616.3,4.207,3.026,4.207v1.7H24.007v-1.7c2.8,0,3.026-.369,3.026-4.207V98.28c0-3.026-.148-4.8-1.181-6.125a4.133,4.133,0,0,0-3.395-1.476c-2.509,0-5.092,2.214-7.528,5.387v14.465c0,3.764.3,4.207,2.878,4.207v1.7H6.074v-1.7c3.247,0,3.542-.443,3.542-4.207Z" transform="translate(-1.572 -19.387)"/>
      <path id="パス_98901" data-name="パス 98901" d="M72.165,115.906c0,2.8.664,3.985,1.845,3.985a3.469,3.469,0,0,0,1.7-.443l.369,1.7a10.111,10.111,0,0,1-4.28.812c-2.583,0-3.911-1.033-4.576-3.026h-.148a11.808,11.808,0,0,1-8.782,3.395,9.373,9.373,0,0,1-5.683-1.845,6.494,6.494,0,0,1-2.509-5.387,7.742,7.742,0,0,1,3.911-6.863c2.731-1.771,5.166-2.509,9.225-3.395l3.69-.886v-2.583a8.413,8.413,0,0,0-.886-4.207,4.825,4.825,0,0,0-4.207-1.771,5.609,5.609,0,0,0-3.985,1.476A7.6,7.6,0,0,0,56,99.817a2.362,2.362,0,0,1-2.509,1.7,1.919,1.919,0,0,1-2.066-2.066c0-1.55,1.255-3.247,3.247-4.428A15.646,15.646,0,0,1,62.2,93.4c4.133,0,6.421.738,8.044,2.509s2.066,3.616,2.066,6.421Zm-5.387-9.963a27.675,27.675,0,0,0-7.38,2.878c-2.214,1.255-3.764,2.878-3.764,5.535a5.166,5.166,0,0,0,1.255,3.764,4.8,4.8,0,0,0,3.764,1.4c2.731,0,4.649-1.55,6.125-2.952Z" transform="translate(-13.124 -24.466)"/>
      <path id="パス_98902" data-name="パス 98902" d="M97.5,122.539l-10.037-22.8c-1.55-3.542-1.993-3.764-4.059-3.764V94.2H95.282v1.7c-2.878,0-3.173.517-2.14,3.1l6.716,16.753h.148l7.011-17.638c.664-1.7.59-2.214-2.14-2.214V94.2h8.044v1.7c-1.7,0-2.214.3-3.247,2.8L99.562,122.466Z" transform="translate(-21.85 -24.68)"/>
      <path id="パス_98903" data-name="パス 98903" d="M128.28,107.3c0,3.616.443,6.716,1.993,9.151a7.306,7.306,0,0,0,6.2,3.542,8.782,8.782,0,0,0,5.314-1.7,9.52,9.52,0,0,0,3.026-3.616l1.845.959a13.358,13.358,0,0,1-3.838,4.428,12.1,12.1,0,0,1-7.232,2.214c-3.985,0-7.454-1.181-9.816-3.985s-3.173-6.125-3.173-11.218a15.277,15.277,0,0,1,3.838-10.627,12.1,12.1,0,0,1,8.487-3.247,10.762,10.762,0,0,1,8.487,3.542c2.066,2.362,3.173,6.2,3.173,10.554Zm12.841-2.066c0-2.731-.443-5.609-1.7-7.454a5.092,5.092,0,0,0-4.5-2.435,5.83,5.83,0,0,0-4.576,2.435,13.562,13.562,0,0,0-2.14,7.454Z" transform="translate(-32.117 -24.417)"/>
      <path id="パス_98904" data-name="パス 98904" d="M183.38,91.045h-4.207V88.9h4.207V85.141c0-3.838.959-6.642,3.026-8.708A9.815,9.815,0,0,1,193.2,74a9.446,9.446,0,0,1,5.609,1.55,5.125,5.125,0,0,1,2.583,3.911,2,2,0,0,1-1.993,2.214c-1.328,0-2.288-1.476-2.952-2.8s-1.328-2.731-3.173-2.731a3.4,3.4,0,0,0-2.731,1.255c-1.181,1.4-1.771,3.616-1.771,7.9v3.69h7.306v2.14h-7.306v19.557c0,3.838.3,4.207,4.723,4.207v1.7H179.1v-1.7c4.059,0,4.354-.369,4.354-4.354Z" transform="translate(-46.923 -19.384)"/>
      <path id="パス_98905" data-name="パス 98905" d="M232.873,121.492a34,34,0,0,0-3.911.148,19.7,19.7,0,0,0-4.059.664l-.59-.3-.221-3.911h-.148a11.218,11.218,0,0,1-8.782,4.207,8.258,8.258,0,0,1-5.9-1.919c-1.4-1.328-2.657-4.207-2.657-8.044V101.27c0-3.542-.148-3.838-3.1-3.838v-1.55a24.28,24.28,0,0,0,7.749-2.583l.738.369v18.007c0,2.8.369,4.8,1.328,6.125a4.428,4.428,0,0,0,3.764,1.7c2.583,0,4.871-1.624,6.863-4.354V101.27c0-3.542-.148-3.838-3.026-3.838v-1.55a23.543,23.543,0,0,0,7.749-2.583l.738.369v22.14c0,3.764.221,4.133,3.469,4.133Z" transform="translate(-53.315 -24.444)"/>
      <path id="パス_98906" data-name="パス 98906" d="M272.121,115.809c0,3.542.3,4.059,2.952,4.059v1.7H263.707v-1.7c2.8,0,3.026-.369,3.026-4.207V102.3c0-2.214-.3-4.133-1.4-5.314a4.206,4.206,0,0,0-3.321-1.181c-2.362,0-5.018,2.214-7.38,5.461v14.391c0,3.764.148,4.207,2.8,4.207v1.7H245.7v-1.7c3.247,0,3.542-.369,3.542-4.207v-14.17c0-3.616-.369-4.133-3.542-4.059v-1.55a20.3,20.3,0,0,0,7.823-2.583l.738.369.221,4.576h.148c2.509-3.026,5.609-4.945,9.077-4.945s4.723.664,6.125,1.993,2.288,3.542,2.288,6.937Z" transform="translate(-64.372 -24.444)"/>
    </g>
  </g>
</svg>
