<svg id="レイヤー_1" data-name="レイヤー 1" xmlns="http://www.w3.org/2000/svg" xmlns:xlink="http://www.w3.org/1999/xlink" viewBox="0 0 25.01 25.01"><defs><style>.cls-1{fill:url(#新規グラデーションスウォッチ_6);}.cls-2{fill:url(#新規グラデーションスウォッチ_6-2);}.cls-3{fill:url(#新規グラデーションスウォッチ_6-3);}.cls-4{fill:url(#新規グラデーションスウォッチ_6-4);}.cls-5{fill:url(#新規グラデーションスウォッチ_6-5);}.cls-6{fill:url(#新規グラデーションスウォッチ_6-6);}.cls-7{fill:url(#新規グラデーションスウォッチ_6-7);}.cls-8{fill:url(#新規グラデーションスウォッチ_6-8);}.cls-9{fill:url(#新規グラデーションスウォッチ_6-9);}.cls-10,.cls-12{fill:none;}.cls-10{stroke:#fff;stroke-miterlimit:10;stroke-width:0.7px;}.cls-11{fill:#c30d23;}.cls-12{stroke:#c30d23;stroke-linejoin:round;stroke-width:0.31px;}</style><linearGradient id="新規グラデーションスウォッチ_6" x1="-3319.25" y1="1610.92" x2="-3309.63" y2="1605.35" gradientTransform="translate(2571.48 2662.01) rotate(72)" gradientUnits="userSpaceOnUse"><stop offset="0" stop-color="#ecf0f8"/><stop offset="0.18" stop-color="#e4eaf3"/><stop offset="0.45" stop-color="#ced8e6"/><stop offset="0.79" stop-color="#abbbd1"/><stop offset="1" stop-color="#91a6c1"/></linearGradient><linearGradient id="新規グラデーションスウォッチ_6-2" x1="3.69" y1="8.4" x2="13.31" y2="2.83" gradientTransform="matrix(1, 0, 0, 1, 0, 0)" xlink:href="#新規グラデーションスウォッチ_6"/><linearGradient id="新規グラデーションスウォッチ_6-3" x1="3.97" y1="8.89" x2="13.59" y2="3.32" gradientTransform="matrix(1, 0, 0, 1, 0, 0)" xlink:href="#新規グラデーションスウォッチ_6"/><linearGradient id="新規グラデーションスウォッチ_6-4" x1="2554.42" y1="2673.39" x2="2564.04" y2="2667.82" gradientTransform="translate(-3326.1 1623.05) rotate(-72)" xlink:href="#新規グラデーションスウォッチ_6"/><linearGradient id="新規グラデーションスウォッチ_6-5" x1="809.26" y1="5923.42" x2="818.88" y2="5917.84" gradientTransform="translate(-2809.86 5288.74) rotate(-144)" xlink:href="#新規グラデーションスウォッチ_6"/><linearGradient id="新規グラデーションスウォッチ_6-6" x1="809.54" y1="5923.9" x2="819.16" y2="5918.33" gradientTransform="translate(-2809.86 5288.74) rotate(-144)" xlink:href="#新規グラデーションスウォッチ_6"/><linearGradient id="新規グラデーションスウォッチ_6-7" x1="-2821.95" y1="5267.33" x2="-2812.33" y2="5261.76" gradientTransform="translate(835.23 5930.66) rotate(144)" xlink:href="#新規グラデーションスウォッチ_6"/><linearGradient id="新規グラデーションスウォッチ_6-8" x1="-2821.67" y1="5267.82" x2="-2812.05" y2="5262.24" gradientTransform="translate(835.23 5930.66) rotate(144)" xlink:href="#新規グラデーションスウォッチ_6"/><linearGradient id="新規グラデーションスウォッチ_6-9" x1="-3318.97" y1="1611.41" x2="-3309.35" y2="1605.84" xlink:href="#新規グラデーションスウォッチ_6"/></defs><title>icon</title><path class="cls-1" d="M16.9,11.08l7.5-2.44A12.52,12.52,0,0,0,12.51,0V7.88A4.63,4.63,0,0,1,16.9,11.08Z"/><path class="cls-2" d="M12.51,7.88V0A12.52,12.52,0,0,0,.61,8.64l7.5,2.44A4.64,4.64,0,0,1,12.51,7.88Z"/><polygon class="cls-3" points="12.51 0 10.68 3.94 12.51 7.88 14.34 3.94 12.51 0"/><path class="cls-4" d="M8.11,11.08.62,8.64a12.49,12.49,0,0,0,4.54,14l4.63-6.37A4.65,4.65,0,0,1,8.11,11.08Z"/><path class="cls-5" d="M9.79,16.25,5.16,22.62a12.5,12.5,0,0,0,14.7,0l-4.64-6.37A4.64,4.64,0,0,1,9.79,16.25Z"/><polygon class="cls-6" points="5.16 22.63 8.95 20.51 9.79 16.25 6 18.36 5.16 22.63"/><path class="cls-7" d="M15.22,16.25l4.64,6.37a12.51,12.51,0,0,0,4.54-14l-7.5,2.44A4.64,4.64,0,0,1,15.22,16.25Z"/><polygon class="cls-8" points="19.86 22.62 19.02 18.36 15.22 16.25 16.06 20.51 19.86 22.62"/><polygon class="cls-9" points="24.4 8.64 20.09 8.12 16.9 11.08 21.22 11.6 24.4 8.64"/><line class="cls-10" x1="9.7" y1="11.59" x2="0.34" y2="8.55"/><polygon class="cls-11" points="11.49 15.05 10.05 13.61 10.05 11.57 11.49 10.13 13.53 10.13 14.97 11.57 14.97 13.61 13.53 15.05 11.49 15.05"/><polygon class="cls-12" points="11.21 15.73 9.37 13.89 9.37 11.29 11.21 9.44 13.82 9.44 15.66 11.29 15.66 13.89 13.82 15.73 11.21 15.73"/></svg>