<svg viewBox="0 0 25.76 22.59" xmlns="http://www.w3.org/2000/svg"><path d="m12 .53-11.86 20.47a1.06 1.06 0 0 0 .93 1.59h23.63a1.06 1.06 0 0 0 .92-1.59l-11.82-20.47a1.06 1.06 0 0 0 -1.8 0z" fill="#D11908"/><g fill="#fff"><path d="m11.69 20.4a1.19 1.19 0 1 1 -1.19-1.19 1.19 1.19 0 0 1 1.19 1.19z"/><path d="m10.5 7.36a1.56 1.56 0 0 0 -1.56 1.56l1 9a.6.6 0 0 0 .61.6.61.61 0 0 0 .61-.6l1-9a1.56 1.56 0 0 0 -1.66-1.56z"/><path d="m16.45 20.4a1.19 1.19 0 1 1 -1.19-1.19 1.19 1.19 0 0 1 1.19 1.19z"/><path d="m15.26 7.36a1.56 1.56 0 0 0 -1.56 1.56l1 9a.61.61 0 0 0 1.21 0l1-9a1.56 1.56 0 0 0 -1.65-1.56z"/></g></svg>