<svg xmlns="http://www.w3.org/2000/svg" xmlns:xlink="http://www.w3.org/1999/xlink" width="60" height="60" viewBox="0 0 60 60">
  <defs>
    <clipPath id="clip-path">
      <rect id="長方形_4755" data-name="長方形 4755" width="60" height="60" fill="none"/>
    </clipPath>
  </defs>
  <g id="twitter" transform="translate(30 30)">
    <g id="グループ_9908" data-name="グループ 9908" transform="translate(-30 -30)" clip-path="url(#clip-path)">
      <circle id="楕円形_107" data-name="楕円形 107" cx="20" cy="20" r="20" transform="translate(10 10)" fill="#1da1f2"/>
      <path id="パス_2153" data-name="パス 2153" d="M102.1,126.3a13.628,13.628,0,0,0,13.72-13.72q0-.32-.02-.62a9.8,9.8,0,0,0,2.4-2.5,9.62,9.62,0,0,1-2.76.76,4.84,4.84,0,0,0,2.12-2.66,9.66,9.66,0,0,1-3.06,1.18,4.82,4.82,0,0,0-8.22,4.4,13.68,13.68,0,0,1-9.94-5.04,4.82,4.82,0,0,0,1.5,6.44,4.78,4.78,0,0,1-2.18-.6V114a4.82,4.82,0,0,0,3.86,4.72,4.82,4.82,0,0,1-2.18.08,4.82,4.82,0,0,0,4.5,3.34,9.68,9.68,0,0,1-5.98,2.06,9.82,9.82,0,0,1-1.16-.06,13.64,13.64,0,0,0,7.4,2.16" transform="translate(-75.76 -85.759)" fill="#fff"/>
    </g>
  </g>
</svg>
