<svg xmlns="http://www.w3.org/2000/svg" xmlns:xlink="http://www.w3.org/1999/xlink" width="60" height="59.588" viewBox="0 0 60 59.588">
  <defs>
    <clipPath id="clip-path">
      <rect id="長方形_9693" data-name="長方形 9693" width="60" height="59.588" transform="translate(-52 -56)" fill="none"/>
    </clipPath>
  </defs>
  <g id="Linkedin" transform="translate(52 56)" clip-path="url(#clip-path)">
    <path id="パス_87922" data-name="パス 87922" d="M252.69,221.1a2.281,2.281,0,1,1-2.294,2.281,2.287,2.287,0,0,1,2.294-2.281m0-.292a2.575,2.575,0,1,0,2.59,2.573,2.583,2.583,0,0,0-2.59-2.573Z" transform="translate(-252.073 -232.907)" fill="#0a66c1"/>
    <path id="Path_2525" data-name="Path 2525" d="M259.752,228.551a.7.7,0,0,0,.708-.69v-.048c0-.523-.318-.773-.968-.773H258.44v2.738h.4v-1.193h.486l.012.014.754,1.179h.424l-.812-1.221Zm-.458-.274h-.458v-.927h.582c.3,0,.644.05.644.439,0,.449-.346.485-.768.485" transform="translate(-258.745 -237.898)" fill="#0a66c1"/>
    <path id="Path_2520" data-name="Path 2520" d="M84.28,88.086H78.668V79.347c0-2.084-.038-4.772-2.92-4.772-2.924,0-3.37,2.271-3.37,4.615v8.89H66.764V70.116h5.389v2.456h.076a5.915,5.915,0,0,1,5.317-2.9c5.689,0,6.739,3.72,6.739,8.55ZM60.429,67.66a3.239,3.239,0,1,1,3.256-3.238,3.249,3.249,0,0,1-3.256,3.238h0m2.8,20.428H57.617V70.116h5.619ZM87.079,56H54.8a2.773,2.773,0,0,0-1.967.781A2.74,2.74,0,0,0,52,58.715V90.939a2.759,2.759,0,0,0,2.8,2.718H87.085a2.765,2.765,0,0,0,2.8-2.718V58.713A2.763,2.763,0,0,0,87.085,56" transform="translate(-93.599 -100.865)" fill="#0a66c1"/>
  </g>
</svg>
