<svg xmlns="http://www.w3.org/2000/svg" xmlns:xlink="http://www.w3.org/1999/xlink" width="60" height="60" viewBox="0 0 60 60">
  <defs>
    <clipPath id="clip-path">
      <rect id="長方形_4752" data-name="長方形 4752" width="60" height="60" fill="none"/>
    </clipPath>
  </defs>
  <g id="LINE" transform="translate(30 30)">
    <g id="グループ_9904" data-name="グループ 9904" transform="translate(-30 -30)" clip-path="url(#clip-path)">
      <g id="グループ_9903" data-name="グループ 9903" transform="translate(10 10)">
        <circle id="楕円形_106" data-name="楕円形 106" cx="20" cy="20" r="20" fill="#00b900"/>
        <g id="TYPE_A" data-name="TYPE A" transform="translate(6.7 8)">
          <g id="グループ_9902" data-name="グループ 9902">
            <path id="パス_2146" data-name="パス 2146" d="M110.1,100.8c0-5.96-5.96-10.8-13.3-10.8s-13.3,4.84-13.3,10.8c0,5.34,4.74,9.8,11.12,10.66.44.1,1.02.28,1.18.66a2.455,2.455,0,0,1,.04,1.2l-.18,1.14c-.06.34-.26,1.32,1.16.72s7.66-4.52,10.46-7.72h0a9.661,9.661,0,0,0,2.86-6.64" transform="translate(-83.5 -90)" fill="#fff"/>
            <g id="グループ_9901" data-name="グループ 9901" transform="translate(4.36 7.88)">
              <path id="パス_2147" data-name="パス 2147" d="M131.7,129.6h-.94a.26.26,0,0,0-.26.26v5.8a.26.26,0,0,0,.26.26h.94a.26.26,0,0,0,.26-.26v-5.8a.26.26,0,0,0-.26-.26" transform="translate(-125.46 -129.56)" fill="#00b900"/>
              <path id="パス_2148" data-name="パス 2148" d="M147.56,129.44h-.94a.26.26,0,0,0-.26.26v3.44l-2.66-3.58h-1.14a.26.26,0,0,0-.26.26v5.8a.26.26,0,0,0,.26.26h.94a.26.26,0,0,0,.26-.26v-3.56l2.66,3.6.06.06h1.08a.26.26,0,0,0,.26-.26v-5.8a.26.26,0,0,0-.26-.26" transform="translate(-134.9 -129.4)" fill="#00b900"/>
              <path id="パス_2149" data-name="パス 2149" d="M109.28,134.46h-2.52v-4.6a.26.26,0,0,0-.26-.26h-.94a.26.26,0,0,0-.26.26v5.8h0a.26.26,0,0,0,.08.18h0a.26.26,0,0,0,.18.08h3.72a.26.26,0,0,0,.26-.26v-.94a.26.26,0,0,0-.26-.26" transform="translate(-105.3 -129.56)" fill="#00b900"/>
              <path id="パス_2150" data-name="パス 2150" d="M178.4,131.06a.26.26,0,0,0,.26-.26v-.94a.26.26,0,0,0-.26-.26h-3.74a.26.26,0,0,0-.18.08h0a.26.26,0,0,0-.08.18h0v5.8h0a.26.26,0,0,0,.08.18h0a.26.26,0,0,0,.18.08h3.72a.26.26,0,0,0,.26-.26v-.94a.26.26,0,0,0-.26-.26h-2.52v-.98h2.54a.26.26,0,0,0,.26-.26v-.94a.26.26,0,0,0-.26-.26h-2.54v-.98Z" transform="translate(-160.58 -129.56)" fill="#00b900"/>
            </g>
          </g>
        </g>
      </g>
    </g>
  </g>
</svg>
