<svg id="グループ_90584" data-name="グループ 90584" xmlns="http://www.w3.org/2000/svg" xmlns:xlink="http://www.w3.org/1999/xlink" width="768" height="537.22" viewBox="0 0 768 537.22">
  <defs>
    <clipPath id="clip-path">
      <path id="パス_223693" data-name="パス 223693" d="M415.739,300.626,177.17,144.106V530.834H676.909V70.281L415.739,63.674Z" transform="translate(-177.17 -63.674)" fill="none"/>
    </clipPath>
    <clipPath id="clip-path-2">
      <path id="パス_223695" data-name="パス 223695" d="M439.966,306.586l236.274-187.2V81.858l-236.274-.8Z" transform="translate(-439.966 -81.061)" fill="none"/>
    </clipPath>
    <clipPath id="clip-path-3">
      <path id="パス_223697" data-name="パス 223697" d="M149.705,81.635V144.8l263.5,161.453V81.061Z" transform="translate(-149.705 -81.061)" fill="none"/>
    </clipPath>
    <clipPath id="clip-path-4">
      <path id="パス_223699" data-name="パス 223699" d="M422.5,60.638l15.856,244.4V60.638Z" transform="translate(-422.5 -60.638)" fill="none"/>
    </clipPath>
    <clipPath id="clip-path-5">
      <path id="パス_223701" data-name="パス 223701" d="M436.5,63.723l4.938,240.933V63.723Z" transform="translate(-436.5 -63.723)" fill="none"/>
    </clipPath>
    <clipPath id="clip-path-6">
      <rect id="長方形_17245" data-name="長方形 17245" width="768" height="537.22" fill="none"/>
    </clipPath>
  </defs>
  <path id="パス_223687" data-name="パス 223687" d="M440,58.956v46.752h.908V59.864H808.563v-.908Z" transform="translate(-40.563 -5.435)" fill="#333"/>
  <path id="パス_223688" data-name="パス 223688" d="M517.908,125.947H517V101.89H732.605v.908h-214.7Z" transform="translate(-47.661 -9.393)" fill="#333"/>
  <path id="パス_223689" data-name="パス 223689" d="M395.269,109.079h-.908v-40.4H38.49v-.908H395.269Z" transform="translate(-3.548 -6.248)" fill="#333"/>
  <path id="パス_223690" data-name="パス 223690" d="M439,528.274V585.92H764.9v-.907h-325V528.274Z" transform="translate(-40.471 -48.7)" fill="#333"/>
  <path id="パス_223691" data-name="パス 223691" d="M0,124.774v.908H350.415V145.2h.908V124.774Z" transform="translate(0 -11.503)" fill="#333"/>
  <rect id="長方形_17234" data-name="長方形 17234" width="15.433" height="15.433" transform="translate(406.246 3.88)" fill="#77aede"/>
  <rect id="長方形_17235" data-name="長方形 17235" width="15.433" height="15.433" transform="translate(478.871 68.44)" fill="#002060"/>
  <rect id="長方形_17236" data-name="長方形 17236" width="15.433" height="15.433" transform="translate(408.062 512.454)" fill="#237593"/>
  <rect id="長方形_17237" data-name="長方形 17237" width="15.433" height="15.433" transform="translate(39.49 37.469)" fill="#008ccf"/>
  <rect id="長方形_17238" data-name="長方形 17238" width="15.433" height="15.433" transform="translate(8.624 89.214)" fill="#0063b2"/>
  <g id="グループ_90585" data-name="グループ 90585" transform="translate(160.837 57.804)">
    <g id="グループ_90584-2" data-name="グループ 90584" clip-path="url(#clip-path)">
      <path id="パス_223692" data-name="パス 223692" d="M618.1,304.555c0,109.5-88.765,198.263-198.263,198.263S221.57,414.052,221.57,304.555s88.765-198.263,198.263-198.263S618.1,195.057,618.1,304.555" transform="translate(-181.263 -67.603)" fill="#237593"/>
    </g>
  </g>
  <g id="グループ_90587" data-name="グループ 90587" transform="translate(399.406 73.588)">
    <g id="グループ_90586" data-name="グループ 90586" clip-path="url(#clip-path-2)">
      <path id="パス_223694" data-name="パス 223694" d="M618.1,304.555c0,109.5-88.765,198.263-198.263,198.263S221.57,414.052,221.57,304.555s88.765-198.263,198.263-198.263S618.1,195.057,618.1,304.555" transform="translate(-419.833 -83.387)" fill="#002060"/>
    </g>
  </g>
  <g id="グループ_90589" data-name="グループ 90589" transform="translate(135.904 73.588)">
    <g id="グループ_90588" data-name="グループ 90588" clip-path="url(#clip-path-3)">
      <path id="パス_223696" data-name="パス 223696" d="M618.1,304.555c0,109.5-88.765,198.263-198.263,198.263S221.57,414.052,221.57,304.555s88.765-198.263,198.263-198.263S618.1,195.057,618.1,304.555" transform="translate(-156.33 -83.387)" fill="#0063b2"/>
    </g>
  </g>
  <g id="グループ_90591" data-name="グループ 90591" transform="translate(383.551 55.048)">
    <g id="グループ_90590" data-name="グループ 90590" clip-path="url(#clip-path-4)">
      <path id="パス_223698" data-name="パス 223698" d="M618.1,304.555c0,109.5-88.765,198.263-198.263,198.263S221.57,414.052,221.57,304.555s88.765-198.263,198.263-198.263S618.1,195.057,618.1,304.555" transform="translate(-403.977 -64.847)" fill="#008ccf"/>
    </g>
  </g>
  <g id="グループ_90593" data-name="グループ 90593" transform="translate(396.26 57.848)">
    <g id="グループ_90592" data-name="グループ 90592" clip-path="url(#clip-path-5)">
      <path id="パス_223700" data-name="パス 223700" d="M618.1,304.555c0,109.5-88.765,198.263-198.263,198.263S221.57,414.052,221.57,304.555s88.765-198.263,198.263-198.263S618.1,195.057,618.1,304.555" transform="translate(-416.686 -67.647)" fill="#77aede"/>
    </g>
  </g>
  <g id="グループ_90595" data-name="グループ 90595">
    <g id="グループ_90594" data-name="グループ 90594" clip-path="url(#clip-path-6)">
      <path id="パス_223702" data-name="パス 223702" d="M432.217,249.583A71.717,71.717,0,1,1,360.5,321.3a71.718,71.718,0,0,1,71.717-71.717" transform="translate(-33.234 -23.009)" fill="#fff"/>
      <path id="パス_223703" data-name="パス 223703" d="M141.506,111.684h-2.145v-10.37l-3.166,1.079v-1.809l5.036-1.853h.275Z" transform="translate(-12.556 -9.102)"/>
      <path id="パス_223704" data-name="パス 223704" d="M149.547,112.865c0,1.472-.362,2.089-1.58,2.561l-.581-.817c.98-.327,1.162-.6,1.18-1.744h-1.344v-2.306h2.325Z" transform="translate(-13.572 -10.192)"/>
      <path id="パス_223705" data-name="パス 223705" d="M160.576,106.236a7.046,7.046,0,0,1-1.041,4.2,3.681,3.681,0,0,1-3.17,1.414,3.726,3.726,0,0,1-3.151-1.379,6.736,6.736,0,0,1-1.087-4.082v-2.234a6.932,6.932,0,0,1,1.042-4.175,4.342,4.342,0,0,1,6.338-.035,6.717,6.717,0,0,1,1.069,4.06Zm-2.154-2.411a5.469,5.469,0,0,0-.5-2.664,1.9,1.9,0,0,0-3.129-.044,5.042,5.042,0,0,0-.523,2.5v2.926a5.608,5.608,0,0,0,.5,2.7,1.7,1.7,0,0,0,1.587.886,1.666,1.666,0,0,0,1.534-.82,5.285,5.285,0,0,0,.523-2.566Z" transform="translate(-14.024 -9.088)"/>
      <path id="パス_223706" data-name="パス 223706" d="M171.943,106.236a7.046,7.046,0,0,1-1.041,4.2,3.681,3.681,0,0,1-3.17,1.414,3.726,3.726,0,0,1-3.151-1.379,6.736,6.736,0,0,1-1.087-4.082v-2.234a6.932,6.932,0,0,1,1.042-4.175,4.342,4.342,0,0,1,6.338-.035,6.717,6.717,0,0,1,1.068,4.06Zm-2.154-2.411a5.469,5.469,0,0,0-.5-2.664,1.9,1.9,0,0,0-3.129-.044,5.042,5.042,0,0,0-.523,2.5v2.926a5.608,5.608,0,0,0,.5,2.7,1.7,1.7,0,0,0,1.587.886,1.666,1.666,0,0,0,1.534-.82,5.285,5.285,0,0,0,.523-2.566Z" transform="translate(-15.072 -9.088)"/>
      <path id="パス_223707" data-name="パス 223707" d="M183.311,106.236a7.046,7.046,0,0,1-1.041,4.2,3.681,3.681,0,0,1-3.17,1.414,3.726,3.726,0,0,1-3.151-1.379,6.736,6.736,0,0,1-1.087-4.082v-2.234a6.932,6.932,0,0,1,1.042-4.175,4.342,4.342,0,0,1,6.338-.035,6.717,6.717,0,0,1,1.068,4.06Zm-2.154-2.411a5.469,5.469,0,0,0-.5-2.664,1.9,1.9,0,0,0-3.129-.044,5.042,5.042,0,0,0-.523,2.5v2.926a5.608,5.608,0,0,0,.5,2.7,1.7,1.7,0,0,0,1.587.886,1.666,1.666,0,0,0,1.534-.82,5.285,5.285,0,0,0,.523-2.566Z" transform="translate(-16.12 -9.088)"/>
      <path id="パス_223708" data-name="パス 223708" d="M192.99,102.1a10.357,10.357,0,0,1-.964,1.9,5.135,5.135,0,0,0-1.128-.882,9.737,9.737,0,0,0,1.537-3.6,5.128,5.128,0,0,0,.131-.915l1.405.359a10.292,10.292,0,0,0-.278,1c-.1.343-.147.507-.229.8h1.57V99.45a9.078,9.078,0,0,0-.1-1.5h1.6a8.8,8.8,0,0,0-.1,1.5v1.306h2.109a10.783,10.783,0,0,0,1.684-.1v1.521a14.726,14.726,0,0,0-1.684-.083h-2.109v2.3h2.615a12.555,12.555,0,0,0,1.7-.1v1.553c-.54-.049-1.047-.082-1.7-.082h-2.142a11.72,11.72,0,0,0,4.267,4.331,5.893,5.893,0,0,0-.965,1.39,13.181,13.181,0,0,1-3.84-4.446c.032.6.064,1.177.064,1.684v2.419a11.363,11.363,0,0,0,.1,1.83h-1.6a14.445,14.445,0,0,0,.1-1.847v-2.321c0-.473.016-1.062.049-1.732a12.006,12.006,0,0,1-4.022,4.479,6.194,6.194,0,0,0-.9-1.275,11.094,11.094,0,0,0,4.331-4.511H193.1a12.824,12.824,0,0,0-1.717.1V105.3a5.044,5.044,0,0,0-.686,1.242,9.66,9.66,0,0,1-1.1-2.353c0,.245.017.425.017.556.016.212.033.834.065,1.864v4.38a12.571,12.571,0,0,0,.1,1.962H188.2a15.549,15.549,0,0,0,.1-1.962V107c0-.817.017-1.243.1-2.353a13.467,13.467,0,0,1-1.9,4.363,5.326,5.326,0,0,0-.7-1.471,14.251,14.251,0,0,0,2.338-5.182h-.768a6.453,6.453,0,0,0-1.111.065v-1.438a6.36,6.36,0,0,0,1.111.065h.915V99.613a10.414,10.414,0,0,0-.081-1.684h1.569a10.928,10.928,0,0,0-.082,1.667v1.455h.507a5.234,5.234,0,0,0,.964-.065v1.423a8.221,8.221,0,0,0-.931-.05h-.49a9.981,9.981,0,0,0,1.65,2.91V104.3a12.48,12.48,0,0,0,1.717.1h1.929v-2.3Z" transform="translate(-17.128 -9.028)"/>
      <path id="パス_223709" data-name="パス 223709" d="M205.776,100.293a10.226,10.226,0,0,0-.131-1.846h1.766a10.849,10.849,0,0,0-.082,1.552v.31l.082,8.01a32.632,32.632,0,0,0,4.381-2.272l.31,1.438a41.711,41.711,0,0,1-6.408,3.171c-.539.229-.686.294-1.078.474l-.458-1.667a10.5,10.5,0,0,0,1.7-.539Zm11.737-1.864c-.033.246-.033.328-.147,1.994a23.154,23.154,0,0,1-.671,4.1,12.139,12.139,0,0,1-1.242,2.991,9.734,9.734,0,0,0,3.743,3.76,6.65,6.65,0,0,0-.981,1.536,12.786,12.786,0,0,1-3.661-3.955,13.043,13.043,0,0,1-5.671,4.086,4.349,4.349,0,0,0-.916-1.357,14.2,14.2,0,0,0,3.237-1.633,9.742,9.742,0,0,0,4.052-5.836,17.948,17.948,0,0,0,.573-4.756,8.04,8.04,0,0,0-.049-.965Zm-7.16,1.03a23.9,23.9,0,0,1,3.2,3.972l-1.389.964a18.812,18.812,0,0,0-3.107-4.1Z" transform="translate(-18.821 -9.071)"/>
      <path id="パス_223710" data-name="パス 223710" d="M229.874,110.751h4.969a18.327,18.327,0,0,0,2.059-.1v1.667a15.525,15.525,0,0,0-2.044-.114H224.283a17.391,17.391,0,0,0-2.125.114v-1.667a19.2,19.2,0,0,0,2.125.1h3.972V100a12.886,12.886,0,0,0-.114-1.815h1.847a12.417,12.417,0,0,0-.114,1.815v3.023h3.972a14.629,14.629,0,0,0,1.815-.1v1.65a15.206,15.206,0,0,0-1.815-.1h-3.972Z" transform="translate(-20.48 -9.051)"/>
      <path id="パス_223711" data-name="パス 223711" d="M241.167,109.039a18.081,18.081,0,0,1,3.514,3.547l-1.34,1.242a17.21,17.21,0,0,0-3.416-3.661Z" transform="translate(-22.118 -10.052)"/>
      <path id="パス_223712" data-name="パス 223712" d="M255.155,111.684H253.01v-10.37l-3.166,1.079v-1.809l5.036-1.853h.275Z" transform="translate(-23.033 -9.102)"/>
      <path id="パス_223713" data-name="パス 223713" d="M269.045,106.236a7.046,7.046,0,0,1-1.041,4.2,3.681,3.681,0,0,1-3.17,1.414,3.726,3.726,0,0,1-3.151-1.379,6.736,6.736,0,0,1-1.087-4.082v-2.234a6.932,6.932,0,0,1,1.042-4.175,4.342,4.342,0,0,1,6.338-.035,6.717,6.717,0,0,1,1.068,4.06Zm-2.154-2.411a5.469,5.469,0,0,0-.5-2.664,1.9,1.9,0,0,0-3.129-.044,5.042,5.042,0,0,0-.523,2.5v2.926a5.608,5.608,0,0,0,.5,2.7,1.7,1.7,0,0,0,1.587.886,1.666,1.666,0,0,0,1.534-.82,5.286,5.286,0,0,0,.523-2.566Z" transform="translate(-24.024 -9.088)"/>
      <path id="パス_223714" data-name="パス 223714" d="M274.562,112.865c0,1.472-.362,2.089-1.58,2.561l-.581-.817c.98-.327,1.162-.6,1.18-1.744h-1.344v-2.306h2.325Z" transform="translate(-25.097 -10.192)"/>
      <path id="パス_223715" data-name="パス 223715" d="M285.592,106.236a7.046,7.046,0,0,1-1.041,4.2,3.681,3.681,0,0,1-3.17,1.414,3.726,3.726,0,0,1-3.151-1.379,6.736,6.736,0,0,1-1.087-4.082v-2.234a6.932,6.932,0,0,1,1.042-4.175,4.342,4.342,0,0,1,6.338-.035,6.717,6.717,0,0,1,1.068,4.06Zm-2.154-2.411a5.469,5.469,0,0,0-.5-2.664,1.9,1.9,0,0,0-3.129-.044,5.043,5.043,0,0,0-.523,2.5v2.926a5.608,5.608,0,0,0,.5,2.7,1.7,1.7,0,0,0,1.587.886,1.666,1.666,0,0,0,1.534-.82,5.286,5.286,0,0,0,.523-2.566Z" transform="translate(-25.549 -9.088)"/>
      <path id="パス_223716" data-name="パス 223716" d="M296.959,106.236a7.046,7.046,0,0,1-1.041,4.2,3.681,3.681,0,0,1-3.17,1.414,3.726,3.726,0,0,1-3.151-1.379,6.736,6.736,0,0,1-1.087-4.082v-2.234a6.932,6.932,0,0,1,1.042-4.175,4.342,4.342,0,0,1,6.338-.035,6.717,6.717,0,0,1,1.068,4.06Zm-2.154-2.411a5.469,5.469,0,0,0-.5-2.664,1.9,1.9,0,0,0-3.129-.044,5.043,5.043,0,0,0-.523,2.5v2.926a5.608,5.608,0,0,0,.5,2.7,1.7,1.7,0,0,0,1.587.886,1.666,1.666,0,0,0,1.534-.82,5.285,5.285,0,0,0,.523-2.566Z" transform="translate(-26.597 -9.088)"/>
      <path id="パス_223717" data-name="パス 223717" d="M308.326,106.236a7.045,7.045,0,0,1-1.041,4.2,3.681,3.681,0,0,1-3.17,1.414,3.726,3.726,0,0,1-3.151-1.379,6.735,6.735,0,0,1-1.087-4.082v-2.234a6.932,6.932,0,0,1,1.042-4.175,4.342,4.342,0,0,1,6.338-.035,6.717,6.717,0,0,1,1.068,4.06Zm-2.154-2.411a5.47,5.47,0,0,0-.5-2.664,1.9,1.9,0,0,0-3.129-.044,5.043,5.043,0,0,0-.523,2.5v2.926a5.608,5.608,0,0,0,.5,2.7,1.7,1.7,0,0,0,1.587.886,1.666,1.666,0,0,0,1.534-.82,5.285,5.285,0,0,0,.523-2.566Z" transform="translate(-27.645 -9.088)"/>
      <path id="パス_223718" data-name="パス 223718" d="M318.006,102.1a10.354,10.354,0,0,1-.964,1.9,5.135,5.135,0,0,0-1.128-.882,9.736,9.736,0,0,0,1.537-3.6,5.13,5.13,0,0,0,.131-.915l1.405.359a10.269,10.269,0,0,0-.278,1c-.1.343-.147.507-.229.8h1.57V99.45a9.08,9.08,0,0,0-.1-1.5h1.6a8.8,8.8,0,0,0-.1,1.5v1.306h2.109a10.783,10.783,0,0,0,1.684-.1v1.521a14.726,14.726,0,0,0-1.684-.083h-2.109v2.3h2.615a12.555,12.555,0,0,0,1.7-.1v1.553c-.54-.049-1.047-.082-1.7-.082h-2.142a11.72,11.72,0,0,0,4.267,4.331,5.892,5.892,0,0,0-.965,1.39,13.181,13.181,0,0,1-3.84-4.446c.032.6.064,1.177.064,1.684v2.419a11.363,11.363,0,0,0,.1,1.83h-1.6a14.448,14.448,0,0,0,.1-1.847v-2.321c0-.473.016-1.062.049-1.732a12.006,12.006,0,0,1-4.022,4.479,6.2,6.2,0,0,0-.9-1.275,11.094,11.094,0,0,0,4.331-4.511H318.12a12.824,12.824,0,0,0-1.717.1V105.3a5.043,5.043,0,0,0-.686,1.242,9.66,9.66,0,0,1-1.1-2.353c0,.245.017.425.017.556.016.212.033.834.065,1.864v4.38a12.57,12.57,0,0,0,.1,1.962h-1.585a15.544,15.544,0,0,0,.1-1.962V107c0-.817.017-1.243.1-2.353a13.467,13.467,0,0,1-1.9,4.363,5.325,5.325,0,0,0-.7-1.471,14.251,14.251,0,0,0,2.338-5.182h-.768a6.453,6.453,0,0,0-1.111.065v-1.438a6.36,6.36,0,0,0,1.111.065h.915V99.613a10.411,10.411,0,0,0-.081-1.684h1.569A10.932,10.932,0,0,0,314.7,99.6v1.455h.507a5.233,5.233,0,0,0,.964-.065v1.423a8.22,8.22,0,0,0-.931-.05h-.49a9.98,9.98,0,0,0,1.65,2.91V104.3a12.479,12.479,0,0,0,1.717.1h1.929v-2.3Z" transform="translate(-28.653 -9.028)"/>
      <path id="パス_223719" data-name="パス 223719" d="M340.731,100.164a10.55,10.55,0,0,0,1.913-.114v1.6a11.768,11.768,0,0,0-1.9-.1h-3.711v2.55h4.643a11.66,11.66,0,0,0,1.912-.114v1.618a15.393,15.393,0,0,0-1.912-.1h-3.956a13.253,13.253,0,0,0,2.306,2.648,15.346,15.346,0,0,0,3.987,2.516,7.853,7.853,0,0,0-.948,1.439,16.859,16.859,0,0,1-3.547-2.5,11.913,11.913,0,0,1-2.534-3.074c.033.916.049,1.276.049,1.62V111.2a10.45,10.45,0,0,0,.115,1.7H335.4a10.043,10.043,0,0,0,.114-1.7V108.2c0-.523.015-.914.049-1.618a12.845,12.845,0,0,1-2.306,2.844,17.265,17.265,0,0,1-3.464,2.583,6.848,6.848,0,0,0-.964-1.356,15.246,15.246,0,0,0,5.982-5.149h-3.579a16.485,16.485,0,0,0-1.9.1v-1.618a12.606,12.606,0,0,0,1.88.114h4.3v-2.55H332.15a12.9,12.9,0,0,0-1.9.1v-1.6a11.839,11.839,0,0,0,1.9.114h3.367V99.1a8.874,8.874,0,0,0-.082-1.226h1.683a6.253,6.253,0,0,0-.082,1.226v1.063Z" transform="translate(-30.314 -9.023)"/>
      <path id="パス_223720" data-name="パス 223720" d="M350.353,107.644a33.759,33.759,0,0,1-1.864,4.56,5.88,5.88,0,0,0-.294.6l-1.291-1.193a14.3,14.3,0,0,0,2.255-4.822Zm-2.4-5.492a15.7,15.7,0,0,1,2.565,2.125l-.98,1.095a12.788,12.788,0,0,0-2.566-2.223Zm.556-4.037a15.042,15.042,0,0,1,2.484,2.092l-.965,1.111a11.964,11.964,0,0,0-2.5-2.255Zm8.188,6.505h2.861a16.1,16.1,0,0,0,1.733-.065,9.816,9.816,0,0,0-.083,1.634v5.263c0,1.013-.392,1.275-1.913,1.275-.424,0-1.029-.033-1.372-.049a5.4,5.4,0,0,0-.311-1.423,11.034,11.034,0,0,0,1.668.147c.458,0,.556-.064.556-.376v-5.181h-3.138v3.449h1v-1.307c0-.589-.016-.916-.049-1.275h1.307a8.094,8.094,0,0,0-.065,1.275v1.291a11.634,11.634,0,0,0,.033,1.226c-.244-.015-.588-.033-1.128-.033h-3.367v.9h-1.259a10.055,10.055,0,0,0,.066-1.307v-2.075a9.35,9.35,0,0,0-.066-1.292h1.324a8.383,8.383,0,0,0-.065,1.275v1.325h1v-3.449h-3.057v5.329a13.324,13.324,0,0,0,.081,1.765h-1.52a14.529,14.529,0,0,0,.1-1.831v-5.116c0-.637-.016-.947-.049-1.422a12.218,12.218,0,0,0,1.258.05h3.188v-1.194h-3.2a12.1,12.1,0,0,0-1.734.1V102.07a11.266,11.266,0,0,0,1.7.1H353.3v-1.455h-.687a11.686,11.686,0,0,0-1.569.082V99.324a10.576,10.576,0,0,0,1.6.1h.655v-.2a6.126,6.126,0,0,0-.1-1.242h1.586a8.133,8.133,0,0,0-.083,1.242v.2h2.812v-.212a8.509,8.509,0,0,0-.083-1.226h1.586a6.1,6.1,0,0,0-.1,1.226v.212h.932a10.968,10.968,0,0,0,1.618-.1v1.471a14.645,14.645,0,0,0-1.6-.082h-.949v1.455h1.341a8.9,8.9,0,0,0,1.749-.1v1.454a11.832,11.832,0,0,0-1.766-.1h-3.547Zm.818-3.907H354.7v1.455h2.812Z" transform="translate(-31.98 -9.033)"/>
      <path id="パス_223721" data-name="パス 223721" d="M580.754,577.9h-2.145v-10.37l-3.166,1.079V566.8l5.036-1.853h.275Z" transform="translate(-53.049 -52.082)"/>
      <path id="パス_223722" data-name="パス 223722" d="M594.645,572.456a7.039,7.039,0,0,1-1.042,4.2,3.679,3.679,0,0,1-3.17,1.414,3.727,3.727,0,0,1-3.151-1.379,6.742,6.742,0,0,1-1.087-4.082v-2.234a6.925,6.925,0,0,1,1.043-4.175,4.342,4.342,0,0,1,6.338-.035,6.724,6.724,0,0,1,1.069,4.06Zm-2.154-2.411a5.466,5.466,0,0,0-.5-2.664,1.9,1.9,0,0,0-3.129-.044,5.034,5.034,0,0,0-.522,2.5v2.926a5.621,5.621,0,0,0,.5,2.7,1.7,1.7,0,0,0,1.587.886,1.665,1.665,0,0,0,1.534-.82,5.3,5.3,0,0,0,.524-2.566Z" transform="translate(-54.04 -52.068)"/>
      <path id="パス_223723" data-name="パス 223723" d="M606.012,572.456a7.046,7.046,0,0,1-1.041,4.2,3.681,3.681,0,0,1-3.17,1.414,3.726,3.726,0,0,1-3.151-1.379,6.736,6.736,0,0,1-1.087-4.082v-2.234a6.932,6.932,0,0,1,1.042-4.175,4.342,4.342,0,0,1,6.338-.035,6.718,6.718,0,0,1,1.068,4.06Zm-2.154-2.411a5.469,5.469,0,0,0-.5-2.664,1.9,1.9,0,0,0-3.129-.044,5.042,5.042,0,0,0-.523,2.5v2.926a5.608,5.608,0,0,0,.5,2.7,1.7,1.7,0,0,0,1.587.886,1.666,1.666,0,0,0,1.534-.82,5.286,5.286,0,0,0,.523-2.566Z" transform="translate(-55.088 -52.068)"/>
      <path id="パス_223724" data-name="パス 223724" d="M616.092,568.317a10.355,10.355,0,0,1-.964,1.9,5.139,5.139,0,0,0-1.128-.882,9.738,9.738,0,0,0,1.537-3.6,5.132,5.132,0,0,0,.131-.915l1.405.359a10.294,10.294,0,0,0-.278,1c-.1.343-.147.507-.229.8h1.57V565.67a9.077,9.077,0,0,0-.1-1.5h1.6a8.8,8.8,0,0,0-.1,1.5v1.306h2.109a10.784,10.784,0,0,0,1.684-.1V568.4a14.73,14.73,0,0,0-1.684-.083H619.54v2.3h2.615a12.566,12.566,0,0,0,1.7-.1v1.553c-.54-.049-1.047-.082-1.7-.082h-2.142a11.719,11.719,0,0,0,4.267,4.331,5.892,5.892,0,0,0-.965,1.39,13.182,13.182,0,0,1-3.84-4.446c.032.6.064,1.177.064,1.684v2.419a11.359,11.359,0,0,0,.1,1.83h-1.6a14.442,14.442,0,0,0,.1-1.847v-2.321c0-.473.016-1.062.049-1.732a12.007,12.007,0,0,1-4.022,4.479,6.2,6.2,0,0,0-.9-1.276A11.094,11.094,0,0,0,617.595,572h-1.389a12.824,12.824,0,0,0-1.717.1v-.572a5.046,5.046,0,0,0-.686,1.242,9.657,9.657,0,0,1-1.1-2.353c0,.245.017.425.017.556.016.212.033.834.065,1.864v4.38a12.567,12.567,0,0,0,.1,1.962H611.3a15.562,15.562,0,0,0,.1-1.962v-3.988c0-.817.017-1.243.1-2.353a13.469,13.469,0,0,1-1.9,4.363,5.326,5.326,0,0,0-.7-1.471,14.251,14.251,0,0,0,2.338-5.182h-.768a6.456,6.456,0,0,0-1.111.065v-1.438a6.355,6.355,0,0,0,1.111.065h.915v-1.438a10.423,10.423,0,0,0-.081-1.684h1.569a10.92,10.92,0,0,0-.082,1.667v1.455h.507a5.229,5.229,0,0,0,.964-.065v1.423a8.228,8.228,0,0,0-.931-.05h-.49a9.98,9.98,0,0,0,1.65,2.909v-.964a12.49,12.49,0,0,0,1.717.1h1.929v-2.3Z" transform="translate(-56.133 -52.008)"/>
      <path id="パス_223725" data-name="パス 223725" d="M628.878,566.513a10.226,10.226,0,0,0-.131-1.846h1.766a10.846,10.846,0,0,0-.082,1.552v.31l.082,8.01a32.636,32.636,0,0,0,4.381-2.272l.31,1.438a41.7,41.7,0,0,1-6.408,3.171c-.539.229-.686.294-1.079.474l-.457-1.667a10.5,10.5,0,0,0,1.7-.539Zm11.737-1.864c-.033.246-.033.328-.147,1.994a23.157,23.157,0,0,1-.671,4.1,12.143,12.143,0,0,1-1.242,2.991,9.735,9.735,0,0,0,3.743,3.76,6.647,6.647,0,0,0-.981,1.536,12.785,12.785,0,0,1-3.661-3.955,13.043,13.043,0,0,1-5.671,4.086,4.348,4.348,0,0,0-.916-1.357,14.2,14.2,0,0,0,3.237-1.633,9.742,9.742,0,0,0,4.052-5.836,17.946,17.946,0,0,0,.573-4.756,8.032,8.032,0,0,0-.049-.965Zm-7.16,1.03a23.9,23.9,0,0,1,3.2,3.972l-1.389.964a18.812,18.812,0,0,0-3.107-4.1Z" transform="translate(-57.826 -52.051)"/>
      <path id="パス_223726" data-name="パス 223726" d="M652.974,576.971h4.969a18.341,18.341,0,0,0,2.059-.1v1.667a15.52,15.52,0,0,0-2.043-.114H647.384a17.386,17.386,0,0,0-2.125.114v-1.667a19.214,19.214,0,0,0,2.125.1h3.972V566.216a12.884,12.884,0,0,0-.114-1.815h1.847a12.417,12.417,0,0,0-.114,1.815v3.023h3.972a14.628,14.628,0,0,0,1.815-.1v1.65a15.217,15.217,0,0,0-1.815-.1h-3.972Z" transform="translate(-59.485 -52.031)"/>
      <path id="パス_223727" data-name="パス 223727" d="M664.268,575.259a18.08,18.08,0,0,1,3.514,3.547l-1.34,1.242a17.211,17.211,0,0,0-3.416-3.661Z" transform="translate(-61.123 -53.032)"/>
      <path id="パス_223728" data-name="パス 223728" d="M678.256,577.9h-2.145v-10.37l-3.166,1.079V566.8l5.036-1.853h.275Z" transform="translate(-62.037 -52.082)"/>
      <path id="パス_223729" data-name="パス 223729" d="M686.3,579.085c0,1.472-.362,2.089-1.58,2.561l-.581-.817c.98-.327,1.162-.6,1.18-1.744h-1.345v-2.306H686.3Z" transform="translate(-63.054 -53.172)"/>
      <path id="パス_223730" data-name="パス 223730" d="M697.326,572.456a7.046,7.046,0,0,1-1.041,4.2,3.681,3.681,0,0,1-3.17,1.414,3.726,3.726,0,0,1-3.151-1.379,6.736,6.736,0,0,1-1.087-4.082v-2.234a6.931,6.931,0,0,1,1.042-4.175,4.342,4.342,0,0,1,6.338-.035,6.718,6.718,0,0,1,1.068,4.06Zm-2.154-2.411a5.469,5.469,0,0,0-.5-2.664,1.9,1.9,0,0,0-3.129-.044,5.043,5.043,0,0,0-.523,2.5v2.926a5.609,5.609,0,0,0,.5,2.7,1.7,1.7,0,0,0,1.587.886,1.666,1.666,0,0,0,1.534-.82,5.285,5.285,0,0,0,.523-2.566Z" transform="translate(-63.506 -52.068)"/>
      <path id="パス_223731" data-name="パス 223731" d="M708.693,572.456a7.046,7.046,0,0,1-1.041,4.2,3.681,3.681,0,0,1-3.17,1.414,3.726,3.726,0,0,1-3.151-1.379,6.736,6.736,0,0,1-1.087-4.082v-2.234a6.932,6.932,0,0,1,1.042-4.175,4.342,4.342,0,0,1,6.338-.035,6.718,6.718,0,0,1,1.069,4.06Zm-2.154-2.411a5.469,5.469,0,0,0-.5-2.664,1.9,1.9,0,0,0-3.129-.044,5.043,5.043,0,0,0-.523,2.5v2.926a5.608,5.608,0,0,0,.5,2.7,1.7,1.7,0,0,0,1.587.886,1.666,1.666,0,0,0,1.534-.82,5.285,5.285,0,0,0,.523-2.566Z" transform="translate(-64.554 -52.068)"/>
      <path id="パス_223732" data-name="パス 223732" d="M720.06,572.456a7.046,7.046,0,0,1-1.041,4.2,3.681,3.681,0,0,1-3.17,1.414,3.726,3.726,0,0,1-3.151-1.379,6.736,6.736,0,0,1-1.087-4.082v-2.234a6.932,6.932,0,0,1,1.042-4.175,4.342,4.342,0,0,1,6.338-.035,6.718,6.718,0,0,1,1.068,4.06Zm-2.154-2.411a5.468,5.468,0,0,0-.5-2.664,1.9,1.9,0,0,0-3.129-.044,5.042,5.042,0,0,0-.523,2.5v2.926a5.607,5.607,0,0,0,.5,2.7,1.7,1.7,0,0,0,1.587.886,1.666,1.666,0,0,0,1.534-.82,5.285,5.285,0,0,0,.523-2.566Z" transform="translate(-65.602 -52.068)"/>
      <path id="パス_223733" data-name="パス 223733" d="M729.74,568.317a10.359,10.359,0,0,1-.964,1.9,5.14,5.14,0,0,0-1.128-.882,9.736,9.736,0,0,0,1.537-3.6,5.122,5.122,0,0,0,.131-.915l1.405.359a10.294,10.294,0,0,0-.278,1c-.1.343-.147.507-.229.8h1.57V565.67a9.076,9.076,0,0,0-.1-1.5h1.6a8.8,8.8,0,0,0-.1,1.5v1.306H735.3a10.784,10.784,0,0,0,1.684-.1V568.4a14.729,14.729,0,0,0-1.684-.083h-2.109v2.3H735.8a12.566,12.566,0,0,0,1.7-.1v1.553c-.54-.049-1.047-.082-1.7-.082h-2.142a11.72,11.72,0,0,0,4.267,4.331,5.894,5.894,0,0,0-.965,1.39,13.181,13.181,0,0,1-3.84-4.446c.032.6.064,1.177.064,1.684v2.419a11.36,11.36,0,0,0,.1,1.83h-1.6a14.441,14.441,0,0,0,.1-1.847v-2.321c0-.473.016-1.062.049-1.732a12.006,12.006,0,0,1-4.022,4.479,6.194,6.194,0,0,0-.9-1.276A11.093,11.093,0,0,0,731.243,572h-1.389a12.824,12.824,0,0,0-1.717.1v-.572a5.046,5.046,0,0,0-.686,1.242,9.662,9.662,0,0,1-1.1-2.353c0,.245.017.425.017.556.016.212.033.834.065,1.864v4.38a12.574,12.574,0,0,0,.1,1.962h-1.585a15.55,15.55,0,0,0,.1-1.962v-3.988c0-.817.017-1.243.1-2.353a13.465,13.465,0,0,1-1.9,4.363,5.326,5.326,0,0,0-.7-1.471,14.251,14.251,0,0,0,2.338-5.182h-.768a6.456,6.456,0,0,0-1.111.065v-1.438a6.353,6.353,0,0,0,1.111.065h.915v-1.438a10.414,10.414,0,0,0-.081-1.684h1.569a10.937,10.937,0,0,0-.082,1.667v1.455h.507a5.229,5.229,0,0,0,.964-.065v1.423a8.227,8.227,0,0,0-.931-.05h-.49a9.98,9.98,0,0,0,1.65,2.909v-.964a12.489,12.489,0,0,0,1.717.1h1.929v-2.3Z" transform="translate(-66.61 -52.008)"/>
      <path id="パス_223734" data-name="パス 223734" d="M752.466,566.384a10.56,10.56,0,0,0,1.913-.114v1.6a11.787,11.787,0,0,0-1.9-.1h-3.712v2.55h4.643a11.651,11.651,0,0,0,1.911-.114v1.618a15.363,15.363,0,0,0-1.911-.1h-3.957a13.223,13.223,0,0,0,2.307,2.648,15.341,15.341,0,0,0,3.986,2.516,7.855,7.855,0,0,0-.948,1.439,16.887,16.887,0,0,1-3.547-2.5,11.951,11.951,0,0,1-2.534-3.074c.033.916.049,1.276.049,1.62v3.039a10.447,10.447,0,0,0,.116,1.7h-1.749a10.155,10.155,0,0,0,.113-1.7v-2.991c0-.523.016-.914.049-1.618a12.816,12.816,0,0,1-2.3,2.844,17.273,17.273,0,0,1-3.465,2.583,6.809,6.809,0,0,0-.964-1.356,15.249,15.249,0,0,0,5.982-5.149h-3.58a16.494,16.494,0,0,0-1.9.1v-1.618a12.616,12.616,0,0,0,1.881.114h4.3v-2.55h-3.367a12.9,12.9,0,0,0-1.9.1v-1.6a11.823,11.823,0,0,0,1.9.114h3.367v-1.063a9.039,9.039,0,0,0-.081-1.226h1.683a6.169,6.169,0,0,0-.083,1.226v1.063Z" transform="translate(-68.271 -52.003)"/>
      <path id="パス_223735" data-name="パス 223735" d="M762.087,573.864a33.636,33.636,0,0,1-1.864,4.56,6.09,6.09,0,0,0-.294.6l-1.291-1.193a14.289,14.289,0,0,0,2.256-4.822Zm-2.4-5.492a15.74,15.74,0,0,1,2.565,2.125l-.98,1.095a12.813,12.813,0,0,0-2.566-2.224Zm.556-4.038a15.044,15.044,0,0,1,2.484,2.092l-.964,1.111a11.977,11.977,0,0,0-2.5-2.256Zm8.188,6.506h2.86a15.808,15.808,0,0,0,1.733-.066,9.936,9.936,0,0,0-.083,1.635v5.263c0,1.013-.391,1.275-1.912,1.275-.425,0-1.029-.033-1.373-.05a5.358,5.358,0,0,0-.311-1.422,11.157,11.157,0,0,0,1.668.147c.457,0,.556-.064.556-.376v-5.181h-3.138v3.449h1v-1.308a12.571,12.571,0,0,0-.049-1.275h1.308a7.979,7.979,0,0,0-.065,1.275V575.5a11.634,11.634,0,0,0,.033,1.227c-.245-.016-.589-.033-1.128-.033h-3.367v.9H764.9a10.073,10.073,0,0,0,.065-1.307v-2.076a9.358,9.358,0,0,0-.065-1.291h1.324a8.265,8.265,0,0,0-.065,1.275v1.325h1v-3.449H764.1v5.328a13.319,13.319,0,0,0,.082,1.766h-1.521a14.534,14.534,0,0,0,.1-1.831v-5.116c0-.637-.016-.948-.048-1.422a12.206,12.206,0,0,0,1.257.05h3.188v-1.194h-3.2a12.238,12.238,0,0,0-1.733.1V568.29a11.28,11.28,0,0,0,1.7.1h1.111v-1.454h-.686a11.549,11.549,0,0,0-1.57.082v-1.471a10.579,10.579,0,0,0,1.6.1h.654v-.2a6.124,6.124,0,0,0-.1-1.242h1.586a8.128,8.128,0,0,0-.083,1.242v.2h2.812v-.212a8.375,8.375,0,0,0-.083-1.227h1.586a6.178,6.178,0,0,0-.1,1.227v.212h.931a10.939,10.939,0,0,0,1.618-.1v1.471a14.623,14.623,0,0,0-1.6-.082h-.949v1.454h1.34a8.916,8.916,0,0,0,1.749-.1v1.453a11.978,11.978,0,0,0-1.765-.1h-3.548Zm.818-3.907h-2.812v1.455h2.812Z" transform="translate(-69.937 -52.013)"/>
      <path id="パス_223736" data-name="パス 223736" d="M656.951,89.617h-2.145V79.247l-3.166,1.079V78.517l5.036-1.853h.275Z" transform="translate(-60.073 -7.068)"/>
      <path id="パス_223737" data-name="パス 223737" d="M670.841,84.169a7.046,7.046,0,0,1-1.041,4.2,3.681,3.681,0,0,1-3.17,1.414,3.726,3.726,0,0,1-3.151-1.379,6.736,6.736,0,0,1-1.087-4.082V82.086a6.932,6.932,0,0,1,1.042-4.175,4.342,4.342,0,0,1,6.338-.035,6.717,6.717,0,0,1,1.069,4.06Zm-2.154-2.411a5.469,5.469,0,0,0-.5-2.664,1.9,1.9,0,0,0-3.129-.044,5.044,5.044,0,0,0-.523,2.5V84.48a5.608,5.608,0,0,0,.5,2.7,1.7,1.7,0,0,0,1.587.886,1.666,1.666,0,0,0,1.534-.82,5.285,5.285,0,0,0,.523-2.566Z" transform="translate(-61.065 -7.054)"/>
      <path id="パス_223738" data-name="パス 223738" d="M682.208,84.169a7.046,7.046,0,0,1-1.041,4.2A3.681,3.681,0,0,1,678,89.781a3.726,3.726,0,0,1-3.151-1.379,6.736,6.736,0,0,1-1.087-4.082V82.086a6.932,6.932,0,0,1,1.042-4.175,4.342,4.342,0,0,1,6.338-.035,6.717,6.717,0,0,1,1.068,4.06Zm-2.154-2.411a5.469,5.469,0,0,0-.5-2.664,1.9,1.9,0,0,0-3.129-.044,5.043,5.043,0,0,0-.523,2.5V84.48a5.608,5.608,0,0,0,.5,2.7,1.7,1.7,0,0,0,1.587.886,1.666,1.666,0,0,0,1.534-.82,5.286,5.286,0,0,0,.523-2.566Z" transform="translate(-62.112 -7.054)"/>
      <path id="パス_223739" data-name="パス 223739" d="M691.888,80.03a10.353,10.353,0,0,1-.964,1.9,5.163,5.163,0,0,0-1.128-.883,9.725,9.725,0,0,0,1.537-3.6,5.127,5.127,0,0,0,.131-.915l1.405.359a10.29,10.29,0,0,0-.278,1c-.1.343-.147.507-.229.8h1.57V77.382a9.072,9.072,0,0,0-.1-1.5h1.6a8.8,8.8,0,0,0-.1,1.5V78.69h2.109a10.76,10.76,0,0,0,1.684-.1v1.521a14.726,14.726,0,0,0-1.684-.083h-2.109v2.3h2.615a12.558,12.558,0,0,0,1.7-.1V83.79c-.54-.049-1.047-.082-1.7-.082H695.81a11.72,11.72,0,0,0,4.267,4.331,5.893,5.893,0,0,0-.965,1.39,13.181,13.181,0,0,1-3.84-4.446c.032.6.064,1.177.064,1.684v2.419a11.359,11.359,0,0,0,.1,1.83h-1.6a14.442,14.442,0,0,0,.1-1.847V86.748c0-.474.016-1.062.049-1.732a12.006,12.006,0,0,1-4.022,4.479,6.167,6.167,0,0,0-.9-1.275,11.093,11.093,0,0,0,4.331-4.511H692a12.824,12.824,0,0,0-1.717.1v-.572a5.044,5.044,0,0,0-.686,1.242,9.66,9.66,0,0,1-1.1-2.353c0,.245.017.425.017.556.016.212.033.834.065,1.864v4.38a12.575,12.575,0,0,0,.1,1.962H687.1a15.55,15.55,0,0,0,.1-1.962V84.934c0-.817.017-1.243.1-2.353a13.464,13.464,0,0,1-1.9,4.363,5.325,5.325,0,0,0-.7-1.471,14.252,14.252,0,0,0,2.338-5.182h-.768a6.452,6.452,0,0,0-1.111.065V78.919a6.359,6.359,0,0,0,1.111.065h.915V77.546a10.415,10.415,0,0,0-.081-1.684h1.569a10.937,10.937,0,0,0-.082,1.667v1.455h.507a5.234,5.234,0,0,0,.964-.065v1.423a8.222,8.222,0,0,0-.931-.05h-.49a9.982,9.982,0,0,0,1.65,2.91v-.964a12.48,12.48,0,0,0,1.717.1h1.929v-2.3Z" transform="translate(-63.121 -6.994)"/>
      <path id="パス_223740" data-name="パス 223740" d="M714.613,78.1a10.55,10.55,0,0,0,1.913-.114v1.6a11.767,11.767,0,0,0-1.9-.1h-3.711v2.55h4.643a11.659,11.659,0,0,0,1.912-.114v1.618a15.392,15.392,0,0,0-1.912-.1h-3.956a13.255,13.255,0,0,0,2.306,2.648,15.347,15.347,0,0,0,3.987,2.516,7.858,7.858,0,0,0-.948,1.439,16.861,16.861,0,0,1-3.547-2.5,11.912,11.912,0,0,1-2.534-3.074c.033.916.049,1.275.049,1.62v3.039a10.454,10.454,0,0,0,.115,1.7h-1.749a10.046,10.046,0,0,0,.114-1.7V86.138c0-.523.015-.915.049-1.618a12.845,12.845,0,0,1-2.306,2.844,17.231,17.231,0,0,1-3.464,2.583,6.847,6.847,0,0,0-.964-1.356,15.246,15.246,0,0,0,5.982-5.149h-3.579a16.486,16.486,0,0,0-1.9.1V81.921a12.605,12.605,0,0,0,1.88.114h4.3v-2.55h-3.367a12.9,12.9,0,0,0-1.9.1v-1.6a11.84,11.84,0,0,0,1.9.114H709.4V77.034a8.878,8.878,0,0,0-.082-1.226H711a6.256,6.256,0,0,0-.082,1.226V78.1Z" transform="translate(-64.782 -6.989)"/>
      <path id="パス_223741" data-name="パス 223741" d="M724.235,85.576a33.819,33.819,0,0,1-1.864,4.561,5.668,5.668,0,0,0-.294.6l-1.291-1.194a14.3,14.3,0,0,0,2.255-4.821Zm-2.4-5.491a15.771,15.771,0,0,1,2.565,2.124l-.98,1.1a12.79,12.79,0,0,0-2.566-2.224Zm.556-4.038a15.011,15.011,0,0,1,2.485,2.093l-.965,1.111a11.976,11.976,0,0,0-2.5-2.256Zm8.189,6.505h2.86a15.838,15.838,0,0,0,1.733-.065,9.953,9.953,0,0,0-.082,1.635v5.263c0,1.013-.392,1.275-1.913,1.275-.425,0-1.029-.033-1.372-.05a5.392,5.392,0,0,0-.311-1.422,11.155,11.155,0,0,0,1.668.147c.458,0,.556-.064.556-.376V83.779h-3.138v3.449h1V85.919c0-.588-.016-.915-.049-1.275h1.307a8.091,8.091,0,0,0-.065,1.275V87.21a11.655,11.655,0,0,0,.033,1.226c-.244-.016-.588-.033-1.128-.033H728.3v.9h-1.259A10.067,10.067,0,0,0,727.112,88V85.919a9.339,9.339,0,0,0-.066-1.291h1.324A8.382,8.382,0,0,0,728.3,85.9v1.325h1V83.779h-3.057v5.328a13.308,13.308,0,0,0,.082,1.765h-1.521a14.308,14.308,0,0,0,.1-1.83V83.926c0-.638-.017-.949-.049-1.423a12.27,12.27,0,0,0,1.258.049H729.3V81.359h-3.2a12.247,12.247,0,0,0-1.733.1V80a11.138,11.138,0,0,0,1.7.1h1.112V78.646h-.687a11.551,11.551,0,0,0-1.57.082V77.256a10.463,10.463,0,0,0,1.6.1h.655v-.2a6.051,6.051,0,0,0-.1-1.242h1.586a8.258,8.258,0,0,0-.082,1.242v.2h2.811v-.213a8.371,8.371,0,0,0-.083-1.226H732.9a6.094,6.094,0,0,0-.1,1.226v.213h.932a10.827,10.827,0,0,0,1.618-.1v1.472a14.643,14.643,0,0,0-1.6-.082H732.8V80.1h1.341a8.814,8.814,0,0,0,1.748-.1v1.454a11.961,11.961,0,0,0-1.765-.1h-3.547Zm.817-3.906h-2.812V80.1h2.812Z" transform="translate(-66.448 -6.999)"/>
      <path id="パス_223742" data-name="パス 223742" d="M562.4,71.732h3.152V89.475H561.99v-13.7l-3,2.44L557.211,75.9Z" transform="translate(-51.368 -6.613)"/>
      <path id="パス_223743" data-name="パス 223743" d="M577.965,71.732h3.152V89.475h-3.559v-13.7l-3,2.44L572.78,75.9Z" transform="translate(-52.803 -6.613)"/>
      <rect id="長方形_17239" data-name="長方形 17239" width="3.559" height="3.559" transform="translate(533.855 79.303)"/>
      <path id="パス_223744" data-name="パス 223744" d="M595.069,89.443V86.469c1.651-1.6,7.676-6.634,7.676-9.888,0-1.627-1.449-2.389-2.9-2.389a7.7,7.7,0,0,0-4.092,1.423l-.281-2.949a11.812,11.812,0,0,1,5.262-1.271c3.382,0,5.568,1.7,5.568,5.185,0,3.762-3.788,7.219-6.685,10.066h7.243v2.8Z" transform="translate(-54.858 -6.582)"/>
      <path id="パス_223745" data-name="パス 223745" d="M612.456,76.047c0-2.949,1.551-4.677,4.27-4.677s4.22,1.728,4.22,4.677-1.5,4.677-4.22,4.677-4.27-1.728-4.27-4.677m5.847,0c0-1.093-.229-2.644-1.577-2.644s-1.627,1.551-1.627,2.644.28,2.644,1.627,2.644,1.577-1.551,1.577-2.644m8.668-4.931h2.083l-10.98,18.861H615.99Zm-2.949,13.929c0-2.949,1.551-4.677,4.27-4.677s4.219,1.728,4.219,4.677-1.5,4.677-4.219,4.677-4.27-1.728-4.27-4.677m5.845,0c0-1.093-.229-2.644-1.575-2.644s-1.627,1.551-1.627,2.644.279,2.644,1.627,2.644,1.575-1.551,1.575-2.644" transform="translate(-56.461 -6.556)"/>
      <path id="パス_223746" data-name="パス 223746" d="M477.351,560.836H488.79v2.949l-6.3,14.794h-3.864l6.583-14.946h-7.853Z" transform="translate(-44.006 -51.702)"/>
      <path id="パス_223747" data-name="パス 223747" d="M491.967,572.02l6.634-11.184h4.423v11.413h2.262v2.644h-2.262v3.686h-3.406v-3.686h-7.651Zm7.651.229v-7.7h-.051l-4.4,7.7Z" transform="translate(-45.353 -51.702)"/>
      <rect id="長方形_17240" data-name="長方形 17240" width="3.559" height="3.559" transform="translate(462.093 523.317)"/>
      <path id="パス_223748" data-name="パス 223748" d="M516.271,560.836H527.71v2.949l-6.3,14.794h-3.864l6.583-14.946h-7.853Z" transform="translate(-47.594 -51.702)"/>
      <path id="パス_223749" data-name="パス 223749" d="M533.406,565.151c0-2.949,1.551-4.677,4.27-4.677s4.22,1.728,4.22,4.677-1.5,4.676-4.22,4.676-4.27-1.728-4.27-4.676m5.847,0c0-1.093-.229-2.644-1.577-2.644s-1.627,1.551-1.627,2.644.28,2.643,1.627,2.643,1.577-1.551,1.577-2.643m8.668-4.932H550l-10.98,18.862H536.94Zm-2.949,13.929c0-2.948,1.551-4.676,4.27-4.676s4.219,1.729,4.219,4.676-1.5,4.677-4.219,4.677-4.27-1.729-4.27-4.677m5.845,0c0-1.092-.229-2.643-1.575-2.643s-1.627,1.551-1.627,2.643.279,2.644,1.627,2.644,1.575-1.551,1.575-2.644" transform="translate(-49.174 -51.645)"/>
      <path id="パス_223750" data-name="パス 223750" d="M43.9,94.616h3.152v17.742H43.49v-13.7l-3,2.44-1.779-2.313Z" transform="translate(-3.569 -8.722)"/>
      <path id="パス_223751" data-name="パス 223751" d="M53.531,109.024a10.711,10.711,0,0,0,3.94.813c1.474,0,3.737-.713,3.737-2.516,0-2.084-1.652-2.772-3.914-2.772H55.564v-2.8h1.627c2.39,0,3.94-.788,3.94-2.339,0-1.779-1.449-2.339-3.049-2.339a9.034,9.034,0,0,0-3.992.94l-.2-2.848a13.694,13.694,0,0,1,4.957-.889c2.186,0,5.846.763,5.846,4.549,0,2.416-1.5,3.559-3.305,4.245v.052c2.263.305,3.382,2.058,3.382,4.219,0,4.22-3.839,5.288-6.788,5.288a18.07,18.07,0,0,1-4.652-.585Z" transform="translate(-4.916 -8.692)"/>
      <rect id="長方形_17241" data-name="長方形 17241" width="3.559" height="3.559" transform="translate(63.154 100.078)"/>
      <path id="パス_223752" data-name="パス 223752" d="M76.568,112.327v-2.973c1.651-1.6,7.676-6.634,7.676-9.889,0-1.626-1.449-2.388-2.9-2.388A7.7,7.7,0,0,0,77.254,98.5l-.281-2.949a11.8,11.8,0,0,1,5.262-1.272c3.382,0,5.568,1.7,5.568,5.185,0,3.763-3.788,7.22-6.685,10.067h7.243v2.8Z" transform="translate(-7.059 -8.692)"/>
      <path id="パス_223753" data-name="パス 223753" d="M93.955,98.932c0-2.949,1.551-4.677,4.27-4.677s4.22,1.728,4.22,4.677-1.5,4.676-4.22,4.676-4.27-1.728-4.27-4.676m5.847,0c0-1.093-.229-2.644-1.577-2.644S96.6,97.839,96.6,98.932s.28,2.643,1.627,2.643,1.577-1.551,1.577-2.643M108.47,94h2.083l-10.98,18.862H97.489Zm-2.949,13.929c0-2.948,1.551-4.676,4.27-4.676s4.219,1.728,4.219,4.676-1.5,4.677-4.219,4.677-4.27-1.728-4.27-4.677m5.845,0c0-1.092-.229-2.643-1.575-2.643s-1.627,1.551-1.627,2.643.279,2.644,1.627,2.644,1.575-1.551,1.575-2.644" transform="translate(-8.662 -8.666)"/>
      <path id="パス_223754" data-name="パス 223754" d="M158.939,54.685h-2.145V44.316l-3.166,1.079V43.586l5.036-1.853h.275Z" transform="translate(-14.163 -3.847)"/>
      <path id="パス_223755" data-name="パス 223755" d="M172.829,49.237a7.044,7.044,0,0,1-1.041,4.2,3.679,3.679,0,0,1-3.17,1.414,3.726,3.726,0,0,1-3.151-1.379,6.736,6.736,0,0,1-1.087-4.082V47.154a6.932,6.932,0,0,1,1.042-4.175,4.342,4.342,0,0,1,6.338-.035A6.715,6.715,0,0,1,172.829,47Zm-2.154-2.411a5.471,5.471,0,0,0-.5-2.664,1.9,1.9,0,0,0-3.129-.044,5.045,5.045,0,0,0-.523,2.5v2.926a5.606,5.606,0,0,0,.5,2.7,1.7,1.7,0,0,0,1.587.886,1.668,1.668,0,0,0,1.534-.82,5.28,5.28,0,0,0,.523-2.566Z" transform="translate(-15.154 -3.834)"/>
      <path id="パス_223756" data-name="パス 223756" d="M178.347,55.867c0,1.471-.362,2.088-1.58,2.56l-.581-.817c.98-.327,1.162-.6,1.18-1.743h-1.344V53.56h2.325Z" transform="translate(-16.227 -4.938)"/>
      <path id="パス_223757" data-name="パス 223757" d="M189.376,49.237a7.044,7.044,0,0,1-1.041,4.2,3.679,3.679,0,0,1-3.17,1.414,3.726,3.726,0,0,1-3.151-1.379,6.736,6.736,0,0,1-1.087-4.082V47.154a6.932,6.932,0,0,1,1.042-4.175,4.342,4.342,0,0,1,6.338-.035A6.715,6.715,0,0,1,189.376,47Zm-2.154-2.411a5.471,5.471,0,0,0-.5-2.664,1.9,1.9,0,0,0-3.129-.044,5.045,5.045,0,0,0-.523,2.5v2.926a5.606,5.606,0,0,0,.5,2.7,1.7,1.7,0,0,0,1.587.886,1.668,1.668,0,0,0,1.534-.82,5.28,5.28,0,0,0,.523-2.566Z" transform="translate(-16.679 -3.834)"/>
      <path id="パス_223758" data-name="パス 223758" d="M200.743,49.237a7.044,7.044,0,0,1-1.041,4.2,3.679,3.679,0,0,1-3.17,1.414,3.726,3.726,0,0,1-3.151-1.379,6.736,6.736,0,0,1-1.087-4.082V47.154a6.932,6.932,0,0,1,1.042-4.175,4.342,4.342,0,0,1,6.338-.035A6.715,6.715,0,0,1,200.743,47Zm-2.154-2.411a5.471,5.471,0,0,0-.5-2.664,1.9,1.9,0,0,0-3.129-.044,5.045,5.045,0,0,0-.523,2.5v2.926a5.606,5.606,0,0,0,.5,2.7,1.7,1.7,0,0,0,1.587.886,1.668,1.668,0,0,0,1.534-.82,5.28,5.28,0,0,0,.523-2.566Z" transform="translate(-17.727 -3.834)"/>
      <path id="パス_223759" data-name="パス 223759" d="M212.11,49.237a7.044,7.044,0,0,1-1.041,4.2,3.679,3.679,0,0,1-3.17,1.414,3.726,3.726,0,0,1-3.151-1.379,6.736,6.736,0,0,1-1.087-4.082V47.154a6.932,6.932,0,0,1,1.042-4.175,4.342,4.342,0,0,1,6.338-.035A6.715,6.715,0,0,1,212.11,47Zm-2.154-2.411a5.471,5.471,0,0,0-.5-2.664,1.9,1.9,0,0,0-3.129-.044,5.045,5.045,0,0,0-.523,2.5v2.926a5.606,5.606,0,0,0,.5,2.7,1.7,1.7,0,0,0,1.587.886,1.668,1.668,0,0,0,1.534-.82,5.28,5.28,0,0,0,.523-2.566Z" transform="translate(-18.775 -3.834)"/>
      <path id="パス_223760" data-name="パス 223760" d="M221.79,45.1a10.38,10.38,0,0,1-.964,1.9,5.134,5.134,0,0,0-1.128-.882,9.732,9.732,0,0,0,1.537-3.6,5.126,5.126,0,0,0,.131-.916l1.405.36a10.3,10.3,0,0,0-.278,1c-.1.344-.147.507-.229.8h1.57V42.451a9.057,9.057,0,0,0-.1-1.5h1.6a8.79,8.79,0,0,0-.1,1.5v1.307h2.109a10.9,10.9,0,0,0,1.684-.1v1.52a14.974,14.974,0,0,0-1.684-.082h-2.109v2.3h2.615a12.707,12.707,0,0,0,1.7-.1v1.552c-.54-.049-1.047-.082-1.7-.082h-2.142a11.72,11.72,0,0,0,4.267,4.331,5.93,5.93,0,0,0-.965,1.39,13.178,13.178,0,0,1-3.84-4.446c.032.6.064,1.177.064,1.683v2.419a11.363,11.363,0,0,0,.1,1.83h-1.6a14.436,14.436,0,0,0,.1-1.846V51.817c0-.474.016-1.063.049-1.732a12.01,12.01,0,0,1-4.022,4.478,6.184,6.184,0,0,0-.9-1.275,11.1,11.1,0,0,0,4.331-4.512H221.9a12.657,12.657,0,0,0-1.717.1V48.3a5.028,5.028,0,0,0-.686,1.242,9.676,9.676,0,0,1-1.1-2.353c0,.245.017.424.017.556.016.212.033.833.065,1.863v4.381a12.582,12.582,0,0,0,.1,1.962H217a15.569,15.569,0,0,0,.1-1.962V50c0-.817.017-1.242.1-2.353a13.472,13.472,0,0,1-1.9,4.364,5.325,5.325,0,0,0-.7-1.471,14.258,14.258,0,0,0,2.338-5.182h-.768a6.36,6.36,0,0,0-1.111.065V43.987a6.253,6.253,0,0,0,1.111.066h.915V42.614A10.4,10.4,0,0,0,217,40.931h1.569a10.921,10.921,0,0,0-.082,1.667v1.455h.507a5.145,5.145,0,0,0,.964-.066v1.423a8.23,8.23,0,0,0-.931-.049h-.49a10,10,0,0,0,1.65,2.91v-.964a12.626,12.626,0,0,0,1.717.1h1.929V45.1Z" transform="translate(-19.783 -3.773)"/>
      <path id="パス_223761" data-name="パス 223761" d="M234.576,43.295a10.224,10.224,0,0,0-.131-1.846h1.766A10.854,10.854,0,0,0,236.129,43v.311l.082,8.009a32.528,32.528,0,0,0,4.381-2.272l.31,1.439a41.8,41.8,0,0,1-6.408,3.171c-.539.229-.686.294-1.078.474l-.458-1.667a10.513,10.513,0,0,0,1.7-.54Zm11.737-1.863c-.033.245-.033.327-.147,1.994a23.149,23.149,0,0,1-.671,4.1,12.139,12.139,0,0,1-1.242,2.991A9.726,9.726,0,0,0,248,54.279a6.669,6.669,0,0,0-.981,1.536,12.786,12.786,0,0,1-3.661-3.955,13.036,13.036,0,0,1-5.671,4.086,4.335,4.335,0,0,0-.916-1.356A14.2,14.2,0,0,0,240,52.955a9.742,9.742,0,0,0,4.052-5.835,17.96,17.96,0,0,0,.573-4.757,8.021,8.021,0,0,0-.049-.964Zm-7.16,1.029a23.942,23.942,0,0,1,3.2,3.972l-1.389.964a18.834,18.834,0,0,0-3.107-4.1Z" transform="translate(-21.476 -3.816)"/>
      <path id="パス_223762" data-name="パス 223762" d="M258.673,53.753h4.969a18.088,18.088,0,0,0,2.059-.1v1.668a15.37,15.37,0,0,0-2.043-.114H253.083a17.212,17.212,0,0,0-2.125.114V53.655a18.948,18.948,0,0,0,2.125.1h3.972V43a12.884,12.884,0,0,0-.114-1.814h1.847A12.4,12.4,0,0,0,258.673,43v3.024h3.972a14.613,14.613,0,0,0,1.815-.1v1.651a15.206,15.206,0,0,0-1.815-.1h-3.972Z" transform="translate(-23.135 -3.797)"/>
      <path id="パス_223763" data-name="パス 223763" d="M269.966,52.039a18.105,18.105,0,0,1,3.514,3.547l-1.34,1.243a17.188,17.188,0,0,0-3.416-3.661Z" transform="translate(-24.773 -4.797)"/>
      <path id="パス_223764" data-name="パス 223764" d="M283.955,54.685h-2.145V44.316l-3.166,1.079V43.586l5.036-1.853h.275Z" transform="translate(-25.688 -3.847)"/>
      <path id="パス_223765" data-name="パス 223765" d="M297.845,49.237a7.044,7.044,0,0,1-1.041,4.2,3.679,3.679,0,0,1-3.17,1.414,3.726,3.726,0,0,1-3.151-1.379,6.736,6.736,0,0,1-1.087-4.082V47.154a6.932,6.932,0,0,1,1.042-4.175,4.342,4.342,0,0,1,6.338-.035A6.716,6.716,0,0,1,297.845,47Zm-2.154-2.411a5.471,5.471,0,0,0-.5-2.664,1.9,1.9,0,0,0-3.129-.044,5.044,5.044,0,0,0-.523,2.5v2.926a5.606,5.606,0,0,0,.5,2.7,1.7,1.7,0,0,0,1.587.886,1.668,1.668,0,0,0,1.534-.82,5.28,5.28,0,0,0,.523-2.566Z" transform="translate(-26.679 -3.834)"/>
      <path id="パス_223766" data-name="パス 223766" d="M309.212,49.237a7.044,7.044,0,0,1-1.041,4.2A3.679,3.679,0,0,1,305,54.849a3.726,3.726,0,0,1-3.151-1.379,6.736,6.736,0,0,1-1.087-4.082V47.154a6.932,6.932,0,0,1,1.042-4.175,4.342,4.342,0,0,1,6.338-.035A6.716,6.716,0,0,1,309.212,47Zm-2.154-2.411a5.471,5.471,0,0,0-.5-2.664,1.9,1.9,0,0,0-3.129-.044,5.045,5.045,0,0,0-.523,2.5v2.926a5.606,5.606,0,0,0,.5,2.7,1.7,1.7,0,0,0,1.587.886,1.668,1.668,0,0,0,1.534-.82,5.28,5.28,0,0,0,.523-2.566Z" transform="translate(-27.727 -3.834)"/>
      <path id="パス_223767" data-name="パス 223767" d="M314.73,55.867c0,1.471-.363,2.088-1.581,2.56l-.58-.817c.98-.327,1.162-.6,1.179-1.743H312.4V53.56h2.325Z" transform="translate(-28.8 -4.938)"/>
      <path id="パス_223768" data-name="パス 223768" d="M325.759,49.237a7.044,7.044,0,0,1-1.041,4.2,3.679,3.679,0,0,1-3.17,1.414A3.726,3.726,0,0,1,318.4,53.47a6.736,6.736,0,0,1-1.087-4.082V47.154a6.932,6.932,0,0,1,1.042-4.175,4.342,4.342,0,0,1,6.338-.035A6.716,6.716,0,0,1,325.759,47ZM323.6,46.826a5.471,5.471,0,0,0-.5-2.664,1.9,1.9,0,0,0-3.129-.044,5.044,5.044,0,0,0-.523,2.5v2.926a5.606,5.606,0,0,0,.5,2.7,1.7,1.7,0,0,0,1.587.886,1.668,1.668,0,0,0,1.534-.82,5.28,5.28,0,0,0,.523-2.566Z" transform="translate(-29.252 -3.834)"/>
      <path id="パス_223769" data-name="パス 223769" d="M337.126,49.237a7.044,7.044,0,0,1-1.041,4.2,3.679,3.679,0,0,1-3.17,1.414,3.726,3.726,0,0,1-3.151-1.379,6.736,6.736,0,0,1-1.087-4.082V47.154a6.932,6.932,0,0,1,1.042-4.175,4.342,4.342,0,0,1,6.338-.035A6.716,6.716,0,0,1,337.126,47Zm-2.154-2.411a5.471,5.471,0,0,0-.5-2.664,1.9,1.9,0,0,0-3.129-.044,5.045,5.045,0,0,0-.523,2.5v2.926a5.606,5.606,0,0,0,.5,2.7,1.7,1.7,0,0,0,1.587.886,1.668,1.668,0,0,0,1.534-.82,5.28,5.28,0,0,0,.523-2.566Z" transform="translate(-30.3 -3.834)"/>
      <path id="パス_223770" data-name="パス 223770" d="M348.493,49.237a7.044,7.044,0,0,1-1.041,4.2,3.679,3.679,0,0,1-3.17,1.414,3.726,3.726,0,0,1-3.151-1.379,6.736,6.736,0,0,1-1.087-4.082V47.154a6.932,6.932,0,0,1,1.042-4.175,4.342,4.342,0,0,1,6.338-.035A6.716,6.716,0,0,1,348.493,47Zm-2.154-2.411a5.471,5.471,0,0,0-.5-2.664,1.9,1.9,0,0,0-3.129-.044,5.044,5.044,0,0,0-.523,2.5v2.926a5.606,5.606,0,0,0,.5,2.7,1.7,1.7,0,0,0,1.587.886,1.668,1.668,0,0,0,1.534-.82,5.28,5.28,0,0,0,.523-2.566Z" transform="translate(-31.348 -3.834)"/>
      <path id="パス_223771" data-name="パス 223771" d="M358.173,45.1a10.378,10.378,0,0,1-.964,1.9,5.134,5.134,0,0,0-1.128-.882,9.732,9.732,0,0,0,1.537-3.6,5.125,5.125,0,0,0,.131-.916l1.405.36a10.283,10.283,0,0,0-.278,1c-.1.344-.147.507-.229.8h1.57V42.451a9.057,9.057,0,0,0-.1-1.5h1.6a8.79,8.79,0,0,0-.1,1.5v1.307h2.109a10.9,10.9,0,0,0,1.684-.1v1.52a14.974,14.974,0,0,0-1.684-.082h-2.109v2.3h2.615a12.707,12.707,0,0,0,1.7-.1v1.552c-.54-.049-1.047-.082-1.7-.082H362.1a11.72,11.72,0,0,0,4.267,4.331,5.93,5.93,0,0,0-.965,1.39,13.177,13.177,0,0,1-3.84-4.446c.032.6.064,1.177.064,1.683v2.419a11.363,11.363,0,0,0,.1,1.83h-1.6a14.436,14.436,0,0,0,.1-1.846V51.817c0-.474.016-1.063.049-1.732a12.011,12.011,0,0,1-4.022,4.478,6.186,6.186,0,0,0-.9-1.275,11.1,11.1,0,0,0,4.331-4.512h-1.389a12.657,12.657,0,0,0-1.717.1V48.3a5.027,5.027,0,0,0-.686,1.242,9.676,9.676,0,0,1-1.1-2.353c0,.245.017.424.017.556.016.212.033.833.065,1.863v4.381a12.584,12.584,0,0,0,.1,1.962h-1.585a15.564,15.564,0,0,0,.1-1.962V50c0-.817.017-1.242.1-2.353a13.472,13.472,0,0,1-1.9,4.364,5.326,5.326,0,0,0-.7-1.471,14.259,14.259,0,0,0,2.338-5.182h-.768a6.361,6.361,0,0,0-1.111.065V43.987a6.253,6.253,0,0,0,1.111.066h.915V42.614a10.4,10.4,0,0,0-.081-1.683h1.569a10.925,10.925,0,0,0-.082,1.667v1.455h.507a5.144,5.144,0,0,0,.964-.066v1.423a8.229,8.229,0,0,0-.931-.049h-.49a10,10,0,0,0,1.65,2.91v-.964a12.626,12.626,0,0,0,1.717.1h1.929V45.1Z" transform="translate(-32.356 -3.773)"/>
      <path id="パス_223772" data-name="パス 223772" d="M380.9,43.165a10.55,10.55,0,0,0,1.913-.114v1.6a11.894,11.894,0,0,0-1.9-.1H377.2V47.1h4.643a11.559,11.559,0,0,0,1.912-.114v1.619a15.193,15.193,0,0,0-1.912-.1H377.89a13.2,13.2,0,0,0,2.306,2.648,15.325,15.325,0,0,0,3.987,2.517,7.876,7.876,0,0,0-.948,1.438,16.827,16.827,0,0,1-3.547-2.5,11.923,11.923,0,0,1-2.534-3.073c.033.916.049,1.275.049,1.619V54.2a10.446,10.446,0,0,0,.115,1.7H375.57a10.032,10.032,0,0,0,.114-1.7V51.207c0-.523.015-.915.049-1.619a12.8,12.8,0,0,1-2.306,2.844,17.2,17.2,0,0,1-3.464,2.583A6.9,6.9,0,0,0,369,53.659a15.232,15.232,0,0,0,5.982-5.149H371.4a16.265,16.265,0,0,0-1.9.1V46.989a12.485,12.485,0,0,0,1.88.114h4.3V44.554h-3.367a13.04,13.04,0,0,0-1.9.1v-1.6a11.839,11.839,0,0,0,1.9.114h3.367V42.1a8.893,8.893,0,0,0-.082-1.226h1.683A6.266,6.266,0,0,0,377.2,42.1v1.062Z" transform="translate(-34.017 -3.768)"/>
      <path id="パス_223773" data-name="パス 223773" d="M390.52,50.644a33.725,33.725,0,0,1-1.864,4.561,5.886,5.886,0,0,0-.294.6l-1.291-1.193a14.309,14.309,0,0,0,2.255-4.822Zm-2.4-5.491a15.736,15.736,0,0,1,2.565,2.124l-.98,1.1a12.786,12.786,0,0,0-2.566-2.223Zm.556-4.038a15.087,15.087,0,0,1,2.484,2.093l-.965,1.112a11.943,11.943,0,0,0-2.5-2.256Zm8.188,6.505h2.861a15.632,15.632,0,0,0,1.733-.065,9.843,9.843,0,0,0-.083,1.635v5.263c0,1.013-.392,1.275-1.913,1.275-.424,0-1.029-.033-1.372-.049a5.387,5.387,0,0,0-.311-1.422,11.153,11.153,0,0,0,1.668.147c.458,0,.556-.065.556-.376V48.847h-3.138V52.3h1V50.988c0-.589-.016-.916-.049-1.275h1.307a8.094,8.094,0,0,0-.065,1.275v1.291a11.663,11.663,0,0,0,.033,1.226c-.244-.016-.588-.033-1.128-.033H394.59v.9H393.33a10.079,10.079,0,0,0,.066-1.308V50.988a9.359,9.359,0,0,0-.066-1.292h1.324a8.4,8.4,0,0,0-.065,1.275V52.3h1V48.847h-3.057v5.328a13.325,13.325,0,0,0,.081,1.766h-1.52a14.524,14.524,0,0,0,.1-1.83V48.994c0-.637-.016-.948-.049-1.422a12.32,12.32,0,0,0,1.258.048h3.188V46.427h-3.2a12.1,12.1,0,0,0-1.734.1V45.071a11.146,11.146,0,0,0,1.7.1h1.112V43.714h-.687a11.538,11.538,0,0,0-1.569.082V42.325a10.576,10.576,0,0,0,1.6.1h.655v-.2a6.134,6.134,0,0,0-.1-1.243h1.586a8.137,8.137,0,0,0-.083,1.243v.2h2.812V42.21a8.519,8.519,0,0,0-.083-1.226h1.586a6.1,6.1,0,0,0-.1,1.226v.212h.932a10.967,10.967,0,0,0,1.618-.1V43.8a14.644,14.644,0,0,0-1.6-.082h-.949v1.455h1.341a8.9,8.9,0,0,0,1.749-.1v1.454a11.832,11.832,0,0,0-1.766-.1h-3.547Zm.818-3.906h-2.812v1.455h2.812Z" transform="translate(-35.683 -3.778)"/>
      <path id="パス_223774" data-name="パス 223774" d="M71.48,46.508c0-4.448,1.347-9.227,6.151-9.227,5.185,0,6.2,5.109,6.2,9.227s-1.068,9.125-6.2,9.125c-5.465,0-6.151-5.414-6.151-9.125m8.795,0c0-2.289,0-6.583-2.644-6.583-2.593,0-2.593,4.295-2.593,6.583,0,2.237-.025,6.482,2.593,6.482,2.669,0,2.644-4.245,2.644-6.482" transform="translate(-6.59 -3.437)"/>
      <rect id="長方形_17242" data-name="長方形 17242" width="3.559" height="3.559" transform="translate(79.887 48.333)"/>
      <path id="パス_223775" data-name="パス 223775" d="M98.086,46.075a4.516,4.516,0,0,1-2.949-4.117c0-3.177,2.414-4.677,5.643-4.677,3.126,0,5.948,1.3,5.948,4.27a4.672,4.672,0,0,1-2.949,4.245v.025c2.339,1.093,3.405,2.618,3.405,4.652,0,3.583-2.592,5.16-6.1,5.16-3.458,0-6.253-1.5-6.253-5.109,0-1.983,1.118-3.355,3.254-4.4Zm3,6.915a2.345,2.345,0,0,0,2.542-2.364c0-1.755-1.5-2.593-2.975-3.077-1.27.611-2.261,1.424-2.261,2.924a2.6,2.6,0,0,0,2.694,2.516m.254-8.261a3.072,3.072,0,0,0,1.983-2.567,2.082,2.082,0,0,0-2.187-2.237c-1.3,0-2.592.712-2.592,2.135,0,1.525,1.575,2.211,2.8,2.669" transform="translate(-8.742 -3.437)"/>
      <path id="パス_223776" data-name="パス 223776" d="M112.387,41.932c0-2.949,1.551-4.677,4.27-4.677s4.22,1.728,4.22,4.677-1.5,4.676-4.22,4.676-4.27-1.728-4.27-4.676m5.847,0c0-1.093-.229-2.644-1.577-2.644s-1.627,1.551-1.627,2.644.28,2.643,1.627,2.643,1.577-1.551,1.577-2.643M126.9,37h2.083l-10.98,18.862h-2.084Zm-2.949,13.929c0-2.948,1.551-4.676,4.27-4.676s4.219,1.728,4.219,4.676-1.5,4.677-4.219,4.677-4.27-1.728-4.27-4.677m5.845,0c0-1.092-.229-2.643-1.575-2.643s-1.627,1.551-1.627,2.643.279,2.644,1.627,2.644,1.575-1.551,1.575-2.644" transform="translate(-10.361 -3.411)"/>
      <path id="パス_223777" data-name="パス 223777" d="M563.939,17.685h-2.145V7.315l-3.166,1.079V6.585l5.036-1.853h.275Z" transform="translate(-51.499 -0.436)"/>
      <path id="パス_223778" data-name="パス 223778" d="M577.829,12.237a7.044,7.044,0,0,1-1.041,4.2,3.679,3.679,0,0,1-3.17,1.414,3.726,3.726,0,0,1-3.151-1.379,6.736,6.736,0,0,1-1.087-4.082V10.154a6.931,6.931,0,0,1,1.042-4.175,4.342,4.342,0,0,1,6.338-.035A6.715,6.715,0,0,1,577.829,10Zm-2.154-2.411a5.472,5.472,0,0,0-.5-2.664,1.9,1.9,0,0,0-3.129-.044,5.045,5.045,0,0,0-.523,2.5v2.926a5.606,5.606,0,0,0,.5,2.7,1.7,1.7,0,0,0,1.587.886,1.668,1.668,0,0,0,1.534-.82,5.281,5.281,0,0,0,.523-2.566Z" transform="translate(-52.49 -0.423)"/>
      <path id="パス_223779" data-name="パス 223779" d="M589.2,12.237a7.044,7.044,0,0,1-1.041,4.2,3.679,3.679,0,0,1-3.17,1.414,3.726,3.726,0,0,1-3.151-1.379,6.736,6.736,0,0,1-1.087-4.082V10.154a6.932,6.932,0,0,1,1.042-4.175,4.342,4.342,0,0,1,6.338-.035A6.716,6.716,0,0,1,589.2,10Zm-2.154-2.411a5.471,5.471,0,0,0-.5-2.664,1.9,1.9,0,0,0-3.129-.044,5.045,5.045,0,0,0-.523,2.5v2.926a5.606,5.606,0,0,0,.5,2.7,1.7,1.7,0,0,0,1.587.886,1.668,1.668,0,0,0,1.534-.82,5.281,5.281,0,0,0,.523-2.566Z" transform="translate(-53.538 -0.423)"/>
      <path id="パス_223780" data-name="パス 223780" d="M594.714,18.866c0,1.471-.362,2.088-1.58,2.56l-.581-.817c.98-.327,1.162-.6,1.18-1.743h-1.344V16.559h2.325Z" transform="translate(-54.611 -1.527)"/>
      <path id="パス_223781" data-name="パス 223781" d="M605.743,12.237a7.044,7.044,0,0,1-1.041,4.2,3.679,3.679,0,0,1-3.17,1.414,3.726,3.726,0,0,1-3.151-1.379,6.736,6.736,0,0,1-1.087-4.082V10.154a6.932,6.932,0,0,1,1.042-4.175,4.342,4.342,0,0,1,6.338-.035A6.716,6.716,0,0,1,605.743,10Zm-2.154-2.411a5.471,5.471,0,0,0-.5-2.664,1.9,1.9,0,0,0-3.129-.044,5.045,5.045,0,0,0-.523,2.5v2.926a5.606,5.606,0,0,0,.5,2.7,1.7,1.7,0,0,0,1.587.886,1.668,1.668,0,0,0,1.534-.82,5.281,5.281,0,0,0,.523-2.566Z" transform="translate(-55.063 -0.423)"/>
      <path id="パス_223782" data-name="パス 223782" d="M617.11,12.237a7.044,7.044,0,0,1-1.041,4.2,3.679,3.679,0,0,1-3.17,1.414,3.726,3.726,0,0,1-3.151-1.379,6.735,6.735,0,0,1-1.087-4.082V10.154A6.931,6.931,0,0,1,609.7,5.979a4.342,4.342,0,0,1,6.338-.035A6.715,6.715,0,0,1,617.11,10Zm-2.154-2.411a5.471,5.471,0,0,0-.5-2.664,1.9,1.9,0,0,0-3.129-.044,5.045,5.045,0,0,0-.523,2.5v2.926a5.607,5.607,0,0,0,.5,2.7,1.7,1.7,0,0,0,1.587.886,1.668,1.668,0,0,0,1.534-.82,5.279,5.279,0,0,0,.523-2.566Z" transform="translate(-56.111 -0.423)"/>
      <path id="パス_223783" data-name="パス 223783" d="M628.478,12.237a7.037,7.037,0,0,1-1.042,4.2,3.677,3.677,0,0,1-3.17,1.414,3.727,3.727,0,0,1-3.151-1.379,6.736,6.736,0,0,1-1.086-4.082V10.154a6.925,6.925,0,0,1,1.042-4.175,4.342,4.342,0,0,1,6.338-.035A6.722,6.722,0,0,1,628.478,10Zm-2.154-2.411a5.47,5.47,0,0,0-.5-2.664,1.9,1.9,0,0,0-3.128-.044,5.025,5.025,0,0,0-.523,2.5v2.926a5.618,5.618,0,0,0,.5,2.7,1.7,1.7,0,0,0,1.587.886,1.667,1.667,0,0,0,1.534-.82,5.279,5.279,0,0,0,.524-2.566Z" transform="translate(-57.159 -0.423)"/>
      <path id="パス_223784" data-name="パス 223784" d="M638.157,8.1a10.383,10.383,0,0,1-.964,1.9,5.135,5.135,0,0,0-1.128-.882,9.734,9.734,0,0,0,1.537-3.6,5.127,5.127,0,0,0,.131-.915l1.405.359a10.3,10.3,0,0,0-.278,1c-.1.343-.147.507-.229.8h1.57V5.45a9.077,9.077,0,0,0-.1-1.5h1.6a8.816,8.816,0,0,0-.1,1.5V6.757h2.109a10.9,10.9,0,0,0,1.684-.1v1.52a14.976,14.976,0,0,0-1.684-.082h-2.109v2.3h2.615a12.707,12.707,0,0,0,1.7-.1v1.552c-.54-.049-1.047-.082-1.7-.082h-2.142a11.728,11.728,0,0,0,4.267,4.332,5.908,5.908,0,0,0-.965,1.389,13.178,13.178,0,0,1-3.84-4.446c.032.6.064,1.177.064,1.683v2.419a11.378,11.378,0,0,0,.1,1.831h-1.6a14.452,14.452,0,0,0,.1-1.847V14.816c0-.474.016-1.062.049-1.732a12.011,12.011,0,0,1-4.022,4.478,6.184,6.184,0,0,0-.9-1.275,11.1,11.1,0,0,0,4.331-4.512h-1.389a12.657,12.657,0,0,0-1.717.1V11.3a5.027,5.027,0,0,0-.686,1.242,9.673,9.673,0,0,1-1.1-2.353c0,.245.017.425.017.556.016.212.033.833.065,1.863V16.99a12.582,12.582,0,0,0,.1,1.962h-1.585a15.568,15.568,0,0,0,.1-1.962V13c0-.817.017-1.242.1-2.353a13.465,13.465,0,0,1-1.9,4.364,5.324,5.324,0,0,0-.7-1.471A14.258,14.258,0,0,0,633.3,8.359h-.768a6.361,6.361,0,0,0-1.111.065V6.986a6.254,6.254,0,0,0,1.111.066h.915V5.613a10.407,10.407,0,0,0-.081-1.683h1.569a10.928,10.928,0,0,0-.082,1.667V7.052h.507a5.144,5.144,0,0,0,.964-.066V8.408a8.23,8.23,0,0,0-.931-.049h-.49a10,10,0,0,0,1.65,2.91V10.3a12.627,12.627,0,0,0,1.717.1H640.2V8.1Z" transform="translate(-58.167 -0.362)"/>
      <path id="パス_223785" data-name="パス 223785" d="M650.943,6.294a10.22,10.22,0,0,0-.131-1.846h1.766A10.845,10.845,0,0,0,652.5,6v.311l.082,8.009a32.526,32.526,0,0,0,4.381-2.272l.31,1.439a41.8,41.8,0,0,1-6.408,3.171c-.539.229-.686.294-1.079.474l-.458-1.667a10.605,10.605,0,0,0,1.7-.54ZM662.68,4.431c-.033.245-.033.327-.147,1.994a23.167,23.167,0,0,1-.671,4.1,12.143,12.143,0,0,1-1.242,2.991,9.726,9.726,0,0,0,3.743,3.759,6.667,6.667,0,0,0-.981,1.536,12.775,12.775,0,0,1-3.661-3.955,13.036,13.036,0,0,1-5.671,4.086,4.334,4.334,0,0,0-.916-1.356,14.2,14.2,0,0,0,3.237-1.634,9.743,9.743,0,0,0,4.052-5.835A17.961,17.961,0,0,0,661,5.362a8.017,8.017,0,0,0-.049-.964ZM655.52,5.46a23.94,23.94,0,0,1,3.2,3.972l-1.389.965a18.82,18.82,0,0,0-3.107-4.1Z" transform="translate(-59.86 -0.405)"/>
      <path id="パス_223786" data-name="パス 223786" d="M675.04,16.752h4.969a18.087,18.087,0,0,0,2.059-.1v1.668a15.37,15.37,0,0,0-2.043-.114H669.45a17.212,17.212,0,0,0-2.125.114V16.654a18.949,18.949,0,0,0,2.125.1h3.972V6a12.889,12.889,0,0,0-.114-1.814h1.847A12.4,12.4,0,0,0,675.04,6V9.02h3.972a14.613,14.613,0,0,0,1.815-.1v1.651a15.206,15.206,0,0,0-1.815-.1H675.04Z" transform="translate(-61.519 -0.386)"/>
      <path id="パス_223787" data-name="パス 223787" d="M686.334,15.039a18.056,18.056,0,0,1,3.514,3.547l-1.34,1.242a17.23,17.23,0,0,0-3.416-3.661Z" transform="translate(-63.157 -1.386)"/>
      <path id="パス_223788" data-name="パス 223788" d="M695.03,11.288l.7-6.507h6.933V6.644h-5.142l-.354,3.084a4,4,0,0,1,2.021-.514,3.592,3.592,0,0,1,2.868,1.18,4.668,4.668,0,0,1,1.024,3.173,4.3,4.3,0,0,1-1.135,3.134,4.137,4.137,0,0,1-3.112,1.166,4.34,4.34,0,0,1-2.939-1.006,3.635,3.635,0,0,1-1.263-2.655h2.083a2.279,2.279,0,0,0,.675,1.442,2.05,2.05,0,0,0,1.436.5,1.853,1.853,0,0,0,1.547-.711,3.059,3.059,0,0,0,.554-1.932,2.7,2.7,0,0,0-.612-1.866,2.137,2.137,0,0,0-1.684-.688,2.356,2.356,0,0,0-1.879.763Z" transform="translate(-64.037 -0.441)"/>
      <path id="パス_223789" data-name="パス 223789" d="M714.212,12.237a7.044,7.044,0,0,1-1.041,4.2A3.679,3.679,0,0,1,710,17.849a3.726,3.726,0,0,1-3.151-1.379,6.736,6.736,0,0,1-1.087-4.082V10.154a6.932,6.932,0,0,1,1.042-4.175,4.342,4.342,0,0,1,6.338-.035A6.716,6.716,0,0,1,714.212,10Zm-2.154-2.411a5.472,5.472,0,0,0-.5-2.664,1.9,1.9,0,0,0-3.129-.044,5.044,5.044,0,0,0-.523,2.5v2.926a5.606,5.606,0,0,0,.5,2.7,1.7,1.7,0,0,0,1.587.886,1.667,1.667,0,0,0,1.534-.82,5.281,5.281,0,0,0,.523-2.566Z" transform="translate(-65.063 -0.423)"/>
      <path id="パス_223790" data-name="パス 223790" d="M725.579,12.237a7.044,7.044,0,0,1-1.041,4.2,3.679,3.679,0,0,1-3.17,1.414,3.726,3.726,0,0,1-3.151-1.379,6.736,6.736,0,0,1-1.087-4.082V10.154a6.932,6.932,0,0,1,1.042-4.175,4.342,4.342,0,0,1,6.338-.035A6.715,6.715,0,0,1,725.579,10Zm-2.154-2.411a5.471,5.471,0,0,0-.5-2.664,1.9,1.9,0,0,0-3.129-.044,5.045,5.045,0,0,0-.523,2.5v2.926a5.606,5.606,0,0,0,.5,2.7,1.7,1.7,0,0,0,1.587.886,1.668,1.668,0,0,0,1.534-.82,5.281,5.281,0,0,0,.523-2.566Z" transform="translate(-66.111 -0.423)"/>
      <path id="パス_223791" data-name="パス 223791" d="M731.1,18.866c0,1.471-.362,2.088-1.58,2.56l-.581-.817c.98-.327,1.162-.6,1.18-1.743h-1.344V16.559H731.1Z" transform="translate(-67.184 -1.527)"/>
      <path id="パス_223792" data-name="パス 223792" d="M742.126,12.237a7.044,7.044,0,0,1-1.041,4.2,3.679,3.679,0,0,1-3.17,1.414,3.726,3.726,0,0,1-3.151-1.379,6.735,6.735,0,0,1-1.087-4.082V10.154a6.931,6.931,0,0,1,1.042-4.175,4.342,4.342,0,0,1,6.338-.035A6.715,6.715,0,0,1,742.126,10Zm-2.154-2.411a5.472,5.472,0,0,0-.5-2.664,1.9,1.9,0,0,0-3.129-.044,5.045,5.045,0,0,0-.523,2.5v2.926a5.607,5.607,0,0,0,.5,2.7,1.7,1.7,0,0,0,1.587.886,1.668,1.668,0,0,0,1.534-.82,5.28,5.28,0,0,0,.523-2.566Z" transform="translate(-67.636 -0.423)"/>
      <path id="パス_223793" data-name="パス 223793" d="M753.493,12.237a7.044,7.044,0,0,1-1.041,4.2,3.679,3.679,0,0,1-3.17,1.414,3.726,3.726,0,0,1-3.151-1.379,6.736,6.736,0,0,1-1.087-4.082V10.154a6.931,6.931,0,0,1,1.042-4.175,4.342,4.342,0,0,1,6.338-.035A6.716,6.716,0,0,1,753.493,10Zm-2.154-2.411a5.472,5.472,0,0,0-.5-2.664,1.9,1.9,0,0,0-3.129-.044,5.045,5.045,0,0,0-.523,2.5v2.926a5.606,5.606,0,0,0,.5,2.7,1.7,1.7,0,0,0,1.587.886,1.668,1.668,0,0,0,1.534-.82,5.281,5.281,0,0,0,.523-2.566Z" transform="translate(-68.684 -0.423)"/>
      <path id="パス_223794" data-name="パス 223794" d="M764.86,12.237a7.044,7.044,0,0,1-1.041,4.2,3.679,3.679,0,0,1-3.17,1.414A3.726,3.726,0,0,1,757.5,16.47a6.736,6.736,0,0,1-1.087-4.082V10.154a6.932,6.932,0,0,1,1.042-4.175,4.342,4.342,0,0,1,6.338-.035A6.716,6.716,0,0,1,764.86,10Zm-2.154-2.411a5.471,5.471,0,0,0-.5-2.664,1.9,1.9,0,0,0-3.129-.044,5.045,5.045,0,0,0-.523,2.5v2.926a5.606,5.606,0,0,0,.5,2.7,1.7,1.7,0,0,0,1.587.886,1.668,1.668,0,0,0,1.534-.82,5.28,5.28,0,0,0,.523-2.566Z" transform="translate(-69.732 -0.423)"/>
      <path id="パス_223795" data-name="パス 223795" d="M774.54,8.1a10.38,10.38,0,0,1-.964,1.9,5.134,5.134,0,0,0-1.128-.882,9.733,9.733,0,0,0,1.537-3.6,5.132,5.132,0,0,0,.131-.915l1.405.359c-.049.131-.049.131-.278,1-.1.343-.147.507-.229.8h1.57V5.45a9.085,9.085,0,0,0-.1-1.5h1.6a8.816,8.816,0,0,0-.1,1.5V6.757H780.1a10.9,10.9,0,0,0,1.684-.1v1.52A14.975,14.975,0,0,0,780.1,8.1h-2.109v2.3H780.6a12.706,12.706,0,0,0,1.7-.1v1.552c-.54-.049-1.047-.082-1.7-.082h-2.142a11.729,11.729,0,0,0,4.267,4.332,5.907,5.907,0,0,0-.965,1.389,13.178,13.178,0,0,1-3.84-4.446c.032.6.064,1.177.064,1.683v2.419a11.378,11.378,0,0,0,.1,1.831h-1.6a14.465,14.465,0,0,0,.1-1.847V14.816c0-.474.016-1.062.049-1.732a12.011,12.011,0,0,1-4.022,4.478,6.184,6.184,0,0,0-.9-1.275,11.1,11.1,0,0,0,4.331-4.512h-1.389a12.657,12.657,0,0,0-1.717.1V11.3a5.029,5.029,0,0,0-.686,1.242,9.673,9.673,0,0,1-1.1-2.353c0,.245.017.425.017.556.016.212.033.833.065,1.863V16.99a12.573,12.573,0,0,0,.1,1.962h-1.585a15.57,15.57,0,0,0,.1-1.962V13c0-.817.017-1.242.1-2.353a13.465,13.465,0,0,1-1.9,4.364,5.326,5.326,0,0,0-.7-1.471,14.257,14.257,0,0,0,2.338-5.182h-.768a6.361,6.361,0,0,0-1.111.065V6.986a6.253,6.253,0,0,0,1.111.066h.915V5.613a10.409,10.409,0,0,0-.081-1.683h1.569a10.928,10.928,0,0,0-.082,1.667V7.052h.507a5.144,5.144,0,0,0,.964-.066V8.408a8.229,8.229,0,0,0-.931-.049h-.49a10,10,0,0,0,1.65,2.91V10.3a12.627,12.627,0,0,0,1.717.1h1.929V8.1Z" transform="translate(-70.74 -0.362)"/>
      <path id="パス_223796" data-name="パス 223796" d="M797.265,6.165a10.551,10.551,0,0,0,1.913-.114v1.6a11.894,11.894,0,0,0-1.9-.1h-3.711V10.1h4.643a11.661,11.661,0,0,0,1.912-.114v1.619a15.022,15.022,0,0,0-1.912-.1h-3.956a13.221,13.221,0,0,0,2.306,2.647,15.325,15.325,0,0,0,3.987,2.517,7.858,7.858,0,0,0-.948,1.439,16.86,16.86,0,0,1-3.547-2.5,11.955,11.955,0,0,1-2.534-3.073c.033.915.049,1.275.049,1.618V17.2a10.454,10.454,0,0,0,.115,1.7h-1.749a10.039,10.039,0,0,0,.114-1.7V14.206c0-.523.015-.915.049-1.618a12.843,12.843,0,0,1-2.306,2.844,17.265,17.265,0,0,1-3.464,2.583,6.879,6.879,0,0,0-.964-1.357,15.237,15.237,0,0,0,5.982-5.148h-3.579a16.071,16.071,0,0,0-1.9.1V9.989a12.607,12.607,0,0,0,1.88.114h4.3V7.554h-3.367a13.04,13.04,0,0,0-1.9.1V6.05a11.839,11.839,0,0,0,1.9.114h3.367V5.1a8.883,8.883,0,0,0-.082-1.226h1.683a6.255,6.255,0,0,0-.082,1.226V6.165Z" transform="translate(-72.401 -0.357)"/>
      <path id="パス_223797" data-name="パス 223797" d="M806.887,13.644a33.827,33.827,0,0,1-1.864,4.561,5.791,5.791,0,0,0-.294.6l-1.291-1.194a14.258,14.258,0,0,0,2.255-4.821Zm-2.4-5.492a15.75,15.75,0,0,1,2.566,2.125l-.98,1.095A12.788,12.788,0,0,0,803.5,9.149Zm.556-4.037a15.044,15.044,0,0,1,2.484,2.092l-.964,1.112a11.974,11.974,0,0,0-2.5-2.256Zm8.188,6.505h2.861a15.852,15.852,0,0,0,1.733-.065,9.927,9.927,0,0,0-.083,1.635v5.263c0,1.014-.392,1.275-1.912,1.275-.425,0-1.029-.033-1.373-.049a5.4,5.4,0,0,0-.311-1.423,11.164,11.164,0,0,0,1.668.147c.458,0,.556-.065.556-.376V11.846h-3.138V15.3h1V13.987c0-.588-.016-.915-.049-1.275h1.308a7.952,7.952,0,0,0-.066,1.275v1.292a11.308,11.308,0,0,0,.034,1.226c-.245-.016-.589-.033-1.128-.033h-3.367v.9H809.7a10.236,10.236,0,0,0,.065-1.307V13.987A9.494,9.494,0,0,0,809.7,12.7h1.325a8.229,8.229,0,0,0-.066,1.275V15.3h1v-3.45H808.9v5.329a13.157,13.157,0,0,0,.082,1.766h-1.521a14.534,14.534,0,0,0,.1-1.831V11.993c0-.637-.016-.948-.048-1.422a12.236,12.236,0,0,0,1.257.049h3.188V9.427h-3.2a11.972,11.972,0,0,0-1.734.1V8.07a11.152,11.152,0,0,0,1.7.1h1.111V6.714h-.687a11.538,11.538,0,0,0-1.569.082V5.324a10.467,10.467,0,0,0,1.6.1h.655v-.2a6.123,6.123,0,0,0-.1-1.242h1.586a8.121,8.121,0,0,0-.083,1.242v.2h2.812V5.21a8.37,8.37,0,0,0-.083-1.226h1.586a6.168,6.168,0,0,0-.1,1.226v.212h.931a10.834,10.834,0,0,0,1.618-.1V6.8a14.643,14.643,0,0,0-1.6-.082h-.948V8.168h1.34a8.9,8.9,0,0,0,1.749-.1V9.525a11.709,11.709,0,0,0-1.766-.1h-3.547Zm.818-3.906h-2.812V8.169h2.812Z" transform="translate(-74.067 -0.367)"/>
      <path id="パス_223798" data-name="パス 223798" d="M475.48,9.508c0-4.448,1.347-9.227,6.151-9.227,5.185,0,6.2,5.109,6.2,9.227s-1.068,9.125-6.2,9.125c-5.465,0-6.151-5.414-6.151-9.125m8.795,0c0-2.289,0-6.583-2.644-6.583-2.593,0-2.593,4.295-2.593,6.583,0,2.237-.025,6.482,2.593,6.482,2.669,0,2.644-4.245,2.644-6.482" transform="translate(-43.834 -0.026)"/>
      <rect id="長方形_17243" data-name="長方形 17243" width="3.559" height="3.559" transform="translate(446.644 14.744)"/>
      <path id="パス_223799" data-name="パス 223799" d="M505.249.617H508.4V18.359h-3.559V4.658l-3,2.44-1.779-2.313Z" transform="translate(-46.1 -0.057)"/>
      <path id="パス_223800" data-name="パス 223800" d="M516.388,4.932c0-2.949,1.551-4.677,4.27-4.677s4.22,1.728,4.22,4.677-1.5,4.676-4.22,4.676-4.27-1.728-4.27-4.676m5.847,0c0-1.093-.229-2.644-1.577-2.644s-1.627,1.551-1.627,2.644.28,2.643,1.627,2.643,1.577-1.551,1.577-2.643M530.9,0h2.083l-10.98,18.862h-2.084Zm-2.949,13.929c0-2.948,1.55-4.676,4.27-4.676s4.219,1.728,4.219,4.676-1.5,4.677-4.219,4.677-4.27-1.728-4.27-4.677m5.845,0c0-1.092-.229-2.643-1.575-2.643s-1.627,1.551-1.627,2.643.279,2.644,1.627,2.644,1.575-1.551,1.575-2.644" transform="translate(-47.605)"/>
      <path id="パス_223801" data-name="パス 223801" d="M558.647,39.472l.7-6.507h6.933v1.862h-5.142l-.354,3.085A3.987,3.987,0,0,1,562.8,37.4a3.594,3.594,0,0,1,2.868,1.179,4.671,4.671,0,0,1,1.024,3.174,4.3,4.3,0,0,1-1.135,3.134,4.14,4.14,0,0,1-3.112,1.166,4.344,4.344,0,0,1-2.939-1.006,3.636,3.636,0,0,1-1.263-2.655h2.083a2.274,2.274,0,0,0,.674,1.441,2.051,2.051,0,0,0,1.436.5,1.852,1.852,0,0,0,1.547-.71,3.059,3.059,0,0,0,.554-1.933,2.7,2.7,0,0,0-.612-1.866,2.137,2.137,0,0,0-1.684-.687,2.352,2.352,0,0,0-1.879.763Z" transform="translate(-51.464 -3.039)"/>
      <path id="パス_223802" data-name="パス 223802" d="M577.829,40.42a7.044,7.044,0,0,1-1.041,4.2,3.679,3.679,0,0,1-3.17,1.414,3.726,3.726,0,0,1-3.151-1.379,6.736,6.736,0,0,1-1.087-4.082V38.337a6.931,6.931,0,0,1,1.042-4.175,4.342,4.342,0,0,1,6.338-.035,6.715,6.715,0,0,1,1.069,4.06Zm-2.154-2.411a5.472,5.472,0,0,0-.5-2.664,1.9,1.9,0,0,0-3.129-.044,5.045,5.045,0,0,0-.523,2.5v2.926a5.606,5.606,0,0,0,.5,2.7,1.7,1.7,0,0,0,1.587.886,1.668,1.668,0,0,0,1.534-.82,5.281,5.281,0,0,0,.523-2.566Z" transform="translate(-52.49 -3.021)"/>
      <path id="パス_223803" data-name="パス 223803" d="M589.2,40.42a7.044,7.044,0,0,1-1.041,4.2,3.679,3.679,0,0,1-3.17,1.414,3.726,3.726,0,0,1-3.151-1.379,6.736,6.736,0,0,1-1.087-4.082V38.337a6.932,6.932,0,0,1,1.042-4.175,4.342,4.342,0,0,1,6.338-.035,6.716,6.716,0,0,1,1.069,4.06Zm-2.154-2.411a5.471,5.471,0,0,0-.5-2.664,1.9,1.9,0,0,0-3.129-.044,5.045,5.045,0,0,0-.523,2.5v2.926a5.606,5.606,0,0,0,.5,2.7,1.7,1.7,0,0,0,1.587.886,1.668,1.668,0,0,0,1.534-.82,5.281,5.281,0,0,0,.523-2.566Z" transform="translate(-53.538 -3.021)"/>
      <path id="パス_223804" data-name="パス 223804" d="M594.714,47.05c0,1.471-.362,2.088-1.58,2.56l-.581-.817c.98-.327,1.162-.6,1.18-1.743h-1.344V44.743h2.325Z" transform="translate(-54.611 -4.125)"/>
      <path id="パス_223805" data-name="パス 223805" d="M605.743,40.42a7.044,7.044,0,0,1-1.041,4.2,3.679,3.679,0,0,1-3.17,1.414,3.726,3.726,0,0,1-3.151-1.379,6.736,6.736,0,0,1-1.087-4.082V38.337a6.932,6.932,0,0,1,1.042-4.175,4.342,4.342,0,0,1,6.338-.035,6.716,6.716,0,0,1,1.068,4.06Zm-2.154-2.411a5.471,5.471,0,0,0-.5-2.664,1.9,1.9,0,0,0-3.129-.044,5.045,5.045,0,0,0-.523,2.5v2.926a5.606,5.606,0,0,0,.5,2.7,1.7,1.7,0,0,0,1.587.886,1.668,1.668,0,0,0,1.534-.82,5.281,5.281,0,0,0,.523-2.566Z" transform="translate(-55.063 -3.021)"/>
      <path id="パス_223806" data-name="パス 223806" d="M617.11,40.42a7.044,7.044,0,0,1-1.041,4.2,3.679,3.679,0,0,1-3.17,1.414,3.726,3.726,0,0,1-3.151-1.379,6.735,6.735,0,0,1-1.087-4.082V38.337a6.931,6.931,0,0,1,1.042-4.175,4.342,4.342,0,0,1,6.338-.035,6.715,6.715,0,0,1,1.068,4.06Zm-2.154-2.411a5.471,5.471,0,0,0-.5-2.664,1.9,1.9,0,0,0-3.129-.044,5.045,5.045,0,0,0-.523,2.5v2.926a5.607,5.607,0,0,0,.5,2.7,1.7,1.7,0,0,0,1.587.886,1.668,1.668,0,0,0,1.534-.82,5.279,5.279,0,0,0,.523-2.566Z" transform="translate(-56.111 -3.021)"/>
      <path id="パス_223807" data-name="パス 223807" d="M628.478,40.42a7.037,7.037,0,0,1-1.042,4.2,3.677,3.677,0,0,1-3.17,1.414,3.727,3.727,0,0,1-3.151-1.379,6.736,6.736,0,0,1-1.086-4.082V38.337a6.925,6.925,0,0,1,1.042-4.175,4.342,4.342,0,0,1,6.338-.035,6.722,6.722,0,0,1,1.068,4.06Zm-2.154-2.411a5.47,5.47,0,0,0-.5-2.664A1.9,1.9,0,0,0,622.7,35.3a5.025,5.025,0,0,0-.523,2.5v2.926a5.618,5.618,0,0,0,.5,2.7,1.7,1.7,0,0,0,1.587.886,1.667,1.667,0,0,0,1.534-.82,5.279,5.279,0,0,0,.524-2.566Z" transform="translate(-57.159 -3.021)"/>
      <path id="パス_223808" data-name="パス 223808" d="M638.157,36.281a10.383,10.383,0,0,1-.964,1.9,5.135,5.135,0,0,0-1.128-.882,9.734,9.734,0,0,0,1.537-3.6,5.127,5.127,0,0,0,.131-.915l1.405.359a10.3,10.3,0,0,0-.278,1c-.1.343-.147.507-.229.8h1.57V33.633a9.077,9.077,0,0,0-.1-1.5h1.6a8.816,8.816,0,0,0-.1,1.5V34.94h2.109a10.9,10.9,0,0,0,1.684-.1v1.52a14.977,14.977,0,0,0-1.684-.082h-2.109v2.3h2.615a12.707,12.707,0,0,0,1.7-.1V40.04c-.54-.049-1.047-.082-1.7-.082h-2.142a11.728,11.728,0,0,0,4.267,4.332,5.908,5.908,0,0,0-.965,1.389,13.178,13.178,0,0,1-3.84-4.446c.032.6.064,1.177.064,1.683v2.419a11.378,11.378,0,0,0,.1,1.831h-1.6a14.452,14.452,0,0,0,.1-1.847V43c0-.474.016-1.062.049-1.732a12.011,12.011,0,0,1-4.022,4.478,6.184,6.184,0,0,0-.9-1.275,11.1,11.1,0,0,0,4.331-4.512h-1.389a12.658,12.658,0,0,0-1.717.1v-.572a5.027,5.027,0,0,0-.686,1.242,9.673,9.673,0,0,1-1.1-2.353c0,.245.017.425.017.556.016.212.033.833.065,1.863v4.381a12.582,12.582,0,0,0,.1,1.962h-1.585a15.568,15.568,0,0,0,.1-1.962V41.184c0-.817.017-1.242.1-2.353a13.465,13.465,0,0,1-1.9,4.364,5.324,5.324,0,0,0-.7-1.471,14.258,14.258,0,0,0,2.338-5.182h-.768a6.361,6.361,0,0,0-1.111.065V35.169a6.254,6.254,0,0,0,1.111.066h.915V33.8a10.407,10.407,0,0,0-.081-1.683h1.569a10.928,10.928,0,0,0-.082,1.667v1.455h.507a5.144,5.144,0,0,0,.964-.066v1.423a8.23,8.23,0,0,0-.931-.049h-.49a10,10,0,0,0,1.65,2.91v-.964a12.627,12.627,0,0,0,1.717.1H640.2v-2.3Z" transform="translate(-58.167 -2.96)"/>
      <path id="パス_223809" data-name="パス 223809" d="M650.943,34.477a10.22,10.22,0,0,0-.131-1.846h1.766a10.845,10.845,0,0,0-.082,1.552v.311l.082,8.009a32.526,32.526,0,0,0,4.381-2.272l.31,1.439a41.8,41.8,0,0,1-6.408,3.171c-.539.229-.686.294-1.079.474l-.458-1.667a10.6,10.6,0,0,0,1.7-.54Zm11.737-1.863c-.033.245-.033.327-.147,1.994a23.167,23.167,0,0,1-.671,4.1A12.143,12.143,0,0,1,660.62,41.7a9.726,9.726,0,0,0,3.743,3.759A6.667,6.667,0,0,0,663.382,47a12.775,12.775,0,0,1-3.661-3.955,13.036,13.036,0,0,1-5.671,4.086,4.334,4.334,0,0,0-.916-1.356,14.2,14.2,0,0,0,3.237-1.634,9.743,9.743,0,0,0,4.052-5.835A17.961,17.961,0,0,0,661,33.545a8.017,8.017,0,0,0-.049-.964Zm-7.16,1.029a23.94,23.94,0,0,1,3.2,3.972l-1.389.965a18.82,18.82,0,0,0-3.107-4.1Z" transform="translate(-59.86 -3.004)"/>
      <path id="パス_223810" data-name="パス 223810" d="M675.04,44.935h4.969a18.087,18.087,0,0,0,2.059-.1V46.5a15.37,15.37,0,0,0-2.043-.114H669.45a17.212,17.212,0,0,0-2.125.114V44.837a18.949,18.949,0,0,0,2.125.1h3.972V34.179a12.889,12.889,0,0,0-.114-1.814h1.847a12.4,12.4,0,0,0-.114,1.814V37.2h3.972a14.613,14.613,0,0,0,1.815-.1v1.651a15.206,15.206,0,0,0-1.815-.1H675.04Z" transform="translate(-61.519 -2.984)"/>
      <path id="パス_223811" data-name="パス 223811" d="M475.48,37.691c0-4.448,1.347-9.227,6.151-9.227,5.185,0,6.2,5.109,6.2,9.227s-1.068,9.125-6.2,9.125c-5.465,0-6.151-5.414-6.151-9.125m8.795,0c0-2.289,0-6.583-2.644-6.583-2.593,0-2.593,4.295-2.593,6.583,0,2.237-.025,6.482,2.593,6.482,2.669,0,2.644-4.245,2.644-6.482" transform="translate(-43.834 -2.624)"/>
      <rect id="長方形_17244" data-name="長方形 17244" width="3.559" height="3.559" transform="translate(446.644 40.329)"/>
      <path id="パス_223812" data-name="パス 223812" d="M505.249,28.8H508.4V46.542h-3.559v-13.7l-3,2.44-1.779-2.313Z" transform="translate(-46.1 -2.655)"/>
      <path id="パス_223813" data-name="パス 223813" d="M516.388,33.115c0-2.949,1.551-4.677,4.27-4.677s4.22,1.728,4.22,4.677-1.5,4.676-4.22,4.676-4.27-1.728-4.27-4.676m5.847,0c0-1.093-.229-2.644-1.577-2.644s-1.627,1.551-1.627,2.644.28,2.643,1.627,2.643,1.577-1.551,1.577-2.643m8.668-4.932h2.083l-10.98,18.862h-2.084Zm-2.949,13.929c0-2.948,1.55-4.676,4.27-4.676s4.219,1.728,4.219,4.676-1.5,4.677-4.219,4.677-4.27-1.728-4.27-4.677m5.845,0c0-1.092-.229-2.643-1.575-2.643S530.6,41.02,530.6,42.112s.279,2.644,1.627,2.644,1.575-1.551,1.575-2.644" transform="translate(-47.605 -2.598)"/>
      <path id="パス_223814" data-name="パス 223814" d="M396.612,315.939a13.808,13.808,0,0,0,.054,1.417,3.452,3.452,0,0,0-.508-.036h-.364l-.852-.018h-3.161a12.982,12.982,0,0,1-1.633,6.5,4.727,4.727,0,0,0-1.362-1.143c1.179-1.963,1.507-3.887,1.507-8.845a21.36,21.36,0,0,0-.092-2.488,18.73,18.73,0,0,0,1.907.073h2.778a15.723,15.723,0,0,0,1.78-.073c-.036.363-.054.891-.054,1.526Zm-7.174-7.826a10.169,10.169,0,0,0,1.871.109H395.4a10.885,10.885,0,0,0,1.852-.091v1.707a10.808,10.808,0,0,0-1.8-.091h-4.212a12.393,12.393,0,0,0-1.8.091Zm5.612,7.754v-3.05h-3.215v1.561c0,.726,0,.944-.019,1.489Zm4.54-1.434a18.388,18.388,0,0,1-.853,5.267,10.466,10.466,0,0,1-2.706,4.176,4.813,4.813,0,0,0-1.271-1.235c2.652-2.487,3.251-4.576,3.251-11.4,0-1.144-.019-1.67-.073-2.251a17.012,17.012,0,0,0,6.7-1.58l.926,1.524a7.491,7.491,0,0,0-.8.237,27.211,27.211,0,0,1-5.139,1.2v2.506H404a9.028,9.028,0,0,0,1.726-.109v1.762a10.5,10.5,0,0,0-1.617-.092H403.7v7.446a10.826,10.826,0,0,0,.109,1.925h-1.816a13.52,13.52,0,0,0,.109-1.943v-7.428Z" transform="translate(-35.841 -28.339)"/>
      <path id="パス_223815" data-name="パス 223815" d="M412.7,315.383a18.566,18.566,0,0,1-2.9,2.579,4.092,4.092,0,0,0-1.072-1.453,15.751,15.751,0,0,0,3.269-2.724,12.185,12.185,0,0,0,2.125-2.924h-2.8a17.017,17.017,0,0,0-2.107.11v-1.707a16.791,16.791,0,0,0,2.107.109h3.505a8.643,8.643,0,0,0,.581-2.108l1.906.237a9.258,9.258,0,0,0-.381,1c-.126.346-.182.508-.327.872h6.755a16.668,16.668,0,0,0,2.089-.109v1.707a16.681,16.681,0,0,0-2.089-.11h-7.445a18.042,18.042,0,0,1-1.017,1.762h6.337a17.239,17.239,0,0,0,1.907-.073,20.393,20.393,0,0,0-.073,2.089v7.446a1.46,1.46,0,0,1-.618,1.362,3.763,3.763,0,0,1-1.87.272c-.508,0-.908-.018-1.816-.074a4.6,4.6,0,0,0-.381-1.6,15.725,15.725,0,0,0,2.161.182c.781,0,.909-.073.909-.546V320h-7.138v1.67a18.322,18.322,0,0,0,.092,2.2h-1.817a19.974,19.974,0,0,0,.109-2.2Zm8.754-1.308h-7.137v1.562h7.137Zm-7.138,4.523h7.137v-1.562h-7.137Z" transform="translate(-37.68 -28.326)"/>
      <path id="パス_223816" data-name="パス 223816" d="M436.836,311.956a11.54,11.54,0,0,1-1.071,2.107,5.684,5.684,0,0,0-1.254-.981,10.818,10.818,0,0,0,1.708-3.994,5.7,5.7,0,0,0,.145-1.017l1.561.4c-.054.145-.054.145-.309,1.108-.109.381-.163.563-.254.89h1.744v-1.453a10.08,10.08,0,0,0-.109-1.671h1.779a9.788,9.788,0,0,0-.109,1.671v1.453h2.343a11.922,11.922,0,0,0,1.87-.109v1.69a16.346,16.346,0,0,0-1.87-.092h-2.343v2.561h2.906a13.934,13.934,0,0,0,1.888-.109v1.726c-.6-.055-1.162-.092-1.888-.092h-2.379a13.036,13.036,0,0,0,4.74,4.813,6.54,6.54,0,0,0-1.071,1.543,14.654,14.654,0,0,1-4.268-4.939c.036.672.073,1.307.073,1.87v2.688a12.624,12.624,0,0,0,.109,2.034H439a16.046,16.046,0,0,0,.109-2.052V319.42c0-.527.018-1.18.054-1.925a13.343,13.343,0,0,1-4.467,4.976,6.881,6.881,0,0,0-1-1.417,12.323,12.323,0,0,0,4.813-5.012h-1.543a14.04,14.04,0,0,0-1.907.109v-.635a5.527,5.527,0,0,0-.763,1.38,10.746,10.746,0,0,1-1.216-2.615c0,.272.018.472.018.617.018.236.036.927.073,2.07v4.868a13.958,13.958,0,0,0,.109,2.179h-1.761a17.047,17.047,0,0,0,.109-2.179V317.4c0-.909.018-1.381.109-2.615a14.968,14.968,0,0,1-2.106,4.849,5.945,5.945,0,0,0-.782-1.634,15.851,15.851,0,0,0,2.6-5.757h-.854a7.145,7.145,0,0,0-1.234.073v-1.6a7.052,7.052,0,0,0,1.234.073h1.018v-1.6a11.426,11.426,0,0,0-.091-1.871h1.744a12,12,0,0,0-.092,1.852v1.617h.563a5.83,5.83,0,0,0,1.072-.073V312.3a9.162,9.162,0,0,0-1.036-.055h-.544a11.084,11.084,0,0,0,1.834,3.233v-1.071a13.855,13.855,0,0,0,1.907.109h2.142v-2.561Z" transform="translate(-39.534 -28.332)"/>
      <path id="パス_223817" data-name="パス 223817" d="M456.767,310.826a8.826,8.826,0,0,0,1.2-.054v1.417a9.349,9.349,0,0,0-1.2-.055H455.3a6.165,6.165,0,0,0,1.87,1.417,5.148,5.148,0,0,0-.908,1.235,6.931,6.931,0,0,1-1.817-1.925c.036.362.055.635.055.8v.817a4.479,4.479,0,0,0,.054.708h-1.616a4.249,4.249,0,0,0,.073-.654v-.818c0-.2.018-.507.036-.835a10.541,10.541,0,0,1-3.142,3.069,5.031,5.031,0,0,0-1.017-1.235,8.82,8.82,0,0,0,3.16-2.579h-1.308a8.084,8.084,0,0,0-1.471.092v-1.49a8.086,8.086,0,0,0,1.49.091h2.251v-2.252a6.044,6.044,0,0,0-.091-1.216h1.653a7.187,7.187,0,0,0-.073,1.2v2.27Zm-.726,12a11.207,11.207,0,0,0-1.817-1.162,10.219,10.219,0,0,1-4.358,2.27,6.639,6.639,0,0,0-.8-1.4,9.989,9.989,0,0,0,3.759-1.58,27.544,27.544,0,0,0-2.724-1.089A14.924,14.924,0,0,0,451.319,318h-.763a6.847,6.847,0,0,0-1.363.091v-1.544a6.62,6.62,0,0,0,1.363.091h1.471a10.159,10.159,0,0,0,.508-1.344l1.58.327c-.217.527-.272.691-.436,1.017h3.033a6.227,6.227,0,0,0,1.325-.091v1.544a7.131,7.131,0,0,0-1.4-.091h-.127a7.269,7.269,0,0,1-1.236,2.524,11.268,11.268,0,0,1,1.653.908Zm-5.012-15.217a10,10,0,0,1,1.307,2.378l-1.325.527a9.489,9.489,0,0,0-1.271-2.4ZM452.953,318c-.236.4-.363.617-.744,1.216.853.309,1.163.436,1.726.691a5.052,5.052,0,0,0,.98-1.907Zm4.831-9.861a16.2,16.2,0,0,1-1.453,2.524l-1.307-.6a8.688,8.688,0,0,0,1.379-2.507Zm7.991,3.994a9.009,9.009,0,0,0-1.4-.073,17.463,17.463,0,0,1-.563,3.959,13.6,13.6,0,0,1-1.344,3.2,10.274,10.274,0,0,0,3.688,3.087,6.872,6.872,0,0,0-.927,1.6,12.653,12.653,0,0,1-3.741-3.305,13.954,13.954,0,0,1-4.2,3.378,4.86,4.86,0,0,0-1-1.434,11.413,11.413,0,0,0,4.286-3.287,13.485,13.485,0,0,1-1.671-4.667,11.455,11.455,0,0,1-1.017,1.507,4.531,4.531,0,0,0-1.144-1.071,13.69,13.69,0,0,0,2.634-5.593,11.531,11.531,0,0,0,.363-2.143l1.707.345c-.073.236-.073.236-.236.891-.236.98-.381,1.471-.563,2.088h3.414a8.279,8.279,0,0,0,1.707-.109Zm-5.647-.073a4.67,4.67,0,0,1-.218.527,15.107,15.107,0,0,0,1.616,5.158,12.694,12.694,0,0,0,1.307-5.685Z" transform="translate(-41.382 -28.328)"/>
      <path id="パス_223818" data-name="パス 223818" d="M473.127,317.184a15.112,15.112,0,0,1-.744,3.142,9.23,9.23,0,0,1-2.4,3.56,4.409,4.409,0,0,0-1.181-1.453,7.226,7.226,0,0,0,2.507-4.357,22.108,22.108,0,0,0,.435-4.3,20.292,20.292,0,0,0-2.07.073,17.743,17.743,0,0,0,.073-1.87v-2.161a18.428,18.428,0,0,0-.073-1.871,16.45,16.45,0,0,0,2.18.091h3.614a14.682,14.682,0,0,0,2.161-.091,17.923,17.923,0,0,0-.073,1.835v2.27a13.216,13.216,0,0,0,.073,1.8c-.6-.054-1.236-.073-2.2-.073h-2.053c-.036.963-.036,1.254-.09,1.963h2.577a11.447,11.447,0,0,0,1.726-.092,6.9,6.9,0,0,0-.054,1.217,20.9,20.9,0,0,1-.58,5.92c-.273.635-.763.835-2.016.835-.437,0-.818-.018-1.708-.091a5.509,5.509,0,0,0-.362-1.689,11.463,11.463,0,0,0,1.961.2c.544,0,.726-.128.8-.546a25.456,25.456,0,0,0,.291-4.3Zm-1.779-4.83h4.631v-2.906h-4.631Zm9.734-3.978a13.059,13.059,0,0,0-.109,2.143v6.918a14.528,14.528,0,0,0,.091,2.143h-1.8a13.688,13.688,0,0,0,.09-2.107V310.52a15.689,15.689,0,0,0-.108-2.143Zm4-.871a17.116,17.116,0,0,0-.127,2.4v11.731c0,1.635-.436,1.962-2.724,1.962-.49,0-.872-.018-1.689-.054a6.9,6.9,0,0,0-.509-1.708,24.143,24.143,0,0,0,2.434.2c.672,0,.854-.109.854-.563V309.9a18.929,18.929,0,0,0-.127-2.4Z" transform="translate(-43.218 -28.348)"/>
      <path id="パス_223819" data-name="パス 223819" d="M403.992,343.232a14.939,14.939,0,0,0-1.671.091v-1.472a15.631,15.631,0,0,1-2.4,2.124,6.392,6.392,0,0,0-1.2-1.452,14.129,14.129,0,0,0,4.849-5.249,6.3,6.3,0,0,0,.727-1.87l1.852.672a6.141,6.141,0,0,0-.508.926,17.754,17.754,0,0,1-3.106,4.613,11.51,11.51,0,0,0,1.472.073H410.4c.725,0,1.126-.018,1.669-.054a18.458,18.458,0,0,1-3.251-4.758c-.09-.182-.29-.563-.4-.763l1.707-.655a6.517,6.517,0,0,0,.69,1.562,14.842,14.842,0,0,0,5.157,5.411,7.174,7.174,0,0,0-1.162,1.616,19.256,19.256,0,0,1-2.524-2.179c-.019.309-.019.309-.036,1.126-.036,3.96-.309,6.611-.782,7.537-.363.691-.944.927-2.306.927-.455,0-.817-.019-2.089-.091a7.178,7.178,0,0,0-.436-1.8,14.815,14.815,0,0,0,2.343.254c.69,0,.871-.091,1.017-.454a12.818,12.818,0,0,0,.436-2.96c.073-.908.109-1.852.109-2.578v-.6h-3.8a9.616,9.616,0,0,1-1.417,4.685,10.625,10.625,0,0,1-4.613,4,5.2,5.2,0,0,0-1.089-1.472,9.1,9.1,0,0,0,2.8-1.725,7.376,7.376,0,0,0,2.488-4.358,8.976,8.976,0,0,0,.127-1.126Z" transform="translate(-36.758 -30.92)"/>
      <path id="パス_223820" data-name="パス 223820" d="M424.036,344.123v4.54a13.9,13.9,0,0,0,.091,2.016h-1.852a15.448,15.448,0,0,0,.108-2.016v-4a18.82,18.82,0,0,1-2.651,2.234,5.818,5.818,0,0,0-.927-1.508,15.541,15.541,0,0,0,5.484-5.939h-2.941a18.289,18.289,0,0,0-2.215.11v-1.743a15.975,15.975,0,0,0,2.215.109h3.632a10.836,10.836,0,0,0,.726-2.707l1.888.237a7.638,7.638,0,0,0-.345.926c-.127.4-.309.962-.527,1.544H433.3a15.581,15.581,0,0,0,2.18-.109v1.743a15.932,15.932,0,0,0-2.18-.11h-7.21a19.714,19.714,0,0,1-1.961,3.2h3.106v-.2a13.388,13.388,0,0,0-.11-2.033h1.871a10.906,10.906,0,0,0-.109,2.033v.2h3.56a12.256,12.256,0,0,0,1.707-.092,12.75,12.75,0,0,0-.073,1.543v4.5c0,1.4-.545,1.762-2.615,1.762-.328,0-.582-.018-1.236-.054a4.628,4.628,0,0,0-.472-1.652,11.407,11.407,0,0,0,1.8.2c.69,0,.872-.127.872-.6v-4.141h-3.54v5.793a12.514,12.514,0,0,0,.126,2.125H427.1a12.769,12.769,0,0,0,.128-2.143v-5.775Z" transform="translate(-38.609 -30.904)"/>
      <path id="パス_223821" data-name="パス 223821" d="M442.2,337.112a11.7,11.7,0,0,0-.109-1.707h1.852a9.346,9.346,0,0,0-.109,1.707v13.13a9.234,9.234,0,0,0,.109,1.707h-1.852a13.648,13.648,0,0,0,.109-1.87v-4.249c-.382.272-1.2.8-2.433,1.58-.164.091-.182.109-.31.182l-.708-1.708a16.794,16.794,0,0,0,3.451-1.835Zm-1.817.654a17.992,17.992,0,0,1,1.381,3.9l-1.434.672A15.208,15.208,0,0,0,439,338.383Zm10.225,3.977a17.68,17.68,0,0,0,1.526,4.558,10.56,10.56,0,0,0,1.961,2.706,12.442,12.442,0,0,0,1.6,1.307,5.136,5.136,0,0,0-1.127,1.58,11.582,11.582,0,0,1-3.487-4.178,14.3,14.3,0,0,1-1.343-3.613,14.346,14.346,0,0,1-1.49,4.122,11.219,11.219,0,0,1-3.05,3.577,4.716,4.716,0,0,0-1.127-1.434,9.534,9.534,0,0,0,3.323-4.013,15.734,15.734,0,0,0,1.2-4.613h-2.215a13.743,13.743,0,0,0-1.888.109v-1.708a13.354,13.354,0,0,0,1.888.11H448.7c.036-.654.054-1.853.054-3.252a11.676,11.676,0,0,0-.108-1.524h1.869a9.78,9.78,0,0,0-.108,1.471c-.018.8-.054,1.906-.109,3.305h3.342a13.091,13.091,0,0,0,1.87-.11v1.708a13.262,13.262,0,0,0-1.834-.109Zm2.8-1.961a12.641,12.641,0,0,0-2.251-3.087l1.18-.818a15.56,15.56,0,0,1,2.361,3.016Z" transform="translate(-40.447 -30.92)"/>
      <path id="パス_223822" data-name="パス 223822" d="M459.99,339.878a22.482,22.482,0,0,1,3.268,2.342l-1.017,1.363a16.615,16.615,0,0,0-3.2-2.506Zm3.432,6.1a28.239,28.239,0,0,1-1.726,3.867c-.163.291-.163.291-.835,1.417a4.82,4.82,0,0,0-.309.527l-1.453-1.307a15.254,15.254,0,0,0,3-5.5ZM460.9,335.465a19.018,19.018,0,0,1,3.124,2.452l-1.036,1.325a16.536,16.536,0,0,0-3.123-2.634Zm5.321,7.755c-.418,0-.853.018-1.471.073.017-.163.017-.163.054-.546,0-.054,0-.054.019-1.108V337.68a15.155,15.155,0,0,0-.073-1.543,12.575,12.575,0,0,0,1.779.073h6.193a12.518,12.518,0,0,0,1.707-.073,10.434,10.434,0,0,0-.073,1.58v4.05a9.745,9.745,0,0,0,.073,1.526c-.708-.054-1.108-.073-1.562-.073h-1.144v6.446c0,.364.146.437.981.437.781,0,1.089-.073,1.235-.291a9.6,9.6,0,0,0,.272-2.942,4.462,4.462,0,0,0,1.525.655c-.126,3.759-.381,4.1-3.05,4.1-1.254,0-1.725-.054-2.089-.29a1.083,1.083,0,0,1-.472-1.054V343.22h-1.634a11.338,11.338,0,0,1-1.036,4.994,7.968,7.968,0,0,1-4.05,3.687,5.2,5.2,0,0,0-1.126-1.416,6.911,6.911,0,0,0,3.7-2.979,8.994,8.994,0,0,0,.891-4.285Zm.236-1.49h6.229v-3.941h-6.229Z" transform="translate(-42.318 -30.926)"/>
    </g>
  </g>
</svg>
