<svg id="グループ_90596" data-name="グループ 90596" xmlns="http://www.w3.org/2000/svg" xmlns:xlink="http://www.w3.org/1999/xlink" width="768" height="307.571" viewBox="0 0 768 307.571">
  <defs>
    <clipPath id="clip-path">
      <rect id="長方形_17256" data-name="長方形 17256" width="767.999" height="307.571" fill="none"/>
    </clipPath>
  </defs>
  <rect id="長方形_17246" data-name="長方形 17246" width="40.54" height="231.425" transform="translate(270.37 48.017)" fill="#0770c3"/>
  <rect id="長方形_17247" data-name="長方形 17247" width="40.54" height="247.605" transform="translate(538.032 31.837)" fill="#0770c3"/>
  <rect id="長方形_17248" data-name="長方形 17248" width="40.54" height="260.317" transform="translate(403.969 19.125)" fill="#0770c3"/>
  <rect id="長方形_17249" data-name="長方形 17249" width="40.54" height="226.802" transform="translate(673.018 52.64)" fill="#0770c3"/>
  <rect id="長方形_17250" data-name="長方形 17250" width="40.54" height="157.459" transform="translate(134.227 121.983)" fill="#0770c3"/>
  <path id="パス_223823" data-name="パス 223823" d="M56.028,278.795v0Z" transform="translate(8.724 0.942)" fill="#333"/>
  <rect id="長方形_17251" data-name="長方形 17251" width="1.156" height="272.748" transform="translate(64.173 6.99)"/>
  <path id="パス_223824" data-name="パス 223824" d="M56.028,6.549h0Z" transform="translate(8.724 1.02)" fill="#333"/>
  <rect id="長方形_17252" data-name="長方形 17252" width="17.334" height="1.156" transform="translate(64.752 6.99)"/>
  <path id="パス_223825" data-name="パス 223825" d="M56.028,85.548h0Z" transform="translate(8.724 13.32)" fill="#333"/>
  <rect id="長方形_17253" data-name="長方形 17253" width="17.334" height="1.156" transform="translate(64.752 98.291)"/>
  <path id="パス_223826" data-name="パス 223826" d="M56.028,163.548h0Z" transform="translate(8.724 25.466)" fill="#333"/>
  <rect id="長方形_17254" data-name="長方形 17254" width="17.334" height="1.156" transform="translate(64.752 188.437)"/>
  <path id="パス_223827" data-name="パス 223827" d="M56.028,241.548h0Z" transform="translate(8.724 37.611)" fill="#333"/>
  <rect id="長方形_17255" data-name="長方形 17255" width="703.248" height="1.157" transform="translate(64.752 278.581)"/>
  <g id="グループ_90597" data-name="グループ 90597">
    <g id="グループ_90596-2" data-name="グループ 90596" clip-path="url(#clip-path)">
      <path id="パス_223828" data-name="パス 223828" d="M559.652,264.706c.623-.555,1.4-1.231,2.167-1.943,1.334-1.248,3.483-3.206,3.483-5.165a2.088,2.088,0,0,0-2.323-1.924,6.041,6.041,0,0,0-2.774.779l-.172-1.49a8.047,8.047,0,0,1,3.171-.711c2.185,0,3.935,1.179,3.935,3.449,0,2.012-2.167,4.162-3.5,5.5-.675.676-1.542,1.4-2.132,1.943h5.807v1.42h-7.661Z" transform="translate(87.142 39.589)" fill="#333"/>
      <path id="パス_223829" data-name="パス 223829" d="M571.966,254.253c3.346,0,4.109,3.607,4.109,6.258s-.763,6.257-4.109,6.257-4.109-3.6-4.109-6.257.763-6.258,4.109-6.258m0,11.095c2.079,0,2.271-3.328,2.271-4.837,0-1.526-.277-4.837-2.271-4.837s-2.271,3.311-2.271,4.837c0,1.508.19,4.837,2.271,4.837" transform="translate(88.42 39.589)" fill="#333"/>
      <path id="パス_223830" data-name="パス 223830" d="M576.332,264.706c.623-.555,1.4-1.231,2.167-1.943,1.334-1.248,3.483-3.206,3.483-5.165a2.088,2.088,0,0,0-2.323-1.924,6.041,6.041,0,0,0-2.774.779l-.172-1.49a8.046,8.046,0,0,1,3.171-.711c2.185,0,3.935,1.179,3.935,3.449,0,2.012-2.167,4.162-3.5,5.5-.675.676-1.542,1.4-2.132,1.943h5.807v1.42h-7.661Z" transform="translate(89.739 39.589)" fill="#333"/>
      <path id="パス_223831" data-name="パス 223831" d="M586.316,259.558h.971c1.248,0,3-.433,3-1.976,0-1.387-1.111-1.907-2.375-1.907a5.857,5.857,0,0,0-2.688.659l-.1-1.543a9.655,9.655,0,0,1,3.034-.537c2.133,0,3.97,1.005,3.97,3.294a2.9,2.9,0,0,1-2.6,2.756v.035a2.955,2.955,0,0,1,2.7,3c0,2.774-2.374,3.431-4.767,3.431a10.345,10.345,0,0,1-2.774-.467l.1-1.613a6.193,6.193,0,0,0,2.652.66c1.318,0,2.947-.52,2.947-2.063,0-1.8-1.455-2.307-3.015-2.307h-1.059Z" transform="translate(91.04 39.589)" fill="#333"/>
      <path id="パス_223832" data-name="パス 223832" d="M595.937,259.133a9.3,9.3,0,0,0-.052-1c.381.035.763.052,1.215.052h3.794V255.7h-3.831a14.6,14.6,0,0,1-2.859,3.45,4.533,4.533,0,0,0-1.092-1.248,11,11,0,0,0,3.415-4.473,6.588,6.588,0,0,0,.417-1.248l1.731.381c-.138.26-.156.295-.242.485-.156.329-.156.329-.363.8-.1.208-.174.347-.208.433h8.32a10.648,10.648,0,0,0,1.664-.087v1.595a11.052,11.052,0,0,0-1.664-.087H602.49v2.479h2.93a11.181,11.181,0,0,0,1.681-.087v1.56a14.433,14.433,0,0,0-1.648-.069H602.49v3.051h4.159a13.158,13.158,0,0,0,1.838-.1v1.682a13.3,13.3,0,0,0-1.838-.1H602.49v2.443a9.023,9.023,0,0,0,.121,1.751H600.79a9.264,9.264,0,0,0,.1-1.767V264.11h-6.013a13.5,13.5,0,0,0-1.838.1v-1.682a13.485,13.485,0,0,0,1.838.1h1.056Zm4.957.452h-3.431v3.051h3.431Z" transform="translate(92.341 39.267)" fill="#333"/>
      <path id="パス_223833" data-name="パス 223833" d="M609.658,259.558h.97c1.248,0,3-.433,3-1.976,0-1.387-1.108-1.907-2.375-1.907a5.854,5.854,0,0,0-2.686.659l-.1-1.543a9.643,9.643,0,0,1,3.034-.537c2.131,0,3.968,1.005,3.968,3.294a2.9,2.9,0,0,1-2.6,2.756v.035a2.955,2.955,0,0,1,2.7,3c0,2.774-2.376,3.431-4.767,3.431a10.352,10.352,0,0,1-2.774-.467l.1-1.613a6.176,6.176,0,0,0,2.652.66c1.318,0,2.947-.52,2.947-2.063,0-1.8-1.457-2.307-3.017-2.307h-1.055Z" transform="translate(94.674 39.589)" fill="#333"/>
      <path id="パス_223834" data-name="パス 223834" d="M619.954,262.583a10.054,10.054,0,0,1-2.583,5.582,5.323,5.323,0,0,0-1.334-1.316,7.051,7.051,0,0,0,1.942-3.19c.5-1.664.675-3.606.675-7.924a25.881,25.881,0,0,0-.086-2.773,16.087,16.087,0,0,0,1.94.087h6.934a14.769,14.769,0,0,0,1.923-.087,17,17,0,0,0-.067,1.89v11.3c0,.763-.174,1.215-.573,1.475a3.134,3.134,0,0,1-1.786.294c-.571,0-1.16-.016-2.012-.068a5.691,5.691,0,0,0-.415-1.63,19.119,19.119,0,0,0,2.515.191c.519,0,.641-.1.641-.485v-3.347Zm7.715-1.472v-2.635h-7.386c0,.624-.052,1.612-.138,2.635Zm0-6.553H620.3V257h7.368Z" transform="translate(95.922 39.388)" fill="#333"/>
      <path id="パス_223835" data-name="パス 223835" d="M643.6,254.847a10.232,10.232,0,0,0,2.029-.121v1.682a14.718,14.718,0,0,0-2.029-.1h-4.9v2.617h3.968a12.945,12.945,0,0,0,2.029-.1v1.646a16.59,16.59,0,0,0-2.029-.1h-3.275a13.121,13.121,0,0,0,2.531,2.86,17.559,17.559,0,0,0,4.161,2.67,6.944,6.944,0,0,0-1.005,1.543,16.707,16.707,0,0,1-3.778-2.67,14.268,14.268,0,0,1-2.652-3.243c.034.971.052,1.371.052,1.717v3.241a11.2,11.2,0,0,0,.119,1.8h-1.853a10.762,10.762,0,0,0,.121-1.8v-3.224c0-.536.016-.97.052-1.715a16.581,16.581,0,0,1-6.172,5.824,4.581,4.581,0,0,0-1.007-1.456,16.159,16.159,0,0,0,6.4-5.546h-2.947a18.151,18.151,0,0,0-2.01.1v-1.646a13.053,13.053,0,0,0,1.994.1h3.693V256.3h-4.559a16.2,16.2,0,0,0-2.011.1v-1.682a12.557,12.557,0,0,0,2.011.121h4.559v-1.213a7.2,7.2,0,0,0-.088-1.3h1.786a6.548,6.548,0,0,0-.086,1.3v1.213Z" transform="translate(98.089 39.29)" fill="#333"/>
      <path id="パス_223836" data-name="パス 223836" d="M442.852,264.706c.625-.555,1.4-1.231,2.167-1.943,1.336-1.248,3.486-3.206,3.486-5.165a2.09,2.09,0,0,0-2.323-1.924,6.05,6.05,0,0,0-2.775.779l-.173-1.49a8.066,8.066,0,0,1,3.174-.711c2.183,0,3.934,1.179,3.934,3.449,0,2.012-2.167,4.162-3.5,5.5-.677.676-1.544,1.4-2.133,1.943h5.809v1.42h-7.664Z" transform="translate(68.955 39.589)" fill="#333"/>
      <path id="パス_223837" data-name="パス 223837" d="M455.165,254.253c3.346,0,4.109,3.607,4.109,6.258s-.763,6.257-4.109,6.257-4.109-3.6-4.109-6.257.763-6.258,4.109-6.258m0,11.095c2.081,0,2.271-3.328,2.271-4.837,0-1.526-.277-4.837-2.271-4.837s-2.271,3.311-2.271,4.837c0,1.508.192,4.837,2.271,4.837" transform="translate(70.233 39.589)" fill="#333"/>
      <path id="パス_223838" data-name="パス 223838" d="M459.531,264.706c.625-.555,1.4-1.231,2.167-1.943,1.336-1.248,3.486-3.206,3.486-5.165a2.09,2.09,0,0,0-2.323-1.924,6.05,6.05,0,0,0-2.775.779l-.173-1.49a8.066,8.066,0,0,1,3.174-.711c2.183,0,3.934,1.179,3.934,3.449,0,2.012-2.167,4.162-3.5,5.5-.677.676-1.544,1.4-2.133,1.943h5.809v1.42h-7.663Z" transform="translate(71.552 39.589)" fill="#333"/>
      <path id="パス_223839" data-name="パス 223839" d="M467.871,264.706c.625-.555,1.4-1.231,2.167-1.943,1.336-1.248,3.486-3.206,3.486-5.165a2.09,2.09,0,0,0-2.323-1.924,6.049,6.049,0,0,0-2.775.779l-.173-1.49a8.066,8.066,0,0,1,3.174-.711c2.183,0,3.934,1.179,3.934,3.449,0,2.012-2.167,4.162-3.5,5.5-.677.676-1.544,1.4-2.133,1.943h5.809v1.42h-7.663Z" transform="translate(72.851 39.589)" fill="#333"/>
      <path id="パス_223840" data-name="パス 223840" d="M479.138,259.133a9.3,9.3,0,0,0-.052-1c.381.035.76.052,1.212.052h3.8V255.7h-3.83a14.664,14.664,0,0,1-2.86,3.45,4.515,4.515,0,0,0-1.092-1.248,11.01,11.01,0,0,0,3.415-4.473,6.464,6.464,0,0,0,.415-1.248l1.734.381c-.138.26-.156.295-.244.485-.156.329-.156.329-.363.8-.1.208-.174.347-.208.433h8.32a10.682,10.682,0,0,0,1.667-.087v1.595a11.067,11.067,0,0,0-1.667-.087h-3.69v2.479h2.927a11.136,11.136,0,0,0,1.682-.087v1.56a14.353,14.353,0,0,0-1.646-.069h-2.963v3.051h4.161a13.152,13.152,0,0,0,1.836-.1v1.682a13.314,13.314,0,0,0-1.836-.1h-4.161v2.443a9.255,9.255,0,0,0,.119,1.751h-1.819a9.467,9.467,0,0,0,.1-1.767V264.11H478.08a13.5,13.5,0,0,0-1.838.1v-1.682a13.512,13.512,0,0,0,1.838.1h1.059Zm4.957.452h-3.434v3.051H484.1Z" transform="translate(74.154 39.267)" fill="#333"/>
      <path id="パス_223841" data-name="パス 223841" d="M491.936,264.844a4.612,4.612,0,0,0,2.148.5c2.252,0,3.346-2.079,3.379-4.4l-.034.017a3.558,3.558,0,0,1-2.652,1.108,3.5,3.5,0,0,1-3.642-3.813,3.746,3.746,0,0,1,3.885-4c3.378,0,4.072,3.05,4.072,5.806,0,3.276-1.075,6.709-4.9,6.709a8.487,8.487,0,0,1-2.5-.381Zm3.067-4.2a2.222,2.222,0,0,0,2.252-2.427,2.359,2.359,0,0,0-2.131-2.548,2.266,2.266,0,0,0-2.151,2.548A2.212,2.212,0,0,0,495,260.649" transform="translate(76.474 39.589)" fill="#333"/>
      <path id="パス_223842" data-name="パス 223842" d="M503.155,262.583a10.092,10.092,0,0,1-2.582,5.582,5.354,5.354,0,0,0-1.337-1.316,7,7,0,0,0,1.942-3.19c.5-1.664.677-3.606.677-7.924a25.7,25.7,0,0,0-.088-2.773,16.152,16.152,0,0,0,1.943.087h6.932a14.807,14.807,0,0,0,1.925-.087,17.137,17.137,0,0,0-.069,1.89v11.3c0,.763-.173,1.215-.571,1.475a3.136,3.136,0,0,1-1.786.294c-.573,0-1.163-.016-2.011-.068a5.887,5.887,0,0,0-.416-1.63,19.128,19.128,0,0,0,2.513.191c.519,0,.641-.1.641-.485v-3.347Zm7.713-1.472v-2.635h-7.384c0,.624-.052,1.612-.14,2.635Zm0-6.553H503.5V257h7.368Z" transform="translate(77.735 39.388)" fill="#333"/>
      <path id="パス_223843" data-name="パス 223843" d="M526.8,254.847a10.2,10.2,0,0,0,2.027-.121v1.682a14.658,14.658,0,0,0-2.027-.1h-4.907v2.617h3.97a12.921,12.921,0,0,0,2.027-.1v1.646a16.551,16.551,0,0,0-2.027-.1h-3.276a13.092,13.092,0,0,0,2.532,2.86,17.512,17.512,0,0,0,4.161,2.67,6.948,6.948,0,0,0-1.008,1.543,16.758,16.758,0,0,1-3.778-2.67,14.269,14.269,0,0,1-2.652-3.243c.036.971.052,1.371.052,1.717v3.241a11.173,11.173,0,0,0,.121,1.8H520.16a10.508,10.508,0,0,0,.121-1.8v-3.224c0-.536.018-.97.052-1.715a16.547,16.547,0,0,1-6.172,5.824,4.61,4.61,0,0,0-1-1.456,16.163,16.163,0,0,0,6.4-5.546h-2.946a18.2,18.2,0,0,0-2.012.1v-1.646a13.052,13.052,0,0,0,1.994.1h3.693V256.3h-4.559a16.254,16.254,0,0,0-2.011.1v-1.682a12.575,12.575,0,0,0,2.011.121h4.559v-1.213a7.421,7.421,0,0,0-.086-1.3h1.786a6.512,6.512,0,0,0-.088,1.3v1.213Z" transform="translate(79.903 39.29)" fill="#333"/>
      <path id="パス_223844" data-name="パス 223844" d="M326.053,264.706c.623-.555,1.4-1.231,2.167-1.943,1.334-1.248,3.483-3.206,3.483-5.165a2.089,2.089,0,0,0-2.323-1.924,6.04,6.04,0,0,0-2.774.779l-.172-1.49a8.046,8.046,0,0,1,3.171-.711c2.185,0,3.935,1.179,3.935,3.449,0,2.012-2.167,4.162-3.5,5.5-.675.676-1.542,1.4-2.132,1.943h5.807v1.42h-7.661Z" transform="translate(50.769 39.589)" fill="#333"/>
      <path id="パス_223845" data-name="パス 223845" d="M338.367,254.253c3.345,0,4.107,3.607,4.107,6.258s-.763,6.257-4.107,6.257-4.11-3.6-4.11-6.257.763-6.258,4.11-6.258m0,11.095c2.078,0,2.27-3.328,2.27-4.837,0-1.526-.277-4.837-2.27-4.837s-2.272,3.311-2.272,4.837c0,1.508.19,4.837,2.272,4.837" transform="translate(52.046 39.589)" fill="#333"/>
      <path id="パス_223846" data-name="パス 223846" d="M342.732,264.706c.623-.555,1.4-1.231,2.167-1.943,1.334-1.248,3.483-3.206,3.483-5.165a2.089,2.089,0,0,0-2.323-1.924,6.041,6.041,0,0,0-2.774.779l-.172-1.49a8.046,8.046,0,0,1,3.171-.711c2.185,0,3.935,1.179,3.935,3.449,0,2.012-2.167,4.162-3.5,5.5-.675.676-1.542,1.4-2.132,1.943h5.807v1.42h-7.661Z" transform="translate(53.366 39.589)" fill="#333"/>
      <path id="パス_223847" data-name="パス 223847" d="M351.072,264.706c.623-.555,1.4-1.231,2.167-1.943,1.334-1.248,3.483-3.206,3.483-5.165a2.088,2.088,0,0,0-2.323-1.924,6.041,6.041,0,0,0-2.774.779l-.172-1.49a8.046,8.046,0,0,1,3.171-.711c2.185,0,3.935,1.179,3.935,3.449,0,2.012-2.167,4.162-3.5,5.5-.675.676-1.542,1.4-2.132,1.943h5.807v1.42h-7.661Z" transform="translate(54.665 39.589)" fill="#333"/>
      <path id="パス_223848" data-name="パス 223848" d="M362.337,259.133a9.015,9.015,0,0,0-.052-1c.381.035.763.052,1.215.052h3.794V255.7h-3.83a14.581,14.581,0,0,1-2.86,3.45,4.514,4.514,0,0,0-1.092-1.248,10.979,10.979,0,0,0,3.415-4.473,6.5,6.5,0,0,0,.417-1.248l1.731.381c-.138.26-.155.295-.242.485-.155.329-.155.329-.363.8-.1.208-.173.347-.208.433h8.32a10.64,10.64,0,0,0,1.664-.087v1.595a11.053,11.053,0,0,0-1.664-.087H368.89v2.479h2.93a11.173,11.173,0,0,0,1.682-.087v1.56a14.413,14.413,0,0,0-1.647-.069H368.89v3.051h4.161a13.181,13.181,0,0,0,1.838-.1v1.682a13.321,13.321,0,0,0-1.838-.1H368.89v2.443a8.92,8.92,0,0,0,.122,1.751H367.19a9.173,9.173,0,0,0,.1-1.767V264.11h-6.013a13.5,13.5,0,0,0-1.838.1v-1.682a13.5,13.5,0,0,0,1.838.1h1.056Zm4.957.452h-3.431v3.051h3.431Z" transform="translate(55.968 39.267)" fill="#333"/>
      <path id="パス_223849" data-name="パス 223849" d="M376.058,259.558h.971c1.248,0,3-.433,3-1.976,0-1.387-1.108-1.907-2.375-1.907a5.855,5.855,0,0,0-2.686.659l-.1-1.543a9.642,9.642,0,0,1,3.034-.537c2.131,0,3.968,1.005,3.968,3.294a2.9,2.9,0,0,1-2.6,2.756v.035a2.955,2.955,0,0,1,2.7,3c0,2.774-2.376,3.431-4.767,3.431a10.345,10.345,0,0,1-2.774-.467l.1-1.613a6.175,6.175,0,0,0,2.652.66c1.318,0,2.947-.52,2.947-2.063,0-1.8-1.457-2.307-3.018-2.307h-1.056Z" transform="translate(58.301 39.589)" fill="#333"/>
      <path id="パス_223850" data-name="パス 223850" d="M386.354,262.583a10.06,10.06,0,0,1-2.582,5.582,5.347,5.347,0,0,0-1.335-1.316,7.031,7.031,0,0,0,1.942-3.19c.5-1.664.675-3.606.675-7.924a25.889,25.889,0,0,0-.085-2.773,16.107,16.107,0,0,0,1.942.087h6.934a14.79,14.79,0,0,0,1.923-.087,16.92,16.92,0,0,0-.068,1.89v11.3c0,.763-.173,1.215-.573,1.475a3.131,3.131,0,0,1-1.786.294c-.571,0-1.16-.016-2.011-.068a5.691,5.691,0,0,0-.416-1.63,19.133,19.133,0,0,0,2.515.191c.519,0,.641-.1.641-.485v-3.347Zm7.716-1.472v-2.635h-7.386c0,.624-.052,1.612-.138,2.635Zm0-6.553H386.7V257h7.368Z" transform="translate(59.548 39.388)" fill="#333"/>
      <path id="パス_223851" data-name="パス 223851" d="M410,254.847a10.232,10.232,0,0,0,2.029-.121v1.682a14.719,14.719,0,0,0-2.029-.1h-4.9v2.617h3.968a12.945,12.945,0,0,0,2.029-.1v1.646a16.59,16.59,0,0,0-2.029-.1h-3.275a13.12,13.12,0,0,0,2.531,2.86,17.558,17.558,0,0,0,4.161,2.67,6.94,6.94,0,0,0-1.005,1.543,16.7,16.7,0,0,1-3.778-2.67,14.268,14.268,0,0,1-2.652-3.243c.034.971.052,1.371.052,1.717v3.241a11.2,11.2,0,0,0,.119,1.8h-1.853a10.752,10.752,0,0,0,.121-1.8v-3.224c0-.536.016-.97.052-1.715a16.582,16.582,0,0,1-6.171,5.824,4.582,4.582,0,0,0-1.007-1.456,16.159,16.159,0,0,0,6.4-5.546h-2.947a18.15,18.15,0,0,0-2.01.1v-1.646a13.053,13.053,0,0,0,1.994.1h3.693V256.3h-4.559a16.2,16.2,0,0,0-2.011.1v-1.682a12.556,12.556,0,0,0,2.011.121h4.559v-1.213a7.192,7.192,0,0,0-.088-1.3h1.786a6.548,6.548,0,0,0-.086,1.3v1.213Z" transform="translate(61.716 39.29)" fill="#333"/>
      <path id="パス_223852" data-name="パス 223852" d="M209.252,264.706c.625-.555,1.4-1.231,2.167-1.943,1.336-1.248,3.486-3.206,3.486-5.165a2.09,2.09,0,0,0-2.323-1.924,6.05,6.05,0,0,0-2.775.779l-.173-1.49a8.066,8.066,0,0,1,3.174-.711c2.183,0,3.934,1.179,3.934,3.449,0,2.012-2.167,4.162-3.5,5.5-.677.676-1.544,1.4-2.133,1.943h5.809v1.42h-7.663Z" transform="translate(32.582 39.589)" fill="#333"/>
      <path id="パス_223853" data-name="パス 223853" d="M221.566,254.253c3.346,0,4.109,3.607,4.109,6.258s-.763,6.257-4.109,6.257-4.109-3.6-4.109-6.257.763-6.258,4.109-6.258m0,11.095c2.081,0,2.271-3.328,2.271-4.837,0-1.526-.277-4.837-2.271-4.837s-2.271,3.311-2.271,4.837c0,1.508.192,4.837,2.271,4.837" transform="translate(33.86 39.589)" fill="#333"/>
      <path id="パス_223854" data-name="パス 223854" d="M225.932,264.706c.625-.555,1.4-1.231,2.167-1.943,1.336-1.248,3.486-3.206,3.486-5.165a2.09,2.09,0,0,0-2.323-1.924,6.05,6.05,0,0,0-2.775.779l-.173-1.49a8.066,8.066,0,0,1,3.174-.711c2.183,0,3.934,1.179,3.934,3.449,0,2.012-2.167,4.162-3.5,5.5-.677.676-1.544,1.4-2.133,1.943H233.6v1.42h-7.664Z" transform="translate(35.179 39.589)" fill="#333"/>
      <path id="パス_223855" data-name="パス 223855" d="M237.93,256.426l-1.855,1.6-.919-1.163,2.966-2.427h1.542v12.1H237.93Z" transform="translate(36.616 39.617)" fill="#333"/>
      <path id="パス_223856" data-name="パス 223856" d="M245.538,259.133a9.316,9.316,0,0,0-.051-1c.381.035.76.052,1.211.052h3.8V255.7h-3.83a14.637,14.637,0,0,1-2.86,3.45,4.514,4.514,0,0,0-1.092-1.248,11,11,0,0,0,3.415-4.473,6.483,6.483,0,0,0,.416-1.248l1.734.381c-.139.26-.156.295-.244.485-.156.329-.156.329-.364.8-.1.208-.173.347-.208.433h8.321a10.665,10.665,0,0,0,1.665-.087v1.595a11.059,11.059,0,0,0-1.665-.087h-3.691v2.479h2.929a11.155,11.155,0,0,0,1.682-.087v1.56a14.378,14.378,0,0,0-1.646-.069h-2.964v3.051h4.161a13.181,13.181,0,0,0,1.838-.1v1.682a13.333,13.333,0,0,0-1.838-.1h-4.161v2.443a9.237,9.237,0,0,0,.12,1.751h-1.819a9.488,9.488,0,0,0,.1-1.767V264.11h-6.015a13.465,13.465,0,0,0-1.836.1v-1.682a13.5,13.5,0,0,0,1.836.1h1.059Zm4.957.452h-3.434v3.051h3.434Z" transform="translate(37.781 39.267)" fill="#333"/>
      <path id="パス_223857" data-name="パス 223857" d="M258.337,264.844a4.612,4.612,0,0,0,2.148.5c2.252,0,3.346-2.079,3.379-4.4l-.034.017a3.558,3.558,0,0,1-2.652,1.108,3.5,3.5,0,0,1-3.642-3.813,3.746,3.746,0,0,1,3.885-4c3.378,0,4.072,3.05,4.072,5.806,0,3.276-1.075,6.709-4.9,6.709a8.488,8.488,0,0,1-2.5-.381Zm3.067-4.2a2.222,2.222,0,0,0,2.252-2.427,2.359,2.359,0,0,0-2.131-2.548,2.266,2.266,0,0,0-2.151,2.548,2.212,2.212,0,0,0,2.029,2.427" transform="translate(40.1 39.589)" fill="#333"/>
      <path id="パス_223858" data-name="パス 223858" d="M269.555,262.583a10.084,10.084,0,0,1-2.582,5.582,5.351,5.351,0,0,0-1.336-1.316,7,7,0,0,0,1.94-3.19c.5-1.664.677-3.606.677-7.924a25.392,25.392,0,0,0-.088-2.773,16.172,16.172,0,0,0,1.944.087h6.932a14.829,14.829,0,0,0,1.925-.087,16.8,16.8,0,0,0-.07,1.89v11.3c0,.763-.173,1.215-.571,1.475a3.136,3.136,0,0,1-1.786.294c-.573,0-1.163-.016-2.011-.068a5.846,5.846,0,0,0-.415-1.63,19.112,19.112,0,0,0,2.511.191c.52,0,.641-.1.641-.485v-3.347Zm7.713-1.472v-2.635h-7.384c0,.624-.051,1.612-.14,2.635Zm0-6.553H269.9V257h7.368Z" transform="translate(41.362 39.388)" fill="#333"/>
      <path id="パス_223859" data-name="パス 223859" d="M293.2,254.847a10.2,10.2,0,0,0,2.027-.121v1.682a14.657,14.657,0,0,0-2.027-.1h-4.907v2.617h3.97a12.92,12.92,0,0,0,2.027-.1v1.646a16.549,16.549,0,0,0-2.027-.1h-3.276a13.1,13.1,0,0,0,2.532,2.86,17.513,17.513,0,0,0,4.161,2.67,6.949,6.949,0,0,0-1.008,1.543,16.759,16.759,0,0,1-3.778-2.67,14.269,14.269,0,0,1-2.652-3.243c.036.971.052,1.371.052,1.717v3.241a11.18,11.18,0,0,0,.121,1.8H286.56a10.518,10.518,0,0,0,.121-1.8v-3.224c0-.536.019-.97.052-1.715a16.547,16.547,0,0,1-6.171,5.824,4.61,4.61,0,0,0-1-1.456,16.164,16.164,0,0,0,6.4-5.546h-2.946a18.194,18.194,0,0,0-2.012.1v-1.646a13.053,13.053,0,0,0,1.994.1h3.692V256.3h-4.559a16.255,16.255,0,0,0-2.011.1v-1.682a12.576,12.576,0,0,0,2.011.121h4.559v-1.213a7.428,7.428,0,0,0-.085-1.3h1.786a6.516,6.516,0,0,0-.088,1.3v1.213Z" transform="translate(43.529 39.29)" fill="#333"/>
      <path id="パス_223860" data-name="パス 223860" d="M92.451,264.706c.625-.555,1.4-1.231,2.167-1.943,1.336-1.248,3.486-3.206,3.486-5.165a2.09,2.09,0,0,0-2.323-1.924,6.05,6.05,0,0,0-2.775.779l-.173-1.49a8.066,8.066,0,0,1,3.174-.711c2.183,0,3.934,1.179,3.934,3.449,0,2.012-2.167,4.162-3.5,5.5-.677.676-1.544,1.4-2.133,1.943h5.809v1.42H92.451Z" transform="translate(14.395 39.589)" fill="#333"/>
      <path id="パス_223861" data-name="パス 223861" d="M104.765,254.253c3.346,0,4.109,3.607,4.109,6.258s-.763,6.257-4.109,6.257-4.109-3.6-4.109-6.257.763-6.258,4.109-6.258m0,11.095c2.081,0,2.271-3.328,2.271-4.837,0-1.526-.277-4.837-2.271-4.837s-2.271,3.311-2.271,4.837c0,1.508.192,4.837,2.271,4.837" transform="translate(15.673 39.589)" fill="#333"/>
      <path id="パス_223862" data-name="パス 223862" d="M109.131,264.706c.625-.555,1.4-1.231,2.167-1.943,1.336-1.248,3.486-3.206,3.486-5.165a2.09,2.09,0,0,0-2.323-1.924,6.05,6.05,0,0,0-2.775.779l-.173-1.49a8.066,8.066,0,0,1,3.174-.711c2.183,0,3.934,1.179,3.934,3.449,0,2.012-2.167,4.162-3.5,5.5-.677.676-1.544,1.4-2.133,1.943h5.809v1.42h-7.664Z" transform="translate(16.993 39.589)" fill="#333"/>
      <path id="パス_223863" data-name="パス 223863" d="M121.13,256.426l-1.855,1.6-.919-1.163,2.966-2.427h1.542v12.1H121.13Z" transform="translate(18.429 39.617)" fill="#333"/>
      <path id="パス_223864" data-name="パス 223864" d="M128.738,259.133a9.3,9.3,0,0,0-.052-1c.381.035.76.052,1.212.052h3.8V255.7h-3.831a14.661,14.661,0,0,1-2.859,3.45,4.518,4.518,0,0,0-1.093-1.248,11,11,0,0,0,3.415-4.473,6.482,6.482,0,0,0,.416-1.248l1.734.381c-.138.26-.156.295-.244.485-.156.329-.156.329-.364.8-.1.208-.173.347-.207.433h8.32a10.656,10.656,0,0,0,1.665-.087v1.595a11.06,11.06,0,0,0-1.665-.087h-3.69v2.479h2.927a11.145,11.145,0,0,0,1.682-.087v1.56a14.365,14.365,0,0,0-1.646-.069h-2.963v3.051h4.159a13.169,13.169,0,0,0,1.838-.1v1.682a13.333,13.333,0,0,0-1.838-.1h-4.159v2.443a9.254,9.254,0,0,0,.119,1.751h-1.819a9.466,9.466,0,0,0,.1-1.767V264.11H127.68a13.484,13.484,0,0,0-1.838.1v-1.682a13.511,13.511,0,0,0,1.838.1h1.059Zm4.957.452h-3.434v3.051H133.7Z" transform="translate(19.595 39.267)" fill="#333"/>
      <path id="パス_223865" data-name="パス 223865" d="M142.456,259.558h.971c1.248,0,3-.433,3-1.976,0-1.387-1.111-1.907-2.375-1.907a5.857,5.857,0,0,0-2.688.659l-.1-1.543a9.654,9.654,0,0,1,3.034-.537c2.133,0,3.97,1.005,3.97,3.294a2.9,2.9,0,0,1-2.6,2.756v.035a2.955,2.955,0,0,1,2.7,3c0,2.774-2.374,3.431-4.767,3.431a10.345,10.345,0,0,1-2.774-.467l.1-1.613a6.193,6.193,0,0,0,2.652.66c1.318,0,2.947-.52,2.947-2.063,0-1.8-1.455-2.307-3.015-2.307h-1.059Z" transform="translate(21.928 39.589)" fill="#333"/>
      <path id="パス_223866" data-name="パス 223866" d="M152.755,262.583a10.085,10.085,0,0,1-2.583,5.582,5.351,5.351,0,0,0-1.336-1.316,7.011,7.011,0,0,0,1.942-3.19c.5-1.664.677-3.606.677-7.924a25.3,25.3,0,0,0-.089-2.773,16.172,16.172,0,0,0,1.944.087h6.932a14.818,14.818,0,0,0,1.925-.087,16.862,16.862,0,0,0-.069,1.89v11.3c0,.763-.175,1.215-.572,1.475a3.134,3.134,0,0,1-1.786.294c-.573,0-1.161-.016-2.011-.068a5.846,5.846,0,0,0-.415-1.63,19.113,19.113,0,0,0,2.512.191c.519,0,.64-.1.64-.485v-3.347Zm7.712-1.472v-2.635h-7.383c0,.624-.052,1.612-.14,2.635Zm0-6.553H153.1V257h7.368Z" transform="translate(23.175 39.388)" fill="#333"/>
      <path id="パス_223867" data-name="パス 223867" d="M176.4,254.847a10.2,10.2,0,0,0,2.026-.121v1.682a14.649,14.649,0,0,0-2.026-.1h-4.908v2.617h3.97a12.92,12.92,0,0,0,2.027-.1v1.646a16.55,16.55,0,0,0-2.027-.1h-3.276a13.094,13.094,0,0,0,2.532,2.86,17.512,17.512,0,0,0,4.161,2.67,6.948,6.948,0,0,0-1.008,1.543,16.785,16.785,0,0,1-3.778-2.67,14.268,14.268,0,0,1-2.652-3.243c.036.971.052,1.371.052,1.717v3.241a11.178,11.178,0,0,0,.121,1.8h-1.855a10.514,10.514,0,0,0,.121-1.8v-3.224c0-.536.02-.97.052-1.715a16.547,16.547,0,0,1-6.171,5.824,4.61,4.61,0,0,0-1-1.456,16.163,16.163,0,0,0,6.4-5.546h-2.946a18.194,18.194,0,0,0-2.012.1v-1.646a13.053,13.053,0,0,0,1.994.1h3.692V256.3h-4.559a16.255,16.255,0,0,0-2.011.1v-1.682a12.576,12.576,0,0,0,2.011.121h4.559v-1.213a7.426,7.426,0,0,0-.086-1.3h1.786a6.518,6.518,0,0,0-.088,1.3v1.213Z" transform="translate(25.342 39.29)" fill="#333"/>
      <path id="パス_223868" data-name="パス 223868" d="M337.308,14.774V12.34c1.352-1.312,6.284-5.432,6.284-8.1,0-1.331-1.186-1.955-2.371-1.955a6.307,6.307,0,0,0-3.35,1.165l-.229-2.414A9.665,9.665,0,0,1,341.949,0c2.767,0,4.556,1.394,4.556,4.245,0,3.08-3.1,5.91-5.472,8.241h5.93v2.288Z" transform="translate(52.521 0)" fill="#333"/>
      <path id="パス_223869" data-name="パス 223869" d="M348.472,12.152a6.166,6.166,0,0,0,2.54.582c2.517,0,3.371-2.331,3.453-4.495l-.04-.042a3.112,3.112,0,0,1-2.811,1.457c-2.746,0-4.245-1.749-4.245-4.433C347.369,2.08,348.91,0,352.2,0c4.037,0,4.931,3.35,4.931,6.763,0,3.932-1.269,8.261-5.972,8.261a9.005,9.005,0,0,1-3.059-.52Zm5.744-7.408c0-1.373-.582-2.58-2.018-2.58-1.353,0-1.915,1.311-1.915,2.6,0,1.416.584,2.726,1.977,2.726,1.415,0,1.955-1.29,1.955-2.747" transform="translate(54.088)" fill="#333"/>
      <path id="パス_223870" data-name="パス 223870" d="M362.253.215h2.58V14.74H361.92V3.524l-2.456,2-1.456-1.893Z" transform="translate(55.744 0.034)" fill="#333"/>
      <path id="パス_223871" data-name="パス 223871" d="M368.34,10.263h3.016l-1.892,5.2h-2.456Z" transform="translate(57.146 1.598)" fill="#333"/>
      <path id="パス_223872" data-name="パス 223872" d="M372.574,12.068a8.734,8.734,0,0,0,3.226.666c1.207,0,3.058-.582,3.058-2.058,0-1.708-1.351-2.27-3.2-2.27h-1.416V6.118h1.333c1.955,0,3.226-.647,3.226-1.915,0-1.457-1.187-1.915-2.5-1.915a7.376,7.376,0,0,0-3.267.771L372.866.728A11.18,11.18,0,0,1,376.924,0c1.789,0,4.785.623,4.785,3.725,0,1.975-1.227,2.912-2.706,3.474v.043a3.176,3.176,0,0,1,2.769,3.454c0,3.453-3.142,4.327-5.557,4.327a14.8,14.8,0,0,1-3.808-.478Z" transform="translate(57.987)" fill="#333"/>
      <path id="パス_223873" data-name="パス 223873" d="M383.5,12.152a6.165,6.165,0,0,0,2.54.582c2.517,0,3.371-2.331,3.453-4.495l-.04-.042a3.111,3.111,0,0,1-2.81,1.457c-2.747,0-4.246-1.749-4.246-4.433C382.4,2.08,383.938,0,387.226,0c4.037,0,4.931,3.35,4.931,6.763,0,3.932-1.269,8.261-5.972,8.261a9.005,9.005,0,0,1-3.059-.52Zm5.744-7.408c0-1.373-.582-2.58-2.018-2.58-1.353,0-1.914,1.311-1.914,2.6,0,1.416.582,2.726,1.976,2.726,1.415,0,1.955-1.29,1.955-2.747" transform="translate(59.542)" fill="#333"/>
      <path id="パス_223874" data-name="パス 223874" d="M397.281.215h2.58V14.74h-2.912V3.524l-2.456,2-1.456-1.893Z" transform="translate(61.199 0.034)" fill="#333"/>
      <path id="パス_223875" data-name="パス 223875" d="M451.308,25.774V23.34c1.352-1.312,6.284-5.432,6.284-8.1,0-1.331-1.186-1.955-2.372-1.955a6.306,6.306,0,0,0-3.35,1.165l-.229-2.414A9.665,9.665,0,0,1,455.949,11c2.767,0,4.556,1.394,4.556,4.245,0,3.08-3.1,5.91-5.472,8.241h5.93v2.288Z" transform="translate(70.272 1.713)" fill="#333"/>
      <path id="パス_223876" data-name="パス 223876" d="M461.478,11.215h9.365V13.63L465.681,25.74h-3.163L467.907,13.5h-6.429Z" transform="translate(71.855 1.746)" fill="#333"/>
      <path id="パス_223877" data-name="パス 223877" d="M471.561,23.068a8.734,8.734,0,0,0,3.226.666c1.207,0,3.058-.582,3.058-2.059,0-1.707-1.351-2.269-3.2-2.269h-1.416V17.118h1.333c1.956,0,3.226-.647,3.226-1.916,0-1.456-1.187-1.914-2.5-1.914a7.392,7.392,0,0,0-3.268.77l-.166-2.33A11.179,11.179,0,0,1,475.911,11c1.789,0,4.785.624,4.785,3.726,0,1.975-1.227,2.912-2.706,3.474v.043A3.175,3.175,0,0,1,480.76,21.7c0,3.453-3.143,4.327-5.557,4.327a14.8,14.8,0,0,1-3.808-.478Z" transform="translate(73.4 1.713)" fill="#333"/>
      <path id="パス_223878" data-name="パス 223878" d="M482.34,21.263h3.016l-1.892,5.2h-2.456Z" transform="translate(74.897 3.311)" fill="#333"/>
      <path id="パス_223879" data-name="パス 223879" d="M491.265,11.215h2.58V25.74h-2.912V14.524l-2.456,2-1.456-1.893Z" transform="translate(75.833 1.746)" fill="#333"/>
      <path id="パス_223880" data-name="パス 223880" d="M498.9,18.2a3.7,3.7,0,0,1-2.413-3.371c0-2.6,1.976-3.829,4.619-3.829,2.559,0,4.869,1.061,4.869,3.5a3.823,3.823,0,0,1-2.413,3.474v.021c1.915.895,2.789,2.144,2.789,3.808,0,2.934-2.123,4.224-4.995,4.224-2.83,0-5.119-1.227-5.119-4.183,0-1.623.916-2.746,2.663-3.6Zm2.456,5.66a1.92,1.92,0,0,0,2.081-1.936c0-1.435-1.227-2.122-2.435-2.517A2.643,2.643,0,0,0,499.15,21.8a2.124,2.124,0,0,0,2.205,2.061m.208-6.763a2.513,2.513,0,0,0,1.623-2.1,1.7,1.7,0,0,0-1.789-1.832,1.9,1.9,0,0,0-2.122,1.747c0,1.249,1.29,1.811,2.288,2.185" transform="translate(77.268 1.713)" fill="#333"/>
      <path id="パス_223881" data-name="パス 223881" d="M515.607,13.38h-5.6l-.062,3.1a6.8,6.8,0,0,1,1.331-.146c2.04,0,4.683.957,4.683,4.723,0,2.726-1.915,4.931-5.661,4.931a15.706,15.706,0,0,1-3.392-.416l.062-2.6a7.5,7.5,0,0,0,2.976.728c1.519,0,3.1-.708,3.1-2.56,0-1.872-1.664-2.517-3.33-2.517a8.527,8.527,0,0,0-2.6.394l.146-7.8h8.344Z" transform="translate(78.93 1.746)" fill="#333"/>
      <path id="パス_223882" data-name="パス 223882" d="M568.308,43.394V40.96c1.352-1.312,6.284-5.432,6.284-8.1,0-1.331-1.186-1.955-2.372-1.955a6.306,6.306,0,0,0-3.35,1.165l-.229-2.414a9.665,9.665,0,0,1,4.308-1.04c2.767,0,4.556,1.394,4.556,4.245,0,3.08-3.1,5.91-5.472,8.241h5.93v2.288Z" transform="translate(88.49 4.456)" fill="#333"/>
      <path id="パス_223883" data-name="パス 223883" d="M587.571,31h-5.6l-.062,3.1a6.8,6.8,0,0,1,1.331-.146c2.04,0,4.683.957,4.683,4.723,0,2.726-1.915,4.931-5.661,4.931a15.684,15.684,0,0,1-3.391-.416l.061-2.6a7.5,7.5,0,0,0,2.976.728c1.519,0,3.1-.708,3.1-2.56,0-1.872-1.664-2.517-3.33-2.517a8.526,8.526,0,0,0-2.6.394l.146-7.8h8.344Z" transform="translate(90.135 4.49)" fill="#333"/>
      <path id="パス_223884" data-name="パス 223884" d="M588.215,36.173c0-3.642,1.1-7.554,5.035-7.554,4.245,0,5.078,4.183,5.078,7.554s-.874,7.47-5.078,7.47c-4.474,0-5.035-4.432-5.035-7.47m7.2,0c0-1.872,0-5.389-2.165-5.389-2.122,0-2.122,3.517-2.122,5.389,0,1.831-.022,5.307,2.122,5.307,2.185,0,2.165-3.476,2.165-5.307" transform="translate(91.589 4.456)" fill="#333"/>
      <path id="パス_223885" data-name="パス 223885" d="M599.34,38.882h3.016l-1.892,5.2h-2.456Z" transform="translate(93.114 6.054)" fill="#333"/>
      <path id="パス_223886" data-name="パス 223886" d="M612.046,31.491a6.16,6.16,0,0,0-2.539-.582c-2.517,0-3.371,2.331-3.454,4.495l.042.042a3.154,3.154,0,0,1,2.81-1.457c2.747,0,4.245,1.749,4.245,4.433,0,3.142-1.539,5.223-4.827,5.223-4.037,0-4.931-3.349-4.931-6.763,0-3.932,1.269-8.261,5.972-8.261a9.006,9.006,0,0,1,3.059.521ZM606.3,38.9c0,1.373.582,2.581,2.018,2.581,1.352,0,1.914-1.312,1.914-2.6,0-1.415-.582-2.725-1.976-2.725-1.415,0-1.956,1.29-1.956,2.746" transform="translate(93.952 4.456)" fill="#333"/>
      <path id="パス_223887" data-name="パス 223887" d="M613.506,28.835h9.365v2.414L617.709,43.36h-3.163l5.389-12.235h-6.429Z" transform="translate(95.527 4.49)" fill="#333"/>
      <path id="パス_223888" data-name="パス 223888" d="M632.062,31.491a6.16,6.16,0,0,0-2.539-.582c-2.517,0-3.371,2.331-3.454,4.495l.042.042a3.154,3.154,0,0,1,2.81-1.457c2.747,0,4.245,1.749,4.245,4.433,0,3.142-1.539,5.223-4.827,5.223-4.037,0-4.931-3.349-4.931-6.763,0-3.932,1.269-8.261,5.972-8.261a9.006,9.006,0,0,1,3.059.521ZM626.32,38.9c0,1.373.583,2.581,2.018,2.581,1.352,0,1.914-1.312,1.914-2.6,0-1.415-.582-2.725-1.976-2.725-1.415,0-1.956,1.29-1.956,2.746" transform="translate(97.069 4.456)" fill="#333"/>
      <path id="パス_223889" data-name="パス 223889" d="M.159,11.2a5.822,5.822,0,0,0,2.147.444c.806,0,2.039-.388,2.039-1.373,0-1.136-.9-1.511-2.135-1.511H1.267V7.231h.888c1.3,0,2.148-.43,2.148-1.276,0-.97-.791-1.275-1.664-1.275a4.921,4.921,0,0,0-2.175.513L.353,3.64a7.479,7.479,0,0,1,2.7-.484c1.192,0,3.187.416,3.187,2.48a2.366,2.366,0,0,1-1.8,2.315v.028a2.116,2.116,0,0,1,1.843,2.3c0,2.3-2.093,2.883-3.7,2.883a9.843,9.843,0,0,1-2.537-.319Z" transform="translate(0.007 0.491)" fill="#333"/>
      <path id="パス_223890" data-name="パス 223890" d="M7.08,8.187c0-2.426.734-5.032,3.354-5.032,2.827,0,3.383,2.786,3.383,5.032s-.582,4.976-3.383,4.976c-2.981,0-3.354-2.953-3.354-4.976m4.8,0c0-1.248,0-3.59-1.441-3.59-1.415,0-1.415,2.341-1.415,3.59,0,1.219-.013,3.534,1.415,3.534,1.455,0,1.441-2.315,1.441-3.534" transform="translate(1.102 0.491)" fill="#333"/>
      <path id="パス_223891" data-name="パス 223891" d="M14.232,8.187c0-2.426.734-5.032,3.354-5.032,2.827,0,3.383,2.786,3.383,5.032s-.582,4.976-3.383,4.976c-2.981,0-3.354-2.953-3.354-4.976m4.8,0c0-1.248,0-3.59-1.441-3.59-1.415,0-1.415,2.341-1.415,3.59,0,1.219-.013,3.534,1.415,3.534,1.455,0,1.441-2.315,1.441-3.534" transform="translate(2.216 0.491)" fill="#333"/>
      <path id="パス_223892" data-name="パス 223892" d="M22.126,9.992h2.01l-1.261,3.466H21.239Z" transform="translate(3.307 1.556)" fill="#333"/>
      <path id="パス_223893" data-name="パス 223893" d="M25.2,8.187c0-2.426.734-5.032,3.354-5.032,2.827,0,3.383,2.786,3.383,5.032s-.582,4.976-3.383,4.976c-2.981,0-3.354-2.953-3.354-4.976m4.8,0c0-1.248,0-3.59-1.441-3.59-1.415,0-1.415,2.341-1.415,3.59,0,1.219-.013,3.534,1.415,3.534C30.01,11.721,30,9.406,30,8.187" transform="translate(3.924 0.491)" fill="#333"/>
      <path id="パス_223894" data-name="パス 223894" d="M32.352,8.187c0-2.426.734-5.032,3.354-5.032,2.827,0,3.383,2.786,3.383,5.032s-.582,4.976-3.383,4.976c-2.981,0-3.354-2.953-3.354-4.976m4.8,0c0-1.248,0-3.59-1.441-3.59-1.415,0-1.415,2.341-1.415,3.59,0,1.219-.013,3.534,1.415,3.534,1.455,0,1.441-2.315,1.441-3.534" transform="translate(5.037 0.491)" fill="#333"/>
      <path id="パス_223895" data-name="パス 223895" d="M39.5,8.187c0-2.426.734-5.032,3.354-5.032,2.827,0,3.383,2.786,3.383,5.032s-.582,4.976-3.383,4.976c-2.981,0-3.354-2.953-3.354-4.976m4.8,0c0-1.248,0-3.59-1.441-3.59-1.415,0-1.415,2.341-1.415,3.59,0,1.219-.013,3.534,1.415,3.534,1.455,0,1.441-2.315,1.441-3.534" transform="translate(6.151 0.491)" fill="#333"/>
      <path id="パス_223896" data-name="パス 223896" d="M0,91V89.375c.9-.874,4.185-3.619,4.185-5.393,0-.886-.789-1.3-1.58-1.3a4.2,4.2,0,0,0-2.232.777L.221,81.848a6.451,6.451,0,0,1,2.87-.692c1.845,0,3.036.928,3.036,2.827,0,2.053-2.065,3.936-3.646,5.49H6.43V91Z" transform="translate(0 12.637)" fill="#333"/>
      <path id="パス_223897" data-name="パス 223897" d="M7.08,86.187c0-2.426.734-5.032,3.354-5.032,2.827,0,3.383,2.786,3.383,5.032s-.582,4.976-3.383,4.976c-2.981,0-3.354-2.953-3.354-4.976m4.8,0c0-1.248,0-3.59-1.441-3.59-1.415,0-1.415,2.341-1.415,3.59,0,1.219-.013,3.534,1.415,3.534,1.455,0,1.441-2.315,1.441-3.534" transform="translate(1.102 12.636)" fill="#333"/>
      <path id="パス_223898" data-name="パス 223898" d="M14.232,86.187c0-2.426.734-5.032,3.354-5.032,2.827,0,3.383,2.786,3.383,5.032s-.582,4.976-3.383,4.976c-2.981,0-3.354-2.953-3.354-4.976m4.8,0c0-1.248,0-3.59-1.441-3.59-1.415,0-1.415,2.341-1.415,3.59,0,1.219-.013,3.534,1.415,3.534,1.455,0,1.441-2.315,1.441-3.534" transform="translate(2.216 12.636)" fill="#333"/>
      <path id="パス_223899" data-name="パス 223899" d="M22.126,87.992h2.01l-1.261,3.466H21.239Z" transform="translate(3.307 13.701)" fill="#333"/>
      <path id="パス_223900" data-name="パス 223900" d="M25.2,86.187c0-2.426.734-5.032,3.354-5.032,2.827,0,3.383,2.786,3.383,5.032s-.582,4.976-3.383,4.976c-2.981,0-3.354-2.953-3.354-4.976m4.8,0c0-1.248,0-3.59-1.441-3.59-1.415,0-1.415,2.341-1.415,3.59,0,1.219-.013,3.534,1.415,3.534,1.455,0,1.441-2.315,1.441-3.534" transform="translate(3.924 12.636)" fill="#333"/>
      <path id="パス_223901" data-name="パス 223901" d="M32.352,86.187c0-2.426.734-5.032,3.354-5.032,2.827,0,3.383,2.786,3.383,5.032s-.582,4.976-3.383,4.976c-2.981,0-3.354-2.953-3.354-4.976m4.8,0c0-1.248,0-3.59-1.441-3.59-1.415,0-1.415,2.341-1.415,3.59,0,1.219-.013,3.534,1.415,3.534,1.455,0,1.441-2.315,1.441-3.534" transform="translate(5.037 12.636)" fill="#333"/>
      <path id="パス_223902" data-name="パス 223902" d="M39.5,86.187c0-2.426.734-5.032,3.354-5.032,2.827,0,3.383,2.786,3.383,5.032s-.582,4.976-3.383,4.976c-2.981,0-3.354-2.953-3.354-4.976m4.8,0c0-1.248,0-3.59-1.441-3.59-1.415,0-1.415,2.341-1.415,3.59,0,1.219-.013,3.534,1.415,3.534,1.455,0,1.441-2.315,1.441-3.534" transform="translate(6.151 12.636)" fill="#333"/>
      <path id="パス_223903" data-name="パス 223903" d="M3.283,159.3H5v9.676H3.061V161.5l-1.635,1.331-.971-1.262Z" transform="translate(0.071 24.804)" fill="#333"/>
      <path id="パス_223904" data-name="パス 223904" d="M7.08,164.187c0-2.426.734-5.032,3.354-5.032,2.827,0,3.383,2.786,3.383,5.032s-.582,4.976-3.383,4.976c-2.981,0-3.354-2.953-3.354-4.976m4.8,0c0-1.248,0-3.59-1.441-3.59-1.415,0-1.415,2.341-1.415,3.59,0,1.219-.013,3.534,1.415,3.534,1.455,0,1.441-2.315,1.441-3.534" transform="translate(1.102 24.782)" fill="#333"/>
      <path id="パス_223905" data-name="パス 223905" d="M14.232,164.187c0-2.426.734-5.032,3.354-5.032,2.827,0,3.383,2.786,3.383,5.032s-.582,4.976-3.383,4.976c-2.981,0-3.354-2.953-3.354-4.976m4.8,0c0-1.248,0-3.59-1.441-3.59-1.415,0-1.415,2.341-1.415,3.59,0,1.219-.013,3.534,1.415,3.534,1.455,0,1.441-2.315,1.441-3.534" transform="translate(2.216 24.782)" fill="#333"/>
      <path id="パス_223906" data-name="パス 223906" d="M22.126,165.992h2.01l-1.261,3.466H21.239Z" transform="translate(3.307 25.846)" fill="#333"/>
      <path id="パス_223907" data-name="パス 223907" d="M25.2,164.187c0-2.426.734-5.032,3.354-5.032,2.827,0,3.383,2.786,3.383,5.032s-.582,4.976-3.383,4.976c-2.981,0-3.354-2.953-3.354-4.976m4.8,0c0-1.248,0-3.59-1.441-3.59-1.415,0-1.415,2.341-1.415,3.59,0,1.219-.013,3.534,1.415,3.534,1.455,0,1.441-2.315,1.441-3.534" transform="translate(3.924 24.782)" fill="#333"/>
      <path id="パス_223908" data-name="パス 223908" d="M32.352,164.187c0-2.426.734-5.032,3.354-5.032,2.827,0,3.383,2.786,3.383,5.032s-.582,4.976-3.383,4.976c-2.981,0-3.354-2.953-3.354-4.976m4.8,0c0-1.248,0-3.59-1.441-3.59-1.415,0-1.415,2.341-1.415,3.59,0,1.219-.013,3.534,1.415,3.534,1.455,0,1.441-2.315,1.441-3.534" transform="translate(5.037 24.782)" fill="#333"/>
      <path id="パス_223909" data-name="パス 223909" d="M39.5,164.187c0-2.426.734-5.032,3.354-5.032,2.827,0,3.383,2.786,3.383,5.032s-.582,4.976-3.383,4.976c-2.981,0-3.354-2.953-3.354-4.976m4.8,0c0-1.248,0-3.59-1.441-3.59-1.415,0-1.415,2.341-1.415,3.59,0,1.219-.013,3.534,1.415,3.534,1.455,0,1.441-2.315,1.441-3.534" transform="translate(6.151 24.782)" fill="#333"/>
      <path id="パス_223910" data-name="パス 223910" d="M39.5,243.187c0-2.426.734-5.032,3.354-5.032,2.827,0,3.383,2.786,3.383,5.032s-.582,4.976-3.383,4.976c-2.981,0-3.354-2.953-3.354-4.976m4.8,0c0-1.248,0-3.59-1.441-3.59-1.415,0-1.415,2.341-1.415,3.59,0,1.219-.013,3.534,1.415,3.534,1.455,0,1.441-2.315,1.441-3.534" transform="translate(6.151 37.083)" fill="#333"/>
      <path id="パス_223911" data-name="パス 223911" d="M107.237,88.835h2.58V103.36H106.9V92.144l-2.456,2-1.456-1.893Z" transform="translate(16.037 13.832)" fill="#333"/>
      <path id="パス_223912" data-name="パス 223912" d="M112.478,88.835h9.365v2.414l-5.161,12.111h-3.163l5.389-12.235h-6.429Z" transform="translate(17.514 13.832)" fill="#333"/>
      <path id="パス_223913" data-name="パス 223913" d="M121.873,97.992l5.431-9.156h3.621v9.343h1.853v2.165h-1.853v3.016h-2.788v-3.016h-6.264Zm6.264.187V91.873H128.1l-3.6,6.306Z" transform="translate(18.977 13.832)" fill="#333"/>
      <path id="パス_223914" data-name="パス 223914" d="M133.34,98.882h3.016l-1.892,5.2h-2.456Z" transform="translate(20.555 15.397)" fill="#333"/>
      <path id="パス_223915" data-name="パス 223915" d="M146.592,91h-5.6l-.062,3.1a6.8,6.8,0,0,1,1.331-.146c2.04,0,4.683.957,4.683,4.723,0,2.726-1.915,4.931-5.661,4.931a15.705,15.705,0,0,1-3.392-.416l.062-2.6a7.5,7.5,0,0,0,2.976.728c1.519,0,3.1-.708,3.1-2.56,0-1.872-1.664-2.517-3.33-2.517a8.526,8.526,0,0,0-2.6.394l.146-7.8h8.344Z" transform="translate(21.471 13.832)" fill="#333"/>
      <path id="パス_223916" data-name="パス 223916" d="M147.582,100.688a8.757,8.757,0,0,0,3.226.666c1.207,0,3.058-.582,3.058-2.059,0-1.707-1.351-2.269-3.2-2.269h-1.416V94.737h1.333c1.955,0,3.226-.646,3.226-1.915,0-1.456-1.187-1.914-2.5-1.914a7.376,7.376,0,0,0-3.267.77l-.166-2.331a11.2,11.2,0,0,1,4.059-.728c1.789,0,4.785.624,4.785,3.725,0,1.976-1.227,2.914-2.706,3.475v.042a3.176,3.176,0,0,1,2.769,3.454c0,3.454-3.142,4.328-5.557,4.328a14.8,14.8,0,0,1-3.808-.478Z" transform="translate(22.954 13.799)" fill="#333"/>
      <path id="パス_223917" data-name="パス 223917" d="M166.062,91.491a6.16,6.16,0,0,0-2.539-.582c-2.517,0-3.371,2.331-3.454,4.495l.042.042a3.154,3.154,0,0,1,2.81-1.457c2.747,0,4.245,1.749,4.245,4.433,0,3.142-1.539,5.223-4.827,5.223-4.037,0-4.931-3.349-4.931-6.763,0-3.932,1.269-8.261,5.972-8.261a9.006,9.006,0,0,1,3.059.521ZM160.32,98.9c0,1.373.582,2.581,2.018,2.581,1.352,0,1.914-1.312,1.914-2.6,0-1.415-.582-2.725-1.976-2.725-1.415,0-1.955,1.29-1.955,2.746" transform="translate(24.509 13.799)" fill="#333"/>
      <path id="パス_223918" data-name="パス 223918" d="M218.308,39.774V37.34c1.352-1.312,6.284-5.432,6.284-8.1,0-1.331-1.186-1.955-2.372-1.955a6.306,6.306,0,0,0-3.35,1.165l-.229-2.414A9.665,9.665,0,0,1,222.949,25c2.767,0,4.556,1.394,4.556,4.245,0,3.08-3.1,5.91-5.472,8.241h5.93v2.288Z" transform="translate(33.992 3.893)" fill="#333"/>
      <path id="パス_223919" data-name="パス 223919" d="M237.026,27.871a6.16,6.16,0,0,0-2.539-.582c-2.517,0-3.371,2.331-3.454,4.495l.042.042a3.154,3.154,0,0,1,2.81-1.457c2.747,0,4.245,1.749,4.245,4.433,0,3.142-1.539,5.223-4.827,5.223-4.037,0-4.933-3.349-4.933-6.763,0-3.932,1.27-8.261,5.973-8.261a9.006,9.006,0,0,1,3.059.521Zm-5.744,7.408c0,1.373.584,2.581,2.019,2.581,1.352,0,1.914-1.312,1.914-2.6,0-1.415-.582-2.725-1.976-2.725-1.415,0-1.957,1.29-1.957,2.746" transform="translate(35.559 3.893)" fill="#333"/>
      <path id="パス_223920" data-name="パス 223920" d="M243.253,25.215h2.58V39.74H242.92V28.524l-2.456,2-1.456-1.893Z" transform="translate(37.215 3.926)" fill="#333"/>
      <path id="パス_223921" data-name="パス 223921" d="M249.34,35.263h3.016l-1.892,5.2h-2.456Z" transform="translate(38.617 5.491)" fill="#333"/>
      <path id="パス_223922" data-name="パス 223922" d="M253.336,39.774V37.34c1.352-1.312,6.284-5.432,6.284-8.1,0-1.331-1.186-1.955-2.372-1.955a6.306,6.306,0,0,0-3.35,1.165l-.229-2.414A9.667,9.667,0,0,1,257.976,25c2.768,0,4.557,1.394,4.557,4.245,0,3.08-3.1,5.91-5.472,8.241h5.93v2.288Z" transform="translate(39.446 3.893)" fill="#333"/>
      <path id="パス_223923" data-name="パス 223923" d="M263.236,32.553c0-3.642,1.1-7.554,5.035-7.554,4.245,0,5.078,4.183,5.078,7.554s-.874,7.47-5.078,7.47c-4.474,0-5.035-4.432-5.035-7.47m7.2,0c0-1.872,0-5.389-2.165-5.389-2.122,0-2.122,3.517-2.122,5.389,0,1.831-.022,5.307,2.122,5.307,2.185,0,2.165-3.476,2.165-5.307" transform="translate(40.988 3.893)" fill="#333"/>
      <path id="パス_223924" data-name="パス 223924" d="M272.9,34.372l5.431-9.156h3.621v9.343h1.853v2.165h-1.853V39.74h-2.788V36.723H272.9Zm6.264.187V28.253h-.042l-3.6,6.306Z" transform="translate(42.493 3.926)" fill="#333"/>
    </g>
  </g>
</svg>
