<svg id="グループ_90570" data-name="グループ 90570" xmlns="http://www.w3.org/2000/svg" xmlns:xlink="http://www.w3.org/1999/xlink" width="768" height="482.298" viewBox="0 0 768 482.298">
  <defs>
    <clipPath id="clip-path">
      <path id="パス_223612" data-name="パス 223612" d="M377.867,253.819,149.5,316.386v157.8H627.868V33.325L377.867,27Z" transform="translate(-149.5 -27.001)" fill="none"/>
    </clipPath>
    <clipPath id="clip-path-2">
      <path id="パス_223614" data-name="パス 223614" d="M18.227,0V226.819L.5,297.729v157.8l178.314-34.75,207.511-161.63Z" transform="translate(-0.5 -0.001)" fill="none"/>
    </clipPath>
    <clipPath id="clip-path-3">
      <path id="パス_223616" data-name="パス 223616" d="M368.5,257.37l226.17-19.813V42.252L368.5,41.49Z" transform="translate(-368.5 -41.49)" fill="none"/>
    </clipPath>
    <clipPath id="clip-path-4">
      <path id="パス_223618" data-name="パス 223618" d="M126.611,42.038v385.3l252.235-170.29V41.49Z" transform="translate(-126.611 -41.49)" fill="none"/>
    </clipPath>
    <clipPath id="clip-path-5">
      <path id="パス_223620" data-name="パス 223620" d="M257.5,24.471,373.247,258.415V24.471Z" transform="translate(-257.5 -24.471)" fill="none"/>
    </clipPath>
    <clipPath id="clip-path-6">
      <path id="パス_223622" data-name="パス 223622" d="M336.931,27.042l34.634,230.629V27.042Z" transform="translate(-336.931 -27.042)" fill="none"/>
    </clipPath>
    <clipPath id="clip-path-7">
      <rect id="長方形_17233" data-name="長方形 17233" width="768" height="482.298" fill="none"/>
    </clipPath>
  </defs>
  <rect id="長方形_17219" data-name="長方形 17219" width="15.642" height="15.642" transform="translate(384.782 455.525)" fill="#237593"/>
  <path id="パス_223607" data-name="パス 223607" d="M355.543,78.534H354.5V41.516H605.808v1.043H355.543Z" transform="translate(15.162 1.776)" fill="#333"/>
  <path id="パス_223608" data-name="パス 223608" d="M514.5,114.516v37.019h1.043V115.558H745.994v-1.043Z" transform="translate(22.005 4.898)" fill="#333"/>
  <path id="パス_223609" data-name="パス 223609" d="M358.5,418.016v46.4h236.71v-1.043H359.542V418.016Z" transform="translate(15.333 17.879)" fill="#333"/>
  <path id="パス_223610" data-name="パス 223610" d="M320.524,89.62h-1.043V51.559H100.5V50.516H320.524Z" transform="translate(4.298 2.161)" fill="#333"/>
  <rect id="長方形_17220" data-name="長方形 17220" width="247.658" height="1.043" transform="translate(0 185.63)" fill="#333"/>
  <rect id="長方形_17221" data-name="長方形 17221" width="247.658" height="1.043" transform="translate(15.642 371.243)" fill="#333"/>
  <g id="グループ_90571" data-name="グループ 90571" transform="translate(155.894 28.156)">
    <g id="グループ_90570-2" data-name="グループ 90570" clip-path="url(#clip-path)">
      <path id="パス_223611" data-name="パス 223611" d="M566.068,252.3c0,104.815-84.969,189.784-189.784,189.784S186.5,357.115,186.5,252.3,271.469,62.516,376.284,62.516,566.068,147.485,566.068,252.3" transform="translate(-147.918 -25.482)" fill="#237593"/>
    </g>
  </g>
  <g id="グループ_90573" data-name="グループ 90573" transform="translate(0.521 0.001)">
    <g id="グループ_90572" data-name="グループ 90572" clip-path="url(#clip-path-2)">
      <path id="パス_223613" data-name="パス 223613" d="M566.068,252.3c0,104.815-84.969,189.784-189.784,189.784S186.5,357.115,186.5,252.3,271.469,62.516,376.284,62.516,566.068,147.485,566.068,252.3" transform="translate(7.455 2.673)" fill="#0063b2"/>
    </g>
  </g>
  <g id="グループ_90575" data-name="グループ 90575" transform="translate(384.261 43.265)">
    <g id="グループ_90574" data-name="グループ 90574" clip-path="url(#clip-path-3)">
      <path id="パス_223615" data-name="パス 223615" d="M566.068,252.3c0,104.815-84.969,189.784-189.784,189.784S186.5,357.115,186.5,252.3,271.469,62.516,376.284,62.516,566.068,147.485,566.068,252.3" transform="translate(-376.284 -40.591)" fill="#002060"/>
    </g>
  </g>
  <g id="グループ_90577" data-name="グループ 90577" transform="translate(132.026 43.265)">
    <g id="グループ_90576" data-name="グループ 90576" clip-path="url(#clip-path-4)">
      <path id="パス_223617" data-name="パス 223617" d="M566.068,252.3c0,104.815-84.969,189.784-189.784,189.784S186.5,357.115,186.5,252.3,271.469,62.516,376.284,62.516,566.068,147.485,566.068,252.3" transform="translate(-124.05 -40.591)" fill="#008ccf"/>
    </g>
  </g>
  <g id="グループ_90579" data-name="グループ 90579" transform="translate(268.513 25.518)">
    <g id="グループ_90578" data-name="グループ 90578" clip-path="url(#clip-path-5)">
      <path id="パス_223619" data-name="パス 223619" d="M566.068,252.3c0,104.815-84.969,189.784-189.784,189.784S186.5,357.115,186.5,252.3,271.469,62.516,376.284,62.516,566.068,147.485,566.068,252.3" transform="translate(-260.537 -22.844)" fill="#77aede"/>
    </g>
  </g>
  <g id="グループ_90581" data-name="グループ 90581" transform="translate(351.341 28.199)">
    <g id="グループ_90580" data-name="グループ 90580" clip-path="url(#clip-path-6)">
      <path id="パス_223621" data-name="パス 223621" d="M566.068,252.3c0,104.815-84.969,189.784-189.784,189.784S186.5,357.115,186.5,252.3,271.469,62.516,376.284,62.516,566.068,147.485,566.068,252.3" transform="translate(-343.365 -25.525)" fill="#b7bbbe"/>
    </g>
  </g>
  <g id="グループ_90583" data-name="グループ 90583">
    <g id="グループ_90582" data-name="グループ 90582" clip-path="url(#clip-path-7)">
      <path id="パス_223623" data-name="パス 223623" d="M454.258,247.895a82.379,82.379,0,1,1-82.379-82.379,82.379,82.379,0,0,1,82.379,82.379" transform="translate(12.382 7.079)" fill="#fff"/>
      <path id="パス_223624" data-name="パス 223624" d="M486.8,450.87a17.246,17.246,0,0,0,.078,1.829H485.33a15.714,15.714,0,0,0,.095-1.846v-4.895c0-.6,0-.97.047-1.8a8.947,8.947,0,0,1-1.267,1.86,6.827,6.827,0,0,0-.688-1.439A12.233,12.233,0,0,0,486,440.39a9.751,9.751,0,0,0,.61-2.237l1.439.485c-.11.313-.141.407-.3.859a22.318,22.318,0,0,1-.954,2.471Zm1.376-10.121a16.239,16.239,0,0,0-.063-1.72,15.3,15.3,0,0,0,1.564.063h6.288a16.052,16.052,0,0,0,1.736-.063,16.529,16.529,0,0,0-.063,1.846v9.712a15.329,15.329,0,0,0,.078,1.986h-1.378v-.72h-6.866v.72h-1.392a14.3,14.3,0,0,0,.094-1.893Zm1.3,9.839h6.866v-10.23h-6.866Zm4.458-5.427c.5,0,.86-.017,1.267-.048a6.6,6.6,0,0,0-.047,1.143v2.111a6.4,6.4,0,0,0,.047,1.159c-.407-.032-.845-.047-1.267-.047H491.79c-.532,0-.86.015-1.251.047a8.517,8.517,0,0,0,.047-1.127v-2.174a8.373,8.373,0,0,0-.047-1.111c.391.031.688.048,1.251.048h.438v-1.6h-1.22a7.218,7.218,0,0,0-1.064.062v-1.345a5.017,5.017,0,0,0,1.064.078h1.22v-.406a5.872,5.872,0,0,0-.078-1.189h1.392a5.872,5.872,0,0,0-.078,1.189v.406h1.3a5.5,5.5,0,0,0,1.111-.078v1.345a7.4,7.4,0,0,0-1.1-.062h-1.313v1.6Zm-2.174,3.144h2.221v-1.972h-2.221Z" transform="translate(20.68 18.74)"/>
      <path id="パス_223625" data-name="パス 223625" d="M506.9,438.543a11.983,11.983,0,0,0-.094,1.517,16.832,16.832,0,0,0,.421,3.629,12.875,12.875,0,0,0,2.315,4.38,14.537,14.537,0,0,0,2.159,2.08,10.5,10.5,0,0,0,1.55,1,4.739,4.739,0,0,0-1.048,1.439,15.049,15.049,0,0,1-4.035-3.817,12.831,12.831,0,0,1-2.066-4.567,12.329,12.329,0,0,1-1.156,3.284,10.837,10.837,0,0,1-2.346,3.1,13.146,13.146,0,0,1-2.612,1.985,4.036,4.036,0,0,0-1.064-1.329,10.611,10.611,0,0,0,3.629-2.862,12.6,12.6,0,0,0,2.706-8.525,10.074,10.074,0,0,0-.063-1.314Z" transform="translate(21.339 18.756)"/>
      <path id="パス_223626" data-name="パス 223626" d="M518.719,445.269a1.627,1.627,0,1,1-1.627-1.627,1.616,1.616,0,0,1,1.627,1.627" transform="translate(22.046 18.975)"/>
      <path id="パス_223627" data-name="パス 223627" d="M523.923,439.486a10.109,10.109,0,0,0,1.486.078c1.547,0,3.722-.094,4.895-.219a3.741,3.741,0,0,0,1.032-.2l.861,1.095a7.467,7.467,0,0,0-.846.72,38.1,38.1,0,0,1-4.6,3.645c.751-.094,1.813-.2,3.753-.375,1.017-.078,1.83-.141,2.346-.188.61-.063,1.064-.094,1.236-.11a4.648,4.648,0,0,0,.5-.078l.11,1.533a3.429,3.429,0,0,0-.36-.016,10.909,10.909,0,0,0-4.4.829,5.181,5.181,0,0,0-1.814,1.361,1.775,1.775,0,0,0-.453,1.173c0,1.125,1.22,1.752,3.393,1.752a5.6,5.6,0,0,0,1.314-.125l.064,1.673c-.236-.015-.361-.03-.469-.03l-.923.016a7.248,7.248,0,0,1-3.8-.907,2.582,2.582,0,0,1-1.156-2.159,3.153,3.153,0,0,1,1.282-2.44,6.547,6.547,0,0,1,1.533-.97c-.859.156-1.22.2-3.128.438a37.939,37.939,0,0,0-4.191.626l-.156-1.6h.313a22.53,22.53,0,0,0,2.674-.3,32.835,32.835,0,0,0,5.163-4.129,33.94,33.94,0,0,1-4.584.375,7.864,7.864,0,0,0-.984.078Z" transform="translate(22.302 18.782)"/>
      <path id="パス_223628" data-name="パス 223628" d="M541.72,447.516c-.906,2.065-1.86,2.972-3.08,2.972-1.658,0-2.878-1.736-2.878-4.114a6.587,6.587,0,0,1,1.688-4.458,6.845,6.845,0,0,1,5.256-2.143c3.644,0,6.038,2.237,6.038,5.615a5.9,5.9,0,0,1-3.723,5.678,11.551,11.551,0,0,1-2.409.672,4.092,4.092,0,0,0-.8-1.532,10.5,10.5,0,0,0,2.6-.642,4.544,4.544,0,0,0,2.722-4.253,3.967,3.967,0,0,0-2.143-3.66,3.676,3.676,0,0,0-1.674-.438,23.064,23.064,0,0,1-1.6,6.3m-2.143-5.537a5.323,5.323,0,0,0-2.3,4.41c0,1.362.594,2.44,1.345,2.44.563,0,1.143-.687,1.753-2.111a21.554,21.554,0,0,0,1.344-5.49,4.357,4.357,0,0,0-2.143.751" transform="translate(22.914 18.809)"/>
      <path id="パス_223629" data-name="パス 223629" d="M551.541,446.034c0-.485,0-.674.047-1.783a12.283,12.283,0,0,1-1.456,2.032,6.757,6.757,0,0,0-.75-1.455,13.27,13.27,0,0,0,2.877-4.457,8.606,8.606,0,0,0,.627-2.159l1.5.453c-.126.33-.156.455-.313.893a17.542,17.542,0,0,1-1.142,2.658v8.6c0,.72.03,1.3.077,1.877h-1.563a15.768,15.768,0,0,0,.094-1.908Zm4.911-1.456v5.615c0,.344.094.454.485.532a10.157,10.157,0,0,0,2.127.125,7.166,7.166,0,0,0,2.908-.282c.328-.219.469-.688.563-2.08a5.1,5.1,0,0,0,1.423.455c-.219,1.72-.438,2.361-.891,2.689-.563.407-1.628.532-4.4.532a12.01,12.01,0,0,1-2.535-.188c-.8-.2-1.063-.532-1.063-1.314v-5.615a2.579,2.579,0,0,1-.407.125,8.552,8.552,0,0,0-.971.376l-.155-1.487a8.258,8.258,0,0,0,1.439-.344l.094-.03v-1.972a11.774,11.774,0,0,0-.094-1.641h1.564a10.374,10.374,0,0,0-.094,1.579v1.58l1.892-.626v-2.658a11.308,11.308,0,0,0-.093-1.518H559.8a10.274,10.274,0,0,0-.094,1.5v2.237l2.346-.782a9.637,9.637,0,0,0,1.267-.484,7.31,7.31,0,0,0-.03.782c-.032,1.751-.157,4.019-.283,5.02-.155,1.158-.5,1.456-1.642,1.456-.266,0-.579-.017-.937-.048a4.327,4.327,0,0,0-.36-1.344,5.977,5.977,0,0,0,1.173.14c.39,0,.453-.14.562-1.236.078-.72.125-1.783.142-2.941l-2.238.751v4.223a9.16,9.16,0,0,0,.094,1.533h-1.547a11,11,0,0,0,.093-1.58v-3.723Z" transform="translate(23.497 18.742)"/>
      <rect id="長方形_17222" data-name="長方形 17222" width="15.642" height="15.642" transform="translate(547.454 93.345)" fill="#002060"/>
      <path id="パス_223630" data-name="パス 223630" d="M643.543,96.048a12.072,12.072,0,0,1,1.877,1.721,16.694,16.694,0,0,0,1.126-3.957H644a15.687,15.687,0,0,1-3.034,4.833,3.516,3.516,0,0,0-.892-1.22,13.218,13.218,0,0,0,3-5.051,11.371,11.371,0,0,0,.469-2l1.533.281a7.34,7.34,0,0,0-.313.893c-.094.344-.172.593-.313,1.016h2.33a12.488,12.488,0,0,0,1.252-.047c-.063.313-.063.391-.125.814a9.839,9.839,0,0,0,1.689,2.69v-3.8a11.446,11.446,0,0,0-.111-1.736h1.642a11.189,11.189,0,0,0-.108,1.736v5.177a14.363,14.363,0,0,0,3.707,2.19,7.385,7.385,0,0,0-.8,1.423,19.784,19.784,0,0,1-2.908-1.877v3.613a14.375,14.375,0,0,0,.108,2h-1.642a14.636,14.636,0,0,0,.111-2V97.848a11.75,11.75,0,0,1-1.988-2.629,15,15,0,0,1-2.127,5.443,15.714,15.714,0,0,1-3.972,4.051,3.734,3.734,0,0,0-1.064-1.189,12.773,12.773,0,0,0,2.988-2.55,11.314,11.314,0,0,0,1.376-1.94,10.925,10.925,0,0,0-2.049-1.923Z" transform="translate(27.376 3.865)"/>
      <path id="パス_223631" data-name="パス 223631" d="M655.45,92.847a18.139,18.139,0,0,0-.094-1.908,14,14,0,0,0,1.83.079h9.681a15.67,15.67,0,0,0,1.847-.079,16.264,16.264,0,0,0-.094,1.908v9.823a12.94,12.94,0,0,0,.094,2.065h-1.5v-.906H656.858v.906h-1.5a14.886,14.886,0,0,0,.094-2.065Zm1.408,9.713h10.355V92.285H656.858Zm2.487-7.883a8.851,8.851,0,0,0-1.44.079V93.411a8.872,8.872,0,0,0,1.44.078h5.4a9.148,9.148,0,0,0,1.486-.078v1.345a9.258,9.258,0,0,0-1.47-.079H662.6v1.955h1.722a7.471,7.471,0,0,0,1.375-.078v1.315a8,8,0,0,0-1.375-.078H662.6v2.346h2.346a7.953,7.953,0,0,0,1.486-.094v1.392a10.231,10.231,0,0,0-1.486-.078h-5.786a10.084,10.084,0,0,0-1.5.078v-1.392a8.042,8.042,0,0,0,1.5.094h2.08V97.791h-1.486a8.134,8.134,0,0,0-1.376.078V96.554a7.594,7.594,0,0,0,1.376.078h1.486V94.677Zm5.1,3.145a8.957,8.957,0,0,1,1.25,1.72l-.984.579a9,9,0,0,0-1.19-1.8Z" transform="translate(28.029 3.889)"/>
      <path id="パス_223632" data-name="パス 223632" d="M670.7,94.34a18.529,18.529,0,0,1,2.753,1.924l-.829,1.189a14.533,14.533,0,0,0-2.737-2.08Zm2.8,5.256a39.906,39.906,0,0,1-1.94,4.255c-.047.094-.125.235-.327.673l-1.267-1.112a5.768,5.768,0,0,0,.938-1.439,23.037,23.037,0,0,0,1.423-3.221Zm-1.955-9.025a15.394,15.394,0,0,1,2.612,2.018l-.892,1.142a14.721,14.721,0,0,0-2.612-2.174Zm4.489,3.6a12.34,12.34,0,0,0-1.6.094v-1.47a10.675,10.675,0,0,0,1.611.095h2v-.846a8.169,8.169,0,0,0-.094-1.611h1.6a9.061,9.061,0,0,0-.094,1.611v.846h2.689a10.572,10.572,0,0,0,1.534-.095v1.47a9.906,9.906,0,0,0-1.517-.094h-2.706v2.55H682.7a10.972,10.972,0,0,0,1.548-.094V98.11a10.952,10.952,0,0,0-1.548-.094h-3.832a31.771,31.771,0,0,1-1.971,4.472,42.346,42.346,0,0,0,4.644-.593,21.478,21.478,0,0,0-1.688-2.378l1.158-.594a32.17,32.17,0,0,1,3.238,4.849l-1.283.765c-.375-.75-.5-.984-.766-1.5-2.159.391-3.191.546-5.631.8-1.768.188-2.237.25-2.737.344l-.3-1.549a3.324,3.324,0,0,0,.516.031c.3,0,.673-.016,1.236-.047a25.171,25.171,0,0,0,2.065-4.6h-1.94a12.5,12.5,0,0,0-1.627.094V96.624a11.621,11.621,0,0,0,1.642.094h2.628v-2.55Z" transform="translate(28.651 3.868)"/>
      <path id="パス_223633" data-name="パス 223633" d="M692.9,90.625a11.985,11.985,0,0,0-.094,1.517,16.832,16.832,0,0,0,.421,3.629,12.877,12.877,0,0,0,2.315,4.38,14.539,14.539,0,0,0,2.159,2.08,10.5,10.5,0,0,0,1.55,1,4.739,4.739,0,0,0-1.048,1.439,15.049,15.049,0,0,1-4.036-3.817,12.831,12.831,0,0,1-2.066-4.567,12.328,12.328,0,0,1-1.156,3.284,10.838,10.838,0,0,1-2.346,3.1,13.143,13.143,0,0,1-2.612,1.985,4.037,4.037,0,0,0-1.064-1.328,10.611,10.611,0,0,0,3.629-2.862,12.6,12.6,0,0,0,2.706-8.525,10.064,10.064,0,0,0-.063-1.314Z" transform="translate(29.294 3.876)"/>
      <path id="パス_223634" data-name="パス 223634" d="M705.506,90.828a5.991,5.991,0,0,0-.249,1.017c-.109.5-.189.829-.361,1.517a12.142,12.142,0,0,0,2.612-.469l.064,1.517a3.564,3.564,0,0,0-.532.078c-.58.109-1.5.219-2.518.3a31.012,31.012,0,0,1-1.721,4.553c-.36.766-.5,1.032-1.111,2.112-.125.219-.235.407-.3.546l-1.5-.86a12.394,12.394,0,0,0,1.517-2.5,24,24,0,0,0,1.517-3.8c-.328.016-.469.016-.923.016-.438,0-.438,0-1.064-.016h-.564v-1.5a11.312,11.312,0,0,0,1.988.125c.454,0,.735,0,.938-.016a14.378,14.378,0,0,0,.516-2.8Zm7.226,12.451a8.859,8.859,0,0,0-2.517-2,2.525,2.525,0,0,1,.016.327,2.812,2.812,0,0,1-.563,1.643,3.352,3.352,0,0,1-2.551.922c-2,0-3.268-.937-3.268-2.424,0-1.533,1.345-2.6,3.253-2.6a7.9,7.9,0,0,1,1.579.172c-.061-.8-.094-1.392-.094-2a7.519,7.519,0,0,1,.126-1.486l1.517.109a4.866,4.866,0,0,0-.2,1.5,19.261,19.261,0,0,0,.157,2.268,10.553,10.553,0,0,1,2.58,1.5c.344.266.344.283.485.391a1.284,1.284,0,0,0,.236.2Zm-5.536-2.8c-1.127,0-1.846.469-1.846,1.19,0,.7.626,1.11,1.7,1.11,1.157,0,1.719-.484,1.719-1.439,0-.172-.03-.578-.03-.594a4.675,4.675,0,0,0-1.549-.266m5.583-4.332a18.321,18.321,0,0,0-4.364-2.174l.782-1.237a22.58,22.58,0,0,1,4.3,2.066Z" transform="translate(29.934 3.877)"/>
      <path id="パス_223635" data-name="パス 223635" d="M718.679,90.9a27.312,27.312,0,0,0,1.095,5c.752-.3,1.237-.469,2.033-.735l2.1-.718a2.77,2.77,0,0,0,.58-.236l.593,1.642a38.448,38.448,0,0,0-4.989,1.533c-2.393.907-3.583,1.955-3.583,3.16,0,.766.485,1.267,1.47,1.518a12.238,12.238,0,0,0,2.472.2,16.89,16.89,0,0,0,4.738-.593l.141,1.8c-.328.016-.375.016-1.22.109a30.634,30.634,0,0,1-3.581.219,8.576,8.576,0,0,1-4.365-.8,2.8,2.8,0,0,1-1.329-2.5,3.563,3.563,0,0,1,1.392-2.707,9.819,9.819,0,0,1,2.095-1.314,34.723,34.723,0,0,1-1.094-4.3,4.8,4.8,0,0,0-.251-1Zm4.552.265a8.857,8.857,0,0,1,1.392,2.113l-1.032.532a9.319,9.319,0,0,0-1.376-2.16Zm1.627-.718a9.245,9.245,0,0,1,1.392,2.018l-1,.531a10.861,10.861,0,0,0-1.361-2.08Z" transform="translate(30.573 3.868)"/>
      <path id="パス_223636" data-name="パス 223636" d="M555.347,104.28v-2.713c1.4-1.46,6.5-6.05,6.5-9.018a2.226,2.226,0,0,0-2.454-2.179,6.228,6.228,0,0,0-3.465,1.3l-.238-2.689a9.433,9.433,0,0,1,4.457-1.159c2.864,0,4.714,1.553,4.714,4.729,0,3.432-3.208,6.584-5.662,9.182h6.136v2.55Z" transform="translate(23.752 3.756)"/>
      <path id="パス_223637" data-name="パス 223637" d="M567.081,101.266a8.5,8.5,0,0,0,3.337.742c1.248,0,3.165-.65,3.165-2.3,0-1.9-1.4-2.528-3.315-2.528H568.8v-2.55h1.379c2.023,0,3.337-.718,3.337-2.132,0-1.624-1.228-2.134-2.584-2.134a7.2,7.2,0,0,0-3.38.858l-.173-2.6a10.856,10.856,0,0,1,4.2-.812c1.852,0,4.951.7,4.951,4.15a3.914,3.914,0,0,1-2.8,3.872v.047c1.916.277,2.864,1.878,2.864,3.848,0,3.849-3.251,4.822-5.749,4.822a14.3,14.3,0,0,1-3.94-.533Z" transform="translate(24.247 3.756)"/>
      <rect id="長方形_17223" data-name="長方形 17223" width="3.014" height="3.245" transform="translate(603.644 104.791)"/>
      <path id="パス_223638" data-name="パス 223638" d="M585.25,101.358a5.973,5.973,0,0,0,2.626.65c2.6,0,3.488-2.6,3.574-5.008l-.043-.046a3.158,3.158,0,0,1-2.906,1.623c-2.843,0-4.392-1.947-4.392-4.938,0-3.5,1.593-5.819,4.995-5.819,4.176,0,5.1,3.732,5.1,7.534,0,4.382-1.313,9.2-6.178,9.2a8.714,8.714,0,0,1-3.165-.579Zm5.941-8.252c0-1.531-.6-2.875-2.088-2.875-1.4,0-1.98,1.461-1.98,2.9,0,1.578.6,3.039,2.045,3.039,1.464,0,2.023-1.438,2.023-3.061" transform="translate(24.982 3.756)"/>
      <path id="パス_223639" data-name="パス 223639" d="M596.868,92.1c0-2.689,1.313-4.266,3.617-4.266s3.574,1.577,3.574,4.266-1.27,4.266-3.574,4.266-3.617-1.577-3.617-4.266m4.951,0c0-1-.193-2.412-1.334-2.412s-1.377,1.415-1.377,2.412.236,2.411,1.377,2.411,1.334-1.414,1.334-2.411m7.341-4.5h1.766l-9.3,17.2h-1.765Zm-2.5,12.705c0-2.689,1.313-4.266,3.617-4.266s3.573,1.577,3.573,4.266-1.269,4.266-3.573,4.266-3.617-1.577-3.617-4.266m4.951,0c0-1-.194-2.412-1.334-2.412S608.9,99.305,608.9,100.3s.237,2.412,1.379,2.412,1.334-1.415,1.334-2.412" transform="translate(25.528 3.747)"/>
      <path id="パス_223640" data-name="パス 223640" d="M394.938,448.616a9.656,9.656,0,0,0,3.557.734c1.331,0,3.373-.642,3.373-2.272,0-1.88-1.492-2.5-3.534-2.5h-1.56v-2.523h1.468c2.156,0,3.556-.711,3.556-2.111,0-1.606-1.308-2.112-2.754-2.112a8.14,8.14,0,0,0-3.6.85l-.182-2.57a12.337,12.337,0,0,1,4.473-.8c1.973,0,5.276.688,5.276,4.107,0,2.179-1.354,3.212-2.982,3.832v.046a3.5,3.5,0,0,1,3.052,3.808c0,3.808-3.465,4.772-6.126,4.772a16.321,16.321,0,0,1-4.2-.528Z" transform="translate(16.884 18.618)"/>
      <path id="パス_223641" data-name="パス 223641" d="M408.181,448.708a6.762,6.762,0,0,0,2.8.642c2.777,0,3.717-2.57,3.81-4.956l-.047-.046a3.427,3.427,0,0,1-3.1,1.606c-3.028,0-4.681-1.926-4.681-4.886,0-3.464,1.7-5.759,5.323-5.759,4.452,0,5.438,3.693,5.438,7.457,0,4.337-1.4,9.109-6.585,9.109a9.93,9.93,0,0,1-3.373-.573Zm6.332-8.168c0-1.514-.642-2.846-2.225-2.846-1.491,0-2.111,1.446-2.111,2.868,0,1.562.642,3.006,2.179,3.006,1.56,0,2.156-1.422,2.156-3.028" transform="translate(17.406 18.618)"/>
      <rect id="長方形_17224" data-name="長方形 17224" width="3.212" height="3.212" transform="translate(437.698 467.004)"/>
      <path id="パス_223642" data-name="パス 223642" d="M425.444,435.572h10.324v2.662l-5.69,13.353h-3.487l5.943-13.49h-7.09Z" transform="translate(18.196 18.629)"/>
      <path id="パス_223643" data-name="パス 223643" d="M438.907,439.54c0-2.662,1.4-4.222,3.855-4.222s3.808,1.56,3.808,4.222-1.354,4.221-3.808,4.221-3.855-1.56-3.855-4.221m5.276,0c0-.986-.205-2.387-1.421-2.387s-1.468,1.4-1.468,2.387.251,2.386,1.468,2.386,1.421-1.4,1.421-2.386m7.825-4.453h1.881l-9.912,17.026H442.1Zm-2.662,12.575c0-2.662,1.4-4.222,3.855-4.222s3.808,1.56,3.808,4.222-1.354,4.221-3.808,4.221-3.855-1.56-3.855-4.221m5.277,0c0-.986-.206-2.387-1.422-2.387s-1.468,1.4-1.468,2.387.252,2.386,1.468,2.386,1.422-1.4,1.422-2.386" transform="translate(18.772 18.609)"/>
      <rect id="長方形_17225" data-name="長方形 17225" width="17.727" height="17.727" transform="translate(10.949 159.039)" fill="#008ccf"/>
      <path id="パス_223644" data-name="パス 223644" d="M130.356,160.068a10.482,10.482,0,0,0-1.5.078v-.938a15.511,15.511,0,0,1-2.817,1.486,4.831,4.831,0,0,0-.812-1.33,12.494,12.494,0,0,0,6.476-4.738h1.641a9.778,9.778,0,0,0,2.565,2.58,13.5,13.5,0,0,0,4.115,2.113,5.843,5.843,0,0,0-.751,1.422,17.44,17.44,0,0,1-3.1-1.611v1.017a9.873,9.873,0,0,0-1.486-.078H133.2v1.752h4.1a10.454,10.454,0,0,0,1.642-.094v1.47a11.47,11.47,0,0,0-1.642-.094h-4.1v3.77h4.364a14.364,14.364,0,0,0,1.8-.094v1.533a13.018,13.018,0,0,0-1.815-.109h-9.869a14.583,14.583,0,0,0-1.877.109v-1.533a15.646,15.646,0,0,0,1.861.094h4.082V163.1h-3.863a11.921,11.921,0,0,0-1.611.094v-1.47a10.925,10.925,0,0,0,1.627.094h3.848v-1.752Zm-1.392,3.332a16.486,16.486,0,0,1,1.3,2.69l-1.3.516a11.192,11.192,0,0,0-1.283-2.675Zm5.74-4.552a9.28,9.28,0,0,0,1-.031,12.619,12.619,0,0,1-3.175-2.956,12.127,12.127,0,0,1-3.113,2.973c.344.015.531.015.907.015Zm2.689,5.1c-.108.235-.2.407-.266.516a16.938,16.938,0,0,1-1.25,2.221l-1.221-.469a11.675,11.675,0,0,0,1.362-2.8Z" transform="translate(5.356 6.613)"/>
      <path id="パス_223645" data-name="パス 223645" d="M148.164,156.287a14.974,14.974,0,0,0-1.611-.062h-4.161a15.345,15.345,0,0,0-1.611.062v-1.345a11.044,11.044,0,0,0,1.689.094h4.02a9.315,9.315,0,0,0,1.674-.094Zm-5.459,8.2a3.027,3.027,0,0,0-.516-.563v3.128a13.217,13.217,0,0,0,.063,1.6h-1.376a14.834,14.834,0,0,0,.078-1.894v-4.5c0-.579-.015-1.048-.047-1.5a10.719,10.719,0,0,0,1.361.063h4.442a8.153,8.153,0,0,0,1.3-.063c-.031.454-.047.813-.047,1.392v5.1c0,1.048-.328,1.314-1.642,1.314-.141,0-.249,0-.8-.031a4.278,4.278,0,0,0-.266-1.345,5.172,5.172,0,0,0,1.017.109c.408,0,.5-.063.5-.344v-2.894c-.282.016-.407.016-.7.016-1.065,0-1.345-.156-1.345-.782V161.9h-.549a2.779,2.779,0,0,1-1.3,2.6,4.735,4.735,0,0,0,.688.031h1.8a7.056,7.056,0,0,0,.907-.047v1.064a7.228,7.228,0,0,0-.907-.047h-.407v1.564a7.346,7.346,0,0,0,.063,1.064H143.8a7.4,7.4,0,0,0,.063-1.048V165.5H143.6a6.791,6.791,0,0,0-.892.047Zm4.739-5.459a8.951,8.951,0,0,0,.047,1.095,8.606,8.606,0,0,0-1.031-.047h-3.8a11.611,11.611,0,0,0-1.189.047,9.843,9.843,0,0,0,.047-1.079v-1.048a9.842,9.842,0,0,0-.047-1.079,10.6,10.6,0,0,0,1.189.047h3.63a10.731,10.731,0,0,0,1.2-.047,9.021,9.021,0,0,0-.047,1.079Zm-5.256,4.739a1.845,1.845,0,0,0,.971-1.861h-.971Zm4.02-5.772h-3.425v1.048h3.425Zm-.5,4.88c0,.235.094.282.594.282a2.889,2.889,0,0,0,.469-.031V161.9h-1.064Zm5.068-6.726a11.754,11.754,0,0,0-.094-1.61h1.455a11.572,11.572,0,0,0-.094,1.61v1.08h.86a12.6,12.6,0,0,0,1.439-.064,14.221,14.221,0,0,0-.063,1.549v3.222a14.343,14.343,0,0,0,.063,1.627,11.908,11.908,0,0,0-1.455-.063h-.845v2.894c.407-.094.626-.141,1.156-.282a15.247,15.247,0,0,0-.593-1.517l1.126-.438a31.257,31.257,0,0,1,1.408,4.082l-1.236.547c-.156-.735-.2-.938-.36-1.517-.955.282-2.519.656-3.832.922-.8.172-.829.172-1.2.283l-.375-1.55a14.5,14.5,0,0,0,2.643-.3V163.5h-.8c-.72,0-1.048.016-1.408.047.031-.438.047-.766.047-1.5v-3.332c0-.766-.016-1.111-.047-1.549a13.157,13.157,0,0,0,1.533.064h.673Zm-1,6.1h1v-3.77h-1Zm3.332-3.77h-1.064v3.77h1.064Z" transform="translate(6.021 6.609)"/>
      <path id="パス_223646" data-name="パス 223646" d="M157.08,156.058A10.7,10.7,0,0,0,157,154.43h1.439a13.207,13.207,0,0,0-.063,1.611v1.409h.344a4.735,4.735,0,0,0,.954-.064v1.378a6.3,6.3,0,0,0-.938-.064h-.249a6.051,6.051,0,0,0,1.078,1.658c-.109.25-.3.673-.516,1.268a6.751,6.751,0,0,1-.734-1.47c.03.578.062,1.517.062,2.08v4.754a13.435,13.435,0,0,0,.078,1.877H157a14.167,14.167,0,0,0,.095-1.877v-3.379c0-.7.03-1.283.108-2.6a13.163,13.163,0,0,1-1.5,3.909,3.985,3.985,0,0,0-.674-1.392,11.035,11.035,0,0,0,1.3-2.722,14.581,14.581,0,0,0,.6-2.112h-.438a9.478,9.478,0,0,0-1.065.064v-1.378a5.854,5.854,0,0,0,1.065.064h.593Zm5.021,7.335c-.031.391-.031.407-.063.626a5.717,5.717,0,0,0,1.846,1.455,11.161,11.161,0,0,0-.641,1.064,6.1,6.1,0,0,1-1.47-1.267,6.849,6.849,0,0,1-2.018,3.379,4.072,4.072,0,0,0-1.047-.954,5.33,5.33,0,0,0,2.126-4.3,10.208,10.208,0,0,0-1.344.064v-1.315a7.51,7.51,0,0,0,1.328.078h3.363c-.063-.454-.094-.673-.141-1.032l-.876.344c-.047-.282-.063-.375-.111-.593-.421.078-1.392.234-2.908.453a2.225,2.225,0,0,0-.375.064l-.188-1.173a1.547,1.547,0,0,0,.235.015h.172c.516-.61.72-.876,1.095-1.392a10.315,10.315,0,0,0-1.8-1.908l.766-.891.375.374a8.229,8.229,0,0,0,1.079-2.017l1.095.531a13.242,13.242,0,0,1-1.408,2.285c.235.266.328.374.547.657a11.373,11.373,0,0,0,.86-1.581l1.016.7A21.782,21.782,0,0,1,161.3,160.2c.61-.063,1.048-.125,1.486-.188a7.452,7.452,0,0,0-.36-.8l.829-.281a9.422,9.422,0,0,1,.75,1.908,51.341,51.341,0,0,1-.249-5.319,7.077,7.077,0,0,0-.078-1.017h1.455a6.521,6.521,0,0,0-.094,1.533v.735l.594-.8c.2.187.2.2.407.374a8.506,8.506,0,0,0,1.032-1.846l1.079.61a14.5,14.5,0,0,1-1.376,2c.28.313.344.391.563.657a14.1,14.1,0,0,0,1.063-1.658l.971.721c-.219.3-.219.3-1.126,1.5-.36.454-.751.923-1.3,1.517.672-.047.954-.063,1.407-.125a5.566,5.566,0,0,0-.344-.735l.829-.3a11.253,11.253,0,0,1,1.018,2.44l-.94.314c-.108-.408-.14-.548-.234-.814-.25.047-.751.109-1.517.2a5.47,5.47,0,0,1,1.063.8l-.61.579h.423a8.049,8.049,0,0,0,1.642-.094v1.361a12.43,12.43,0,0,0-1.642-.094h-2.409a7.311,7.311,0,0,0,.626,1.736,5.45,5.45,0,0,0,1.313-1.6l1.033.688a14.428,14.428,0,0,1-1.752,1.893c.546.766,1.032,1.189,1.361,1.189.172,0,.25-.109.359-.454a2.742,2.742,0,0,0,.142-.72c.063-.485.094-.766.094-.829a3.713,3.713,0,0,0,1.063.751c-.327,2.033-.688,2.643-1.564,2.643-.765,0-1.547-.579-2.423-1.8a11.911,11.911,0,0,1-3.614,1.846,3.428,3.428,0,0,0-.781-1.157,10.523,10.523,0,0,0,3.785-1.674,8.92,8.92,0,0,1-.86-2.518Zm5.318-1.173a4.906,4.906,0,0,0-1.018-.829l.61-.532a2.344,2.344,0,0,1-.391.047c-.359.047-.359.047-.657.078-.187.032-.187.032-.374.063l-.2-1.156a1.716,1.716,0,0,0,.281.015c.314-.344.533-.61.986-1.2a9.27,9.27,0,0,0-1.611-1.72,36.232,36.232,0,0,0,.375,5.239Z" transform="translate(6.631 6.605)"/>
      <path id="パス_223647" data-name="パス 223647" d="M172.492,166.849a12.457,12.457,0,0,0,.093,1.845h-1.564a12.964,12.964,0,0,0,.094-1.86V156.557a17.405,17.405,0,0,0-.062-1.752,13.916,13.916,0,0,0,1.626.064h2.628a13.5,13.5,0,0,0,1.6-.064c-.031.422-.047.86-.047,1.47v2c0,.688.016,1.064.047,1.423-.438-.031-.876-.047-1.5-.047h-2.908Zm0-10.073h3.08v-.891h-3.08Zm0,1.861h3.08v-.907h-3.08Zm5.786,6.022a5.3,5.3,0,0,0,3.081,1.783,5.637,5.637,0,0,0-.391.734,7.334,7.334,0,0,0,1.2.111c.438,0,.532-.078.532-.422v-7.211h-3.144c-.594,0-1.079.016-1.5.047.031-.375.047-.782.047-1.423v-2c0-.547-.016-.985-.047-1.47a13.329,13.329,0,0,0,1.6.064h2.862a14.422,14.422,0,0,0,1.642-.064,14.751,14.751,0,0,0-.078,1.736v10.464c0,1.267-.33,1.549-1.83,1.549-.282,0-.72-.016-1.048-.032a3.321,3.321,0,0,0-.266-1.282c-.063.188-.094.25-.156.453a6.842,6.842,0,0,1-3.285-2.314,4.3,4.3,0,0,1-1.157,1.486,6.555,6.555,0,0,1-2.487,1.3,3.558,3.558,0,0,0-.75-1.126,6.616,6.616,0,0,0,2.126-.861,3.2,3.2,0,0,0,1.267-1.516h-1.721a8.98,8.98,0,0,0-1.376.077V163.5a7.241,7.241,0,0,0,1.3.078h2.049a9.154,9.154,0,0,0,.063-1.126h-1.877a8.262,8.262,0,0,0-1.219.063v-1.157a8.064,8.064,0,0,0,1.188.063h.641a9.272,9.272,0,0,0-.828-1.173l1.173-.36a12.209,12.209,0,0,1,.969,1.533h1.408a8.556,8.556,0,0,0,.8-1.533l1.251.282a10.593,10.593,0,0,1-.751,1.251h.688a8.325,8.325,0,0,0,1.2-.063v1.157a8.052,8.052,0,0,0-1.2-.063h-2.174c-.031.626-.031.673-.078,1.126h2.44a7.328,7.328,0,0,0,1.314-.078v1.235a7.884,7.884,0,0,0-1.33-.077Zm1.111-7.883h3.316v-.891h-3.316Zm0,1.861h3.316v-.907h-3.316Z" transform="translate(7.315 6.621)"/>
      <path id="パス_223648" data-name="パス 223648" d="M36.166,168.273v-2.684c1.491-1.446,6.929-5.989,6.929-8.926,0-1.468-1.308-2.156-2.615-2.156a6.955,6.955,0,0,0-3.695,1.285l-.252-2.661a10.645,10.645,0,0,1,4.749-1.147c3.052,0,5.026,1.537,5.026,4.68,0,3.4-3.42,6.516-6.036,9.087h6.539v2.524Z" transform="translate(1.547 6.5)"/>
      <path id="パス_223649" data-name="パス 223649" d="M48.6,152.246H58.921v2.662l-5.69,13.353H49.744l5.943-13.49H48.6Z" transform="translate(2.078 6.512)"/>
      <rect id="長方形_17226" data-name="長方形 17226" width="3.212" height="3.212" transform="translate(63.865 171.562)"/>
      <path id="パス_223650" data-name="パス 223650" d="M69.551,159.922a4.081,4.081,0,0,1-2.662-3.716c0-2.869,2.179-4.222,5.094-4.222,2.822,0,5.368,1.17,5.368,3.854a4.218,4.218,0,0,1-2.661,3.832v.022c2.111.988,3.075,2.364,3.075,4.2,0,3.234-2.341,4.656-5.508,4.656-3.12,0-5.643-1.352-5.643-4.61,0-1.79,1.009-3.03,2.937-3.97Zm2.706,6.24a2.115,2.115,0,0,0,2.294-2.134c0-1.583-1.352-2.34-2.684-2.777-1.146.552-2.042,1.286-2.042,2.64a2.343,2.343,0,0,0,2.432,2.27m.23-7.457a2.772,2.772,0,0,0,1.789-2.317,1.879,1.879,0,0,0-1.974-2.019,2.09,2.09,0,0,0-2.34,1.927c0,1.377,1.422,2,2.525,2.409" transform="translate(2.849 6.5)"/>
      <path id="パス_223651" data-name="パス 223651" d="M80.407,156.215c0-2.662,1.4-4.222,3.855-4.222s3.808,1.56,3.808,4.222-1.354,4.221-3.808,4.221-3.855-1.56-3.855-4.221m5.277,0c0-.986-.205-2.387-1.422-2.387s-1.468,1.4-1.468,2.387.252,2.386,1.468,2.386,1.422-1.4,1.422-2.386m7.824-4.453H95.39l-9.91,17.026H83.6Zm-2.662,12.575c0-2.662,1.4-4.222,3.855-4.222s3.808,1.56,3.808,4.222-1.354,4.221-3.808,4.221-3.855-1.56-3.855-4.221m5.277,0c0-.986-.206-2.387-1.422-2.387s-1.468,1.4-1.468,2.387.252,2.386,1.468,2.386,1.422-1.4,1.422-2.386" transform="translate(3.439 6.491)"/>
      <rect id="長方形_17227" data-name="長方形 17227" width="17.727" height="17.727" transform="translate(28.676 344.652)" fill="#0063b2"/>
      <path id="パス_223652" data-name="パス 223652" d="M132.226,334.392a7.756,7.756,0,0,0,.766-2.111l1.627.187a18.106,18.106,0,0,1-.83,1.924h3.691a15.919,15.919,0,0,0,1.908-.078,15.178,15.178,0,0,0-.078,1.925v8.586a10.488,10.488,0,0,0,.094,1.814h-1.516v-.845h-7.93v.845h-1.5a12.829,12.829,0,0,0,.094-1.814v-8.586a15.579,15.579,0,0,0-.078-1.925,15.478,15.478,0,0,0,1.893.078Zm-2.268,3.316H137.9v-2h-7.946Zm0,3.316H137.9V338.99h-7.946Zm0,3.457H137.9v-2.174h-7.946Z" transform="translate(5.494 14.212)"/>
      <path id="パス_223653" data-name="パス 223653" d="M151.7,333.169c.626,0,1.126-.031,1.689-.078a15.751,15.751,0,0,0-.063,1.6V338.8a13.236,13.236,0,0,0,.063,1.471H151.81v-1.033h-8.054v4.631c0,.546.095.7.533.829a20.808,20.808,0,0,0,4.1.2,26.561,26.561,0,0,0,3.676-.2c.657-.142.876-.33,1.032-.954a9.091,9.091,0,0,0,.219-1.847,4.829,4.829,0,0,0,1.47.5,7.261,7.261,0,0,1-.563,2.674c-.391.72-.923.971-2.362,1.095-.813.078-2,.125-3.066.125-3.6,0-4.567-.047-5.239-.235a1.5,1.5,0,0,1-1.314-1.751v-4.99a14.427,14.427,0,0,0-.064-1.533,15.459,15.459,0,0,0,1.7.078h7.929v-3.317h-7.9a16.307,16.307,0,0,0-1.97.095v-1.564a15.879,15.879,0,0,0,1.955.094Z" transform="translate(6.071 14.246)"/>
      <path id="パス_223654" data-name="パス 223654" d="M162.278,336.419a9.935,9.935,0,0,1-.923,1.814,4.887,4.887,0,0,0-1.079-.845,9.341,9.341,0,0,0,1.47-3.441,4.908,4.908,0,0,0,.125-.876l1.345.344a9.082,9.082,0,0,0-.266.954c-.094.328-.141.485-.219.766h1.5v-1.251a8.678,8.678,0,0,0-.094-1.439h1.533a8.421,8.421,0,0,0-.094,1.439v1.251H167.6a10.29,10.29,0,0,0,1.611-.094V336.5a14.311,14.311,0,0,0-1.611-.078h-2.018v2.205h2.5a11.828,11.828,0,0,0,1.628-.095v1.486c-.516-.047-1-.077-1.628-.077h-2.048a11.232,11.232,0,0,0,4.082,4.145,5.592,5.592,0,0,0-.923,1.328,12.621,12.621,0,0,1-3.677-4.253c.032.579.064,1.126.064,1.611v2.315a10.869,10.869,0,0,0,.094,1.751H164.14a13.8,13.8,0,0,0,.094-1.766v-2.221c0-.455.016-1.018.047-1.659a11.494,11.494,0,0,1-3.848,4.287,5.92,5.92,0,0,0-.86-1.22,10.627,10.627,0,0,0,4.145-4.317h-1.331a11.921,11.921,0,0,0-1.641.094v-.548a4.812,4.812,0,0,0-.657,1.19,9.213,9.213,0,0,1-1.047-2.252c0,.235.015.407.015.532.016.2.031.8.063,1.783v4.191a11.865,11.865,0,0,0,.095,1.877H157.7a14.687,14.687,0,0,0,.094-1.877v-3.815c0-.782.016-1.19.094-2.252a12.879,12.879,0,0,1-1.814,4.176,5.063,5.063,0,0,0-.673-1.408,13.636,13.636,0,0,0,2.237-4.958H156.9a6.1,6.1,0,0,0-1.064.063v-1.378a6.068,6.068,0,0,0,1.064.064h.876v-1.376a9.834,9.834,0,0,0-.078-1.611h1.5a10.463,10.463,0,0,0-.078,1.6v1.392h.486a4.994,4.994,0,0,0,.922-.064v1.362a7.878,7.878,0,0,0-.892-.047h-.469a9.6,9.6,0,0,0,1.58,2.784v-.924a11.746,11.746,0,0,0,1.641.095h1.847v-2.205Z" transform="translate(6.646 14.218)"/>
      <path id="パス_223655" data-name="パス 223655" d="M183.108,335.268a8.945,8.945,0,0,0,1.517-.094v1.486a12.943,12.943,0,0,0-1.736-.094h-2.5a18.54,18.54,0,0,0,1.11,6.116,5.476,5.476,0,0,0,1.08,1.83,1.058,1.058,0,0,0,.422.281c.25,0,.469-.8.688-2.455a3.77,3.77,0,0,0,1.267.766c-.391,2.346-.97,3.394-1.894,3.394a2.987,2.987,0,0,1-2-1.486c-1.22-1.721-1.924-4.552-2.1-8.446h-6.381a15.081,15.081,0,0,0-1.736.094v-1.486a13.106,13.106,0,0,0,1.736.094h6.334c-.047-1.58-.063-1.721-.063-1.814,0-.141-.031-.422-.078-.813h1.611c-.031.189-.078.985-.078,1.22,0,.219.015.985.031,1.408Zm-10.166,4.691a13.628,13.628,0,0,0-1.5.079v-1.408a12.438,12.438,0,0,0,1.534.078h3.894a9.6,9.6,0,0,0,1.5-.078v1.408a13.31,13.31,0,0,0-1.486-.079H175.6v3.818c.767-.125,1.283-.251,3.316-.766v1.329c-2.456.625-4.473,1.048-7.258,1.532a4,4,0,0,0-.485.094l-.266-1.516a19.3,19.3,0,0,0,3.253-.407v-4.083Zm9.62-4.8a9.229,9.229,0,0,0-1.7-1.83l1.064-.641a13.246,13.246,0,0,1,1.736,1.767Z" transform="translate(7.307 14.227)"/>
      <path id="パス_223656" data-name="パス 223656" d="M53.034,338.312c0-4.016,1.216-8.329,5.552-8.329,4.681,0,5.6,4.612,5.6,8.329s-.965,8.236-5.6,8.236c-4.933,0-5.552-4.886-5.552-8.236m7.938,0c0-2.065,0-5.943-2.386-5.943-2.34,0-2.34,3.878-2.34,5.943,0,2.019-.024,5.85,2.34,5.85,2.409,0,2.386-3.831,2.386-5.85" transform="translate(2.268 14.113)"/>
      <rect id="長方形_17228" data-name="長方形 17228" width="3.212" height="3.212" transform="translate(68.838 357.175)"/>
      <path id="パス_223657" data-name="パス 223657" d="M81.786,332.633H75.614l-.068,3.419a7.47,7.47,0,0,1,1.468-.161c2.248,0,5.162,1.055,5.162,5.208,0,3.006-2.111,5.438-6.24,5.438a17.38,17.38,0,0,1-3.74-.458l.069-2.869a8.256,8.256,0,0,0,3.282.8c1.675,0,3.418-.78,3.418-2.822,0-2.065-1.836-2.777-3.672-2.777a9.351,9.351,0,0,0-2.868.436l.161-8.6h9.2Z" transform="translate(3.088 14.125)"/>
      <path id="パス_223658" data-name="パス 223658" d="M85.176,334.215c0-2.662,1.4-4.222,3.855-4.222s3.808,1.56,3.808,4.222-1.354,4.221-3.808,4.221-3.855-1.56-3.855-4.221m5.276,0c0-.986-.205-2.387-1.421-2.387s-1.468,1.4-1.468,2.387.251,2.386,1.468,2.386,1.421-1.4,1.421-2.386m7.825-4.453h1.881l-9.912,17.026H88.365Zm-2.662,12.575c0-2.662,1.4-4.222,3.855-4.222s3.808,1.56,3.808,4.222-1.354,4.221-3.808,4.221-3.855-1.56-3.855-4.221m5.277,0c0-.986-.206-2.387-1.422-2.387S98,341.35,98,342.337s.252,2.386,1.468,2.386,1.422-1.4,1.422-2.386" transform="translate(3.643 14.104)"/>
      <rect id="長方形_17229" data-name="長方形 17229" width="17.727" height="17.727" transform="translate(114.299 26.301)" fill="#77aede"/>
      <path id="パス_223659" data-name="パス 223659" d="M216.516,28.274a10.111,10.111,0,0,0,1.486.078c1.547,0,3.722-.094,4.895-.219a3.746,3.746,0,0,0,1.032-.2l.861,1.095a7.437,7.437,0,0,0-.846.718,38.1,38.1,0,0,1-4.6,3.644c.751-.094,1.813-.2,3.753-.375,1.017-.077,1.83-.141,2.346-.188.61-.062,1.064-.094,1.236-.109a4.412,4.412,0,0,0,.5-.077l.109,1.532c-.155-.015-.282-.015-.36-.015a10.892,10.892,0,0,0-4.4.829,5.167,5.167,0,0,0-1.814,1.36,1.776,1.776,0,0,0-.453,1.173c0,1.126,1.22,1.752,3.393,1.752a5.6,5.6,0,0,0,1.314-.125l.064,1.674c-.236-.016-.361-.031-.469-.031l-.923.016a7.248,7.248,0,0,1-3.8-.907,2.582,2.582,0,0,1-1.156-2.159,3.154,3.154,0,0,1,1.282-2.44,6.583,6.583,0,0,1,1.533-.97c-.859.156-1.22.2-3.128.439a37.771,37.771,0,0,0-4.191.625l-.156-1.6h.313a22.53,22.53,0,0,0,2.674-.3,32.887,32.887,0,0,0,5.163-4.128,34.184,34.184,0,0,1-4.584.374,8.07,8.07,0,0,0-.984.078Z" transform="translate(9.154 1.195)"/>
      <path id="パス_223660" data-name="パス 223660" d="M234.313,36.3c-.906,2.065-1.86,2.972-3.08,2.972-1.658,0-2.878-1.736-2.878-4.114a6.589,6.589,0,0,1,1.688-4.458,6.844,6.844,0,0,1,5.256-2.142c3.644,0,6.038,2.236,6.038,5.615a5.9,5.9,0,0,1-3.723,5.677,11.61,11.61,0,0,1-2.409.673,4.088,4.088,0,0,0-.8-1.533,10.549,10.549,0,0,0,2.6-.641,4.546,4.546,0,0,0,2.722-4.255,3.965,3.965,0,0,0-2.143-3.659A3.663,3.663,0,0,0,235.909,30a23.058,23.058,0,0,1-1.6,6.3m-2.143-5.537a5.325,5.325,0,0,0-2.3,4.411c0,1.361.594,2.44,1.345,2.44.563,0,1.143-.688,1.753-2.112a21.551,21.551,0,0,0,1.344-5.49,4.357,4.357,0,0,0-2.143.751" transform="translate(9.767 1.222)"/>
      <path id="パス_223661" data-name="パス 223661" d="M244.134,34.822c0-.485,0-.674.047-1.783a12.332,12.332,0,0,1-1.456,2.033,6.738,6.738,0,0,0-.75-1.456,13.261,13.261,0,0,0,2.877-4.457A8.594,8.594,0,0,0,245.479,27l1.5.454c-.126.328-.156.454-.313.892A17.548,17.548,0,0,1,245.526,31v8.6c0,.72.03,1.3.077,1.877H244.04a15.756,15.756,0,0,0,.094-1.908Zm4.911-1.456v5.616c0,.343.094.453.485.532a10.233,10.233,0,0,0,2.127.125,7.155,7.155,0,0,0,2.908-.283c.328-.219.469-.688.563-2.08a5.1,5.1,0,0,0,1.423.455c-.219,1.72-.438,2.361-.891,2.69-.563.406-1.628.531-4.4.531a12.011,12.011,0,0,1-2.535-.188c-.8-.2-1.063-.532-1.063-1.314V33.835a2.473,2.473,0,0,1-.407.125,8.557,8.557,0,0,0-.971.376l-.155-1.486a8.354,8.354,0,0,0,1.439-.344l.094-.031V30.5a11.77,11.77,0,0,0-.094-1.642h1.564a10.381,10.381,0,0,0-.094,1.579v1.581l1.892-.627V28.737a11.3,11.3,0,0,0-.093-1.518h1.547a10.278,10.278,0,0,0-.094,1.5v2.236l2.346-.782a9.349,9.349,0,0,0,1.267-.484,7.322,7.322,0,0,0-.03.782c-.032,1.751-.157,4.019-.283,5.02-.155,1.157-.5,1.456-1.642,1.456-.266,0-.579-.017-.937-.047a4.332,4.332,0,0,0-.36-1.345,5.976,5.976,0,0,0,1.173.14c.39,0,.453-.14.562-1.235.078-.721.125-1.783.142-2.942l-2.238.751v4.223a9.169,9.169,0,0,0,.094,1.534h-1.547a11.012,11.012,0,0,0,.093-1.581V32.726Z" transform="translate(10.349 1.155)"/>
      <path id="パス_223662" data-name="パス 223662" d="M263.593,36.3c-.906,2.065-1.86,2.972-3.08,2.972-1.658,0-2.878-1.736-2.878-4.114a6.589,6.589,0,0,1,1.688-4.458,6.845,6.845,0,0,1,5.256-2.142c3.644,0,6.038,2.236,6.038,5.615a5.9,5.9,0,0,1-3.723,5.677,11.611,11.611,0,0,1-2.409.673,4.089,4.089,0,0,0-.8-1.533,10.549,10.549,0,0,0,2.6-.641,4.546,4.546,0,0,0,2.722-4.255,3.965,3.965,0,0,0-2.143-3.659A3.663,3.663,0,0,0,265.189,30a23.058,23.058,0,0,1-1.6,6.3m-2.143-5.537a5.325,5.325,0,0,0-2.3,4.411c0,1.361.594,2.44,1.345,2.44.563,0,1.143-.688,1.753-2.112a21.553,21.553,0,0,0,1.344-5.49,4.357,4.357,0,0,0-2.143.751" transform="translate(11.019 1.222)"/>
      <path id="パス_223663" data-name="パス 223663" d="M272.428,31.045a18.542,18.542,0,0,1,2.753,1.925l-.829,1.188a14.577,14.577,0,0,0-2.737-2.08Zm2.8,5.256a39.9,39.9,0,0,1-1.94,4.255c-.047.094-.125.235-.327.673l-1.267-1.111a5.81,5.81,0,0,0,.937-1.439,23.135,23.135,0,0,0,1.423-3.221Zm-1.955-9.024a15.333,15.333,0,0,1,2.612,2.017l-.892,1.142a14.769,14.769,0,0,0-2.612-2.174Zm4.489,3.6a12.147,12.147,0,0,0-1.6.095V29.5a10.841,10.841,0,0,0,1.611.094h2v-.846a8.17,8.17,0,0,0-.094-1.611h1.6a9.071,9.071,0,0,0-.094,1.611v.846h2.689a10.741,10.741,0,0,0,1.534-.094v1.47a9.757,9.757,0,0,0-1.517-.095h-2.706v2.55h3.238a10.974,10.974,0,0,0,1.549-.094v1.486a10.952,10.952,0,0,0-1.549-.094h-3.832a31.789,31.789,0,0,1-1.971,4.473,42.535,42.535,0,0,0,4.645-.594,21.472,21.472,0,0,0-1.688-2.378l1.157-.593a32.16,32.16,0,0,1,3.238,4.848l-1.283.766c-.375-.751-.5-.985-.766-1.5-2.159.391-3.191.547-5.631.8-1.767.188-2.237.25-2.737.344l-.3-1.549a3.324,3.324,0,0,0,.516.031c.3,0,.673-.016,1.236-.047a25.137,25.137,0,0,0,2.065-4.6h-1.94a12.5,12.5,0,0,0-1.627.094V33.329a11.621,11.621,0,0,0,1.642.094h2.628v-2.55Z" transform="translate(11.617 1.161)"/>
      <path id="パス_223664" data-name="パス 223664" d="M294.622,27.331a11.983,11.983,0,0,0-.094,1.517,16.824,16.824,0,0,0,.421,3.629,12.875,12.875,0,0,0,2.315,4.38,14.539,14.539,0,0,0,2.159,2.08,10.333,10.333,0,0,0,1.55,1,4.739,4.739,0,0,0-1.048,1.439,15.049,15.049,0,0,1-4.035-3.817,12.831,12.831,0,0,1-2.066-4.567,12.348,12.348,0,0,1-1.156,3.285,10.834,10.834,0,0,1-2.346,3.1,13.106,13.106,0,0,1-2.612,1.985,4.047,4.047,0,0,0-1.064-1.328,10.6,10.6,0,0,0,3.629-2.862,12.6,12.6,0,0,0,2.706-8.525,10.08,10.08,0,0,0-.063-1.314Z" transform="translate(12.26 1.169)"/>
      <path id="パス_223665" data-name="パス 223665" d="M147.549,27.338h-6.172l-.068,3.419a7.469,7.469,0,0,1,1.468-.161c2.248,0,5.162,1.055,5.162,5.208,0,3.006-2.111,5.438-6.24,5.438a17.38,17.38,0,0,1-3.74-.458l.069-2.869a8.256,8.256,0,0,0,3.282.8c1.675,0,3.418-.78,3.418-2.822,0-2.065-1.836-2.777-3.672-2.777a9.351,9.351,0,0,0-2.868.436l.161-8.6h9.2Z" transform="translate(5.9 1.067)"/>
      <rect id="長方形_17230" data-name="長方形 17230" width="3.212" height="3.212" transform="translate(156.547 38.822)"/>
      <path id="パス_223666" data-name="パス 223666" d="M155.9,38a9.656,9.656,0,0,0,3.557.734c1.331,0,3.373-.642,3.373-2.272,0-1.88-1.492-2.5-3.534-2.5h-1.56V31.434H159.2c2.156,0,3.556-.711,3.556-2.111,0-1.606-1.308-2.112-2.754-2.112a8.14,8.14,0,0,0-3.6.85l-.182-2.57a12.337,12.337,0,0,1,4.473-.8c1.973,0,5.276.688,5.276,4.107,0,2.179-1.354,3.212-2.982,3.832v.046a3.5,3.5,0,0,1,3.052,3.808c0,3.808-3.465,4.772-6.126,4.772a16.323,16.323,0,0,1-4.2-.528Z" transform="translate(6.66 1.056)"/>
      <path id="パス_223667" data-name="パス 223667" d="M169.287,28.92c0-2.662,1.4-4.222,3.855-4.222s3.808,1.56,3.808,4.222-1.354,4.221-3.808,4.221-3.855-1.56-3.855-4.221m5.277,0c0-.986-.206-2.387-1.422-2.387s-1.468,1.4-1.468,2.387.251,2.386,1.468,2.386,1.422-1.4,1.422-2.386m7.824-4.453h1.881l-9.912,17.026h-1.882Zm-2.662,12.575c0-2.662,1.4-4.222,3.855-4.222s3.808,1.56,3.808,4.222-1.354,4.221-3.808,4.221-3.855-1.56-3.855-4.221m5.277,0c0-.986-.206-2.387-1.422-2.387s-1.468,1.4-1.468,2.387.252,2.386,1.468,2.386S185,38.027,185,37.042" transform="translate(7.24 1.046)"/>
      <rect id="長方形_17231" data-name="長方形 17231" width="17.727" height="17.727" transform="translate(380.611 16.753)" fill="#b7bbbe"/>
      <path id="パス_223668" data-name="パス 223668" d="M472.624,23.618a10.481,10.481,0,0,0-1.5.078v-.938a15.577,15.577,0,0,1-2.817,1.486,4.831,4.831,0,0,0-.812-1.33,12.494,12.494,0,0,0,6.476-4.738h1.641a9.778,9.778,0,0,0,2.565,2.58,13.476,13.476,0,0,0,4.115,2.112,5.85,5.85,0,0,0-.751,1.423,17.509,17.509,0,0,1-3.1-1.611V23.7a9.872,9.872,0,0,0-1.486-.078H475.47V25.37h4.1a10.454,10.454,0,0,0,1.642-.094v1.47a11.469,11.469,0,0,0-1.642-.094h-4.1v3.77h4.364a14.363,14.363,0,0,0,1.8-.094v1.533a13.016,13.016,0,0,0-1.815-.109H469.95a14.582,14.582,0,0,0-1.877.109V30.328a15.645,15.645,0,0,0,1.861.094h4.082v-3.77h-3.863a11.92,11.92,0,0,0-1.611.094v-1.47a10.925,10.925,0,0,0,1.627.094h3.848V23.618Zm-1.392,3.332a16.487,16.487,0,0,1,1.3,2.69l-1.3.516a11.194,11.194,0,0,0-1.283-2.675Zm5.74-4.552a9.279,9.279,0,0,0,1-.031,12.653,12.653,0,0,1-3.175-2.955,12.139,12.139,0,0,1-3.113,2.971c.344.016.531.016.907.016Zm2.689,5.1c-.108.235-.2.407-.266.516a16.937,16.937,0,0,1-1.25,2.221l-1.221-.469a11.676,11.676,0,0,0,1.362-2.8Z" transform="translate(19.995 0.777)"/>
      <path id="パス_223669" data-name="パス 223669" d="M490.432,19.837a14.929,14.929,0,0,0-1.611-.063H484.66a15.291,15.291,0,0,0-1.611.063V18.492a11.161,11.161,0,0,0,1.689.094h4.019a9.32,9.32,0,0,0,1.675-.094Zm-5.459,8.2a3,3,0,0,0-.517-.563V30.6a13.191,13.191,0,0,0,.064,1.6h-1.376a15.015,15.015,0,0,0,.078-1.893V25.8c0-.579-.016-1.048-.047-1.5a10.721,10.721,0,0,0,1.361.063h4.441a8.171,8.171,0,0,0,1.3-.063c-.032.454-.047.813-.047,1.392v5.1c0,1.047-.329,1.313-1.643,1.313-.14,0-.249,0-.8-.03a4.278,4.278,0,0,0-.266-1.346,5.163,5.163,0,0,0,1.016.109c.408,0,.5-.063.5-.344V27.594c-.283.017-.408.017-.7.017-1.064,0-1.345-.156-1.345-.782V25.452h-.547a2.781,2.781,0,0,1-1.3,2.6,4.727,4.727,0,0,0,.688.031h1.8a7.033,7.033,0,0,0,.907-.047V29.1a7.407,7.407,0,0,0-.907-.047h-.406v1.564a7.369,7.369,0,0,0,.062,1.065h-1.22a7.4,7.4,0,0,0,.064-1.048V29.049h-.266a6.955,6.955,0,0,0-.892.047Zm4.738-5.459a8.95,8.95,0,0,0,.047,1.095,8.581,8.581,0,0,0-1.031-.047h-3.8a11.609,11.609,0,0,0-1.189.047,10.115,10.115,0,0,0,.047-1.079V21.542a10.115,10.115,0,0,0-.047-1.079,10.6,10.6,0,0,0,1.189.047h3.629a10.7,10.7,0,0,0,1.2-.047,9.008,9.008,0,0,0-.047,1.079Zm-5.256,4.739a1.843,1.843,0,0,0,.971-1.861h-.971Zm4.021-5.772h-3.426V22.59h3.426Zm-.5,4.88c0,.235.094.281.6.281a2.987,2.987,0,0,0,.469-.03v-1.22h-1.065Zm5.069-6.726a11.759,11.759,0,0,0-.094-1.611H494.4a11.785,11.785,0,0,0-.093,1.611v1.079h.86a12.633,12.633,0,0,0,1.439-.063,14.2,14.2,0,0,0-.064,1.549v3.222a14.306,14.306,0,0,0,.064,1.627,11.937,11.937,0,0,0-1.456-.063h-.844V29.94c.406-.093.625-.14,1.156-.282a15.71,15.71,0,0,0-.593-1.516L496,27.7a31.3,31.3,0,0,1,1.407,4.082l-1.235.547c-.157-.735-.2-.938-.361-1.517-.954.282-2.518.658-3.832.924-.8.172-.829.172-1.2.282l-.375-1.549a14.533,14.533,0,0,0,2.643-.3V27.048h-.8c-.719,0-1.048.016-1.407.046.031-.437.046-.765.046-1.5V22.261c0-.766-.015-1.111-.046-1.549a13.181,13.181,0,0,0,1.532.063h.674Zm-1,6.1h1v-3.77h-1Zm3.331-3.77H494.31V25.8h1.064Z" transform="translate(20.66 0.773)"/>
      <path id="パス_223670" data-name="パス 223670" d="M501.766,27.484a8.337,8.337,0,0,0-.047-.97,8.655,8.655,0,0,1-1.064.516,4.065,4.065,0,0,0-.782-1.064v4.5a14.5,14.5,0,0,0,.094,1.829H498.4a15.468,15.468,0,0,0,.094-1.829v-7.1a11.563,11.563,0,0,0-.063-1.314c.282.031.97.063,1.517.063h1.986a7.011,7.011,0,0,0-.657-1.6H499.5a15.358,15.358,0,0,0-1.674.078V19.178a14.432,14.432,0,0,0,1.752.094h4.474v-.516a5.062,5.062,0,0,0-.094-1h1.627a5.821,5.821,0,0,0-.094,1v.516H510.2a12.981,12.981,0,0,0,1.737-.094V20.6a15.052,15.052,0,0,0-1.658-.078h-1.861a10.847,10.847,0,0,1-.782,1.6H509.8a10.665,10.665,0,0,0,1.455-.063,9.923,9.923,0,0,0-.063,1.314v7.257c0,1.19-.437,1.564-1.893,1.564-.438,0-.845-.016-1.782-.063a4.615,4.615,0,0,0-.361-1.422,15.033,15.033,0,0,0,2.08.187c.454,0,.579-.093.579-.438V23.339h-3.065v1.173c0,.25.125.3.766.3.765,0,.937-.031,1.031-.2a1.58,1.58,0,0,0,.094-.375c.017-.047.017-.047.017-.25a.69.69,0,0,1,.015-.156,3.51,3.51,0,0,0,1.033.422,2.116,2.116,0,0,1-.485,1.361,2.536,2.536,0,0,1-1.549.313c-1.861,0-2.252-.156-2.252-.954V23.339h-1.486a3.793,3.793,0,0,1-.437,1.439,4.427,4.427,0,0,1-1.674,1.689c.328.016.673.031,1.189.031H506.6a12.406,12.406,0,0,0,1.345-.047,9.841,9.841,0,0,0-.062,1.2v1.533a9.9,9.9,0,0,0,.062,1.266,11.334,11.334,0,0,0-1.375-.063h-3.519v.782H501.7A8.541,8.541,0,0,0,501.766,30Zm-1.893-4.145V25.92a5.6,5.6,0,0,0,1.642-.751,2.379,2.379,0,0,0,1.064-1.83Zm6.257-1.22a6.988,6.988,0,0,0,.734-1.6h-4.081a9.829,9.829,0,0,1,.657,1.6Zm-3.051,7.117H506.6v-1.6h-3.519Z" transform="translate(21.292 0.759)"/>
      <path id="パス_223671" data-name="パス 223671" d="M513.187,26.705a14.422,14.422,0,0,0-.063-1.5,13.716,13.716,0,0,0,1.486.063h3.237c.486,0,.829-.016,1.22-.047a9.818,9.818,0,0,0-.047,1.408v3.942a11.24,11.24,0,0,0,.064,1.455h-1.423v-.61h-3.1V32.3h-1.455a11.393,11.393,0,0,0,.078-1.674Zm1.376,3.457h3.1V26.517h-3.1Zm.766-10.386a11.9,11.9,0,0,0-.063-1.361,12.876,12.876,0,0,0,1.767.078h5.584a12.071,12.071,0,0,0,1.768-.078,11.175,11.175,0,0,0-.064,1.361V22.56a11.965,11.965,0,0,0,.064,1.423,14.352,14.352,0,0,0-1.628-.063h-5.866a14.331,14.331,0,0,0-1.626.063,12.591,12.591,0,0,0,.063-1.408Zm1.392,2.878H522.9V19.776h-6.177Zm3.613,3.863a12.09,12.09,0,0,0-.048-1.3c.376.031.721.047,1.22.047h3.661a10.507,10.507,0,0,0,1.375-.063,13.347,13.347,0,0,0-.061,1.5v3.941a10.274,10.274,0,0,0,.078,1.659h-1.47v-.892H521.7V32.3h-1.423a12.474,12.474,0,0,0,.063-1.455Zm1.361,3.644h3.41V26.517H521.7Z" transform="translate(21.946 0.788)"/>
      <path id="パス_223672" data-name="パス 223672" d="M534.913,19.791c-.266-.016-.343-.016-.64-.016V30.662a10.853,10.853,0,0,0,.093,1.658H532.8a13.556,13.556,0,0,0,.094-1.658V29.051c-1.345.407-2.612.735-3.378.892a12.051,12.051,0,0,0-1.409.344l-.391-1.5a9.472,9.472,0,0,0,1.3-.172V19.775a8.543,8.543,0,0,0-1.142.078V18.43a11.033,11.033,0,0,0,1.328.079h4.8a7.667,7.667,0,0,0,1.3-.079v1.032c.422.031.594.031,1.017.031h4.192a10.41,10.41,0,0,0,1.22-.078c-.031.188-.063.516-.109.954a19.026,19.026,0,0,1-2.331,7.3,8.723,8.723,0,0,0,3.128,2.815,14.265,14.265,0,0,0-.782,1.549,11.578,11.578,0,0,1-3.19-3.081,12.487,12.487,0,0,1-3.269,3.1,5.1,5.1,0,0,0-.829-1.439,10.4,10.4,0,0,0,3.3-2.941,14.581,14.581,0,0,1-1.283-3.1,19.841,19.841,0,0,1-.688-3.77,4.408,4.408,0,0,0-.766.063Zm-4.519,1.971h2.5V19.775h-2.5Zm0,3.081h2.5V22.919h-2.5Zm0,3.519c1.156-.235,1.469-.313,2.5-.594V26.032h-2.5Zm6.6-7.571a14.85,14.85,0,0,0,1.5,5.537,15.6,15.6,0,0,0,1.643-5.537Z" transform="translate(22.57 0.788)"/>
      <path id="パス_223673" data-name="パス 223673" d="M548.79,25.446a10.548,10.548,0,0,0,1.314-.063,5,5,0,0,0-.077.812,13.8,13.8,0,0,1-.893,4.755c-.36.751-.954,1-2.346,1a22.638,22.638,0,0,1-2.5-.155,6.769,6.769,0,0,0-.329-1.534,15.114,15.114,0,0,0,2.862.314c.61,0,.876-.109,1.033-.423a10.452,10.452,0,0,0,.672-3.44h-4.332c-.438,0-.782.016-1.159.046a22.459,22.459,0,0,0,.751-4.738,9.736,9.736,0,0,0,1.284.063h3.409V19.941h-3.738a12.848,12.848,0,0,0-1.594.094V18.548a11.909,11.909,0,0,0,1.611.094h3.753a13.465,13.465,0,0,0,1.455-.063c-.031.36-.047.735-.047,1.236v2.378c0,.516.016.86.047,1.189q-.634-.047-1.361-.047H545.13a18.915,18.915,0,0,1-.406,2.112Zm6.257-7.226a8.735,8.735,0,0,0-.109,1.658V30.263a13.469,13.469,0,0,0,.109,1.925h-1.7a11.95,11.95,0,0,0,.109-1.925V19.878a8.836,8.836,0,0,0-.109-1.658Z" transform="translate(23.225 0.779)"/>
      <path id="パス_223674" data-name="パス 223674" d="M559.2,24.156a11.214,11.214,0,0,0-1.611.078v-1.3a10.7,10.7,0,0,0,1.611.078h2.034a9.5,9.5,0,0,0-.674-1.423h-1.8c-.75,0-1.313.031-1.8.078v-1.33a12.023,12.023,0,0,0,1.736.094h.734a8.19,8.19,0,0,0-1.142-1.533l1.284-.516a9.865,9.865,0,0,1,1.282,2.049h1.065V19.291a6.788,6.788,0,0,0-.095-1.251h1.455a11.384,11.384,0,0,0-.046,1.2v1.189h1.328V19.244a10.91,10.91,0,0,0-.063-1.2h1.455a7.116,7.116,0,0,0-.077,1.251v1.142h1.188a8.59,8.59,0,0,0,1.157-2.112l1.361.516c-.391.641-.766,1.2-1.048,1.6h.626a12.53,12.53,0,0,0,1.768-.094v1.33c-.5-.047-1.064-.078-1.829-.078h-1.675c-.25.563-.422.907-.688,1.423h1.972a11.532,11.532,0,0,0,1.657-.078v1.3a11.8,11.8,0,0,0-1.657-.078h-4.162v.892h3.3a11.588,11.588,0,0,0,1.643-.078v1.251a11.724,11.724,0,0,0-1.643-.078h-3.285v.923h4.52a12.988,12.988,0,0,0,1.861-.094v1.345a16.5,16.5,0,0,0-1.845-.094h-3.489A11.718,11.718,0,0,0,571.3,30.6a4.649,4.649,0,0,0-.8,1.331,12.432,12.432,0,0,1-6.006-3.207c.047.594.047.845.047,1.189V30.8a11.361,11.361,0,0,0,.094,1.6h-1.517a11.453,11.453,0,0,0,.094-1.611v-.86c0-.36,0-.532.031-1.173a9.363,9.363,0,0,1-2.393,1.83,14.922,14.922,0,0,1-3.222,1.345,4.407,4.407,0,0,0-.829-1.268,12.52,12.52,0,0,0,3.114-1.016,9.177,9.177,0,0,0,2.236-1.423H558.9a15.842,15.842,0,0,0-1.83.094V26.971a12.944,12.944,0,0,0,1.83.094h4.3v-.923h-3.128a11.221,11.221,0,0,0-1.611.078V24.969a11.489,11.489,0,0,0,1.611.078H563.2v-.892Zm6.1-1.142a9.589,9.589,0,0,0,.627-1.423h-3.88a11.582,11.582,0,0,1,.58,1.423Z" transform="translate(23.814 0.772)"/>
      <path id="パス_223675" data-name="パス 223675" d="M573.935,23.847a14.836,14.836,0,0,0-1.815.094V22.486a12.2,12.2,0,0,0,1.83.094h3.723v-1.6h-2.424a12.666,12.666,0,0,0-1.736.078V19.655a12.191,12.191,0,0,0,1.783.094h2.378v-.375a8.867,8.867,0,0,0-.093-1.423h1.611a7,7,0,0,0-.094,1.423v.375h1.25a11.874,11.874,0,0,0,1.736-.094v1.376a12,12,0,0,0,1.971-2.487l1.3.86c-.172.188-.219.235-.5.563a22.738,22.738,0,0,1-2.6,2.612h1.971a12.28,12.28,0,0,0,1.752-.094v1.455a15.463,15.463,0,0,0-1.861-.094h-3.472c-.688.5-1.314.923-2.017,1.345.656-.016,1.126-.016,1.391-.016h2.456a16.1,16.1,0,0,0,1.658-.063,15.368,15.368,0,0,0-.063,1.721v3.722a9.618,9.618,0,0,0,.094,1.706h-1.517v-.72H576.64v.72h-1.517a13.088,13.088,0,0,0,.094-1.706V28.039c0-.235,0-.735.017-.97-.814.421-1.471.7-2.706,1.22a4.916,4.916,0,0,0-.813-1.3,27.183,27.183,0,0,0,6.756-3.143Zm2.7,3.862h6.006V26.364H576.64Zm0,2.644h6.006V28.9H576.64Zm3.66-7.774a16.855,16.855,0,0,0,1.752-1.517,10.081,10.081,0,0,0-1.6-.078H579.1v1.6Z" transform="translate(24.452 0.768)"/>
      <path id="パス_223676" data-name="パス 223676" d="M390.666,31.823V29.139c1.491-1.446,6.929-5.989,6.929-8.926,0-1.468-1.308-2.156-2.615-2.156a6.955,6.955,0,0,0-3.695,1.285l-.252-2.661a10.645,10.645,0,0,1,4.749-1.147c3.052,0,5.026,1.537,5.026,4.68,0,3.4-3.42,6.516-6.036,9.087h6.539v2.524Z" transform="translate(16.709 0.664)"/>
      <rect id="長方形_17232" data-name="長方形 17232" width="3.212" height="3.212" transform="translate(420.773 29.276)"/>
      <path id="パス_223677" data-name="パス 223677" d="M411.82,23.472a4.081,4.081,0,0,1-2.662-3.716c0-2.869,2.179-4.222,5.094-4.222,2.822,0,5.368,1.17,5.368,3.854a4.216,4.216,0,0,1-2.661,3.832v.022c2.111.988,3.075,2.364,3.075,4.2,0,3.234-2.341,4.656-5.508,4.656-3.12,0-5.643-1.352-5.643-4.61,0-1.79,1.009-3.03,2.938-3.97Zm2.706,6.24a2.115,2.115,0,0,0,2.294-2.134c0-1.583-1.352-2.34-2.684-2.777-1.146.552-2.042,1.286-2.042,2.64a2.343,2.343,0,0,0,2.432,2.27m.23-7.457a2.772,2.772,0,0,0,1.789-2.317,1.879,1.879,0,0,0-1.974-2.019,2.09,2.09,0,0,0-2.34,1.927c0,1.377,1.422,2,2.525,2.409" transform="translate(17.488 0.664)"/>
      <path id="パス_223678" data-name="パス 223678" d="M422.676,19.765c0-2.662,1.4-4.222,3.855-4.222s3.808,1.56,3.808,4.222-1.354,4.22-3.808,4.22-3.855-1.56-3.855-4.22m5.277,0c0-.988-.206-2.387-1.422-2.387s-1.468,1.4-1.468,2.387.251,2.386,1.468,2.386,1.422-1.4,1.422-2.386m7.824-4.454h1.881l-9.912,17.026h-1.882Zm-2.662,12.575c0-2.661,1.4-4.221,3.855-4.221s3.808,1.56,3.808,4.221-1.354,4.221-3.808,4.221-3.855-1.56-3.855-4.221m5.277,0c0-.986-.206-2.386-1.422-2.386s-1.468,1.4-1.468,2.386.252,2.387,1.468,2.387,1.422-1.4,1.422-2.387" transform="translate(18.078 0.655)"/>
      <path id="パス_223679" data-name="パス 223679" d="M342.132,234.118a13.961,13.961,0,0,0,.056,1.465,3.585,3.585,0,0,0-.526-.038h-.376l-.882-.019h-3.267a13.426,13.426,0,0,1-1.689,6.722,4.857,4.857,0,0,0-1.409-1.184c1.221-2.027,1.558-4.018,1.558-9.143a21.886,21.886,0,0,0-.094-2.573,19.661,19.661,0,0,0,1.972.075h2.873a16.507,16.507,0,0,0,1.841-.075c-.039.375-.056.92-.056,1.578Zm-7.416-8.092a10.5,10.5,0,0,0,1.933.113h4.224a11.268,11.268,0,0,0,1.916-.094v1.764a11.291,11.291,0,0,0-1.858-.094h-4.357a12.927,12.927,0,0,0-1.858.094Zm5.8,8.017v-3.154h-3.322V232.5c0,.751,0,.976-.02,1.539Zm4.694-1.483a18.962,18.962,0,0,1-.882,5.444,10.813,10.813,0,0,1-2.8,4.319,5,5,0,0,0-1.315-1.277c2.741-2.573,3.361-4.731,3.361-11.791a23.29,23.29,0,0,0-.075-2.329,17.594,17.594,0,0,0,6.928-1.633l.957,1.577a7.519,7.519,0,0,0-.826.244,27.958,27.958,0,0,1-5.314,1.24v2.591h4.526a9.231,9.231,0,0,0,1.783-.114v1.822a10.865,10.865,0,0,0-1.672-.094h-.432v7.7a11.2,11.2,0,0,0,.114,1.991h-1.878a14,14,0,0,0,.113-2.009V232.56Z" transform="translate(14.287 9.636)"/>
      <path id="パス_223680" data-name="パス 223680" d="M356.1,233.56a19.2,19.2,0,0,1-3,2.665,4.232,4.232,0,0,0-1.107-1.5,16.3,16.3,0,0,0,3.38-2.817,12.586,12.586,0,0,0,2.2-3.023H354.67a17.773,17.773,0,0,0-2.177.113v-1.764a17.344,17.344,0,0,0,2.177.113h3.625a8.962,8.962,0,0,0,.6-2.178l1.971.244a9.662,9.662,0,0,0-.393,1.033c-.131.357-.189.526-.339.9h6.984a17.257,17.257,0,0,0,2.16-.113V229a17.474,17.474,0,0,0-2.16-.113h-7.7a19,19,0,0,1-1.051,1.822h6.552a17.814,17.814,0,0,0,1.972-.075,21.273,21.273,0,0,0-.076,2.159v7.7a1.507,1.507,0,0,1-.637,1.408,3.887,3.887,0,0,1-1.934.282c-.526,0-.939-.019-1.877-.075a4.787,4.787,0,0,0-.394-1.652,16.119,16.119,0,0,0,2.235.188c.806,0,.938-.075.938-.563v-1.747h-7.379v1.728a18.728,18.728,0,0,0,.094,2.271h-1.878a20.642,20.642,0,0,0,.113-2.271Zm9.05-1.352h-7.379v1.614h7.379Zm-7.379,4.676h7.379v-1.614h-7.379Z" transform="translate(15.054 9.63)"/>
      <path id="パス_223681" data-name="パス 223681" d="M372.814,232.263a17.787,17.787,0,0,0-2.178.113V230.63a14.635,14.635,0,0,0,2.2.113H377.3v-1.915h-2.909a15.387,15.387,0,0,0-2.085.093v-1.689a14.616,14.616,0,0,0,2.14.113H377.3v-.45a10.49,10.49,0,0,0-.113-1.709h1.934a8.5,8.5,0,0,0-.114,1.709v.45h1.5a14.276,14.276,0,0,0,2.085-.113v1.652a14.369,14.369,0,0,0,2.365-2.985l1.558,1.033c-.206.225-.263.282-.6.676a27.371,27.371,0,0,1-3.116,3.136h2.366a14.736,14.736,0,0,0,2.1-.113v1.746a18.568,18.568,0,0,0-2.234-.113h-4.169c-.826.6-1.577,1.108-2.422,1.615.788-.019,1.352-.019,1.672-.019h2.948a19.309,19.309,0,0,0,1.99-.075,18.435,18.435,0,0,0-.075,2.065v4.469a11.544,11.544,0,0,0,.113,2.047h-1.821V241.5h-7.21v.864h-1.822a15.964,15.964,0,0,0,.113-2.047V237.3c0-.282,0-.883.019-1.165-.977.508-1.764.846-3.247,1.465a5.9,5.9,0,0,0-.977-1.558,32.7,32.7,0,0,0,8.112-3.775Zm3.248,4.638h7.21v-1.614h-7.21Zm0,3.173h7.21v-1.747h-7.21Zm4.393-9.332a20.254,20.254,0,0,0,2.1-1.822,12.291,12.291,0,0,0-1.916-.093h-1.634v1.915Z" transform="translate(15.831 9.631)"/>
      <path id="パス_223682" data-name="パス 223682" d="M392.526,235.39a15.624,15.624,0,0,1-.77,3.248,9.542,9.542,0,0,1-2.479,3.68,4.53,4.53,0,0,0-1.22-1.5,7.48,7.48,0,0,0,2.591-4.507,22.834,22.834,0,0,0,.449-4.449,20.709,20.709,0,0,0-2.14.075,18.588,18.588,0,0,0,.075-1.933v-2.235a19.268,19.268,0,0,0-.075-1.933,17.388,17.388,0,0,0,2.253.093h3.736a15.52,15.52,0,0,0,2.234-.093,18.5,18.5,0,0,0-.075,1.9v2.346a13.692,13.692,0,0,0,.075,1.859c-.619-.056-1.276-.075-2.272-.075h-2.121c-.038,1-.038,1.3-.094,2.028h2.666a11.69,11.69,0,0,0,1.783-.095,7.138,7.138,0,0,0-.056,1.259c-.038,3.154-.244,5.276-.6,6.121-.282.657-.788.863-2.085.863-.449,0-.844-.019-1.764-.094a5.657,5.657,0,0,0-.375-1.746,11.821,11.821,0,0,0,2.028.205c.563,0,.75-.131.826-.563a26.33,26.33,0,0,0,.3-4.449Zm-1.839-4.994h4.787v-3h-4.787Zm10.063-4.113a13.536,13.536,0,0,0-.112,2.216v7.153a14.874,14.874,0,0,0,.094,2.216h-1.859a14.107,14.107,0,0,0,.094-2.178V228.5a16.042,16.042,0,0,0-.113-2.216Zm4.131-.9a17.542,17.542,0,0,0-.131,2.479V239.99c0,1.69-.452,2.028-2.817,2.028-.507,0-.9-.019-1.747-.056a7.171,7.171,0,0,0-.526-1.764,25.028,25.028,0,0,0,2.516.205c.695,0,.882-.113.882-.582v-11.96a19.579,19.579,0,0,0-.131-2.479Z" transform="translate(16.597 9.64)"/>
      <path id="パス_223683" data-name="パス 223683" d="M339.43,257.386a15.442,15.442,0,0,0-1.728.094v-1.52a16.258,16.258,0,0,1-2.478,2.2,6.634,6.634,0,0,0-1.24-1.5A14.618,14.618,0,0,0,339,251.227a6.494,6.494,0,0,0,.751-1.933l1.916.694a6.161,6.161,0,0,0-.526.957,18.378,18.378,0,0,1-3.211,4.769,11.678,11.678,0,0,0,1.52.076h6.608c.752,0,1.165-.019,1.728-.056a19.064,19.064,0,0,1-3.361-4.92c-.094-.188-.3-.582-.413-.788l1.765-.676a6.734,6.734,0,0,0,.713,1.614,15.331,15.331,0,0,0,5.332,5.6,7.407,7.407,0,0,0-1.2,1.672,19.98,19.98,0,0,1-2.608-2.253c-.02.319-.02.319-.039,1.164-.038,4.093-.319,6.834-.807,7.792-.375.713-.977.958-2.385.958-.469,0-.845-.019-2.159-.095a7.458,7.458,0,0,0-.45-1.858,15.3,15.3,0,0,0,2.421.263c.714,0,.9-.094,1.051-.469a13.306,13.306,0,0,0,.452-3.061c.075-.938.113-1.916.113-2.666v-.619h-3.925a9.941,9.941,0,0,1-1.464,4.845,11,11,0,0,1-4.769,4.13,5.41,5.41,0,0,0-1.126-1.521,9.423,9.423,0,0,0,2.891-1.783,7.623,7.623,0,0,0,2.573-4.506,9.293,9.293,0,0,0,.131-1.165Z" transform="translate(14.284 10.662)"/>
      <path id="パス_223684" data-name="パス 223684" d="M357.466,258.331v4.693a14.361,14.361,0,0,0,.094,2.085h-1.916a15.766,15.766,0,0,0,.113-2.085v-4.13a19.413,19.413,0,0,1-2.741,2.31,6,6,0,0,0-.957-1.559,16.074,16.074,0,0,0,5.671-6.139h-3.042a19.41,19.41,0,0,0-2.291.112v-1.8a16.528,16.528,0,0,0,2.291.113h3.755a11.186,11.186,0,0,0,.751-2.8l1.952.245a7.7,7.7,0,0,0-.356.957c-.131.413-.319.995-.545,1.6h6.8a16.08,16.08,0,0,0,2.252-.113v1.8a16.855,16.855,0,0,0-2.252-.112h-7.455a20.353,20.353,0,0,1-2.027,3.3h3.211V256.6a13.855,13.855,0,0,0-.113-2.1h1.933a11.362,11.362,0,0,0-.113,2.1v.208h3.68a12.844,12.844,0,0,0,1.764-.094,13.384,13.384,0,0,0-.075,1.6v4.656c0,1.445-.563,1.822-2.7,1.822-.338,0-.6-.019-1.276-.056a4.813,4.813,0,0,0-.489-1.709,11.8,11.8,0,0,0,1.859.206c.713,0,.9-.131.9-.619v-4.281h-3.661v5.99a12.806,12.806,0,0,0,.131,2.2h-1.972a13.066,13.066,0,0,0,.132-2.215v-5.971Z" transform="translate(15.057 10.655)"/>
      <path id="パス_223685" data-name="パス 223685" d="M373.571,251.058a12.113,12.113,0,0,0-.113-1.764h1.915a9.592,9.592,0,0,0-.112,1.764v13.575a9.468,9.468,0,0,0,.112,1.764h-1.915a14.108,14.108,0,0,0,.113-1.933v-4.393c-.394.282-1.239.826-2.515,1.633-.17.094-.189.113-.32.188L370,260.127a17.317,17.317,0,0,0,3.567-1.9Zm-1.877.676a18.737,18.737,0,0,1,1.427,4.038l-1.484.694a15.625,15.625,0,0,0-1.37-4.093Zm10.571,4.113a18.341,18.341,0,0,0,1.577,4.712,10.942,10.942,0,0,0,2.028,2.8,12.778,12.778,0,0,0,1.652,1.351,5.311,5.311,0,0,0-1.165,1.634,11.976,11.976,0,0,1-3.6-4.319,14.785,14.785,0,0,1-1.389-3.736,14.857,14.857,0,0,1-1.539,4.263,11.613,11.613,0,0,1-3.154,3.7,4.874,4.874,0,0,0-1.165-1.483,9.86,9.86,0,0,0,3.437-4.149,16.288,16.288,0,0,0,1.239-4.769h-2.291a14.053,14.053,0,0,0-1.952.113v-1.765a13.84,13.84,0,0,0,1.952.113h2.4c.038-.676.056-1.916.056-3.361a11.9,11.9,0,0,0-.113-1.577h1.934a10.08,10.08,0,0,0-.114,1.52c-.018.826-.055,1.972-.112,3.417H385.4a13.555,13.555,0,0,0,1.934-.113v1.765a13.557,13.557,0,0,0-1.9-.113Zm2.891-2.028a13.067,13.067,0,0,0-2.327-3.192l1.22-.845a16.009,16.009,0,0,1,2.44,3.117Z" transform="translate(15.825 10.662)"/>
      <path id="パス_223686" data-name="パス 223686" d="M389.25,253.91a23.238,23.238,0,0,1,3.38,2.421l-1.051,1.409a17.213,17.213,0,0,0-3.3-2.591Zm3.549,6.308a29.563,29.563,0,0,1-1.783,4c-.169.3-.169.3-.863,1.464a5.359,5.359,0,0,0-.32.544l-1.5-1.351a15.769,15.769,0,0,0,3.1-5.689Zm-2.61-10.87a19.7,19.7,0,0,1,3.231,2.534l-1.071,1.371a17.1,17.1,0,0,0-3.229-2.723Zm5.5,8.017c-.432,0-.882.019-1.521.075.02-.169.02-.169.056-.563,0-.056,0-.056.02-1.146v-4.093a15.464,15.464,0,0,0-.076-1.6,13.034,13.034,0,0,0,1.84.075h6.4a12.949,12.949,0,0,0,1.764-.075,10.821,10.821,0,0,0-.074,1.633v4.187a10.115,10.115,0,0,0,.074,1.578c-.732-.056-1.145-.075-1.614-.075h-1.184v6.665c0,.374.151.45,1.015.45.807,0,1.126-.076,1.277-.3a10,10,0,0,0,.281-3.042,4.616,4.616,0,0,0,1.578.676c-.131,3.886-.394,4.243-3.155,4.243-1.3,0-1.783-.056-2.159-.3a1.118,1.118,0,0,1-.488-1.089v-7.3h-1.69a11.723,11.723,0,0,1-1.07,5.163,8.229,8.229,0,0,1-4.187,3.811,5.413,5.413,0,0,0-1.164-1.464,7.147,7.147,0,0,0,3.83-3.079,9.3,9.3,0,0,0,.92-4.431Zm.244-1.54h6.44v-4.074h-6.44Z" transform="translate(16.606 10.665)"/>
    </g>
  </g>
</svg>
