<svg xmlns="http://www.w3.org/2000/svg" width="133.818" height="21.846" viewBox="0 0 133.818 21.846">
  <g id="_1981-1996" data-name="1981-1996" transform="translate(0 0)">
    <g id="グループ_80841" data-name="グループ 80841" transform="translate(0 0)">
      <g id="グループ_80839" data-name="グループ 80839" transform="translate(0 0)">
        <path id="パス_127011" data-name="パス 127011" d="M3.5,7.861A25.409,25.409,0,0,0,8.828,5.3l.41.2V23.128c0,2.152.2,2.357,2.767,2.357v1.025H3.5V25.484c2.766,0,2.869-.2,2.869-2.357V10.116c0-1.229-.1-1.742-.717-1.742A6.25,6.25,0,0,0,3.7,8.989Z" transform="translate(-3.5 -5.088)" fill="#fff"/>
        <path id="パス_127012" data-name="パス 127012" d="M14.5,12.168a7.377,7.377,0,0,1,1.742-5.021A6.148,6.148,0,0,1,21.158,5.2c3.791,0,6.762,3.074,6.762,10.144,0,3.893-.615,6.968-2.049,9.017a5.942,5.942,0,0,1-5.123,2.561,6.865,6.865,0,0,1-4.2-1.229,3.791,3.791,0,0,1-1.537-2.767c0-.819.41-1.332,1.127-1.332s1.229.41,1.638,1.537A5.43,5.43,0,0,0,18.8,24.975a2.869,2.869,0,0,0,1.947.717,3.176,3.176,0,0,0,2.869-1.742c1.025-1.742,1.435-4.611,1.435-7.787h-.1a5.123,5.123,0,0,1-4.508,2.664,5.533,5.533,0,0,1-4.2-1.638A6.968,6.968,0,0,1,14.5,12.168Zm2.971,0a7.889,7.889,0,0,0,1.127,4.1,3.176,3.176,0,0,0,2.561,1.229,3.381,3.381,0,0,0,2.869-1.638,4.713,4.713,0,0,0,.922-3.07c0-3.074-1.229-6.455-3.791-6.455a3.176,3.176,0,0,0-2.869,1.844,8.914,8.914,0,0,0-.819,3.893Z" transform="translate(-3.23 -5.091)" fill="#fff"/>
        <path id="パス_127013" data-name="パス 127013" d="M36.763,26.924a7.582,7.582,0,0,1-4.713-1.435A5.225,5.225,0,0,1,30,21.084,4.918,4.918,0,0,1,31.436,17.7,8.3,8.3,0,0,1,34.3,15.756h0A7.889,7.889,0,0,1,31.743,13.6a5.738,5.738,0,0,1-1.127-3.381,4.713,4.713,0,0,1,1.741-3.791A6.967,6.967,0,0,1,36.763,5.1a7.377,7.377,0,0,1,4.508,1.332,4.508,4.508,0,0,1,1.742,3.69,4.1,4.1,0,0,1-1.127,2.869,7.377,7.377,0,0,1-2.869,1.947h0a9.017,9.017,0,0,1,2.869,2.049,5.636,5.636,0,0,1,1.742,3.894,5.942,5.942,0,0,1-1.947,4.508,7.787,7.787,0,0,1-4.918,1.435Zm.1-1.229a3.791,3.791,0,0,0,2.767-1.025,4.233,4.233,0,0,0-.41-6.148,10.861,10.861,0,0,0-3.382-1.947,5.328,5.328,0,0,0-2.357,1.947,4.713,4.713,0,0,0-.717,2.664,4.816,4.816,0,0,0,1.127,3.277,3.791,3.791,0,0,0,2.97,1.231Zm0-19.365a3.484,3.484,0,0,0-2.458.922,3.586,3.586,0,0,0-.922,2.458A3.791,3.791,0,0,0,34.51,12.27a8.914,8.914,0,0,0,3.072,1.947,6.148,6.148,0,0,0,2.254-1.844,4.1,4.1,0,0,0,.615-2.458,4.2,4.2,0,0,0-1.025-2.766,3.689,3.689,0,0,0-2.561-.922Z" transform="translate(-2.849 -5.093)" fill="#fff"/>
        <path id="パス_127014" data-name="パス 127014" d="M46.4,7.861A25.41,25.41,0,0,0,51.728,5.3l.41.2V23.128c0,2.152.2,2.357,2.766,2.357v1.025H46.5V25.484c2.766,0,2.869-.2,2.869-2.357V10.116c0-1.229-.1-1.742-.717-1.742a6.25,6.25,0,0,0-1.947.615Z" transform="translate(-2.445 -5.088)" fill="#fff"/>
      </g>
      <g id="グループ_80840" data-name="グループ 80840" transform="translate(76.742 0.095)">
        <path id="パス_127015" data-name="パス 127015" d="M78.4,7.861A25.41,25.41,0,0,0,83.728,5.3l.41.2V23.128c0,2.152.2,2.357,2.767,2.357v1.025H78.4V25.484c2.766,0,2.869-.2,2.869-2.357V10.116c0-1.229-.1-1.742-.717-1.742a6.25,6.25,0,0,0-1.947.615Z" transform="translate(-78.4 -5.183)" fill="#fff"/>
        <path id="パス_127016" data-name="パス 127016" d="M89.4,12.168a7.377,7.377,0,0,1,1.743-5.021A6.148,6.148,0,0,1,96.058,5.2c3.791,0,6.762,3.074,6.762,10.143,0,3.893-.615,6.968-2.049,9.017a5.942,5.942,0,0,1-5.123,2.561,6.762,6.762,0,0,1-4.2-1.229,3.791,3.791,0,0,1-1.435-2.664c0-.819.41-1.332,1.127-1.332s1.229.41,1.638,1.537A5.43,5.43,0,0,0,93.8,25.077a2.869,2.869,0,0,0,1.947.717,3.176,3.176,0,0,0,2.869-1.742c1.025-1.742,1.435-4.611,1.435-7.787h-.1a5.123,5.123,0,0,1-4.508,2.664,5.533,5.533,0,0,1-4.2-1.638A6.968,6.968,0,0,1,89.4,12.168Zm2.971,0a7.889,7.889,0,0,0,1.127,4.1,3.176,3.176,0,0,0,2.561,1.229,3.381,3.381,0,0,0,2.869-1.638,4.713,4.713,0,0,0,.922-3.074c0-3.074-1.229-6.455-3.791-6.455A3.176,3.176,0,0,0,93.19,8.171a8.914,8.914,0,0,0-.819,3.893Z" transform="translate(-78.129 -5.186)" fill="#fff"/>
        <path id="パス_127017" data-name="パス 127017" d="M105.1,12.168a7.377,7.377,0,0,1,1.742-5.021A6.148,6.148,0,0,1,111.759,5.2c3.791,0,6.762,3.074,6.762,10.144,0,3.893-.615,6.968-2.049,9.017a5.942,5.942,0,0,1-5.123,2.561,6.865,6.865,0,0,1-4.2-1.229,3.791,3.791,0,0,1-1.435-2.664c0-.819.41-1.332,1.127-1.332s1.229.41,1.638,1.537a5.43,5.43,0,0,0,1.025,1.844,2.869,2.869,0,0,0,1.947.717,3.176,3.176,0,0,0,2.869-1.742c1.025-1.742,1.435-4.611,1.435-7.787h-.1a5.123,5.123,0,0,1-4.508,2.664,5.533,5.533,0,0,1-4.2-1.638,6.967,6.967,0,0,1-1.742-4.918Zm2.971,0a7.889,7.889,0,0,0,1.127,4.1,3.176,3.176,0,0,0,2.561,1.229,3.381,3.381,0,0,0,2.869-1.638,4.713,4.713,0,0,0,.924-3.07c0-3.074-1.229-6.455-3.791-6.455a3.176,3.176,0,0,0-2.869,1.844,8.914,8.914,0,0,0-.819,3.893Z" transform="translate(-77.742 -5.186)" fill="#fff"/>
        <path id="パス_127018" data-name="パス 127018" d="M134.423,19.75a7.889,7.889,0,0,1-1.638,5.123,6.148,6.148,0,0,1-5.021,2.049c-4,0-6.762-3.074-6.762-10.451,0-3.791.717-6.968,2.254-8.914A5.738,5.738,0,0,1,128.174,5.2a6.353,6.353,0,0,1,3.791,1.127A3.688,3.688,0,0,1,133.5,9.1c0,.819-.41,1.332-1.025,1.332s-1.229-.41-1.638-1.537a3.791,3.791,0,0,0-1.127-1.844,2.254,2.254,0,0,0-1.742-.615A3.277,3.277,0,0,0,125.2,8.173a17.27,17.27,0,0,0-1.435,7.787h.1A5.123,5.123,0,0,1,128.38,13.3a5.328,5.328,0,0,1,4.1,1.638,6.663,6.663,0,0,1,1.742,4.816Zm-2.971.1a7.787,7.787,0,0,0-1.127-4.1,3.074,3.074,0,0,0-2.561-1.229,3.586,3.586,0,0,0-2.971,1.638,4.919,4.919,0,0,0-.819,2.869c0,3.277,1.229,6.66,3.791,6.66a3.176,3.176,0,0,0,2.869-1.844,8.607,8.607,0,0,0,.819-4Z" transform="translate(-77.353 -5.187)" fill="#fff"/>
      </g>
      <line id="線_3821" data-name="線 3821" x2="9.631" transform="translate(60.041 11.687)" fill="none" stroke="#fff" stroke-miterlimit="10" stroke-width="1.388"/>
    </g>
  </g>
</svg>
