<svg xmlns="http://www.w3.org/2000/svg" width="72.695" height="21.847" viewBox="0 0 72.695 21.847">
  <g id="_2014-" data-name="2014-" transform="translate(0 0)">
    <g id="グループ_80893" data-name="グループ 80893" transform="translate(0 0)">
      <g id="グループ_80892" data-name="グループ 80892" transform="translate(0 0)">
        <path id="パス_127353" data-name="パス 127353" d="M13.748,26.618H2.112L1.7,26.206a18.74,18.74,0,0,1,2.368-6.178,18.329,18.329,0,0,1,4.325-4.737c1.956-1.544,2.986-2.883,2.986-5.046A4.119,4.119,0,0,0,10.35,7.157,3.192,3.192,0,0,0,7.98,6.333a2.986,2.986,0,0,0-2.265.824A4.633,4.633,0,0,0,4.583,9.525c-.309.928-.721,1.236-1.442,1.236s-1.029-.412-1.029-1.442A4.222,4.222,0,0,1,3.965,6.23,7.62,7.62,0,0,1,8.187,5.2a6.9,6.9,0,0,1,4.326,1.235,4.942,4.942,0,0,1,1.956,4.119c0,2.059-1.339,3.81-2.676,5.148S8.4,18.174,7.057,19.41a10.091,10.091,0,0,0-3.192,5.148h6.9c1.854,0,2.162-.412,2.78-2.676h1.133Z" transform="translate(-1.7 -5.191)" fill="#fff"/>
        <path id="パス_127354" data-name="パス 127354" d="M23.8,27.028a5.972,5.972,0,0,1-4.633-1.954c-1.544-1.753-2.265-4.636-2.265-9.066s.824-7.311,2.471-9.061A5.972,5.972,0,0,1,23.9,5.2a5.972,5.972,0,0,1,4.427,1.75c1.75,1.75,2.471,4.737,2.471,9.061s-.826,7.313-2.268,9.066A6.075,6.075,0,0,1,23.8,27.03Zm0-20.7a3.089,3.089,0,0,0-2.471,1.236c-.927,1.237-1.545,3.708-1.545,8.443s.618,7.1,1.442,8.34A2.986,2.986,0,0,0,23.9,25.791a2.883,2.883,0,0,0,2.676-1.442c.824-1.236,1.442-3.6,1.442-8.34S27.4,8.7,26.476,7.567A3.192,3.192,0,0,0,24,6.331Z" transform="translate(-1.249 -5.189)" fill="#fff"/>
        <path id="パス_127355" data-name="パス 127355" d="M33.5,7.874A25.536,25.536,0,0,0,38.852,5.3l.412.206v17.71c0,2.162.206,2.368,2.78,2.368v1.029H33.6V25.585c2.78,0,2.883-.206,2.883-2.368V10.14c0-1.236-.1-1.75-.721-1.75a6.28,6.28,0,0,0-1.956.618Z" transform="translate(-0.756 -5.187)" fill="#fff"/>
        <path id="パス_127356" data-name="パス 127356" d="M44,20.852v-.928L52.546,5.2h2.267V19.41h2.471l-.206,1.339H54.813v2.368c0,2.059.1,2.368,2.162,2.368v1.029H49.56v-.928c2.265,0,2.471-.309,2.471-2.368V20.852Zm1.854-1.442h6.075V11.275a26.035,26.035,0,0,1,.1-2.78h-.1c-.309.618-.824,1.648-1.442,2.78Z" transform="translate(-0.444 -5.19)" fill="#fff"/>
      </g>
      <line id="線_3838" data-name="線 3838" x2="9.679" transform="translate(63.016 11.645)" fill="none" stroke="#fff" stroke-miterlimit="10" stroke-width="1.395"/>
    </g>
  </g>
</svg>
