<svg xmlns="http://www.w3.org/2000/svg" width="140.865" height="21.845" viewBox="0 0 140.865 21.845">
  <g id="_1996-2006" data-name="1996-2006" transform="translate(0 0)">
    <g id="グループ_80880" data-name="グループ 80880" transform="translate(0 0.098)">
      <path id="パス_127321" data-name="パス 127321" d="M3.5,7.861A25.406,25.406,0,0,0,8.827,5.3l.41.2v17.62c0,2.151.2,2.356,2.766,2.356v1.025H3.5V25.482c2.766,0,2.868-.2,2.868-2.356V10.115c0-1.229-.1-1.742-.717-1.742A6.249,6.249,0,0,0,3.7,8.987Z" transform="translate(-3.5 -5.184)" fill="#fff"/>
      <path id="パス_127322" data-name="パス 127322" d="M14.6,12.167a7.376,7.376,0,0,1,1.743-5.02A6.147,6.147,0,0,1,21.258,5.2c3.791,0,6.761,3.073,6.761,10.142,0,3.893-.614,6.966-2.049,9.015a5.942,5.942,0,0,1-5.122,2.561,6.864,6.864,0,0,1-4.2-1.229,3.791,3.791,0,0,1-1.434-2.663c0-.819.41-1.332,1.127-1.332s1.229.41,1.638,1.537a5.43,5.43,0,0,0,1.027,1.842,2.868,2.868,0,0,0,1.946.717,3.176,3.176,0,0,0,2.868-1.742c1.025-1.742,1.434-4.61,1.434-7.786h-.1a5.122,5.122,0,0,1-4.508,2.663,5.532,5.532,0,0,1-4.2-1.638A6.966,6.966,0,0,1,14.6,12.166Zm2.971,0a7.888,7.888,0,0,0,1.127,4.1,3.176,3.176,0,0,0,2.561,1.229,3.381,3.381,0,0,0,2.868-1.638,4.713,4.713,0,0,0,.922-3.073c0-3.073-1.229-6.454-3.791-6.454A3.176,3.176,0,0,0,18.39,8.17a8.913,8.913,0,0,0-.819,3.893Z" transform="translate(-3.229 -5.186)" fill="#fff"/>
      <path id="パス_127323" data-name="パス 127323" d="M30.5,12.167a7.376,7.376,0,0,1,1.742-5.02A6.147,6.147,0,0,1,37.158,5.2c3.791,0,6.761,3.073,6.761,10.142,0,3.893-.614,6.966-2.049,9.015a5.942,5.942,0,0,1-5.122,2.561,6.864,6.864,0,0,1-4.2-1.229,3.791,3.791,0,0,1-1.537-2.766c0-.819.41-1.332,1.127-1.332s1.229.41,1.638,1.537A5.43,5.43,0,0,0,34.8,24.972a2.868,2.868,0,0,0,1.946.717,3.176,3.176,0,0,0,2.869-1.742c1.025-1.742,1.434-4.61,1.434-7.786h-.1a5.122,5.122,0,0,1-4.5,2.663,5.532,5.532,0,0,1-4.2-1.638A6.966,6.966,0,0,1,30.5,12.167Zm2.971,0a7.888,7.888,0,0,0,1.127,4.1,3.176,3.176,0,0,0,2.561,1.229,3.381,3.381,0,0,0,2.868-1.638,4.713,4.713,0,0,0,.922-3.073c0-3.073-1.229-6.454-3.791-6.454A3.176,3.176,0,0,0,34.291,8.17a8.912,8.912,0,0,0-.819,3.893Z" transform="translate(-2.841 -5.186)" fill="#fff"/>
      <path id="パス_127324" data-name="パス 127324" d="M59.921,19.747a7.888,7.888,0,0,1-1.638,5.122,6.147,6.147,0,0,1-5.019,2.049c-4,0-6.761-3.073-6.761-10.449,0-3.791.717-6.966,2.254-8.913A5.734,5.734,0,0,1,53.671,5.2a6.351,6.351,0,0,1,3.791,1.127A3.688,3.688,0,0,1,59,9.093c0,.819-.41,1.332-1.025,1.332s-1.229-.41-1.638-1.537a3.791,3.791,0,0,0-1.127-1.844,2.254,2.254,0,0,0-1.742-.614A3.277,3.277,0,0,0,50.7,8.172a17.239,17.239,0,0,0-1.434,7.784h.1a5.122,5.122,0,0,1,4.508-2.663,5.327,5.327,0,0,1,4.1,1.638,6.659,6.659,0,0,1,1.744,4.816Zm-2.971.1a7.786,7.786,0,0,0-1.127-4.1,3.073,3.073,0,0,0-2.561-1.229,3.585,3.585,0,0,0-2.868,1.742,4.915,4.915,0,0,0-.819,2.868c0,3.277,1.229,6.659,3.791,6.659a3.176,3.176,0,0,0,2.868-1.946,8.605,8.605,0,0,0,.819-4Z" transform="translate(-2.45 -5.186)" fill="#fff"/>
    </g>
    <g id="グループ_80881" data-name="グループ 80881" transform="translate(78.164 0)">
      <path id="パス_127325" data-name="パス 127325" d="M91.786,26.511H80.21l-.41-.41a18.644,18.644,0,0,1,2.356-6.147,18.235,18.235,0,0,1,4.405-4.713c1.946-1.537,2.971-2.868,2.971-5.019a4.1,4.1,0,0,0-1.025-3.074,3.176,3.176,0,0,0-2.356-.819,2.971,2.971,0,0,0-2.256.819,4.61,4.61,0,0,0-1.127,2.356c-.307.922-.717,1.229-1.434,1.229s-1.025-.41-1.025-1.434a4.2,4.2,0,0,1,1.844-3.073A7.581,7.581,0,0,1,86.25,5.1a6.864,6.864,0,0,1,4.308,1.229,4.915,4.915,0,0,1,1.946,4.1c0,2.049-1.332,3.791-2.663,5.122s-3.381,2.561-4.713,3.791a10.04,10.04,0,0,0-3.176,5.122h6.862c1.844,0,2.151-.41,2.766-2.663h1.127Z" transform="translate(-79.8 -5.09)" fill="#fff"/>
      <path id="パス_127326" data-name="パス 127326" d="M101.966,26.918a5.942,5.942,0,0,1-4.61-1.946C95.717,23.23,95,20.361,95,15.956s.819-7.273,2.458-9.015a6.556,6.556,0,0,1,8.913,0c1.742,1.742,2.458,4.713,2.458,9.015s-.819,7.273-2.254,9.015a6.044,6.044,0,0,1-4.713,1.946Zm-.1-20.589a3.073,3.073,0,0,0-2.458,1.229c-.922,1.229-1.537,3.688-1.537,8.4s.614,7.069,1.434,8.3a2.971,2.971,0,0,0,2.663,1.434,2.868,2.868,0,0,0,2.663-1.434c.819-1.229,1.434-3.585,1.434-8.3s-.614-7.273-1.537-8.4a3.176,3.176,0,0,0-2.458-1.229Z" transform="translate(-79.429 -5.087)" fill="#fff"/>
      <path id="パス_127327" data-name="パス 127327" d="M118.364,26.918a5.942,5.942,0,0,1-4.61-1.946c-1.537-1.742-2.254-4.61-2.254-9.015s.819-7.273,2.458-9.015a6.556,6.556,0,0,1,8.913,0c1.742,1.742,2.458,4.713,2.458,9.015s-.819,7.273-2.254,9.015a6.044,6.044,0,0,1-4.713,1.946Zm-.1-20.589A3.073,3.073,0,0,0,115.8,7.558c-.922,1.229-1.537,3.688-1.537,8.4s.614,7.069,1.434,8.3a2.971,2.971,0,0,0,2.663,1.434,2.868,2.868,0,0,0,2.663-1.434c.819-1.229,1.434-3.585,1.434-8.3s-.614-7.273-1.537-8.4a3.176,3.176,0,0,0-2.458-1.229Z" transform="translate(-79.026 -5.088)" fill="#fff"/>
      <path id="パス_127328" data-name="パス 127328" d="M141.321,19.747a7.888,7.888,0,0,1-1.638,5.122,6.147,6.147,0,0,1-5.019,2.049c-4,0-6.761-3.073-6.761-10.449,0-3.791.717-6.966,2.254-8.913A5.734,5.734,0,0,1,135.071,5.2a6.351,6.351,0,0,1,3.79,1.127A3.688,3.688,0,0,1,140.4,9.093c0,.819-.41,1.332-1.025,1.332s-1.229-.41-1.638-1.537a3.79,3.79,0,0,0-1.127-1.844,2.254,2.254,0,0,0-1.742-.614A3.277,3.277,0,0,0,132.1,8.172a17.267,17.267,0,0,0-1.434,7.786h.1a5.122,5.122,0,0,1,4.508-2.663,5.327,5.327,0,0,1,4.1,1.638,6.659,6.659,0,0,1,1.742,4.815Zm-2.971.1a7.786,7.786,0,0,0-1.127-4.1,3.073,3.073,0,0,0-2.561-1.229,3.585,3.585,0,0,0-2.971,1.638,4.915,4.915,0,0,0-.819,2.868c0,3.277,1.229,6.659,3.79,6.659a3.176,3.176,0,0,0,2.868-1.844,8.606,8.606,0,0,0,.819-4Z" transform="translate(-78.626 -5.088)" fill="#fff"/>
    </g>
    <line id="線_3834" data-name="線 3834" x2="9.63" transform="translate(63.31 11.688)" fill="none" stroke="#fff" stroke-miterlimit="10" stroke-width="1.388"/>
  </g>
</svg>
