<svg xmlns="http://www.w3.org/2000/svg" width="139.836" height="21.845" viewBox="0 0 139.836 21.845">
  <g id="グループ_80887" data-name="グループ 80887" transform="translate(0 0)">
    <g id="グループ_80885" data-name="グループ 80885" transform="translate(0 0.102)">
      <path id="パス_127337" data-name="パス 127337" d="M13.686,26.508H2.11L1.7,26.1a18.645,18.645,0,0,1,2.356-6.147,18.235,18.235,0,0,1,4.3-4.713c1.946-1.537,2.971-2.868,2.971-5.019A4.1,4.1,0,0,0,10.3,7.147a3.176,3.176,0,0,0-2.356-.819,2.971,2.971,0,0,0-2.254.819A4.61,4.61,0,0,0,4.568,9.5c-.307.922-.717,1.229-1.434,1.229S2.11,10.322,2.11,9.3A4.2,4.2,0,0,1,3.954,6.224,7.581,7.581,0,0,1,8.154,5.2a6.864,6.864,0,0,1,4.3,1.229,4.915,4.915,0,0,1,1.946,4.1c0,2.049-1.332,3.791-2.663,5.122S8.361,18.1,7.029,19.335a10.039,10.039,0,0,0-3.176,5.122h6.862c1.844,0,2.151-.41,2.766-2.663h1.127Z" transform="translate(-1.7 -5.19)" fill="#fff"/>
      <path id="パス_127338" data-name="パス 127338" d="M23.764,26.921a5.942,5.942,0,0,1-4.61-1.946c-1.537-1.742-2.254-4.61-2.254-9.017s.819-7.272,2.458-9.011A5.942,5.942,0,0,1,23.865,5.2a5.942,5.942,0,0,1,4.406,1.742c1.742,1.742,2.458,4.713,2.458,9.015s-.819,7.271-2.251,9.013a6.044,6.044,0,0,1-4.714,1.946Zm0-20.589a3.073,3.073,0,0,0-2.458,1.229c-.922,1.229-1.537,3.688-1.537,8.4s.614,7.066,1.433,8.3a2.971,2.971,0,0,0,2.663,1.434,2.868,2.868,0,0,0,2.664-1.434c.819-1.229,1.434-3.585,1.434-8.3s-.615-7.276-1.537-8.4A3.176,3.176,0,0,0,23.97,6.329Z" transform="translate(-1.329 -5.192)" fill="#fff"/>
      <path id="パス_127339" data-name="パス 127339" d="M40.164,26.92a5.942,5.942,0,0,1-4.61-1.946c-1.537-1.742-2.254-4.61-2.254-9.017s.819-7.272,2.458-9.011A5.942,5.942,0,0,1,40.265,5.2a5.942,5.942,0,0,1,4.508,1.742c1.742,1.742,2.458,4.713,2.458,9.015s-.819,7.273-2.254,9.015a6.044,6.044,0,0,1-4.713,1.946Zm0-20.589a3.073,3.073,0,0,0-2.458,1.229c-.922,1.229-1.537,3.688-1.537,8.4s.614,7.066,1.433,8.3a2.971,2.971,0,0,0,2.561,1.434,2.868,2.868,0,0,0,2.663-1.434c.819-1.229,1.434-3.585,1.434-8.3s-.614-7.276-1.537-8.4a3.176,3.176,0,0,0-2.561-1.229Z" transform="translate(-0.928 -5.192)" fill="#fff"/>
      <path id="パス_127340" data-name="パス 127340" d="M63.121,19.747a7.888,7.888,0,0,1-1.638,5.122,6.147,6.147,0,0,1-5.019,2.049c-4,0-6.761-3.073-6.761-10.449,0-3.791.717-6.966,2.254-8.913A5.734,5.734,0,0,1,56.871,5.2a6.351,6.351,0,0,1,3.791,1.127A3.688,3.688,0,0,1,62.3,8.991c0,.819-.41,1.332-1.025,1.332s-1.229-.41-1.638-1.537A3.791,3.791,0,0,0,58.51,6.942a2.254,2.254,0,0,0-1.742-.614,3.277,3.277,0,0,0-2.663,1.844,17.274,17.274,0,0,0-1.434,7.785h.1a5.122,5.122,0,0,1,4.405-2.663,5.327,5.327,0,0,1,4.1,1.638,6.659,6.659,0,0,1,1.742,4.815Zm-2.971.1a7.786,7.786,0,0,0-1.127-4.1,3.073,3.073,0,0,0-2.561-1.229,3.585,3.585,0,0,0-2.868,1.742,4.915,4.915,0,0,0-.819,2.868c0,3.277,1.229,6.659,3.791,6.659a3.176,3.176,0,0,0,2.868-1.844,8.605,8.605,0,0,0,.819-4Z" transform="translate(-0.528 -5.19)" fill="#fff"/>
    </g>
    <g id="グループ_80886" data-name="グループ 80886" transform="translate(83.286 0)">
      <path id="パス_127341" data-name="パス 127341" d="M94.986,26.511H83.41L83,26.1a18.645,18.645,0,0,1,2.356-6.147,18.235,18.235,0,0,1,4.3-4.713c1.946-1.537,2.971-2.868,2.971-5.019a4.1,4.1,0,0,0-1.024-3.074,3.176,3.176,0,0,0-2.356-.819A2.971,2.971,0,0,0,87,7.149a4.61,4.61,0,0,0-1.127,2.356c-.307.922-.717,1.229-1.434,1.229S83.41,10.325,83.41,9.3a4.2,4.2,0,0,1,1.844-3.073A7.581,7.581,0,0,1,89.35,5.1a6.864,6.864,0,0,1,4.3,1.229,4.915,4.915,0,0,1,1.946,4.1c0,2.049-1.332,3.791-2.663,5.122s-3.277,2.561-4.61,3.791a10.04,10.04,0,0,0-3.176,5.122h6.865c1.844,0,2.151-.41,2.766-2.663h1.127Z" transform="translate(-83 -5.091)" fill="#fff"/>
      <path id="パス_127342" data-name="パス 127342" d="M105.064,26.918a5.942,5.942,0,0,1-4.61-1.946c-1.537-1.742-2.254-4.61-2.254-9.015s.819-7.273,2.458-9.015a6.556,6.556,0,0,1,8.913,0c1.742,1.742,2.458,4.713,2.458,9.015s-.819,7.273-2.254,9.015a6.044,6.044,0,0,1-4.713,1.946Zm-.1-20.589A3.073,3.073,0,0,0,102.5,7.558c-.922,1.229-1.537,3.688-1.537,8.4s.614,7.069,1.434,8.3a2.971,2.971,0,0,0,2.663,1.434,2.868,2.868,0,0,0,2.663-1.434c.819-1.229,1.434-3.585,1.434-8.3s-.614-7.273-1.537-8.4a3.176,3.176,0,0,0-2.458-1.229Z" transform="translate(-82.629 -5.088)" fill="#fff"/>
      <path id="パス_127343" data-name="パス 127343" d="M114.8,7.861A25.405,25.405,0,0,0,120.127,5.3l.41.2v17.62c0,2.151.2,2.356,2.766,2.356v1.025h-8.4V25.482c2.766,0,2.868-.2,2.868-2.356V10.115c0-1.229-.1-1.742-.717-1.742a6.249,6.249,0,0,0-1.946.614Z" transform="translate(-82.223 -5.086)" fill="#fff"/>
      <path id="パス_127344" data-name="パス 127344" d="M125.3,20.769v-.922L133.8,5.3h2.256V19.336h2.458l-.2,1.332h-2.253v2.356c0,2.049.1,2.356,2.151,2.356V26.4h-7.378v-.922c2.254,0,2.458-.307,2.458-2.356V20.769Zm1.844-1.332h6.044v-8.2a25.891,25.891,0,0,1,.1-2.766h-.1c-.307.614-.819,1.638-1.434,2.766Z" transform="translate(-81.967 -5.086)" fill="#fff"/>
    </g>
    <line id="線_3836" data-name="線 3836" x2="9.63" transform="translate(68.432 11.688)" fill="none" stroke="#fff" stroke-miterlimit="10" stroke-width="1.388"/>
  </g>
</svg>
