<svg xmlns="http://www.w3.org/2000/svg" width="287" height="68.985" viewBox="0 0 287 68.985">
  <g id="グループ_89045" data-name="グループ 89045" transform="translate(-1685 13044)">
    <g id="グループ_89044" data-name="グループ 89044" transform="translate(1685 -13044)">
      <path id="パス_201472" data-name="パス 201472" d="M52.137,230.132c.211.13.341.29.341.42,0,.264-.394.345-1.107.449a22.181,22.181,0,0,1-5.781,5.12l-.4-.422a21.743,21.743,0,0,0,4.672-6.914Zm9.711,7.152,2.35,1.609a.748.748,0,0,1,.37.53c0,.341-.555.367-1.373.42a23.476,23.476,0,0,1-4.143,3.615,26.954,26.954,0,0,0,10,2.007v.5a2.4,2.4,0,0,0-1.848,1.9,23.664,23.664,0,0,1-9.634-3.457c-1.609.977-4.672,2.744-12.14,3.563l-.077-.554,1.133-.238a24.483,24.483,0,0,0,9.581-3.9,14.565,14.565,0,0,1-2.509-2.746,24.122,24.122,0,0,1-7.019,4.909l-.29-.449a24.607,24.607,0,0,0,8.234-9.211l2.454.9c.293.132.422.29.422.422,0,.264-.315.343-1.054.5-.317.343-.343.4-.713.792h5.33Zm-2.9-12.932c.343.053.528.238.528.423,0,.317-.343.475-1.056.792V227.2h6.467l1.4-1.688,2.427,1.82v.607H61.241v6.441c0,1.107-.238,1.5-.711,1.767a3.769,3.769,0,0,1-1.664.5c-.713,0-.713-.343-.739-.634,0-.948-.5-1.03-1.767-1.215v-.555h2.665v-6.307h-2.8a13.929,13.929,0,0,1-.869,5.094c-1.584,3.378-5.807,4.645-7.442,5.147l-.238-.528c5.778-2.561,6.175-5.279,6.333-9.713H45.8l-.394-.739H56.043v-3.219ZM54.934,239.1c-.343.4-.475.5-.9.924a12.391,12.391,0,0,0,3.114,2.48,18.01,18.01,0,0,0,3.512-3.4Zm7.284-9.763a17.974,17.974,0,0,1,4.7,2.321c.343.29,1.793,1.479,1.793,2.746a1.189,1.189,0,0,1-1.16,1.239c-.713,0-.9-.317-1.822-1.978a11.117,11.117,0,0,0-3.774-3.827Z" transform="translate(-45.195 -223.85)" fill="#fff"/>
      <path id="パス_201473" data-name="パス 201473" d="M65.179,228.349c-.026.211-.106.739-.132.977a9.125,9.125,0,0,1,.9-.37,2.069,2.069,0,0,1,1.135,1.215c0,.209-.053.262-.687.711a13.558,13.558,0,0,0-1.635,1.505c-.029.687-.029.871-.053,1.268a14.965,14.965,0,0,1,2.982-2.06,12.078,12.078,0,0,1,5.462-1.452c3.695,0,6.731,2.244,6.731,7.127a7.611,7.611,0,0,1-3.4,6.571A17.38,17.38,0,0,1,69.059,246l-.13-.579c2.506-.555,8.6-1.9,8.6-8.6,0-3.563-2-5.543-4.986-5.543s-5.649,1.584-7.891,3.589c-.029,2.35.024,4.7.106,7.048,0,.367.051,1.952.051,2.269,0,1.03-.975,2.48-1.609,2.48-.4,0-.4-.13-.607-1.4a9.147,9.147,0,0,0-2.559-4.432,13.083,13.083,0,0,0-.951,1.584c-.158.262-.264.394-.5.394-.845,0-1.135-1.661-1.135-1.82,0-.29.079-.37.713-1,.29-.29,1.558-1.9,1.846-2.269l2.324-2.9c.106-.1.475-.605.713-.9l.053-1.267.079-1.241a15.807,15.807,0,0,0-2.324,1.135c-.552.449-.605.5-.79.5-.4,0-1.822-.951-2.324-3.615l.449-.185c.449.739.977,1.609,1.743,1.609a15.774,15.774,0,0,0,3.3-.869l.053-1.109c.026-.871.026-1.215.026-1.426,0-1.03,0-1.45-.185-1.716-.422-.658-1.611-.684-1.9-.684v-.581a9.17,9.17,0,0,1,1.056-.079c1.426,0,3.668.555,3.668,1.4,0,.132-.053.185-.4.687a2.665,2.665,0,0,0-.211.819Zm-2.216,8.393c-.924,1.186-1.188,1.505-1.98,2.665l-.607.871,2.007,1.822c.185.156.29.264.581.526Z" transform="translate(-30.487 -223.36)" fill="#fff"/>
      <path id="パス_201474" data-name="パス 201474" d="M71.037,224.462c2.242.343,3.906,1.637,3.906,2.876,0,.132-.026.158-.317.475-.687.687-2.057,3.879-2.057,7.231a13.943,13.943,0,0,0,.317,2.773c1.609-7.761,5.065-11.717,8.261-11.717,3.4,0,4.326,3.51,4.326,8.6,0,6.623-1.661,10.611-11.293,11.823l-.132-.607c5.963-1.345,9.13-3.587,9.13-11.533,0-.764-.026-4.669-.975-6.174a1.843,1.843,0,0,0-1.584-.924c-3.272,0-6.623,7.046-6.623,11.269a6.091,6.091,0,0,0,.077.977c0,.053.108.581.108.792a.8.8,0,0,1-.819.792c-.951,0-2.4-1.426-2.4-5.754a30.057,30.057,0,0,1,1.03-6.861,7.48,7.48,0,0,0,.422-1.954c0-.948-1.109-1.371-1.584-1.556Z" transform="translate(-14.426 -223.274)" fill="#fff"/>
      <path id="パス_201475" data-name="パス 201475" d="M84.162,239.307a.4.4,0,0,1,.37.367c0,.343-.238.4-.792.528a20.407,20.407,0,0,1-2.638,6.465l-.53-.262a23.405,23.405,0,0,0,1.267-7.55Zm5.673-10.083a.6.6,0,0,1,.29.5c0,.42-.343.4-1.054.37l-1.138,1.45c-1.741,2.165-2.454,2.955-3.193,3.721h2.086l1.188-.026a6.12,6.12,0,0,0-.871-1.45l.264-.317c1.978.843,2.506,1.582,2.823,3.193a9.335,9.335,0,0,1,.66-.9l.713-.739a3.4,3.4,0,0,0,.449-1.846l.555.053a11.15,11.15,0,0,1,.185,1.109h8.866l.766-1.083,2.216,1.9a.669.669,0,0,1,.238.449c0,.4-.262.4-1.083.422a19.664,19.664,0,0,1-2.533,2.165l-.343-.238a26.888,26.888,0,0,0,.9-2.9H92.843c-.1,2.3-.764,3.037-1.635,3.037a1.017,1.017,0,0,1-1.03-.951c-.211.5-.449.843-.951.843-.555,0-.687-.394-.764-.764a11.522,11.522,0,0,0-.238-1.215c-.739.158-.792.185-1.479.343v11.084l-2.139.4V236.852c-.9.211-1.212.29-2.084.5-.106.185-.317.555-.555.555-.185,0-.4-.317-.475-.555l-.792-2.086c.449,0,2.588.026,3.061.026a63.431,63.431,0,0,0,3.7-7.363Zm-2.612-3.985a.565.565,0,0,1,.423.475c0,.394-.4.422-1.056.5-.422.53-1.741,2.218-2.85,3.644.9.975,1,1.45,1,1.873,0,.528-.262,1.215-.922,1.215-.687,0-.9-.5-1.056-1a6.431,6.431,0,0,0-1.928-3.061l.238-.4a9.483,9.483,0,0,1,1.875.792,48.81,48.81,0,0,0,1.793-5.015Zm.185,13.537a4.762,4.762,0,0,1,2.955,2.033,2.781,2.781,0,0,1,.422,1.4c0,.953-.581,1.373-1.109,1.373-.634,0-.737-.528-.79-1.028a7.332,7.332,0,0,0-.768-2.324,4.544,4.544,0,0,0-.948-1.162Zm8.63-1.82c.317.026.579.211.579.449,0,.29-.29.423-.684.607-.317,4.592-.687,7.706-7.312,9.869l-.211-.528c4.672-2.3,5.253-5.015,5.2-10.714Zm5.25-9.4,1.347-1.688,2.242,1.9v.5H97.99v3.034H100.6l1.188-1.556,2.242,1.82v.475H91.287l-.343-.739h4.828v-3.034H89.756l-.264-.713h6.28v-3.483l2.588.29c.317.053.607.211.607.449,0,.317-.317.422-.977.634v2.11Zm2.007,13.962h.607c-.026.262-.108,1.083-.108,1.556,0,1.743.345,1.875,1.03,2.139-.341,1.292-.579,2.137-2.084,2.137H99.653c-1.452,0-1.928-.5-1.928-1.767v-8.894l2.482.343c.288.026.555.238.555.4,0,.238-.317.367-.792.581V244.5c0,.5.156.713.684.713h1.056c.528,0,.792-.343,1.109-1.69Z" transform="translate(-2.727 -223.735)" fill="#fff"/>
      <path id="パス_201476" data-name="パス 201476" d="M93.932,225.146c3.193,1.241,3.774,3.008,3.774,3.431,0,.317-.053.37-.5.843a4.056,4.056,0,0,0-.739,1.426,13.713,13.713,0,0,0-1.133,5.913,11.066,11.066,0,0,0,.526,3.827l3.563-6.1.5.211c-.843,1.8-2.665,5.754-2.665,7.867a2.124,2.124,0,0,0,.026.42l.158,1.188c.053.475-.158,1.107-.792,1.107-1.215,0-2.876-3.217-2.876-7.545A41.63,41.63,0,0,1,94.7,229.9a12.6,12.6,0,0,0,.37-2.35c0-.79-.37-1.135-1.45-1.952Zm14.409,5.488-.026-1.45c-.026-3.618-.026-3.668-2.163-4.3l.079-.5c3.325-.079,4.749,1.215,4.749,1.637a4.316,4.316,0,0,1-.262.684,3.8,3.8,0,0,0-.264,1.347c0,.343.053,1.978.053,2.3a12.978,12.978,0,0,0,2.506-.579,5.521,5.521,0,0,1,.766-.422c.555,0,1.661.816,1.661,1.5,0,.475-.66.581-1.028.66-.4.053-2.693.37-3.906.5l-.026,2.638c-.026.713-.026,3.879-.026,4.54-.053,1.954-.081,4.143-3.246,6.362a13.852,13.852,0,0,1-4.328,1.952l-.238-.528a10.787,10.787,0,0,0,4.645-3.721c.922-1.5,1.08-3.087,1.08-7.68,0-.766,0-1.611-.026-3.3l-1.793.185c-1.294.132-2.007.185-2.614.185-1.688,0-2.638-.264-3.563-2.876l.422-.238a2.744,2.744,0,0,0,2.746,1.529c.684,0,2.48-.185,3.325-.264Z" transform="translate(12.932 -223.376)" fill="#fff"/>
      <path id="パス_201477" data-name="パス 201477" d="M111.842,234.638a15.747,15.747,0,0,1,6.648-1.688c4.172,0,6.467,2.321,6.467,5.726,0,4.645-4.064,6.89-8.789,6.89-3.483,0-5.884-1.347-5.884-3.483,0-1.4,1.054-2.535,2.982-2.535a7.281,7.281,0,0,1,4.909,2.06,3.277,3.277,0,0,1,1.239,1.925,5.377,5.377,0,0,0,2.244-1.873,6.259,6.259,0,0,0,.951-3.274c0-2.348-1.32-4.355-4.7-4.355a13.591,13.591,0,0,0-9.528,4.513c-1.215,1.373-1.347,1.532-1.582,1.532-.607,0-1.162-1.03-1.162-1.716a.769.769,0,0,1,.4-.684l.687-.5a117.472,117.472,0,0,0,10.793-10.531l-1.347.264c-1.265.238-3.695.713-4.487,1.32-.5.4-.607.423-.737.423-.425,0-1.162-.687-1.532-1.162a6,6,0,0,1-1.056-2.427l.555-.238c.555.977.951,1.424,2.06,1.424a5.072,5.072,0,0,0,.658-.053l4.434-.526,1.135-.161a2.876,2.876,0,0,0,1.162-.315c.026,0,.634-.317.66-.317.158,0,.238.079.845.687.922.922,1.028,1,1.028,1.239,0,.158-.158.211-.555.37a3.057,3.057,0,0,0-1.133.66c-.715.634-1.637,1.452-5.411,4.988Zm.922,6.309a1.279,1.279,0,0,0-1.452,1.213c0,1,1.215,2.165,4.093,2.165a12.177,12.177,0,0,0,2.216-.211C114.927,241.053,113.292,240.947,112.764,240.947Z" transform="translate(27.366 -222.841)" fill="#fff"/>
      <path id="パス_201478" data-name="パス 201478" d="M126.841,225.269h-5.649v17.337h-1.241V224.054h6.89Z" transform="translate(44.547 -223.764)" fill="#fff"/>
      <path id="パス_201479" data-name="パス 201479" d="M124.372,237.538c1.925-.343,2.533-.475,4.088-.871V230.73h-3.668l-.341-.713h4.009v-5.939l2.693.37c.343.026.687.238.687.449,0,.29-.449.528-1.109.819v4.3h.792l1.212-1.637,2.165,1.848v.5h-4.17v5.356a20.389,20.389,0,0,0,2.9-1.03l.238.5c-1.292.739-1.635.924-2.321,1.267l-.819.475v8.1a1.8,1.8,0,0,1-1.479,2.057,3.934,3.934,0,0,1-1.424.238c-.422,0-.528-.132-.581-.634-.026-.711-.053-.975-1.056-1.186l-1.056-.211v-.5h3.325v-6.65c-.922.473-1.239.631-2.242,1.107-.29.766-.317.845-.555.845-.185,0-.29-.238-.343-.343Zm6.755,9.922a19.371,19.371,0,0,0,7.785-4.645,14.758,14.758,0,0,1-3.246-5.884h-1.611l-.343-.713h9.581l.739-1.03,2.11,1.452c.106.053.475.317.475.555,0,.29-.185.317-1.215.528a23.284,23.284,0,0,1-4.011,5.118,21.13,21.13,0,0,0,7,2.852l-.079.5c-.977.238-1.32.475-1.743,1.637a20.889,20.889,0,0,1-6.491-3.774c-2.77,2.189-4.434,2.823-8.762,3.959Zm12.985-21.9c.077.053.5.368.5.581,0,.29-.394.422-1,.607v4.643c0,.528.132.66.66.66h1.318c.29,0,.528-.211.845-1.45l.5-1.98h.555c-.026.264-.053.975-.053,1.661,0,1.188.185,1.532,1.054,1.716-.288,1.611-.687,1.952-2.242,1.952h-2.955c-1.743,0-1.848-.869-1.848-1.688v-5.913h-3.457v1.8a7.144,7.144,0,0,1-4.249,6.758l-.343-.4c1.743-1.424,2.429-2.559,2.429-6.042v-3.985l2.4,1.162h3.008l.871-1.347Zm-7.732,11.374a12.2,12.2,0,0,0,3.536,4.83,19.517,19.517,0,0,0,3.272-4.83Z" transform="translate(49.854 -223.735)" fill="#fff"/>
      <path id="パス_201480" data-name="パス 201480" d="M145.648,245.825a32.778,32.778,0,0,1-9,2.192l-.156-.581a21.3,21.3,0,0,0,4.46-1.5,19.607,19.607,0,0,0,3.853-2.271l2,1.611a.633.633,0,0,1,.211.4c0,.29-.343.264-.528.238Zm-2.929-2.374v.634l-2.269.37V233.767l-1.716.951c-.238.737-.264.816-.475.816a.5.5,0,0,1-.37-.29l-1.107-2.269,1.45-.37c3.14-.792,4.777-1.294,6.071-1.688l.211.447c-1.32.819-1.69,1.03-3.747,2.218l1.265.634c3.14-1.135,6.388-2.641,7.389-7.1h-2.057a14.736,14.736,0,0,1-3.166,3.378l-.449-.345a18.561,18.561,0,0,0,2.691-6.227l2.744.792c.185.053.317.185.317.317,0,.264-.106.29-1.133.66-.238.343-.264.37-.475.711h8l.975-1.344,2.35,1.9a.64.64,0,0,1,.238.475c0,.264-.4.29-.555.29l-.977.079c-1.505,1.32-1.928,1.637-2.691,2.218l-.449-.317.37-.9.687-1.688h-4.014c.821,1.873,1.822,4.17,8.316,5.858l-.053.528a2.062,2.062,0,0,0-1.769,1.529,10.9,10.9,0,0,1-6.887-6.94c-.951,2.48-1.875,4.645-8.049,6.388H153.7l.528-.871,2.218,1.45c.053.029.264.185.264.317,0,.211-.264.343-.581.5v7.891l-2.3.343v-.66Zm-4.566-18.684a6.414,6.414,0,0,1,3.272,1.268,2.8,2.8,0,0,1,.951,1.793,1.187,1.187,0,0,1-1.135,1.241c-.658,0-.871-.5-1.028-.951a6.4,6.4,0,0,0-2.244-2.929Zm15.676,10.424h-11.11v1.9h11.11Zm0,2.614h-11.11v2h11.11Zm0,2.718h-11.11v2.218h11.11Zm-3.589,3.615a28.324,28.324,0,0,1,6.52.792c2.321.713,2.718,1.8,2.718,2.269a.959.959,0,0,1-1,.977c-.343,0-.687-.053-1.637-.687a19.277,19.277,0,0,0-6.676-2.8Z" transform="translate(64.404 -223.922)" fill="#fff"/>
      <path id="パス_201481" data-name="パス 201481" d="M155.259,224.62c.449.132.766.423.766.607,0,.317-.66.475-1.03.581l-.185.288c2.4.792,4.487,1.8,4.487,3.433a1.009,1.009,0,0,1-.951,1.107,1.292,1.292,0,0,1-1.03-.687l-.605-1.107a6.343,6.343,0,0,0-2.192-2.242,31.454,31.454,0,0,1-5.754,7.334l-.394-.341a30.425,30.425,0,0,0,4.564-9.66Zm.528,10.978h-2.614v11.849l-2.084.343V235.6h-2.244l-.262-.739h6.887l.9-1.265,1.769,1.239c.211.158.581.4.581.607,0,.343-.581.555-.871.66v6.465c0,.792-.211,1.135-1.08,1.505a3.653,3.653,0,0,1-1.135.29c-.37,0-.37-.211-.422-.924-.053-.658-.951-.79-1.637-.9v-.449h2.218Zm-1.4-4.355,1.162-1.424,2.189,1.635v.5h-5.858l-.343-.713Zm10.133,12.615c.345.238.5.475.5.581,0,.37-.711.37-1.107.37a26.2,26.2,0,0,1-7.495,3.087l-.158-.475a17.4,17.4,0,0,0,6.333-4.856Zm4.014-17.5,1.292-1.584,2.533,1.848v.423h-5.884l-.607.843c-.792,1.109-1.133,1.611-1.716,2.4h3.934l.871-1.188,1.952,1.265c.211.132.634.4.634.607,0,.293-.634.555-.977.713v11.086l-2.269.37v-.9h-6.335v.713l-2.242.394v-14.2l2.612,1.135h.766c.317-1.875.343-2.007.528-3.246H158.69l-.29-.687Zm-.238,4.643h-6.335v2.878H168.3Zm0,3.589h-6.335v2.984H168.3Zm0,3.695h-6.335v3.248H168.3Zm-2.588,4.7a13.8,13.8,0,0,1,5.12,1.479c.9.554,1.505,1.188,1.505,1.98a1.184,1.184,0,0,1-.977,1.292,1.527,1.527,0,0,1-.871-.5l-1.373-1.477a9.37,9.37,0,0,0-3.536-2.324Z" transform="translate(78.665 -223.907)" fill="#fff"/>
      <path id="パス_201482" data-name="パス 201482" d="M166.6,230.876l1.241-1.558,1.82,1.688v.581h-3.932v7.759c.951-.209,1.267-.29,2.693-.631l.132.394c-.477.264-1.162.687-1.4.792l-3.325,1.743c-.211.132-.977.526-1.347.739-.185.607-.264.843-.528.843-.238,0-.449-.264-.526-.449l-1.162-2.3c1.688-.29,2.11-.37,3.219-.607v-8.287h-2.665l-.317-.711h2.982V224.7l2.718.449c.158.026.634.132.634.475,0,.4-.422.581-1.109.869v4.383Zm9.634,9.843.132.449c-.4.158-1.584.632-1.875.739L169.5,243.78c-.341.132-.948.37-1.45.554-.185.475-.238.687-.475.687-.211,0-.37-.211-.449-.343l-1.267-2.139c1.928-.288,3.774-.555,8.076-1.371Zm-5.569-1.822V240.4l-2.057.343v-8.868l2.084,1.188h1.9l.711-1.056,1.928,1.294c.132.106.343.264.343.449,0,.238-.238.37-.66.632v5.041l-2.06.317V238.9Zm10.635-9.948.581-.713a2.559,2.559,0,0,1-.449.026.8.8,0,0,1-.792-.475l-.579-.951a4.885,4.885,0,0,0-1.426-1.45l.132-.37a6.353,6.353,0,0,1,2.9.819,1.606,1.606,0,0,1,.871,1.556l.106-.158,2.084,1.9v.555h-6.571a49.363,49.363,0,0,0,.977,8.577,28.351,28.351,0,0,0,1.873-6.177l2.218.924c.106.053.607.238.607.5,0,.343-.317.37-.951.475a24.712,24.712,0,0,1-3.008,6.729,10.231,10.231,0,0,0,2.506,3.378,29.294,29.294,0,0,0,1.716-3.827l.554.132-.5,2.427a7.31,7.31,0,0,0-.185,1.584,2.473,2.473,0,0,0,.871,2.11c-.581.66-.977.951-1.4.951-1.056,0-3.193-1.793-4.962-4.854a15.526,15.526,0,0,1-3.959,3.272,16.92,16.92,0,0,1-3.985,1.9l-.264-.475a18.752,18.752,0,0,0,7.416-6.465c-.792-2.374-1.477-5.358-1.714-11.163h-7.022l-.317-.739h7.312c-.026-1.109-.026-1.769-.053-4.883l2.48.29c.238.026.5.185.5.37,0,.317-.475.555-.739.687v3.536Zm-8.445,4.828h-2.189v4.408h2.189Z" transform="translate(92.941 -223.749)" fill="#fff"/>
      <path id="パス_201483" data-name="パス 201483" d="M172.5,243.67h5.649V226.333h1.215v18.579H172.5Z" transform="translate(107.634 -221.028)" fill="#fff"/>
    </g>
    <g id="グループ_89043" data-name="グループ 89043" transform="translate(1697.818 -12999.058)">
      <path id="パス_201484" data-name="パス 201484" d="M191.061,246.26v1.265l-2.165.29v-6.571a11.32,11.32,0,0,1-3.853,5.646l-.4-.394a12.251,12.251,0,0,0,1.716-3.089,21.887,21.887,0,0,0,.9-5.937v-6.018a20.407,20.407,0,0,1-2.3,1.452l-.317-.422a27.5,27.5,0,0,0,6.6-8.525l2.85.766c.211.053.4.238.4.37,0,.29-.317.343-.845.449,1.479.341,6.071,1.347,6.071,3.906a.968.968,0,0,1-.871,1.056c-.475,0-.581-.106-1.743-1.532a10.582,10.582,0,0,0-4.117-2.955,36.955,36.955,0,0,1-3.219,3.4h3.879l1.109-1.32,1.978,1.505v.528h-6.861l-.264-.581c-.819.713-1.056.922-1.873,1.556l1.661.819h6.52l.79-1.215,2.139,1.373c.106.053.449.29.449.5,0,.29-.29.423-.819.687v5.807l-2.242.37v-.768H189.4a9.472,9.472,0,0,1-.185,1.188l2.112,1.056h4.643l.845-1.268,2.06,1.32c.158.106.447.317.447.555,0,.264-.262.394-.9.632v5.015l-2.189.37V246.26Zm-1.611-11.4h6.784v-2.218h-6.784Zm0,3.085h6.784V235.6h-6.784Zm6.784,3.723h-5.173v3.879h5.173Zm7.019-14.147c.211.026.581.106.581.343,0,.317-.317.423-.9.66v13.143l-2.218.37V227.259Zm4.487,18.026a1.99,1.99,0,0,1-.687,1.635,4.708,4.708,0,0,1-2.245.713c-.449,0-.475-.106-.552-1.107-.108-.821-1.241-1.03-2.3-1.215v-.528H205.5V224.592l2.561.264c.238.026.579.106.579.343,0,.29-.317.422-.9.66Z" transform="translate(-184.647 -223.958)" fill="#fff"/>
      <path id="パス_201485" data-name="パス 201485" d="M216.515,229.328l1.505-1.822,2.374,1.928v.634h-6.571c.581.29.713.37.713.579,0,.345-.475.4-.871.423l-2.691,2.823h4.355L216.7,232.1l2.4,1.954v.579h-9.554V236.8h4.777l1.373-1.582,2.163,1.741v.554h-8.313v2.322h7.231l1.426-1.688,2.374,1.846v.555H210.155a20.877,20.877,0,0,0,10.424,4.54v.475a2.361,2.361,0,0,0-1.846,1.952,21.048,21.048,0,0,1-5.781-3.061,13.435,13.435,0,0,1-3.4-3.589v6.623l-2.374.37v-6.122a25.54,25.54,0,0,1-10.294,6.042l-.185-.475a25.309,25.309,0,0,0,8.34-6.755h-7.706l-.29-.713h10.135v-2.322h-7.365l-.341-.713h7.706v-2.165h-8.657l-.343-.739h6.388a1.02,1.02,0,0,1-.451-.711l-.209-.845a4.985,4.985,0,0,0-1.109-2.269h-5.649l-.29-.739h8.208V223.97l2.377.211c.317.026.658.185.658.37,0,.29-.341.423-.9.634v4.143h2.163V223.97l2.35.185c.264.026.579.158.579.4,0,.29-.262.4-.79.634v4.143h1.186a29,29,0,0,0,2.086-5.015l2.454,1.267a.541.541,0,0,1,.317.423c0,.317-.449.341-.951.42-1.109,1.162-1.582,1.664-2.876,2.9Zm-16.994-4.619c2.4.634,3.932,1.714,3.932,3.14a1.146,1.146,0,0,1-1.215,1.188c-.475,0-.9-.238-1.241-1.294a4.274,4.274,0,0,0-1.714-2.691Zm4.59,5.358c2.06,1.162,2.271,2.031,2.271,2.718a1.339,1.339,0,0,1-.449,1.107h4.011a33.5,33.5,0,0,0,1.558-3.824Z" transform="translate(-170.184 -223.943)" fill="#fff"/>
      <path id="パス_201486" data-name="パス 201486" d="M227.282,228.572l1.424-1.769,2.561,1.928v.555h-9.554v7.31h6.81l1.5-1.848,2.533,1.954v.634H222.425a19.236,19.236,0,0,0,10.186,7.178l-.211.5c-1.03.053-1.477.238-2.084,1.664a18.869,18.869,0,0,1-8.6-9.317v10.16l-2.348.4V239.26a27.549,27.549,0,0,1-4.434,4.275,28.223,28.223,0,0,1-5.939,3.431l-.264-.473a25.177,25.177,0,0,0,8.815-9.158h-8.472l-.447-.739h10.741v-7.31h-8.947l-.29-.713h9.238v-4.566l2.586.264c.185.026.792.106.792.475s-.449.581-1.03.845v2.982Zm-14.464,1.846c1.056.5,4.038,1.9,4.038,4.091,0,1.083-.711,1.505-1.186,1.505-.871,0-1.135-1.083-1.294-1.873a6.3,6.3,0,0,0-1.8-3.406Zm15.7.739c.235.106.526.317.526.5,0,.317-.29.37-.924.475-.394.423-2.137,2.35-2.506,2.72-.317.37-.634.658-1.267,1.318l-.449-.264a43.7,43.7,0,0,0,2.324-5.963Z" transform="translate(-155.863 -223.9)" fill="#fff"/>
      <path id="パス_201487" data-name="パス 201487" d="M227.577,230.132c.211.13.341.29.341.42,0,.264-.394.345-1.107.449a22.182,22.182,0,0,1-5.781,5.12l-.4-.422a21.743,21.743,0,0,0,4.672-6.914Zm9.711,7.152,2.35,1.609a.743.743,0,0,1,.368.53c0,.341-.552.367-1.371.42a23.476,23.476,0,0,1-4.143,3.615,26.954,26.954,0,0,0,10,2.007v.5a2.4,2.4,0,0,0-1.848,1.9,23.664,23.664,0,0,1-9.634-3.457c-1.609.977-4.672,2.744-12.14,3.563l-.079-.554,1.135-.238a24.483,24.483,0,0,0,9.581-3.9A14.566,14.566,0,0,1,229,240.53a24.121,24.121,0,0,1-7.02,4.909l-.29-.449a24.606,24.606,0,0,0,8.234-9.211l2.454.9c.29.132.422.29.422.422,0,.264-.315.343-1.054.5-.317.343-.343.4-.713.792h5.33Zm-2.9-12.932c.343.053.528.238.528.423,0,.317-.343.475-1.056.792V227.2h6.467l1.4-1.688,2.427,1.82v.607h-7.468v6.441c0,1.107-.238,1.5-.711,1.767a3.77,3.77,0,0,1-1.664.5c-.713,0-.713-.343-.739-.634,0-.948-.5-1.03-1.769-1.215v-.555h2.667v-6.307h-2.8a13.93,13.93,0,0,1-.869,5.094c-1.584,3.378-5.807,4.645-7.442,5.147l-.238-.528c5.778-2.561,6.174-5.279,6.333-9.713h-8.208l-.4-.739h10.635v-3.219ZM230.374,239.1c-.343.4-.475.5-.9.924a12.392,12.392,0,0,0,3.114,2.48,18.011,18.011,0,0,0,3.512-3.4Zm7.284-9.763a17.974,17.974,0,0,1,4.7,2.321c.343.29,1.793,1.479,1.793,2.746a1.189,1.189,0,0,1-1.16,1.239c-.713,0-.9-.317-1.822-1.978a11.118,11.118,0,0,0-3.774-3.827Z" transform="translate(-141.445 -223.929)" fill="#fff"/>
      <path id="パス_201488" data-name="パス 201488" d="M240.619,228.349c-.026.211-.1.739-.132.977a9.361,9.361,0,0,1,.9-.37,2.068,2.068,0,0,1,1.135,1.215c0,.209-.053.262-.687.711a13.736,13.736,0,0,0-1.637,1.505c-.026.687-.026.871-.051,1.268a14.965,14.965,0,0,1,2.982-2.06,12.07,12.07,0,0,1,5.462-1.452c3.695,0,6.731,2.244,6.731,7.127a7.607,7.607,0,0,1-3.406,6.571A17.364,17.364,0,0,1,244.5,246l-.132-.579c2.509-.555,8.6-1.9,8.6-8.6,0-3.563-2-5.543-4.986-5.543s-5.649,1.584-7.893,3.589c-.026,2.35.026,4.7.106,7.048,0,.367.053,1.952.053,2.269,0,1.03-.975,2.48-1.609,2.48-.4,0-.4-.13-.607-1.4a9.134,9.134,0,0,0-2.561-4.432,13.326,13.326,0,0,0-.948,1.584c-.158.262-.264.394-.5.394-.845,0-1.135-1.661-1.135-1.82,0-.29.079-.37.713-1,.29-.29,1.556-1.9,1.848-2.269l2.322-2.9c.106-.1.475-.605.713-.9l.053-1.267.079-1.241a15.673,15.673,0,0,0-2.322,1.135c-.555.449-.607.5-.792.5-.4,0-1.822-.951-2.324-3.615l.449-.185c.449.739.977,1.609,1.743,1.609a15.774,15.774,0,0,0,3.3-.869l.053-1.109c.026-.871.026-1.215.026-1.426,0-1.03,0-1.45-.185-1.716-.422-.658-1.611-.684-1.9-.684v-.581a9.169,9.169,0,0,1,1.056-.079c1.424,0,3.668.555,3.668,1.4,0,.132-.053.185-.4.687a2.665,2.665,0,0,0-.211.819Zm-2.216,8.393c-.924,1.186-1.188,1.505-1.98,2.665l-.607.871,2.007,1.822c.185.156.29.264.581.526Z" transform="translate(-126.737 -223.439)" fill="#fff"/>
      <path id="パス_201489" data-name="パス 201489" d="M247.133,228.973c2.85,1,3.008,2.374,3.008,2.506,0,.238-.053.29-.526.924a9.367,9.367,0,0,0-1.294,4.619c0,.4.053,1.109.053,1.215a15.742,15.742,0,0,1,8.841-3.169c4.617,0,5.937,2.878,5.937,4.856,0,1.529-.843,4.408-5.147,5.7-2.137.634-4.643.737-8.443.79l-.029-.658c3.221-.211,11.376-.739,11.376-6.177,0-3.034-2.852-3.483-4.117-3.483-2.852,0-7.022,1.954-7.785,4.2-.238.687-.317.951-.819.951-.026,0-1.611-.132-1.611-3.3a22.024,22.024,0,0,1,1.083-6.071,5.055,5.055,0,0,0,.185-1.188c0-.581-.211-.764-.924-1.292Zm9.132-3.2a2.633,2.633,0,0,1,2.638,1.848c0,.528-.422.607-.687.607s-1.477-.158-1.741-.158a12.588,12.588,0,0,0-4.751,1.186l-.317-.526c1.4-.739,1.741-.9,2.77-1.347-2.586-.449-3.4-.819-4.645-2.744l.4-.29a5.142,5.142,0,0,0,2.663,1.267,9,9,0,0,0,2.456.209Z" transform="translate(-110.301 -223.482)" fill="#fff"/>
      <path id="パス_201490" data-name="パス 201490" d="M257.641,228.219a2.538,2.538,0,0,0,2.3,1.479,25.046,25.046,0,0,0,2.957-.264,15.268,15.268,0,0,0,.948-3.4c0-.689-.632-.819-1.82-1.083l.106-.528c2.744-.106,4.566.766,4.566,1.32,0,.077-.029.132-.264.5a10.567,10.567,0,0,0-1.32,2.8,9.874,9.874,0,0,0,1.925-.555,7.569,7.569,0,0,1,1.056-.5c.211,0,1.584.713,1.584,1.452,0,.367-.792.581-.924.605-.5.108-1.08.24-2.876.528l-1.479.238c-.394.977-.869,2.139-1.215,2.9l-1.212,2.929c-.554,1.318-1.267,3.061-1.952,4.909l-.555,1.529c-.528,1.426-.739,1.8-1.188,1.8a1.967,1.967,0,0,1-1.268-1.743c0-.317.079-.449.766-1.635a94.464,94.464,0,0,0,4.539-10.4c-.37.026-2.033.185-2.348.185-1.138,0-1.954-.475-2.825-2.823ZM273.9,240.781c2.876,1.135,5.411,2.348,5.411,3.827,0,.37-.185,1-.792,1a1.4,1.4,0,0,1-.792-.315l-.845-.687a28.7,28.7,0,0,0-2.691-1.637,3.164,3.164,0,0,1-1.135,2.746,7.183,7.183,0,0,1-3.668.922c-3.3,0-5.094-1.529-5.094-3.351,0-.764.37-3.4,4.883-3.4a12.088,12.088,0,0,1,2.482.264,37.869,37.869,0,0,1-.555-4.856c0-2.453,1.952-3.431,4.194-3.615a12.921,12.921,0,0,0-4.643-2.189l.051-.475c5.807,0,7.972,2.348,7.972,3.774,0,.816-.5.948-.845.948-.158,0-.343-.024-1.03-.579a2.63,2.63,0,0,0-1.661-.66,2.186,2.186,0,0,0-2.165,2.429,25.787,25.787,0,0,0,.766,5.039Zm-5.385.605c-.449,0-3.166,0-3.166,1.848,0,1.584,2.057,1.9,3.325,1.9a4.256,4.256,0,0,0,2.638-.713,1.9,1.9,0,0,0,.662-1.69c0-.079,0-.394-.029-.764A10.855,10.855,0,0,0,268.513,241.387Z" transform="translate(-97.781 -223.415)" fill="#fff"/>
      <path id="パス_201491" data-name="パス 201491" d="M269.787,225.1a7.084,7.084,0,0,1,3.325,2.031,2.567,2.567,0,0,1,.792,1.373c0,.211-.053.343-.37.687-1.083,1.212-1.584,4.088-1.584,5.62a8.581,8.581,0,0,0,1.954,5.649c.739-1,.948-1.32,1.241-1.769.526-.819,2.9-4.434,3.378-5.173l.422.345c-.37.737-2.033,3.93-2.376,4.564a10.764,10.764,0,0,0-1.215,3.246c0,.238.264,1.267.264,1.505a.911.911,0,0,1-.843,1c-1.294,0-4.408-3.063-4.408-9.475a26.391,26.391,0,0,1,.317-3.774l.238-1.822a7.174,7.174,0,0,0,.106-1.186,2.64,2.64,0,0,0-1.505-2.324Zm13.458,2.216c1.8.951,6.89,3.642,6.89,11.744,0,1.056-.185,2.348-1.426,2.348-.581,0-.792-.447-1-.975-.5-1.241-1.452-1.32-4.408-1.558v-.528c.819-.026,1.954-.053,3.538-.158l.9-.053a13.1,13.1,0,0,0-4.777-10.344Z" transform="translate(-82.756 -222.589)" fill="#fff"/>
      <path id="パス_201492" data-name="パス 201492" d="M290.758,225.269h-5.646v17.337h-1.241V224.054h6.887Z" transform="translate(-65.532 -223.843)" fill="#fff"/>
      <path id="パス_201493" data-name="パス 201493" d="M308.145,228.954,309.6,227l2.535,2.084v.579H301.467v5.517h5.041l1.373-1.793,2.427,2.007v.5H290.647l-.4-.713h8.736v-5.517H288.722l-.37-.711h10.635v-4.936l3.034.4c.053.026.5.079.5.37,0,.264-.106.317-1.056.713v3.457Zm-15.7,9.711c.081,1.162.106,1.584.106,1.98,0,5.094-2.374,5.279-2.85,5.279a1.209,1.209,0,0,1-1.294-1.215c0-.37.081-.687.792-1.162,1.347-.951,2.35-1.714,2.614-4.883Zm4.777-.13c.185.024.475.13.475.367s-.079.293-.871.713V244.5c0,.581.185.766.819.766h5.675c.528,0,1.162-.132,1.582-1.664l.422-1.635h.581c-.026.447-.026.816-.026,1.133,0,1.611.264,1.9,1.109,2.244a2.084,2.084,0,0,1-2.324,1.9h-8.181c-1.107,0-1.846-.317-1.846-1.767v-7.257Zm.528-1.848a9.083,9.083,0,0,1,4.143,1.848,3.123,3.123,0,0,1,1,2.057,1.38,1.38,0,0,1-1.294,1.426c-.766,0-1-.713-1.268-1.479a5.869,5.869,0,0,0-2.77-3.4Zm8.815,1.978a12.065,12.065,0,0,1,4.434,3.221,4.224,4.224,0,0,1,.951,2.427,1.413,1.413,0,0,1-1.294,1.582c-.475,0-.845-.288-1.056-.922l-.475-1.532a9.86,9.86,0,0,0-2.876-4.355Z" transform="translate(-60.153 -223.885)" fill="#fff"/>
      <path id="パス_201494" data-name="パス 201494" d="M300.424,243.67h5.646V226.333h1.215v18.579h-6.861Z" transform="translate(-45.661 -221.107)" fill="#fff"/>
    </g>
  </g>
</svg>
