<svg xmlns="http://www.w3.org/2000/svg" width="792.98" height="33.868" viewBox="0 0 792.98 33.868">
  <g id="グループ_89042" data-name="グループ 89042" transform="translate(-45.195 -223.922)">
    <path id="パス_201472" data-name="パス 201472" d="M54.879,232.561c.295.181.476.405.476.586,0,.368-.549.482-1.544.626-3.017,3.389-4.273,4.751-8.063,7.143l-.552-.589a30.329,30.329,0,0,0,6.516-9.644Zm13.545,9.976L71.7,244.78a1.043,1.043,0,0,1,.516.74c0,.476-.773.513-1.915.586a32.746,32.746,0,0,1-5.78,5.043c2.8,1.1,6.332,2.468,13.954,2.8v.7A3.344,3.344,0,0,0,75.9,257.3c-7.769-1.252-11.781-3.754-13.438-4.822-2.244,1.363-6.516,3.828-16.934,4.969l-.107-.773L47,256.34a34.151,34.151,0,0,0,13.364-5.445,20.317,20.317,0,0,1-3.5-3.831,33.648,33.648,0,0,1-9.792,6.848l-.405-.626a34.324,34.324,0,0,0,11.486-12.849l3.422,1.252c.408.184.589.405.589.589,0,.368-.439.479-1.47.7-.442.479-.479.552-.994,1.1h7.434ZM64.376,224.5c.479.074.737.332.737.589,0,.442-.479.663-1.473,1.1v2.281H72.66l1.949-2.354L78,228.657v.847H67.577v8.984c0,1.544-.331,2.1-.991,2.465a5.258,5.258,0,0,1-2.32.7c-.995,0-.995-.479-1.031-.884,0-1.323-.7-1.436-2.465-1.694V238.3h3.717v-8.8h-3.9c-.107,2.21-.218,5.043-1.212,7.106-2.21,4.712-8.1,6.48-10.381,7.179l-.331-.737c8.06-3.573,8.613-7.364,8.834-13.548H46.042l-.549-1.031H60.327v-4.491Zm-5.6,20.578c-.479.553-.663.7-1.252,1.289a17.284,17.284,0,0,0,4.343,3.459,25.123,25.123,0,0,0,4.9-4.748Zm10.16-13.619a25.072,25.072,0,0,1,6.553,3.238c.479.405,2.5,2.063,2.5,3.831a1.658,1.658,0,0,1-1.618,1.728c-.995,0-1.252-.442-2.541-2.759a15.507,15.507,0,0,0-5.264-5.338Z" transform="translate(0 0.124)" fill="#fff"/>
    <path id="パス_201473" data-name="パス 201473" d="M68.233,229.912c-.037.295-.147,1.031-.184,1.363a12.728,12.728,0,0,1,1.252-.516,2.885,2.885,0,0,1,1.584,1.694c0,.292-.074.365-.958.991a18.912,18.912,0,0,0-2.281,2.1c-.04.958-.04,1.216-.074,1.768a20.874,20.874,0,0,1,4.159-2.873,16.847,16.847,0,0,1,7.618-2.026c5.154,0,9.389,3.131,9.389,9.942a10.616,10.616,0,0,1-4.748,9.165c-3.536,2.244-7.916,2.759-10.347,3.017l-.181-.807c3.5-.774,12-2.652,12-12,0-4.969-2.8-7.732-6.955-7.732S70.627,236.207,67.5,239c-.04,3.278.034,6.553.147,9.831,0,.513.071,2.723.071,3.165,0,1.436-1.36,3.459-2.244,3.459-.552,0-.552-.181-.847-1.952-.332-2.281-1.989-4.454-3.57-6.182a18.251,18.251,0,0,0-1.326,2.21c-.221.365-.368.549-.7.549-1.179,0-1.584-2.317-1.584-2.538,0-.405.111-.516.995-1.4.405-.405,2.173-2.649,2.575-3.165l3.241-4.052c.147-.144.663-.844.995-1.249l.074-1.768.111-1.731a22.046,22.046,0,0,0-3.241,1.584c-.77.626-.844.7-1.1.7-.552,0-2.541-1.326-3.241-5.043l.626-.258c.626,1.031,1.363,2.244,2.431,2.244a22,22,0,0,0,4.6-1.212l.074-1.547c.037-1.215.037-1.694.037-1.989,0-1.436,0-2.023-.258-2.394-.589-.918-2.247-.955-2.652-.955v-.81a12.8,12.8,0,0,1,1.473-.111c1.989,0,5.117.774,5.117,1.949,0,.184-.074.258-.552.958a3.717,3.717,0,0,0-.295,1.142Zm-3.091,11.707c-1.289,1.654-1.657,2.1-2.762,3.717l-.847,1.215,2.8,2.542c.258.218.405.368.81.734Z" transform="translate(25.355 0.969)" fill="#fff"/>
    <path id="パス_201474" data-name="パス 201474" d="M71.121,224.462c3.128.479,5.448,2.284,5.448,4.012,0,.184-.037.221-.442.663-.958.958-2.87,5.411-2.87,10.086a19.45,19.45,0,0,0,.442,3.868c2.244-10.826,7.066-16.345,11.523-16.345,4.748,0,6.035,4.9,6.035,12,0,9.239-2.317,14.8-15.752,16.492l-.184-.847c8.318-1.875,12.735-5,12.735-16.087,0-1.065-.037-6.513-1.36-8.613a2.57,2.57,0,0,0-2.21-1.289c-4.564,0-9.239,9.828-9.239,15.719a8.5,8.5,0,0,0,.107,1.363c0,.074.15.81.15,1.105a1.116,1.116,0,0,1-1.142,1.1c-1.326,0-3.352-1.989-3.352-8.027a41.927,41.927,0,0,1,1.436-9.57,10.433,10.433,0,0,0,.589-2.726c0-1.323-1.547-1.912-2.21-2.17Z" transform="translate(53.042 1.118)" fill="#fff"/>
    <path id="パス_201475" data-name="パス 201475" d="M85.58,245.322a.551.551,0,0,1,.516.513c0,.479-.332.553-1.105.737-1.326,4.712-2.026,6.406-3.68,9.018l-.74-.365c.958-2.615,1.473-5.043,1.768-10.531Zm7.913-14.064a.834.834,0,0,1,.405.7c0,.586-.479.552-1.47.516L90.841,234.5c-2.428,3.02-3.422,4.122-4.454,5.19H89.3l1.658-.037a8.536,8.536,0,0,0-1.216-2.023l.368-.442c2.759,1.176,3.5,2.207,3.938,4.454a13.024,13.024,0,0,1,.921-1.252l.994-1.031a4.749,4.749,0,0,0,.626-2.575l.773.074a15.546,15.546,0,0,1,.258,1.547h12.367l1.068-1.51,3.091,2.649a.933.933,0,0,1,.331.626c0,.552-.365.552-1.51.589-2.87,2.578-3.091,2.762-3.533,3.02l-.479-.332a37.51,37.51,0,0,0,1.252-4.052H97.689c-.144,3.2-1.065,4.236-2.281,4.236a1.419,1.419,0,0,1-1.437-1.326c-.295.7-.626,1.176-1.326,1.176-.773,0-.958-.549-1.065-1.065a16.072,16.072,0,0,0-.331-1.694c-1.031.221-1.105.258-2.063.479v15.461l-2.983.553V241.9c-1.249.295-1.691.405-2.907.7-.147.258-.442.774-.773.774-.258,0-.553-.442-.663-.774l-1.105-2.91c.626,0,3.61.037,4.27.037a88.479,88.479,0,0,0,5.157-10.27ZM89.85,225.7a.789.789,0,0,1,.589.663c0,.549-.552.589-1.473.7-.589.74-2.428,3.094-3.975,5.083,1.249,1.36,1.4,2.023,1.4,2.612,0,.737-.365,1.694-1.286,1.694-.958,0-1.252-.7-1.473-1.4a8.97,8.97,0,0,0-2.689-4.27l.331-.552a13.229,13.229,0,0,1,2.615,1.105,68.082,68.082,0,0,0,2.5-7Zm.258,18.883a6.643,6.643,0,0,1,4.122,2.836,3.88,3.88,0,0,1,.589,1.949c0,1.329-.81,1.915-1.547,1.915-.884,0-1.028-.737-1.1-1.433a10.228,10.228,0,0,0-1.071-3.241,6.339,6.339,0,0,0-1.323-1.621Zm12.038-2.538c.442.037.807.295.807.626,0,.405-.405.589-.955.847-.442,6.406-.958,10.749-10.2,13.766l-.295-.737c6.516-3.2,7.327-7,7.253-14.945Zm7.324-13.107,1.878-2.354,3.128,2.649v.7h-9.607v4.233h3.643l1.657-2.17,3.128,2.538v.663H95.519l-.479-1.031h6.734v-4.233H93.383l-.368-.994h8.76v-4.859l3.61.405c.442.074.847.295.847.626,0,.442-.442.589-1.363.884v2.944Zm2.8,19.476h.847c-.037.365-.15,1.51-.15,2.17,0,2.431.482,2.615,1.437,2.983-.476,1.8-.807,2.98-2.907,2.98h-4.306c-2.026,0-2.689-.7-2.689-2.465V241.675l3.462.479c.4.037.773.332.773.552,0,.332-.442.513-1.105.81v9.055c0,.7.218.994.955.994h1.473c.737,0,1.105-.479,1.547-2.357Z" transform="translate(73.208 0.323)" fill="#fff"/>
    <path id="パス_201476" data-name="パス 201476" d="M94.057,225.449c4.454,1.731,5.264,4.2,5.264,4.785,0,.442-.074.516-.7,1.176A5.657,5.657,0,0,0,97.59,233.4a19.129,19.129,0,0,0-1.581,8.248,15.436,15.436,0,0,0,.734,5.338l4.969-8.505.7.295c-1.176,2.5-3.717,8.027-3.717,10.973a2.963,2.963,0,0,0,.037.586l.221,1.657c.074.663-.221,1.544-1.1,1.544-1.694,0-4.012-4.488-4.012-10.525a58.069,58.069,0,0,1,1.286-10.933,17.58,17.58,0,0,0,.516-3.278c0-1.1-.516-1.584-2.023-2.723Zm20.1,7.655-.037-2.023c-.037-5.046-.037-5.117-3.017-6l.11-.7c4.638-.111,6.624,1.694,6.624,2.284a6.02,6.02,0,0,1-.365.955,5.294,5.294,0,0,0-.368,1.878c0,.479.074,2.759.074,3.2a18.1,18.1,0,0,0,3.5-.807,7.7,7.7,0,0,1,1.068-.589c.773,0,2.317,1.139,2.317,2.1,0,.663-.921.81-1.433.921-.553.074-3.757.516-5.448.7l-.037,3.68c-.037.995-.037,5.411-.037,6.332-.074,2.726-.114,5.78-4.527,8.874a19.322,19.322,0,0,1-6.038,2.723l-.331-.737a15.046,15.046,0,0,0,6.48-5.19c1.286-2.1,1.507-4.306,1.507-10.712,0-1.068,0-2.247-.037-4.6l-2.5.258c-1.8.184-2.8.258-3.646.258-2.354,0-3.68-.368-4.969-4.012l.589-.331c1.142,1.654,1.879,2.133,3.831,2.133.955,0,3.459-.258,4.638-.368Z" transform="translate(100.202 0.94)" fill="#fff"/>
    <path id="パス_201477" data-name="パス 201477" d="M114.292,238.515a21.966,21.966,0,0,1,9.273-2.354c5.82,0,9.021,3.238,9.021,7.987,0,6.48-5.669,9.61-12.259,9.61-4.859,0-8.208-1.878-8.208-4.859,0-1.952,1.47-3.536,4.159-3.536a10.156,10.156,0,0,1,6.848,2.873,4.571,4.571,0,0,1,1.728,2.686,7.5,7.5,0,0,0,3.131-2.612,8.731,8.731,0,0,0,1.326-4.567c0-3.275-1.842-6.074-6.553-6.074a18.958,18.958,0,0,0-13.291,6.3c-1.694,1.915-1.879,2.136-2.207,2.136-.847,0-1.621-1.436-1.621-2.394a1.072,1.072,0,0,1,.553-.955l.958-.7A163.861,163.861,0,0,0,122.2,227.36l-1.879.368c-1.765.331-5.154.995-6.259,1.842-.7.553-.847.589-1.028.589-.592,0-1.621-.958-2.136-1.621a8.369,8.369,0,0,1-1.473-3.386l.774-.331c.774,1.363,1.326,1.986,2.873,1.986a7.079,7.079,0,0,0,.918-.074l6.185-.734,1.584-.224a4.012,4.012,0,0,0,1.621-.439c.037,0,.884-.442.921-.442.221,0,.332.111,1.179.958,1.286,1.286,1.433,1.4,1.433,1.728,0,.221-.221.295-.773.516a4.264,4.264,0,0,0-1.581.921c-1,.884-2.284,2.026-7.548,6.958Zm1.286,8.8a1.784,1.784,0,0,0-2.026,1.691c0,1.4,1.694,3.02,5.709,3.02a16.983,16.983,0,0,0,3.091-.295C118.6,247.462,116.314,247.315,115.578,247.315Z" transform="translate(125.085 1.863)" fill="#fff"/>
    <path id="パス_201478" data-name="パス 201478" d="M129.561,225.748h-7.879v24.184h-1.731V224.054h9.61Z" transform="translate(154.703 0.273)" fill="#fff"/>
    <path id="パス_201479" data-name="パス 201479" d="M124.372,242.854c2.686-.479,3.533-.663,5.7-1.216v-8.281h-5.117l-.476-.995h5.593v-8.284l3.757.516c.479.037.958.332.958.626,0,.405-.626.737-1.547,1.142v6h1.1l1.691-2.284,3.02,2.578v.7h-5.817v7.471a28.446,28.446,0,0,0,4.049-1.437l.332.7c-1.8,1.031-2.281,1.289-3.238,1.768l-1.142.663v11.3c0,1.36-.221,2.244-2.063,2.87a5.488,5.488,0,0,1-1.986.332c-.589,0-.737-.184-.81-.884-.037-.991-.074-1.36-1.473-1.654l-1.473-.295v-.7h4.638v-9.276c-1.286.66-1.728.881-3.128,1.544-.405,1.068-.442,1.179-.774,1.179-.258,0-.405-.332-.479-.479Zm9.423,13.84a27.021,27.021,0,0,0,10.86-6.48,20.587,20.587,0,0,1-4.527-8.208h-2.247l-.479-.995h13.364l1.031-1.436,2.944,2.026c.147.074.663.442.663.773,0,.405-.258.442-1.694.737a32.479,32.479,0,0,1-5.6,7.14,29.475,29.475,0,0,0,9.758,3.978l-.11.7c-1.363.331-1.842.663-2.431,2.284a29.139,29.139,0,0,1-9.055-5.264c-3.864,3.054-6.185,3.938-12.222,5.522Zm18.113-30.553c.107.074.7.513.7.81,0,.405-.549.589-1.4.847v6.477c0,.737.184.921.921.921h1.839c.405,0,.737-.295,1.179-2.023l.7-2.762h.773c-.037.368-.074,1.36-.074,2.317,0,1.658.258,2.136,1.47,2.394-.4,2.247-.958,2.723-3.128,2.723h-4.122c-2.431,0-2.578-1.212-2.578-2.354v-8.248h-4.822v2.5c0,6.148-3.975,8.321-5.927,9.426l-.479-.556c2.431-1.986,3.389-3.57,3.389-8.429V224.63l3.349,1.621h4.2l1.215-1.879Zm-10.786,15.866a17.012,17.012,0,0,0,4.933,6.737,27.224,27.224,0,0,0,4.564-6.737Z" transform="translate(163.852 0.323)" fill="#fff"/>
    <path id="パス_201480" data-name="パス 201480" d="M149.264,254.475a45.722,45.722,0,0,1-12.554,3.057l-.218-.81a29.711,29.711,0,0,0,6.222-2.1,27.35,27.35,0,0,0,5.375-3.168l2.8,2.247a.882.882,0,0,1,.295.552c0,.405-.479.368-.737.332Zm-4.085-3.312v.884l-3.165.516V237.655l-2.394,1.326c-.332,1.028-.368,1.139-.663,1.139a.69.69,0,0,1-.516-.405L136.9,236.55l2.023-.516c4.38-1.105,6.664-1.8,8.469-2.354l.295.623c-1.842,1.142-2.357,1.436-5.227,3.094l1.765.884c4.38-1.584,8.911-3.683,10.307-9.9h-2.87a20.555,20.555,0,0,1-4.417,4.712l-.626-.482a25.89,25.89,0,0,0,3.754-8.687l3.828,1.105c.258.074.442.258.442.442,0,.368-.147.405-1.581.921-.332.479-.368.516-.663.991h11.154l1.36-1.875,3.278,2.649a.892.892,0,0,1,.332.663c0,.368-.552.405-.774.405l-1.363.111c-2.1,1.842-2.689,2.284-3.754,3.094l-.626-.442.516-1.252.958-2.354h-5.6c1.145,2.612,2.542,5.817,11.6,8.171l-.074.737a2.876,2.876,0,0,0-2.468,2.133c-5.485-2.17-7.8-5.117-9.607-9.681-1.326,3.459-2.615,6.48-11.228,8.911h14.393l.737-1.215,3.094,2.023c.074.04.368.258.368.442,0,.295-.368.479-.81.7v11.007l-3.2.479v-.921ZM138.809,225.1c1.8.368,3.462.7,4.564,1.768a3.911,3.911,0,0,1,1.326,2.5,1.656,1.656,0,0,1-1.584,1.731c-.918,0-1.215-.7-1.433-1.326a8.926,8.926,0,0,0-3.131-4.085Zm21.867,14.54h-15.5v2.652h15.5Zm0,3.647h-15.5v2.8h15.5Zm0,3.791h-15.5v3.094h15.5Zm-5.006,5.043a39.509,39.509,0,0,1,9.095,1.105c3.238.995,3.791,2.5,3.791,3.165a1.338,1.338,0,0,1-1.4,1.363c-.479,0-.958-.074-2.284-.958a26.889,26.889,0,0,0-9.313-3.9Z" transform="translate(188.933)" fill="#fff"/>
    <path id="パス_201481" data-name="パス 201481" d="M157.979,224.892c.626.184,1.068.589,1.068.847,0,.442-.921.663-1.436.81l-.258.4c3.349,1.1,6.259,2.5,6.259,4.788a1.407,1.407,0,0,1-1.326,1.544,1.8,1.8,0,0,1-1.436-.958l-.844-1.544a8.848,8.848,0,0,0-3.057-3.128c-3.091,4.969-4.748,7.1-8.027,10.23l-.549-.476a42.44,42.44,0,0,0,6.366-13.475Zm.737,15.313H155.07v16.529l-2.907.479V240.205h-3.131l-.365-1.031h9.607l1.249-1.765,2.468,1.728c.295.221.81.553.81.847,0,.479-.81.773-1.216.921v9.018c0,1.1-.295,1.584-1.507,2.1a5.094,5.094,0,0,1-1.584.405c-.516,0-.516-.295-.589-1.289-.074-.918-1.326-1.1-2.284-1.249v-.626h3.094Zm-1.952-6.074,1.621-1.986,3.054,2.281v.7h-8.171l-.479-.995Zm14.135,17.6c.482.332.7.663.7.81,0,.516-.991.516-1.544.516A36.553,36.553,0,0,1,159.6,257.36l-.221-.663a24.275,24.275,0,0,0,8.834-6.774Zm5.6-24.405,1.8-2.21,3.533,2.578v.589h-8.208l-.847,1.176c-1.105,1.547-1.581,2.247-2.394,3.352h5.488l1.216-1.657,2.723,1.765c.295.184.884.556.884.847,0,.408-.884.773-1.363.995v15.464l-3.165.516v-1.252h-8.837v.995l-3.128.549v-19.8l3.643,1.584h1.068c.442-2.615.479-2.8.737-4.527h-6.885l-.405-.958Zm-.331,6.476h-8.837v4.015h8.837Zm0,5.006h-8.837v4.162h8.837Zm0,5.154h-8.837v4.531h8.837Zm-3.61,6.553a19.25,19.25,0,0,1,7.143,2.063c1.252.773,2.1,1.657,2.1,2.763a1.651,1.651,0,0,1-1.363,1.8,2.13,2.13,0,0,1-1.215-.7l-1.915-2.06a13.071,13.071,0,0,0-4.933-3.241Z" transform="translate(213.518 0.025)" fill="#fff"/>
    <path id="パス_201482" data-name="パス 201482" d="M169.1,233.566l1.731-2.173,2.538,2.354v.81h-5.485V245.38c1.326-.292,1.768-.405,3.757-.881l.184.549c-.666.368-1.621.958-1.952,1.105l-4.638,2.431c-.295.184-1.363.734-1.878,1.031-.258.847-.368,1.176-.737,1.176-.332,0-.626-.368-.734-.626l-1.621-3.2c2.354-.405,2.944-.516,4.491-.847V234.557h-3.717l-.442-.991h4.159V224.95l3.791.626c.221.037.884.184.884.663,0,.553-.589.81-1.547,1.212v6.114Zm13.438,13.73.184.626c-.553.221-2.21.881-2.615,1.031l-6.958,2.612c-.476.184-1.323.516-2.023.773-.258.663-.332.958-.663.958-.295,0-.516-.295-.626-.479l-1.768-2.983c2.689-.4,5.264-.774,11.265-1.912Zm-7.769-2.541v2.1l-2.87.479v-12.37l2.907,1.658h2.652l.991-1.473,2.689,1.8c.184.147.479.368.479.626,0,.332-.332.516-.921.881v7.032l-2.873.442v-1.179ZM189.6,230.877l.81-.995a3.57,3.57,0,0,1-.626.037,1.122,1.122,0,0,1-1.1-.663l-.807-1.326a6.814,6.814,0,0,0-1.989-2.023l.184-.516a8.863,8.863,0,0,1,4.049,1.142,2.24,2.24,0,0,1,1.215,2.17l.147-.221,2.907,2.652v.774h-9.165a68.858,68.858,0,0,0,1.363,11.965,39.548,39.548,0,0,0,2.612-8.616l3.094,1.289c.147.074.847.331.847.7,0,.479-.442.516-1.326.663a34.471,34.471,0,0,1-4.2,9.386,14.271,14.271,0,0,0,3.5,4.712,40.868,40.868,0,0,0,2.394-5.338l.773.184-.7,3.386a10.2,10.2,0,0,0-.258,2.21,3.449,3.449,0,0,0,1.215,2.944c-.81.921-1.363,1.326-1.952,1.326-1.473,0-4.454-2.5-6.922-6.771a21.657,21.657,0,0,1-5.522,4.564,23.6,23.6,0,0,1-5.559,2.649l-.368-.663c4.306-2.391,7.216-4.417,10.344-9.018-1.1-3.312-2.06-7.474-2.391-15.571h-9.795l-.442-1.031h10.2c-.037-1.547-.037-2.468-.074-6.811l3.459.405c.331.037.7.258.7.516,0,.442-.663.773-1.031.958v4.933Zm-11.781,6.734h-3.054v6.148h3.054Z" transform="translate(238.128 0.298)" fill="#fff"/>
    <path id="パス_201483" data-name="パス 201483" d="M172.5,250.517h7.879V226.333h1.694v25.915H172.5Z" transform="translate(263.456 4.989)" fill="#fff"/>
    <path id="パス_201484" data-name="パス 201484" d="M193.594,255.067v1.765l-3.02.405v-9.165c-1.179,3.717-2.723,5.485-5.375,7.876l-.552-.549a17.089,17.089,0,0,0,2.394-4.309,30.531,30.531,0,0,0,1.249-8.281v-8.395a28.464,28.464,0,0,1-3.2,2.026l-.442-.589a38.355,38.355,0,0,0,9.205-11.891l3.975,1.068c.295.074.553.332.553.516,0,.405-.442.479-1.179.626,2.063.476,8.469,1.879,8.469,5.448a1.35,1.35,0,0,1-1.216,1.473c-.663,0-.81-.147-2.431-2.136a14.761,14.761,0,0,0-5.743-4.122,51.552,51.552,0,0,1-4.491,4.748H197.2l1.547-1.842,2.759,2.1v.737h-9.57l-.368-.81c-1.142.994-1.473,1.286-2.612,2.17l2.317,1.142h9.095l1.1-1.694,2.983,1.915c.147.074.626.405.626.7,0,.405-.405.589-1.142.958v8.1l-3.128.516V244.5h-9.537a13.217,13.217,0,0,1-.258,1.658l2.947,1.473h6.477l1.179-1.768,2.873,1.842c.221.147.623.442.623.773,0,.368-.365.549-1.249.881v7l-3.054.516v-1.8Zm-2.247-15.9h9.463V236.07h-9.463Zm0,4.3h9.463v-3.275h-9.463Zm9.463,5.193h-7.216v5.411h7.216Zm9.791-19.733c.295.037.81.147.81.479,0,.442-.442.589-1.252.921v18.334l-3.094.516V228.562Zm6.259,25.145a2.775,2.775,0,0,1-.958,2.281,6.567,6.567,0,0,1-3.131.995c-.626,0-.663-.147-.77-1.544-.15-1.145-1.731-1.436-3.2-1.694v-.737h4.933v-28.53l3.573.368c.331.037.807.147.807.479,0,.405-.442.589-1.249.921Z" transform="translate(288.587 0.074)" fill="#fff"/>
    <path id="パス_201485" data-name="パス 201485" d="M224.341,231.444l2.1-2.542,3.312,2.689v.884h-9.165c.81.405.995.516.995.807,0,.482-.663.556-1.215.589l-3.754,3.938h6.074l1.912-2.5,3.352,2.726v.807H214.624v3.02h6.664l1.915-2.207,3.017,2.428v.773h-11.6v3.238H224.71l1.989-2.354,3.312,2.575v.774h-14.54c4.417,3.864,9.976,5.6,14.54,6.332v.663a3.293,3.293,0,0,0-2.575,2.723,29.359,29.359,0,0,1-8.063-4.27,18.74,18.74,0,0,1-4.748-5.006v9.239l-3.312.516v-8.539a35.627,35.627,0,0,1-14.359,8.429l-.258-.663a35.3,35.3,0,0,0,11.633-9.423H197.579l-.405-.995h14.138v-3.238H201.038l-.476-.995h10.749v-3.02H199.236l-.479-1.031h8.911a1.423,1.423,0,0,1-.629-.991l-.292-1.179a6.953,6.953,0,0,0-1.547-3.165h-7.879l-.405-1.031h11.449V223.97l3.315.295c.442.037.918.258.918.516,0,.405-.476.589-1.249.884v5.78h3.017V223.97l3.278.258c.368.037.807.221.807.552,0,.405-.365.553-1.1.884v5.78H219a40.458,40.458,0,0,0,2.91-7l3.422,1.768a.755.755,0,0,1,.442.589c0,.442-.626.476-1.326.586-1.547,1.621-2.207,2.32-4.012,4.052ZM200.636,225c3.349.884,5.485,2.391,5.485,4.38a1.6,1.6,0,0,1-1.694,1.657c-.663,0-1.252-.331-1.731-1.8a5.962,5.962,0,0,0-2.391-3.754Zm6.4,7.474c2.873,1.621,3.168,2.833,3.168,3.791a1.868,1.868,0,0,1-.626,1.544h5.6a46.727,46.727,0,0,0,2.173-5.335Z" transform="translate(313.52 0.099)" fill="#fff"/>
    <path id="パス_201486" data-name="パス 201486" d="M234.65,230.375l1.986-2.468,3.573,2.689v.773H226.881v10.2h9.5l2.1-2.578,3.533,2.726v.884H227.876a26.832,26.832,0,0,0,14.208,10.013l-.295.7c-1.436.074-2.06.331-2.907,2.321-6.48-3.757-9.463-7.511-12-13v14.172l-3.275.552V245.283a38.429,38.429,0,0,1-6.185,5.964,39.367,39.367,0,0,1-8.284,4.785l-.368-.66a35.12,35.12,0,0,0,12.3-12.775H209.247l-.623-1.031h14.982v-10.2h-12.48l-.405-.995h12.886v-6.369l3.607.368c.258.037,1.105.147,1.105.663s-.626.81-1.436,1.179v4.159Zm-20.175,2.575c1.473.7,5.632,2.652,5.632,5.706,0,1.51-.991,2.1-1.654,2.1-1.216,0-1.584-1.51-1.8-2.612a8.785,8.785,0,0,0-2.5-4.751Zm21.907,1.031c.328.147.734.442.734.7,0,.442-.405.516-1.289.663-.549.589-2.98,3.278-3.5,3.794-.442.516-.884.918-1.768,1.839l-.626-.368a60.961,60.961,0,0,0,3.241-8.318Z" transform="translate(338.206 0.174)" fill="#fff"/>
    <path id="パス_201487" data-name="パス 201487" d="M230.319,232.561c.295.181.476.405.476.586,0,.368-.549.482-1.544.626-3.02,3.389-4.27,4.751-8.063,7.143l-.553-.589a30.329,30.329,0,0,0,6.516-9.644Zm13.545,9.976,3.278,2.244a1.037,1.037,0,0,1,.513.74c0,.476-.771.513-1.912.586a32.745,32.745,0,0,1-5.78,5.043c2.8,1.1,6.332,2.468,13.954,2.8v.7a3.344,3.344,0,0,0-2.578,2.649c-7.769-1.252-11.78-3.754-13.438-4.822-2.244,1.363-6.516,3.828-16.934,4.969l-.111-.773,1.584-.331a34.151,34.151,0,0,0,13.364-5.445,20.319,20.319,0,0,1-3.5-3.831,33.648,33.648,0,0,1-9.792,6.848l-.405-.626a34.324,34.324,0,0,0,11.486-12.849l3.422,1.252c.405.184.589.405.589.589,0,.368-.439.479-1.47.7-.442.479-.479.552-.995,1.1h7.434ZM239.816,224.5c.479.074.737.332.737.589,0,.442-.479.663-1.473,1.1v2.281H248.1l1.949-2.354,3.386,2.538v.847H243.017v8.984c0,1.544-.332,2.1-.991,2.465a5.258,5.258,0,0,1-2.321.7c-.994,0-.994-.479-1.031-.884,0-1.323-.7-1.436-2.468-1.694V238.3h3.72v-8.8h-3.9c-.107,2.21-.218,5.043-1.212,7.106-2.21,4.712-8.1,6.48-10.381,7.179l-.331-.737c8.06-3.573,8.613-7.364,8.834-13.548H221.482l-.553-1.031h14.835v-4.491Zm-5.6,20.578c-.479.553-.663.7-1.252,1.289a17.286,17.286,0,0,0,4.343,3.459,25.124,25.124,0,0,0,4.9-4.748Zm10.16-13.619a25.072,25.072,0,0,1,6.553,3.238c.479.405,2.5,2.063,2.5,3.831a1.658,1.658,0,0,1-1.618,1.728c-.995,0-1.252-.442-2.541-2.759a15.509,15.509,0,0,0-5.264-5.338Z" transform="translate(363.062 0.124)" fill="#fff"/>
    <path id="パス_201488" data-name="パス 201488" d="M243.673,229.912c-.037.295-.144,1.031-.184,1.363a13.056,13.056,0,0,1,1.252-.516,2.885,2.885,0,0,1,1.584,1.694c0,.292-.074.365-.958.991a19.158,19.158,0,0,0-2.284,2.1c-.037.958-.037,1.216-.071,1.768a20.874,20.874,0,0,1,4.159-2.873,16.836,16.836,0,0,1,7.618-2.026c5.154,0,9.389,3.131,9.389,9.942a10.611,10.611,0,0,1-4.752,9.165c-3.533,2.244-7.913,2.759-10.344,3.017l-.184-.807c3.5-.774,12-2.652,12-12,0-4.969-2.8-7.732-6.955-7.732s-7.879,2.21-11.01,5.006c-.037,3.278.037,6.553.147,9.831,0,.513.074,2.723.074,3.165,0,1.436-1.36,3.459-2.244,3.459-.552,0-.552-.181-.847-1.952-.332-2.281-1.989-4.454-3.573-6.182a18.59,18.59,0,0,0-1.323,2.21c-.221.365-.368.549-.7.549-1.179,0-1.584-2.317-1.584-2.538,0-.405.111-.516.995-1.4.405-.405,2.17-2.649,2.578-3.165l3.238-4.052c.147-.144.663-.844.994-1.249l.074-1.768.111-1.731a21.86,21.86,0,0,0-3.238,1.584c-.774.626-.847.7-1.105.7-.552,0-2.542-1.326-3.241-5.043l.626-.258c.626,1.031,1.363,2.244,2.431,2.244a22,22,0,0,0,4.6-1.212l.074-1.547c.037-1.215.037-1.694.037-1.989,0-1.436,0-2.023-.258-2.394-.589-.918-2.247-.955-2.652-.955v-.81a12.8,12.8,0,0,1,1.473-.111c1.986,0,5.117.774,5.117,1.949,0,.184-.074.258-.553.958a3.718,3.718,0,0,0-.295,1.142Zm-3.091,11.707c-1.289,1.654-1.657,2.1-2.763,3.717l-.847,1.215,2.8,2.542c.258.218.405.368.81.734Z" transform="translate(388.417 0.969)" fill="#fff"/>
    <path id="パス_201489" data-name="パス 201489" d="M247.352,230.8c3.975,1.4,4.2,3.312,4.2,3.5,0,.331-.074.405-.734,1.289a13.066,13.066,0,0,0-1.8,6.443c0,.553.074,1.547.074,1.694a21.958,21.958,0,0,1,12.333-4.42c6.44,0,8.281,4.015,8.281,6.774,0,2.133-1.176,6.148-7.179,7.953-2.98.884-6.476,1.028-11.777,1.1l-.04-.918c4.494-.295,15.869-1.031,15.869-8.616,0-4.233-3.978-4.859-5.743-4.859-3.978,0-9.795,2.726-10.86,5.853-.331.958-.442,1.326-1.142,1.326-.037,0-2.247-.184-2.247-4.6a30.721,30.721,0,0,1,1.51-8.469,7.051,7.051,0,0,0,.258-1.658c0-.81-.295-1.065-1.289-1.8Zm12.738-4.457a3.673,3.673,0,0,1,3.68,2.578c0,.737-.589.847-.958.847s-2.06-.221-2.428-.221c-2.284,0-4.052.663-6.627,1.654l-.442-.734c1.952-1.031,2.428-1.252,3.864-1.878-3.607-.626-4.748-1.142-6.48-3.828l.556-.405a7.173,7.173,0,0,0,3.714,1.768,12.549,12.549,0,0,0,3.425.292Z" transform="translate(416.749 0.894)" fill="#fff"/>
    <path id="パス_201490" data-name="パス 201490" d="M257.891,229.723c.737,1.068,1.4,2.063,3.2,2.063a34.938,34.938,0,0,0,4.125-.368,21.3,21.3,0,0,0,1.323-4.748c0-.961-.881-1.142-2.538-1.51l.147-.737c3.828-.147,6.369,1.068,6.369,1.842,0,.107-.04.184-.368.7a14.741,14.741,0,0,0-1.842,3.9,13.773,13.773,0,0,0,2.686-.773,10.556,10.556,0,0,1,1.473-.7c.295,0,2.21.994,2.21,2.026,0,.513-1.105.81-1.289.844-.7.15-1.507.335-4.012.737l-2.063.331c-.549,1.363-1.212,2.984-1.694,4.052l-1.691,4.085c-.773,1.839-1.768,4.27-2.723,6.848l-.774,2.133c-.737,1.989-1.031,2.5-1.657,2.5a2.744,2.744,0,0,1-1.768-2.431c0-.442.111-.626,1.068-2.281a131.759,131.759,0,0,0,6.332-14.506c-.516.037-2.836.258-3.275.258-1.587,0-2.726-.663-3.941-3.938Zm22.677,17.523c4.012,1.584,7.548,3.275,7.548,5.338,0,.516-.258,1.4-1.1,1.4a1.96,1.96,0,0,1-1.105-.439l-1.179-.958a40.03,40.03,0,0,0-3.754-2.284,4.414,4.414,0,0,1-1.584,3.831,10.02,10.02,0,0,1-5.117,1.286c-4.6,0-7.106-2.133-7.106-4.675,0-1.065.516-4.748,6.811-4.748a16.861,16.861,0,0,1,3.462.368,52.822,52.822,0,0,1-.773-6.774c0-3.422,2.723-4.785,5.85-5.043-1.654-1.216-2.465-1.731-6.477-3.054l.071-.663c8.1,0,11.121,3.275,11.121,5.264,0,1.139-.7,1.323-1.179,1.323-.221,0-.479-.034-1.436-.807a3.668,3.668,0,0,0-2.317-.921c-1.731,0-3.02,1.286-3.02,3.389,0,1.47.221,2.833,1.068,7.029Zm-7.511.844c-.626,0-4.417,0-4.417,2.578,0,2.21,2.87,2.652,4.638,2.652a5.937,5.937,0,0,0,3.68-.994,2.653,2.653,0,0,0,.924-2.357c0-.11,0-.549-.04-1.065A15.141,15.141,0,0,0,273.057,248.091Z" transform="translate(438.331 1.01)" fill="#fff"/>
    <path id="パス_201491" data-name="パス 201491" d="M269.891,225.1a9.882,9.882,0,0,1,4.638,2.833,3.581,3.581,0,0,1,1.105,1.915c0,.295-.074.479-.516.958-1.51,1.691-2.21,5.7-2.21,7.839a11.97,11.97,0,0,0,2.726,7.879c1.031-1.4,1.323-1.842,1.731-2.468.734-1.142,4.045-6.185,4.712-7.216l.589.482c-.516,1.028-2.836,5.482-3.315,6.366-.405.81-1.694,3.312-1.694,4.527,0,.331.368,1.768.368,2.1a1.27,1.27,0,0,1-1.176,1.4c-1.8,0-6.148-4.273-6.148-13.217a36.815,36.815,0,0,1,.442-5.264l.332-2.542a10.007,10.007,0,0,0,.147-1.654c0-1.657-.887-2.394-2.1-3.241Zm18.773,3.091c2.5,1.326,9.61,5.08,9.61,16.382,0,1.473-.258,3.275-1.989,3.275-.81,0-1.105-.623-1.4-1.36-.7-1.731-2.026-1.842-6.148-2.173v-.737c1.142-.037,2.726-.074,4.936-.221l1.249-.074a18.277,18.277,0,0,0-6.664-14.429Z" transform="translate(464.232 2.434)" fill="#fff"/>
    <path id="パス_201492" data-name="パス 201492" d="M293.478,225.748H285.6v24.184h-1.731V224.054h9.607Z" transform="translate(493.925 0.273)" fill="#fff"/>
    <path id="パス_201493" data-name="パス 201493" d="M315.962,230.9l2.023-2.723,3.536,2.907v.807H306.646v7.7h7.032l1.915-2.5,3.386,2.8v.7H291.553l-.553-.994h12.186v-7.7H288.868l-.516-.991h14.835v-6.885l4.233.553c.074.037.7.11.7.516,0,.368-.147.442-1.473.995V230.9Zm-21.906,13.545c.114,1.621.147,2.21.147,2.763,0,7.106-3.312,7.364-3.975,7.364a1.686,1.686,0,0,1-1.8-1.694c0-.516.114-.958,1.1-1.621,1.878-1.326,3.278-2.391,3.647-6.811Zm6.664-.181c.258.034.663.181.663.513s-.11.408-1.215.995v6.811c0,.81.258,1.068,1.142,1.068h7.916c.737,0,1.621-.184,2.207-2.32l.589-2.281h.81c-.037.623-.037,1.139-.037,1.581,0,2.247.368,2.652,1.547,3.131-.295,1.142-.7,2.649-3.241,2.649H299.688c-1.544,0-2.575-.442-2.575-2.465V243.825Zm.737-2.578c1.8.442,4.122,1.031,5.78,2.578a4.357,4.357,0,0,1,1.4,2.87,1.925,1.925,0,0,1-1.8,1.989c-1.068,0-1.4-.995-1.768-2.063-.773-2.431-1.949-3.422-3.864-4.748Zm12.3,2.759a16.83,16.83,0,0,1,6.185,4.494,5.892,5.892,0,0,1,1.326,3.386,1.971,1.971,0,0,1-1.8,2.207c-.663,0-1.179-.4-1.473-1.286l-.663-2.136a13.754,13.754,0,0,0-4.012-6.074Z" transform="translate(503.198 0.199)" fill="#fff"/>
    <path id="パス_201494" data-name="パス 201494" d="M300.424,250.517H308.3V226.333h1.694v25.915h-9.57Z" transform="translate(528.18 4.989)" fill="#fff"/>
  </g>
</svg>
