<svg xmlns="http://www.w3.org/2000/svg" width="749.272" height="97.903" viewBox="0 0 749.272 97.903">
  <g id="グループ_89049" data-name="グループ 89049" transform="translate(-45.991 -342.248)">
    <g id="グループ_89047" data-name="グループ 89047" transform="translate(196.801 342.248)">
      <path id="パス_201551" data-name="パス 201551" d="M128.282,372.291c-4,0-7.216-1.141-9.5-3.709-2.079-2.364-3.385-6.034-3.385-11.333s1.386-9.252,3.913-11.779a14.149,14.149,0,0,1,17.978,0c2.527,2.527,3.913,6.479,3.913,11.779s-1.306,8.969-3.385,11.333c-2.281,2.568-5.5,3.709-9.5,3.709Zm-.041-28.411a7.777,7.777,0,0,0-6.155,2.731c-1.63,2.038-2.609,5.3-2.609,10.638,0,4.526.856,8.194,2.609,10.557a8.112,8.112,0,0,0,12.352,0c1.751-2.364,2.607-6.032,2.607-10.557,0-5.338-.978-8.6-2.607-10.638a7.777,7.777,0,0,0-6.155-2.731Z" transform="translate(-115.4 -342.248)" fill="#fff"/>
      <path id="パス_201552" data-name="パス 201552" d="M149.738,366.556c-.936,0-1.873,0-2.77.08a13.888,13.888,0,0,0-2.853.491l-.408-.2-.163-2.772h-.08a7.97,7.97,0,0,1-6.2,2.977,5.983,5.983,0,0,1-4.2-1.347c-1.223-1.1-1.875-2.974-1.875-5.706v-7.826c0-2.488-.122-2.731-2.2-2.731v-1.1a17.156,17.156,0,0,0,5.5-1.836l.53.246v12.758c0,2,.246,3.383.936,4.319a3.128,3.128,0,0,0,2.651,1.223c1.834,0,3.424-1.141,4.852-3.057v-9.823c0-2.527-.124-2.731-2.162-2.731v-1.1a16.633,16.633,0,0,0,5.462-1.836l.53.246v15.694c0,2.649.163,2.936,2.444,2.936Z" transform="translate(-99.462 -337.165)" fill="#fff"/>
      <path id="パス_201553" data-name="パス 201553" d="M145.619,349.8c1.671-2.242,2.977-3.222,4.811-3.222a3.287,3.287,0,0,1,2.364.939,2.835,2.835,0,0,1,.939,2.079c0,1.1-.571,1.751-1.51,1.751-.732,0-1.3-.367-1.632-1.386-.406-1.1-.652-1.467-1.3-1.467-1.058,0-2.2,1.262-3.626,3.383v10.6c0,2.568.246,2.935,2.772,2.935v1.221h-8.969v-1.221c2.162,0,2.364-.287,2.364-2.977V352.29c0-2.529-.2-2.772-2.364-2.772v-1.1a14.913,14.913,0,0,0,5.5-1.836l.448.285.163,2.938Z" transform="translate(-87.178 -337.165)" fill="#fff"/>
      <path id="パス_201554" data-name="パス 201554" d="M174.1,346.872c.9-2.525.489-2.975-1.834-2.975v-1.386h6.888V343.9c-1.671,0-2.038.367-2.729,2.242l-9.378,25.843h-2.486l-9.741-25.313c-.939-2.446-1.223-2.772-3.059-2.772v-1.386h9.254V343.9c-2.527,0-2.814.613-1.958,2.975l7.666,20.342h.119Z" transform="translate(-72.759 -341.94)" fill="#fff"/>
      <path id="パス_201555" data-name="パス 201555" d="M172.654,366.62c0,2.609.2,2.977,2.935,2.977v1.221h-9.864V369.6c2.935,0,3.1-.367,3.1-2.977V356.471c0-2.61-.124-2.772-3.1-2.772v-1.1a18.3,18.3,0,0,0,6.481-1.836l.448.246Zm-2.16-23.6a2.372,2.372,0,1,1-.039,0Z" transform="translate(-56.38 -341.346)" fill="#fff"/>
      <path id="パス_201556" data-name="パス 201556" d="M184.017,352c-.611-3.1-1.875-3.954-4.4-3.954a5.137,5.137,0,0,0-2.812.737,2.208,2.208,0,0,0-1.143,1.995,3.147,3.147,0,0,0,1.671,2.488c1.347.734,3.3,1.425,4.241,2.079a10.9,10.9,0,0,1,3.383,2.364,4.946,4.946,0,0,1,1.549,3.546,5.1,5.1,0,0,1-2.079,4.159,9.877,9.877,0,0,1-5.993,1.712,14.937,14.937,0,0,1-6.277-1.223,35.75,35.75,0,0,0-.856-4.606l1.3-.326c.98,3.629,2.772,4.648,5.462,4.648a5.362,5.362,0,0,0,3.344-1.019,3.436,3.436,0,0,0,1.141-2.529,2.867,2.867,0,0,0-.815-2.079c-.776-.815-2.162-1.3-4.2-2.4-1.751-1.06-3.342-1.753-4.361-2.853a5.055,5.055,0,0,1-1.223-3.3,4.1,4.1,0,0,1,1.914-3.466,9.344,9.344,0,0,1,5.465-1.386,14.766,14.766,0,0,1,5.3.9,37.9,37.9,0,0,0,.732,4.28Z" transform="translate(-49.842 -337.165)" fill="#fff"/>
      <path id="パス_201557" data-name="パス 201557" d="M186.526,366.62c0,2.609.2,2.977,2.935,2.977v1.221H179.6V369.6c2.935,0,3.1-.367,3.1-2.977V356.471c0-2.61-.124-2.772-3.1-2.772v-1.1a18.3,18.3,0,0,0,6.481-1.836l.448.246Zm-2.16-23.6a2.372,2.372,0,1,1-.039,0Z" transform="translate(-40.111 -341.346)" fill="#fff"/>
      <path id="パス_201558" data-name="パス 201558" d="M194.973,367.128a9.781,9.781,0,0,1-6.688-2.162c-1.79-1.63-2.851-4.278-2.851-8.235,0-3.422.976-6.073,2.812-7.826a9.385,9.385,0,0,1,6.807-2.323,9.586,9.586,0,0,1,6.89,2.405c1.751,1.712,2.69,4.363,2.69,7.744,0,3.913-1.019,6.484-2.651,8.072a9.819,9.819,0,0,1-6.97,2.325Zm0-19.079A4.672,4.672,0,0,0,191.1,349.8c-1.1,1.467-1.671,3.668-1.671,7.009,0,3.507.693,5.749,1.712,7.133a5.185,5.185,0,0,0,7.7,0c1.06-1.384,1.712-3.626,1.712-7.133,0-3.342-.571-5.543-1.671-7.009a4.672,4.672,0,0,0-3.874-1.756Z" transform="translate(-33.265 -337.165)" fill="#fff"/>
      <path id="パス_201559" data-name="パス 201559" d="M214.225,362.521c0,2.486.2,2.894,2.079,2.894v1.221h-8.031v-1.221c2,0,2.118-.287,2.118-2.977v-9.456c0-1.591-.2-2.935-.976-3.75a3,3,0,0,0-2.366-.856c-1.671,0-3.546,1.547-5.217,3.872v10.19c0,2.69.08,2.977,2,2.977v1.221h-8.315v-1.221c2.323,0,2.486-.287,2.486-2.977V352.412c0-2.568-.243-2.935-2.486-2.894v-1.1a14.4,14.4,0,0,0,5.543-1.836l.53.285.163,3.222h.083a8.445,8.445,0,0,1,6.44-3.507,5.99,5.99,0,0,1,4.322,1.386c1.058.978,1.63,2.527,1.63,4.891Z" transform="translate(-21.443 -337.165)" fill="#fff"/>
      <path id="パス_201560" data-name="パス 201560" d="M214.954,347c0-2.814-.2-3.1-3.668-3.1v-1.386h11.248V343.9c-3.463,0-3.668.285-3.668,3.1v19.933c0,2.812.2,3.1,3.709,3.1v1.384H211.245v-1.384c3.5,0,3.709-.287,3.709-3.1Z" transform="translate(-2.996 -341.94)" fill="#fff"/>
      <path id="パス_201561" data-name="パス 201561" d="M230.646,352c-.613-3.1-1.875-3.954-4.4-3.954a5.137,5.137,0,0,0-2.812.737,2.208,2.208,0,0,0-1.143,1.995,3.147,3.147,0,0,0,1.671,2.488c1.347.734,3.3,1.425,4.241,2.079a10.859,10.859,0,0,1,3.381,2.364,4.931,4.931,0,0,1,1.551,3.546,5.1,5.1,0,0,1-2.079,4.159,9.872,9.872,0,0,1-5.992,1.712,14.945,14.945,0,0,1-6.277-1.223,35.75,35.75,0,0,0-.856-4.606l1.3-.326c.98,3.629,2.772,4.648,5.462,4.648a5.362,5.362,0,0,0,3.344-1.019,3.436,3.436,0,0,0,1.141-2.529,2.867,2.867,0,0,0-.815-2.079c-.776-.815-2.162-1.3-4.2-2.4-1.751-1.06-3.342-1.753-4.361-2.853a5.055,5.055,0,0,1-1.223-3.3,4.1,4.1,0,0,1,1.916-3.466,9.331,9.331,0,0,1,5.462-1.386,14.766,14.766,0,0,1,5.3.9,37.4,37.4,0,0,0,.732,4.28Z" transform="translate(4.841 -337.165)" fill="#fff"/>
      <path id="パス_201562" data-name="パス 201562" d="M254.661,364.465a13,13,0,0,1-3.629,5.462,10.131,10.131,0,0,1-6.766,2.364c-3.913,0-6.929-1.265-9.05-3.587-2.444-2.812-3.587-6.6-3.587-11.7,0-4.769,1.3-8.641,3.872-11.209,2.16-2.2,5.421-3.548,9.58-3.548a17.35,17.35,0,0,1,4.4.491,22.256,22.256,0,0,1,2.975.9c.287,2.242.613,4.4,1.1,6.644l-1.714.367c-.613-2.894-1.1-4.687-2.242-5.584a6.556,6.556,0,0,0-4.361-1.182,8.4,8.4,0,0,0-6.481,2.772c-1.793,2-3.016,5.421-3.016,10.19,0,4.076.815,7.746,2.772,10.353a8.042,8.042,0,0,0,6.358,3.179,7.393,7.393,0,0,0,4.973-1.792,11.393,11.393,0,0,0,3.1-4.689Z" transform="translate(20.911 -342.248)" fill="#fff"/>
      <path id="パス_201563" data-name="パス 201563" d="M253.671,367.128a9.771,9.771,0,0,1-6.686-2.162c-1.793-1.63-2.853-4.278-2.853-8.235,0-3.422.978-6.073,2.812-7.826a9.388,9.388,0,0,1,6.807-2.323,9.582,9.582,0,0,1,6.89,2.405c1.753,1.712,2.69,4.363,2.69,7.744,0,3.913-1.019,6.484-2.651,8.072a9.819,9.819,0,0,1-6.97,2.325Zm0-19.079A4.672,4.672,0,0,0,249.8,349.8c-1.1,1.467-1.671,3.668-1.671,7.009,0,3.507.693,5.749,1.712,7.133a5.185,5.185,0,0,0,7.7,0c1.06-1.384,1.712-3.626,1.712-7.133,0-3.342-.571-5.543-1.671-7.009a4.669,4.669,0,0,0-3.874-1.756Z" transform="translate(35.573 -337.165)" fill="#fff"/>
      <path id="パス_201564" data-name="パス 201564" d="M272.92,362.521c0,2.486.2,2.894,2.082,2.894v1.221h-8.031v-1.221c2,0,2.118-.287,2.118-2.977v-9.456c0-1.591-.2-2.935-.978-3.75a2.992,2.992,0,0,0-2.364-.856c-1.673,0-3.548,1.547-5.219,3.872v10.19c0,2.69.083,2.977,2,2.977v1.221h-8.315v-1.221c2.323,0,2.486-.287,2.486-2.977V352.412c0-2.568-.246-2.935-2.486-2.894v-1.1a14.42,14.42,0,0,0,5.543-1.836l.53.285.163,3.222h.08a8.452,8.452,0,0,1,6.442-3.507,5.981,5.981,0,0,1,4.319,1.386c1.06.978,1.63,2.527,1.63,4.891Z" transform="translate(47.395 -337.165)" fill="#fff"/>
      <path id="パス_201565" data-name="パス 201565" d="M277.292,352c-.613-3.1-1.875-3.954-4.4-3.954a5.138,5.138,0,0,0-2.812.737,2.208,2.208,0,0,0-1.143,1.995,3.152,3.152,0,0,0,1.671,2.488c1.347.734,3.3,1.425,4.241,2.079a10.871,10.871,0,0,1,3.383,2.364,4.938,4.938,0,0,1,1.549,3.546,5.1,5.1,0,0,1-2.079,4.159,9.872,9.872,0,0,1-5.993,1.712,14.944,14.944,0,0,1-6.277-1.223,35.76,35.76,0,0,0-.856-4.606l1.3-.326c.98,3.629,2.772,4.648,5.462,4.648a5.362,5.362,0,0,0,3.344-1.019,3.428,3.428,0,0,0,1.141-2.529,2.858,2.858,0,0,0-.815-2.079c-.776-.815-2.162-1.3-4.2-2.4-1.751-1.06-3.342-1.753-4.361-2.853a5.066,5.066,0,0,1-1.223-3.3,4.1,4.1,0,0,1,1.916-3.466,9.331,9.331,0,0,1,5.462-1.386,14.766,14.766,0,0,1,5.3.9,37.9,37.9,0,0,0,.732,4.28Z" transform="translate(59.546 -337.165)" fill="#fff"/>
      <path id="パス_201566" data-name="パス 201566" d="M279.8,366.62c0,2.609.2,2.977,2.933,2.977v1.221h-9.864V369.6c2.938,0,3.1-.367,3.1-2.977V356.471c0-2.61-.122-2.772-3.1-2.772v-1.1a18.323,18.323,0,0,0,6.484-1.836l.448.246Zm-2.16-23.6a2.373,2.373,0,1,1-.041,0Z" transform="translate(69.275 -341.346)" fill="#fff"/>
      <path id="パス_201567" data-name="パス 201567" d="M291.164,352c-.613-3.1-1.875-3.954-4.4-3.954a5.137,5.137,0,0,0-2.812.737,2.208,2.208,0,0,0-1.143,1.995,3.147,3.147,0,0,0,1.671,2.488c1.347.734,3.3,1.425,4.241,2.079a10.872,10.872,0,0,1,3.383,2.364,4.937,4.937,0,0,1,1.549,3.546,5.1,5.1,0,0,1-2.079,4.159,9.872,9.872,0,0,1-5.992,1.712A14.945,14.945,0,0,1,279.3,365.9a35.74,35.74,0,0,0-.856-4.606l1.3-.326c.98,3.629,2.772,4.648,5.462,4.648a5.362,5.362,0,0,0,3.344-1.019,3.428,3.428,0,0,0,1.141-2.529,2.858,2.858,0,0,0-.815-2.079c-.776-.815-2.162-1.3-4.2-2.4-1.751-1.06-3.342-1.753-4.361-2.853a5.066,5.066,0,0,1-1.223-3.3,4.1,4.1,0,0,1,1.916-3.466,9.331,9.331,0,0,1,5.462-1.386,14.766,14.766,0,0,1,5.3.9,37.9,37.9,0,0,0,.732,4.28Z" transform="translate(75.815 -337.165)" fill="#fff"/>
      <path id="パス_201568" data-name="パス 201568" d="M286.479,350.276c2.894-.285,4.159-2.038,5.1-6.114H292.8v5.747h4.767v1.51H292.8v13.573c0,2.242.693,3.22,2.2,3.22a4.366,4.366,0,0,0,2.731-1.019l.773,1.141a6.911,6.911,0,0,1-4.728,1.632c-2.486,0-4.808-1.1-4.808-4.893V351.419h-2.488Z" transform="translate(85.237 -340.003)" fill="#fff"/>
      <path id="パス_201569" data-name="パス 201569" d="M297.01,356.529a11.857,11.857,0,0,0,1.425,6.481,5.151,5.151,0,0,0,4.4,2.486,6.21,6.21,0,0,0,3.748-1.182,6.766,6.766,0,0,0,2.162-2.566l1.3.691a9.4,9.4,0,0,1-2.731,3.137,8.546,8.546,0,0,1-5.136,1.551,8.869,8.869,0,0,1-6.97-2.814c-1.386-1.751-2.242-4.322-2.242-7.948a10.829,10.829,0,0,1,2.731-7.5,8.554,8.554,0,0,1,6.034-2.284,7.7,7.7,0,0,1,6.034,2.488,12.119,12.119,0,0,1,2.24,7.459Zm9.089-1.469a10.2,10.2,0,0,0-1.182-5.3,3.621,3.621,0,0,0-3.179-1.712,4.145,4.145,0,0,0-3.22,1.712,9.648,9.648,0,0,0-1.508,5.3Z" transform="translate(92.853 -337.165)" fill="#fff"/>
      <path id="パス_201570" data-name="パス 201570" d="M320.768,362.521c0,2.486.2,2.894,2.079,2.894v1.221h-8.031v-1.221c2,0,2.121-.287,2.121-2.977v-9.456c0-1.591-.2-2.935-.978-3.75a3,3,0,0,0-2.366-.856c-1.671,0-3.546,1.547-5.217,3.872v10.19c0,2.69.083,2.977,2,2.977v1.221h-8.317v-1.221c2.325,0,2.488-.287,2.488-2.977V352.412c0-2.568-.246-2.935-2.488-2.894v-1.1a14.4,14.4,0,0,0,5.543-1.836l.532.285.163,3.222h.08a8.451,8.451,0,0,1,6.44-3.507,5.983,5.983,0,0,1,4.322,1.386c1.06.978,1.63,2.527,1.63,4.891Z" transform="translate(103.508 -337.165)" fill="#fff"/>
      <path id="パス_201571" data-name="パス 201571" d="M312.363,350.276c2.894-.285,4.159-2.038,5.1-6.114h1.223v5.747h4.767v1.51h-4.767v13.573c0,2.242.691,3.22,2.2,3.22a4.366,4.366,0,0,0,2.731-1.019l.774,1.141a6.912,6.912,0,0,1-4.728,1.632c-2.486,0-4.811-1.1-4.811-4.893V351.419h-2.488Z" transform="translate(115.593 -340.003)" fill="#fff"/>
      <path id="パス_201572" data-name="パス 201572" d="M321.625,353.9a2.224,2.224,0,1,1-.039,0Z" transform="translate(123.826 -328.584)" fill="#fff"/>
    </g>
    <g id="グループ_89048" data-name="グループ 89048" transform="translate(45.991 409.456)">
      <path id="パス_201573" data-name="パス 201573" d="M58.873,403.523c-4,0-7.216-1.143-9.5-3.709-2.079-2.366-3.385-6.034-3.385-11.333s1.386-9.252,3.913-11.779a12.569,12.569,0,0,1,9.008-3.222,12.544,12.544,0,0,1,8.969,3.222c2.527,2.527,3.913,6.479,3.913,11.779s-1.306,8.967-3.385,11.333c-2.281,2.566-5.5,3.709-9.5,3.709Zm-.041-28.411a7.782,7.782,0,0,0-6.155,2.729c-1.63,2.04-2.61,5.3-2.61,10.64,0,4.526.856,8.194,2.61,10.558a8.112,8.112,0,0,0,12.352,0c1.751-2.364,2.607-6.032,2.607-10.558,0-5.338-.978-8.6-2.607-10.64a7.782,7.782,0,0,0-6.155-2.729Z" transform="translate(-45.991 -372.828)" fill="#fff"/>
      <path id="パス_201574" data-name="パス 201574" d="M80.329,397.788c-.939,0-1.877,0-2.772.08a14.054,14.054,0,0,0-2.853.489l-.409-.2-.163-2.772h-.08a7.965,7.965,0,0,1-6.2,2.975,5.982,5.982,0,0,1-4.2-1.345c-1.221-1.1-1.875-2.974-1.875-5.708v-7.826c0-2.486-.119-2.729-2.2-2.729v-1.1a17.214,17.214,0,0,0,5.5-1.836l.53.246v12.759c0,2,.246,3.381.939,4.319a3.121,3.121,0,0,0,2.649,1.223c1.834,0,3.424-1.143,4.852-3.057v-9.825c0-2.525-.124-2.729-2.162-2.729v-1.1a16.682,16.682,0,0,0,5.462-1.836l.53.246v15.692c0,2.651.163,2.935,2.447,2.935Z" transform="translate(-30.053 -367.745)" fill="#fff"/>
      <path id="パス_201575" data-name="パス 201575" d="M76.21,381.034c1.671-2.242,2.977-3.22,4.811-3.22a3.3,3.3,0,0,1,2.364.937,2.839,2.839,0,0,1,.939,2.079c0,1.1-.571,1.753-1.51,1.753-.732,0-1.3-.367-1.632-1.386-.406-1.1-.652-1.467-1.3-1.467-1.058,0-2.2,1.262-3.629,3.383v10.6c0,2.566.246,2.933,2.775,2.933v1.223H70.055v-1.223c2.162,0,2.364-.285,2.364-2.975V383.52c0-2.527-.2-2.77-2.364-2.77v-1.1a14.912,14.912,0,0,0,5.5-1.836l.448.285.163,2.935Z" transform="translate(-17.769 -367.745)" fill="#fff"/>
      <path id="パス_201576" data-name="パス 201576" d="M86.435,378.228c0-2.814-.2-3.1-3.67-3.1v-1.386H94.016v1.386c-3.463,0-3.668.285-3.668,3.1v19.931c0,2.814.2,3.1,3.709,3.1v1.386H82.726v-1.386c3.5,0,3.709-.285,3.709-3.1Z" transform="translate(-2.909 -372.52)" fill="#fff"/>
      <path id="パス_201577" data-name="パス 201577" d="M108.211,393.751c0,2.486.2,2.894,2.079,2.894v1.223H102.26v-1.223c2,0,2.121-.285,2.121-2.975v-9.456c0-1.59-.2-2.935-.978-3.75a3,3,0,0,0-2.366-.858c-1.671,0-3.546,1.549-5.217,3.872v10.193c0,2.69.083,2.975,2,2.975v1.223H89.5v-1.223c2.325,0,2.486-.285,2.486-2.975V383.644c0-2.568-.243-2.935-2.486-2.894v-1.1a14.4,14.4,0,0,0,5.543-1.836l.532.285.163,3.222h.08a8.445,8.445,0,0,1,6.44-3.507,5.984,5.984,0,0,1,4.322,1.386c1.06.978,1.63,2.527,1.63,4.891Z" transform="translate(5.036 -367.745)" fill="#fff"/>
      <path id="パス_201578" data-name="パス 201578" d="M109.472,398.094l-7.094-16.142c-1.1-2.486-1.425-2.69-2.853-2.69v-1.223h8.4v1.223c-2.038,0-2.242.367-1.508,2.2l4.769,11.861h.08l4.973-12.472c.489-1.223.408-1.591-1.508-1.591v-1.223h5.706v1.223c-1.221,0-1.588.2-2.323,2l-7.133,16.835Z" transform="translate(16.792 -367.481)" fill="#fff"/>
      <path id="パス_201579" data-name="パス 201579" d="M114.09,387.761a11.862,11.862,0,0,0,1.428,6.481,5.15,5.15,0,0,0,4.4,2.486,6.216,6.216,0,0,0,3.75-1.182,6.756,6.756,0,0,0,2.162-2.568l1.3.693a9.422,9.422,0,0,1-2.731,3.137,8.546,8.546,0,0,1-5.136,1.549,8.874,8.874,0,0,1-6.97-2.812c-1.386-1.753-2.242-4.322-2.242-7.95a10.827,10.827,0,0,1,2.731-7.5,8.545,8.545,0,0,1,6.032-2.284,7.7,7.7,0,0,1,6.036,2.488,12.124,12.124,0,0,1,2.242,7.459Zm9.091-1.469a10.2,10.2,0,0,0-1.182-5.3,3.62,3.62,0,0,0-3.181-1.712,4.144,4.144,0,0,0-3.218,1.712,9.659,9.659,0,0,0-1.51,5.3Z" transform="translate(29.142 -367.745)" fill="#fff"/>
      <path id="パス_201580" data-name="パス 201580" d="M131.765,383.235c-.613-3.1-1.875-3.954-4.4-3.954a5.168,5.168,0,0,0-2.814.734,2.213,2.213,0,0,0-1.143,2,3.144,3.144,0,0,0,1.673,2.486c1.345.737,3.3,1.427,4.239,2.079a10.91,10.91,0,0,1,3.383,2.366,4.937,4.937,0,0,1,1.549,3.546,5.092,5.092,0,0,1-2.079,4.157,9.873,9.873,0,0,1-5.993,1.712,14.954,14.954,0,0,1-6.277-1.221,35.709,35.709,0,0,0-.856-4.608l1.306-.324c.978,3.626,2.77,4.645,5.46,4.645a5.357,5.357,0,0,0,3.344-1.019A3.419,3.419,0,0,0,130.3,393.3a2.858,2.858,0,0,0-.815-2.079c-.776-.815-2.16-1.3-4.2-2.405-1.753-1.058-3.344-1.751-4.363-2.853a5.058,5.058,0,0,1-1.223-3.3,4.1,4.1,0,0,1,1.919-3.463,9.32,9.32,0,0,1,5.46-1.386,14.767,14.767,0,0,1,5.3.9,37.993,37.993,0,0,0,.734,4.28Z" transform="translate(39.686 -367.745)" fill="#fff"/>
      <path id="パス_201581" data-name="パス 201581" d="M127.08,381.508c2.894-.285,4.159-2.038,5.1-6.114H133.4v5.747h4.769v1.508H133.4v13.573c0,2.242.693,3.222,2.2,3.222a4.379,4.379,0,0,0,2.731-1.019l.773,1.141a6.911,6.911,0,0,1-4.728,1.63c-2.486,0-4.808-1.1-4.808-4.891V382.649H127.08Z" transform="translate(49.108 -370.583)" fill="#fff"/>
      <path id="パス_201582" data-name="パス 201582" d="M163.813,393.875c0,2.447.243,2.77,2.16,2.77v1.223H157.82v-1.223c1.914,0,2.16-.324,2.16-2.607v-9.132a9.023,9.023,0,0,0-.652-3.789,2.677,2.677,0,0,0-2.527-1.51c-1.955,0-3.587,1.427-4.973,3.548v10.72c0,2.527.2,2.77,2.16,2.77v1.223h-8.111v-1.223c1.958,0,2.118-.285,2.118-2.607V385.03a8.175,8.175,0,0,0-.732-4.117,2.768,2.768,0,0,0-2.447-1.306c-1.59,0-3.137,1.265-4.971,3.587v10.64c0,2.527.2,2.812,2.2,2.812v1.223h-8.6v-1.223c2.405,0,2.568-.324,2.568-2.975V383.6c0-2.568-.246-2.894-2.568-2.853v-1.1a14.985,14.985,0,0,0,5.667-1.836l.489.285.163,3.018h.041c1.63-1.714,3.668-3.3,6.277-3.3a5.991,5.991,0,0,1,3.789,1.141,4.609,4.609,0,0,1,1.549,2.325h.165c1.63-1.877,3.626-3.466,6.521-3.466a5.439,5.439,0,0,1,4.159,1.588c1.019,1.062,1.549,2.651,1.549,5.26Z" transform="translate(56.572 -367.745)" fill="#fff"/>
      <path id="パス_201583" data-name="パス 201583" d="M153.285,387.761a11.862,11.862,0,0,0,1.425,6.481,5.15,5.15,0,0,0,4.4,2.486,6.216,6.216,0,0,0,3.75-1.182,6.756,6.756,0,0,0,2.162-2.568l1.3.693a9.422,9.422,0,0,1-2.731,3.137,8.544,8.544,0,0,1-5.134,1.549,8.876,8.876,0,0,1-6.972-2.812c-1.386-1.753-2.242-4.322-2.242-7.95a10.827,10.827,0,0,1,2.731-7.5,8.551,8.551,0,0,1,6.034-2.284,7.7,7.7,0,0,1,6.034,2.488,12.11,12.11,0,0,1,2.242,7.459Zm9.091-1.469a10.2,10.2,0,0,0-1.184-5.3,3.616,3.616,0,0,0-3.179-1.712,4.145,4.145,0,0,0-3.22,1.712,9.642,9.642,0,0,0-1.508,5.3Z" transform="translate(75.106 -367.745)" fill="#fff"/>
      <path id="パス_201584" data-name="パス 201584" d="M177.043,393.751c0,2.486.2,2.894,2.079,2.894v1.223h-8.031v-1.223c2,0,2.121-.285,2.121-2.975v-9.456c0-1.59-.2-2.935-.978-3.75a3,3,0,0,0-2.366-.858c-1.671,0-3.546,1.549-5.217,3.872v10.193c0,2.69.083,2.975,2,2.975v1.223h-8.317v-1.223c2.325,0,2.486-.285,2.486-2.975V383.644c0-2.568-.243-2.935-2.486-2.894v-1.1a14.4,14.4,0,0,0,5.543-1.836l.532.285.163,3.222h.08a8.445,8.445,0,0,1,6.44-3.507,5.983,5.983,0,0,1,4.322,1.386c1.06.978,1.63,2.527,1.63,4.891Z" transform="translate(85.761 -367.745)" fill="#fff"/>
      <path id="パス_201585" data-name="パス 201585" d="M168.638,381.508c2.894-.285,4.159-2.038,5.1-6.114h1.223v5.747h4.769v1.508h-4.769v13.573c0,2.242.693,3.222,2.2,3.222a4.379,4.379,0,0,0,2.731-1.019l.774,1.141a6.911,6.911,0,0,1-4.728,1.63c-2.486,0-4.808-1.1-4.808-4.891V382.649h-2.488Z" transform="translate(97.846 -370.583)" fill="#fff"/>
      <path id="パス_201586" data-name="パス 201586" d="M186.578,393.863l-1.547,4.767c-.815,2.447-.652,2.935,1.793,2.935v1.386h-6.849v-1.386c1.428,0,2-.365,2.651-2.2l9.13-25.886h2.16l10.069,25.354c.9,2.284,1.469,2.731,2.935,2.731v1.386h-8.887v-1.386c2.527,0,2.651-.611,1.875-2.607l-1.914-5.1Zm5.465-15.531h-.165l-4.687,13.777H197.3Z" transform="translate(111.142 -372.828)" fill="#fff"/>
      <path id="パス_201587" data-name="パス 201587" d="M199.8,381.034c1.671-2.242,2.975-3.22,4.808-3.22a3.3,3.3,0,0,1,2.366.937,2.837,2.837,0,0,1,.936,2.079c0,1.1-.569,1.753-1.508,1.753-.734,0-1.3-.367-1.632-1.386-.406-1.1-.652-1.467-1.3-1.467-1.058,0-2.2,1.262-3.629,3.383v10.6c0,2.566.245,2.933,2.775,2.933v1.223h-8.969v-1.223c2.162,0,2.364-.285,2.364-2.975V383.52c0-2.527-.2-2.77-2.364-2.77v-1.1a14.913,14.913,0,0,0,5.5-1.836l.448.285.163,2.935Z" transform="translate(127.169 -367.745)" fill="#fff"/>
      <path id="パス_201588" data-name="パス 201588" d="M205.221,387.761a11.862,11.862,0,0,0,1.428,6.481,5.15,5.15,0,0,0,4.4,2.486,6.216,6.216,0,0,0,3.75-1.182,6.732,6.732,0,0,0,2.16-2.568l1.306.693a9.446,9.446,0,0,1-2.731,3.137,8.546,8.546,0,0,1-5.136,1.549,8.874,8.874,0,0,1-6.97-2.812c-1.386-1.753-2.242-4.322-2.242-7.95a10.827,10.827,0,0,1,2.731-7.5,8.545,8.545,0,0,1,6.032-2.284,7.7,7.7,0,0,1,6.034,2.488,12.11,12.11,0,0,1,2.242,7.459Zm9.091-1.469a10.2,10.2,0,0,0-1.182-5.3,3.62,3.62,0,0,0-3.181-1.712,4.144,4.144,0,0,0-3.218,1.712,9.659,9.659,0,0,0-1.51,5.3Z" transform="translate(136.018 -367.745)" fill="#fff"/>
      <path id="パス_201589" data-name="パス 201589" d="M226.1,393.834c0,2,.448,2.812,1.306,2.812a2.463,2.463,0,0,0,1.18-.324l.246,1.221a7.17,7.17,0,0,1-3.057.569,2.994,2.994,0,0,1-3.261-2.158h-.122a8.378,8.378,0,0,1-6.2,2.4,6.623,6.623,0,0,1-4.035-1.3,4.607,4.607,0,0,1-1.793-3.792,5.426,5.426,0,0,1,2.77-4.852,19.774,19.774,0,0,1,6.523-2.4l2.609-.654V383.52a5.946,5.946,0,0,0-.654-2.974,3.374,3.374,0,0,0-2.975-1.265,3.965,3.965,0,0,0-2.814,1.021,5.353,5.353,0,0,0-1.3,2.077,1.668,1.668,0,0,1-1.795,1.184,1.368,1.368,0,0,1-1.467-1.469,4.06,4.06,0,0,1,2.325-3.14,11.053,11.053,0,0,1,5.338-1.141c2.935,0,4.524.53,5.708,1.793a6.083,6.083,0,0,1,1.467,4.526Zm-3.831-7.053a19.708,19.708,0,0,0-5.219,2.038c-1.547.9-2.649,2.038-2.649,3.913a3.663,3.663,0,0,0,.9,2.651,3.372,3.372,0,0,0,2.649,1.019,6.166,6.166,0,0,0,4.322-2.079Z" transform="translate(146.784 -367.745)" fill="#fff"/>
      <path id="パス_201590" data-name="パス 201590" d="M232.244,383.235c-.613-3.1-1.875-3.954-4.4-3.954a5.156,5.156,0,0,0-2.812.734,2.213,2.213,0,0,0-1.143,2,3.144,3.144,0,0,0,1.673,2.486c1.345.737,3.3,1.427,4.239,2.079a10.909,10.909,0,0,1,3.383,2.366,4.937,4.937,0,0,1,1.549,3.546,5.1,5.1,0,0,1-2.079,4.157,9.875,9.875,0,0,1-5.99,1.712,14.95,14.95,0,0,1-6.279-1.221,35.712,35.712,0,0,0-.856-4.608l1.3-.324c.98,3.626,2.772,4.645,5.462,4.645a5.362,5.362,0,0,0,3.344-1.019,3.419,3.419,0,0,0,1.141-2.527,2.858,2.858,0,0,0-.815-2.079c-.776-.815-2.162-1.3-4.2-2.405-1.751-1.058-3.342-1.751-4.361-2.853a5.058,5.058,0,0,1-1.223-3.3,4.093,4.093,0,0,1,1.916-3.463,9.332,9.332,0,0,1,5.462-1.386,14.767,14.767,0,0,1,5.3.9,37.9,37.9,0,0,0,.732,4.28Z" transform="translate(157.525 -367.745)" fill="#fff"/>
      <path id="パス_201591" data-name="パス 201591" d="M256.257,395.7a13,13,0,0,1-3.629,5.462,10.125,10.125,0,0,1-6.764,2.364c-3.913,0-6.931-1.265-9.052-3.587-2.444-2.812-3.585-6.605-3.585-11.7,0-4.769,1.3-8.641,3.87-11.212,2.162-2.2,5.425-3.546,9.58-3.546a17.453,17.453,0,0,1,4.4.489,22.445,22.445,0,0,1,2.975.9c.285,2.242.611,4.4,1.1,6.644l-1.712.367c-.611-2.894-1.1-4.687-2.244-5.584a6.561,6.561,0,0,0-4.361-1.182,8.4,8.4,0,0,0-6.479,2.77c-1.795,2-3.018,5.423-3.018,10.192,0,4.076.817,7.744,2.772,10.353a8.05,8.05,0,0,0,6.36,3.179,7.391,7.391,0,0,0,4.971-1.793,11.4,11.4,0,0,0,3.1-4.689Z" transform="translate(173.596 -372.828)" fill="#fff"/>
      <path id="パス_201592" data-name="パス 201592" d="M255.269,398.358a9.785,9.785,0,0,1-6.686-2.16c-1.795-1.632-2.855-4.28-2.855-8.235,0-3.424.98-6.073,2.812-7.826a9.383,9.383,0,0,1,6.807-2.323,9.6,9.6,0,0,1,6.892,2.4c1.751,1.714,2.688,4.365,2.688,7.746,0,3.913-1.019,6.481-2.649,8.072a9.828,9.828,0,0,1-6.97,2.323Zm0-19.077a4.679,4.679,0,0,0-3.874,1.753c-1.1,1.467-1.669,3.668-1.669,7.012,0,3.5.689,5.747,1.708,7.133a5.19,5.19,0,0,0,7.7,0c1.063-1.386,1.712-3.629,1.712-7.133,0-3.344-.571-5.545-1.669-7.012a4.682,4.682,0,0,0-3.874-1.753Z" transform="translate(188.255 -367.745)" fill="#fff"/>
      <path id="パス_201593" data-name="パス 201593" d="M274.521,393.751c0,2.486.2,2.894,2.075,2.894v1.223h-8.031v-1.223c2,0,2.123-.285,2.123-2.975v-9.456c0-1.59-.2-2.935-.98-3.75a2.986,2.986,0,0,0-2.364-.858c-1.673,0-3.544,1.549-5.217,3.872v10.193c0,2.69.083,2.975,2,2.975v1.223h-8.32v-1.223c2.325,0,2.49-.285,2.49-2.975V383.644c0-2.568-.246-2.935-2.49-2.894v-1.1a14.416,14.416,0,0,0,5.547-1.836l.528.285.163,3.222h.083a8.445,8.445,0,0,1,6.438-3.507,5.977,5.977,0,0,1,4.322,1.386c1.063.978,1.634,2.527,1.634,4.891Z" transform="translate(200.076 -367.745)" fill="#fff"/>
      <path id="パス_201594" data-name="パス 201594" d="M266.112,381.508c2.894-.285,4.159-2.038,5.1-6.114h1.223v5.747H277.2v1.508H272.43v13.573c0,2.242.7,3.222,2.2,3.222a4.379,4.379,0,0,0,2.731-1.019l.773,1.141a6.9,6.9,0,0,1-4.726,1.63c-2.49,0-4.813-1.1-4.813-4.891V382.649h-2.486Z" transform="translate(212.161 -370.583)" fill="#fff"/>
      <path id="パス_201595" data-name="パス 201595" d="M279.5,397.852c0,2.607.2,2.974,2.935,2.974v1.223h-9.864v-1.223c2.933,0,3.1-.367,3.1-2.974V387.7c0-2.607-.12-2.77-3.1-2.77v-1.1a18.356,18.356,0,0,0,6.481-1.836l.448.246Zm-2.16-23.6a2.372,2.372,0,1,1-.039,0Z" transform="translate(219.734 -371.926)" fill="#fff"/>
      <path id="パス_201596" data-name="パス 201596" d="M296.95,393.751c0,2.486.2,2.894,2.077,2.894v1.223H291v-1.223c2,0,2.121-.285,2.121-2.975v-9.456c0-1.59-.2-2.935-.98-3.75a2.982,2.982,0,0,0-2.362-.858c-1.673,0-3.546,1.549-5.219,3.872v10.193c0,2.69.083,2.975,2,2.975v1.223h-8.317v-1.223c2.323,0,2.488-.285,2.488-2.975V383.644c0-2.568-.246-2.935-2.488-2.894v-1.1a14.418,14.418,0,0,0,5.545-1.836l.528.285.163,3.222h.083a8.445,8.445,0,0,1,6.44-3.507,5.977,5.977,0,0,1,4.322,1.386c1.06.978,1.632,2.527,1.632,4.891Z" transform="translate(226.382 -367.745)" fill="#fff"/>
      <path id="パス_201597" data-name="パス 201597" d="M309.346,397.788c-.936,0-1.875,0-2.772.08a14.126,14.126,0,0,0-2.855.489l-.4-.2-.165-2.772h-.08a7.969,7.969,0,0,1-6.2,2.975,5.976,5.976,0,0,1-4.2-1.345c-1.223-1.1-1.875-2.974-1.875-5.708v-7.826c0-2.486-.124-2.729-2.2-2.729v-1.1a17.214,17.214,0,0,0,5.5-1.836l.532.246v12.759c0,2,.241,3.381.936,4.319a3.121,3.121,0,0,0,2.649,1.223c1.834,0,3.424-1.143,4.852-3.057v-9.825c0-2.525-.124-2.729-2.16-2.729v-1.1a16.715,16.715,0,0,0,5.462-1.836l.528.246v15.692c0,2.651.163,2.935,2.447,2.935Z" transform="translate(238.532 -367.745)" fill="#fff"/>
      <path id="パス_201598" data-name="パス 201598" d="M303.3,387.761a11.861,11.861,0,0,0,1.423,6.481,5.153,5.153,0,0,0,4.4,2.486,6.221,6.221,0,0,0,3.75-1.182,6.775,6.775,0,0,0,2.162-2.568l1.3.693a9.472,9.472,0,0,1-2.731,3.137,8.543,8.543,0,0,1-5.139,1.549,8.878,8.878,0,0,1-6.97-2.812c-1.384-1.753-2.24-4.322-2.24-7.95a10.827,10.827,0,0,1,2.731-7.5,8.545,8.545,0,0,1,6.032-2.284,7.7,7.7,0,0,1,6.034,2.488,12.124,12.124,0,0,1,2.24,7.459Zm9.087-1.469a10.179,10.179,0,0,0-1.182-5.3,3.616,3.616,0,0,0-3.179-1.712,4.148,4.148,0,0,0-3.22,1.712,9.625,9.625,0,0,0-1.506,5.3Z" transform="translate(251.036 -367.745)" fill="#fff"/>
      <path id="パス_201599" data-name="パス 201599" d="M313.413,381.508c2.894-.285,4.159-2.038,5.1-6.114h1.225v5.747H324.5v1.508h-4.769v13.573c0,2.242.693,3.222,2.2,3.222a4.379,4.379,0,0,0,2.731-1.019l.773,1.141a6.907,6.907,0,0,1-4.728,1.63c-2.488,0-4.813-1.1-4.813-4.891V382.649h-2.486Z" transform="translate(267.634 -370.583)" fill="#fff"/>
      <path id="パス_201600" data-name="パス 201600" d="M329.466,398.358a9.781,9.781,0,0,1-6.686-2.16c-1.795-1.632-2.855-4.28-2.855-8.235,0-3.424.98-6.073,2.812-7.826a9.383,9.383,0,0,1,6.807-2.323,9.6,9.6,0,0,1,6.892,2.4c1.751,1.714,2.688,4.365,2.688,7.746,0,3.913-1.019,6.481-2.649,8.072a9.828,9.828,0,0,1-6.97,2.323Zm0-19.077a4.68,4.68,0,0,0-3.874,1.753c-1.1,1.467-1.669,3.668-1.669,7.012,0,3.5.689,5.747,1.708,7.133a5.19,5.19,0,0,0,7.7,0c1.063-1.386,1.712-3.629,1.712-7.133,0-3.344-.571-5.545-1.669-7.012a4.682,4.682,0,0,0-3.874-1.753Z" transform="translate(275.272 -367.745)" fill="#fff"/>
      <path id="パス_201601" data-name="パス 201601" d="M335.317,402.643v-1.386c2.975,0,3.259-.285,3.259-3.1V378.228c0-2.814-.285-3.1-3.259-3.1v-1.386h19.444l1.265,6.318h-1.753c-1.062-4.443-1.469-4.567-3.67-4.567h-6.644c-1.345,0-1.469.246-1.469,1.875v9.378H348.4c1.793,0,2.077-.408,2.077-3.954h1.712v9.743h-1.712c0-3.75-.285-4.037-2.077-4.037h-5.912v10.679c0,1.551.33,1.714,1.143,1.714H351.7c2.323,0,2.731-.246,3.831-4.728h1.751l-1.384,6.479Z" transform="translate(293.323 -372.52)" fill="#fff"/>
      <path id="パス_201602" data-name="パス 201602" d="M356.414,398.094l-7.092-16.142c-1.1-2.486-1.428-2.69-2.855-2.69v-1.223h8.4v1.223c-2.038,0-2.244.367-1.51,2.2l4.769,11.861h.083l4.971-12.472c.491-1.223.409-1.591-1.506-1.591v-1.223h5.706v1.223c-1.221,0-1.59.2-2.323,2l-7.133,16.835Z" transform="translate(306.399 -367.481)" fill="#fff"/>
      <path id="パス_201603" data-name="パス 201603" d="M366.553,398.358a9.775,9.775,0,0,1-6.683-2.16c-1.8-1.632-2.855-4.28-2.855-8.235,0-3.424.98-6.073,2.812-7.826a9.383,9.383,0,0,1,6.807-2.323,9.591,9.591,0,0,1,6.89,2.4c1.753,1.714,2.69,4.365,2.69,7.746,0,3.913-1.019,6.481-2.649,8.072a9.828,9.828,0,0,1-6.97,2.323Zm0-19.077a4.675,4.675,0,0,0-3.872,1.753c-1.1,1.467-1.671,3.668-1.671,7.012,0,3.5.691,5.747,1.71,7.133a5.188,5.188,0,0,0,7.7,0c1.062-1.386,1.714-3.629,1.714-7.133,0-3.344-.571-5.545-1.671-7.012a4.675,4.675,0,0,0-3.872-1.753Z" transform="translate(318.77 -367.745)" fill="#fff"/>
      <path id="パス_201604" data-name="パス 201604" d="M370.227,378.888c0-2.488-.122-2.772-3.057-2.772v-1.1a18.66,18.66,0,0,0,6.4-1.836l.487.285v25.641c0,2.607.163,2.974,2.933,2.974V403.3H367.17V402.08c2.935,0,3.057-.367,3.057-2.974Z" transform="translate(330.679 -373.18)" fill="#fff"/>
      <path id="パス_201605" data-name="パス 201605" d="M382.392,398.094,375.3,381.952c-1.1-2.486-1.428-2.69-2.855-2.69v-1.223h8.4v1.223c-2.038,0-2.244.367-1.51,2.2l4.769,11.861h.083l4.971-12.472c.493-1.223.409-1.591-1.506-1.591v-1.223h5.706v1.223c-1.221,0-1.59.2-2.323,2L383.9,398.094Z" transform="translate(336.866 -367.481)" fill="#fff"/>
      <path id="パス_201606" data-name="パス 201606" d="M387.013,387.761a11.862,11.862,0,0,0,1.423,6.481,5.153,5.153,0,0,0,4.4,2.486,6.22,6.22,0,0,0,3.75-1.182,6.776,6.776,0,0,0,2.162-2.568l1.3.693a9.47,9.47,0,0,1-2.731,3.137,8.543,8.543,0,0,1-5.139,1.549,8.878,8.878,0,0,1-6.97-2.812c-1.384-1.753-2.24-4.322-2.24-7.95a10.827,10.827,0,0,1,2.731-7.5,8.545,8.545,0,0,1,6.032-2.284,7.7,7.7,0,0,1,6.034,2.488,12.124,12.124,0,0,1,2.24,7.459Zm9.086-1.469a10.178,10.178,0,0,0-1.182-5.3,3.616,3.616,0,0,0-3.179-1.712,4.148,4.148,0,0,0-3.22,1.712,9.607,9.607,0,0,0-1.506,5.3Z" transform="translate(349.216 -367.745)" fill="#fff"/>
    </g>
  </g>
</svg>
