<svg xmlns="http://www.w3.org/2000/svg" width="344.846" height="45.059" viewBox="0 0 344.846 45.059">
  <g id="グループ_89049" data-name="グループ 89049" transform="translate(-45.991 -342.248)">
    <g id="グループ_89047" data-name="グループ 89047">
      <path id="パス_201551" data-name="パス 201551" d="M121.329,356.075a5.537,5.537,0,0,1-4.371-1.707,7.682,7.682,0,0,1-1.558-5.216,7.423,7.423,0,0,1,1.8-5.421,6.512,6.512,0,0,1,8.274,0,7.423,7.423,0,0,1,1.8,5.421,7.682,7.682,0,0,1-1.558,5.216,5.537,5.537,0,0,1-4.371,1.707ZM121.31,343a3.579,3.579,0,0,0-2.833,1.257c-.75.938-1.2,2.439-1.2,4.9a8.257,8.257,0,0,0,1.2,4.859,3.733,3.733,0,0,0,5.685,0,8.265,8.265,0,0,0,1.2-4.859c0-2.457-.45-3.958-1.2-4.9A3.579,3.579,0,0,0,121.329,343Z" fill="#fff"/>
      <path id="パス_201552" data-name="パス 201552" d="M138.539,355.775c-.431,0-.862,0-1.275.037a6.393,6.393,0,0,0-1.313.226l-.188-.094-.075-1.276h-.037a3.668,3.668,0,0,1-2.852,1.37,2.754,2.754,0,0,1-1.933-.62,3.39,3.39,0,0,1-.863-2.626v-3.6c0-1.145-.056-1.257-1.013-1.257v-.506a7.9,7.9,0,0,0,2.533-.845l.244.113v5.872a3.336,3.336,0,0,0,.431,1.988,1.439,1.439,0,0,0,1.22.563,2.884,2.884,0,0,0,2.233-1.407V349.19c0-1.163-.057-1.257-.995-1.257v-.506a7.656,7.656,0,0,0,2.514-.845l.244.113v7.223c0,1.219.075,1.351,1.125,1.351Z" fill="#fff"/>
      <path id="パス_201553" data-name="パス 201553" d="M142.3,348.065c.769-1.032,1.37-1.483,2.214-1.483a1.513,1.513,0,0,1,1.088.432,1.3,1.3,0,0,1,.432.957c0,.506-.263.806-.7.806-.337,0-.6-.169-.751-.638-.187-.506-.3-.675-.6-.675-.487,0-1.013.581-1.669,1.557V353.9c0,1.182.113,1.351,1.276,1.351v.562h-4.128v-.562c.995,0,1.088-.132,1.088-1.37v-4.671c0-1.164-.093-1.276-1.088-1.276v-.506a6.864,6.864,0,0,0,2.533-.845l.206.131.075,1.352Z" fill="#fff"/>
      <path id="パス_201554" data-name="パス 201554" d="M162.04,344.518c.413-1.162.225-1.369-.844-1.369v-.638h3.17v.638c-.769,0-.938.169-1.256,1.032l-4.316,11.894H157.65l-4.483-11.65c-.432-1.126-.563-1.276-1.408-1.276v-.638h4.259v.638c-1.163,0-1.295.282-.9,1.369l3.528,9.362h.055Z" fill="#fff"/>
      <path id="パス_201555" data-name="パス 201555" d="M168.914,353.88c0,1.2.094,1.37,1.351,1.37v.562h-4.54v-.562c1.351,0,1.426-.169,1.426-1.37v-4.671c0-1.2-.057-1.276-1.426-1.276v-.506a8.422,8.422,0,0,0,2.983-.845l.206.113Zm-.994-10.863a1.092,1.092,0,1,1-.018,0Z" fill="#fff"/>
      <path id="パス_201556" data-name="パス 201556" d="M177.153,349.077c-.281-1.426-.863-1.82-2.026-1.82a2.364,2.364,0,0,0-1.294.339,1.016,1.016,0,0,0-.526.918,1.448,1.448,0,0,0,.769,1.145c.62.338,1.52.656,1.952.957a5.016,5.016,0,0,1,1.557,1.088,2.276,2.276,0,0,1,.713,1.632,2.348,2.348,0,0,1-.957,1.914,4.546,4.546,0,0,1-2.758.788,6.875,6.875,0,0,1-2.889-.563,16.452,16.452,0,0,0-.394-2.12l.6-.15c.451,1.67,1.276,2.139,2.514,2.139a2.468,2.468,0,0,0,1.539-.469,1.581,1.581,0,0,0,.525-1.164,1.319,1.319,0,0,0-.375-.957,9.143,9.143,0,0,0-1.933-1.106,9.576,9.576,0,0,1-2.007-1.313,2.327,2.327,0,0,1-.563-1.52,1.885,1.885,0,0,1,.881-1.6,4.3,4.3,0,0,1,2.515-.638,6.8,6.8,0,0,1,2.439.413,17.445,17.445,0,0,0,.337,1.97Z" fill="#fff"/>
      <path id="パス_201557" data-name="パス 201557" d="M182.786,353.88c0,1.2.094,1.37,1.351,1.37v.562H179.6v-.562c1.351,0,1.426-.169,1.426-1.37v-4.671c0-1.2-.057-1.276-1.426-1.276v-.506a8.422,8.422,0,0,0,2.983-.845l.206.113Zm-.994-10.863a1.092,1.092,0,1,1-.018,0Z" fill="#fff"/>
      <path id="パス_201558" data-name="パス 201558" d="M189.825,356.038a4.5,4.5,0,0,1-3.078-.995,4.877,4.877,0,0,1-1.312-3.79,4.8,4.8,0,0,1,1.294-3.6,4.319,4.319,0,0,1,3.133-1.069,4.412,4.412,0,0,1,3.171,1.107,4.836,4.836,0,0,1,1.238,3.564,4.962,4.962,0,0,1-1.22,3.715,4.519,4.519,0,0,1-3.208,1.07Zm0-8.781a2.15,2.15,0,0,0-1.783.808,5.291,5.291,0,0,0-.769,3.226,5.5,5.5,0,0,0,.788,3.283,2.387,2.387,0,0,0,3.546,0,5.363,5.363,0,0,0,.788-3.283,5.291,5.291,0,0,0-.769-3.226,2.15,2.15,0,0,0-1.783-.808Z" fill="#fff"/>
      <path id="パス_201559" data-name="パス 201559" d="M204.126,353.918c0,1.144.094,1.332.957,1.332v.562h-3.7v-.562c.919,0,.975-.132.975-1.37v-4.352a2.5,2.5,0,0,0-.449-1.726,1.379,1.379,0,0,0-1.089-.394c-.769,0-1.632.712-2.4,1.782v4.69c0,1.238.037,1.37.919,1.37v.562h-3.827v-.562c1.069,0,1.144-.132,1.144-1.37v-4.615c0-1.182-.112-1.351-1.144-1.332v-.506a6.626,6.626,0,0,0,2.551-.845l.244.131.075,1.483h.038a3.887,3.887,0,0,1,2.964-1.614,2.757,2.757,0,0,1,1.989.638,2.9,2.9,0,0,1,.75,2.251Z" fill="#fff"/>
      <path id="パス_201560" data-name="パス 201560" d="M212.952,344.575c0-1.3-.094-1.426-1.688-1.426v-.638h5.177v.638c-1.594,0-1.688.131-1.688,1.426v9.174c0,1.294.094,1.426,1.707,1.426v.637h-5.215v-.637c1.613,0,1.707-.132,1.707-1.426Z" fill="#fff"/>
      <path id="パス_201561" data-name="パス 201561" d="M223.781,349.077c-.282-1.426-.863-1.82-2.027-1.82a2.364,2.364,0,0,0-1.294.339,1.016,1.016,0,0,0-.526.918,1.448,1.448,0,0,0,.769,1.145c.62.338,1.52.656,1.952.957a5,5,0,0,1,1.556,1.088,2.269,2.269,0,0,1,.714,1.632,2.348,2.348,0,0,1-.957,1.914,4.544,4.544,0,0,1-2.758.788,6.878,6.878,0,0,1-2.889-.563,16.452,16.452,0,0,0-.394-2.12l.6-.15c.451,1.67,1.276,2.139,2.514,2.139a2.468,2.468,0,0,0,1.539-.469,1.581,1.581,0,0,0,.525-1.164,1.319,1.319,0,0,0-.375-.957,9.143,9.143,0,0,0-1.933-1.106,9.576,9.576,0,0,1-2.007-1.313,2.327,2.327,0,0,1-.563-1.52,1.886,1.886,0,0,1,.882-1.6,4.3,4.3,0,0,1,2.514-.638,6.8,6.8,0,0,1,2.439.413,17.218,17.218,0,0,0,.337,1.97Z" fill="#fff"/>
      <path id="パス_201562" data-name="パス 201562" d="M242.23,352.473a5.982,5.982,0,0,1-1.67,2.514,4.663,4.663,0,0,1-3.114,1.088,5.381,5.381,0,0,1-4.165-1.651,7.842,7.842,0,0,1-1.651-5.384,7.09,7.09,0,0,1,1.782-5.159,6.007,6.007,0,0,1,4.409-1.633,7.985,7.985,0,0,1,2.026.226,10.236,10.236,0,0,1,1.369.412c.132,1.032.282,2.026.508,3.058l-.789.169c-.282-1.332-.506-2.157-1.032-2.57A3.017,3.017,0,0,0,237.9,343a3.868,3.868,0,0,0-2.983,1.276,6.982,6.982,0,0,0-1.388,4.69,7.926,7.926,0,0,0,1.276,4.765,3.7,3.7,0,0,0,2.926,1.463,3.4,3.4,0,0,0,2.289-.825,5.243,5.243,0,0,0,1.426-2.158Z" fill="#fff"/>
      <path id="パス_201563" data-name="パス 201563" d="M248.522,356.038a4.5,4.5,0,0,1-3.077-.995,4.874,4.874,0,0,1-1.313-3.79,4.8,4.8,0,0,1,1.294-3.6,4.321,4.321,0,0,1,3.133-1.069,4.41,4.41,0,0,1,3.171,1.107,4.832,4.832,0,0,1,1.238,3.564,4.962,4.962,0,0,1-1.22,3.715,4.519,4.519,0,0,1-3.208,1.07Zm0-8.781a2.15,2.15,0,0,0-1.783.808,5.291,5.291,0,0,0-.769,3.226,5.5,5.5,0,0,0,.788,3.283,2.387,2.387,0,0,0,3.546,0,5.363,5.363,0,0,0,.788-3.283,5.291,5.291,0,0,0-.769-3.226,2.149,2.149,0,0,0-1.783-.808Z" fill="#fff"/>
      <path id="パス_201564" data-name="パス 201564" d="M262.822,353.918c0,1.144.094,1.332.958,1.332v.562h-3.7v-.562c.919,0,.975-.132.975-1.37v-4.352a2.5,2.5,0,0,0-.45-1.726,1.377,1.377,0,0,0-1.088-.394c-.77,0-1.633.712-2.4,1.782v4.69c0,1.238.038,1.37.92,1.37v.562h-3.827v-.562c1.069,0,1.144-.132,1.144-1.37v-4.615c0-1.182-.113-1.351-1.144-1.332v-.506a6.637,6.637,0,0,0,2.551-.845l.244.131.075,1.483h.037a3.89,3.89,0,0,1,2.965-1.614,2.753,2.753,0,0,1,1.988.638,2.9,2.9,0,0,1,.75,2.251Z" fill="#fff"/>
      <path id="パス_201565" data-name="パス 201565" d="M270.427,349.077c-.282-1.426-.863-1.82-2.027-1.82a2.364,2.364,0,0,0-1.294.339,1.016,1.016,0,0,0-.526.918,1.451,1.451,0,0,0,.769,1.145c.62.338,1.52.656,1.952.957a5,5,0,0,1,1.557,1.088,2.272,2.272,0,0,1,.713,1.632,2.348,2.348,0,0,1-.957,1.914,4.544,4.544,0,0,1-2.758.788,6.878,6.878,0,0,1-2.889-.563,16.455,16.455,0,0,0-.394-2.12l.6-.15c.451,1.67,1.276,2.139,2.514,2.139a2.468,2.468,0,0,0,1.539-.469,1.578,1.578,0,0,0,.525-1.164,1.315,1.315,0,0,0-.375-.957,9.143,9.143,0,0,0-1.933-1.106,9.576,9.576,0,0,1-2.007-1.313,2.332,2.332,0,0,1-.563-1.52,1.886,1.886,0,0,1,.882-1.6,4.3,4.3,0,0,1,2.514-.638,6.8,6.8,0,0,1,2.439.413,17.442,17.442,0,0,0,.337,1.97Z" fill="#fff"/>
      <path id="パス_201566" data-name="パス 201566" d="M276.059,353.88c0,1.2.094,1.37,1.35,1.37v.562h-4.54v-.562c1.352,0,1.426-.169,1.426-1.37v-4.671c0-1.2-.056-1.276-1.426-1.276v-.506a8.433,8.433,0,0,0,2.984-.845l.206.113Zm-.994-10.863a1.092,1.092,0,1,1-.019,0Z" fill="#fff"/>
      <path id="パス_201567" data-name="パス 201567" d="M284.3,349.077c-.282-1.426-.863-1.82-2.027-1.82a2.364,2.364,0,0,0-1.294.339,1.016,1.016,0,0,0-.526.918,1.448,1.448,0,0,0,.769,1.145c.62.338,1.52.656,1.952.957a5,5,0,0,1,1.557,1.088,2.272,2.272,0,0,1,.713,1.632,2.348,2.348,0,0,1-.957,1.914,4.544,4.544,0,0,1-2.758.788,6.878,6.878,0,0,1-2.889-.563,16.45,16.45,0,0,0-.394-2.12l.6-.15c.451,1.67,1.276,2.139,2.514,2.139a2.468,2.468,0,0,0,1.539-.469,1.578,1.578,0,0,0,.525-1.164,1.315,1.315,0,0,0-.375-.957,9.143,9.143,0,0,0-1.933-1.106,9.576,9.576,0,0,1-2.007-1.313,2.332,2.332,0,0,1-.563-1.52,1.886,1.886,0,0,1,.882-1.6,4.3,4.3,0,0,1,2.514-.638,6.8,6.8,0,0,1,2.439.413,17.449,17.449,0,0,0,.337,1.97Z" fill="#fff"/>
      <path id="パス_201568" data-name="パス 201568" d="M286.479,346.976c1.332-.131,1.914-.938,2.345-2.814h.563v2.645h2.194v.7h-2.194v6.247c0,1.032.319,1.482,1.013,1.482a2.009,2.009,0,0,0,1.257-.469l.356.525a3.181,3.181,0,0,1-2.176.751,2,2,0,0,1-2.213-2.252V347.5h-1.145Z" fill="#fff"/>
      <path id="パス_201569" data-name="パス 201569" d="M294.831,351.16a5.457,5.457,0,0,0,.656,2.983,2.371,2.371,0,0,0,2.027,1.144,2.858,2.858,0,0,0,1.725-.544,3.114,3.114,0,0,0,.995-1.181l.6.318a4.327,4.327,0,0,1-1.257,1.444,3.933,3.933,0,0,1-2.364.714,4.082,4.082,0,0,1-3.208-1.295,5.745,5.745,0,0,1-1.032-3.658,4.984,4.984,0,0,1,1.257-3.452,3.937,3.937,0,0,1,2.777-1.051,3.543,3.543,0,0,1,2.777,1.145,5.578,5.578,0,0,1,1.031,3.433Zm4.183-.676a4.7,4.7,0,0,0-.544-2.439,1.667,1.667,0,0,0-1.463-.788,1.908,1.908,0,0,0-1.482.788,4.44,4.44,0,0,0-.694,2.439Z" fill="#fff"/>
      <path id="パス_201570" data-name="パス 201570" d="M310.669,353.918c0,1.144.094,1.332.957,1.332v.562h-3.7v-.562c.92,0,.976-.132.976-1.37v-4.352a2.5,2.5,0,0,0-.45-1.726,1.379,1.379,0,0,0-1.089-.394c-.769,0-1.632.712-2.4,1.782v4.69c0,1.238.038,1.37.92,1.37v.562h-3.828v-.562c1.07,0,1.145-.132,1.145-1.37v-4.615c0-1.182-.113-1.351-1.145-1.332v-.506a6.626,6.626,0,0,0,2.551-.845l.245.131.075,1.483h.037a3.89,3.89,0,0,1,2.964-1.614,2.754,2.754,0,0,1,1.989.638,2.9,2.9,0,0,1,.75,2.251Z" fill="#fff"/>
      <path id="パス_201571" data-name="パス 201571" d="M312.363,346.976c1.332-.131,1.914-.938,2.346-2.814h.563v2.645h2.194v.7h-2.194v6.247c0,1.032.318,1.482,1.013,1.482a2.009,2.009,0,0,0,1.257-.469l.356.525a3.181,3.181,0,0,1-2.176.751,2,2,0,0,1-2.214-2.252V347.5h-1.145Z" fill="#fff"/>
      <path id="パス_201572" data-name="パス 201572" d="M320.415,353.9a1.023,1.023,0,1,1-.018,0Z" fill="#fff"/>
    </g>
    <g id="グループ_89048" data-name="グループ 89048">
      <path id="パス_201573" data-name="パス 201573" d="M51.92,387.307a5.54,5.54,0,0,1-4.371-1.707,7.683,7.683,0,0,1-1.558-5.216,7.423,7.423,0,0,1,1.8-5.421,5.785,5.785,0,0,1,4.146-1.483,5.773,5.773,0,0,1,4.128,1.483,7.423,7.423,0,0,1,1.8,5.421,7.683,7.683,0,0,1-1.558,5.216,5.54,5.54,0,0,1-4.371,1.707ZM51.9,374.231a3.582,3.582,0,0,0-2.833,1.256c-.75.939-1.2,2.44-1.2,4.9a8.257,8.257,0,0,0,1.2,4.859,3.733,3.733,0,0,0,5.685,0,8.265,8.265,0,0,0,1.2-4.859c0-2.457-.45-3.958-1.2-4.9a3.582,3.582,0,0,0-2.833-1.256Z" fill="#fff"/>
      <path id="パス_201574" data-name="パス 201574" d="M69.13,387.007c-.432,0-.864,0-1.276.037a6.469,6.469,0,0,0-1.313.225l-.188-.093-.075-1.276h-.037a3.666,3.666,0,0,1-2.852,1.369,2.753,2.753,0,0,1-1.933-.619,3.4,3.4,0,0,1-.863-2.627v-3.6c0-1.144-.055-1.256-1.012-1.256v-.506a7.923,7.923,0,0,0,2.532-.845l.244.113V383.8a3.329,3.329,0,0,0,.432,1.988,1.436,1.436,0,0,0,1.219.563,2.887,2.887,0,0,0,2.233-1.407v-4.522c0-1.162-.057-1.256-.995-1.256v-.506a7.679,7.679,0,0,0,2.514-.845l.244.113v7.222c0,1.22.075,1.351,1.126,1.351Z" fill="#fff"/>
      <path id="パス_201575" data-name="パス 201575" d="M72.888,379.3c.769-1.032,1.37-1.482,2.214-1.482a1.516,1.516,0,0,1,1.088.431,1.307,1.307,0,0,1,.432.957c0,.507-.263.807-.695.807-.337,0-.6-.169-.751-.638-.187-.506-.3-.675-.6-.675-.487,0-1.013.581-1.67,1.557v4.878c0,1.181.113,1.35,1.277,1.35v.563H70.055v-.563c1,0,1.088-.131,1.088-1.369V380.44c0-1.163-.093-1.275-1.088-1.275v-.506a6.864,6.864,0,0,0,2.533-.845l.206.131.075,1.351Z" fill="#fff"/>
      <path id="パス_201576" data-name="パス 201576" d="M84.433,375.807c0-1.3-.094-1.426-1.689-1.426v-.638h5.178v.638c-1.594,0-1.688.131-1.688,1.426v9.173c0,1.295.094,1.426,1.707,1.426v.638H82.726v-.638c1.613,0,1.707-.131,1.707-1.426Z" fill="#fff"/>
      <path id="パス_201577" data-name="パス 201577" d="M98.112,385.149c0,1.144.094,1.332.957,1.332v.563h-3.7v-.563c.92,0,.976-.131.976-1.369V380.76a2.5,2.5,0,0,0-.45-1.726,1.38,1.38,0,0,0-1.089-.395c-.769,0-1.632.713-2.4,1.782v4.691c0,1.238.038,1.369.92,1.369v.563H89.5v-.563c1.07,0,1.144-.131,1.144-1.369V380.5c0-1.182-.112-1.351-1.144-1.332v-.506a6.626,6.626,0,0,0,2.551-.845l.245.131.075,1.483h.037a3.887,3.887,0,0,1,2.964-1.614,2.754,2.754,0,0,1,1.989.638,2.9,2.9,0,0,1,.75,2.251Z" fill="#fff"/>
      <path id="パス_201578" data-name="パス 201578" d="M104.1,387.269l-3.265-7.429c-.506-1.144-.656-1.238-1.313-1.238v-.563h3.865v.563c-.938,0-1.032.169-.694,1.013l2.195,5.459h.037l2.289-5.74c.225-.563.188-.732-.694-.732v-.563h2.626v.563c-.562,0-.731.094-1.069.919l-3.283,7.748Z" fill="#fff"/>
      <path id="パス_201579" data-name="パス 201579" d="M111.912,382.392a5.459,5.459,0,0,0,.657,2.983,2.37,2.37,0,0,0,2.026,1.144,2.861,2.861,0,0,0,1.726-.544,3.109,3.109,0,0,0,1-1.182l.6.319a4.336,4.336,0,0,1-1.257,1.444,3.933,3.933,0,0,1-2.364.713,4.084,4.084,0,0,1-3.208-1.294,5.748,5.748,0,0,1-1.032-3.659,4.983,4.983,0,0,1,1.257-3.451,3.933,3.933,0,0,1,2.776-1.051,3.546,3.546,0,0,1,2.778,1.145,5.58,5.58,0,0,1,1.032,3.433Zm4.184-.676a4.694,4.694,0,0,0-.544-2.439,1.666,1.666,0,0,0-1.464-.788,1.907,1.907,0,0,0-1.481.788,4.445,4.445,0,0,0-.695,2.439Z" fill="#fff"/>
      <path id="パス_201580" data-name="パス 201580" d="M124.9,380.309c-.282-1.426-.863-1.82-2.026-1.82a2.379,2.379,0,0,0-1.295.338,1.019,1.019,0,0,0-.526.919,1.447,1.447,0,0,0,.77,1.144c.619.339,1.52.657,1.951.957a5.021,5.021,0,0,1,1.557,1.089,2.272,2.272,0,0,1,.713,1.632,2.344,2.344,0,0,1-.957,1.913,4.544,4.544,0,0,1-2.758.788,6.883,6.883,0,0,1-2.889-.562,16.436,16.436,0,0,0-.394-2.121l.6-.149c.45,1.669,1.275,2.138,2.513,2.138a2.466,2.466,0,0,0,1.539-.469,1.574,1.574,0,0,0,.525-1.163,1.315,1.315,0,0,0-.375-.957,9.167,9.167,0,0,0-1.932-1.107,9.482,9.482,0,0,1-2.008-1.313,2.328,2.328,0,0,1-.563-1.52,1.885,1.885,0,0,1,.883-1.594,4.289,4.289,0,0,1,2.513-.638,6.8,6.8,0,0,1,2.439.413,17.486,17.486,0,0,0,.338,1.97Z" fill="#fff"/>
      <path id="パス_201581" data-name="パス 201581" d="M127.08,378.208c1.332-.131,1.914-.938,2.345-2.814h.563v2.645h2.195v.694h-2.195v6.247c0,1.032.319,1.483,1.013,1.483a2.015,2.015,0,0,0,1.257-.469l.356.525a3.181,3.181,0,0,1-2.176.75,2,2,0,0,1-2.213-2.251v-6.285H127.08Z" fill="#fff"/>
      <path id="パス_201582" data-name="パス 201582" d="M147.421,385.206c0,1.126.112,1.275.994,1.275v.563h-3.752v-.563c.881,0,.994-.149.994-1.2v-4.2a4.153,4.153,0,0,0-.3-1.744,1.232,1.232,0,0,0-1.163-.7,2.94,2.94,0,0,0-2.289,1.633v4.934c0,1.163.094,1.275.994,1.275v.563h-3.733v-.563c.9,0,.975-.131.975-1.2v-4.146a3.763,3.763,0,0,0-.337-1.9,1.274,1.274,0,0,0-1.126-.6c-.732,0-1.444.582-2.288,1.651v4.9c0,1.163.094,1.294,1.012,1.294v.563h-3.958v-.563c1.107,0,1.182-.149,1.182-1.369v-4.634c0-1.182-.113-1.332-1.182-1.313v-.506a6.9,6.9,0,0,0,2.608-.845l.225.131.075,1.389h.019a4.081,4.081,0,0,1,2.889-1.52,2.757,2.757,0,0,1,1.744.525,2.121,2.121,0,0,1,.713,1.07h.076a3.908,3.908,0,0,1,3-1.6,2.5,2.5,0,0,1,1.914.731,3.3,3.3,0,0,1,.713,2.421Z" fill="#fff"/>
      <path id="パス_201583" data-name="パス 201583" d="M151.106,382.392a5.459,5.459,0,0,0,.656,2.983,2.37,2.37,0,0,0,2.026,1.144,2.861,2.861,0,0,0,1.726-.544,3.109,3.109,0,0,0,.995-1.182l.6.319a4.336,4.336,0,0,1-1.257,1.444,3.932,3.932,0,0,1-2.363.713,4.085,4.085,0,0,1-3.209-1.294,5.748,5.748,0,0,1-1.032-3.659,4.983,4.983,0,0,1,1.257-3.451,3.935,3.935,0,0,1,2.777-1.051,3.545,3.545,0,0,1,2.777,1.145,5.574,5.574,0,0,1,1.032,3.433Zm4.184-.676a4.694,4.694,0,0,0-.545-2.439,1.664,1.664,0,0,0-1.463-.788,1.908,1.908,0,0,0-1.482.788,4.438,4.438,0,0,0-.694,2.439Z" fill="#fff"/>
      <path id="パス_201584" data-name="パス 201584" d="M166.944,385.149c0,1.144.094,1.332.957,1.332v.563h-3.7v-.563c.919,0,.976-.131.976-1.369V380.76a2.5,2.5,0,0,0-.45-1.726,1.38,1.38,0,0,0-1.089-.395c-.769,0-1.632.713-2.4,1.782v4.691c0,1.238.038,1.369.92,1.369v.563h-3.828v-.563c1.07,0,1.144-.131,1.144-1.369V380.5c0-1.182-.112-1.351-1.144-1.332v-.506a6.626,6.626,0,0,0,2.551-.845l.245.131.075,1.483h.037a3.887,3.887,0,0,1,2.964-1.614,2.754,2.754,0,0,1,1.989.638,2.9,2.9,0,0,1,.75,2.251Z" fill="#fff"/>
      <path id="パス_201585" data-name="パス 201585" d="M168.638,378.208c1.332-.131,1.914-.938,2.345-2.814h.563v2.645h2.195v.694h-2.195v6.247c0,1.032.319,1.483,1.013,1.483a2.015,2.015,0,0,0,1.257-.469l.356.525a3.181,3.181,0,0,1-2.176.75,2,2,0,0,1-2.213-2.251v-6.285h-1.145Z" fill="#fff"/>
      <path id="パス_201586" data-name="パス 201586" d="M183.014,382.861l-.712,2.194c-.375,1.126-.3,1.351.825,1.351v.638h-3.152v-.638c.657,0,.92-.168,1.22-1.012l4.2-11.914h.994l4.634,11.669c.413,1.051.676,1.257,1.351,1.257v.638h-4.09v-.638c1.163,0,1.22-.281.863-1.2l-.881-2.345Zm2.515-7.148h-.076l-2.157,6.341h4.653Z" fill="#fff"/>
      <path id="パス_201587" data-name="パス 201587" d="M196.474,379.3c.769-1.032,1.369-1.482,2.213-1.482a1.519,1.519,0,0,1,1.089.431,1.306,1.306,0,0,1,.431.957c0,.507-.262.807-.694.807-.338,0-.6-.169-.751-.638-.187-.506-.3-.675-.6-.675-.487,0-1.013.581-1.67,1.557v4.878c0,1.181.113,1.35,1.277,1.35v.563h-4.128v-.563c.995,0,1.088-.131,1.088-1.369V380.44c0-1.163-.093-1.275-1.088-1.275v-.506a6.864,6.864,0,0,0,2.533-.845l.206.131.075,1.351Z" fill="#fff"/>
      <path id="パス_201588" data-name="パス 201588" d="M203.043,382.392a5.459,5.459,0,0,0,.657,2.983,2.37,2.37,0,0,0,2.026,1.144,2.861,2.861,0,0,0,1.726-.544,3.1,3.1,0,0,0,.994-1.182l.6.319a4.348,4.348,0,0,1-1.257,1.444,3.933,3.933,0,0,1-2.364.713,4.084,4.084,0,0,1-3.208-1.294,5.748,5.748,0,0,1-1.032-3.659,4.983,4.983,0,0,1,1.257-3.451,3.933,3.933,0,0,1,2.776-1.051A3.542,3.542,0,0,1,208,378.959a5.574,5.574,0,0,1,1.032,3.433Zm4.184-.676a4.694,4.694,0,0,0-.544-2.439,1.666,1.666,0,0,0-1.464-.788,1.907,1.907,0,0,0-1.481.788,4.445,4.445,0,0,0-.7,2.439Z" fill="#fff"/>
      <path id="パス_201589" data-name="パス 201589" d="M217.607,385.187c0,.919.206,1.294.6,1.294a1.134,1.134,0,0,0,.543-.149l.113.562a3.3,3.3,0,0,1-1.407.262,1.378,1.378,0,0,1-1.5-.993H215.9a3.856,3.856,0,0,1-2.852,1.106,3.048,3.048,0,0,1-1.857-.6,2.12,2.12,0,0,1-.825-1.745,2.5,2.5,0,0,1,1.275-2.233,9.1,9.1,0,0,1,3-1.106l1.2-.3v-.844a2.736,2.736,0,0,0-.3-1.369,1.553,1.553,0,0,0-1.369-.582,1.825,1.825,0,0,0-1.295.47,2.464,2.464,0,0,0-.6.956.768.768,0,0,1-.826.545.629.629,0,0,1-.675-.676,1.868,1.868,0,0,1,1.07-1.445,5.087,5.087,0,0,1,2.457-.525,3.249,3.249,0,0,1,2.627.825,2.8,2.8,0,0,1,.675,2.083Zm-1.763-3.246a9.07,9.07,0,0,0-2.4.938,2.03,2.03,0,0,0-1.219,1.8,1.686,1.686,0,0,0,.413,1.22,1.552,1.552,0,0,0,1.219.469,2.838,2.838,0,0,0,1.989-.957Z" fill="#fff"/>
      <path id="パス_201590" data-name="パス 201590" d="M225.379,380.309c-.282-1.426-.863-1.82-2.027-1.82a2.373,2.373,0,0,0-1.294.338,1.019,1.019,0,0,0-.526.919,1.447,1.447,0,0,0,.77,1.144c.619.339,1.519.657,1.951.957a5.021,5.021,0,0,1,1.557,1.089,2.272,2.272,0,0,1,.713,1.632,2.346,2.346,0,0,1-.957,1.913,4.545,4.545,0,0,1-2.757.788,6.881,6.881,0,0,1-2.89-.562,16.436,16.436,0,0,0-.394-2.121l.6-.149c.451,1.669,1.276,2.138,2.514,2.138a2.468,2.468,0,0,0,1.539-.469,1.574,1.574,0,0,0,.525-1.163,1.315,1.315,0,0,0-.375-.957,9.181,9.181,0,0,0-1.933-1.107,9.5,9.5,0,0,1-2.007-1.313,2.328,2.328,0,0,1-.563-1.52,1.884,1.884,0,0,1,.882-1.594,4.3,4.3,0,0,1,2.514-.638,6.8,6.8,0,0,1,2.439.413A17.444,17.444,0,0,0,226,380.2Z" fill="#fff"/>
      <path id="パス_201591" data-name="パス 201591" d="M243.827,383.7a5.982,5.982,0,0,1-1.67,2.514,4.66,4.66,0,0,1-3.113,1.088,5.383,5.383,0,0,1-4.166-1.651,7.843,7.843,0,0,1-1.65-5.384,7.1,7.1,0,0,1,1.781-5.16,6.011,6.011,0,0,1,4.409-1.632,8.033,8.033,0,0,1,2.027.225,10.333,10.333,0,0,1,1.369.413c.131,1.032.281,2.026.507,3.058l-.788.169c-.281-1.332-.507-2.157-1.033-2.57a3.02,3.02,0,0,0-2.007-.544,3.868,3.868,0,0,0-2.982,1.275,6.981,6.981,0,0,0-1.389,4.691,7.935,7.935,0,0,0,1.276,4.765,3.7,3.7,0,0,0,2.927,1.463,3.4,3.4,0,0,0,2.288-.825,5.245,5.245,0,0,0,1.427-2.158Z" fill="#fff"/>
      <path id="パス_201592" data-name="パス 201592" d="M250.119,387.269a4.5,4.5,0,0,1-3.077-.994,4.873,4.873,0,0,1-1.314-3.79,4.8,4.8,0,0,1,1.294-3.6,4.318,4.318,0,0,1,3.133-1.069,4.416,4.416,0,0,1,3.172,1.106,4.84,4.84,0,0,1,1.237,3.565,4.967,4.967,0,0,1-1.219,3.715,4.523,4.523,0,0,1-3.208,1.069Zm0-8.78a2.154,2.154,0,0,0-1.783.807,5.286,5.286,0,0,0-.768,3.227,5.5,5.5,0,0,0,.786,3.283,2.389,2.389,0,0,0,3.546,0,5.36,5.36,0,0,0,.788-3.283,5.3,5.3,0,0,0-.768-3.227,2.155,2.155,0,0,0-1.783-.807Z" fill="#fff"/>
      <path id="パス_201593" data-name="パス 201593" d="M264.42,385.149c0,1.144.093,1.332.955,1.332v.563h-3.7v-.563c.92,0,.977-.131.977-1.369V380.76a2.49,2.49,0,0,0-.451-1.726,1.375,1.375,0,0,0-1.088-.395c-.77,0-1.631.713-2.4,1.782v4.691c0,1.238.038,1.369.92,1.369v.563h-3.829v-.563c1.07,0,1.146-.131,1.146-1.369V380.5c0-1.182-.113-1.351-1.146-1.332v-.506a6.635,6.635,0,0,0,2.553-.845l.243.131.075,1.483h.038a3.887,3.887,0,0,1,2.963-1.614,2.751,2.751,0,0,1,1.989.638,2.892,2.892,0,0,1,.752,2.251Z" fill="#fff"/>
      <path id="パス_201594" data-name="パス 201594" d="M266.112,378.208c1.332-.131,1.914-.938,2.345-2.814h.563v2.645h2.2v.694h-2.2v6.247c0,1.032.32,1.483,1.013,1.483a2.015,2.015,0,0,0,1.257-.469l.356.525a3.178,3.178,0,0,1-2.175.75,2,2,0,0,1-2.215-2.251v-6.285h-1.144Z" fill="#fff"/>
      <path id="パス_201595" data-name="パス 201595" d="M275.758,385.112c0,1.2.094,1.369,1.351,1.369v.563h-4.54v-.563c1.35,0,1.425-.169,1.425-1.369V380.44c0-1.2-.055-1.275-1.425-1.275v-.506a8.448,8.448,0,0,0,2.983-.845l.206.113Zm-.994-10.863a1.092,1.092,0,1,1-.018,0Z" fill="#fff"/>
      <path id="パス_201596" data-name="パス 201596" d="M286.85,385.149c0,1.144.093,1.332.956,1.332v.563h-3.7v-.563c.919,0,.976-.131.976-1.369V380.76a2.485,2.485,0,0,0-.451-1.726,1.372,1.372,0,0,0-1.087-.395c-.77,0-1.632.713-2.4,1.782v4.691c0,1.238.038,1.369.92,1.369v.563h-3.828v-.563c1.069,0,1.145-.131,1.145-1.369V380.5c0-1.182-.113-1.351-1.145-1.332v-.506a6.636,6.636,0,0,0,2.552-.845l.243.131.075,1.483h.038a3.887,3.887,0,0,1,2.964-1.614,2.751,2.751,0,0,1,1.989.638,2.9,2.9,0,0,1,.751,2.251Z" fill="#fff"/>
      <path id="パス_201597" data-name="パス 201597" d="M298.147,387.007c-.431,0-.863,0-1.276.037a6.5,6.5,0,0,0-1.314.225l-.186-.093L295.3,385.9h-.037a3.668,3.668,0,0,1-2.852,1.369,2.751,2.751,0,0,1-1.932-.619,3.391,3.391,0,0,1-.863-2.627v-3.6c0-1.144-.057-1.256-1.013-1.256v-.506a7.923,7.923,0,0,0,2.532-.845l.245.113V383.8a3.323,3.323,0,0,0,.431,1.988,1.436,1.436,0,0,0,1.219.563,2.887,2.887,0,0,0,2.233-1.407v-4.522c0-1.162-.057-1.256-.994-1.256v-.506a7.694,7.694,0,0,0,2.514-.845l.243.113v7.222c0,1.22.075,1.351,1.126,1.351Z" fill="#fff"/>
      <path id="パス_201598" data-name="パス 201598" d="M301.118,382.392a5.459,5.459,0,0,0,.655,2.983,2.372,2.372,0,0,0,2.027,1.144,2.863,2.863,0,0,0,1.726-.544,3.118,3.118,0,0,0,.995-1.182l.6.319a4.359,4.359,0,0,1-1.257,1.444,3.932,3.932,0,0,1-2.365.713,4.086,4.086,0,0,1-3.208-1.294,5.754,5.754,0,0,1-1.031-3.659,4.983,4.983,0,0,1,1.257-3.451,3.933,3.933,0,0,1,2.776-1.051,3.543,3.543,0,0,1,2.777,1.145,5.58,5.58,0,0,1,1.031,3.433Zm4.182-.676a4.685,4.685,0,0,0-.544-2.439,1.664,1.664,0,0,0-1.463-.788,1.909,1.909,0,0,0-1.482.788,4.43,4.43,0,0,0-.693,2.439Z" fill="#fff"/>
      <path id="パス_201599" data-name="パス 201599" d="M313.413,378.208c1.332-.131,1.914-.938,2.345-2.814h.564v2.645h2.2v.694h-2.2v6.247c0,1.032.319,1.483,1.013,1.483a2.015,2.015,0,0,0,1.257-.469l.356.525a3.179,3.179,0,0,1-2.176.75,2,2,0,0,1-2.215-2.251v-6.285h-1.144Z" fill="#fff"/>
      <path id="パス_201600" data-name="パス 201600" d="M324.316,387.269a4.5,4.5,0,0,1-3.077-.994,4.873,4.873,0,0,1-1.314-3.79,4.8,4.8,0,0,1,1.294-3.6,4.318,4.318,0,0,1,3.133-1.069,4.416,4.416,0,0,1,3.172,1.106,4.84,4.84,0,0,1,1.237,3.565,4.967,4.967,0,0,1-1.219,3.715,4.523,4.523,0,0,1-3.208,1.069Zm0-8.78a2.154,2.154,0,0,0-1.783.807,5.286,5.286,0,0,0-.768,3.227,5.5,5.5,0,0,0,.786,3.283,2.389,2.389,0,0,0,3.546,0,5.36,5.36,0,0,0,.788-3.283,5.3,5.3,0,0,0-.768-3.227,2.155,2.155,0,0,0-1.783-.807Z" fill="#fff"/>
      <path id="パス_201601" data-name="パス 201601" d="M335.317,387.044v-.638c1.369,0,1.5-.131,1.5-1.426v-9.173c0-1.3-.131-1.426-1.5-1.426v-.638h8.949l.582,2.908h-.807c-.489-2.045-.676-2.1-1.689-2.1h-3.058c-.619,0-.676.113-.676.863v4.316h2.721c.825,0,.956-.188.956-1.82h.788v4.484H342.3c0-1.726-.131-1.858-.956-1.858h-2.721v4.915c0,.714.152.789.526.789h3.715c1.069,0,1.257-.113,1.763-2.176h.806l-.637,2.982Z" fill="#fff"/>
      <path id="パス_201602" data-name="パス 201602" d="M351.045,387.269l-3.264-7.429c-.507-1.144-.657-1.238-1.314-1.238v-.563h3.865v.563c-.938,0-1.033.169-.7,1.013l2.2,5.459h.038l2.288-5.74c.226-.563.188-.732-.693-.732v-.563h2.626v.563c-.562,0-.732.094-1.069.919l-3.283,7.748Z" fill="#fff"/>
      <path id="パス_201603" data-name="パス 201603" d="M361.4,387.269a4.5,4.5,0,0,1-3.076-.994,4.87,4.87,0,0,1-1.314-3.79,4.8,4.8,0,0,1,1.294-3.6,4.318,4.318,0,0,1,3.133-1.069,4.414,4.414,0,0,1,3.171,1.106,4.836,4.836,0,0,1,1.238,3.565,4.967,4.967,0,0,1-1.219,3.715,4.523,4.523,0,0,1-3.208,1.069Zm0-8.78a2.152,2.152,0,0,0-1.782.807,5.279,5.279,0,0,0-.769,3.227,5.5,5.5,0,0,0,.787,3.283,2.387,2.387,0,0,0,3.545,0,5.359,5.359,0,0,0,.789-3.283,5.292,5.292,0,0,0-.769-3.227,2.152,2.152,0,0,0-1.782-.807Z" fill="#fff"/>
      <path id="パス_201604" data-name="パス 201604" d="M368.577,375.807c0-1.145-.056-1.276-1.407-1.276v-.506a8.588,8.588,0,0,0,2.946-.845l.224.131v11.8c0,1.2.075,1.369,1.35,1.369v.563h-4.52v-.563c1.351,0,1.407-.169,1.407-1.369Z" fill="#fff"/>
      <path id="パス_201605" data-name="パス 201605" d="M377.023,387.269l-3.264-7.429c-.507-1.144-.657-1.238-1.314-1.238v-.563h3.865v.563c-.938,0-1.033.169-.7,1.013l2.2,5.459h.038l2.288-5.74c.227-.563.188-.732-.693-.732v-.563h2.626v.563c-.562,0-.732.094-1.069.919l-3.283,7.748Z" fill="#fff"/>
      <path id="パス_201606" data-name="パス 201606" d="M384.834,382.392a5.459,5.459,0,0,0,.655,2.983,2.372,2.372,0,0,0,2.027,1.144,2.863,2.863,0,0,0,1.726-.544,3.118,3.118,0,0,0,.995-1.182l.6.319a4.359,4.359,0,0,1-1.257,1.444,3.932,3.932,0,0,1-2.365.713,4.086,4.086,0,0,1-3.208-1.294,5.754,5.754,0,0,1-1.031-3.659,4.983,4.983,0,0,1,1.257-3.451,3.933,3.933,0,0,1,2.776-1.051,3.543,3.543,0,0,1,2.777,1.145,5.58,5.58,0,0,1,1.031,3.433Zm4.182-.676a4.684,4.684,0,0,0-.544-2.439,1.664,1.664,0,0,0-1.463-.788,1.909,1.909,0,0,0-1.482.788,4.421,4.421,0,0,0-.693,2.439Z" fill="#fff"/>
    </g>
  </g>
</svg>
