<svg xmlns="http://www.w3.org/2000/svg" width="133.111" height="40.004" viewBox="0 0 133.111 40.004">
  <g id="_2014-" data-name="2014-" transform="translate(66.556 20)">
    <g id="グループ_80893" data-name="グループ 80893" transform="translate(-66.556 -20)">
      <g id="グループ_80892" data-name="グループ 80892">
        <path id="パス_127353" data-name="パス 127353" d="M23.76,44.426H2.454L1.7,43.671A34.315,34.315,0,0,1,6.036,32.359a33.561,33.561,0,0,1,7.919-8.673c3.582-2.828,5.468-5.279,5.468-9.239a7.542,7.542,0,0,0-1.885-5.656A5.845,5.845,0,0,0,13.2,7.283,5.468,5.468,0,0,0,9.053,8.791a8.484,8.484,0,0,0-2.074,4.336c-.566,1.7-1.32,2.263-2.64,2.263s-1.885-.754-1.885-2.64A7.73,7.73,0,0,1,5.848,7.094a13.952,13.952,0,0,1,7.73-1.885A12.632,12.632,0,0,1,21.5,7.471a9.05,9.05,0,0,1,3.582,7.542c0,3.771-2.451,6.976-4.9,9.427s-6.222,4.525-8.673,6.788a18.477,18.477,0,0,0-5.845,9.427H18.292c3.394,0,3.959-.754,5.091-4.9h2.074Z" transform="translate(-1.7 -5.19)"/>
        <path id="パス_127354" data-name="パス 127354" d="M29.532,45.178A10.936,10.936,0,0,1,21.048,41.6C18.22,38.39,16.9,33.111,16.9,25s1.508-13.387,4.525-16.592a10.936,10.936,0,0,1,8.3-3.205,10.936,10.936,0,0,1,8.107,3.205c3.205,3.2,4.525,8.673,4.525,16.592s-1.512,13.39-4.152,16.6a11.124,11.124,0,0,1-8.673,3.582Zm0-37.9a5.656,5.656,0,0,0-4.525,2.263C23.31,11.805,22.179,16.33,22.179,25s1.131,13.009,2.64,15.272a5.468,5.468,0,0,0,4.9,2.64,5.279,5.279,0,0,0,4.9-2.64c1.508-2.263,2.64-6.6,2.64-15.272S36.131,11.617,34.434,9.543A5.845,5.845,0,0,0,29.909,7.28Z" transform="translate(11.759 -5.188)"/>
        <path id="パス_127355" data-name="パス 127355" d="M33.5,10.014A46.759,46.759,0,0,0,43.3,5.3l.754.377V38.106c0,3.959.377,4.336,5.091,4.336v1.885H33.689V42.443c5.091,0,5.279-.377,5.279-4.336V14.162c0-2.263-.189-3.2-1.32-3.2a11.5,11.5,0,0,0-3.582,1.131Z" transform="translate(26.457 -5.093)"/>
        <path id="パス_127356" data-name="パス 127356" d="M44,33.859v-1.7L59.649,5.2H63.8V31.219h4.525l-.377,2.451H63.8v4.336c0,3.771.189,4.336,3.959,4.336v1.885H54.181v-1.7c4.148,0,4.525-.566,4.525-4.336V33.859Zm3.394-2.64H58.518v-14.9a47.671,47.671,0,0,1,.189-5.091h-.189c-.566,1.131-1.508,3.017-2.64,5.091Z" transform="translate(35.754 -5.182)"/>
      </g>
      <line id="線_3838" data-name="線 3838" x2="17.723" transform="translate(115.388 21.324)" fill="none" stroke="#231916" stroke-miterlimit="10" stroke-width="1.395"/>
    </g>
  </g>
</svg>
