<svg xmlns="http://www.w3.org/2000/svg" width="699.2" height="290.1" viewBox="0 0 699.2 290.1">
  <g id="pic_02_ja" transform="translate(-89.9 -95.7)">
    <g id="ベース">
      <line id="線_1048" data-name="線 1048" y2="36.9" transform="translate(283.9 154.3)" fill="none" stroke="#333" stroke-width="2.4"/>
      <path id="パス_216660" data-name="パス 216660" d="M278,160.6l5.9-6.3,5.9,6.3" fill="none" stroke="#333" stroke-width="2.4"/>
      <g id="グループ_90375" data-name="グループ 90375">
        <line id="線_1049" data-name="線 1049" y2="28.1" transform="translate(274.9 297.1)" fill="none" stroke="#333" stroke-width="2.4"/>
        <path id="パス_216661" data-name="パス 216661" d="M268.9,303.4l6-6.3,5.9,6.3" fill="none" stroke="#333" stroke-width="2.4"/>
        <path id="パス_216662" data-name="パス 216662" d="M280.8,318.8l-5.9,6.4-6-6.4" fill="none" stroke="#333" stroke-width="2.4"/>
      </g>
      <line id="線_1050" data-name="線 1050" y2="36.5" transform="translate(266.9 150.5)" fill="none" stroke="#333" stroke-width="2.4"/>
      <path id="パス_216663" data-name="パス 216663" d="M272.8,181.6l-5.9,6.4-5.9-6.4" fill="none" stroke="#333" stroke-width="2.4"/>
      <line id="線_1051" data-name="線 1051" x2="87.5" transform="translate(463.8 281.1)" fill="none" stroke="#333" stroke-width="2.4"/>
      <path id="パス_216664" data-name="パス 216664" d="M470.1,275.2l-6.3,5.9,6.3,5.9" fill="none" stroke="#333" stroke-width="2.4"/>
      <line id="線_1052" data-name="線 1052" x2="86.8" transform="translate(439.2 268.1)" fill="none" stroke="#333" stroke-width="2.4"/>
      <path id="パス_216665" data-name="パス 216665" d="M519.6,274l6.4-5.9-6.4-5.9" fill="none" stroke="#333" stroke-width="2.4"/>
      <g id="グループ_90376" data-name="グループ 90376">
        <rect id="長方形_16293" data-name="長方形 16293" width="370" height="55" transform="translate(90.4 96.2)" fill="#237593" stroke="#828588" stroke-width="1"/>
      </g>
      <g id="グループ_90377" data-name="グループ 90377">
        <rect id="長方形_16294" data-name="長方形 16294" width="370" height="55" transform="translate(90.4 330.3)" fill="#237593" stroke="#828588" stroke-width="1"/>
      </g>
      <line id="線_1053" data-name="線 1053" x2="93.5" transform="translate(444 218.2)" fill="none" stroke="#333" stroke-width="2.4"/>
      <g id="グループ_90378" data-name="グループ 90378">
        <rect id="長方形_16295" data-name="長方形 16295" width="260" height="40" transform="translate(529.1 252.7)" fill="#002060"/>
      </g>
      <rect id="長方形_16296" data-name="長方形 16296" width="260" height="55" transform="translate(529.1 190.7)" fill="#002060"/>
      <g id="グループ_90379" data-name="グループ 90379">
        <rect id="長方形_16297" data-name="長方形 16297" width="370" height="102" transform="translate(90.4 190.7)" fill="#002060"/>
      </g>
    </g>
    <g id="文字">
      <g id="グループ_90380" data-name="グループ 90380">
        <path id="パス_216666" data-name="パス 216666" d="M484.8,257v-.8h6.8v2.3h1.1v.9c-.2,0-.7-.1-1.1-.1h-6.7a2.508,2.508,0,0,0-1,.1v-.9h1V257Zm2.1-2.1h1.6v.8h-4.4V251h4.2v.8h-1.5v.7H488v1.9h-1.2v.5Zm-.8-2.5v-.7H485v.7Zm1.2,1.2V253H485v.6Zm-2.3.6v.7h1.1v-.7Zm.7,4.3h1.2V257h-1.2Zm1.9,0h1.2V257h-1.2Zm2-5.8a6.224,6.224,0,0,1-.8,1.2,4.35,4.35,0,0,0-.7-.6,5.023,5.023,0,0,0,1.4-2.7l.9.2c0,.1,0,.1-.2.5,0,.1-.2.4-.3.7h1.6a2.219,2.219,0,0,0,.9-.1v.9h-2.8Zm-.6,1.4h3.3v.9h-3.4v-.9Zm.6,4.4h1.2V257h-1.2Z"/>
        <path id="パス_216667" data-name="パス 216667" d="M493.8,254.7a4.923,4.923,0,0,0,1-1.5l.7.3a6.932,6.932,0,0,1-1,1.7Zm4-2.4h.7v.8h-1.8v1.2c0,.4-.2.6-.8.6h-.6a.952.952,0,0,0-.2-.7,3.536,3.536,0,0,1,.6.1c.2,0,.2,0,.2-.2v-1h-1.3a1.7,1.7,0,0,0-.7.1v-.8h1.8v-1.8h.9v.6h1.7v.7h-1.7v.5h1.2Zm-2.8,7.3V255h6.4v3.5a3.749,3.749,0,0,0,.1,1.1h-.9v-.4H496v.4Zm1-3.8v.5h4.6v-.5H496Zm0,1.1v.5h4.6v-.5Zm0,1.1v.5h4.6V258Zm1.7-3.4a4.129,4.129,0,0,0-.7-1.1l.6-.3c.2.3.5.7.7,1a6.757,6.757,0,0,0,1.5-.8,7.1,7.1,0,0,1-1-1.4l.7-.3a2.73,2.73,0,0,0,.9,1.2,3.045,3.045,0,0,0,.9-1.3h-2.8v-.8h3.4l.5.5a.769.769,0,0,0-.2.3,9.334,9.334,0,0,1-1.2,1.8,6.08,6.08,0,0,0,1.8.9,2.01,2.01,0,0,0-.4.8,6.657,6.657,0,0,1-2-1.2,9.5,9.5,0,0,1-1.7,1,.918.918,0,0,0-.4-.6Z"/>
      </g>
      <g id="グループ_90381" data-name="グループ 90381">
        <path id="パス_216668" data-name="パス 216668" d="M473.2,290.6a2.787,2.787,0,0,0-.1-1h1c0,.2-.1.5-.1.9v.6h.8a2.483,2.483,0,0,0,.9-.1v.9h-.8a7.75,7.75,0,0,1-.7,3c.5.6.9,1.2,1.4,1.9l-.6.7a14.016,14.016,0,0,0-1.2-1.8,8.181,8.181,0,0,1-2,2.5,4.351,4.351,0,0,0-.6-.7,7.383,7.383,0,0,0,2.1-2.5c-.4-.5-1.1-1.3-1.7-1.9l.6-.6c.9,1,1,1,1.5,1.6a8.518,8.518,0,0,0,.4-2.3h-2.8v-.9c.3,0,.6.1.9.1h1v-.4Zm3.1,2.6a13.45,13.45,0,0,1,1.4,2.2l-.7.5a6.423,6.423,0,0,0-1.4-2.3Zm.6-.7H476v-.9h2.3v-.9a2.814,2.814,0,0,0-.1-1.1h1c0,.2-.1.7-.1,1.1v.9h.2a1.974,1.974,0,0,0,.9-.1v.9h-1.1v4.9c0,.5,0,.7-.2.8-.2.2-.5.2-1.1.2h-1c-.1-.4-.1-.7-.3-.9a5.284,5.284,0,0,0,1.2.1c.5,0,.5,0,.5-.2v-4.8Z"/>
        <path id="パス_216669" data-name="パス 216669" d="M485.4,290.1v-.6h1v1.1H489a3.11,3.11,0,0,0,1.1-.1v.9h-7.3c0,4.2-.2,5.6-1,7.1a4.621,4.621,0,0,0-.7-.7,3.486,3.486,0,0,0,.6-1.7,21.964,21.964,0,0,0,.2-4.2v-1.3h3.5Zm-2.6,7a9.436,9.436,0,0,0,.8-3.4l.9.2a11.966,11.966,0,0,1-.8,3.7Zm4.6-3.3a8.62,8.62,0,0,0-2.4-1.7l.6-.6a11.128,11.128,0,0,1,2.4,1.6Zm-1.4-.7v4.1c0,.3.1.3.8.3.6,0,.8,0,.9-.3a4.922,4.922,0,0,0,.1-1.4v-.2a3.178,3.178,0,0,0,.9.3c-.1,2.3-.3,2.4-1.9,2.4-1.4,0-1.7-.1-1.7-.7V294a1.974,1.974,0,0,0-.1-.9Zm3.3,4.4a12.328,12.328,0,0,0-1.1-3.4l.8-.4a15.365,15.365,0,0,1,1.2,3.4Z"/>
        <path id="パス_216670" data-name="パス 216670" d="M494.2,294a1,1,0,0,1-1,1,1,1,0,0,1,0-2A1.075,1.075,0,0,1,494.2,294Z"/>
        <path id="パス_216671" data-name="パス 216671" d="M499.8,292.2h.8v.9H500c-.2.6-.3.9-.4,1.3h1v.9h-1.7v.9h1.6v.9h-1.6v1.8H498c0-.3.1-.6.1-1v-.8h-1.6v-.9h1.6V295h-1.8v-.9h1c-.1-.5-.2-.9-.3-1.3h-.7v-.9h1.8V291h-1.6v-.9h1.6v-1h.9v1h1.5v.9H499v.9h.8Zm-.9,2.1a3.991,3.991,0,0,0,.4-1.3h-1.5c.1.3.2.9.3,1.3Zm6-.9c0,.1-.1.2-.1.4a8.848,8.848,0,0,1-.9,2.5,4.662,4.662,0,0,0,1.5,1.2,9.223,9.223,0,0,0-.5.8,8.635,8.635,0,0,1-1.4-1.3,15.374,15.374,0,0,1-1.2,1.3,4.235,4.235,0,0,0-.5-.7,2.2,2.2,0,0,0,.1.8h-1c0-.3.1-.6.1-1.1v-7.6h4.1v.6c-.1,1.7-.3,1.9-1.3,1.9h-.9a2.353,2.353,0,0,0-.2-.8,4.484,4.484,0,0,0,1.1.1c.3,0,.4-.1.4-1h-2.4v2.3h2.8Zm-3.2,4.3a4.895,4.895,0,0,0,1.2-1.3,6.156,6.156,0,0,1-1-2.6h-.2v3.9Zm.9-3.9a8.389,8.389,0,0,0,.7,1.9,4.728,4.728,0,0,0,.6-1.9Z"/>
        <path id="パス_216672" data-name="パス 216672" d="M508.3,291.7a12.666,12.666,0,0,1-1.1,1.3,2.036,2.036,0,0,0-.7-.6,4.823,4.823,0,0,0,1.8-2.7l.9.3c0,.1-.1.1-.1.2a.31.31,0,0,1-.1.2l-.1.1a2.187,2.187,0,0,1-.3.5h1.5v-.4a2.219,2.219,0,0,0-.1-.9h1c0,.3-.1.5-.1.9v.4h2a2.508,2.508,0,0,0,1-.1v.9c-.2,0-.6-.1-1-.1h-2v1.4h2.7a3.749,3.749,0,0,0,1.1-.1v.9c-.2,0-.6-.1-1.1-.1h-6.5a3.749,3.749,0,0,0-1.1.1V293c.2,0,.6.1,1,.1h2.9v-1.4h-1.6Zm-.8,6.8c0-.2.1-.6.1-1.1v-2.7h6.5v2.7a2.509,2.509,0,0,0,.1,1h-1v-.5h-4.6v.5h-1.1Zm.9-1.3H513v-1.6h-4.6Z"/>
      </g>
      <g id="グループ_90382" data-name="グループ 90382">
        <path id="パス_216673" data-name="パス 216673" d="M171.9,108.4a16.857,16.857,0,0,1,2.3,4.2l-1.5.7a21.619,21.619,0,0,0-2.2-4.3Zm9.2.2c-.7,5.4-3.4,9.3-7.7,11.1l-.9-1.3c4.2-1.8,6.4-5.1,7-10.1Z" fill="#fff"/>
        <path id="パス_216674" data-name="パス 216674" d="M196.3,109.6a12.213,12.213,0,0,1-8.2,10.1l-.8-1.3c4-1.5,6.6-4.3,7.3-8.2h-8.8v-1.4h9.7Z" fill="#fff"/>
        <path id="パス_216675" data-name="パス 216675" d="M204.9,111.6a26.455,26.455,0,0,1,6,2.7l-.7,1.4a26.643,26.643,0,0,0-5.4-2.6v6.6h-1.5V107.3h1.5v4.3Z" fill="#fff"/>
        <path id="パス_216676" data-name="パス 216676" d="M214.2,117.9a18.225,18.225,0,0,0,3.5-8.5l1.6.3a19.517,19.517,0,0,1-3.7,9.1Zm9.4-8.9a34,34,0,0,1,4,9.1l-1.6.7a34.44,34.44,0,0,0-3.8-9.1Zm1.4-2.2a8.931,8.931,0,0,1,1.2,2.6l-1,.4a11.065,11.065,0,0,0-1.2-2.7Zm1.8-.6a9.037,9.037,0,0,1,1.3,2.6l-1,.4a10.342,10.342,0,0,0-1.2-2.6Z" fill="#fff"/>
        <path id="パス_216677" data-name="パス 216677" d="M231.6,108.4a19.09,19.09,0,0,1,3.6,2.9l-1.1,1.2a18.771,18.771,0,0,0-3.4-3Zm-.7,9.4c4.6-1.1,8-3.6,9.6-7.8l1.4.8c-1.7,4.6-5.5,7.4-10.5,8.4Z" fill="#fff"/>
        <path id="パス_216678" data-name="パス 216678" d="M255.1,109.4l.8.9a14.828,14.828,0,0,1-8.4,9.5l-1-1.2a13.4,13.4,0,0,0,7.6-7.9h-4.5a14.353,14.353,0,0,1-3.2,3.3l-1.1-.9a14.456,14.456,0,0,0,4.6-6l1.5.5a17.379,17.379,0,0,1-1,1.9h4.7Z" fill="#fff"/>
        <path id="パス_216679" data-name="パス 216679" d="M269.8,109.6l.8.9a14.828,14.828,0,0,1-8.4,9.5l-1-1.2a13.4,13.4,0,0,0,7.6-7.9h-4.5a14.353,14.353,0,0,1-3.2,3.3l-1.1-.9a14.456,14.456,0,0,0,4.6-6l1.5.5a17.376,17.376,0,0,1-1,1.9h4.7Zm.5-2.9a15.668,15.668,0,0,1,1.2,2.6l-1,.4a16.865,16.865,0,0,0-1.1-2.7Zm1.7-.6a9.037,9.037,0,0,1,1.3,2.6l-1,.4a10.341,10.341,0,0,0-1.2-2.6Z" fill="#fff"/>
        <path id="パス_216680" data-name="パス 216680" d="M278.8,108.2v3.4c0,3.5-1,5.9-3.3,7.8l-1.1-1c2.1-1.6,2.9-3.6,2.9-6.8v-3.3h1.5Zm4.1-.4v9.6a11.28,11.28,0,0,0,4.3-3.5l.9,1.3a13.549,13.549,0,0,1-5.9,4.2l-.8-.7V107.9h1.5Z" fill="#fff"/>
        <path id="パス_216681" data-name="パス 216681" d="M301.9,112.7v1.6h-12v-1.6Z" fill="#fff"/>
        <path id="パス_216682" data-name="パス 216682" d="M314.8,108.9a1.268,1.268,0,0,1-.1-.6,1.7,1.7,0,0,1,3.4,0,1.685,1.685,0,0,1-1.7,1.7H316a11.912,11.912,0,0,1-8.2,9.8l-.8-1.4c4-1.5,6.6-4.3,7.3-8.2h-8.8v-1.4h9.3Zm.7-.6a.9.9,0,0,0,.9.9.923.923,0,0,0,1-.9.945.945,0,0,0-1-1A1.063,1.063,0,0,0,315.5,108.3Z" fill="#fff"/>
        <path id="パス_216683" data-name="パス 216683" d="M325.5,110.5a13.966,13.966,0,0,1-.9,1.7,3.915,3.915,0,0,0-1-.8,8.5,8.5,0,0,0,1.5-4.1l1.3.3c0,.1,0,.1-.1.3s-.1.4-.2.6a3.1,3.1,0,0,1-.2.7h1.4V108a5.721,5.721,0,0,0-.1-1.4h1.5a4.888,4.888,0,0,0-.1,1.3v1.2h1.9a5.758,5.758,0,0,0,1.5-.1v1.4c-.3,0-.9-.1-1.5-.1h-1.9v2.1h2.3a6.181,6.181,0,0,0,1.5-.1v1.4c-.4,0-.9-.1-1.5-.1H329a10.885,10.885,0,0,0,3.8,3.9,9.381,9.381,0,0,0-.9,1.2,12.207,12.207,0,0,1-3.5-4c0,.5.1,1.1.1,1.5v2.2a7.115,7.115,0,0,0,.1,1.6h-1.4a7.588,7.588,0,0,0,.1-1.6v-2.1a8.084,8.084,0,0,1,.1-1.5,10.727,10.727,0,0,1-3.6,4c-.3-.5-.6-.9-.8-1.2a10.71,10.71,0,0,0,3.9-4h-1.2a7.589,7.589,0,0,0-1.6.1v-.5a3.88,3.88,0,0,0-.6,1.1,8.221,8.221,0,0,1-1-2.1v6.1a8.663,8.663,0,0,0,.1,1.8h-1.4a8.663,8.663,0,0,0,.1-1.8V115a16.232,16.232,0,0,1,.1-2.1,10.728,10.728,0,0,1-1.7,3.9,8.1,8.1,0,0,0-.6-1.3,13.759,13.759,0,0,0,2.1-4.7h-.7a2.509,2.509,0,0,0-1,.1v-1.3c.2,0,.5.1,1,.1h.8v-1.3a5.349,5.349,0,0,0-.1-1.5h1.4c0,.3-.1.9-.1,1.5v1.3h.5a1.719,1.719,0,0,0,.8-.1v1.3h-1.2a9.749,9.749,0,0,0,1.5,2.6v-.9a7.115,7.115,0,0,0,1.6.1h1.7v-2.1h-1.9Z" fill="#fff"/>
        <path id="パス_216684" data-name="パス 216684" d="M346,109.5a5.313,5.313,0,0,0,1.4-.1v1.4a7.115,7.115,0,0,0-1.6-.1h-2.3a18.339,18.339,0,0,0,1,5.8,5.028,5.028,0,0,0,1,1.7c.2.2.3.3.4.3.2,0,.4-.8.7-2.3a2.925,2.925,0,0,0,1.2.7c-.4,2.2-.9,3.2-1.8,3.2a2.632,2.632,0,0,1-1.9-1.4c-1.2-1.6-1.8-4.3-2-7.9h-6a7.589,7.589,0,0,0-1.6.1v-1.4a7.115,7.115,0,0,0,1.6.1H342v-1.7a2.814,2.814,0,0,0-.1-.8h1.5c0,.2-.1.9-.1,1.2v1.3H346Zm-9.5,4.4a5.721,5.721,0,0,0-1.4.1v-1.3c.3,0,.8.1,1.4.1h3.7a5.313,5.313,0,0,0,1.4-.1V114c-.4,0-.9-.1-1.4-.1H339v3.6a29.126,29.126,0,0,0,3.1-.7v1.3c-2.1.5-4.4,1-6.8,1.4a.9.9,0,0,0-.5.1l-.3-1.4a15.218,15.218,0,0,0,3.1-.4V114h-1.1Zm9-4.5a8.32,8.32,0,0,0-1.6-1.7l1-.6a11.99,11.99,0,0,1,1.6,1.6Z" fill="#fff"/>
        <path id="パス_216685" data-name="パス 216685" d="M352.3,111.4a20.129,20.129,0,0,1-2.5,1.4,3.6,3.6,0,0,0-.8-1.2,12.869,12.869,0,0,0,6.1-4.7h1.5a13.8,13.8,0,0,0,6.4,4.6,4.591,4.591,0,0,0-.7,1.4,14.3,14.3,0,0,1-2.6-1.5v1.2c-.3,0-.7-.1-1.3-.1h-4.9a4.483,4.483,0,0,0-1.2.1Zm-.9,3.9a7.629,7.629,0,0,0-1.7.1v-1.5a8.116,8.116,0,0,0,1.7.1h9.1a8.116,8.116,0,0,0,1.7-.1v1.5a7.628,7.628,0,0,0-1.7-.1h-5.1a15.391,15.391,0,0,1-1.7,3.1l1.8-.1a31.059,31.059,0,0,0,3.3-.3c-.6-.6-1-1-1.6-1.7l1.1-.6a30.742,30.742,0,0,1,3.4,3.9l-1.2.8a9.235,9.235,0,0,0-.9-1.3c-2.1.3-3.8.5-7.4.8a18.006,18.006,0,0,0-2.1.2l-.2-1.5h.8c.1,0,.2,0,1.4-.1a33.724,33.724,0,0,0,1.7-3.2h-2.4Zm6.9-4h1a13.189,13.189,0,0,1-3.4-3.2,13.242,13.242,0,0,1-3.4,3.2h5.8Z" fill="#fff"/>
        <path id="パス_216686" data-name="パス 216686" d="M367.8,118.8a6.181,6.181,0,0,0,.1,1.5h-1.5a6.181,6.181,0,0,0,.1-1.5v-4.1c-.7.6-1,.9-1.8,1.5a2.4,2.4,0,0,0-.7-1.2,10.956,10.956,0,0,0,4.3-4.5h-2.5a4.483,4.483,0,0,0-1.2.1v-1.4c.4,0,.7.1,1.2.1h.8V108a3.42,3.42,0,0,0-.1-1.1H368a3.749,3.749,0,0,0-.1,1.1v1.3h1.6l.6.7-.3.6a10.679,10.679,0,0,1-1.6,2.5,9.163,9.163,0,0,0,2.4,1.9,4.729,4.729,0,0,0-.7,1.2,10.614,10.614,0,0,1-2-1.7v4.3Zm6.2-.5h2a6.66,6.66,0,0,0,1.6-.1v1.5a8.083,8.083,0,0,0-1.6-.1h-5.1a7.589,7.589,0,0,0-1.6.1v-1.5a7.589,7.589,0,0,0,1.6.1h1.8v-5.9h-1.2a5.721,5.721,0,0,0-1.4.1V111a5.313,5.313,0,0,0,1.4.1h1.2v-2.8a7.083,7.083,0,0,0-.1-1.5h1.6a7.083,7.083,0,0,0-.1,1.5v2.8h1.7a6.181,6.181,0,0,0,1.5-.1v1.4c-.4,0-.9-.1-1.5-.1H374Z" fill="#fff"/>
        <path id="パス_216687" data-name="パス 216687" d="M253,126.5h-.6v10.2a7.115,7.115,0,0,0,.1,1.6H251c0-.4.1-1,.1-1.6v-1.5c-1,.3-2.2.6-3.2.8a4.184,4.184,0,0,1-.7.1c-.3.1-.5.1-.6.2l-.4-1.4a3.519,3.519,0,0,0,1.2-.2v-8.3a3.75,3.75,0,0,0-1.1.1v-1.4c.3,0,.8.1,1.2.1H252a4.121,4.121,0,0,0,1.2-.1v1h4.9a4.869,4.869,0,0,0,1.2-.1c0,.3-.1.6-.1.9a19.323,19.323,0,0,1-2.2,6.9,8.378,8.378,0,0,0,2.9,2.7,5.889,5.889,0,0,0-.7,1.4,11.912,11.912,0,0,1-3-2.9,10.81,10.81,0,0,1-3.1,2.9,3.923,3.923,0,0,0-.8-1.4,10.27,10.27,0,0,0,3.1-2.8,16.11,16.11,0,0,1-1.9-6.4,1.285,1.285,0,0,0-.7.1v-.9Zm-4.3,1.9H251v-1.8h-2.3Zm0,2.9H251v-1.8h-2.3Zm0,3.3a12.782,12.782,0,0,0,2.3-.6v-1.6h-2.3Zm6.2-7.1a14.014,14.014,0,0,0,1.4,5.2,15.874,15.874,0,0,0,1.6-5.2Z" fill="#fff"/>
        <path id="パス_216688" data-name="パス 216688" d="M262.5,130.6a2.475,2.475,0,0,0,.4-.6,12.841,12.841,0,0,0-1.9-2.3l.7-1.1.5.6a9.756,9.756,0,0,0,1.2-2.6l1.2.5c-.1.2-.2.3-.5.9a20.542,20.542,0,0,1-1.2,2,2.838,2.838,0,0,1,.6.9,11.463,11.463,0,0,0,1.4-2.6l1.2.6a3.775,3.775,0,0,0-.5.8,27.49,27.49,0,0,1-2.3,3.3c.9,0,1.1-.1,1.6-.1a6.9,6.9,0,0,0-.4-1l.9-.3a18.2,18.2,0,0,1,1,2.9l-.9.3c-.1-.4-.1-.5-.2-.8a3.444,3.444,0,0,1-.9.1v4.7a6.181,6.181,0,0,0,.1,1.5h-1.3a6.621,6.621,0,0,0,.1-1.5v-4.6c-.4,0-.7.1-1.6.1-.3,0-.4,0-.5.1l-.2-1.3h1l.2-.2Zm.3,2.5a20.062,20.062,0,0,1-.6,4.3l-1.1-.5a11.236,11.236,0,0,0,.6-4Zm3.1-.2a22.71,22.71,0,0,1,.5,3.4l-1,.2a18.611,18.611,0,0,0-.4-3.4Zm2.5-4a18.937,18.937,0,0,0-.6-1.8,3.778,3.778,0,0,0-1.2.1V126a6.181,6.181,0,0,0,1.5.1h1.7v-.2a3.42,3.42,0,0,0-.1-1.1h1.4a3.749,3.749,0,0,0-.1,1.1v.2h2a6.622,6.622,0,0,0,1.5-.1v1.2c-.3,0-.8-.1-1.3-.1-.2.5-.5,1.4-.7,1.8h1a4.887,4.887,0,0,0,1.3-.1v1.6a2.787,2.787,0,0,0,.1,1h-1.3V130h-5.8v1.4h-1.2v-2.5h1.8Zm4.2,2.9h1.3v4.1c0,.9-.3,1.2-1.4,1.2h-.8a2.133,2.133,0,0,0-.3-1.2,3.083,3.083,0,0,0,1,.1.265.265,0,0,0,.3-.3V133H271v4a5.721,5.721,0,0,0,.1,1.4h-1.4a5.721,5.721,0,0,0,.1-1.4v-4h-1.5v2.6a7.115,7.115,0,0,0,.1,1.6h-1.3c0-.4.1-.9.1-1.6v-3.8h2.7v-.3a3.749,3.749,0,0,0-.1-1.1h1.3c0,.3-.1.6-.1,1v.3h1.6Zm-1.5-2.9a5.626,5.626,0,0,0,.7-1.8H269a9.506,9.506,0,0,1,.6,1.8Z" fill="#fff"/>
        <path id="パス_216689" data-name="パス 216689" d="M279.2,136.4a9.722,9.722,0,0,0,.1,1.8h-1.5c0-.2.1-1,.1-1.8v-4.2a7.967,7.967,0,0,1-1.3,1.3,3.1,3.1,0,0,0-.6-1.3,11.159,11.159,0,0,0,3.5-4l1.1.8-.1.1a.349.349,0,0,0-.1.2c-.2.2-.4.6-.6.8a8.116,8.116,0,0,0-.6.8Zm1.3-10.9-.1.1-.3.3a13.573,13.573,0,0,1-3.1,2.8,5.223,5.223,0,0,0-.8-1.1,10.127,10.127,0,0,0,3.2-2.9Zm7.9,6.3a1.756,1.756,0,0,1-.4.5,13.519,13.519,0,0,1-2.5,3.1,11.4,11.4,0,0,0,4,1.5,5.911,5.911,0,0,0-.6,1.4,14.074,14.074,0,0,1-4.5-2,14.806,14.806,0,0,1-4.2,2,3.349,3.349,0,0,0-.7-1.3,9.923,9.923,0,0,0,3.8-1.6,12.26,12.26,0,0,1-2.2-3.1,2.787,2.787,0,0,0-1,.1V131c.3,0,.7.1,1.2.1h5.3c.7,0,.9,0,1-.1Zm-5.1-5.3a4.725,4.725,0,0,1-2,4.1,3.178,3.178,0,0,0-1-1,3.171,3.171,0,0,0,1.5-1.9,8.159,8.159,0,0,0,.2-1.8v-.6h4.9v3.3c0,.3.1.3.6.3,1,0,1,0,1-1.7a5.133,5.133,0,0,0,1.2.5,4.428,4.428,0,0,1-.4,1.9c-.2.3-.8.5-1.9.5-1.6,0-1.9-.2-1.9-.9v-2.5h-2.2Zm-.7,5.7a6.033,6.033,0,0,0,1.9,2.3,11.028,11.028,0,0,0,2-2.3Z" fill="#fff"/>
        <path id="パス_216690" data-name="パス 216690" d="M294.3,129.4a20.128,20.128,0,0,1-2.5,1.4,3.6,3.6,0,0,0-.8-1.2,12.869,12.869,0,0,0,6.1-4.7h1.5a13.8,13.8,0,0,0,6.4,4.6,4.591,4.591,0,0,0-.7,1.4,14.3,14.3,0,0,1-2.6-1.5v1.2c-.3,0-.7-.1-1.3-.1h-4.9a4.483,4.483,0,0,0-1.2.1Zm-.9,3.9a7.628,7.628,0,0,0-1.7.1v-1.5a8.116,8.116,0,0,0,1.7.1h9.1a8.116,8.116,0,0,0,1.7-.1v1.5a7.628,7.628,0,0,0-1.7-.1h-5.1a15.391,15.391,0,0,1-1.7,3.1l1.8-.1a31.063,31.063,0,0,0,3.3-.3c-.6-.6-1-1-1.6-1.7l1.1-.6a30.743,30.743,0,0,1,3.4,3.9l-1.2.8a9.234,9.234,0,0,0-.9-1.3c-2.1.3-3.8.5-7.4.8a18.01,18.01,0,0,0-2.1.2l-.2-1.5h.8c.1,0,.2,0,1.4-.1a33.724,33.724,0,0,0,1.7-3.2h-2.4Zm6.9-4h1a13.189,13.189,0,0,1-3.4-3.2,13.242,13.242,0,0,1-3.4,3.2h5.8Z" fill="#fff"/>
      </g>
      <g id="グループ_90383" data-name="グループ 90383">
        <path id="パス_216691" data-name="パス 216691" d="M240.8,353.8a7.156,7.156,0,0,0-1.7.1v-1.5a8.115,8.115,0,0,0,1.7.1h8.6a8.622,8.622,0,0,0,1.7-.1v1.5a7.628,7.628,0,0,0-1.7-.1h-3.7v3h3a6.181,6.181,0,0,0,1.5-.1v1.5a6.181,6.181,0,0,0-1.5-.1h-3v3.6h4.2a9.183,9.183,0,0,0,1.8-.1v1.6a9.183,9.183,0,0,0-1.8-.1h-9.6a8.663,8.663,0,0,0-1.8.1v-1.6a8.663,8.663,0,0,0,1.8.1h4v-3.6h-2.7a7.115,7.115,0,0,0-1.6.1v-1.5a5.349,5.349,0,0,0,1.5.1h2.8v-3Zm2.7-4.6a20.7,20.7,0,0,1,3.7,1.8l-.9,1.2a14.979,14.979,0,0,0-3.8-1.9Z" fill="#fff"/>
        <path id="パス_216692" data-name="パス 216692" d="M258.2,357.6a5.974,5.974,0,0,0,.6-1.1h-2.3a7.628,7.628,0,0,0-1.7.1c0-.4.1-.8.1-1.5V354a6.181,6.181,0,0,0-.1-1.5,7.588,7.588,0,0,0,1.6.1H258v-1.2h-2.5a7.628,7.628,0,0,0-1.7.1v-1.4a7.156,7.156,0,0,0,1.7.1h9.3a8.663,8.663,0,0,0,1.8-.1v1.4c-.4,0-.9-.1-1.7-.1h-2.7v1.2H264a6.659,6.659,0,0,0,1.6-.1c0,.4-.1.9-.1,1.5v2.6c-.3,0-.8-.1-1.7-.1H260a9.051,9.051,0,0,1-.6,1.1h5.4a7.628,7.628,0,0,0,1.7-.1v1.4c-.3,0-1-.1-1.7-.1h-1.4a8.554,8.554,0,0,1-1.5,2.2,42.8,42.8,0,0,1,4.3,1.7l-.9,1.2c-1.6-.8-2.5-1.2-4.5-2-1.7,1.1-3.6,1.6-6.6,1.8a7.26,7.26,0,0,0-.6-1.4,12.014,12.014,0,0,0,5.5-1c-1.2-.4-2.3-.7-3.6-1a12.164,12.164,0,0,0,1.5-1.7h-1.8a8.115,8.115,0,0,0-1.7.1v-1.4a7.156,7.156,0,0,0,1.7.1h3Zm-2-4v1.7h1.9v-1.7Zm2.6,5.2a8.119,8.119,0,0,1-.9,1,18.334,18.334,0,0,1,2.7.8,5.171,5.171,0,0,0,1.5-1.8Zm.5-6.4h1.9v-1.2h-1.9Zm0,2.9h1.9v-1.7h-1.9Zm3,0h2v-1.7h-2Z" fill="#fff"/>
        <path id="パス_216693" data-name="パス 216693" d="M274.8,354.8v-1.1h.7a12.776,12.776,0,0,0,2.9-2.3H272a6.659,6.659,0,0,0-1.6.1v-1.6a7.588,7.588,0,0,0,1.6.1h6.8a3.137,3.137,0,0,0,1.2-.1l.8,1a19.269,19.269,0,0,1-4.6,3.8v.9H280a9.228,9.228,0,0,0,1.9-.1v1.6a10.317,10.317,0,0,0-1.9-.1h-3.8v4.9c0,1.2-.4,1.6-2.2,1.6a14.889,14.889,0,0,1-1.7-.1,7.493,7.493,0,0,0-.4-1.6,20.622,20.622,0,0,0,2.1.2c.6,0,.7-.1.7-.4V357h-4.1a9.764,9.764,0,0,0-1.9.1v-1.6a10.364,10.364,0,0,0,2,.1h4.1Z" fill="#fff"/>
        <path id="パス_216694" data-name="パス 216694" d="M286.9,354.3a12.749,12.749,0,0,1-2.5,1.5,4.11,4.11,0,0,0-.8-1.3,13.537,13.537,0,0,0,6.1-5.1h1.5a13.729,13.729,0,0,0,6.4,5,5.067,5.067,0,0,0-.7,1.5,10.775,10.775,0,0,1-2.6-1.6v1.3c-.3,0-.7-.1-1.3-.1h-4.9a4.483,4.483,0,0,0-1.2.1Zm-.8,4.2a7.628,7.628,0,0,0-1.7.1V357a8.116,8.116,0,0,0,1.7.1h9.1a8.116,8.116,0,0,0,1.7-.1v1.6a7.628,7.628,0,0,0-1.7-.1H290a17.994,17.994,0,0,1-1.7,3.4l1.8-.1a29.839,29.839,0,0,0,3.3-.4c-.6-.7-1-1.1-1.6-1.8l1.1-.7a29.666,29.666,0,0,1,3.4,4.2l-1.2.9c-.4-.7-.6-1-.9-1.5-2.1.3-3.8.5-7.4.8-1.1.1-1.8.2-2.1.2l-.2-1.6h.8c.1,0,.2,0,1.4-.1a26.954,26.954,0,0,0,1.7-3.4h-2.3Zm6.9-4.3h1a13.671,13.671,0,0,1-3.4-3.4,13.625,13.625,0,0,1-3.4,3.4H293Z" fill="#fff"/>
        <path id="パス_216695" data-name="パス 216695" d="M302.6,362.3a7.115,7.115,0,0,0,.1,1.6h-1.5a7.115,7.115,0,0,0,.1-1.6v-4.4a13.722,13.722,0,0,1-1.8,1.6,2.728,2.728,0,0,0-.7-1.3,11.991,11.991,0,0,0,4.3-4.9h-2.5a4.483,4.483,0,0,0-1.2.1v-1.5c.4,0,.7.1,1.2.1h.8v-1.4a4.121,4.121,0,0,0-.1-1.2h1.5a4.483,4.483,0,0,0-.1,1.2V352h1.6l.6.7-.3.6A12.03,12.03,0,0,1,303,356a9.8,9.8,0,0,0,2.4,2.1,5.388,5.388,0,0,0-.7,1.3,8.9,8.9,0,0,1-2-1.9v4.8Zm6.1-.6h2a6.659,6.659,0,0,0,1.6-.1v1.6a8.083,8.083,0,0,0-1.6-.1h-5.1a7.588,7.588,0,0,0-1.6.1v-1.6a7.588,7.588,0,0,0,1.6.1h1.8v-6.4h-1.2a5.721,5.721,0,0,0-1.4.1v-1.5a5.313,5.313,0,0,0,1.4.1h1.2v-3a8.6,8.6,0,0,0-.1-1.6h1.6a8.083,8.083,0,0,0-.1,1.6v3h1.7a6.181,6.181,0,0,0,1.5-.1v1.5c-.4,0-.9-.1-1.5-.1h-1.7v6.4Z" fill="#fff"/>
      </g>
      <g id="グループ_90384" data-name="グループ 90384">
        <path id="パス_216696" data-name="パス 216696" d="M295.7,169.5a1.719,1.719,0,0,0,.8-.1v.9h-.6c-.2.6-.3.9-.4,1.3h.9v.9h-1.7v.9h1.6v.9h-1.6v1.8h-.9c0-.3.1-.6.1-1V174h-1.6v-.9h1.6v-.9h-1.8v-.9h1c-.1-.5-.2-.9-.3-1.3h-.7v-.9c.2,0,.5.1.8.1h1v-.9h-1.6v-.9h1.6v-1h.9v1h1.5v.9h-1.5v.9h.9Zm-1,2a3.992,3.992,0,0,0,.4-1.3h-1.5c.1.3.2.9.3,1.3Zm6.1-.8c0,.1-.1.2-.1.4a8.848,8.848,0,0,1-.9,2.5,4.662,4.662,0,0,0,1.5,1.2,9.223,9.223,0,0,0-.5.8,8.635,8.635,0,0,1-1.4-1.3,15.376,15.376,0,0,1-1.2,1.3c-.2-.3-.3-.5-.5-.8a2.2,2.2,0,0,0,.1.8h-.9c0-.3.1-.6.1-1.1v-7.6c.2,0,.5.1.9.1h3.2v.6c-.1,1.7-.3,1.9-1.3,1.9h-.9a2.353,2.353,0,0,0-.2-.8,4.484,4.484,0,0,0,1.1.1c.3,0,.4-.1.4-1h-2.4v2.3h2.8Zm-3.3,4.3a4.895,4.895,0,0,0,1.2-1.3,6.156,6.156,0,0,1-1-2.6h-.2V175Zm1-3.9a8.389,8.389,0,0,0,.7,1.9,4.728,4.728,0,0,0,.6-1.9Z"/>
        <path id="パス_216697" data-name="パス 216697" d="M304.2,169a6.339,6.339,0,0,1-1.1,1.3,2.036,2.036,0,0,0-.7-.6,4.823,4.823,0,0,0,1.8-2.7l.9.3c0,.1-.1.1-.1.2a.1.1,0,0,1-.1.1l-.1.1a2.187,2.187,0,0,1-.3.5H306v-.4a2.219,2.219,0,0,0-.1-.9h1c0,.3-.1.5-.1.9v.4h2a2.508,2.508,0,0,0,1-.1v.9c-.2,0-.6-.1-1-.1h-2v1.4h2.7a3.749,3.749,0,0,0,1.1-.1v.9c-.2,0-.6-.1-1.1-.1H303a3.749,3.749,0,0,0-1.1.1v-.9c.2,0,.6.1,1,.1h2.9V169Zm-.8,6.8c0-.2.1-.6.1-1.1V172H310v2.7a2.508,2.508,0,0,0,.1,1h-1v-.4h-4.6v.4h-1.1Zm.9-1.3h4.6v-1.6h-4.6Z"/>
      </g>
      <g id="グループ_90385" data-name="グループ 90385">
        <path id="パス_216698" data-name="パス 216698" d="M283.9,310.6H286v3a3.172,3.172,0,0,0,.5.6,3.559,3.559,0,0,0,2.4.5,22.494,22.494,0,0,0,4.1-.2,3.808,3.808,0,0,0-.3,1c-.8,0-2.3.1-3.4.1a6.287,6.287,0,0,1-2.9-.4,2.047,2.047,0,0,1-.8-.8,4.36,4.36,0,0,1-1.1.9,1.381,1.381,0,0,0-.4.3l-.4-.9a5.557,5.557,0,0,0,1.5-1v-2.2h-1.3v-.9Zm.8-3.7a13.249,13.249,0,0,1,1.6,1.7l-.7.6a8.99,8.99,0,0,0-1.6-1.8Zm2.6,1.4h-.8v-.8h2.7a2.2,2.2,0,0,0-.1-.8h.9c0,.2-.1.5-.1.8h2.8v.8h-2.8v.6h2.4v3.4h-2.4v.6h2.9v.8h-2.9a2.768,2.768,0,0,0,.1.9h-1c0-.2.1-.5.1-.9v-.1h-2.6v-.8h2.6v-.6h-2.2v-3.4h2.2v-.6h-1.8Zm.4,1.3v.6h1.4v-.6Zm0,1.3v.7h1.4v-.7Zm2.2-.7h1.5v-.6h-1.5Zm0,1.3h1.5v-.7h-1.5Z"/>
        <path id="パス_216699" data-name="パス 216699" d="M300.6,311.1h2.2v.7h-5.4v-2.4a2.651,2.651,0,0,1-.5.6c-.1-.2-.2-.3-.3-.5H296v1.7a4.909,4.909,0,0,0,1-.4v.8a6.894,6.894,0,0,1-1,.4v3c0,.7-.3.8-1.3.8h-.5a2.92,2.92,0,0,0-.2-.9c.3,0,.5.1.8.1s.3,0,.3-.3v-2.4c-.3.1-.3.1-.4.2a3.932,3.932,0,0,1-.6.2l-.2-.9a4.91,4.91,0,0,0,1.2-.3v-2H294v-.9c.2,0,.5.1.7.1h.4v-.8a2.787,2.787,0,0,0-.1-1h1c0,.3-.1.6-.1,1v.8h.7v.4a5.293,5.293,0,0,0,1.3-2.3l.9.2c-.2.4-.3.7-.4.9h1.4a3.128,3.128,0,0,0,.5-1l.9.2a6.126,6.126,0,0,1-.5.8h2v.8h-2.1v.5h1.8v.7h-1.8v.5h1.8v.7h-1.8Zm-3.1,1.9h-.7v-.8h4.6c0,.1,0,.1-.1.4,0,.2-.1.3-.2.6h1.7v.4a12.258,12.258,0,0,1-.4,1.6c-.2.4-.5.5-1.2.5a6.245,6.245,0,0,1-1.2-.1,1.884,1.884,0,0,0-.2-.8,6.245,6.245,0,0,0,1.2.1c.5,0,.6-.1.7-1h-1.8a4.052,4.052,0,0,0,.3-1H299c-.2,1.5-.9,2.2-2.5,2.8a1.794,1.794,0,0,0-.5-.7c1.3-.4,2-1,2.1-2.1h-.6Zm2.3-4.5h-1.6v.5h1.6Zm0,1.1h-1.6v.5h1.6Zm-1.6,1.1v.5h1.6v-.5Z"/>
      </g>
      <g id="グループ_90386" data-name="グループ 90386">
        <path id="パス_216700" data-name="パス 216700" d="M240.2,173.2v-.8H247v2.3h1.1v.9h-8.8v-.9h1v-1.5Zm2.1-2h1.6v.8h-4.3v-4.8h3.3a1.974,1.974,0,0,0,.9-.1v.8h-1.5v.7h1.2v1.9h-1.2Zm-.8-2.6V168h-1.1v.7h1.1Zm1.2,1.2v-.6h-2.3v.6Zm-2.3.7v.7h1.1v-.7Zm.7,4.2h1.2v-1.5h-1.2Zm1.9,0h1.2v-1.5H243Zm2-5.7a6.224,6.224,0,0,1-.8,1.2l-.6-.6a5.023,5.023,0,0,0,1.4-2.7l.9.2c0,.1,0,.1-.2.5,0,.1-.2.4-.3.7H247a2.219,2.219,0,0,0,.9-.1v.9H245Zm-.7,1.4h2.4a2.483,2.483,0,0,0,.9-.1v.9h-3.4v-.8Zm.6,4.3h1.2v-1.5h-1.2Z"/>
        <path id="パス_216701" data-name="パス 216701" d="M249.2,170.9a4.923,4.923,0,0,0,1-1.5l.6.3a6.933,6.933,0,0,1-1,1.7Zm4-2.3h.7v.8h-1.8v1.2c0,.4-.2.6-.8.6h-.6a1.7,1.7,0,0,0-.1-.7c.3,0,.4.1.6.1s.2,0,.2-.2v-1h-2.1v-.8h1.8v-1.8h.9v.6h1.7v.7H252v.5h1.2Zm-2.8,7.2c0-.2.1-.6.1-1v-3.6h6.4v3.5a3.749,3.749,0,0,0,.1,1.1h-.9v-.4h-4.6v.4Zm1-3.8v.5H256V172Zm0,1.1v.5H256v-.5Zm0,1.1v.5H256v-.5Zm1.7-3.4a4.129,4.129,0,0,0-.7-1.1l.6-.3c.2.3.5.7.7,1a6.758,6.758,0,0,0,1.5-.8,7.1,7.1,0,0,1-1-1.4l.7-.3a2.73,2.73,0,0,0,.9,1.2,3.045,3.045,0,0,0,.9-1.3h-2.8V167h3.3l.5.4a.769.769,0,0,0-.2.3,6.214,6.214,0,0,1-1.2,1.7,6.08,6.08,0,0,0,1.8.9,2.01,2.01,0,0,0-.4.8,6.657,6.657,0,0,1-2-1.2,9.5,9.5,0,0,1-1.7,1,.918.918,0,0,0-.4-.6Z"/>
      </g>
      <g id="グループ_90387" data-name="グループ 90387">
        <path id="パス_216702" data-name="パス 216702" d="M631.6,276.5a7.158,7.158,0,0,0,.1,1.7h-1.5a8.161,8.161,0,0,0,.1-1.8v-9.6a6.661,6.661,0,0,0-.1-1.6c.4,0,.8.1,1.5.1h2.5a5.757,5.757,0,0,0,1.5-.1v4.7h-4.1v6.6Zm0-9.5h2.9v-.8h-2.9Zm0,1.8h2.9v-.9h-2.9Zm5.5,5.6a5.247,5.247,0,0,0,2.9,1.7,2.507,2.507,0,0,0-.4.7,4.484,4.484,0,0,0,1.1.1c.4,0,.5-.1.5-.4v-6.8h-4.4V265c.4,0,.8.1,1.5.1H641a6.181,6.181,0,0,0,1.5-.1c0,.5-.1,1-.1,1.6v9.8c0,1.2-.3,1.5-1.7,1.5h-1a3.729,3.729,0,0,0-.2-1.2.6.6,0,0,0-.1.4,6.512,6.512,0,0,1-3.1-2.2,5.189,5.189,0,0,1-3.4,2.6,4.309,4.309,0,0,0-.7-1c1.8-.5,2.7-1.1,3.2-2.2h-1.6a4.887,4.887,0,0,0-1.3.1v-1.2a4.121,4.121,0,0,0,1.2.1h1.9a5.386,5.386,0,0,1,.1-1.1h-1.8a2.814,2.814,0,0,0-1.1.1v-1.1c.3,0,.6.1,1.1.1h.6a5.941,5.941,0,0,0-.8-1.1l1.1-.3c.3.5.7,1,.9,1.4H637c.3-.5.5-.8.8-1.4l1.2.3a7.461,7.461,0,0,1-.7,1.2h.6a3.109,3.109,0,0,0,1.1-.1v1.1c-.2,0-.6-.1-1.1-.1h-2a3.75,3.75,0,0,1-.1,1.1h2.3a3.778,3.778,0,0,0,1.2-.1v1.2a4.121,4.121,0,0,0-1.2-.1h-2Zm1-7.4h3.1v-.8h-3.1Zm0,1.8h3.1v-.9h-3.1Z" fill="#fff"/>
        <path id="パス_216703" data-name="パス 216703" d="M646.2,272.3v-2a8.347,8.347,0,0,1-1.1,1.7,14.678,14.678,0,0,0-.6-1.4,12.814,12.814,0,0,0,2.8-6l1.4.3a1,1,0,0,0-.1.4.438.438,0,0,0-.1.3c-.3.8-.6,1.7-1,2.6v8.2a8.665,8.665,0,0,0,.1,1.8h-1.4a9.186,9.186,0,0,0,.1-1.8v-4.1Zm5.2,1.6a13.432,13.432,0,0,1-2.2,3.7,7.631,7.631,0,0,0-1.1-.8,8.091,8.091,0,0,0,2.1-3.4Zm-3.2-2.1c.3,0,.6.1,1.2.1h1.3a8.119,8.119,0,0,0,1-.9,21.144,21.144,0,0,0-2.9-2l.8-1a3.774,3.774,0,0,1,.8.5l.2.1.1-.1.1-.1a6.339,6.339,0,0,0,1.1-1.3h-.4c-.7.1-1.5.1-2.3.2a2.143,2.143,0,0,1-.1-.6c0-.1-.1-.2-.2-.6,2.8,0,7.4-.6,8.1-1.1l.7,1.2c-.2,0-.2,0-.3.1h-.2l-.3.1a32.259,32.259,0,0,1-3.3.6,16.925,16.925,0,0,1-2,2.4,4.81,4.81,0,0,1,1.1.9,11.869,11.869,0,0,0,2.5-3l1.3.7-.1.1s-.2.2-.6.7a18.584,18.584,0,0,1-3.2,3.1,34.909,34.909,0,0,0,3.5-.2c-.3-.5-.5-.7-1-1.4l1-.5a18.805,18.805,0,0,1,2.3,3.3l-1.1.6c-.3-.5-.3-.7-.5-1-1.3.1-1.4.1-3,.2v3.9a7.117,7.117,0,0,0,.1,1.6h-1.5a7.117,7.117,0,0,0,.1-1.6V273c-.7,0-1.4.1-2.2.1H649a1.083,1.083,0,0,0-.6.1Zm7.6,1.6a10.9,10.9,0,0,0,2.4,3.5,3.916,3.916,0,0,0-1,.8,12.453,12.453,0,0,1-2.4-3.7Z" fill="#fff"/>
        <path id="パス_216704" data-name="パス 216704" d="M662.4,273.9V273a13.9,13.9,0,0,1-1.9.6,3.926,3.926,0,0,0-.6-1.3,17.741,17.741,0,0,0,5.8-2.4,11.346,11.346,0,0,1-1.9-1.9,19.362,19.362,0,0,1-2.7,2.1,4.441,4.441,0,0,0-.8-1.1,10.537,10.537,0,0,0,4.6-4.5l1.5.3c-.3.5-.5.8-.7,1.1h3.2a4.512,4.512,0,0,0,1.3-.1l.7.8a5.061,5.061,0,0,1-.8.9,15.209,15.209,0,0,1-2.2,2.2,19.25,19.25,0,0,0,5.6,2.2,8.424,8.424,0,0,0-.6,1.4,18.22,18.22,0,0,1-1.8-.6v4a5.723,5.723,0,0,0,.1,1.4h-1.4v-.8h-6v.8h-1.4c0-.4.1-.9.1-1.4v-2.8Zm7.5-1.2h.6a17.87,17.87,0,0,1-3.7-1.9,20.087,20.087,0,0,1-3.5,1.9h6.6Zm-6.2,3.6h6v-2.5h-6Zm.9-9.1a13.9,13.9,0,0,0,2.1,2.1,13.894,13.894,0,0,0,2.1-2.1Z" fill="#fff"/>
        <path id="パス_216705" data-name="パス 216705" d="M681.4,270.3a4.153,4.153,0,0,0,1.3-.1v1.4c-.3,0-.7-.1-1.2-.1h-4.9a4.922,4.922,0,0,0-1.4.1v-1.4c.3,0,.8.1,1.5.1h3a13.382,13.382,0,0,0,.9-2.6l1.3.3a10.946,10.946,0,0,1-.9,2.3h.4Zm-.2-4a5.313,5.313,0,0,0,1.4-.1v1.3a4.153,4.153,0,0,0-1.3-.1h-4.6a3.778,3.778,0,0,0-1.2.1v-1.3a4.922,4.922,0,0,0,1.4.1h1.6v-.5a3.111,3.111,0,0,0-.1-1.1h1.5c0,.3-.1.6-.1,1.1v.5Zm-3.9,11.9H676c0-.3.1-.7.1-1.4v-4.3h6V277a3.421,3.421,0,0,0,.1,1.1h-1.4v-.9h-3.2v1Zm.2-10.6a6.314,6.314,0,0,1,.8,2.2l-1.2.4a7.166,7.166,0,0,0-.8-2.2Zm-.2,8.6h3.2v-2.4h-3.2ZM688.5,266a3.329,3.329,0,0,0-.3.6c-.5,1.2-1.2,2.6-1.7,3.6a5.387,5.387,0,0,1,1.5,2.2,5.223,5.223,0,0,1,.4,2.1,1.879,1.879,0,0,1-.8,1.7,2.984,2.984,0,0,1-1.6.3h-1a2.9,2.9,0,0,0-.3-1.4,5.284,5.284,0,0,0,1.2.1c.8,0,1-.2,1-.8a4.486,4.486,0,0,0-.5-1.9,6.644,6.644,0,0,0-1.6-2,21.983,21.983,0,0,0,1.8-3.9h-2.4v10.2a7.63,7.63,0,0,0,.1,1.7h-1.5a7.117,7.117,0,0,0,.1-1.6V266.7a5.7,5.7,0,0,0-.1-1.3h3.7a3.778,3.778,0,0,0,1.2-.1Z" fill="#fff"/>
      </g>
      <g id="グループ_90388" data-name="グループ 90388">
        <path id="パス_216706" data-name="パス 216706" d="M644.9,208.6h-3.5a6.15,6.15,0,0,0-1.4.1v-1.2c.3,0,.7.1,1.4.1h3.5v-.7h-3.1a3.778,3.778,0,0,0-1.2.1v-2.9c.3,0,.8.1,1.2.1h3.1v-.7h-4.1a8.116,8.116,0,0,0-1.7.1v-1.2a8.159,8.159,0,0,0,1.8.1H645a3.111,3.111,0,0,0-.1-1.1h1.5a3.421,3.421,0,0,0-.1,1.1h4.3a8.158,8.158,0,0,0,1.8-.1v1.2c-.5,0-.9-.1-1.7-.1h-4.4v.7h3.4a4.121,4.121,0,0,0,1.2-.1c0,.3-.1.6-.1,1v.9a2.787,2.787,0,0,0,.1,1c-.2,0-.7-.1-1.2-.1h-3.4v.7h3.3a6.659,6.659,0,0,0,1.6-.1v1.9a4.922,4.922,0,0,0,1.4-.1v1.2c-.3,0-.7-.1-1.4-.1v.9a5.759,5.759,0,0,0,.1,1.5h-1.4v-.6h-3.6v1c0,1.2-.4,1.4-2,1.4h-1.4a2.2,2.2,0,0,0-.4-1.3,13.433,13.433,0,0,0,1.9.1c.5,0,.6-.1.6-.4v-.9h-3.5a7.083,7.083,0,0,0-1.5.1V211c.4,0,.6.1,1.4.1h3.5v-.8h-4.3a6.219,6.219,0,0,0-1.6.1v-1.2a6.219,6.219,0,0,0,1.6.1h4.3v-.7Zm-3-3.5v.8h3v-.8Zm4.2.8h3.2v-.8h-3.2Zm3.6,3.5v-.8h-3.6v.8Zm-3.6,1.9h3.6v-.8h-3.6Z" fill="#fff"/>
        <path id="パス_216707" data-name="パス 216707" d="M666.9,203.9c-.4,0-.6-.1-1.2-.1a5.96,5.96,0,0,1-1.6,2.4,11.734,11.734,0,0,0,3,1,5.17,5.17,0,0,0-.6,1.3,10.812,10.812,0,0,1-3.4-1.5,12.682,12.682,0,0,1-3.3,1.6,4.052,4.052,0,0,0-.5-.9,12.927,12.927,0,0,1-.9,2,2.837,2.837,0,0,0-.9-.6,16.32,16.32,0,0,0,.9-1.9h-1.1l.1,6.3c0,.9-.4,1.2-1.5,1.2a6.151,6.151,0,0,1-1.3-.1v-.1a3.035,3.035,0,0,0-.3-1.1,8.083,8.083,0,0,0,1.5.1c.3,0,.4-.1.4-.3V209a11.808,11.808,0,0,1-2.3,3.5,5.389,5.389,0,0,0-.7-1.3,8.888,8.888,0,0,0,2.7-4h-1.2a3.778,3.778,0,0,0-1.2.1V206a4.888,4.888,0,0,0,1.3.1h1.7a9.1,9.1,0,0,0-2.1-1.8l.8-.7c.6.5.9.7,1.3,1.1a5.018,5.018,0,0,0,1.4-1.5h-2.8a4.512,4.512,0,0,0-1.3.1V202c.4,0,.7.1,1.4.1H659l.7.7c-.1.1-.2.3-.3.4a12.917,12.917,0,0,1-2,2.3c.1.2.1.2.4.4l-.3.4h1.9l.5.7a4.54,4.54,0,0,0-.3.8,7.413,7.413,0,0,0,2.7-1.2,10.484,10.484,0,0,1-1.4-1.7c-.4.5-.6.7-1.2,1.4a3.45,3.45,0,0,0-.9-.8,7.541,7.541,0,0,0,2.5-4l1.3.3c-.1.1-.1.3-.2.5a4.875,4.875,0,0,0-.3.7h3.3a6.181,6.181,0,0,0,1.5-.1v1Zm-1.7,5.4a3.778,3.778,0,0,0,1.2-.1,14.229,14.229,0,0,0-.1,1.5,7.642,7.642,0,0,1-.7,3.3c-.3.4-.7.5-1.4.5a11.8,11.8,0,0,1-1.6-.1,3.079,3.079,0,0,0-.3-1.3c.8.1,1.3.2,1.7.2.7,0,.7,0,1-2.9h-2.2a6.7,6.7,0,0,1-4.1,4.3,2.837,2.837,0,0,0-.8-1.1,5.318,5.318,0,0,0,3.6-3.2h-1.3a3.451,3.451,0,0,0-1.2.1v-1.3c.3,0,.6.1,1.3.1h1.5a5.286,5.286,0,0,0,.1-1.2v-.2h1.4a1.487,1.487,0,0,0-.1.6c0,.2-.1.4-.1.8h2.1Zm-3.4-5.5a6.261,6.261,0,0,0,1.5,1.8,4.394,4.394,0,0,0,1.2-1.8Z" fill="#fff"/>
        <path id="パス_216708" data-name="パス 216708" d="M670.6,207.8a14.629,14.629,0,0,1-1.8,7,5.731,5.731,0,0,0-1.1-1.1,8.309,8.309,0,0,0,1.3-3.2,38.367,38.367,0,0,0,.5-7.1,6.221,6.221,0,0,0-.1-1.6,9.764,9.764,0,0,0,1.9.1h7.3a7.114,7.114,0,0,0,1.6-.1v3.8h-9.5v1.2h8.9a5.722,5.722,0,0,0,1.4-.1v.4c0,.6-.1,1.4-.1,2.1a17.112,17.112,0,0,1-.7,4.7,1.562,1.562,0,0,1-.8.8,3.45,3.45,0,0,1-1.2.1,9.7,9.7,0,0,1-1.7-.1,2.768,2.768,0,0,0-.3-1.3,18.319,18.319,0,0,0,2.1.2c.6,0,.8-.2,1-1.2a31.6,31.6,0,0,0,.4-4.4h-9.1Zm8.3-3.4V203h-8.2v1.4Zm-7.3,9.1c0-.3.1-.8.1-1.3v-2.3a3.111,3.111,0,0,0-.1-1.1c.3,0,.7.1,1.3.1h3.5a3.778,3.778,0,0,0,1.2-.1v3.8H673v.9Zm1.4-2h3.4V210H673Z" fill="#fff"/>
        <path id="パス_216709" data-name="パス 216709" d="M599.9,227.9h-1.5v-3.6h-2.8v-1.4h2.8v-2.8h1.5v2.8h4V220h1.5v2.9h2.9v1.4h-2.9v.7c0,4.2-1.8,6.2-5.3,7.4l-.8-1.3c3.3-1,4.6-2.6,4.6-6.1v-.6h-4Z" fill="#fff"/>
        <path id="パス_216710" data-name="パス 216710" d="M621.4,232a35.372,35.372,0,0,0-4.1-4.5,15.8,15.8,0,0,1-5.9,4.3l-1-1.2a15.478,15.478,0,0,0,8.3-8.4h-6.9v-1.4h7.9l.9,1a18.25,18.25,0,0,1-2.5,4.6,23.965,23.965,0,0,1,4.5,4.5Z" fill="#fff"/>
        <path id="パス_216711" data-name="パス 216711" d="M625.1,224.2H637v1.3h-5a7.333,7.333,0,0,1-4.2,6.8l-1-1.2a5.9,5.9,0,0,0,3.6-5.6h-5.3Zm1.4-3.6h9.1V222h-9.1Z" fill="#fff"/>
        <path id="パス_216712" data-name="パス 216712" d="M645.1,220h1.5v3.8h5v1.4h-5c-.1,3.4-1.5,5.7-4.5,7.1l-1-1.3a5.993,5.993,0,0,0,3.9-5.9h-5.2v-1.4H645V220Z" fill="#fff"/>
        <path id="パス_216713" data-name="パス 216713" d="M657.2,229c0,.9.5,1.3,2.4,1.3a23.942,23.942,0,0,0,5.5-.5l.2,1.5a33.235,33.235,0,0,1-5.7.4c-2.9,0-3.9-.8-3.9-2.5v-9h1.5v4.6a26.763,26.763,0,0,0,6.5-2.6l.8,1.4a26.477,26.477,0,0,1-7.3,2.6Zm7.1-9.5a8.384,8.384,0,0,1,1.6,2.4l-.9.5a10.967,10.967,0,0,0-1.5-2.4Zm1.6-.8a9.449,9.449,0,0,1,1.6,2.3l-.9.5a8.385,8.385,0,0,0-1.6-2.4Z" fill="#fff"/>
        <path id="パス_216714" data-name="パス 216714" d="M670.9,220.5h1.6v6.7h-1.6Zm7.7-.2v5a6.91,6.91,0,0,1-4.8,7.1l-.9-1.3c2.9-1.1,4.2-2.8,4.2-6v-4.8Z" fill="#fff"/>
        <path id="パス_216715" data-name="パス 216715" d="M683.4,224.2h11.9v1.3h-5a7.333,7.333,0,0,1-4.2,6.8l-1-1.2a5.9,5.9,0,0,0,3.6-5.6h-5.3Zm1.4-3.6h9.1V222h-9.1Z" fill="#fff"/>
        <path id="パス_216716" data-name="パス 216716" d="M705,232.5h-1.5v-5.9a18.386,18.386,0,0,1-4,1.9l-.8-1.1a18.378,18.378,0,0,0,8-5.4l1.2.9a19.28,19.28,0,0,1-3,2.7v6.9Z" fill="#fff"/>
        <path id="パス_216717" data-name="パス 216717" d="M718.1,224.8a4.153,4.153,0,0,0,1.3-.1v1.4c-.3,0-.7-.1-1.2-.1h-4.9a4.922,4.922,0,0,0-1.4.1v-1.4c.3,0,.8.1,1.5.1h3a13.381,13.381,0,0,0,.9-2.6l1.3.3a10.946,10.946,0,0,1-.9,2.3Zm-.2-4a4.153,4.153,0,0,0,1.3-.1V222a4.153,4.153,0,0,0-1.3-.1h-4.6a3.778,3.778,0,0,0-1.2.1v-1.3a4.922,4.922,0,0,0,1.4.1h1.6v-.5a3.111,3.111,0,0,0-.1-1.1h1.5c0,.3-.1.6-.1,1.1v.5ZM714,232.7h-1.3c0-.3.1-.7.1-1.3v-4.3h6v4.5a3.421,3.421,0,0,0,.1,1.1h-1.4v-.9H714Zm.2-10.6a6.314,6.314,0,0,1,.8,2.2l-1.2.4a7.166,7.166,0,0,0-.8-2.2Zm-.2,8.6h3.2v-2.4H714Zm11.2-10.2a3.329,3.329,0,0,0-.3.6c-.5,1.2-1.2,2.6-1.7,3.6a5.387,5.387,0,0,1,1.5,2.2,5.223,5.223,0,0,1,.4,2.1,1.879,1.879,0,0,1-.8,1.7,2.984,2.984,0,0,1-1.6.3h-1a2.9,2.9,0,0,0-.3-1.4,5.284,5.284,0,0,0,1.2.1c.8,0,1-.2,1-.8a4.486,4.486,0,0,0-.5-1.9,6.644,6.644,0,0,0-1.6-2,21.983,21.983,0,0,0,1.8-3.9h-2.4v10.2a7.63,7.63,0,0,0,.1,1.7h-1.5a7.117,7.117,0,0,0,.1-1.6V221a5.7,5.7,0,0,0-.1-1.3h3.7a3.778,3.778,0,0,0,1.2-.1Z" fill="#fff"/>
      </g>
      <g id="グループ_90391" data-name="グループ 90391">
        <g id="グループ_90389" data-name="グループ 90389">
          <path id="パス_216718" data-name="パス 216718" d="M164.2,227.2h-2.3v-5.5h-4.3v-2.1h4.3v-4.3h2.3v4.3h6.1v-4.4h2.3v4.4h4.5v2.1h-4.5v1.1c0,6.4-2.7,9.5-8.1,11.3l-1.2-2c5.1-1.6,7-3.9,7-9.4v-1h-6.1Z" fill="#fff"/>
          <path id="パス_216719" data-name="パス 216719" d="M197.1,233.6a40.974,40.974,0,0,0-6.3-6.8,25.629,25.629,0,0,1-9,6.6l-1.5-1.8A23.23,23.23,0,0,0,193,218.7H182.4v-2.2h12.1l1.3,1.5a29.973,29.973,0,0,1-3.8,7.1,41.387,41.387,0,0,1,7,6.9Z" fill="#fff"/>
          <path id="パス_216720" data-name="パス 216720" d="M202.6,221.5h18.3v2.1h-7.7c-.1,4.9-2.2,8.3-6.4,10.5l-1.5-1.8a9.08,9.08,0,0,0,5.5-8.6h-8.2v-2.2Zm2.2-5.4h14v2.1h-14Z" fill="#fff"/>
          <path id="パス_216721" data-name="パス 216721" d="M233,215h2.4v5.8h7.7v2.1h-7.7c-.2,5.2-2.3,8.7-6.9,10.9l-1.5-1.9c4-1.8,5.8-4.5,6-9h-8v-2.1h8Z" fill="#fff"/>
          <path id="パス_216722" data-name="パス 216722" d="M251.6,228.9c0,1.4.7,2,3.6,2a38.945,38.945,0,0,0,8.5-.8l.3,2.3a47.185,47.185,0,0,1-8.7.7c-4.5,0-6-1.2-6-3.8V215.5h2.3v7a40.211,40.211,0,0,0,10-4l1.2,2.1a44.007,44.007,0,0,1-11.2,4v4.3Zm10.9-14.5a17.108,17.108,0,0,1,2.5,3.7l-1.4.8a16.65,16.65,0,0,0-2.3-3.7Zm2.5-1.2a16.369,16.369,0,0,1,2.5,3.6l-1.4.8a21.508,21.508,0,0,0-2.4-3.7Z" fill="#fff"/>
          <path id="パス_216723" data-name="パス 216723" d="M271.2,215.8h2.4v10.3h-2.4Zm11.9-.2v7.7c0,5.7-2.6,9-7.4,10.9l-1.4-2c4.5-1.7,6.4-4.3,6.4-9.1v-7.4h2.4Z" fill="#fff"/>
          <path id="パス_216724" data-name="パス 216724" d="M288.7,221.5H307v2.1h-7.7c-.1,4.9-2.2,8.3-6.4,10.5l-1.5-1.8a9.08,9.08,0,0,0,5.5-8.6h-8.2v-2.2Zm2.2-5.4h14v2.1h-14Z" fill="#fff"/>
          <path id="パス_216725" data-name="パス 216725" d="M319.1,234.2h-2.2v-9a31.439,31.439,0,0,1-6.1,3l-1.2-1.7a28.063,28.063,0,0,0,12.3-8.3l1.8,1.4a29.394,29.394,0,0,1-4.6,4.1v10.5Z" fill="#fff"/>
          <path id="パス_216726" data-name="パス 216726" d="M345.9,234.8a54.678,54.678,0,0,0-7-2.6,24.6,24.6,0,0,1-9.7,2.6,2.471,2.471,0,0,0-.4-.9c-.2-.4-.3-.5-.6-1.1a22.076,22.076,0,0,0,8.1-1.3,41.931,41.931,0,0,0-5.1-1.1,18.437,18.437,0,0,0,2.3-2.5h-3a15.573,15.573,0,0,0-2.4.1v-2a10.932,10.932,0,0,0,2,.1h4.7a5.8,5.8,0,0,0,1-1.9l.9.1c0-.4.1-.6.1-1.4v-1.8a20.248,20.248,0,0,1-8.2,4.4,6.191,6.191,0,0,0-1.1-1.7,21.112,21.112,0,0,0,7.6-3.3h-4.6a18.576,18.576,0,0,0-2.6.1v-2a18.576,18.576,0,0,0,2.6.1h6.1v-1.8c-1.8.1-3.4.2-6.5.2a6.529,6.529,0,0,0-.8-1.7h1.4c5.6,0,11.2-.6,13.7-1.4l1.4,1.8c-3.2.5-4.1.6-7.2.9v2H345a18.576,18.576,0,0,0,2.6-.1v2a17.041,17.041,0,0,0-2.5-.1h-4.8a19.8,19.8,0,0,0,7.9,3.2,9.64,9.64,0,0,0-1,1.8,18.024,18.024,0,0,1-8.6-4.4c0,.4.1.6.1,1.1v.7a7.628,7.628,0,0,0,.1,1.7H338c-.1.1-.2.2-.2.3-.1.2-.2.3-.8,1.2h8.8a11.517,11.517,0,0,0,2-.1v2a14.892,14.892,0,0,0-2.4-.1h-2.3a9.26,9.26,0,0,1-2.5,3.1,67.281,67.281,0,0,1,6.8,2.3Zm-10.2-7.1c-.7.8-.8,1-1.4,1.7a41.775,41.775,0,0,1,4.1.9,8.259,8.259,0,0,0,2.4-2.6h-5.1Z" fill="#fff"/>
          <path id="パス_216727" data-name="パス 216727" d="M354.9,230.8a17.771,17.771,0,0,0-2.5.1,2.2,2.2,0,0,1,.1-.8V223a14.227,14.227,0,0,0-.1-2.4,17.041,17.041,0,0,0,2.5.1h11.7a17.041,17.041,0,0,0,2.5-.1,14.892,14.892,0,0,0-.1,2.4v6.7a3.749,3.749,0,0,0,.1,1.1,17.771,17.771,0,0,0-2.5-.1h-2a18.4,18.4,0,0,0,6.6,2.3,6.947,6.947,0,0,0-1.2,1.8,16.41,16.41,0,0,1-7.2-3.1l1.3-1h-6.8l1.4,1.1a19.792,19.792,0,0,1-7.2,3,5.536,5.536,0,0,0-1.2-1.9,15.593,15.593,0,0,0,6.6-2.2h-2ZM368.2,218a9.149,9.149,0,0,0,.1,1.7c-.7,0-1.5-.1-2.5-.1H355.7a18.52,18.52,0,0,0-2.5.1,8.622,8.622,0,0,0,.1-1.7v-1.7a9.149,9.149,0,0,0-.1-1.7,17.831,17.831,0,0,0,2.6.1h10a19.339,19.339,0,0,0,2.6-.1,9.149,9.149,0,0,0-.1,1.7V218Zm-13.8,5.6H367v-1.3H354.4Zm0,2.8H367v-1.3H354.4Zm0,2.8H367v-1.3H354.4Zm.9-12.8V218h10.8v-1.6Z" fill="#fff"/>
          <path id="パス_216728" data-name="パス 216728" d="M377.9,221.2a23.166,23.166,0,0,1-3.8,2.1,6.793,6.793,0,0,0-1.1-1.9c4-1.6,7.6-4.3,9.4-7.2h2.2c1.6,2.6,5.8,5.7,9.8,7.1a14.306,14.306,0,0,0-1.1,2.1,27.287,27.287,0,0,1-4-2.2V223a10.364,10.364,0,0,0-2-.1h-7.5a11.482,11.482,0,0,0-1.9.1Zm-1.3,5.9a17.831,17.831,0,0,0-2.6.1V225a18.576,18.576,0,0,0,2.6.1h14a18.576,18.576,0,0,0,2.6-.1v2.2a18.576,18.576,0,0,0-2.6-.1h-7.9a24.5,24.5,0,0,1-2.6,4.8l2.7-.2c2.4-.2,2.9-.2,5.1-.5-.9-.9-1.5-1.6-2.4-2.6l1.7-.9a55.349,55.349,0,0,1,5.3,6l-1.8,1.2c-.6-1-1-1.5-1.4-2.1-3.2.4-5.9.7-11.4,1.2-1.7.1-2.7.2-3.3.3l-.3-2.3c.5,0,.9.1,1.2.1.1,0,.3,0,2.1-.1a33.479,33.479,0,0,0,2.6-4.9h-3.6Zm10.6-6.2h1.6a21.107,21.107,0,0,1-5.3-4.9,20.66,20.66,0,0,1-5.2,4.9h8.9Z" fill="#fff"/>
        </g>
        <g id="グループ_90390" data-name="グループ 90390">
          <path id="パス_216729" data-name="パス 216729" d="M127.9,257.5a42.757,42.757,0,0,0-4.6-1.7,15.874,15.874,0,0,1-6.3,1.7,1.141,1.141,0,0,0-.3-.6,4.347,4.347,0,0,1-.4-.7,15.155,15.155,0,0,0,5.3-.8c-1.2-.3-2.1-.5-3.3-.8.6-.6.9-.9,1.5-1.6h-2a7.115,7.115,0,0,0-1.6.1v-1.3a4.512,4.512,0,0,0,1.3.1h3.1c.4-.7.5-.9.7-1.2l.6.1v-2.1a14.475,14.475,0,0,1-5.3,2.9,3.378,3.378,0,0,0-.7-1.1,12.7,12.7,0,0,0,5-2.2h-3a8.115,8.115,0,0,0-1.7.1v-1.3a8.116,8.116,0,0,0,1.7.1h4V246c-1.2.1-2.2.1-4.3.1a5.36,5.36,0,0,0-.5-1.1h.9a37.305,37.305,0,0,0,8.9-.9l.9,1.2c-2.1.3-2.7.4-4.7.6v1.3h4.2a8.116,8.116,0,0,0,1.7-.1v1.3a7.628,7.628,0,0,0-1.7-.1h-3.1a13.148,13.148,0,0,0,5.2,2.1,6.348,6.348,0,0,0-.7,1.2,12.854,12.854,0,0,1-5.6-2.8V250a3.421,3.421,0,0,0,.1,1.1h-.5c-.1.1-.1.1-.1.2-.1.1-.1.2-.5.8h5.7a4.887,4.887,0,0,0,1.3-.1v1.3a6.659,6.659,0,0,0-1.6-.1H126a6.155,6.155,0,0,1-1.6,2,32.138,32.138,0,0,1,4.4,1.5Zm-6.6-4.6c-.4.5-.5.6-.9,1.1a21.385,21.385,0,0,1,2.7.6,5.1,5.1,0,0,0,1.6-1.7h-3.4Z" fill="#fff"/>
          <path id="パス_216730" data-name="パス 216730" d="M133.5,254.9a8.115,8.115,0,0,0-1.7.1v-5.1a6.659,6.659,0,0,0-.1-1.6c.4,0,.9.1,1.7.1H141a7.115,7.115,0,0,0,1.6-.1c0,.4-.1.8-.1,1.6V255c-.4,0-.9-.1-1.6-.1h-1.3a13.644,13.644,0,0,0,4.3,1.5,6.207,6.207,0,0,0-.8,1.2,11.933,11.933,0,0,1-4.7-2l.8-.7H135l.9.7a12.537,12.537,0,0,1-4.7,1.9,3.166,3.166,0,0,0-.8-1.2,9.91,9.91,0,0,0,4.3-1.4Zm8.6-8.3a3.749,3.749,0,0,0,.1,1.1h-9.8c0-.3.1-.7.1-1.1v-1.1a4.1,4.1,0,0,0-.1-1.1,8.115,8.115,0,0,0,1.7.1h6.5a8.115,8.115,0,0,0,1.7-.1c0,.4-.1.7-.1,1.1v1.1Zm-8.9,3.6h8.2v-.8h-8.2Zm0,1.9h8.2v-.9h-8.2Zm0,1.8h8.2V253h-8.2Zm.6-8.4v1h7v-1Z" fill="#fff"/>
          <path id="パス_216731" data-name="パス 216731" d="M156.9,252.4l-.4.4a13.034,13.034,0,0,1-2,1.5,13.607,13.607,0,0,0,4.1,1.5,6.109,6.109,0,0,0-.7,1.4c-3.6-.9-6.3-2.9-7.5-5.5H149v3.6a22.491,22.491,0,0,0,3-.9v1.2c-1.1.4-3.5,1-5.7,1.5a6.372,6.372,0,0,1-.7.2l-.3-1.4a14.947,14.947,0,0,0,2.2-.3v-3.9h-.9a6.181,6.181,0,0,0-1.5.1v-1.4a5.349,5.349,0,0,0,1.5.1h.9V246a6.181,6.181,0,0,0-.1-1.5c.3,0,.9.1,1.6.1h6.4a7.628,7.628,0,0,0,1.7-.1v1.3a6.659,6.659,0,0,0-1.6-.1H149v.9h6.3a5.313,5.313,0,0,0,1.4-.1v1.3c-.3,0-.9-.1-1.4-.1H149v.9h6.3a4.922,4.922,0,0,0,1.4-.1v1.3a5.721,5.721,0,0,0-1.4-.1H149v.9h7.9a5.313,5.313,0,0,0,1.4-.1v1.4a4.888,4.888,0,0,0-1.3-.1h-1.3Zm-5-.6a5.606,5.606,0,0,0,1.6,1.9,9.951,9.951,0,0,0,2.1-1.9Z" fill="#fff"/>
          <path id="パス_216732" data-name="パス 216732" d="M167.4,246.5v2.1h-2.1v-2.1Zm0,6.2v2.1h-2.1v-2.1Z" fill="#fff"/>
          <path id="パス_216733" data-name="パス 216733" d="M180.5,247.1c-1.4.2-2.7.3-4,.4l-.4-1.4a29.886,29.886,0,0,0,8.7-1.5l.8,1.3q-1.65.45-3.6.9v2.7h5v1.3h-5c-.2,2.9-1.8,4.9-4.8,6.1l-.8-1.2c2.5-1,3.8-2.5,4-4.9H175v-1.3h5.6v-2.4Z" fill="#fff"/>
          <path id="パス_216734" data-name="パス 216734" d="M201.5,249.9v1.6h-12v-1.6Z" fill="#fff"/>
          <path id="パス_216735" data-name="パス 216735" d="M215.5,246.8a12.213,12.213,0,0,1-8.2,10.1l-.8-1.3c4-1.5,6.6-4.3,7.3-8.2H205V246h9.7Z" fill="#fff"/>
          <path id="パス_216736" data-name="パス 216736" d="M226.1,250.7a1.538,1.538,0,0,1-1.5,1.5,1.5,1.5,0,1,1,1.5-1.5Z" fill="#fff"/>
          <path id="パス_216737" data-name="パス 216737" d="M237.2,252.5h-1.5V249h-2.8v-1.4h2.8v-2.8h1.5v2.8h4v-2.9h1.5v2.9h2.9V249h-2.9v.7c0,4.2-1.8,6.2-5.3,7.4l-.8-1.3c3.3-1,4.6-2.6,4.6-6.1V249h-4Z" fill="#fff"/>
          <path id="パス_216738" data-name="パス 216738" d="M258.6,256.7a35.368,35.368,0,0,0-4.1-4.5,15.8,15.8,0,0,1-5.9,4.3l-1-1.2a15.478,15.478,0,0,0,8.3-8.4H249v-1.4h7.9l.9,1a18.25,18.25,0,0,1-2.5,4.6,23.964,23.964,0,0,1,4.5,4.5Z" fill="#fff"/>
          <path id="パス_216739" data-name="パス 216739" d="M262.4,248.8h11.9v1.3h-5a7.333,7.333,0,0,1-4.2,6.8l-1-1.2a5.9,5.9,0,0,0,3.6-5.6h-5.3Zm1.4-3.5h9.1v1.4h-9.1Z" fill="#fff"/>
          <path id="パス_216740" data-name="パス 216740" d="M282.4,244.6h1.5v3.8h5v1.4h-5c-.1,3.4-1.5,5.7-4.5,7.1l-1-1.3a5.993,5.993,0,0,0,3.9-5.9h-5.2v-1.4h5.2v-3.7Z" fill="#fff"/>
          <path id="パス_216741" data-name="パス 216741" d="M294.5,253.7c0,.9.5,1.3,2.4,1.3a23.942,23.942,0,0,0,5.5-.5l.2,1.5a33.236,33.236,0,0,1-5.7.4c-2.9,0-3.9-.8-3.9-2.5v-9h1.5v4.6a26.763,26.763,0,0,0,6.5-2.6l.8,1.4a26.477,26.477,0,0,1-7.3,2.6Zm7.1-9.5a8.384,8.384,0,0,1,1.6,2.4l-.9.5a10.966,10.966,0,0,0-1.5-2.4Zm1.6-.8a9.449,9.449,0,0,1,1.6,2.3l-.9.5a8.384,8.384,0,0,0-1.6-2.4Z" fill="#fff"/>
          <path id="パス_216742" data-name="パス 216742" d="M308.2,245.2h1.6v6.7h-1.6Zm7.7-.2v5a6.91,6.91,0,0,1-4.8,7.1l-.9-1.3c2.9-1.1,4.2-2.8,4.2-6V245Z" fill="#fff"/>
          <path id="パス_216743" data-name="パス 216743" d="M320.6,248.8h11.9v1.3h-5a7.333,7.333,0,0,1-4.2,6.8l-1-1.2a5.9,5.9,0,0,0,3.6-5.6h-5.3Zm1.4-3.5h9.1v1.4H322Z" fill="#fff"/>
          <path id="パス_216744" data-name="パス 216744" d="M342.3,257.2h-1.5v-5.9a18.386,18.386,0,0,1-4,1.9l-.8-1.1a18.378,18.378,0,0,0,8-5.4l1.2.9a19.277,19.277,0,0,1-3,2.7v6.9Z" fill="#fff"/>
          <path id="パス_216745" data-name="パス 216745" d="M357.2,250.7a1.538,1.538,0,0,1-1.5,1.5,1.5,1.5,0,0,1,0-3A1.538,1.538,0,0,1,357.2,250.7Z" fill="#fff"/>
          <path id="パス_216746" data-name="パス 216746" d="M364.7,248.6v-1.3h6.5l-.1-3h1.5l.1,3h3.4v1.3h-3.3l.2,6.5c0,1.3-.6,1.8-1.9,1.8a10.282,10.282,0,0,1-1.8-.1l-.2-1.5a13.664,13.664,0,0,0,1.9.2c.4,0,.6-.1.6-.5l-.1-2.9v-2.4a17.869,17.869,0,0,1-6.4,5.8l-.9-1.1a18.293,18.293,0,0,0,6.4-5.6h-5.9Z" fill="#fff"/>
          <path id="パス_216747" data-name="パス 216747" d="M390.3,246.8a12.213,12.213,0,0,1-8.2,10.1l-.8-1.3c4.1-1.5,6.6-4.3,7.3-8.2h-8.8V246h9.7Z" fill="#fff"/>
          <path id="パス_216748" data-name="パス 216748" d="M400.5,257.2H399v-5.9a18.386,18.386,0,0,1-4,1.9l-.8-1.1a18.378,18.378,0,0,0,8-5.4l1.2.9a19.277,19.277,0,0,1-3,2.7v6.9Z" fill="#fff"/>
          <path id="パス_216749" data-name="パス 216749" d="M412,252.5h-1.5V249h-2.8v-1.4h2.8v-2.8H412v2.8h4v-2.9h1.5v2.9h2.9V249h-2.9v.7c0,4.2-1.8,6.2-5.3,7.4l-.8-1.3c3.3-1,4.6-2.6,4.6-6.1V249h-4v3.5Z" fill="#fff"/>
          <path id="パス_216750" data-name="パス 216750" d="M434.6,249.9v1.6h-12v-1.6Z" fill="#fff"/>
          <path id="パス_216751" data-name="パス 216751" d="M250.5,275.8a10.141,10.141,0,0,1,0-14.2h1.3a10.141,10.141,0,0,0,0,14.2Z" fill="#fff"/>
          <path id="パス_216752" data-name="パス 216752" d="M261.7,274.3a17.913,17.913,0,0,1-2.4.2c-3.5,0-6.1-1.6-6.1-5.6,0-4.1,2.9-5.9,6.1-5.9a8.965,8.965,0,0,1,2.4.2v1.6a8.953,8.953,0,0,0-2.3-.2,3.963,3.963,0,0,0-4.3,4.2c0,3.2,2,4.3,4.7,4.3a13.61,13.61,0,0,0,2.1-.2v1.4Z" fill="#fff"/>
          <path id="パス_216753" data-name="パス 216753" d="M263.4,272.5a8.8,8.8,0,0,0,2.9.6c1.6,0,2.1-.8,2.1-1.5,0-.9-.3-1.4-1.8-2.1l-.8-.4c-1.8-.8-2.3-1.7-2.3-3,0-1.8,1.4-3.2,3.8-3.2a9.863,9.863,0,0,1,2.4.3v1.6a7.658,7.658,0,0,0-2.5-.4c-1.3,0-2,.6-2,1.5,0,.8.3,1.2,1.5,1.8l.8.4c1.8.9,2.6,1.6,2.6,3.1,0,2.1-1.5,3.4-3.9,3.4a6.671,6.671,0,0,1-2.8-.5v-1.6Z" fill="#fff"/>
          <path id="パス_216754" data-name="パス 216754" d="M277.5,274.4v-.9a3.607,3.607,0,0,1-2.6.9,2.58,2.58,0,0,1-2.7-2.9V266h1.7v5.2c0,1.3.6,1.9,1.7,1.9a2.732,2.732,0,0,0,1.9-.8V266h1.7v8.3h-1.7Z" fill="#fff"/>
          <path id="パス_216755" data-name="パス 216755" d="M280.8,272.8a5.852,5.852,0,0,0,2.2.5c1.1,0,1.5-.4,1.5-1.1a1.049,1.049,0,0,0-.9-1.1l-1.1-.4a2.1,2.1,0,0,1-1.6-2.1c0-1.7,1.3-2.6,3-2.6a12.31,12.31,0,0,1,2,.2v1.4a7.469,7.469,0,0,0-2-.3c-.9,0-1.4.4-1.4,1.1,0,.6.2.9.9,1.1l1.2.4a2.031,2.031,0,0,1,1.6,2.1c0,1.6-1.2,2.6-3.1,2.6a8.524,8.524,0,0,1-2.3-.3v-1.5Z" fill="#fff"/>
          <path id="パス_216756" data-name="パス 216756" d="M298.1,268.7c0,3.7-2.2,5.9-5.3,5.9s-5.3-1.8-5.3-5.8c0-3.7,2.2-5.9,5.3-5.9C295.9,263,298.1,264.7,298.1,268.7Zm-8.8.2c0,3.4,1.8,4.3,3.5,4.3s3.5-1.1,3.5-4.4c0-3.4-1.8-4.3-3.5-4.3S289.3,265.5,289.3,268.9Z" fill="#fff"/>
          <path id="パス_216757" data-name="パス 216757" d="M299.4,275.8a10.141,10.141,0,0,0,0-14.2h1.3a10.141,10.141,0,0,1,0,14.2Z" fill="#fff"/>
        </g>
      </g>
    </g>
  </g>
</svg>
