<svg xmlns="http://www.w3.org/2000/svg" width="433.248" height="131.547" viewBox="0 0 433.248 131.547"><defs><style>.cls-1{fill:#fff;}</style></defs><title>sp</title><g id="レイヤー_2" data-name="レイヤー 2"><g id="keycopy"><g id="group"><path class="cls-1" d="M35.956,35.145l.07.209q-2.13,8.026-6.98,12.476T16.169,52.28A15.218,15.218,0,0,1,3.481,46.033Q-1.317,39.786.5,30.747l1.918-9.633Q4.406,11.063,9.991,5.531A18.864,18.864,0,0,1,23.811,0q7.852,0,12.3,4.9t3.473,12.826l-.071.174H31.384q.489-5.235-1.553-8.166T22.938,6.806q-4.291,0-7.607,4.009a22.559,22.559,0,0,0-4.537,10.216L8.839,30.725q-1.328,6.626.908,10.687a7.6,7.6,0,0,0,7.189,4.063,9.24,9.24,0,0,0,6.823-2.522,18.79,18.79,0,0,0,4.169-7.808Z"/><path class="cls-1" d="M58.165,30.468,53.977,51.547H45.6L55.757.732h17.66q7.433,0,11.236,3.91T87.061,15.53a14.675,14.675,0,0,1-3.279,7,17.226,17.226,0,0,1-6.527,4.451A8.171,8.171,0,0,1,82.036,31.5a12.969,12.969,0,0,1,.42,7.416l-.838,4.223a16.983,16.983,0,0,0-.367,4.432,5.032,5.032,0,0,0,1.134,3.176l-.173.8H73.626a4.833,4.833,0,0,1-.961-3.647,28.525,28.525,0,0,1,.646-4.834l.8-4.083q.8-4.152-.68-6.335t-5.009-2.18Zm1.361-6.806h8.9a10.938,10.938,0,0,0,6.841-2.007,9.545,9.545,0,0,0,3.42-5.916q.8-4.081-.785-6.141t-5.846-2.06H62.772Z"/><path class="cls-1" d="M128.362,28.688H107.911L104.7,44.741h23.766l-1.36,6.806H95L105.153.732h31.863l-1.361,6.806H112.134l-2.862,14.344h20.451Z"/><path class="cls-1" d="M167.079,39.681h-17.94L143,51.547h-8.41L162.053.732h7.887l6.945,50.815H168.44ZM152.805,32.6h13.471L163.9,11.587l-.209-.035Z"/><path class="cls-1" d="M225.829,7.538H211.762l-8.795,44.009h-8.339l8.8-44.009H189.358L190.719.732h36.469Z"/><path class="cls-1" d="M261.753,28.688H241.3l-3.21,16.053h23.765L260.5,51.547h-32.11L238.544.732h31.863l-1.361,6.806H245.524l-2.861,14.344h20.451Z"/><path class="cls-1" d="M312.967,52.047h-9.361l8.8-44.009H298.336L299.9.232h37.491l-1.561,7.806H321.762Zm-8.142-1h7.322l8.8-44.009h14.065l1.161-5.806H300.717l-1.161,5.806H313.62Z"/><path class="cls-1" d="M375.52,52.047h-9.326l4.328-21.673H351.055l-4.328,21.673h-9.359L347.723.232h9.361l-4.467,22.336h19.466L376.55.232h9.326Zm-8.107-1H374.7l9.957-49.815H377.37L372.9,23.568H351.4l4.467-22.336h-7.319l-9.957,49.815h7.32l4.328-21.673h21.506Z"/><path class="cls-1" d="M423.137,52.047H390.009L400.364.232h32.884l-1.562,7.806H408.165L405.5,21.382h20.452l-1.562,7.806H403.942l-3.011,15.053H424.7Zm-31.91-1h31.09l1.16-5.806H399.711l3.411-17.053h20.451l1.161-5.806h-20.45l3.06-15.344h23.522l1.161-5.806H401.184Z"/><path class="cls-1" d="M77.36,131.547H69.018L56.036,95.182h-.209l-7.26,36.365h-8.34L50.384,80.732h8.339l12.983,36.331h.211l7.258-36.331h8.341Z"/><path class="cls-1" d="M126.233,108.688H105.782l-3.211,16.053h23.766l-1.36,6.806H92.868l10.156-50.815h31.863l-1.361,6.806H110.005l-2.862,14.344h20.451Z"/><path class="cls-1" d="M158.563,99.509l12.565-18.777h9.91l-18.461,25.2,10.853,25.616H163.415l-6.772-19.09-12.879,19.09h-9.91l18.811-25.616L142.3,80.732h9.806Z"/><path class="cls-1" d="M225.653,87.538H211.589l-8.795,44.009h-8.342l8.8-44.009H189.182l1.362-6.806h36.47Z"/><path class="cls-1" d="M283.542,108.688H263.091l-3.211,16.053h23.767l-1.361,6.806H250.178l10.157-50.815H292.2l-1.361,6.806H267.313l-2.861,14.344H284.9Z"/><path class="cls-1" d="M306.659,110.468l-4.188,21.079h-8.377l10.157-50.815h17.66q7.432,0,11.236,3.91t2.408,10.888a14.675,14.675,0,0,1-3.279,7,17.226,17.226,0,0,1-6.527,4.451,8.171,8.171,0,0,1,4.781,4.519,12.96,12.96,0,0,1,.42,7.416l-.838,4.223a16.983,16.983,0,0,0-.367,4.432,5.027,5.027,0,0,0,1.135,3.176l-.174.8H322.12a4.833,4.833,0,0,1-.961-3.647,28.525,28.525,0,0,1,.646-4.834l.8-4.083q.8-4.152-.68-6.335t-5.009-2.18Zm1.361-6.806h8.9a10.938,10.938,0,0,0,6.841-2.007,9.54,9.54,0,0,0,3.42-5.916q.8-4.082-.785-6.141t-5.845-2.06h-9.284Z"/><path class="cls-1" d="M371.655,119.681H353.717l-6.142,11.866h-8.412L366.63,80.732h7.888l6.944,50.815h-8.446ZM357.382,112.6h13.47l-2.373-21.01-.209-.035Z"/></g></g></g></svg>