<?xml version="1.0" encoding="utf-8"?>
<!-- Generator: Adobe Illustrator 21.0.2, SVG Export Plug-In . SVG Version: 6.00 Build 0)  -->
<svg version="1.1" id="レイヤー_1" xmlns="http://www.w3.org/2000/svg" xmlns:xlink="http://www.w3.org/1999/xlink" x="0px"
	 y="0px" viewBox="0 0 34 14" style="enable-background:new 0 0 34 14;" xml:space="preserve">
<style type="text/css">
	.st0{enable-background:new    ;}
	.st1{fill:#DEE2E5;}
</style>
<g class="st0">
	<path class="st1" d="M6.5,4.3C6.2,2.9,5.9,2.4,4.3,2.4C3.6,2.4,3,2.6,2.6,2.9C2.3,3.2,2.1,3.6,2.1,4c0,0.4,0.2,0.9,0.5,1.1
		C3,5.5,3.5,5.8,4.4,6.2c1.1,0.6,1.9,0.9,2.5,1.6c0.3,0.3,0.6,1,0.6,1.7c0,0.7-0.3,1.4-0.8,1.9c-0.6,0.5-1.5,0.9-2.8,0.9
		c-0.8,0-1.8-0.2-2.6-0.5C1.2,10.9,1,10.3,0.9,9.6l0.5-0.1c0.4,1.7,1.2,2.1,2.7,2.1c0.6,0,1.2-0.2,1.7-0.5s0.7-0.8,0.7-1.5
		c0-0.6-0.2-0.9-0.4-1.2C5.6,7.9,4.8,7.6,4,7.2C3.1,6.7,2,6.1,1.6,5.5C1.3,5.2,1.1,4.7,1.1,4.2C1.1,3.6,1.4,3,2,2.5
		c0.5-0.4,1.3-0.7,2.4-0.7C5.2,1.9,6,2,6.7,2.3c0.1,0.6,0.2,1.3,0.3,2L6.5,4.3z"/>
	<path class="st1" d="M13.9,10.8c-0.2,0.3-0.5,0.7-0.9,1c-0.4,0.2-0.9,0.4-1.5,0.4c-0.9,0-1.5-0.3-2-0.7c-0.7-0.7-0.9-1.6-0.9-2.6
		c0-1,0.3-1.8,0.8-2.3c0.6-0.7,1.3-1,2.2-1c0.7,0,1.3,0.2,1.7,0.5c0.3,0.2,0.5,0.5,0.5,0.8c0,0.3-0.1,0.4-0.4,0.4
		c-0.3,0-0.4-0.2-0.7-0.7C12.5,6.2,12.2,6,11.6,6c-0.5,0-1.1,0.3-1.4,0.8c-0.4,0.5-0.5,1.1-0.5,2c0,0.9,0.2,1.5,0.5,2
		c0.4,0.6,0.9,0.9,1.6,0.9c0.4,0,0.8-0.1,1.1-0.3c0.3-0.2,0.5-0.4,0.8-0.8L13.9,10.8z"/>
	<path class="st1" d="M15.4,7.3c0-0.8-0.1-0.9-0.8-0.9V6.1c0.6-0.1,1-0.2,1.5-0.6l0.1,0.1l0,0.9h0c0.5-0.7,0.9-1,1.5-1
		c0.3,0,0.5,0.1,0.7,0.3c0.2,0.2,0.3,0.4,0.3,0.6c0,0.3-0.2,0.5-0.4,0.5c-0.2,0-0.4-0.1-0.5-0.4c-0.1-0.4-0.2-0.5-0.4-0.5
		c-0.4,0-0.7,0.4-1.2,1.1v3.5c0,0.8,0.1,0.9,0.9,0.9V12h-2.6v-0.4c0.7,0,0.8-0.1,0.8-0.9V7.3z"/>
	<path class="st1" d="M20.3,6.3c0.5-0.5,1.2-0.8,2.1-0.8c0.9,0,1.6,0.3,2.1,0.8c0.5,0.5,0.9,1.4,0.9,2.5c0,1.3-0.3,2.1-0.9,2.6
		c-0.6,0.5-1.2,0.7-2.1,0.7c-0.8,0-1.5-0.2-2.1-0.7c-0.5-0.5-0.9-1.4-0.9-2.6C19.5,7.7,19.8,6.8,20.3,6.3z M21.1,11.1
		c0.3,0.4,0.8,0.6,1.4,0.6c0.6,0,1-0.2,1.4-0.6c0.4-0.4,0.6-1.2,0.6-2.3c0-1.1-0.2-1.8-0.6-2.3C23.5,6.2,23,6,22.4,6
		c-0.6,0-1,0.2-1.4,0.6c-0.4,0.5-0.6,1.2-0.6,2.3C20.5,10,20.7,10.7,21.1,11.1z"/>
	<path class="st1" d="M27.4,4c0-0.8,0-0.9-1.1-0.9V2.9c0.9-0.1,1.3-0.3,1.9-0.6l0.1,0.1v8.3c0,0.8,0,0.9,1,0.9V12h-3.1v-0.4
		c1.1,0,1.1-0.1,1.1-0.9V4z"/>
	<path class="st1" d="M31.3,4c0-0.8,0-0.9-1.1-0.9V2.9c0.9-0.1,1.3-0.3,1.9-0.6l0.1,0.1v8.3c0,0.8,0,0.9,1,0.9V12h-3.1v-0.4
		c1.1,0,1.1-0.1,1.1-0.9V4z"/>
</g>
</svg>
