<svg xmlns="http://www.w3.org/2000/svg" width="257.935" height="40" viewBox="0 0 257.935 40">
  <g id="_1996-2006" data-name="1996-2006" transform="translate(128.967 20)">
    <g id="_1996-2006-2" data-name="1996-2006" transform="translate(-128.967 -20)">
      <g id="グループ_80880" data-name="グループ 80880" transform="translate(0 0.18)">
        <path id="パス_127321" data-name="パス 127321" d="M3.5,9.99A46.52,46.52,0,0,0,13.254,5.3l.75.375V37.939c0,3.939.375,4.314,5.065,4.314v1.876H3.5V42.254c5.065,0,5.252-.375,5.252-4.314V14.116c0-2.251-.188-3.189-1.313-3.189a11.442,11.442,0,0,0-3.564,1.125Z" transform="translate(-3.5 -5.087)"/>
        <path id="パス_127322" data-name="パス 127322" d="M14.609,17.968A13.506,13.506,0,0,1,17.8,8.776a11.255,11.255,0,0,1,9-3.564c6.941,0,12.38,5.627,12.38,18.571,0,7.128-1.125,12.756-3.752,16.507a10.88,10.88,0,0,1-9.379,4.69,12.568,12.568,0,0,1-7.691-2.251,6.941,6.941,0,0,1-2.626-4.877c0-1.5.75-2.439,2.063-2.439s2.251.75,3,2.814A9.942,9.942,0,0,0,22.675,41.6a5.252,5.252,0,0,0,3.564,1.313,5.815,5.815,0,0,0,5.252-3.189c1.876-3.189,2.626-8.441,2.626-14.256H33.93a9.379,9.379,0,0,1-8.254,4.877,10.129,10.129,0,0,1-7.691-3,12.756,12.756,0,0,1-3.376-9.379Zm5.44,0a14.444,14.444,0,0,0,2.063,7.5,5.815,5.815,0,0,0,4.69,2.251,6.19,6.19,0,0,0,5.252-3,8.629,8.629,0,0,0,1.688-5.627c0-5.627-2.251-11.818-6.941-11.818a5.815,5.815,0,0,0-5.252,3.376,16.32,16.32,0,0,0-1.5,7.128Z" transform="translate(6.212 -5.186)"/>
        <path id="パス_127323" data-name="パス 127323" d="M30.51,17.968A13.506,13.506,0,0,1,33.7,8.776a11.255,11.255,0,0,1,9-3.564c6.941,0,12.38,5.627,12.38,18.571,0,7.128-1.125,12.756-3.752,16.507a10.88,10.88,0,0,1-9.379,4.69,12.568,12.568,0,0,1-7.691-2.251,6.941,6.941,0,0,1-2.814-5.065c0-1.5.75-2.439,2.063-2.439s2.251.75,3,2.814a9.942,9.942,0,0,0,1.876,3.376,5.252,5.252,0,0,0,3.564,1.313A5.815,5.815,0,0,0,47.2,39.539c1.876-3.189,2.626-8.441,2.626-14.256h-.188A9.379,9.379,0,0,1,41.39,30.16a10.129,10.129,0,0,1-7.691-3,12.756,12.756,0,0,1-3.189-9.191Zm5.44,0a14.444,14.444,0,0,0,2.063,7.5,5.815,5.815,0,0,0,4.69,2.251,6.19,6.19,0,0,0,5.252-3,8.629,8.629,0,0,0,1.688-5.627c0-5.627-2.251-11.818-6.941-11.818a5.815,5.815,0,0,0-5.252,3.376,16.319,16.319,0,0,0-1.5,7.128Z" transform="translate(20.137 -5.186)"/>
        <path id="パス_127324" data-name="パス 127324" d="M71.073,31.842a14.444,14.444,0,0,1-3,9.379,11.255,11.255,0,0,1-9.191,3.752c-7.316,0-12.38-5.627-12.38-19.133,0-6.941,1.313-12.756,4.127-16.32a10.5,10.5,0,0,1,9-4.314,11.63,11.63,0,0,1,6.941,2.063,6.753,6.753,0,0,1,2.814,5.065c0,1.5-.75,2.439-1.876,2.439s-2.251-.75-3-2.814a6.941,6.941,0,0,0-2.063-3.376,4.127,4.127,0,0,0-3.189-1.125,6,6,0,0,0-5.065,3.189C52.5,13.835,51.565,18.712,51.565,24.9h.188a9.379,9.379,0,0,1,8.254-4.877,9.754,9.754,0,0,1,7.5,3A12.193,12.193,0,0,1,70.7,31.842Zm-5.44.188a14.256,14.256,0,0,0-2.063-7.5,5.627,5.627,0,0,0-4.69-2.251,6.565,6.565,0,0,0-5.252,3.189,9,9,0,0,0-1.5,5.252c0,6,2.251,12.193,6.941,12.193a5.815,5.815,0,0,0,5.252-3.564,15.757,15.757,0,0,0,1.5-7.316Z" transform="translate(34.16 -5.18)"/>
      </g>
      <g id="グループ_80881" data-name="グループ 80881" transform="translate(143.125)">
        <path id="パス_127325" data-name="パス 127325" d="M101.747,44.313H80.55l-.75-.75a34.139,34.139,0,0,1,4.314-11.255,33.39,33.39,0,0,1,8.066-8.629c3.564-2.814,5.44-5.252,5.44-9.191A7.5,7.5,0,0,0,95.744,8.86a5.815,5.815,0,0,0-4.314-1.5A5.44,5.44,0,0,0,87.3,8.86a8.441,8.441,0,0,0-2.063,4.314c-.563,1.688-1.313,2.251-2.626,2.251s-1.876-.75-1.876-2.626a7.691,7.691,0,0,1,3.376-5.627,13.881,13.881,0,0,1,7.5-2.063A12.568,12.568,0,0,1,99.5,7.359a9,9,0,0,1,3.564,7.5c0,3.752-2.439,6.941-4.877,9.379s-6.19,4.69-8.629,6.941a18.383,18.383,0,0,0-5.815,9.379H96.307c3.376,0,3.939-.75,5.065-4.877h2.063Z" transform="translate(-79.8 -5.09)"/>
        <path id="パス_127326" data-name="パス 127326" d="M107.756,44.972a10.88,10.88,0,0,1-8.441-3.564C96.313,38.219,95,32.967,95,24.9s1.5-13.318,4.5-16.507a12.005,12.005,0,0,1,16.32,0c3.189,3.189,4.5,8.629,4.5,16.507s-1.5,13.318-4.127,16.507a11.067,11.067,0,0,1-8.629,3.564Zm-.188-37.7a5.627,5.627,0,0,0-4.5,2.251c-1.688,2.251-2.814,6.753-2.814,15.382s1.125,12.943,2.626,15.194a5.44,5.44,0,0,0,4.877,2.626,5.252,5.252,0,0,0,4.877-2.626c1.5-2.251,2.626-6.565,2.626-15.194s-1.125-13.318-2.814-15.382a5.815,5.815,0,0,0-4.5-2.251Z" transform="translate(-66.488 -4.999)"/>
        <path id="パス_127327" data-name="パス 127327" d="M124.068,44.972a10.88,10.88,0,0,1-8.441-3.564c-2.814-3.189-4.127-8.441-4.127-16.507S113,11.583,116,8.394a12.005,12.005,0,0,1,16.32,0c3.189,3.189,4.5,8.629,4.5,16.507s-1.5,13.318-4.127,16.507a11.067,11.067,0,0,1-8.629,3.564Zm-.188-37.7a5.627,5.627,0,0,0-4.5,2.251c-1.688,2.251-2.814,6.753-2.814,15.382s1.125,12.943,2.626,15.194a5.44,5.44,0,0,0,4.877,2.626,5.252,5.252,0,0,0,4.877-2.626c1.5-2.251,2.626-6.565,2.626-15.194s-1.125-13.318-2.814-15.382a5.815,5.815,0,0,0-4.5-2.251Z" transform="translate(-52.037 -4.999)"/>
        <path id="パス_127328" data-name="パス 127328" d="M152.473,31.842a14.444,14.444,0,0,1-3,9.379,11.255,11.255,0,0,1-9.191,3.752c-7.316,0-12.38-5.627-12.38-19.133,0-6.941,1.313-12.756,4.127-16.32a10.5,10.5,0,0,1,9-4.314,11.63,11.63,0,0,1,6.94,2.063,6.753,6.753,0,0,1,2.814,5.065c0,1.5-.75,2.439-1.876,2.439s-2.251-.75-3-2.814a6.94,6.94,0,0,0-2.063-3.376,4.127,4.127,0,0,0-3.189-1.125,6,6,0,0,0-5.065,3.189c-1.688,3.189-2.626,8.066-2.626,14.256h.188a9.379,9.379,0,0,1,8.254-4.877,9.754,9.754,0,0,1,7.5,3,12.193,12.193,0,0,1,3.189,8.816Zm-5.44.188a14.256,14.256,0,0,0-2.063-7.5,5.627,5.627,0,0,0-4.689-2.251,6.565,6.565,0,0,0-5.44,3,9,9,0,0,0-1.5,5.252c0,6,2.251,12.193,6.94,12.193a5.815,5.815,0,0,0,5.252-3.376,15.757,15.757,0,0,0,1.5-7.316Z" transform="translate(-37.673 -5)"/>
      </g>
      <line id="線_3834" data-name="線 3834" x2="17.633" transform="translate(115.925 21.402)" fill="none" stroke="#231916" stroke-miterlimit="10" stroke-width="1.388"/>
    </g>
  </g>
</svg>
