<svg xmlns="http://www.w3.org/2000/svg" width="245.031" height="40" viewBox="0 0 245.031 40">
  <g id="_1981-1996" data-name="1981-1996" transform="translate(122.515 20)">
    <g id="グループ_80841" data-name="グループ 80841" transform="translate(-122.515 -20)">
      <g id="グループ_80839" data-name="グループ 80839">
        <path id="パス_127011" data-name="パス 127011" d="M3.5,9.99A46.527,46.527,0,0,0,13.256,5.3l.75.375V37.944c0,3.94.375,4.315,5.066,4.315v1.876H3.5V42.259c5.065,0,5.253-.375,5.253-4.315V14.118c0-2.251-.188-3.189-1.313-3.189a11.444,11.444,0,0,0-3.565,1.126Z" transform="translate(-3.5 -4.913)"/>
        <path id="パス_127012" data-name="パス 127012" d="M14.51,17.97A13.508,13.508,0,0,1,17.7,8.777,11.257,11.257,0,0,1,26.7,5.212c6.942,0,12.382,5.628,12.382,18.574,0,7.129-1.126,12.758-3.752,16.51a10.881,10.881,0,0,1-9.381,4.69,12.57,12.57,0,0,1-7.692-2.251,6.942,6.942,0,0,1-2.814-5.066c0-1.5.75-2.439,2.064-2.439s2.251.75,3,2.814a9.943,9.943,0,0,0,1.876,3.377,5.253,5.253,0,0,0,3.565,1.313,5.816,5.816,0,0,0,5.253-3.189c1.876-3.189,2.627-8.443,2.627-14.258h-.188a9.381,9.381,0,0,1-8.255,4.878,10.131,10.131,0,0,1-7.692-3A12.758,12.758,0,0,1,14.51,17.97Zm5.441,0a14.446,14.446,0,0,0,2.064,7.5,5.816,5.816,0,0,0,4.69,2.251,6.191,6.191,0,0,0,5.253-3A8.63,8.63,0,0,0,33.646,19.1c0-5.628-2.251-11.819-6.942-11.819a5.816,5.816,0,0,0-5.253,3.377,16.322,16.322,0,0,0-1.5,7.129Z" transform="translate(6.127 -5.013)"/>
        <path id="パス_127013" data-name="パス 127013" d="M42.388,45.067a13.883,13.883,0,0,1-8.63-2.627,9.568,9.568,0,0,1-3.752-8.067,9.005,9.005,0,0,1,2.627-6.191,15.2,15.2,0,0,1,5.253-3.565h0a14.446,14.446,0,0,1-4.69-3.94,10.506,10.506,0,0,1-2.064-6.191A8.63,8.63,0,0,1,34.32,7.544a12.758,12.758,0,0,1,8.067-2.439,13.508,13.508,0,0,1,8.255,2.439A8.255,8.255,0,0,1,53.832,14.3a7.5,7.5,0,0,1-2.064,5.253,13.508,13.508,0,0,1-5.253,3.565h0a16.51,16.51,0,0,1,5.253,3.752A10.319,10.319,0,0,1,54.957,34a10.881,10.881,0,0,1-3.565,8.255,14.258,14.258,0,0,1-9.005,2.627Zm.188-2.251a6.942,6.942,0,0,0,5.066-1.876,7.751,7.751,0,0,0-.75-11.257A19.887,19.887,0,0,0,40.7,26.118a9.756,9.756,0,0,0-4.315,3.565,8.63,8.63,0,0,0-1.313,4.878,8.818,8.818,0,0,0,2.064,6A6.942,6.942,0,0,0,42.575,42.815Zm0-35.459a6.379,6.379,0,0,0-4.5,1.688,6.566,6.566,0,0,0-1.689,4.5,6.942,6.942,0,0,0,1.876,4.69A16.322,16.322,0,0,0,43.888,21.8a11.257,11.257,0,0,0,4.127-3.377,7.5,7.5,0,0,0,1.126-4.5,7.692,7.692,0,0,0-1.876-5.065,6.754,6.754,0,0,0-4.69-1.689Z" transform="translate(19.712 -5.094)"/>
        <path id="パス_127014" data-name="パス 127014" d="M46.4,9.99A46.527,46.527,0,0,0,56.156,5.3l.75.375V37.944c0,3.94.375,4.315,5.065,4.315v1.876H46.588V42.259c5.065,0,5.253-.375,5.253-4.315V14.118c0-2.251-.188-3.189-1.313-3.189a11.444,11.444,0,0,0-3.565,1.126Z" transform="translate(34.085 -4.913)"/>
      </g>
      <g id="グループ_80840" data-name="グループ 80840" transform="translate(140.521 0.174)">
        <path id="パス_127015" data-name="パス 127015" d="M78.4,9.99A46.528,46.528,0,0,0,88.156,5.3l.75.375V37.944c0,3.94.375,4.315,5.066,4.315v1.876H78.4V42.259c5.065,0,5.253-.375,5.253-4.315V14.118c0-2.251-.188-3.189-1.313-3.189a11.444,11.444,0,0,0-3.565,1.126Z" transform="translate(-78.4 -5.086)"/>
        <path id="パス_127016" data-name="パス 127016" d="M89.409,17.97A13.508,13.508,0,0,1,92.6,8.777,11.257,11.257,0,0,1,101.6,5.212c6.942,0,12.382,5.628,12.382,18.573,0,7.129-1.126,12.758-3.752,16.51a10.881,10.881,0,0,1-9.381,4.69,12.382,12.382,0,0,1-7.692-2.251,6.942,6.942,0,0,1-2.627-4.878c0-1.5.75-2.439,2.064-2.439s2.251.75,3,2.814a9.943,9.943,0,0,0,1.876,3.377,5.253,5.253,0,0,0,3.565,1.313,5.816,5.816,0,0,0,5.253-3.189c1.876-3.189,2.627-8.443,2.627-14.258h-.188a9.381,9.381,0,0,1-8.255,4.878,10.131,10.131,0,0,1-7.692-3A12.758,12.758,0,0,1,89.409,17.97Zm5.441,0a14.446,14.446,0,0,0,2.064,7.5,5.816,5.816,0,0,0,4.69,2.251,6.191,6.191,0,0,0,5.253-3,8.63,8.63,0,0,0,1.688-5.628c0-5.628-2.251-11.819-6.942-11.819a5.816,5.816,0,0,0-5.253,3.377,16.322,16.322,0,0,0-1.5,7.129Z" transform="translate(-68.772 -5.186)"/>
        <path id="パス_127017" data-name="パス 127017" d="M105.1,17.97a13.508,13.508,0,0,1,3.189-9.193A11.257,11.257,0,0,1,117.3,5.212c6.942,0,12.382,5.628,12.382,18.574,0,7.129-1.126,12.758-3.752,16.51a10.881,10.881,0,0,1-9.381,4.69,12.57,12.57,0,0,1-7.692-2.251,6.942,6.942,0,0,1-2.627-4.878c0-1.5.75-2.439,2.064-2.439s2.251.75,3,2.814a9.943,9.943,0,0,0,1.876,3.377,5.253,5.253,0,0,0,3.565,1.313,5.816,5.816,0,0,0,5.253-3.189c1.876-3.189,2.627-8.443,2.627-14.258h-.188a9.381,9.381,0,0,1-8.255,4.878,10.131,10.131,0,0,1-7.692-3,12.757,12.757,0,0,1-3.189-9.005Zm5.441,0a14.446,14.446,0,0,0,2.064,7.5,5.816,5.816,0,0,0,4.69,2.251,6.191,6.191,0,0,0,5.253-3A8.63,8.63,0,0,0,124.24,19.1c0-5.628-2.251-11.82-6.942-11.82a5.816,5.816,0,0,0-5.253,3.377,16.322,16.322,0,0,0-1.5,7.129Z" transform="translate(-55.012 -5.186)"/>
        <path id="パス_127018" data-name="パス 127018" d="M145.577,31.847a14.446,14.446,0,0,1-3,9.381,11.257,11.257,0,0,1-9.193,3.752c-7.317,0-12.382-5.628-12.382-19.136,0-6.942,1.313-12.758,4.127-16.322a10.506,10.506,0,0,1,9.005-4.315,11.632,11.632,0,0,1,6.942,2.064,6.754,6.754,0,0,1,2.814,5.066c0,1.5-.75,2.439-1.876,2.439s-2.251-.75-3-2.814a6.941,6.941,0,0,0-2.064-3.377,4.127,4.127,0,0,0-3.189-1.126,6,6,0,0,0-5.066,3.189c-1.688,3.189-2.627,8.067-2.627,14.258h.188a9.381,9.381,0,0,1,8.255-4.878,9.756,9.756,0,0,1,7.5,3,12.2,12.2,0,0,1,3.189,8.818Zm-5.441.188a14.258,14.258,0,0,0-2.064-7.5,5.628,5.628,0,0,0-4.69-2.251,6.566,6.566,0,0,0-5.441,3,9.006,9.006,0,0,0-1.5,5.253c0,6,2.251,12.195,6.942,12.195a5.816,5.816,0,0,0,5.253-3.377,15.759,15.759,0,0,0,1.5-7.317Z" transform="translate(-41.078 -5.18)"/>
      </g>
      <line id="線_3821" data-name="線 3821" x2="17.635" transform="translate(109.94 21.399)" fill="none" stroke="#231916" stroke-miterlimit="10" stroke-width="1.388"/>
    </g>
  </g>
</svg>
