<svg xmlns="http://www.w3.org/2000/svg" width="256.049" height="40" viewBox="0 0 256.049 40">
  <g id="_2006-2014" data-name="2006-2014" transform="translate(128.024 20)">
    <g id="グループ_80887" data-name="グループ 80887" transform="translate(-128.024 -20)">
      <g id="グループ_80885" data-name="グループ 80885" transform="translate(0 0.188)">
        <path id="パス_127337" data-name="パス 127337" d="M23.647,44.225H2.45l-.75-.75A34.14,34.14,0,0,1,6.014,32.22a33.389,33.389,0,0,1,7.878-8.629c3.564-2.814,5.44-5.252,5.44-9.191a7.5,7.5,0,0,0-1.876-5.627,5.815,5.815,0,0,0-4.314-1.5,5.44,5.44,0,0,0-4.127,1.5,8.441,8.441,0,0,0-2.063,4.314c-.563,1.688-1.313,2.251-2.626,2.251s-1.876-.75-1.876-2.626A7.691,7.691,0,0,1,5.827,7.084a13.881,13.881,0,0,1,7.691-1.876A12.568,12.568,0,0,1,21.4,7.459a9,9,0,0,1,3.564,7.5c0,3.752-2.439,6.941-4.877,9.379s-6.19,4.5-8.629,6.753a18.383,18.383,0,0,0-5.815,9.379H18.207c3.376,0,3.939-.75,5.065-4.877h2.063Z" transform="translate(-1.7 -5.19)"/>
        <path id="パス_127338" data-name="パス 127338" d="M29.468,44.974a10.88,10.88,0,0,1-8.441-3.564C18.213,38.221,16.9,32.968,16.9,24.9S18.4,11.584,21.4,8.4a10.88,10.88,0,0,1,8.254-3.189A10.88,10.88,0,0,1,37.722,8.4c3.189,3.189,4.5,8.629,4.5,16.507S40.723,38.221,38.1,41.41A11.067,11.067,0,0,1,29.468,44.974Zm0-37.7a5.627,5.627,0,0,0-4.5,2.251c-1.688,2.251-2.814,6.753-2.814,15.382S23.278,37.846,24.778,40.1a5.44,5.44,0,0,0,4.877,2.626A5.252,5.252,0,0,0,34.533,40.1c1.5-2.251,2.626-6.565,2.626-15.194S36.033,11.584,34.345,9.521a5.815,5.815,0,0,0-4.5-2.251Z" transform="translate(11.612 -5.188)"/>
        <path id="パス_127339" data-name="パス 127339" d="M45.868,44.974a10.88,10.88,0,0,1-8.441-3.564C34.613,38.221,33.3,32.968,33.3,24.9S34.8,11.584,37.8,8.4a10.88,10.88,0,0,1,8.254-3.189A10.88,10.88,0,0,1,54.309,8.4c3.189,3.189,4.5,8.629,4.5,16.507s-1.5,13.318-4.127,16.507a11.067,11.067,0,0,1-8.629,3.564Zm0-37.7a5.627,5.627,0,0,0-4.5,2.251c-1.688,2.251-2.814,6.753-2.814,15.382S39.678,37.846,41.178,40.1a5.44,5.44,0,0,0,4.69,2.626A5.252,5.252,0,0,0,50.745,40.1c1.5-2.251,2.626-6.565,2.626-15.194S52.246,11.584,50.557,9.521a5.815,5.815,0,0,0-4.69-2.251Z" transform="translate(25.976 -5.188)"/>
        <path id="パス_127340" data-name="パス 127340" d="M74.273,31.842a14.444,14.444,0,0,1-3,9.379,11.255,11.255,0,0,1-9.191,3.752c-7.316,0-12.38-5.627-12.38-19.133,0-6.941,1.313-12.756,4.127-16.32a10.5,10.5,0,0,1,9-4.314,11.63,11.63,0,0,1,6.941,2.063,6.753,6.753,0,0,1,3,4.877c0,1.5-.75,2.439-1.876,2.439s-2.251-.75-3-2.814a6.941,6.941,0,0,0-2.063-3.376,4.127,4.127,0,0,0-3.189-1.125,6,6,0,0,0-4.877,3.376C56.078,13.835,55.14,18.712,55.14,24.9h.188a9.379,9.379,0,0,1,8.066-4.877,9.754,9.754,0,0,1,7.5,3,12.193,12.193,0,0,1,3.189,8.816Zm-5.44.188a14.256,14.256,0,0,0-2.063-7.5,5.627,5.627,0,0,0-4.69-2.251,6.565,6.565,0,0,0-5.252,3.189,9,9,0,0,0-1.5,5.252c0,6,2.251,12.193,6.941,12.193a5.815,5.815,0,0,0,5.252-3.376,15.757,15.757,0,0,0,1.5-7.316Z" transform="translate(40.339 -5.188)"/>
      </g>
      <g id="グループ_80886" data-name="グループ 80886" transform="translate(152.504)">
        <path id="パス_127341" data-name="パス 127341" d="M104.947,44.313H83.75l-.75-.75a34.14,34.14,0,0,1,4.314-11.255,33.389,33.389,0,0,1,7.878-8.629c3.564-2.814,5.44-5.252,5.44-9.191A7.5,7.5,0,0,0,98.757,8.86a5.815,5.815,0,0,0-4.314-1.5,5.44,5.44,0,0,0-4.127,1.5,8.441,8.441,0,0,0-2.063,4.314c-.563,1.688-1.313,2.251-2.626,2.251s-1.876-.75-1.876-2.626a7.691,7.691,0,0,1,3.376-5.627,13.881,13.881,0,0,1,7.5-2.063,12.568,12.568,0,0,1,7.878,2.251,9,9,0,0,1,3.564,7.5c0,3.752-2.439,6.941-4.877,9.379s-6,4.69-8.441,6.941a18.383,18.383,0,0,0-5.815,9.379H99.507c3.376,0,3.939-.75,5.065-4.877h2.063Z" transform="translate(-83 -5.09)"/>
        <path id="パス_127342" data-name="パス 127342" d="M110.768,44.972a10.88,10.88,0,0,1-8.441-3.564C99.513,38.219,98.2,32.967,98.2,24.9s1.5-13.318,4.5-16.507a12.005,12.005,0,0,1,16.32,0c3.189,3.189,4.5,8.629,4.5,16.507s-1.5,13.318-4.127,16.507a11.067,11.067,0,0,1-8.629,3.564Zm-.188-37.7a5.627,5.627,0,0,0-4.5,2.251c-1.688,2.251-2.814,6.753-2.814,15.382s1.125,12.943,2.626,15.194a5.44,5.44,0,0,0,4.877,2.626,5.252,5.252,0,0,0,4.877-2.626c1.5-2.251,2.626-6.565,2.626-15.194s-1.125-13.318-2.814-15.382a5.815,5.815,0,0,0-4.5-2.251Z" transform="translate(-69.688 -4.999)"/>
        <path id="パス_127343" data-name="パス 127343" d="M114.8,9.99a46.519,46.519,0,0,0,9.754-4.69l.75.375V37.939c0,3.939.375,4.314,5.065,4.314v1.876H114.988V42.254c5.065,0,5.252-.375,5.252-4.314V14.116c0-2.251-.188-3.189-1.313-3.189a11.443,11.443,0,0,0-3.564,1.125Z" transform="translate(-55.149 -4.907)"/>
        <path id="パス_127344" data-name="パス 127344" d="M125.3,33.625V31.937L140.869,5.3H145V31h4.5l-.375,2.439H145v4.314c0,3.752.188,4.314,3.939,4.314v1.876H135.429V42.254c4.127,0,4.5-.563,4.5-4.314V33.625Zm3.376-2.439h11.067V16.18a47.425,47.425,0,0,1,.188-5.065h-.188c-.563,1.125-1.5,3-2.626,5.065Z" transform="translate(-45.953 -4.907)"/>
      </g>
      <line id="線_3836" data-name="線 3836" x2="17.633" transform="translate(125.304 21.402)" fill="none" stroke="#231916" stroke-miterlimit="10" stroke-width="1.388"/>
    </g>
  </g>
</svg>
