<svg xmlns="http://www.w3.org/2000/svg" width="476.723" height="47.096" viewBox="0 0 476.723 47.096">
  <g id="A_History_of_the_SoftBank_Group" data-name="A History of the SoftBank Group" transform="translate(238.361 23.548)">
    <g id="グループ_83711" data-name="グループ 83711" transform="translate(-238.361 -23.548)">
      <path id="パス_149929" data-name="パス 149929" d="M20.438,16.252c-1.057-4.9-2.21-6.534-7.111-6.534a7.591,7.591,0,0,0-5.093,1.73,4.228,4.228,0,0,0-1.441,3.363A5.093,5.093,0,0,0,8.234,18.27c1.057,1.153,2.787,2.114,5.67,3.844s6.246,3.171,8.072,5.381a8.841,8.841,0,0,1,2.018,5.67,8.552,8.552,0,0,1-2.787,6.342c-1.922,1.826-5.093,3.075-9.321,3.075a27,27,0,0,1-8.745-1.537A50.16,50.16,0,0,0,1.7,33.837l2.018-.48c1.441,5.766,4.036,7.207,8.552,7.207a7.88,7.88,0,0,0,5.093-1.73,6.15,6.15,0,0,0,.673-8.552c-1.441-1.634-3.459-2.787-6.246-4.228S5.64,22.787,3.91,20.48a8.745,8.745,0,0,1-1.441-4.709,7.3,7.3,0,0,1,2.883-5.766A13.551,13.551,0,0,1,13.52,7.7,21.141,21.141,0,0,1,21.3,9.045c.192,1.922.673,4.42,1.057,6.823Z" transform="translate(-1.7 -6.922)" fill="#fff"/>
      <path id="パス_149930" data-name="パス 149930" d="M38.555,42.935a11.339,11.339,0,0,1-7.688-2.5c-2.114-1.922-3.267-5-3.267-9.513s1.153-7.015,3.267-9.033,4.42-2.691,7.88-2.691a11.147,11.147,0,0,1,7.88,2.691c2.018,2.018,3.075,5.093,3.075,8.937s-1.153,7.5-3.075,9.321-4.709,2.691-8.072,2.691Zm0-22.1a5.381,5.381,0,0,0-4.42,2.018c-1.249,1.73-1.922,4.228-1.922,8.168s.769,6.63,2.018,8.264a5.76,5.76,0,0,0,8.841-.1c1.249-1.634,2.018-4.228,2.018-8.264s-.673-6.438-1.922-8.168a5.381,5.381,0,0,0-4.516-2.018Z" transform="translate(-2.712 -7.371)" fill="#fff"/>
      <path id="パス_149931" data-name="パス 149931" d="M55.255,20.929H51.8V19.2h3.459V16.029c0-3.171.769-5.477,2.5-7.111A8.072,8.072,0,0,1,63.327,6.9,7.784,7.784,0,0,1,67.94,8.149a4.132,4.132,0,0,1,2.114,3.171,1.537,1.537,0,0,1-1.634,1.826c-1.441,0-1.922-1.153-2.4-2.306s-1.057-2.306-2.595-2.306A2.787,2.787,0,0,0,61.117,9.59c-.961,1.153-1.441,2.979-1.441,6.438v2.979h5.958v1.73H59.676v16.24c0,3.171.192,3.459,3.844,3.459v1.441H51.7V40.436c3.267,0,3.555-.288,3.555-3.555Z" transform="translate(-3.653 -6.891)" fill="#fff"/>
      <path id="パス_149932" data-name="パス 149932" d="M68.2,19.811c3.363-.288,4.8-2.4,5.862-7.111H75.5v6.63h5.573v1.73H75.6V36.916c0,2.595.769,3.748,2.595,3.748a5.093,5.093,0,0,0,3.171-1.153l.865,1.345a7.976,7.976,0,0,1-5.477,1.922c-2.883,0-5.573-1.249-5.573-5.67V21.156H68.3Z" transform="translate(-4.297 -7.118)" fill="#fff"/>
      <path id="パス_149933" data-name="パス 149933" d="M84,8.4H96.588c4.709,0,7.4.384,9.9,2.018a6.534,6.534,0,0,1,2.883,5.573,7.111,7.111,0,0,1-2.306,5.477,11.507,11.507,0,0,1-6.727,2.691h0a13.645,13.645,0,0,1,7.88,2.4,6.823,6.823,0,0,1,3.075,5.862,8.745,8.745,0,0,1-2.691,6.63c-1.922,1.826-4.709,2.883-9.705,2.883H84V40.3c3.555,0,3.844-.288,3.844-3.652V13.685c0-3.363-.288-3.652-3.844-3.652Zm8.36,14.991h3.748c2.787,0,5.093-.577,6.63-1.826a6.534,6.534,0,0,0,2.018-5.093,5.862,5.862,0,0,0-1.634-4.324,8.55,8.55,0,0,0-5.766-1.73H93.9c-1.249,0-1.441.384-1.441,1.634Zm0,14.222c0,1.922.288,2.306,1.826,2.306H98.8c2.787,0,4.709-.577,6.054-2.114a7.688,7.688,0,0,0,1.73-5.477,6.246,6.246,0,0,0-2.4-5.189c-1.538-1.153-3.844-1.826-7.111-1.826H92.36Z" transform="translate(-4.915 -6.95)" fill="#fff"/>
      <path id="パス_149934" data-name="パス 149934" d="M133.058,37.642c0,2.306.48,3.267,1.538,3.267a2.883,2.883,0,0,0,1.345-.384l.288,1.441a8.36,8.36,0,0,1-3.555.673,3.463,3.463,0,0,1-3.748-2.5h-.1a9.706,9.706,0,0,1-7.207,2.787,7.688,7.688,0,0,1-4.709-1.538,5.381,5.381,0,0,1-2.114-4.42,6.246,6.246,0,0,1,3.171-5.67,22.87,22.87,0,0,1,7.591-2.691l2.979-.769V25.726a6.919,6.919,0,0,0-.769-3.459,3.94,3.94,0,0,0-3.459-1.441,4.613,4.613,0,0,0-3.267,1.153,6.246,6.246,0,0,0-1.537,2.4,1.922,1.922,0,0,1-2.114,1.345,1.538,1.538,0,0,1-1.73-1.73c0-1.249,1.057-2.691,2.691-3.652A12.781,12.781,0,0,1,124.505,19c3.363,0,5.285.577,6.63,2.114a7.066,7.066,0,0,1,1.73,5.285Zm-4.42-8.168a22.679,22.679,0,0,0-6.054,2.4c-1.826,1.057-3.075,2.4-3.075,4.516a4.228,4.228,0,0,0,1.057,3.075,3.94,3.94,0,0,0,3.075,1.153,7.111,7.111,0,0,0,5-2.4Z" transform="translate(-6.117 -7.364)" fill="#fff"/>
      <path id="パス_149935" data-name="パス 149935" d="M160.417,37.549c0,2.883.192,3.363,2.4,3.363v1.441H153.5V40.913c2.306,0,2.5-.288,2.5-3.459V26.5c0-1.826-.192-3.363-1.153-4.324a3.459,3.459,0,0,0-2.787-.961c-1.922,0-4.132,1.826-6.054,4.516V37.453c0,3.075.1,3.459,2.306,3.459v1.441H138.7V40.913c2.691,0,2.883-.288,2.883-3.459V25.826c0-2.979-.288-3.363-2.883-3.363V21.213a16.624,16.624,0,0,0,6.438-2.114l.577.288.192,3.748h.1a9.734,9.734,0,0,1,7.5-4.036,6.919,6.919,0,0,1,5,1.634c1.249,1.153,1.922,2.883,1.922,5.67Z" transform="translate(-7.051 -7.367)" fill="#fff"/>
      <path id="パス_149936" data-name="パス 149936" d="M173.2,29.294l6.919-6.63c1.345-1.249,1.73-2.018-.769-2.018V19.2h7.976v1.441a4.613,4.613,0,0,0-3.459,1.538l-5,4.8,7.4,11.531a3.555,3.555,0,0,0,3.652,2.018v1.441h-6.63l-7.688-12.3-2.5,2.306v5c0,2.979.1,3.459,2.787,3.459v1.441H165.7V40.441c2.883,0,2.883-.48,2.883-3.459V13.727c0-2.979-.288-3.363-2.883-3.363V9.114A19.411,19.411,0,0,0,172.523,7l.577.288V29.294Z" transform="translate(-8.106 -6.895)" fill="#fff"/>
      <path id="パス_149937" data-name="パス 149937" d="M225.8,33.165c0-2.5-.192-2.787-4.036-2.787V28.841H233.1v1.634c-2.979,0-3.171.192-3.171,2.306v5.573a18.354,18.354,0,0,1-4.8,2.979,17.585,17.585,0,0,1-6.342,1.249,14.9,14.9,0,0,1-10.474-4.036c-2.787-2.883-4.709-7.4-4.709-13.453s1.73-10.186,4.9-13.261S215.035,7.7,220.032,7.7a22.006,22.006,0,0,1,4.709.577,20.18,20.18,0,0,1,3.652,1.153c.288,2.595.673,4.709,1.249,7.5l-2.018.384c-.577-3.171-1.249-5.189-2.595-6.246s-2.691-1.441-5.285-1.441a10.186,10.186,0,0,0-7.88,3.652c-2.21,2.691-3.459,6.63-3.459,11.531s1.153,9.033,3.363,11.82a9.609,9.609,0,0,0,7.591,3.748,10.186,10.186,0,0,0,3.652-.673,9.417,9.417,0,0,0,2.787-1.73Z" transform="translate(-9.586 -6.922)" fill="#fff"/>
      <path id="パス_149938" data-name="パス 149938" d="M242.911,22.848c1.922-2.595,3.459-3.748,5.573-3.748a3.844,3.844,0,0,1,2.787,1.057,3.267,3.267,0,0,1,1.057,2.4c0,1.249-.673,2.018-1.73,2.018s-1.538-.384-1.922-1.634-.769-1.73-1.538-1.73-2.595,1.441-4.228,3.94v12.4c0,2.979.288,3.363,3.171,3.363v1.441H235.8V40.913c2.5,0,2.787-.288,2.787-3.459V25.73c0-2.883-.192-3.171-2.787-3.171V21.214a17.2,17.2,0,0,0,6.342-2.114l.48.288.192,3.363Z" transform="translate(-10.844 -7.368)" fill="#fff"/>
      <path id="パス_149939" data-name="パス 149939" d="M265.251,42.935a11.339,11.339,0,0,1-7.784-2.5c-2.114-1.922-3.267-5-3.267-9.513s1.153-7.015,3.267-9.033,4.42-2.691,7.88-2.691a11.147,11.147,0,0,1,7.976,2.787c2.018,2.018,3.075,5.093,3.075,8.937s-1.153,7.5-3.075,9.321-4.709,2.691-8.072,2.691Zm0-22.1a5.381,5.381,0,0,0-4.516,2.018c-1.249,1.73-1.922,4.228-1.922,8.168s.769,6.63,2.018,8.264a6.054,6.054,0,0,0,8.937,0c1.249-1.634,2.018-4.228,2.018-8.264s-.673-6.438-1.922-8.168a5.381,5.381,0,0,0-4.516-2.018Z" transform="translate(-11.563 -7.371)" fill="#fff"/>
      <path id="パス_149940" data-name="パス 149940" d="M302.52,42.259h-3.171a16.239,16.239,0,0,0-3.267.577l-.48-.192-.192-3.171h-.1a9.225,9.225,0,0,1-7.207,3.459,6.919,6.919,0,0,1-4.9-1.538c-1.441-1.249-2.21-3.459-2.21-6.63V25.634c0-2.883-.1-3.171-2.595-3.171V21.214a19.891,19.891,0,0,0,6.342-2.114l.577.288v14.8c0,2.306.288,3.94,1.057,5a3.652,3.652,0,0,0,3.075,1.441c2.114,0,3.94-1.345,5.67-3.555V25.634c0-2.883-.1-3.171-2.5-3.171V21.214a19.219,19.219,0,0,0,6.342-2.114l.577.288V37.55c0,3.075.192,3.363,2.883,3.363Z" transform="translate(-12.508 -7.368)" fill="#fff"/>
      <path id="パス_149941" data-name="パス 149941" d="M311.1,49.273c0,2.883.192,3.267,2.883,3.267v1.441H303.8V52.541c2.691,0,2.883-.384,2.883-3.267V25.827c0-2.979-.1-3.363-2.883-3.363V21.214a18.835,18.835,0,0,0,6.534-2.114l.48.288.192,2.787h.1a8.744,8.744,0,0,1,6.823-3.075,8.072,8.072,0,0,1,6.342,2.883c1.634,1.826,2.787,4.8,2.787,8.841s-.769,7.015-2.5,9.129a9.417,9.417,0,0,1-13.261.577h-.1Zm0-11.435a6.823,6.823,0,0,0,5.477,3.075,4.8,4.8,0,0,0,4.228-2.5c.961-1.634,1.538-4.132,1.538-7.88a13.645,13.645,0,0,0-1.538-7.111,4.709,4.709,0,0,0-4.036-2.4c-2.4,0-4.132,1.634-5.573,3.363Z" transform="translate(-13.5 -7.368)" fill="#fff"/>
      <path id="パス_149942" data-name="パス 149942" d="M369.46,36.748c0,3.267.288,3.555,3.652,3.555v1.634H361.676V40.3c2.979,0,3.171-.288,3.171-3.555V25.5H349.568V36.748c0,3.267.192,3.555,3.171,3.555v1.634H341.4V40.3c3.363,0,3.652-.288,3.652-3.555V13.685c0-3.267-.288-3.652-3.652-3.652V8.4h11.339v1.634c-2.979,0-3.171.288-3.171,3.555v9.9h15.279v-9.9c0-3.267-.192-3.555-3.171-3.555V8.4h11.339v1.634c-3.363,0-3.652.288-3.652,3.652Z" transform="translate(-14.969 -6.95)" fill="#fff"/>
      <path id="パス_149943" data-name="パス 149943" d="M385.672,37.087c0,2.979.192,3.459,3.363,3.459v1.441H377.6V40.546c3.363,0,3.555-.384,3.555-3.459V25.363c0-2.979-.1-3.171-3.555-3.171V20.847a21.141,21.141,0,0,0,7.5-2.114l.48.288ZM383.173,9.7a2.885,2.885,0,0,1,2.691,3.171,2.727,2.727,0,1,1-5.381,0A2.885,2.885,0,0,1,383.173,9.7Z" transform="translate(-16.383 -7.001)" fill="#fff"/>
      <path id="パス_149944" data-name="パス 149944" d="M406.8,25.345c-.673-3.555-2.21-4.613-5.093-4.613a5.958,5.958,0,0,0-3.267.865A2.594,2.594,0,0,0,397.1,23.9a3.652,3.652,0,0,0,1.922,2.883c1.537.865,3.844,1.634,4.9,2.4a12.685,12.685,0,0,1,3.94,2.787,5.766,5.766,0,0,1,1.826,4.132,5.862,5.862,0,0,1-2.4,4.8,11.435,11.435,0,0,1-6.919,2.018,17.3,17.3,0,0,1-7.3-1.441,41.423,41.423,0,0,0-.961-5.381l1.538-.384c1.153,4.228,3.171,5.381,6.342,5.381a6.246,6.246,0,0,0,3.844-1.153,3.94,3.94,0,0,0,1.345-2.883,3.267,3.267,0,0,0-.961-2.4c-.865-.961-2.5-1.538-4.9-2.787a19.438,19.438,0,0,1-5.093-3.267,5.862,5.862,0,0,1-1.441-3.844,4.709,4.709,0,0,1,2.21-4.036,10.859,10.859,0,0,1,6.342-1.634,17.1,17.1,0,0,1,6.15,1.057,43.721,43.721,0,0,0,.865,5Z" transform="translate(-16.949 -7.367)" fill="#fff"/>
      <path id="パス_149945" data-name="パス 149945" d="M412.3,19.811c3.363-.288,4.8-2.4,5.862-7.111H419.6v6.63h5.573v1.73H419.6V36.916c0,2.595.769,3.748,2.595,3.748a5.093,5.093,0,0,0,3.171-1.153l.865,1.345a7.976,7.976,0,0,1-5.477,1.922c-2.883,0-5.573-1.249-5.573-5.67V21.156H412.3Z" transform="translate(-17.738 -7.118)" fill="#fff"/>
      <path id="パス_149946" data-name="パス 149946" d="M439.151,42.934a11.339,11.339,0,0,1-7.784-2.5c-2.114-1.922-3.267-5-3.267-9.513s1.153-7.015,3.267-9.033,4.42-2.691,7.88-2.691a11.147,11.147,0,0,1,7.976,2.691c2.018,2.018,3.075,5.093,3.075,8.937s-1.153,7.5-3.075,9.321-4.709,2.691-8.072,2.691Zm0-22.1a5.381,5.381,0,0,0-4.42,2.018c-1.249,1.73-1.922,4.228-1.922,8.168s.769,6.63,2.018,8.264a6.054,6.054,0,0,0,8.937,0c1.249-1.634,2.018-4.228,2.018-8.264s-.673-6.438-1.922-8.168a5.381,5.381,0,0,0-4.516-2.018Z" transform="translate(-18.355 -7.371)" fill="#fff"/>
      <path id="パス_149947" data-name="パス 149947" d="M460.711,22.848c1.922-2.595,3.459-3.748,5.573-3.748a3.844,3.844,0,0,1,2.787,1.057,3.267,3.267,0,0,1,1.057,2.4c0,1.249-.673,2.018-1.73,2.018s-1.538-.384-1.922-1.634-.769-1.73-1.538-1.73-2.595,1.441-4.228,3.94v12.4c0,2.979.288,3.363,3.171,3.363v1.441H453.6V40.913c2.5,0,2.787-.288,2.787-3.459V25.73c0-2.883-.192-3.171-2.787-3.171V21.214a17.2,17.2,0,0,0,6.342-2.114l.48.288Z" transform="translate(-19.351 -7.368)" fill="#fff"/>
      <path id="パス_149948" data-name="パス 149948" d="M475.432,24.216c-1.345-2.883-1.634-3.075-3.363-3.075V19.7h9.705v1.441c-2.5,0-2.691.48-1.73,2.595l5.862,13.549h.1l5.766-14.222c.577-1.441.384-1.826-1.922-1.826V19.7h6.919v1.441c-1.538,0-2.018.192-2.883,2.306l-10.09,24.5a14.223,14.223,0,0,1-2.979,4.613,6.15,6.15,0,0,1-4.516,1.922,6.342,6.342,0,0,1-3.652-1.057,2.883,2.883,0,0,1-1.345-2.306,1.538,1.538,0,0,1,1.441-1.538,2.5,2.5,0,0,1,2.306,1.538c.48.769.961,1.538,1.922,1.538s3.652-2.883,4.612-4.8l2.21-5.766Z" transform="translate(-20.042 -7.391)" fill="#fff"/>
    </g>
  </g>
</svg>
