<svg xmlns="http://www.w3.org/2000/svg" width="325.302" height="73.592" viewBox="0 0 325.302 73.592">
  <g id="copy_en" transform="translate(162.651 36.796)">
    <g id="グループ_88628" data-name="グループ 88628" transform="translate(-162.651 -36.796)">
      <path id="パス_201388" data-name="パス 201388" d="M70.1,15.8a5.3,5.3,0,0,1-4.2-1.6,7.4,7.4,0,0,1-1.5-5A7.1,7.1,0,0,1,66.1,4,6.3,6.3,0,0,1,74,4a7.1,7.1,0,0,1,1.7,5.2,7.4,7.4,0,0,1-1.5,5A5.3,5.3,0,0,1,70,15.8Zm0-12.5a3.4,3.4,0,0,0-2.7,1.2c-.7.9-1.2,2.3-1.2,4.7a7.9,7.9,0,0,0,1.2,4.7,3.6,3.6,0,0,0,5.5,0A7.9,7.9,0,0,0,74,9.2c0-2.4-.4-3.8-1.2-4.7a3.4,3.4,0,0,0-2.7-1.2Z" transform="translate(-1.898 -2.608)" fill="#fff"/>
      <path id="パス_201389" data-name="パス 201389" d="M87.1,15.5H85.9l-1.3.2h-.2V14.5h0a3.5,3.5,0,0,1-2.7,1.3,2.6,2.6,0,0,1-1.9-.6,3.3,3.3,0,0,1-.8-2.5V9.2C79,8.1,78.9,8,78,8V7.5a7.6,7.6,0,0,0,2.4-.8h.2v5.6a3.2,3.2,0,0,0,.4,1.9,1.4,1.4,0,0,0,1.2.5,2.8,2.8,0,0,0,2.1-1.4V9.2c0-1.1-.1-1.2-1-1.2V7.5a7.4,7.4,0,0,0,2.4-.8H86v6.9c0,1.2.1,1.3,1.1,1.3Z" transform="translate(-1.898 -2.608)" fill="#fff"/>
      <path id="パス_201390" data-name="パス 201390" d="M91.5,8.1c.7-1,1.3-1.4,2.1-1.4a1.5,1.5,0,0,1,1,.4A1.3,1.3,0,0,1,95,8a.713.713,0,0,1-.7.8.661.661,0,0,1-.7-.6q-.15-.6-.6-.6c-.3,0-1,.6-1.6,1.5v4.7c0,1.1.1,1.3,1.2,1.3v.5h-4V15c1,0,1-.1,1-1.3V9.2c0-1.1-.1-1.2-1-1.2V7.5A6.6,6.6,0,0,0,91,6.7h.2V8.1Z" transform="translate(-1.898 -2.608)" fill="#fff"/>
      <path id="パス_201391" data-name="パス 201391" d="M105.9,15.8l-3.1-7.1c-.5-1.1-.6-1.2-1.3-1.2V6.9h3.7v.5c-.9,0-1,.2-.7,1l2.1,5.2h0l2.2-5.5c.2-.5.2-.7-.7-.7V6.9h2.5v.5c-.5,0-.7.1-1,.9l-3.2,7.4Z" transform="translate(-1.898 -2.608)" fill="#fff"/>
      <path id="パス_201392" data-name="パス 201392" d="M115.4,13.7c0,1.2.1,1.3,1.3,1.3v.5h-4.4V15c1.3,0,1.4-.2,1.4-1.3V9.2c0-1.2-.1-1.2-1.4-1.2V7.5a8.1,8.1,0,0,0,2.9-.8h.2Zm-1-10.4a1.1,1.1,0,0,1,1,1.2,1.05,1.05,0,1,1-2.1,0,1.1,1.1,0,0,1,1-1.2Z" transform="translate(-1.898 -2.608)" fill="#fff"/>
      <path id="パス_201393" data-name="パス 201393" d="M123.8,9.1c-.3-1.4-.8-1.7-1.9-1.7a2.3,2.3,0,0,0-1.2.3,1,1,0,0,0-.5.9,1.4,1.4,0,0,0,.7,1.1l1.9.9a4.8,4.8,0,0,1,1.5,1,2.2,2.2,0,0,1,.7,1.6,2.3,2.3,0,0,1-1,1.8,4.4,4.4,0,0,1-2.6.8,6.6,6.6,0,0,1-2.8-.5,15.7,15.7,0,0,0-.4-2h.6c.4,1.6,1.2,2.1,2.4,2.1a2.4,2.4,0,0,0,1.5-.5,1.5,1.5,0,0,0,.5-1.1,1.3,1.3,0,0,0-.4-.9,8.8,8.8,0,0,0-1.9-1.1,9.1,9.1,0,0,1-1.9-1.3,2.2,2.2,0,0,1-.5-1.5,1.8,1.8,0,0,1,.8-1.5,4.1,4.1,0,0,1,2.4-.6,6.5,6.5,0,0,1,2.3.4,16.5,16.5,0,0,0,.3,1.9Z" transform="translate(-1.898 -2.608)" fill="#fff"/>
      <path id="パス_201394" data-name="パス 201394" d="M129.5,13.7c0,1.2.1,1.3,1.3,1.3v.5h-4.4V15c1.3,0,1.4-.2,1.4-1.3V9.2c0-1.2-.1-1.2-1.4-1.2V7.5a8.1,8.1,0,0,0,2.9-.8h.2Zm-1-10.4a1.1,1.1,0,0,1,1,1.2,1.05,1.05,0,1,1-2.1,0,1.1,1.1,0,0,1,1-1.2Z" transform="translate(-1.898 -2.608)" fill="#fff"/>
      <path id="パス_201395" data-name="パス 201395" d="M136.4,15.8a4.3,4.3,0,0,1-3-1,4.7,4.7,0,0,1-1.3-3.6,4.6,4.6,0,0,1,1.2-3.5,4.1,4.1,0,0,1,3-1,4.2,4.2,0,0,1,3,1.1,4.6,4.6,0,0,1,1.2,3.4,4.8,4.8,0,0,1-1.2,3.6,4.3,4.3,0,0,1-3.1,1Zm0-8.4a2.1,2.1,0,0,0-1.7.8,5.1,5.1,0,0,0-.7,3.1,5.3,5.3,0,0,0,.8,3.2,2.3,2.3,0,0,0,3.4,0,5.1,5.1,0,0,0,.8-3.2,5.1,5.1,0,0,0-.7-3.1,2.1,2.1,0,0,0-1.7-.8Z" transform="translate(-1.898 -2.608)" fill="#fff"/>
      <path id="パス_201396" data-name="パス 201396" d="M150.4,13.8c0,1.1.1,1.3.9,1.3v.5h-3.5V15c.9,0,.9-.1.9-1.3V9.6a2.4,2.4,0,0,0-.4-1.7,1.3,1.3,0,0,0-1-.4A3.466,3.466,0,0,0,145,9.2v4.5c0,1.2,0,1.3.9,1.3v.5h-3.7V15c1,0,1.1-.1,1.1-1.3V9.3c0-1.1-.1-1.3-1.1-1.3V7.5a6.3,6.3,0,0,0,2.4-.8h.2V8.3h0a3.7,3.7,0,0,1,2.8-1.5,2.6,2.6,0,0,1,1.9.6,2.8,2.8,0,0,1,.7,2.2Z" transform="translate(-1.898 -2.608)" fill="#fff"/>
      <path id="パス_201397" data-name="パス 201397" d="M161.4,13.7c0,1.2.1,1.3,1.3,1.3v.5h-4.4V15c1.3,0,1.4-.2,1.4-1.3V9.2c0-1.2-.1-1.2-1.4-1.2V7.5a8.1,8.1,0,0,0,2.9-.8h.2Zm-1-10.4a1.1,1.1,0,0,1,1,1.2,1.05,1.05,0,1,1-2.1,0,1.1,1.1,0,0,1,1-1.2Z" transform="translate(-1.898 -2.608)" fill="#fff"/>
      <path id="パス_201398" data-name="パス 201398" d="M169.8,9.1c-.3-1.4-.8-1.7-1.9-1.7a2.3,2.3,0,0,0-1.2.3,1,1,0,0,0-.5.9,1.4,1.4,0,0,0,.7,1.1l1.9.9a4.8,4.8,0,0,1,1.5,1,2.2,2.2,0,0,1,.7,1.6,2.3,2.3,0,0,1-1,1.8,4.4,4.4,0,0,1-2.6.8,6.6,6.6,0,0,1-2.8-.5,15.7,15.7,0,0,0-.4-2h.6c.4,1.6,1.2,2.1,2.4,2.1a2.4,2.4,0,0,0,1.5-.5,1.5,1.5,0,0,0,.5-1.1,1.3,1.3,0,0,0-.4-.9,8.8,8.8,0,0,0-1.9-1.1,9.1,9.1,0,0,1-1.9-1.3,2.2,2.2,0,0,1-.5-1.5,1.8,1.8,0,0,1,.8-1.5,4.1,4.1,0,0,1,2.4-.6,6.5,6.5,0,0,1,2.3.4,16.506,16.506,0,0,0,.3,1.9Z" transform="translate(-1.898 -2.608)" fill="#fff"/>
      <path id="パス_201399" data-name="パス 201399" d="M185.8,13.9a4.7,4.7,0,0,1-1.3,1.3,3.7,3.7,0,0,1-2.1.6,4,4,0,0,1-2.8-1,5,5,0,0,1-1.3-3.6A4.4,4.4,0,0,1,179.4,8a3.8,3.8,0,0,1,3.1-1.3,3.7,3.7,0,0,1,2.3.7,1.4,1.4,0,0,1,.7,1.1c0,.4-.2.7-.6.7l-.5-.2-.5-.8a1.4,1.4,0,0,0-1.4-.9,2.1,2.1,0,0,0-1.8,1,4.8,4.8,0,0,0-.7,2.8,5.3,5.3,0,0,0,.6,2.8,2.4,2.4,0,0,0,2,1.1,2.6,2.6,0,0,0,1.5-.4,3.5,3.5,0,0,0,1-1.1Z" transform="translate(-1.898 -2.608)" fill="#fff"/>
      <path id="パス_201400" data-name="パス 201400" d="M191.5,15.8a4.3,4.3,0,0,1-3-1,4.7,4.7,0,0,1-1.3-3.6,4.6,4.6,0,0,1,1.2-3.5,4.1,4.1,0,0,1,3-1,4.2,4.2,0,0,1,3,1.1,4.6,4.6,0,0,1,1.2,3.4,4.8,4.8,0,0,1-1.2,3.6,4.3,4.3,0,0,1-3.1,1Zm0-8.4a2.1,2.1,0,0,0-1.7.8,5.1,5.1,0,0,0-.7,3.1,5.3,5.3,0,0,0,.8,3.2,2.3,2.3,0,0,0,3.4,0,5.2,5.2,0,0,0,.8-3.2,5.1,5.1,0,0,0-.7-3.1,2.1,2.1,0,0,0-1.7-.8Z" transform="translate(-1.898 -2.608)" fill="#fff"/>
      <path id="パス_201401" data-name="パス 201401" d="M205.5,13.8c0,1.1.1,1.3.9,1.3v.5h-3.5V15c.9,0,.9-.1.9-1.3V9.6a2.4,2.4,0,0,0-.4-1.7,1.3,1.3,0,0,0-1-.4,3.466,3.466,0,0,0-2.3,1.7v4.5c0,1.2,0,1.3.9,1.3v.5h-3.7V15c1,0,1.1-.1,1.1-1.3V9.3c0-1.1-.1-1.3-1.1-1.3V7.5a6.3,6.3,0,0,0,2.4-.8h.2V8.3h0a3.7,3.7,0,0,1,2.8-1.5,2.6,2.6,0,0,1,1.9.6,2.8,2.8,0,0,1,.7,2.2Z" transform="translate(-1.898 -2.608)" fill="#fff"/>
      <path id="パス_201402" data-name="パス 201402" d="M213.5,9.1c-.3-1.4-.8-1.7-1.9-1.7a2.3,2.3,0,0,0-1.2.3,1,1,0,0,0-.5.9,1.4,1.4,0,0,0,.7,1.1l1.9.9a4.8,4.8,0,0,1,1.5,1,2.2,2.2,0,0,1,.7,1.6,2.3,2.3,0,0,1-.9,1.8,4.4,4.4,0,0,1-2.6.8,6.6,6.6,0,0,1-2.8-.5,15.7,15.7,0,0,0-.4-2h.6c.4,1.6,1.2,2.1,2.4,2.1a2.4,2.4,0,0,0,1.5-.5,1.5,1.5,0,0,0,.5-1.1,1.3,1.3,0,0,0-.4-.9,8.7,8.7,0,0,0-1.9-1.1,9.1,9.1,0,0,1-1.9-1.3,2.2,2.2,0,0,1-.5-1.5,1.8,1.8,0,0,1,.8-1.5,4.1,4.1,0,0,1,2.4-.6,6.5,6.5,0,0,1,2.3.4,16.7,16.7,0,0,0,.3,1.9Z" transform="translate(-1.898 -2.608)" fill="#fff"/>
      <path id="パス_201403" data-name="パス 201403" d="M219.2,13.7c0,1.2.1,1.3,1.3,1.3v.5h-4.4V15c1.3,0,1.4-.2,1.4-1.3V9.2c0-1.2-.1-1.2-1.4-1.2V7.5a8.1,8.1,0,0,0,2.9-.8h.2Zm-1-10.4a1.1,1.1,0,0,1,1,1.2,1.009,1.009,0,1,1-2,0,1.1,1.1,0,0,1,1-1.2Z" transform="translate(-1.898 -2.608)" fill="#fff"/>
      <path id="パス_201404" data-name="パス 201404" d="M227.6,9.1c-.3-1.4-.8-1.7-1.9-1.7a2.3,2.3,0,0,0-1.2.3,1,1,0,0,0-.5.9,1.4,1.4,0,0,0,.7,1.1l1.9.9a4.8,4.8,0,0,1,1.5,1,2.2,2.2,0,0,1,.7,1.6,2.3,2.3,0,0,1-.9,1.8,4.4,4.4,0,0,1-2.6.8,6.6,6.6,0,0,1-2.8-.5,15.7,15.7,0,0,0-.4-2h.6c.4,1.6,1.2,2.1,2.4,2.1a2.4,2.4,0,0,0,1.5-.5,1.5,1.5,0,0,0,.5-1.1,1.3,1.3,0,0,0-.4-.9,8.7,8.7,0,0,0-1.9-1.1,9.1,9.1,0,0,1-1.9-1.3,2.2,2.2,0,0,1-.5-1.5,1.8,1.8,0,0,1,.8-1.5,4.1,4.1,0,0,1,2.4-.6,6.5,6.5,0,0,1,2.3.4,16.506,16.506,0,0,0,.3,1.9Z" transform="translate(-1.898 -2.608)" fill="#fff"/>
      <path id="パス_201405" data-name="パス 201405" d="M230,7.1c1.3-.1,1.8-.9,2.3-2.7h.5V6.9h2.1v.7h-2.1v6c0,1,.3,1.4,1,1.4a1.9,1.9,0,0,0,1.2-.5l.3.5a3.1,3.1,0,0,1-2.1.7,1.9,1.9,0,0,1-2.1-2.2v-6H230Z" transform="translate(-1.898 -2.608)" fill="#fff"/>
      <path id="パス_201406" data-name="パス 201406" d="M238.2,11.1a5.2,5.2,0,0,0,.6,2.9,2.3,2.3,0,0,0,1.9,1.1,2.7,2.7,0,0,0,1.7-.5,3,3,0,0,0,1-1.1l.6.3a4.2,4.2,0,0,1-1.2,1.4,3.8,3.8,0,0,1-2.3.7,3.9,3.9,0,0,1-3.1-1.2,5.5,5.5,0,0,1-1-3.5,4.8,4.8,0,0,1,1.2-3.3,3.8,3.8,0,0,1,2.7-1A3.4,3.4,0,0,1,243,8a5.4,5.4,0,0,1,1,3.3Zm4-.6a4.5,4.5,0,0,0-.5-2.3,1.6,1.6,0,0,0-1.4-.8,1.8,1.8,0,0,0-1.4.8,4.3,4.3,0,0,0-.7,2.3Z" transform="translate(-1.898 -2.608)" fill="#fff"/>
      <path id="パス_201407" data-name="パス 201407" d="M253.6,13.8c0,1.1.1,1.3.9,1.3v.5H251V15c.9,0,.9-.1.9-1.3V9.6a2.4,2.4,0,0,0-.4-1.7,1.3,1.3,0,0,0-1-.4,3.466,3.466,0,0,0-2.3,1.7v4.5c0,1.2,0,1.3.9,1.3v.5h-3.7V15c1,0,1.1-.1,1.1-1.3V9.3c0-1.1-.1-1.3-1.1-1.3V7.5a6.3,6.3,0,0,0,2.4-.8h.2V8.3h0a3.7,3.7,0,0,1,3-1.6,2.6,2.6,0,0,1,1.9.6,2.8,2.8,0,0,1,.7,2.2Z" transform="translate(-1.898 -2.608)" fill="#fff"/>
      <path id="パス_201408" data-name="パス 201408" d="M255.5,7.1c1.3-.1,1.8-.9,2.3-2.7h.5V6.9h2.1v.7h-2.1v6c0,1,.3,1.4,1,1.4a1.9,1.9,0,0,0,1.2-.5l.3.5a3.1,3.1,0,0,1-2.1.7,1.9,1.9,0,0,1-2.1-2.2v-6h-1.1Z" transform="translate(-1.898 -2.608)" fill="#fff"/>
      <path id="パス_201409" data-name="パス 201409" d="M263.9,13.7a1,1,0,1,1-1,1A1,1,0,0,1,263.9,13.7Z" transform="translate(-1.898 -2.608)" fill="#fff"/>
      <path id="パス_201410" data-name="パス 201410" d="M83.4,43.8a5.3,5.3,0,0,1-4.2-1.6,7.4,7.4,0,0,1-1.5-5A7.1,7.1,0,0,1,79.5,32a6.3,6.3,0,0,1,7.9,0,7.1,7.1,0,0,1,1.7,5.2,7.4,7.4,0,0,1-1.5,5A5.3,5.3,0,0,1,83.4,43.8Zm0-12.5a3.4,3.4,0,0,0-2.7,1.2c-.7.9-1.2,2.3-1.2,4.7a7.9,7.9,0,0,0,1.2,4.7,3.6,3.6,0,0,0,5.5,0,7.9,7.9,0,0,0,1.2-4.7c0-2.4-.4-3.8-1.2-4.7a3.4,3.4,0,0,0-2.7-1.2Z" transform="translate(-1.898 -2.608)" fill="#fff"/>
      <path id="パス_201411" data-name="パス 201411" d="M100.5,43.5H99.2l-1.3.2h-.2V42.5h0A3.5,3.5,0,0,1,95,43.8a2.6,2.6,0,0,1-1.9-.6,3.3,3.3,0,0,1-.8-2.5V37.2c0-1.1-.1-1.2-1-1.2v-.5a7.6,7.6,0,0,0,2.4-.8H94v5.6a3.2,3.2,0,0,0,.4,1.9,1.4,1.4,0,0,0,1.2.5,2.8,2.8,0,0,0,2.1-1.4V37.2c0-1.1-.1-1.2-1-1.2v-.5a7.4,7.4,0,0,0,2.4-.8h.2v6.9c0,1.2.1,1.3,1.1,1.3Z" transform="translate(-1.898 -2.608)" fill="#fff"/>
      <path id="パス_201412" data-name="パス 201412" d="M104.8,36.1c.7-1,1.3-1.4,2.1-1.4a1.5,1.5,0,0,1,1,.4,1.3,1.3,0,0,1,.4.9.713.713,0,0,1-.7.8.661.661,0,0,1-.7-.6q-.15-.6-.6-.6c-.3,0-1,.6-1.6,1.5v4.7c0,1.1.1,1.3,1.2,1.3v.5h-4V43c1,0,1-.1,1-1.3V37.2c0-1.1-.1-1.2-1-1.2v-.5a6.6,6.6,0,0,0,2.4-.8h.2V36Z" transform="translate(-1.898 -2.608)" fill="#fff"/>
      <path id="パス_201413" data-name="パス 201413" d="M116.3,43.7h-.2v-11c0-1-.1-1.1-1-1.1v-.5a7.5,7.5,0,0,0,2.4-.8h.2v5.3h0a3.3,3.3,0,0,1,2.5-1,3.2,3.2,0,0,1,2.6,1.2,5,5,0,0,1,1,3.2,5.4,5.4,0,0,1-1.1,3.4,3.3,3.3,0,0,1-2.7,1.2,3.7,3.7,0,0,1-2.5-1h-.1Zm1.5-1.7a3.2,3.2,0,0,0,2.1,1,1.9,1.9,0,0,0,1.7-1.1,6.368,6.368,0,0,0,0-5.4,1.9,1.9,0,0,0-1.7-1.1,2.8,2.8,0,0,0-2.1,1.1Z" transform="translate(-1.898 -2.608)" fill="#fff"/>
      <path id="パス_201414" data-name="パス 201414" d="M134.5,43.5h-1.2l-1.3.2h-.2V42.5h0a3.5,3.5,0,0,1-2.7,1.3,2.6,2.6,0,0,1-1.9-.6,3.3,3.3,0,0,1-.8-2.5V37.2c0-1.1-.1-1.2-1-1.2v-.5a7.6,7.6,0,0,0,2.4-.8h.2v5.6a3.2,3.2,0,0,0,.4,1.9,1.4,1.4,0,0,0,1.2.5,2.8,2.8,0,0,0,2.1-1.4V37.2c0-1.1-.1-1.2-1-1.2v-.5a7.4,7.4,0,0,0,2.4-.8h.2v6.9c0,1.2.1,1.3,1.1,1.3Z" transform="translate(-1.898 -2.608)" fill="#fff"/>
      <path id="パス_201415" data-name="パス 201415" d="M141.6,37.1c-.3-1.4-.8-1.7-1.9-1.7a2.3,2.3,0,0,0-1.2.3,1,1,0,0,0-.5.9,1.4,1.4,0,0,0,.7,1.1l1.9.9a4.8,4.8,0,0,1,1.5,1,2.2,2.2,0,0,1,.7,1.6,2.3,2.3,0,0,1-.9,1.8,4.4,4.4,0,0,1-2.6.8,6.6,6.6,0,0,1-2.8-.5,15.7,15.7,0,0,0-.4-2h.6c.4,1.6,1.2,2.1,2.4,2.1a2.4,2.4,0,0,0,1.5-.5,1.5,1.5,0,0,0,.5-1.1,1.3,1.3,0,0,0-.4-.9,8.8,8.8,0,0,0-1.9-1.1,9.1,9.1,0,0,1-1.9-1.3,2.2,2.2,0,0,1-.5-1.5,1.8,1.8,0,0,1,.8-1.5,4.1,4.1,0,0,1,2.4-.6,6.5,6.5,0,0,1,2.3.4,16.5,16.5,0,0,0,.3,1.9Z" transform="translate(-1.898 -2.608)" fill="#fff"/>
      <path id="パス_201416" data-name="パス 201416" d="M147.2,41.7c0,1.2.1,1.3,1.3,1.3v.5h-4.4V43c1.3,0,1.4-.2,1.4-1.3V37.2c0-1.2-.1-1.2-1.4-1.2v-.5a8.1,8.1,0,0,0,2.9-.8h.2Zm-1-10.4a1.2,1.2,0,1,1-1,1.2,1.1,1.1,0,0,1,1-1.2Z" transform="translate(-1.898 -2.608)" fill="#fff"/>
      <path id="パス_201417" data-name="パス 201417" d="M158.5,41.8c0,1.1.1,1.3.9,1.3v.5h-3.5V43c.9,0,.9-.1.9-1.3V37.6a2.4,2.4,0,0,0-.4-1.7,1.3,1.3,0,0,0-1-.4,3.466,3.466,0,0,0-2.3,1.7v4.5c0,1.2,0,1.3.9,1.3v.5h-3.7V43c1,0,1.1-.1,1.1-1.3V37.3c0-1.1-.1-1.3-1.1-1.3v-.5a6.3,6.3,0,0,0,2.4-.8h.2v1.4h0a3.7,3.7,0,0,1,2.8-1.5,2.6,2.6,0,0,1,1.9.6,2.8,2.8,0,0,1,.7,2.2Z" transform="translate(-1.898 -2.608)" fill="#fff"/>
      <path id="パス_201418" data-name="パス 201418" d="M162.5,39.1a5.2,5.2,0,0,0,.6,2.9,2.3,2.3,0,0,0,1.9,1.1,2.7,2.7,0,0,0,1.7-.5,3,3,0,0,0,1-1.1l.6.3a4.2,4.2,0,0,1-1.2,1.4,3.8,3.8,0,0,1-2.3.7,3.9,3.9,0,0,1-3.1-1.2,5.5,5.5,0,0,1-1-3.5,4.8,4.8,0,0,1,1.2-3.3,3.8,3.8,0,0,1,2.7-1,3.4,3.4,0,0,1,2.7,1.1,5.4,5.4,0,0,1,1,3.3Zm4-.6a4.5,4.5,0,0,0-.5-2.3,1.6,1.6,0,0,0-1.4-.8,1.8,1.8,0,0,0-1.4.8,4.3,4.3,0,0,0-.7,2.3Z" transform="translate(-1.898 -2.608)" fill="#fff"/>
      <path id="パス_201419" data-name="パス 201419" d="M175.6,37.1c-.3-1.4-.8-1.7-1.9-1.7a2.3,2.3,0,0,0-1.2.3,1,1,0,0,0-.5.9,1.4,1.4,0,0,0,.7,1.1l1.9.9a4.8,4.8,0,0,1,1.5,1,2.2,2.2,0,0,1,.7,1.6,2.3,2.3,0,0,1-.9,1.8,4.4,4.4,0,0,1-2.6.8,6.6,6.6,0,0,1-2.8-.5,15.7,15.7,0,0,0-.4-2h.6c.4,1.6,1.2,2.1,2.4,2.1a2.4,2.4,0,0,0,1.5-.5,1.5,1.5,0,0,0,.5-1.1,1.3,1.3,0,0,0-.4-.9,8.7,8.7,0,0,0-1.9-1.1,9.1,9.1,0,0,1-1.9-1.3,2.2,2.2,0,0,1-.5-1.5,1.8,1.8,0,0,1,.8-1.5,4.1,4.1,0,0,1,2.4-.6,6.5,6.5,0,0,1,2.3.4,16.9,16.9,0,0,0,.3,1.9Z" transform="translate(-1.898 -2.608)" fill="#fff"/>
      <path id="パス_201420" data-name="パス 201420" d="M184,37.1c-.3-1.4-.8-1.7-1.9-1.7a2.3,2.3,0,0,0-1.2.3,1,1,0,0,0-.5.9,1.4,1.4,0,0,0,.7,1.1l1.9.9a4.8,4.8,0,0,1,1.5,1,2.2,2.2,0,0,1,.7,1.6,2.3,2.3,0,0,1-.9,1.8,4.4,4.4,0,0,1-2.6.8,6.6,6.6,0,0,1-2.8-.5,15.7,15.7,0,0,0-.4-2h.6c.4,1.6,1.2,2.1,2.4,2.1a2.4,2.4,0,0,0,1.5-.5,1.5,1.5,0,0,0,.5-1.1,1.3,1.3,0,0,0-.4-.9,8.7,8.7,0,0,0-1.9-1.1,9.1,9.1,0,0,1-1.9-1.3,2.2,2.2,0,0,1-.5-1.5,1.8,1.8,0,0,1,.8-1.5,4.1,4.1,0,0,1,2.4-.6,6.5,6.5,0,0,1,2.3.4,16.7,16.7,0,0,0,.3,1.9Z" transform="translate(-1.898 -2.608)" fill="#fff"/>
      <path id="パス_201421" data-name="パス 201421" d="M194.3,39.1a5.2,5.2,0,0,0,.6,2.9,2.3,2.3,0,0,0,1.9,1.1,2.7,2.7,0,0,0,1.7-.5,3,3,0,0,0,1-1.1l.6.3a4.2,4.2,0,0,1-1.2,1.4,3.8,3.8,0,0,1-2.3.7,3.9,3.9,0,0,1-3.1-1.2,5.5,5.5,0,0,1-1-3.5,4.8,4.8,0,0,1,1.2-3.3,3.8,3.8,0,0,1,2.7-1,3.4,3.4,0,0,1,2.7,1.1,5.4,5.4,0,0,1,1,3.3Zm4-.6a4.5,4.5,0,0,0-.5-2.3,1.6,1.6,0,0,0-1.4-.8,1.8,1.8,0,0,0-1.4.8,4.3,4.3,0,0,0-.7,2.3Z" transform="translate(-1.898 -2.608)" fill="#fff"/>
      <path id="パス_201422" data-name="パス 201422" d="M205.4,43.8l-3.1-7.1c-.5-1.1-.6-1.2-1.3-1.2V35h3.7v.5c-.9,0-1,.2-.7,1l2.1,5.2h0l2.2-5.5c.2-.5.2-.7-.7-.7V35h2.5v.5c-.5,0-.7.1-1,.9l-3.2,7.4Z" transform="translate(-1.898 -2.608)" fill="#fff"/>
      <path id="パス_201423" data-name="パス 201423" d="M215.5,43.8a4.3,4.3,0,0,1-3-1,4.7,4.7,0,0,1-1.3-3.6,4.6,4.6,0,0,1,1.2-3.5,4.1,4.1,0,0,1,3-1,4.2,4.2,0,0,1,3,1.1,4.6,4.6,0,0,1,1.2,3.4,4.8,4.8,0,0,1-1.2,3.6,4.3,4.3,0,0,1-3.1,1Zm0-8.4a2.1,2.1,0,0,0-1.7.8,5.1,5.1,0,0,0-.7,3.1,5.3,5.3,0,0,0,.8,3.2,2.3,2.3,0,0,0,3.4,0,5.2,5.2,0,0,0,.8-3.2,5.1,5.1,0,0,0-.7-3.1,2.1,2.1,0,0,0-1.7-.8Z" transform="translate(-1.898 -2.608)" fill="#fff"/>
      <path id="パス_201424" data-name="パス 201424" d="M222.4,32.8c0-1.1-.1-1.2-1.4-1.2v-.5a8.2,8.2,0,0,0,2.8-.8h.2V41.7c0,1.2.1,1.3,1.3,1.3v.5H221V43c1.3,0,1.4-.2,1.4-1.3Z" transform="translate(-1.898 -2.608)" fill="#fff"/>
      <path id="パス_201425" data-name="パス 201425" d="M230.7,43.8l-3.1-7.1c-.5-1.1-.6-1.2-1.3-1.2V35H230v.5c-.9,0-1,.2-.7,1l2.1,5.2h0l2.2-5.5c.2-.5.2-.7-.7-.7V35h2.5v.5c-.5,0-.7.1-1,.9l-3.2,7.4Z" transform="translate(-1.898 -2.608)" fill="#fff"/>
      <path id="パス_201426" data-name="パス 201426" d="M238.3,39.1a5.2,5.2,0,0,0,.6,2.9,2.3,2.3,0,0,0,1.9,1.1,2.7,2.7,0,0,0,1.7-.5,3,3,0,0,0,1-1.1l.6.3a4.2,4.2,0,0,1-1.2,1.4,3.8,3.8,0,0,1-2.3.7,3.9,3.9,0,0,1-3.1-1.2,5.5,5.5,0,0,1-1-3.5,4.8,4.8,0,0,1,1.2-3.3,3.8,3.8,0,0,1,2.7-1,3.4,3.4,0,0,1,2.7,1.1,5.4,5.4,0,0,1,1,3.3Zm4-.6a4.5,4.5,0,0,0-.5-2.3,1.6,1.6,0,0,0-1.4-.8,1.8,1.8,0,0,0-1.4.8,4.3,4.3,0,0,0-.7,2.3Z" transform="translate(-1.898 -2.608)" fill="#fff"/>
      <path id="パス_201427" data-name="パス 201427" d="M251.4,37.1c-.3-1.4-.8-1.7-1.9-1.7a2.3,2.3,0,0,0-1.2.3,1,1,0,0,0-.5.9,1.4,1.4,0,0,0,.7,1.1l1.9.9a4.8,4.8,0,0,1,1.5,1,2.2,2.2,0,0,1,.7,1.6,2.3,2.3,0,0,1-.9,1.8,4.4,4.4,0,0,1-2.6.8,6.6,6.6,0,0,1-2.8-.5,15.7,15.7,0,0,0-.4-2h.6c.4,1.6,1.2,2.1,2.4,2.1a2.4,2.4,0,0,0,1.5-.5,1.5,1.5,0,0,0,.5-1.1,1.3,1.3,0,0,0-.4-.9,8.7,8.7,0,0,0-1.9-1.1,9.1,9.1,0,0,1-1.9-1.3,2.2,2.2,0,0,1-.5-1.5,1.8,1.8,0,0,1,.8-1.5,4.1,4.1,0,0,1,2.4-.6,6.5,6.5,0,0,1,2.3.4A16.693,16.693,0,0,0,252,37Z" transform="translate(-1.898 -2.608)" fill="#fff"/>
      <path id="パス_201428" data-name="パス 201428" d="M8.8,69.8c0,.9.2,1.2.6,1.2h.5v.5a3.2,3.2,0,0,1-1.4.3,1.3,1.3,0,0,1-1.4-1h.1a3.7,3.7,0,0,1-2.7,1.1,2.9,2.9,0,0,1-1.8-.6,2,2,0,0,1-.8-1.7,2.4,2.4,0,0,1,1.2-2.1A8.7,8.7,0,0,1,6,66.3L7.2,66v-.8a2.6,2.6,0,0,0-.3-1.3,1.5,1.5,0,0,0-1.3-.6,1.8,1.8,0,0,0-1.2.5,2.4,2.4,0,0,0-.6.9.7.7,0,0,1-.8.5.6.6,0,0,1-.6-.6,1.8,1.8,0,0,1,1-1.4,4.9,4.9,0,0,1,2.4-.5,3.1,3.1,0,0,1,2.5.8,2.7,2.7,0,0,1,.6,2ZM7.1,66.7a8.7,8.7,0,0,0-2.3.9,1.9,1.9,0,0,0-1.2,1.7A1.6,1.6,0,0,0,4,70.5a1.5,1.5,0,0,0,1.2.4A2.7,2.7,0,0,0,7.1,70Z" transform="translate(-1.898 -2.608)" fill="#fff"/>
      <path id="パス_201429" data-name="パス 201429" d="M13,60.8c0-1.1-.1-1.2-1.4-1.2v-.5a8.2,8.2,0,0,0,2.8-.8h.2V69.7c0,1.2.1,1.3,1.3,1.3v.5H11.6V71c1.3,0,1.4-.2,1.4-1.3Z" transform="translate(-1.898 -2.608)" fill="#fff"/>
      <path id="パス_201430" data-name="パス 201430" d="M21.5,71.8a4.3,4.3,0,0,1-3-1,4.7,4.7,0,0,1-1.3-3.6,4.6,4.6,0,0,1,1.2-3.5,4.1,4.1,0,0,1,3-1,4.2,4.2,0,0,1,3,1.1,4.6,4.6,0,0,1,1.2,3.4,4.8,4.8,0,0,1-1.2,3.6,4.3,4.3,0,0,1-3.1,1Zm0-8.4a2.1,2.1,0,0,0-1.7.8,5.1,5.1,0,0,0-.7,3.1,5.3,5.3,0,0,0,.8,3.2,2.3,2.3,0,0,0,3.4,0,5.1,5.1,0,0,0,.8-3.2,5.1,5.1,0,0,0-.7-3.1,2.1,2.1,0,0,0-1.7-.8Z" transform="translate(-1.898 -2.608)" fill="#fff"/>
      <path id="パス_201431" data-name="パス 201431" d="M35.5,69.8c0,1.1.1,1.3.9,1.3v.5H32.9V71c.9,0,.9-.1.9-1.3V65.6a2.4,2.4,0,0,0-.4-1.7,1.3,1.3,0,0,0-1-.4,3.466,3.466,0,0,0-2.3,1.7v4.5c0,1.2,0,1.3.9,1.3v.5H27.3V71c1,0,1.1-.1,1.1-1.3V65.3c0-1.1-.1-1.3-1.1-1.3v-.5a6.3,6.3,0,0,0,2.4-.8h.2v1.4h0a3.7,3.7,0,0,1,2.8-1.5,2.6,2.6,0,0,1,1.9.6,2.8,2.8,0,0,1,.7,2.2Z" transform="translate(-1.898 -2.608)" fill="#fff"/>
      <path id="パス_201432" data-name="パス 201432" d="M43,70.5c2.8,0,3.6,1.2,3.6,2.5s-1.8,3.2-4.8,3.2-4.2-.8-4.2-2.3a2.8,2.8,0,0,1,2.1-2.4c-.7-.2-1.4-.6-1.4-1.4s.7-1.3,1.4-1.7a3,3,0,0,1-1.4-2.6c0-2,1.6-3.2,3.7-3.2a4.8,4.8,0,0,1,2.2.5l2.5-.3v.9H44.8a2.8,2.8,0,0,1,.9,2.1C45.7,68,44,69,42,69a4.8,4.8,0,0,1-1.8-.3c-.5.3-.8.6-.8,1s.5.8,1.6.8Zm-2.5,1.3c-.9.6-1.4,1.2-1.4,1.9s1.1,1.8,2.9,1.8,3.3-1,3.3-2.1-.5-1.6-2.5-1.6ZM42,68.5c1.3,0,2-1,2-2.6s-.7-2.5-2-2.5-2,1.2-2,2.5S40.8,68.5,42,68.5Z" transform="translate(-1.898 -2.608)" fill="#fff"/>
      <path id="パス_201433" data-name="パス 201433" d="M63.3,71.8h-1l-2.1-6.5h0L58,71.8H57l-2.6-7.1c-.4-1.1-.6-1.2-1.2-1.2V63h3.5v.5c-.9,0-1,.2-.7,1l1.9,5.3H58l1.9-5.7v-.3c-.1-.3-.3-.3-.9-.3V63h3.5v.5c-.9,0-1,.1-.7.9l1.8,5.4h.1l1.9-5.6c.2-.5.1-.7-.8-.7V63h2.4v.5c-.5,0-.7.1-1,.9Z" transform="translate(-1.898 -2.608)" fill="#fff"/>
      <path id="パス_201434" data-name="パス 201434" d="M71.4,69.7c0,1.2.1,1.3,1.3,1.3v.5H68.3V71c1.3,0,1.4-.2,1.4-1.3V65.2c0-1.2-.1-1.2-1.4-1.2v-.5a8.1,8.1,0,0,0,2.9-.8h.2Zm-1-10.4a1.2,1.2,0,1,1-1,1.2,1.1,1.1,0,0,1,1-1.2Z" transform="translate(-1.898 -2.608)" fill="#fff"/>
      <path id="パス_201435" data-name="パス 201435" d="M73.7,63.1c1.3-.1,1.8-.9,2.3-2.7h.5v2.5h2.1v.7H76.5v6c0,1,.3,1.4,1,1.4a1.9,1.9,0,0,0,1.2-.5l.3.5a3.1,3.1,0,0,1-2.1.7,1.9,1.9,0,0,1-2.1-2.2v-6H73.7Z" transform="translate(-1.898 -2.608)" fill="#fff"/>
      <path id="パス_201436" data-name="パス 201436" d="M81.7,60.8c0-1.1-.1-1.2-1.1-1.2v-.5a7.7,7.7,0,0,0,2.6-.8h.2v5.8h0a3.8,3.8,0,0,1,2.9-1.5,2.5,2.5,0,0,1,1.8.6,3.1,3.1,0,0,1,.7,2.5v3.9c0,1.1.1,1.3,1,1.3v.5H86.2V71c.9,0,1-.1,1-1.3V65.9a3.1,3.1,0,0,0-.4-1.9,1.3,1.3,0,0,0-1.1-.5c-.8,0-1.6.7-2.4,1.7v4.5c0,1.2.1,1.3.9,1.3v.5H80.6V71c1,0,1.1-.1,1.1-1.3Z" transform="translate(-1.898 -2.608)" fill="#fff"/>
      <path id="パス_201437" data-name="パス 201437" d="M96.5,63.1c1.3-.1,1.8-.9,2.3-2.7h.5v2.5h2.1v.7H99.3v6c0,1,.3,1.4,1,1.4a1.9,1.9,0,0,0,1.2-.5l.3.5a3.1,3.1,0,0,1-2.1.7,1.9,1.9,0,0,1-2.1-2.2v-6H96.5Z" transform="translate(-1.898 -2.608)" fill="#fff"/>
      <path id="パス_201438" data-name="パス 201438" d="M104.5,60.8c0-1.1-.1-1.2-1.1-1.2v-.5a7.7,7.7,0,0,0,2.6-.8h.2v5.8h0a3.8,3.8,0,0,1,2.9-1.5,2.5,2.5,0,0,1,1.8.6,3.1,3.1,0,0,1,.7,2.5v3.9c0,1.1.1,1.3,1,1.3v.5H109V71c.9,0,1-.1,1-1.3V65.9a3.1,3.1,0,0,0-.4-1.9,1.3,1.3,0,0,0-1.1-.5c-.8,0-1.6.7-2.4,1.7v4.5c0,1.2.1,1.3.9,1.3v.5h-3.7V71c1,0,1.1-.1,1.1-1.3Z" transform="translate(-1.898 -2.608)" fill="#fff"/>
      <path id="パス_201439" data-name="パス 201439" d="M115.7,67.1a5.2,5.2,0,0,0,.6,2.9,2.3,2.3,0,0,0,1.9,1.1,2.7,2.7,0,0,0,1.7-.5,3,3,0,0,0,1-1.1l.6.3a4.2,4.2,0,0,1-1.2,1.4,3.8,3.8,0,0,1-2.3.7,3.9,3.9,0,0,1-3.1-1.2,5.5,5.5,0,0,1-1-3.5,4.8,4.8,0,0,1,1.2-3.3,3.8,3.8,0,0,1,2.7-1,3.4,3.4,0,0,1,2.7,1.1,5.4,5.4,0,0,1,1,3.3Zm4-.6a4.5,4.5,0,0,0-.5-2.3,1.6,1.6,0,0,0-1.4-.8,1.8,1.8,0,0,0-1.4.8,4.3,4.3,0,0,0-.7,2.3Z" transform="translate(-1.898 -2.608)" fill="#fff"/>
      <path id="パス_201440" data-name="パス 201440" d="M130.4,60.8c0-1.2-.1-1.4-1.6-1.4v-.6h5v.6c-1.5,0-1.6.1-1.6,1.4v8.8c0,1.2.1,1.4,1.6,1.4v.6h-5V71c1.5,0,1.6-.1,1.6-1.4Z" transform="translate(-1.898 -2.608)" fill="#fff"/>
      <path id="パス_201441" data-name="パス 201441" d="M144.1,69.8c0,1.1.1,1.3.9,1.3v.5h-3.5V71c.9,0,.9-.1.9-1.3V65.6a2.4,2.4,0,0,0-.4-1.7,1.3,1.3,0,0,0-1-.4,3.466,3.466,0,0,0-2.3,1.7v4.5c0,1.2,0,1.3.9,1.3v.5h-3.7V71c1,0,1.1-.1,1.1-1.3V65.3c0-1.1-.1-1.3-1.1-1.3v-.5a6.3,6.3,0,0,0,2.4-.8h.2v1.4h0a3.7,3.7,0,0,1,2.8-1.5,2.6,2.6,0,0,1,1.9.6,2.8,2.8,0,0,1,.7,2.2Z" transform="translate(-1.898 -2.608)" fill="#fff"/>
      <path id="パス_201442" data-name="パス 201442" d="M148,63.6h-1.3v-.7H148V61.8a3.6,3.6,0,0,1,1-2.7,3.1,3.1,0,0,1,2.1-.8,2.9,2.9,0,0,1,1.8.5,1.6,1.6,0,0,1,.8,1.2.6.6,0,0,1-.6.7c-.5,0-.7-.5-.9-.9s-.4-.9-1-.9a1.1,1.1,0,0,0-.9.4,3.8,3.8,0,0,0-.6,2.5V63H152v.7h-2.3v6.1c0,1.2.1,1.3,1.5,1.3v.5h-4.5V71c1.3,0,1.4-.1,1.4-1.4Z" transform="translate(-1.898 -2.608)" fill="#fff"/>
      <path id="パス_201443" data-name="パス 201443" d="M157.5,71.8a4.3,4.3,0,0,1-3-1,4.7,4.7,0,0,1-1.3-3.6,4.6,4.6,0,0,1,1.2-3.5,4.1,4.1,0,0,1,3-1,4.2,4.2,0,0,1,3,1.1,4.6,4.6,0,0,1,1.2,3.4,4.8,4.8,0,0,1-1.2,3.6,4.3,4.3,0,0,1-3.1,1Zm0-8.4a2.1,2.1,0,0,0-1.7.8,5.1,5.1,0,0,0-.7,3.1,5.3,5.3,0,0,0,.8,3.2,2.3,2.3,0,0,0,3.4,0,5.2,5.2,0,0,0,.8-3.2,5.1,5.1,0,0,0-.7-3.1,2.1,2.1,0,0,0-1.7-.8Z" transform="translate(-1.898 -2.608)" fill="#fff"/>
      <path id="パス_201444" data-name="パス 201444" d="M165.9,64.1c.7-1,1.3-1.4,2.1-1.4a1.5,1.5,0,0,1,1,.4,1.3,1.3,0,0,1,.4.9.713.713,0,0,1-.7.8.661.661,0,0,1-.7-.6q-.15-.6-.6-.6c-.3,0-1,.6-1.6,1.5v4.7c0,1.1.1,1.3,1.2,1.3v.5h-4V71c1,0,1-.1,1-1.3V65.2c0-1.1-.1-1.2-1-1.2v-.5a6.6,6.6,0,0,0,2.4-.8h.2V64Z" transform="translate(-1.898 -2.608)" fill="#fff"/>
      <path id="パス_201445" data-name="パス 201445" d="M184.5,69.8c0,1.1.1,1.2,1,1.2v.5h-3.6V71c.8,0,1-.1,1-1.2v-4a4,4,0,0,0-.3-1.7,1.2,1.2,0,0,0-1.1-.7,2.8,2.8,0,0,0-2.2,1.6v4.7c0,1.1.1,1.2,1,1.2v.5h-3.6V71c.9,0,.9-.1.9-1.2v-4a3.6,3.6,0,0,0-.3-1.8,1.2,1.2,0,0,0-1.1-.6c-.7,0-1.4.6-2.2,1.6v4.7c0,1.1.1,1.2,1,1.2v.5h-3.8V71c1.1,0,1.1-.1,1.1-1.3V65.3c0-1.1-.1-1.3-1.1-1.3v-.5a6.6,6.6,0,0,0,2.5-.8h.2V64h0a3.9,3.9,0,0,1,2.8-1.5,2.7,2.7,0,0,1,1.7.5,2,2,0,0,1,.7,1h.1a3.8,3.8,0,0,1,2.9-1.5,2.4,2.4,0,0,1,1.8.7,3.2,3.2,0,0,1,.7,2.3Z" transform="translate(-1.898 -2.608)" fill="#fff"/>
      <path id="パス_201446" data-name="パス 201446" d="M193.8,69.8c0,.9.2,1.2.6,1.2h.5v.5a3.2,3.2,0,0,1-1.3.3,1.3,1.3,0,0,1-1.4-1h-.1a3.7,3.7,0,0,1-2.7,1.1,2.9,2.9,0,0,1-1.8-.6,2,2,0,0,1-.8-1.7,2.4,2.4,0,0,1,1.2-2.1,8.7,8.7,0,0,1,2.9-1.1l1.2-.3v-.8a2.6,2.6,0,0,0-.3-1.3,1.5,1.5,0,0,0-1.3-.6,1.7,1.7,0,0,0-1.2.5,2.4,2.4,0,0,0-.6.9.7.7,0,0,1-.8.5.6.6,0,0,1-.6-.6,1.8,1.8,0,0,1,1-1.4,4.9,4.9,0,0,1,2.4-.5,3.1,3.1,0,0,1,2.5.8,2.7,2.7,0,0,1,.6,2Zm-1.7-3.1a8.7,8.7,0,0,0-2.3.9,1.9,1.9,0,0,0-1.2,1.7,1.6,1.6,0,0,0,.4,1.2,1.5,1.5,0,0,0,1.2.4,2.7,2.7,0,0,0,1.9-.9Z" transform="translate(-1.898 -2.608)" fill="#fff"/>
      <path id="パス_201447" data-name="パス 201447" d="M195.8,63.1c1.3-.1,1.8-.9,2.3-2.7h.5v2.5h2.1v.7h-2.1v6c0,1,.3,1.4,1,1.4a1.9,1.9,0,0,0,1.2-.5l.3.5a3.1,3.1,0,0,1-2.1.7,1.9,1.9,0,0,1-2.1-2.2v-6h-1.1Z" transform="translate(-1.898 -2.608)" fill="#fff"/>
      <path id="パス_201448" data-name="パス 201448" d="M205.8,69.7c0,1.2.1,1.3,1.3,1.3v.5h-4.4V71c1.3,0,1.4-.2,1.4-1.3V65.2c0-1.2-.1-1.2-1.4-1.2v-.5a8.1,8.1,0,0,0,2.9-.8h.2Zm-1-10.4a1.2,1.2,0,1,1-1,1.2,1.1,1.1,0,0,1,1-1.2Z" transform="translate(-1.898 -2.608)" fill="#fff"/>
      <path id="パス_201449" data-name="パス 201449" d="M212.7,71.8a4.3,4.3,0,0,1-3-1,4.7,4.7,0,0,1-1.3-3.6,4.6,4.6,0,0,1,1.2-3.5,4.1,4.1,0,0,1,3-1,4.2,4.2,0,0,1,3,1.1,4.6,4.6,0,0,1,1.2,3.4,4.8,4.8,0,0,1-1.2,3.6,4.3,4.3,0,0,1-3.1,1Zm0-8.4a2.1,2.1,0,0,0-1.7.8,5.1,5.1,0,0,0-.7,3.1,5.3,5.3,0,0,0,.8,3.2,2.3,2.3,0,0,0,3.4,0,5.2,5.2,0,0,0,.8-3.2,5.1,5.1,0,0,0-.7-3.1,2.1,2.1,0,0,0-1.7-.8Z" transform="translate(-1.898 -2.608)" fill="#fff"/>
      <path id="パス_201450" data-name="パス 201450" d="M226.7,69.8c0,1.1.1,1.3.9,1.3v.5h-3.5V71c.9,0,.9-.1.9-1.3V65.6a2.4,2.4,0,0,0-.4-1.7,1.3,1.3,0,0,0-1-.4,3.466,3.466,0,0,0-2.3,1.7v4.5c0,1.2,0,1.3.9,1.3v.5h-3.7V71c1,0,1.1-.1,1.1-1.3V65.3c0-1.1-.1-1.3-1.1-1.3v-.5a6.3,6.3,0,0,0,2.4-.8h.2v1.4h0a3.7,3.7,0,0,1,2.8-1.5,2.6,2.6,0,0,1,1.9.6,2.8,2.8,0,0,1,.7,2.2Z" transform="translate(-1.898 -2.608)" fill="#fff"/>
      <path id="パス_201451" data-name="パス 201451" d="M244,69.8c.7,1.1,1,1.2,1.8,1.2v.6h-2.6l-3.7-5.9h-1.7v3.9c0,1.3.1,1.4,1.4,1.4v.6h-4.6V71c1.3,0,1.4-.1,1.4-1.4V60.8c0-1.2-.1-1.4-1.4-1.4v-.6h5a6.3,6.3,0,0,1,3.8.8,2.9,2.9,0,0,1,1.3,2.4,3.1,3.1,0,0,1-1,2.3,4.7,4.7,0,0,1-2.5,1.1ZM237.8,65h1.4a4.3,4.3,0,0,0,2.8-.8,2.5,2.5,0,0,0,.9-2.1,2.3,2.3,0,0,0-.8-1.9,3.7,3.7,0,0,0-2.5-.7h-1.3c-.5,0-.5.1-.5,1.1Z" transform="translate(-1.898 -2.608)" fill="#fff"/>
      <path id="パス_201452" data-name="パス 201452" d="M249,67.1a5.2,5.2,0,0,0,.6,2.9,2.3,2.3,0,0,0,1.9,1.1,2.7,2.7,0,0,0,1.7-.5,3,3,0,0,0,1-1.1l.6.3a4.2,4.2,0,0,1-1.2,1.4,3.8,3.8,0,0,1-2.3.7,3.9,3.9,0,0,1-3.1-1.2,5.5,5.5,0,0,1-1-3.5,4.8,4.8,0,0,1,1.2-3.3,3.8,3.8,0,0,1,2.7-1,3.4,3.4,0,0,1,2.7,1.1,5.4,5.4,0,0,1,1,3.3Zm4-.6a4.5,4.5,0,0,0-.5-2.3,1.6,1.6,0,0,0-1.4-.8,1.8,1.8,0,0,0-1.4.8,4.3,4.3,0,0,0-.7,2.3Z" transform="translate(-1.898 -2.608)" fill="#fff"/>
      <path id="パス_201453" data-name="パス 201453" d="M260.2,71.8l-3.1-7.1c-.5-1.1-.6-1.2-1.3-1.2V63h3.7v.5c-.9,0-1,.2-.7,1l2.1,5.2h0l2.2-5.5c.2-.5.2-.7-.7-.7V63H265v.5c-.5,0-.7.1-1,.9l-3.2,7.4Z" transform="translate(-1.898 -2.608)" fill="#fff"/>
      <path id="パス_201454" data-name="パス 201454" d="M270.2,71.8a4.3,4.3,0,0,1-3-1,4.7,4.7,0,0,1-1.3-3.6,4.6,4.6,0,0,1,1.2-3.5,4.1,4.1,0,0,1,3-1,4.2,4.2,0,0,1,3,1.1,4.6,4.6,0,0,1,1.2,3.4,4.8,4.8,0,0,1-1.2,3.6,4.3,4.3,0,0,1-3.1,1Zm0-8.4a2.1,2.1,0,0,0-1.7.8,5.1,5.1,0,0,0-.7,3.1,5.3,5.3,0,0,0,.8,3.2,2.3,2.3,0,0,0,3.4,0,5.2,5.2,0,0,0,.8-3.2,5.1,5.1,0,0,0-.7-3.1,2.1,2.1,0,0,0-1.7-.8Z" transform="translate(-1.898 -2.608)" fill="#fff"/>
      <path id="パス_201455" data-name="パス 201455" d="M277.2,60.8c0-1.1-.1-1.2-1.4-1.2v-.5a8.2,8.2,0,0,0,2.8-.8h.2V69.7c0,1.2.1,1.3,1.3,1.3v.5h-4.3V71c1.3,0,1.4-.2,1.4-1.3Z" transform="translate(-1.898 -2.608)" fill="#fff"/>
      <path id="パス_201456" data-name="パス 201456" d="M290.3,71.5h-1.2l-1.3.2h-.2V70.5h0a3.5,3.5,0,0,1-2.7,1.3,2.6,2.6,0,0,1-1.9-.6,3.3,3.3,0,0,1-.8-2.5V65.2c0-1.1-.1-1.2-1-1.2v-.5a7.6,7.6,0,0,0,2.4-.8h.2v5.6a3.2,3.2,0,0,0,.4,1.9,1.4,1.4,0,0,0,1.2.5,2.8,2.8,0,0,0,2.1-1.4V65.2c0-1.1-.1-1.2-1-1.2v-.5a7.4,7.4,0,0,0,2.4-.8h.2v6.9c0,1.2.1,1.3,1.1,1.3Z" transform="translate(-1.898 -2.608)" fill="#fff"/>
      <path id="パス_201457" data-name="パス 201457" d="M291.4,63.1c1.3-.1,1.8-.9,2.3-2.7h.5v2.5h2.1v.7h-2.1v6c0,1,.3,1.4,1,1.4a1.9,1.9,0,0,0,1.2-.5l.3.5a3.1,3.1,0,0,1-2.1.7,1.9,1.9,0,0,1-2.1-2.2v-6h-1.1Z" transform="translate(-1.898 -2.608)" fill="#fff"/>
      <path id="パス_201458" data-name="パス 201458" d="M301.4,69.7c0,1.2.1,1.3,1.3,1.3v.5h-4.4V71c1.3,0,1.4-.2,1.4-1.3V65.2c0-1.2-.1-1.2-1.4-1.2v-.5a8.1,8.1,0,0,0,2.9-.8h.2Zm-1-10.4a1.2,1.2,0,1,1-1,1.2,1.1,1.1,0,0,1,1-1.2Z" transform="translate(-1.898 -2.608)" fill="#fff"/>
      <path id="パス_201459" data-name="パス 201459" d="M308.2,71.8a4.3,4.3,0,0,1-3-1,4.7,4.7,0,0,1-1.3-3.6,4.6,4.6,0,0,1,1.2-3.5,4.1,4.1,0,0,1,3-1,4.2,4.2,0,0,1,3,1.1,4.6,4.6,0,0,1,1.2,3.4,4.8,4.8,0,0,1-1.2,3.6,4.3,4.3,0,0,1-3.1,1Zm0-8.4a2.1,2.1,0,0,0-1.7.8,5.1,5.1,0,0,0-.7,3.1,5.3,5.3,0,0,0,.8,3.2,2.3,2.3,0,0,0,3.4,0,5.2,5.2,0,0,0,.8-3.2,5.1,5.1,0,0,0-.7-3.1,2.1,2.1,0,0,0-1.7-.8Z" transform="translate(-1.898 -2.608)" fill="#fff"/>
      <path id="パス_201460" data-name="パス 201460" d="M322.2,69.8c0,1.1.1,1.3.9,1.3v.5h-3.5V71c.9,0,.9-.1.9-1.3V65.6a2.4,2.4,0,0,0-.4-1.7,1.3,1.3,0,0,0-1-.4,3.466,3.466,0,0,0-2.3,1.7v4.5c0,1.2,0,1.3.9,1.3v.5H314V71c1,0,1.1-.1,1.1-1.3V65.3c0-1.1-.1-1.3-1.1-1.3v-.5a6.3,6.3,0,0,0,2.4-.8h.2v1.4h0a3.7,3.7,0,0,1,2.8-1.5,2.6,2.6,0,0,1,1.9.6,2.8,2.8,0,0,1,.7,2.2Z" transform="translate(-1.898 -2.608)" fill="#fff"/>
      <path id="パス_201461" data-name="パス 201461" d="M326.2,69.7a1,1,0,1,1-1,1A1,1,0,0,1,326.2,69.7Z" transform="translate(-1.898 -2.608)" fill="#fff"/>
    </g>
  </g>
</svg>
