<svg xmlns="http://www.w3.org/2000/svg" width="712" height="63.974" viewBox="0 0 712 63.974">
  <g id="his_copy_en" transform="translate(356 31.987)">
    <g id="グループ_88602" data-name="グループ 88602" transform="translate(-356 -31.987)">
      <path id="パス_200952" data-name="パス 200952" d="M161.907,21.119a7.437,7.437,0,0,1-5.893-2.245,10.383,10.383,0,0,1-2.1-7.016,9.962,9.962,0,0,1,2.385-7.3,8.84,8.84,0,0,1,11.085,0,9.963,9.963,0,0,1,2.385,7.3,10.384,10.384,0,0,1-2.1,7.016,7.437,7.437,0,0,1-5.893,2.245Zm0-17.54a4.771,4.771,0,0,0-3.789,1.684c-.982,1.263-1.684,3.227-1.684,6.595a11.085,11.085,0,0,0,1.684,6.595,5.052,5.052,0,0,0,7.718,0,11.085,11.085,0,0,0,1.684-6.595c0-3.368-.561-5.332-1.684-6.595a4.771,4.771,0,0,0-3.789-1.684Z" transform="translate(61.504 -2.608)" fill="#fff"/>
      <path id="パス_200953" data-name="パス 200953" d="M180.269,19.048h-1.684l-1.824.281h-.281V17.645h0a4.911,4.911,0,0,1-3.789,1.824,3.648,3.648,0,0,1-2.666-.842,4.631,4.631,0,0,1-1.123-3.508V10.208c0-1.544-.14-1.684-1.4-1.684v-.7A10.665,10.665,0,0,0,170.868,6.7h.281v7.858a4.49,4.49,0,0,0,.561,2.666,1.964,1.964,0,0,0,1.684.7,3.929,3.929,0,0,0,2.947-1.964V10.208c0-1.544-.14-1.684-1.4-1.684v-.7A10.383,10.383,0,0,0,178.3,6.7h.281v9.682c0,1.684.14,1.824,1.544,1.824Z" transform="translate(66.997 -0.958)" fill="#fff"/>
      <path id="パス_200954" data-name="パス 200954" d="M182.169,8.664c.982-1.4,1.824-1.964,2.947-1.964a2.1,2.1,0,0,1,1.4.561,1.824,1.824,0,0,1,.561,1.263,1,1,0,0,1-.982,1.123.928.928,0,0,1-.982-.842q-.21-.842-.842-.842c-.421,0-1.4.842-2.245,2.1v6.595c0,1.544.14,1.824,1.684,1.824v.7H178.1v-.842c1.4,0,1.4-.14,1.4-1.824V10.208c0-1.544-.14-1.684-1.4-1.684v-.7A9.26,9.26,0,0,0,181.468,6.7h.281V8.664Z" transform="translate(71.27 -0.958)" fill="#fff"/>
      <path id="パス_200955" data-name="パス 200955" d="M197.174,19.388l-4.35-9.963c-.7-1.544-.842-1.684-1.824-1.684V6.9h5.192v.7c-1.263,0-1.4.281-.982,1.4l2.947,7.3h0l3.087-7.718c.281-.7.281-.982-.982-.982V6.9h3.508v.7c-.7,0-.982.14-1.4,1.263l-4.49,10.384Z" transform="translate(76.472 -0.877)" fill="#fff"/>
      <path id="パス_200956" data-name="パス 200956" d="M206.15,17.893c0,1.684.14,1.824,1.824,1.824v.7H201.8v-.7c1.824,0,1.964-.281,1.964-1.824V11.579c0-1.684-.14-1.684-1.964-1.684v-.7a11.366,11.366,0,0,0,4.069-1.123h.281ZM204.747,3.3a1.543,1.543,0,0,1,1.4,1.684,1.473,1.473,0,0,1-2.947,0,1.544,1.544,0,0,1,1.4-1.684Z" transform="translate(80.826 -2.329)" fill="#fff"/>
      <path id="パス_200957" data-name="パス 200957" d="M215.518,9.99C215.1,8.026,214.395,7.6,212.851,7.6a3.228,3.228,0,0,0-1.684.421,1.4,1.4,0,0,0-.7,1.263,1.965,1.965,0,0,0,.982,1.544l2.666,1.263a6.734,6.734,0,0,1,2.1,1.4,3.087,3.087,0,0,1,.982,2.245,3.227,3.227,0,0,1-1.263,2.526,6.174,6.174,0,0,1-3.648,1.123,9.261,9.261,0,0,1-3.929-.7,22.04,22.04,0,0,0-.561-2.806h.842c.561,2.245,1.684,2.947,3.368,2.947a3.368,3.368,0,0,0,2.1-.7,2.1,2.1,0,0,0,.7-1.544,1.824,1.824,0,0,0-.561-1.263,12.348,12.348,0,0,0-2.666-1.544,12.768,12.768,0,0,1-2.666-1.824,3.087,3.087,0,0,1-.7-2.1,2.526,2.526,0,0,1,1.123-2.1,5.753,5.753,0,0,1,3.368-.842,9.121,9.121,0,0,1,3.227.561,23.177,23.177,0,0,0,.421,2.666Z" transform="translate(83.245 -0.881)" fill="#fff"/>
      <path id="パス_200958" data-name="パス 200958" d="M220.25,17.893c0,1.684.14,1.824,1.824,1.824v.7H215.9v-.7c1.824,0,1.964-.281,1.964-1.824V11.579c0-1.684-.14-1.684-1.964-1.684v-.7a11.366,11.366,0,0,0,4.069-1.123h.281ZM218.847,3.3a1.543,1.543,0,0,1,1.4,1.684,1.473,1.473,0,1,1-2.947,0,1.543,1.543,0,0,1,1.4-1.684Z" transform="translate(86.511 -2.329)" fill="#fff"/>
      <path id="パス_200959" data-name="パス 200959" d="M227.64,19.474a6.034,6.034,0,0,1-4.21-1.4,6.6,6.6,0,0,1-1.824-5.051,6.455,6.455,0,0,1,1.684-4.911,5.753,5.753,0,0,1,4.21-1.4,5.893,5.893,0,0,1,4.21,1.543,6.454,6.454,0,0,1,1.684,4.771,6.735,6.735,0,0,1-1.684,5.051,6.034,6.034,0,0,1-4.35,1.4Zm0-11.787a2.947,2.947,0,0,0-2.385,1.123,7.156,7.156,0,0,0-.982,4.35,7.438,7.438,0,0,0,1.122,4.49,3.227,3.227,0,0,0,4.771,0,7.156,7.156,0,0,0,1.123-4.49,7.156,7.156,0,0,0-.982-4.35,2.947,2.947,0,0,0-2.385-1.123Z" transform="translate(88.802 -0.963)" fill="#fff"/>
      <path id="パス_200960" data-name="パス 200960" d="M243.206,16.663c0,1.544.14,1.824,1.263,1.824v.7h-4.911v-.842c1.263,0,1.263-.14,1.263-1.824V10.769a3.368,3.368,0,0,0-.561-2.385,1.824,1.824,0,0,0-1.4-.561c-.982,0-2.245.982-3.227,2.385v6.314c0,1.684,0,1.824,1.263,1.824v.7H231.7v-.7c1.4,0,1.544-.14,1.544-1.824V10.348c0-1.544-.14-1.824-1.544-1.824v-.7A8.84,8.84,0,0,0,235.068,6.7h.281V8.945h0a5.192,5.192,0,0,1,3.929-2.1,3.648,3.648,0,0,1,2.666.842,3.929,3.929,0,0,1,.982,3.087Z" transform="translate(92.881 -0.958)" fill="#fff"/>
      <path id="パス_200961" data-name="パス 200961" d="M252.15,17.893c0,1.684.14,1.824,1.824,1.824v.7H247.8v-.7c1.824,0,1.965-.281,1.965-1.824V11.579c0-1.684-.14-1.684-1.965-1.684v-.7a11.366,11.366,0,0,0,4.069-1.123h.281ZM250.747,3.3a1.544,1.544,0,0,1,1.4,1.684,1.473,1.473,0,0,1-2.947,0,1.544,1.544,0,0,1,1.4-1.684Z" transform="translate(99.372 -2.329)" fill="#fff"/>
      <path id="パス_200962" data-name="パス 200962" d="M261.518,9.99C261.1,8.026,260.4,7.6,258.852,7.6a3.227,3.227,0,0,0-1.684.421,1.4,1.4,0,0,0-.7,1.263,1.964,1.964,0,0,0,.982,1.543l2.666,1.263a6.736,6.736,0,0,1,2.1,1.4,3.087,3.087,0,0,1,.982,2.245,3.227,3.227,0,0,1-1.263,2.526,6.174,6.174,0,0,1-3.648,1.123,9.261,9.261,0,0,1-3.929-.7,22.022,22.022,0,0,0-.561-2.806h.842c.561,2.245,1.684,2.947,3.368,2.947a3.368,3.368,0,0,0,2.1-.7,2.1,2.1,0,0,0,.7-1.544,1.824,1.824,0,0,0-.561-1.263,12.349,12.349,0,0,0-2.666-1.544,12.769,12.769,0,0,1-2.666-1.824,3.087,3.087,0,0,1-.7-2.1,2.525,2.525,0,0,1,1.123-2.1,5.753,5.753,0,0,1,3.368-.842,9.121,9.121,0,0,1,3.227.561,23.164,23.164,0,0,0,.421,2.666Z" transform="translate(101.791 -0.881)" fill="#fff"/>
      <path id="パス_200963" data-name="パス 200963" d="M278.327,16.806A6.594,6.594,0,0,1,276.5,18.63a5.192,5.192,0,0,1-2.947.842,5.613,5.613,0,0,1-3.929-1.4,7.016,7.016,0,0,1-1.824-5.051,6.174,6.174,0,0,1,1.543-4.49A5.332,5.332,0,0,1,273.7,6.7a5.192,5.192,0,0,1,3.227.982,1.964,1.964,0,0,1,.982,1.544c0,.561-.281.982-.842.982l-.7-.281-.7-1.123A1.965,1.965,0,0,0,273.7,7.545a2.947,2.947,0,0,0-2.526,1.4,6.734,6.734,0,0,0-.982,3.929,7.434,7.434,0,0,0,.842,3.929,3.367,3.367,0,0,0,2.806,1.543,3.648,3.648,0,0,0,2.1-.561,4.913,4.913,0,0,0,1.4-1.544Z" transform="translate(107.432 -0.961)" fill="#fff"/>
      <path id="パス_200964" data-name="パス 200964" d="M282.74,19.474a6.034,6.034,0,0,1-4.21-1.4,6.6,6.6,0,0,1-1.824-5.051,6.454,6.454,0,0,1,1.684-4.911,5.753,5.753,0,0,1,4.21-1.4,5.893,5.893,0,0,1,4.21,1.543,6.455,6.455,0,0,1,1.684,4.771,6.735,6.735,0,0,1-1.684,5.051,6.034,6.034,0,0,1-4.35,1.4Zm0-11.787a2.947,2.947,0,0,0-2.385,1.123,7.157,7.157,0,0,0-.982,4.35,7.436,7.436,0,0,0,1.123,4.49,3.227,3.227,0,0,0,4.771,0,7.3,7.3,0,0,0,1.123-4.49,7.157,7.157,0,0,0-.982-4.35,2.947,2.947,0,0,0-2.385-1.123Z" transform="translate(111.018 -0.963)" fill="#fff"/>
      <path id="パス_200965" data-name="パス 200965" d="M298.306,16.663c0,1.544.141,1.824,1.263,1.824v.7h-4.911v-.842c1.263,0,1.263-.14,1.263-1.824V10.769a3.367,3.367,0,0,0-.561-2.385,1.824,1.824,0,0,0-1.4-.561c-.982,0-2.245.982-3.227,2.385v6.314c0,1.684,0,1.824,1.263,1.824v.7H286.8v-.7c1.4,0,1.544-.14,1.544-1.824V10.348c0-1.544-.141-1.824-1.544-1.824v-.7A8.842,8.842,0,0,0,290.168,6.7h.281V8.945h0a5.192,5.192,0,0,1,3.929-2.1,3.648,3.648,0,0,1,2.666.842,3.929,3.929,0,0,1,.982,3.087Z" transform="translate(115.096 -0.958)" fill="#fff"/>
      <path id="パス_200966" data-name="パス 200966" d="M305.218,9.99C304.8,8.026,304.1,7.6,302.552,7.6a3.227,3.227,0,0,0-1.684.421,1.4,1.4,0,0,0-.7,1.263,1.965,1.965,0,0,0,.982,1.544l2.666,1.263a6.735,6.735,0,0,1,2.1,1.4,3.086,3.086,0,0,1,.982,2.245,3.227,3.227,0,0,1-1.263,2.526,6.174,6.174,0,0,1-3.648,1.123,9.262,9.262,0,0,1-3.929-.7,22.037,22.037,0,0,0-.561-2.806h.842c.561,2.245,1.684,2.947,3.368,2.947a3.368,3.368,0,0,0,2.1-.7,2.1,2.1,0,0,0,.7-1.544,1.824,1.824,0,0,0-.561-1.263,12.209,12.209,0,0,0-2.666-1.544,12.771,12.771,0,0,1-2.666-1.824,3.087,3.087,0,0,1-.7-2.1,2.525,2.525,0,0,1,1.123-2.1,5.753,5.753,0,0,1,3.368-.842,9.122,9.122,0,0,1,3.227.561,23.412,23.412,0,0,0,.421,2.666Z" transform="translate(119.41 -0.881)" fill="#fff"/>
      <path id="パス_200967" data-name="パス 200967" d="M309.95,17.893c0,1.684.14,1.824,1.824,1.824v.7H305.6v-.7c1.824,0,1.965-.281,1.965-1.824V11.579c0-1.684-.14-1.684-1.965-1.684v-.7a11.366,11.366,0,0,0,4.069-1.123h.281ZM308.547,3.3a1.543,1.543,0,0,1,1.4,1.684,1.416,1.416,0,1,1-2.806,0,1.543,1.543,0,0,1,1.4-1.684Z" transform="translate(122.676 -2.329)" fill="#fff"/>
      <path id="パス_200968" data-name="パス 200968" d="M319.318,9.99C318.9,8.026,318.2,7.6,316.652,7.6a3.228,3.228,0,0,0-1.684.421,1.4,1.4,0,0,0-.7,1.263,1.965,1.965,0,0,0,.982,1.543l2.666,1.263a6.736,6.736,0,0,1,2.1,1.4A3.087,3.087,0,0,1,321,15.743a3.227,3.227,0,0,1-1.263,2.526,6.174,6.174,0,0,1-3.648,1.123,9.261,9.261,0,0,1-3.929-.7,22,22,0,0,0-.561-2.806h.842c.561,2.245,1.684,2.947,3.368,2.947a3.367,3.367,0,0,0,2.1-.7,2.1,2.1,0,0,0,.7-1.543,1.824,1.824,0,0,0-.561-1.263,12.209,12.209,0,0,0-2.666-1.544,12.767,12.767,0,0,1-2.666-1.824,3.087,3.087,0,0,1-.7-2.1,2.525,2.525,0,0,1,1.123-2.1,5.753,5.753,0,0,1,3.368-.842,9.121,9.121,0,0,1,3.227.561,23.164,23.164,0,0,0,.421,2.666Z" transform="translate(125.095 -0.881)" fill="#fff"/>
      <path id="パス_200969" data-name="パス 200969" d="M319.5,8.189c1.824-.14,2.526-1.263,3.227-3.789h.7V7.908h2.947V8.89h-2.947v8.419c0,1.4.421,1.964,1.4,1.964a2.666,2.666,0,0,0,1.684-.7l.421.7a4.35,4.35,0,0,1-2.947.982,2.666,2.666,0,0,1-2.947-3.087V8.75H319.5Z" transform="translate(128.28 -1.885)" fill="#fff"/>
      <path id="パス_200970" data-name="パス 200970" d="M328.43,12.8a7.3,7.3,0,0,0,.842,4.069,3.227,3.227,0,0,0,2.666,1.543,3.788,3.788,0,0,0,2.385-.7,4.209,4.209,0,0,0,1.4-1.543l.842.421a5.9,5.9,0,0,1-1.684,1.964,5.332,5.332,0,0,1-3.227.982,5.473,5.473,0,0,1-4.35-1.684,7.717,7.717,0,0,1-1.4-4.911,6.735,6.735,0,0,1,1.684-4.631,5.332,5.332,0,0,1,3.789-1.4,4.771,4.771,0,0,1,3.789,1.544,7.578,7.578,0,0,1,1.4,4.63Zm5.613-.842a6.312,6.312,0,0,0-.7-3.227A2.245,2.245,0,0,0,331.376,7.6a2.526,2.526,0,0,0-1.965,1.123,6.034,6.034,0,0,0-.982,3.227Z" transform="translate(130.857 -0.88)" fill="#fff"/>
      <path id="パス_200971" data-name="パス 200971" d="M346.406,16.663c0,1.544.14,1.824,1.263,1.824v.7h-4.911v-.842c1.263,0,1.263-.14,1.263-1.824V10.769a3.367,3.367,0,0,0-.561-2.385,1.824,1.824,0,0,0-1.4-.561c-.982,0-2.245.982-3.227,2.385v6.314c0,1.684,0,1.824,1.263,1.824v.7H334.9v-.7c1.4,0,1.543-.14,1.543-1.824V10.348c0-1.544-.14-1.824-1.543-1.824v-.7A8.841,8.841,0,0,0,338.268,6.7h.281V8.945h0a5.192,5.192,0,0,1,3.929-2.1,3.648,3.648,0,0,1,2.666.842,3.928,3.928,0,0,1,.982,3.087Z" transform="translate(134.489 -0.958)" fill="#fff"/>
      <path id="パス_200972" data-name="パス 200972" d="M345,8.189c1.824-.14,2.526-1.263,3.227-3.789h.7V7.908h2.947V8.89h-2.947v8.419c0,1.4.421,1.964,1.4,1.964a2.666,2.666,0,0,0,1.684-.7l.421.7a4.35,4.35,0,0,1-2.947.982,2.666,2.666,0,0,1-2.947-3.087V8.75H345Z" transform="translate(138.561 -1.885)" fill="#fff"/>
      <path id="パス_200973" data-name="パス 200973" d="M353.8,13.7a1.4,1.4,0,1,1-1.4,1.4A1.4,1.4,0,0,1,353.8,13.7Z" transform="translate(141.545 1.864)" fill="#fff"/>
      <path id="パス_200974" data-name="パス 200974" d="M8.405,49.126a7.437,7.437,0,0,1-5.893-2.245,10.384,10.384,0,0,1-2.1-7.016,9.963,9.963,0,0,1,2.526-7.3A7.858,7.858,0,0,1,8.546,30.6a7.718,7.718,0,0,1,5.613,1.964,9.963,9.963,0,0,1,2.385,7.3,10.384,10.384,0,0,1-2.1,7.016,7.437,7.437,0,0,1-5.893,2.245Zm0-17.54A4.771,4.771,0,0,0,4.617,33.27c-.982,1.263-1.684,3.227-1.684,6.595A11.085,11.085,0,0,0,4.617,46.46a5.051,5.051,0,0,0,7.718,0,11.085,11.085,0,0,0,1.544-6.595c0-3.368-.561-5.332-1.684-6.595a4.771,4.771,0,0,0-3.789-1.684Z" transform="translate(-0.382 8.674)" fill="#fff"/>
      <path id="パス_200975" data-name="パス 200975" d="M26.909,47.048H25.085l-1.824.281H22.98V45.645h0a4.911,4.911,0,0,1-3.789,1.824,3.648,3.648,0,0,1-2.666-.842A4.63,4.63,0,0,1,15.4,43.119V38.208c0-1.543-.14-1.684-1.4-1.684v-.7A10.664,10.664,0,0,0,17.368,34.7h.281v7.858a4.49,4.49,0,0,0,.561,2.666,1.965,1.965,0,0,0,1.684.7,3.929,3.929,0,0,0,2.947-1.964V38.208c0-1.543-.14-1.684-1.4-1.684v-.7A10.383,10.383,0,0,0,24.8,34.7h.281v9.682c0,1.684.14,1.824,1.544,1.824Z" transform="translate(5.108 10.331)" fill="#fff"/>
      <path id="パス_200976" data-name="パス 200976" d="M28.669,36.664c.982-1.4,1.824-1.964,2.947-1.964a2.1,2.1,0,0,1,1.4.561,1.824,1.824,0,0,1,.561,1.263,1,1,0,0,1-.982,1.123.928.928,0,0,1-.982-.842q-.21-.842-.842-.842c-.421,0-1.4.842-2.245,2.1v6.595c0,1.543.14,1.824,1.684,1.824v.7H24.6v-.842c1.4,0,1.4-.14,1.4-1.824V38.208c0-1.543-.14-1.684-1.4-1.684v-.7A9.261,9.261,0,0,0,27.968,34.7h.281v1.824Z" transform="translate(9.382 10.331)" fill="#fff"/>
      <path id="パス_200977" data-name="パス 200977" d="M39.484,49.1H39.2V33.668c0-1.4-.14-1.544-1.4-1.544v-.7A10.524,10.524,0,0,0,41.168,30.3h.281v7.437h0a4.63,4.63,0,0,1,3.508-1.4A4.49,4.49,0,0,1,48.6,38.017a7.016,7.016,0,0,1,1.4,4.49,7.577,7.577,0,0,1-1.543,4.771,4.631,4.631,0,0,1-3.789,1.684,5.192,5.192,0,0,1-3.508-1.4h-.14Zm2.1-2.385a4.49,4.49,0,0,0,2.947,1.4,2.666,2.666,0,0,0,2.385-1.544,8.935,8.935,0,0,0,0-7.577,2.666,2.666,0,0,0-2.385-1.543A3.929,3.929,0,0,0,41.589,39Z" transform="translate(14.704 8.557)" fill="#fff"/>
      <path id="パス_200978" data-name="パス 200978" d="M60.869,47.048H59.185l-1.824.281H57.08V45.645h0a4.911,4.911,0,0,1-3.789,1.824,3.648,3.648,0,0,1-2.666-.842A4.631,4.631,0,0,1,49.5,43.119V38.208c0-1.543-.14-1.684-1.4-1.684v-.7A10.664,10.664,0,0,0,51.468,34.7h.281v7.858a4.49,4.49,0,0,0,.561,2.666,1.965,1.965,0,0,0,1.684.7,3.929,3.929,0,0,0,2.947-1.964V38.208c0-1.543-.14-1.684-1.4-1.684v-.7A10.383,10.383,0,0,0,58.9,34.7h.281v9.682c0,1.684.14,1.824,1.544,1.824Z" transform="translate(18.857 10.331)" fill="#fff"/>
      <path id="パス_200979" data-name="パス 200979" d="M66.518,37.99C66.1,36.026,65.395,35.6,63.851,35.6a3.227,3.227,0,0,0-1.684.421,1.4,1.4,0,0,0-.7,1.263,1.964,1.964,0,0,0,.982,1.543l2.666,1.263a6.735,6.735,0,0,1,2.1,1.4,3.087,3.087,0,0,1,.982,2.245,3.227,3.227,0,0,1-1.263,2.526,6.174,6.174,0,0,1-3.648,1.123,9.261,9.261,0,0,1-3.929-.7,22.035,22.035,0,0,0-.561-2.806h.842c.561,2.245,1.684,2.947,3.368,2.947a3.368,3.368,0,0,0,2.1-.7,2.1,2.1,0,0,0,.7-1.543,1.824,1.824,0,0,0-.561-1.263,12.347,12.347,0,0,0-2.666-1.543,12.769,12.769,0,0,1-2.666-1.824,3.087,3.087,0,0,1-.7-2.1,2.526,2.526,0,0,1,1.123-2.1,5.753,5.753,0,0,1,3.368-.842,9.121,9.121,0,0,1,3.227.561,23.139,23.139,0,0,0,.421,2.666Z" transform="translate(23.171 10.409)" fill="#fff"/>
      <path id="パス_200980" data-name="パス 200980" d="M71.25,45.9c0,1.684.14,1.824,1.824,1.824v.7H66.9v-.7c1.824,0,1.964-.281,1.964-1.824V39.586c0-1.684-.14-1.684-1.964-1.684v-.7a11.365,11.365,0,0,0,4.069-1.123h.281Zm-1.4-14.593a1.684,1.684,0,1,1-1.4,1.684,1.544,1.544,0,0,1,1.4-1.684Z" transform="translate(26.436 8.954)" fill="#fff"/>
      <path id="パス_200981" data-name="パス 200981" d="M84.506,44.707c0,1.543.14,1.824,1.263,1.824v.7H80.858v-.842c1.263,0,1.263-.14,1.263-1.824V38.814a3.368,3.368,0,0,0-.561-2.385,1.824,1.824,0,0,0-1.4-.561c-.982,0-2.245.982-3.227,2.385v6.314c0,1.684,0,1.824,1.263,1.824v.7H73v-.7c1.4,0,1.544-.14,1.544-1.824V38.393c0-1.543-.14-1.824-1.544-1.824v-.7a8.84,8.84,0,0,0,3.368-1.123h.281v1.964h0a5.192,5.192,0,0,1,3.929-2.1,3.648,3.648,0,0,1,2.666.842,3.929,3.929,0,0,1,.982,3.087Z" transform="translate(28.896 10.287)" fill="#fff"/>
      <path id="パス_200982" data-name="パス 200982" d="M86.03,40.8a7.3,7.3,0,0,0,.842,4.069,3.227,3.227,0,0,0,2.666,1.544,3.789,3.789,0,0,0,2.385-.7,4.209,4.209,0,0,0,1.4-1.543l.842.421a5.893,5.893,0,0,1-1.684,1.964,5.332,5.332,0,0,1-3.227.982,5.472,5.472,0,0,1-4.35-1.684,7.717,7.717,0,0,1-1.4-4.911,6.735,6.735,0,0,1,1.684-4.631,5.332,5.332,0,0,1,3.789-1.4,4.771,4.771,0,0,1,3.648,1.263,7.577,7.577,0,0,1,1.4,4.631Zm5.613-.842a6.314,6.314,0,0,0-.7-3.227,2.245,2.245,0,0,0-1.964-1.123,2.526,2.526,0,0,0-1.964,1.123,6.034,6.034,0,0,0-.982,3.227Z" transform="translate(33.125 10.407)" fill="#fff"/>
      <path id="パス_200983" data-name="パス 200983" d="M100.518,37.99c-.421-1.964-1.123-2.385-2.666-2.385a3.227,3.227,0,0,0-1.684.421,1.4,1.4,0,0,0-.7,1.263,1.964,1.964,0,0,0,.982,1.543l2.666,1.263a6.735,6.735,0,0,1,2.1,1.4,3.087,3.087,0,0,1,.982,2.245,3.227,3.227,0,0,1-1.263,2.526,6.174,6.174,0,0,1-3.648,1.123,9.261,9.261,0,0,1-3.929-.7,22.025,22.025,0,0,0-.561-2.806h.842c.561,2.245,1.684,2.947,3.368,2.947a3.368,3.368,0,0,0,2.1-.7,2.1,2.1,0,0,0,.7-1.543,1.824,1.824,0,0,0-.561-1.263,12.208,12.208,0,0,0-2.666-1.543,12.769,12.769,0,0,1-2.666-1.824,3.087,3.087,0,0,1-.7-2.1,2.526,2.526,0,0,1,1.123-2.1,5.753,5.753,0,0,1,3.368-.842,9.121,9.121,0,0,1,3.227.561,23.714,23.714,0,0,0,.421,2.666Z" transform="translate(36.879 10.409)" fill="#fff"/>
      <path id="パス_200984" data-name="パス 200984" d="M108.918,37.99c-.421-1.964-1.123-2.385-2.666-2.385a3.227,3.227,0,0,0-1.684.421,1.4,1.4,0,0,0-.7,1.263,1.964,1.964,0,0,0,.982,1.544l2.666,1.263a6.735,6.735,0,0,1,2.1,1.4,3.087,3.087,0,0,1,.982,2.245,3.227,3.227,0,0,1-1.263,2.526,6.174,6.174,0,0,1-3.648,1.123,9.261,9.261,0,0,1-3.929-.7,22.031,22.031,0,0,0-.561-2.806h.842c.561,2.245,1.684,2.947,3.368,2.947a3.368,3.368,0,0,0,2.1-.7,2.1,2.1,0,0,0,.7-1.543,1.824,1.824,0,0,0-.561-1.263,12.348,12.348,0,0,0-2.666-1.543,12.768,12.768,0,0,1-2.666-1.824,3.087,3.087,0,0,1-.7-2.1,2.526,2.526,0,0,1,1.123-2.1,5.753,5.753,0,0,1,3.368-.842,9.121,9.121,0,0,1,3.227.561,23.153,23.153,0,0,0,.421,2.666Z" transform="translate(40.266 10.409)" fill="#fff"/>
      <path id="パス_200985" data-name="パス 200985" d="M117.73,40.8a7.3,7.3,0,0,0,.842,4.069,3.227,3.227,0,0,0,2.666,1.544,3.789,3.789,0,0,0,2.385-.7,4.21,4.21,0,0,0,1.4-1.543l.842.421a5.894,5.894,0,0,1-1.684,1.964,5.332,5.332,0,0,1-3.227.982,5.472,5.472,0,0,1-4.35-1.684,7.718,7.718,0,0,1-1.4-4.911,6.735,6.735,0,0,1,1.684-4.63,5.332,5.332,0,0,1,3.789-1.4,4.771,4.771,0,0,1,3.789,1.543,7.578,7.578,0,0,1,1.4,4.631Zm5.613-.842a6.314,6.314,0,0,0-.7-3.227,2.245,2.245,0,0,0-1.964-1.123,2.526,2.526,0,0,0-1.964,1.123,6.034,6.034,0,0,0-.982,3.227Z" transform="translate(45.906 10.41)" fill="#fff"/>
      <path id="パス_200986" data-name="パス 200986" d="M129.874,47.348l-4.35-9.963c-.7-1.543-.842-1.684-1.824-1.684V35h5.192v.7c-1.263,0-1.4.281-.982,1.4l2.947,7.3h0l3.087-7.717c.281-.7.281-.982-.982-.982V35h3.789v.7c-.7,0-.982.14-1.4,1.263l-4.49,10.384Z" transform="translate(49.337 10.452)" fill="#fff"/>
      <path id="パス_200987" data-name="パス 200987" d="M139.94,47.473a6.034,6.034,0,0,1-4.21-1.4,6.6,6.6,0,0,1-1.824-5.051,6.455,6.455,0,0,1,1.684-4.911,5.753,5.753,0,0,1,4.21-1.4,5.893,5.893,0,0,1,4.209,1.543,6.455,6.455,0,0,1,1.684,4.771,6.735,6.735,0,0,1-1.684,5.051,6.034,6.034,0,0,1-4.35,1.4Zm0-11.787a2.947,2.947,0,0,0-2.385,1.123,7.156,7.156,0,0,0-.982,4.35,7.436,7.436,0,0,0,1.122,4.49,3.227,3.227,0,0,0,4.771,0,7.3,7.3,0,0,0,1.123-4.49,7.156,7.156,0,0,0-.982-4.35,2.947,2.947,0,0,0-2.385-1.123Z" transform="translate(53.443 10.327)" fill="#fff"/>
      <path id="パス_200988" data-name="パス 200988" d="M145.624,33.808c0-1.543-.14-1.684-1.824-1.684v-.7a11.506,11.506,0,0,0,3.929-1.123h.281v16c0,1.684.14,1.824,1.824,1.824v.7H143.8v-.7c1.824,0,1.824-.281,1.824-1.824Z" transform="translate(57.441 8.557)" fill="#fff"/>
      <path id="パス_200989" data-name="パス 200989" d="M155.174,47.348l-4.35-9.963c-.7-1.543-.842-1.684-1.824-1.684V35h5.192v.7c-1.263,0-1.4.281-.982,1.4l2.947,7.3h0l3.087-7.717c.281-.7.281-.982-.982-.982V35h3.508v.7c-.7,0-.982.14-1.4,1.263l-4.35,10.384Z" transform="translate(59.538 10.452)" fill="#fff"/>
      <path id="パス_200990" data-name="パス 200990" d="M161.73,40.8a7.3,7.3,0,0,0,.842,4.069,3.227,3.227,0,0,0,2.666,1.544,3.789,3.789,0,0,0,2.385-.7,4.209,4.209,0,0,0,1.4-1.543l.842.421a5.893,5.893,0,0,1-1.684,1.964,5.332,5.332,0,0,1-3.227.982,5.472,5.472,0,0,1-4.35-1.684,7.718,7.718,0,0,1-1.4-4.911,6.736,6.736,0,0,1,1.684-4.63,5.332,5.332,0,0,1,3.789-1.4,4.771,4.771,0,0,1,3.789,1.543,7.577,7.577,0,0,1,1.4,4.631Zm5.613-.842a6.314,6.314,0,0,0-.7-3.227,2.245,2.245,0,0,0-1.964-1.123,2.526,2.526,0,0,0-1.964,1.123,6.034,6.034,0,0,0-.982,3.227Z" transform="translate(63.646 10.41)" fill="#fff"/>
      <path id="パス_200991" data-name="パス 200991" d="M176.318,37.99c-.421-1.964-1.123-2.385-2.666-2.385a3.227,3.227,0,0,0-1.684.421,1.4,1.4,0,0,0-.7,1.263,1.965,1.965,0,0,0,.982,1.544l2.666,1.263a6.735,6.735,0,0,1,2.1,1.4A3.087,3.087,0,0,1,178,43.743a3.227,3.227,0,0,1-1.263,2.526,6.174,6.174,0,0,1-3.648,1.123,9.261,9.261,0,0,1-3.929-.7,22.029,22.029,0,0,0-.561-2.806h.842c.561,2.245,1.684,2.947,3.368,2.947a3.368,3.368,0,0,0,2.1-.7,2.1,2.1,0,0,0,.7-1.544,1.824,1.824,0,0,0-.561-1.263,12.348,12.348,0,0,0-2.666-1.544,12.768,12.768,0,0,1-2.666-1.824,3.087,3.087,0,0,1-.7-2.1,2.526,2.526,0,0,1,1.123-2.1,5.753,5.753,0,0,1,3.368-.842,9.121,9.121,0,0,1,3.227.561,23.167,23.167,0,0,0,.421,2.666Z" transform="translate(67.44 10.409)" fill="#fff"/>
      <path id="パス_200992" data-name="パス 200992" d="M192.264,44.632c0,1.263.281,1.684.842,1.684h.7v.7a4.49,4.49,0,0,1-1.964.421,1.824,1.824,0,0,1-1.964-1.4h-.14a5.192,5.192,0,0,1-3.789,1.544,4.069,4.069,0,0,1-2.526-.842,2.806,2.806,0,0,1-1.123-2.385,3.368,3.368,0,0,1,1.684-2.947,12.208,12.208,0,0,1,4.069-1.544l1.684-.421V38.318a3.649,3.649,0,0,0-.421-1.824,2.1,2.1,0,0,0-1.824-.842,2.386,2.386,0,0,0-1.684.7,3.367,3.367,0,0,0-.842,1.263.982.982,0,0,1-1.123.7.842.842,0,0,1-.842-.842,2.526,2.526,0,0,1,1.4-1.964,6.876,6.876,0,0,1,3.368-.7,4.35,4.35,0,0,1,3.508,1.123,3.789,3.789,0,0,1,.842,2.806Zm-2.385-4.35a12.209,12.209,0,0,0-3.227,1.263,2.666,2.666,0,0,0-1.684,2.385,2.245,2.245,0,0,0,.561,1.684,2.1,2.1,0,0,0,1.684.561,3.789,3.789,0,0,0,2.666-1.263Z" transform="translate(72.963 10.361)" fill="#fff"/>
      <path id="パス_200993" data-name="パス 200993" d="M194.124,33.808c0-1.543-.14-1.684-1.824-1.684v-.7a11.507,11.507,0,0,0,3.929-1.123h.281v16c0,1.684.14,1.824,1.824,1.824v.7H192.3v-.7c1.824,0,1.824-.281,1.824-1.824Z" transform="translate(76.996 8.557)" fill="#fff"/>
      <path id="パス_200994" data-name="パス 200994" d="M203.84,47.473a6.034,6.034,0,0,1-4.21-1.4,6.6,6.6,0,0,1-1.824-5.051,6.455,6.455,0,0,1,1.684-4.911,5.753,5.753,0,0,1,4.21-1.4,5.893,5.893,0,0,1,4.209,1.543,6.454,6.454,0,0,1,1.684,4.771,6.735,6.735,0,0,1-1.684,5.051,6.034,6.034,0,0,1-4.35,1.4Zm0-11.787a2.947,2.947,0,0,0-2.385,1.123,7.156,7.156,0,0,0-.982,4.35,7.436,7.436,0,0,0,1.123,4.49,3.227,3.227,0,0,0,4.771,0,7.156,7.156,0,0,0,1.123-4.49,7.156,7.156,0,0,0-.982-4.35,2.947,2.947,0,0,0-2.385-1.123Z" transform="translate(79.207 10.327)" fill="#fff"/>
      <path id="パス_200995" data-name="パス 200995" d="M219.406,44.707c0,1.543.14,1.824,1.263,1.824v.7h-4.911v-.842c1.263,0,1.263-.14,1.263-1.824V38.814a3.368,3.368,0,0,0-.561-2.385,1.824,1.824,0,0,0-1.4-.561c-.982,0-2.245.982-3.227,2.385v6.314c0,1.684,0,1.824,1.263,1.824v.7H207.9v-.7c1.4,0,1.544-.14,1.544-1.824V38.393c0-1.543-.14-1.824-1.544-1.824v-.7a8.84,8.84,0,0,0,3.368-1.123h.281v1.964h0a5.192,5.192,0,0,1,3.929-2.1,3.648,3.648,0,0,1,2.666.842,3.929,3.929,0,0,1,.982,3.087Z" transform="translate(83.285 10.287)" fill="#fff"/>
      <path id="パス_200996" data-name="パス 200996" d="M225.777,45.685c3.929,0,5.052,1.684,5.052,3.508s-2.526,4.49-6.735,4.49-5.893-1.123-5.893-3.227a3.929,3.929,0,0,1,2.947-3.368c-.982-.281-1.964-.842-1.964-1.964s.982-1.824,1.964-2.385a4.21,4.21,0,0,1-1.964-3.648c0-2.806,2.245-4.49,5.192-4.49a6.735,6.735,0,0,1,3.087.7l3.508-.421v1.263H228.3a3.929,3.929,0,0,1,1.263,2.947c0,3.087-2.385,4.49-5.192,4.49a6.735,6.735,0,0,1-2.526-.421c-.7.421-1.123.842-1.123,1.4s.7,1.123,2.245,1.123Zm-3.508,1.824c-1.263.842-1.964,1.684-1.964,2.666s1.544,2.526,4.069,2.526S229,51.3,229,49.755s-.7-2.245-3.508-2.245Zm2.1-4.771c1.824,0,2.806-1.4,2.806-3.648s-.982-3.508-2.806-3.508-2.806,1.684-2.806,3.508S222.69,42.739,224.374,42.739Z" transform="translate(87.438 10.291)" fill="#fff"/>
      <path id="パス_200997" data-name="パス 200997" d="M247.972,47.348h-1.4l-2.947-9.121h0l-3.087,9.121h-1.4l-3.648-9.963c-.561-1.543-.842-1.684-1.684-1.684V35h4.911v.7c-1.263,0-1.4.281-.982,1.4l2.666,7.437h.14l2.666-8v-.421c-.14-.421-.421-.421-1.263-.421V35h4.911v.7c-1.263,0-1.4.14-.982,1.263l2.526,7.577h.14l2.666-7.858c.281-.7.14-.982-1.123-.982V35h3.368v.7c-.7,0-.982.14-1.4,1.263Z" transform="translate(93.728 10.452)" fill="#fff"/>
      <path id="パス_200998" data-name="パス 200998" d="M253.25,45.9c0,1.684.14,1.824,1.824,1.824v.7H248.9v-.7c1.824,0,1.964-.281,1.964-1.824V39.586c0-1.684-.14-1.684-1.964-1.684v-.7a11.366,11.366,0,0,0,4.069-1.123h.281Zm-1.4-14.593a1.684,1.684,0,1,1-1.4,1.684,1.544,1.544,0,0,1,1.4-1.684Z" transform="translate(99.816 8.954)" fill="#fff"/>
      <path id="パス_200999" data-name="パス 200999" d="M254.3,36.189c1.824-.14,2.526-1.263,3.227-3.789h.7v3.508h2.947v.982h-2.947v8.419c0,1.4.421,1.964,1.4,1.964a2.666,2.666,0,0,0,1.684-.7l.421.7a4.35,4.35,0,0,1-2.947.982,2.666,2.666,0,0,1-2.947-3.087V36.75H254.3Z" transform="translate(101.993 9.404)" fill="#fff"/>
      <path id="パス_201000" data-name="パス 201000" d="M262.784,33.808c0-1.543-.141-1.684-1.544-1.684v-.7a10.8,10.8,0,0,0,3.648-1.123h.281v8.138h0a5.332,5.332,0,0,1,4.069-2.1,3.508,3.508,0,0,1,2.526.842,4.35,4.35,0,0,1,.982,3.508v5.472c0,1.543.14,1.824,1.4,1.824v.7H269.1V48.12c1.263,0,1.4-.14,1.4-1.824V40.964a4.35,4.35,0,0,0-.561-2.666,1.824,1.824,0,0,0-1.543-.7c-1.123,0-2.245.982-3.368,2.385V46.3c0,1.684.14,1.824,1.263,1.824v.7H261.1v-.7c1.4,0,1.543-.14,1.543-1.824Z" transform="translate(104.734 8.557)" fill="#fff"/>
      <path id="パス_201001" data-name="パス 201001" d="M277.1,36.189c1.824-.14,2.526-1.263,3.227-3.789h.7v3.508h2.947v.982h-2.947v8.419c0,1.4.421,1.964,1.4,1.964a2.666,2.666,0,0,0,1.684-.7l.421.7a4.35,4.35,0,0,1-2.947.982,2.666,2.666,0,0,1-2.947-3.087V36.75H277.1Z" transform="translate(111.185 9.404)" fill="#fff"/>
      <path id="パス_201002" data-name="パス 201002" d="M285.544,33.808c0-1.543-.14-1.684-1.543-1.684v-.7a10.8,10.8,0,0,0,3.648-1.123h.281v8.138h0a5.333,5.333,0,0,1,4.069-2.1,3.508,3.508,0,0,1,2.526.842,4.35,4.35,0,0,1,.982,3.508v5.472c0,1.543.14,1.824,1.4,1.824v.7h-5.051V48.12c1.263,0,1.4-.14,1.4-1.824V40.964A4.352,4.352,0,0,0,292.7,38.3a1.825,1.825,0,0,0-1.544-.7c-1.123,0-2.245.982-3.368,2.385V46.3c0,1.684.14,1.824,1.263,1.824v.7H284v-.7c1.4,0,1.543-.14,1.543-1.824Z" transform="translate(113.967 8.557)" fill="#fff"/>
      <path id="パス_201003" data-name="パス 201003" d="M296.989,40.8a7.3,7.3,0,0,0,.982,4.069,3.227,3.227,0,0,0,2.666,1.544,3.789,3.789,0,0,0,2.385-.7,4.211,4.211,0,0,0,1.4-1.543l.842.421a5.892,5.892,0,0,1-1.684,1.964,5.332,5.332,0,0,1-3.227.982,5.472,5.472,0,0,1-4.35-1.684,7.717,7.717,0,0,1-1.4-4.911,6.735,6.735,0,0,1,1.684-4.63,5.332,5.332,0,0,1,3.789-1.4,4.771,4.771,0,0,1,3.789,1.543,7.576,7.576,0,0,1,1.4,4.63Zm5.613-.842a6.313,6.313,0,0,0-.7-3.227,2.245,2.245,0,0,0-1.964-1.123,2.526,2.526,0,0,0-1.964,1.123,6.035,6.035,0,0,0-.982,3.227Z" transform="translate(118.237 10.41)" fill="#fff"/>
      <path id="パス_201004" data-name="パス 201004" d="M311.645,33.606c0-1.684-.14-1.964-2.245-1.964V30.8h7.016v.842c-2.1,0-2.245.14-2.245,1.964V45.954c0,1.684.14,1.964,2.245,1.964v.842H309.4v-.842c2.1,0,2.245-.14,2.245-1.964Z" transform="translate(124.208 8.759)" fill="#fff"/>
      <path id="パス_201005" data-name="パス 201005" d="M328.006,44.707c0,1.543.14,1.824,1.263,1.824v.7h-4.911v-.842c1.263,0,1.263-.14,1.263-1.824V38.814a3.368,3.368,0,0,0-.561-2.385,1.824,1.824,0,0,0-1.4-.561c-.982,0-2.245.982-3.227,2.385v6.314c0,1.684,0,1.824,1.263,1.824v.7H316.5v-.7c1.4,0,1.543-.14,1.543-1.824V38.393c0-1.543-.14-1.824-1.543-1.824v-.7a8.838,8.838,0,0,0,3.368-1.123h.281v1.964h0a5.192,5.192,0,0,1,3.929-2.1,3.649,3.649,0,0,1,2.666.842,3.93,3.93,0,0,1,.982,3.087Z" transform="translate(127.071 10.287)" fill="#fff"/>
      <path id="パス_201006" data-name="パス 201006" d="M329.224,37.739H327.4v-.982h1.824V35.213a5.052,5.052,0,0,1,1.4-3.789,4.35,4.35,0,0,1,2.947-1.123,4.069,4.069,0,0,1,2.526.7,2.245,2.245,0,0,1,1.123,1.684.842.842,0,0,1-.842.982c-.7,0-.982-.7-1.263-1.263s-.561-1.263-1.4-1.263a1.544,1.544,0,0,0-1.263.561,5.332,5.332,0,0,0-.842,3.508V36.9h3.227v.982H331.61v8.559c0,1.684.14,1.824,2.1,1.824v.7H327.4v-.842c1.824,0,1.964-.14,1.964-1.964Z" transform="translate(131.466 8.555)" fill="#fff"/>
      <path id="パス_201007" data-name="パス 201007" d="M339.84,47.473a6.034,6.034,0,0,1-4.21-1.4,6.6,6.6,0,0,1-1.824-5.051,6.454,6.454,0,0,1,1.684-4.911,5.753,5.753,0,0,1,4.209-1.4,5.893,5.893,0,0,1,4.21,1.543,6.454,6.454,0,0,1,1.684,4.771,6.736,6.736,0,0,1-1.684,5.051,6.033,6.033,0,0,1-4.35,1.4Zm0-11.787a2.946,2.946,0,0,0-2.385,1.123,7.155,7.155,0,0,0-.982,4.35,7.437,7.437,0,0,0,1.122,4.49,3.227,3.227,0,0,0,4.771,0,7.3,7.3,0,0,0,1.123-4.49,7.157,7.157,0,0,0-.982-4.35,2.947,2.947,0,0,0-2.385-1.123Z" transform="translate(134.04 10.327)" fill="#fff"/>
      <path id="パス_201008" data-name="パス 201008" d="M347.769,36.664c.982-1.4,1.824-1.964,2.947-1.964a2.1,2.1,0,0,1,1.4.561,1.824,1.824,0,0,1,.561,1.263,1,1,0,0,1-.982,1.123.928.928,0,0,1-.982-.842q-.21-.842-.842-.842c-.421,0-1.4.842-2.245,2.1v6.595c0,1.543.14,1.824,1.684,1.824v.7H343.7v-.842c1.4,0,1.4-.14,1.4-1.824V38.208c0-1.543-.14-1.684-1.4-1.684v-.7a9.262,9.262,0,0,0,3.368-1.123h.281v1.824Z" transform="translate(138.038 10.331)" fill="#fff"/>
      <path id="パス_201009" data-name="パス 201009" d="M370.462,44.744c0,1.543.14,1.684,1.4,1.684v.7h-5.051v-.7c1.122,0,1.4-.14,1.4-1.684V39.132a5.612,5.612,0,0,0-.421-2.385,1.684,1.684,0,0,0-1.544-.982,3.929,3.929,0,0,0-3.087,2.245V44.6c0,1.544.14,1.684,1.4,1.684v.7h-5.051v-.561c1.263,0,1.263-.14,1.263-1.684V39.132a5.05,5.05,0,0,0-.421-2.526,1.684,1.684,0,0,0-1.544-.842c-.982,0-1.964.842-3.087,2.245V44.6c0,1.544.14,1.684,1.4,1.684v.7H351.8v-.561c1.544,0,1.544-.14,1.544-1.824V38.43c0-1.544-.14-1.824-1.544-1.824v-.7a9.261,9.261,0,0,0,3.508-1.123h.281v1.824h0a5.472,5.472,0,0,1,3.929-2.1,3.789,3.789,0,0,1,2.385.7,2.807,2.807,0,0,1,.982,1.4h.14a5.333,5.333,0,0,1,4.069-2.1,3.368,3.368,0,0,1,2.526.982,4.49,4.49,0,0,1,.982,3.227Z" transform="translate(141.303 10.249)" fill="#fff"/>
      <path id="パス_201010" data-name="パス 201010" d="M377.323,44.632c0,1.263.281,1.684.842,1.684h.7v.7a4.49,4.49,0,0,1-1.824.421,1.824,1.824,0,0,1-1.964-1.4h-.14a5.192,5.192,0,0,1-3.789,1.544,4.069,4.069,0,0,1-2.526-.842,2.807,2.807,0,0,1-1.123-2.385,3.368,3.368,0,0,1,1.684-2.947,12.207,12.207,0,0,1,4.069-1.544l1.684-.421V38.318a3.648,3.648,0,0,0-.421-1.824,2.1,2.1,0,0,0-1.824-.842,2.385,2.385,0,0,0-1.684.7,3.367,3.367,0,0,0-.842,1.263.982.982,0,0,1-1.123.7.842.842,0,0,1-.842-.842,2.525,2.525,0,0,1,1.4-1.964,6.875,6.875,0,0,1,3.368-.7,4.35,4.35,0,0,1,3.508,1.123,3.789,3.789,0,0,1,.842,2.806Zm-2.385-4.35a12.209,12.209,0,0,0-3.227,1.263,2.666,2.666,0,0,0-1.684,2.385,2.245,2.245,0,0,0,.561,1.684,2.1,2.1,0,0,0,1.684.561,3.789,3.789,0,0,0,2.666-1.263Z" transform="translate(147.632 10.361)" fill="#fff"/>
      <path id="パス_201011" data-name="パス 201011" d="M376.5,36.189c1.824-.14,2.526-1.263,3.227-3.789h.7v3.508h2.947v.982h-2.947v8.419c0,1.4.421,1.964,1.4,1.964a2.666,2.666,0,0,0,1.684-.7l.421.7a4.35,4.35,0,0,1-2.947.982,2.666,2.666,0,0,1-2.947-3.087V36.75H376.5Z" transform="translate(151.262 9.404)" fill="#fff"/>
      <path id="パス_201012" data-name="パス 201012" d="M387.75,45.9c0,1.684.14,1.824,1.824,1.824v.7H383.4v-.7c1.824,0,1.964-.281,1.964-1.824V39.586c0-1.684-.14-1.684-1.964-1.684v-.7a11.366,11.366,0,0,0,4.069-1.123h.281Zm-1.4-14.593a1.684,1.684,0,1,1-1.4,1.684,1.543,1.543,0,0,1,1.4-1.684Z" transform="translate(154.044 8.954)" fill="#fff"/>
      <path id="パス_201013" data-name="パス 201013" d="M395.04,47.473a6.034,6.034,0,0,1-4.21-1.4,6.6,6.6,0,0,1-1.824-5.051,6.455,6.455,0,0,1,1.684-4.911,5.753,5.753,0,0,1,4.209-1.4,5.894,5.894,0,0,1,4.21,1.544,6.454,6.454,0,0,1,1.684,4.771,6.735,6.735,0,0,1-1.684,5.051,6.034,6.034,0,0,1-4.35,1.4Zm0-11.787a2.947,2.947,0,0,0-2.385,1.123,7.156,7.156,0,0,0-.982,4.35,7.437,7.437,0,0,0,1.122,4.49,3.227,3.227,0,0,0,4.771,0,7.3,7.3,0,0,0,1.123-4.49,7.157,7.157,0,0,0-.982-4.35,2.947,2.947,0,0,0-2.385-1.123Z" transform="translate(156.295 10.327)" fill="#fff"/>
      <path id="パス_201014" data-name="パス 201014" d="M410.647,44.707c0,1.543.14,1.824,1.263,1.824v.7H407v-.842c1.263,0,1.263-.14,1.263-1.824V38.814a3.368,3.368,0,0,0-.561-2.385,1.824,1.824,0,0,0-1.4-.561c-.982,0-2.245.982-3.227,2.385v6.314c0,1.684,0,1.824,1.263,1.824v.7H399v-.7c1.4,0,1.543-.14,1.543-1.824V38.393c0-1.543-.14-1.824-1.543-1.824v-.7a8.841,8.841,0,0,0,3.368-1.123h.281v1.964h0a5.192,5.192,0,0,1,3.929-2.1,3.648,3.648,0,0,1,2.666.842,3.929,3.929,0,0,1,.982,3.087Z" transform="translate(160.333 10.287)" fill="#fff"/>
      <path id="パス_201015" data-name="パス 201015" d="M428.49,46.249c.982,1.543,1.4,1.684,2.526,1.684v.842h-3.648L422.176,40.5H419.79v5.472c0,1.824.14,1.964,1.964,1.964v.842H415.3v-.842c1.824,0,1.964-.14,1.964-1.964V33.621c0-1.684-.14-1.964-1.964-1.964v-.842h7.016a8.84,8.84,0,0,1,5.332,1.123,4.069,4.069,0,0,1,1.824,3.368,4.35,4.35,0,0,1-1.4,3.227,6.6,6.6,0,0,1-3.508,1.543Zm-8.7-6.735h1.964a6.034,6.034,0,0,0,3.929-1.123,3.508,3.508,0,0,0,1.263-2.947,3.227,3.227,0,0,0-1.122-2.666,5.192,5.192,0,0,0-3.508-.982h-1.824c-.7,0-.7.14-.7,1.543Z" transform="translate(166.905 8.744)" fill="#fff"/>
      <path id="パス_201016" data-name="パス 201016" d="M430.33,40.8a7.3,7.3,0,0,0,.842,4.069,3.227,3.227,0,0,0,2.666,1.544,3.789,3.789,0,0,0,2.385-.7,4.21,4.21,0,0,0,1.4-1.543l.842.421a5.893,5.893,0,0,1-1.684,1.964,5.331,5.331,0,0,1-3.227.982,5.473,5.473,0,0,1-4.35-1.684,7.719,7.719,0,0,1-1.4-4.911,6.736,6.736,0,0,1,1.684-4.631,5.333,5.333,0,0,1,3.789-1.4,4.771,4.771,0,0,1,3.789,1.543,7.578,7.578,0,0,1,1.4,4.631Zm5.613-.842a6.313,6.313,0,0,0-.7-3.227,2.245,2.245,0,0,0-1.964-1.123,2.526,2.526,0,0,0-1.965,1.123,6.035,6.035,0,0,0-.982,3.227Z" transform="translate(171.941 10.41)" fill="#fff"/>
      <path id="パス_201017" data-name="パス 201017" d="M442.574,47.348l-4.35-9.963c-.7-1.543-.842-1.684-1.824-1.684V35h5.192v.7c-1.263,0-1.4.281-.982,1.4l2.947,7.3h0l3.087-7.717c.281-.7.281-.982-.982-.982V35h3.508v.7c-.7,0-.982.14-1.4,1.263l-4.49,10.384Z" transform="translate(175.412 10.452)" fill="#fff"/>
      <path id="パス_201018" data-name="パス 201018" d="M452.54,47.473a6.033,6.033,0,0,1-4.21-1.4,6.6,6.6,0,0,1-1.824-5.051,6.455,6.455,0,0,1,1.684-4.911,5.753,5.753,0,0,1,4.209-1.4,5.893,5.893,0,0,1,4.21,1.544,6.455,6.455,0,0,1,1.684,4.771,6.735,6.735,0,0,1-1.684,5.051,6.034,6.034,0,0,1-4.35,1.4Zm0-11.787a2.947,2.947,0,0,0-2.385,1.123,7.157,7.157,0,0,0-.982,4.35,7.437,7.437,0,0,0,1.123,4.49,3.227,3.227,0,0,0,4.771,0,7.3,7.3,0,0,0,1.123-4.49,7.157,7.157,0,0,0-.982-4.35,2.946,2.946,0,0,0-2.385-1.123Z" transform="translate(179.478 10.327)" fill="#fff"/>
      <path id="パス_201019" data-name="パス 201019" d="M458.365,33.808c0-1.543-.141-1.684-1.965-1.684v-.7a11.507,11.507,0,0,0,3.929-1.123h.281v16c0,1.684.14,1.824,1.824,1.824v.7H456.4v-.7c1.824,0,1.965-.281,1.965-1.824Z" transform="translate(183.476 8.557)" fill="#fff"/>
      <path id="パス_201020" data-name="パス 201020" d="M474.669,47.048h-1.684l-1.824.281h-.281V45.645h0a4.911,4.911,0,0,1-3.789,1.824,3.648,3.648,0,0,1-2.666-.842,4.63,4.63,0,0,1-1.123-3.508V38.208c0-1.543-.14-1.684-1.4-1.684v-.7a10.665,10.665,0,0,0,3.368-1.123h.281v7.858a4.489,4.489,0,0,0,.561,2.666,1.964,1.964,0,0,0,1.684.7,3.929,3.929,0,0,0,2.947-1.964V38.208c0-1.543-.14-1.684-1.4-1.684v-.7A10.385,10.385,0,0,0,472.7,34.7h.281v9.682c0,1.684.14,1.824,1.543,1.824Z" transform="translate(185.694 10.331)" fill="#fff"/>
      <path id="パス_201021" data-name="パス 201021" d="M472,36.189c1.824-.14,2.526-1.263,3.227-3.789h.7v3.508h2.947v.982h-2.947v8.419c0,1.4.421,1.964,1.4,1.964a2.666,2.666,0,0,0,1.684-.7l.421.7a4.35,4.35,0,0,1-2.947.982,2.666,2.666,0,0,1-2.947-3.087V36.75H472Z" transform="translate(189.766 9.404)" fill="#fff"/>
      <path id="パス_201022" data-name="パス 201022" d="M483.25,45.9c0,1.684.14,1.824,1.824,1.824v.7H478.9v-.7c1.824,0,1.965-.281,1.965-1.824V39.586c0-1.684-.14-1.684-1.965-1.684v-.7a11.366,11.366,0,0,0,4.069-1.123h.281Zm-1.4-14.593a1.684,1.684,0,1,1-1.4,1.684,1.543,1.543,0,0,1,1.4-1.684Z" transform="translate(192.548 8.953)" fill="#fff"/>
      <path id="パス_201023" data-name="パス 201023" d="M490.54,47.473a6.034,6.034,0,0,1-4.21-1.4,6.6,6.6,0,0,1-1.824-5.051,6.454,6.454,0,0,1,1.684-4.911,5.753,5.753,0,0,1,4.21-1.4,5.893,5.893,0,0,1,4.21,1.543,6.455,6.455,0,0,1,1.684,4.771,6.735,6.735,0,0,1-1.684,5.051,6.033,6.033,0,0,1-4.35,1.4Zm0-11.787a2.947,2.947,0,0,0-2.385,1.123,7.156,7.156,0,0,0-.982,4.35,7.438,7.438,0,0,0,1.123,4.49,3.227,3.227,0,0,0,4.771,0,7.3,7.3,0,0,0,1.122-4.49,7.155,7.155,0,0,0-.982-4.35,2.947,2.947,0,0,0-2.385-1.123Z" transform="translate(194.799 10.327)" fill="#fff"/>
      <path id="パス_201024" data-name="パス 201024" d="M506.106,44.707c0,1.543.14,1.824,1.263,1.824v.7h-4.911v-.842c1.263,0,1.263-.14,1.263-1.824V38.814a3.368,3.368,0,0,0-.561-2.385,1.824,1.824,0,0,0-1.4-.561c-.982,0-2.245.982-3.227,2.385v6.314c0,1.684,0,1.824,1.263,1.824v.7H494.6v-.7c1.4,0,1.544-.14,1.544-1.824V38.393c0-1.543-.14-1.824-1.544-1.824v-.7a8.84,8.84,0,0,0,3.368-1.123h.281v1.964h0a5.192,5.192,0,0,1,3.929-2.1,3.648,3.648,0,0,1,2.666.842,3.928,3.928,0,0,1,.982,3.087Z" transform="translate(198.878 10.287)" fill="#fff"/>
      <path id="パス_201025" data-name="パス 201025" d="M507.2,41.7a1.4,1.4,0,1,1-1.4,1.4A1.4,1.4,0,0,1,507.2,41.7Z" transform="translate(203.394 13.153)" fill="#fff"/>
    </g>
  </g>
</svg>
