<svg xmlns="http://www.w3.org/2000/svg" width="392.896" height="56.443" viewBox="0 0 392.896 56.443">
  <g id="アートワーク_40" data-name="アートワーク 40" transform="translate(196.448 28.221)">
    <g id="アートワーク_40-2" data-name="アートワーク 40" transform="translate(-196.448 -28.221)">
      <path id="パス_127183" data-name="パス 127183" d="M1.623,4.936a6.374,6.374,0,0,1,.464,2.55c0,1.507-.464,2.55-1.275,2.55S0,9.456,0,9.108s.116-.579.579-1.275a3.709,3.709,0,0,0,.579-2.782ZM4.752.648c.232,0,.464.116.464.348s-.232.348-.7.464V18.844l-1.854.348V.416Zm.116,3.709c.579.232,2.086.811,2.086,1.97a.927.927,0,0,1-.811.927c-.579,0-.7-.579-.7-1.159a2.9,2.9,0,0,0-.7-1.623ZM13.212.532c.116,0,.464.116.464.232s-.232.348-.7.579V2.734h2.666l1.159-1.275,1.97,1.507v.348H12.981V5.052h2.086L16.11,3.893l1.738,1.391v.348H12.981V7.6h3.245l1.043-1.159,1.738,1.391v.348H6.027L5.679,7.6h5.447V5.631H7.186l-.232-.579h4.172V3.313H6.49l-.348-.579h4.984V.3ZM9.272,14.787v3.941l-1.738.348V8.877L9.5,9.8h5.563l.579-1.043L17.385,9.92q.348.174.348.348c0,.116-.232.348-.7.579v6.606c0,.579-.116.927-1.043,1.391l-1.159.348c-.348,0-.348-.116-.464-.7s-.348-.7-1.97-.927v-.348h2.9V14.9Zm5.911-4.4H9.272v1.623h5.911Zm0,2.2H9.272v1.623h5.911Z" transform="translate(0 0.048)" fill="#fff"/>
      <path id="パス_127184" data-name="パス 127184" d="M24.643.532c.348,0,.464.232.464.348s-.348.348-.811.579V2.966h.811l.811-1.043L27.54,3.2v.348H24.295V6.211h1.391l.927-1.159,1.738,1.275V6.79H25.8l1.275.579c.116.116.348.232.348.348s-.348.348-.811.348l-.579.811-1.391,1.97H25.8l.927-1.275,1.623,1.275v.579H24.295V13.86h.927l.927-1.159,1.738,1.275v.464H24.295v4.4l-1.738.348V14.44H19.311l-.232-.579h3.477V11.31H18.848l-.232-.579h2.666a1.507,1.507,0,0,1-.464-1.159,4.056,4.056,0,0,0-.811-2.434l.348-.348c1.043.579,2.318,1.391,2.318,2.782a1.159,1.159,0,0,1-.579,1.043h1.854a26.889,26.889,0,0,0,1.159-4.056H18.732L18.5,5.979h4.056V3.545H19.427L19.2,2.966h3.361V.3Zm5.795,1.854V9.108h4.288l.7-.927,1.623,1.275c.116.116.232.232.232.348s-.348.348-.811.464a19.239,19.239,0,0,1-1.97,5.1A16.11,16.11,0,0,0,37.623,17.8v.348a1.623,1.623,0,0,0-1.391,1.159,12.517,12.517,0,0,1-2.434-2.55,9.5,9.5,0,0,1-2.782,2.55l-.348-.348A15.183,15.183,0,0,0,32.987,15.6,15.3,15.3,0,0,1,31.017,9.8h-.579v9.272l-1.738.348V.879l1.97.927h3.477l.7-1.043L36.58,1.923c.116.116.348.232.348.348s-.232.348-.811.464V6.211a1.159,1.159,0,0,1-.579,1.159,3.477,3.477,0,0,1-1.738.579c-.348,0-.348-.116-.348-.7s-.7-.7-1.623-.811V6.211h2.55V2.386Zm1.159,7.3a11.938,11.938,0,0,0,2.086,4.52,23.527,23.527,0,0,0,1.159-4.52Z" transform="translate(2.941 0.048)" fill="#fff"/>
      <path id="パス_127185" data-name="パス 127185" d="M52.778,2.866l1.043-1.275L55.676,3.1v.348H50.46V6.806l-1.854.232V6.227H47.331V8.2H51.5l.7-1.043,1.623,1.159c.116.116.348.232.348.464s-.232.348-.7.464v3.941l-1.738.232V12.6h-4.4v2.086H53.01L54.169,13.3,56.023,14.8v.464H47.331v3.709l-1.854.232V15.151H37.132l-.232-.579h8.461V12.485H41.3V13.3l-1.854.348V7.154L41.536,8.2h3.941V6.227H44.2v.7l-1.738.232V3.445H37.479l-.232-.579h5.1V.2l2.086.232c.232,0,.464.116.464.348s-.348.348-.811.579V2.866h4.52V.2l2.086.232c.116,0,.579.116.579.348s-.348.348-.811.579V2.866Zm-7.3,9.04V8.777H41.3v3.129Zm3.129-6.259v-2.2H44.2v2.2Zm3.013,6.259V8.777H47.331v3.129Z" transform="translate(5.867 0.032)" fill="#fff"/>
      <path id="パス_127186" data-name="パス 127186" d="M58.825,14.951v2.086l-1.738.348V8.113l-1.854.811L55,8.345a21.209,21.209,0,0,0,5.215-4.056A23.643,23.643,0,0,0,63.461,0l2.2.7c.348.116.579.348.579.464s-.579.348-.811.464a14.719,14.719,0,0,0,3.825,3.013,23.18,23.18,0,0,0,4.984,2.086v.464c-.7.116-.927.348-1.391,1.275a16.921,16.921,0,0,1-7.765-6.722A25.034,25.034,0,0,1,57.318,8l1.97.927h2.434L62.3,8,64.04,9.04c.232.116.348.232.348.464s-.348.348-.7.579v5.679l-1.738.348V15.067ZM61.606,9.5H58.825v4.868h2.782Zm4.172-3.245L66.706,5.1l1.738,1.275v.464H60.1V6.259Zm6.374,9.04a1.275,1.275,0,0,1-.579,1.159,4.288,4.288,0,0,1-1.507.348c-.464,0-.464-.116-.579-.7s-.7-.7-1.623-.811v-.464h2.55V9.5H67.053v9.388l-1.738.348V8l1.97.927h2.9L70.762,8,72.5,9.156q.348.174.348.348c0,.116-.348.348-.7.579Z" transform="translate(8.744 0)" fill="#fff"/>
      <path id="パス_127187" data-name="パス 127187" d="M77.429,1.2h.811c1.623,0,2.782.464,2.782,1.043l-.348.7a15.762,15.762,0,0,0-.348,3.245c0,1.623.232,1.97.464,2.2l1.391-.464,2.2-.811.811-.348.7-.348.464-.232c.232,0,1.275.927,1.391.927a1.043,1.043,0,0,1,.232.579c0,.348-.116.348-1.391.464h-.927c-.116,0-10.2,1.507-10.2,5.447a2.086,2.086,0,0,0,1.507,1.97c1.159.464,2.666.464,5.215.464a16.226,16.226,0,0,0,4.288-.348l.7-.232a2.09,2.09,0,0,1,1.391,1.391.541.541,0,0,1-.579.579,38.6,38.6,0,0,1-5.331.348c-5.215,0-8.345-.579-8.345-3.825S77.082,9.776,79.747,8.5c-.579-.579-.927-.927-.927-2.9s.116-2.2.116-2.666-.116-1.159-1.507-1.275Z" transform="translate(11.813 0.191)" fill="#fff"/>
      <path id="パス_127188" data-name="パス 127188" d="M104.451,5.7l1.159-1.391L107.58,5.7v.464h-4.868V11.61h2.434l1.159-1.391,1.854,1.507v.464H89.732L89.5,11.61h4.984V6.279H90.543L90.2,5.7h4.288V.6l2.2.232c.232,0,.579.116.579.348s-.348.464-.927.7V5.7h4.52V.6l2.2.232c.232,0,.579.116.579.348s-.348.464-.927.7V5.7Zm-6.838,8.229a.464.464,0,0,1,.348.348c0,.348-.464.348-.927.348a24.571,24.571,0,0,1-6.954,4.4l-.232-.348a20.514,20.514,0,0,0,5.911-5.911Zm3.245-2.2V6.279h-4.52v5.447Zm-.579,1.391a13.676,13.676,0,0,1,4.984,2.086c.348.232,1.97,1.391,1.97,2.666a.927.927,0,0,1-.811.927c-.464,0-.811-.348-1.391-1.159a15.3,15.3,0,0,0-2.086-2.2,12.633,12.633,0,0,0-2.9-1.854Z" transform="translate(14.229 0.095)" fill="#fff"/>
      <path id="パス_127189" data-name="パス 127189" d="M109.232,1.2a5.911,5.911,0,0,1,2.434,1.507,1.738,1.738,0,0,1,.58,1.043c0,.116,0,.232-.348.579a15.414,15.414,0,0,0-1.623,7.186,10.083,10.083,0,0,0,.232,2.086l1.97-4.056.464.232c-1.391,4.056-1.507,4.52-1.507,5.563a4.4,4.4,0,0,0,.116.927v.811a.7.7,0,0,1-.7.7c-.927,0-1.854-2.434-1.854-5.911a20.164,20.164,0,0,1,.348-3.825l.579-2.55a16.343,16.343,0,0,0,.232-2.2A1.927,1.927,0,0,0,109,1.664Zm5.1,4.4c1.507-1.275,2.9-2.318,6.954-2.318,1.623,0,2.9.116,2.9,1.275s-.348.464-1.159.579a10.779,10.779,0,0,0-4.868,2.55l-.348-.348,2.086-1.97.579-.579c-3.361,0-4.288.348-5.911,1.159Zm.579,6.259c.348,1.623.811,3.709,5.331,3.709l2.782-.232.811-.232a1.507,1.507,0,0,1,1.043,1.275.591.591,0,0,1-.464.579,12.054,12.054,0,0,1-3.013.232c-2.666,0-4.52-.116-5.795-1.507a5.911,5.911,0,0,1-1.391-3.825Z" transform="translate(17.33 0.191)" fill="#fff"/>
      <path id="パス_127190" data-name="パス 127190" d="M125.532,12a6.258,6.258,0,0,1,3.245,1.391,3.013,3.013,0,0,1,1.043,1.97,1.275,1.275,0,0,1-1.159,1.391c-.811,0-.927-.579-1.275-1.623a4.056,4.056,0,0,0-2.086-2.666Z" transform="translate(19.921 1.908)" fill="#fff"/>
      <path id="パス_127191" data-name="パス 127191" d="M142.7,17.817V18.86l-1.738.232V13.876a8.924,8.924,0,0,1-3.013,4.52l-.348-.348a9.62,9.62,0,0,0,1.391-2.434,17.27,17.27,0,0,0,.7-4.752V6.111L137.832,7.27l-.232-.348A21.789,21.789,0,0,0,142.815.2l2.2.579.348.348c0,.232-.232.232-.7.348s4.752,1.043,4.752,3.129a.811.811,0,0,1-.7.811c-.348,0-.464-.116-1.391-1.159a8.345,8.345,0,0,0-3.245-2.318L141.541,4.6h3.013l.927-1.043,1.507,1.159v.464h-5.447V4.6l-1.507,1.275,1.275.7h5.1l.579-.927,1.738,1.043a.522.522,0,0,1,.348.348c0,.116-.232.348-.7.579v4.636l-1.738.348v-.579h-5.447a7.648,7.648,0,0,1-.116.927l1.623.811h3.709l.7-1.043,1.623,1.043c.116.116.348.232.348.464s-.232.348-.7.464v3.825l-1.738.348V17.817Zm-1.275-9.04h5.331V7.038h-5.331Zm0,2.434h5.331V9.356h-5.331Zm5.331,2.9H142.7v3.013h4.056Zm5.563-11.242c.116,0,.464.116.464.232s-.232.348-.7.579V14.108l-1.738.348V2.75Zm3.593,14.256a1.623,1.623,0,0,1-.579,1.275,3.709,3.709,0,0,1-1.738.579c-.348,0-.348-.116-.464-.927s-.927-.811-1.854-.927v-.464h2.782V.664l1.97.232c.232,0,.464.116.464.232s-.232.348-.7.579Z" transform="translate(21.877 0.032)" fill="#fff"/>
      <path id="パス_127192" data-name="パス 127192" d="M171.815,4.488,172.974,3.1,174.828,4.6v.464h-5.215c.464.232.579.348.579.464s-.348.348-.7.348l-1.97,2.2H171l1.043-1.391L173.9,8.2v.464h-7.533V10.4h3.825l1.043-1.275,1.738,1.391v.464h-6.606v1.738h5.679l1.159-1.391,1.854,1.507V13.3h-8.229a16.458,16.458,0,0,0,8.229,3.593v.348a1.854,1.854,0,0,0-1.507,1.507,16.69,16.69,0,0,1-4.52-2.434,10.663,10.663,0,0,1-2.666-2.782v5.215l-1.854.348V14.224a20.166,20.166,0,0,1-8.113,4.752v-.348a20.051,20.051,0,0,0,6.606-5.331h-6.143l-.232-.579h8V10.979h-5.795L158.6,10.4h6.143V8.661h-6.838l-.232-.579h5.1a.811.811,0,0,1-.348-.579v-.7a3.94,3.94,0,0,0-.927-1.738h-4.52l-.232-.579h6.49V.2h1.854c.232,0,.579.116.579.348s-.232.348-.7.464V4.488h1.738V.2h1.854c.232,0,.464.116.464.348s-.232.348-.579.464V4.488h.927A22.831,22.831,0,0,0,170.424.548l1.97,1.043a.464.464,0,0,1,.232.348c0,.232-.348.232-.7.348L169.612,4.6ZM158.37.779c1.854.464,3.129,1.391,3.129,2.434a.927.927,0,0,1-.927.927c-.348,0-.7-.232-.927-1.043a3.361,3.361,0,0,0-1.391-1.97Zm3.593,4.288c1.623.927,1.738,1.623,1.738,2.2a1.043,1.043,0,0,1-.348.927h3.129a26.2,26.2,0,0,0,1.275-3.013Z" transform="translate(24.866 0.032)" fill="#fff"/>
      <path id="パス_127193" data-name="パス 127193" d="M179.336,1.548c.232,0,.464.116.464.348s-.232.348-.811.579v11.01l.579-.348,4.868-2.782.232.464a75.449,75.449,0,0,1-8.229,5.911c-.116.579-.116.927-.348.927s-.232-.116-.348-.348L174.7,15.456l2.318-.927V1.2Zm11.822-.116c.232,0,.464.116.464.348s-.232.348-.811.7c-.348,6.374-.579,8.229-1.623,10.663a8.693,8.693,0,0,1,3.245,2.2,3.477,3.477,0,0,1,1.159,2.434c0,.811-.348,1.391-.927,1.391s-.7-.232-.927-.927a9.388,9.388,0,0,0-2.782-4.52,8.461,8.461,0,0,1-3.709,3.361,20.167,20.167,0,0,1-7.07,2.086V18.7c10.083-2.55,10.663-6.374,10.779-17.5Zm-9.967.232c1.97.579,4.288,1.623,4.288,3.477s-.116,1.391-1.159,1.391-.811-.464-1.043-1.159a9.041,9.041,0,0,0-.927-1.97,4.868,4.868,0,0,0-1.391-1.391Z" transform="translate(27.775 0.191)" fill="#fff"/>
      <path id="パス_127194" data-name="パス 127194" d="M208.3,3.893,209.462,2.5l1.97,1.507v.464H203.9v5.795h5.331l1.159-1.507,1.97,1.507v.464h-7.881a15.183,15.183,0,0,0,8.113,5.679v.348c-.811,0-1.159.232-1.623,1.275a14.951,14.951,0,0,1-6.838-7.418v8l-1.854.348V12.353a21.789,21.789,0,0,1-3.477,3.361,22.369,22.369,0,0,1-4.752,2.666l-.232-.348a19.934,19.934,0,0,0,6.954-7.186h-6.722l-.348-.579h8.461V4.472h-7.07l-.232-.579h7.3V.3l2.086.232c.116,0,.579.116.579.348s-.348.464-.811.7V3.893ZM196.829,5.4c.811.348,3.245,1.507,3.245,3.245a1.043,1.043,0,0,1-.927,1.159c-.7,0-.927-.811-1.043-1.507a4.984,4.984,0,0,0-1.391-2.666Zm12.4.579c.232.116.464.232.464.348s-.232.348-.7.348l-1.97,2.2L205.985,9.92l-.348-.232a34.539,34.539,0,0,0,1.854-4.752Z" transform="translate(30.796 0.048)" fill="#fff"/>
      <path id="パス_127195" data-name="パス 127195" d="M223.447,1.343h-4.52V15.019H218V.3h5.447Z" transform="translate(34.659 0.048)" fill="#fff"/>
      <path id="パス_127196" data-name="パス 127196" d="M229.263,5.068l.232.348c0,.232-.348.232-.927.348a17.616,17.616,0,0,1-4.52,4.056l-.348-.348a17.269,17.269,0,0,0,3.709-5.447Zm7.649,5.679,1.854,1.275a.58.58,0,0,1,.348.464c0,.232-.464.348-1.043.348a18.661,18.661,0,0,1-3.245,2.9,21.325,21.325,0,0,0,7.881,1.623V17.7a1.854,1.854,0,0,0-1.507,1.507,18.66,18.66,0,0,1-7.649-2.782c-1.275.811-3.709,2.2-9.62,2.782v-.464l.927-.232a19.355,19.355,0,0,0,7.533-3.129,11.474,11.474,0,0,1-1.97-2.2,19.123,19.123,0,0,1-5.563,3.825l-.232-.348a19.471,19.471,0,0,0,6.49-7.3l1.97.7q.348.174.348.348c0,.116-.232.232-.811.348l-.579.579h4.172ZM234.594.548a.517.517,0,0,1,.464.348c0,.116-.232.348-.811.579V2.75h5.1l1.159-1.391,1.97,1.391v.464h-5.911V8.429c0,.927-.232,1.159-.579,1.391a3.013,3.013,0,0,1-1.275.348c-.579,0-.579-.232-.579-.464s-.348-.811-1.391-.927V8.313h2.086V3.329h-2.2a11.01,11.01,0,0,1-.7,4.056c-1.275,2.666-4.636,3.709-5.911,4.056l-.232-.464c4.52-1.97,4.868-4.172,4.984-7.649h-6.49l-.348-.579h8.461V.2Zm-3.129,11.706-.7.7a9.852,9.852,0,0,0,2.434,1.97,14.256,14.256,0,0,0,2.782-2.666Zm5.795-7.765a14.14,14.14,0,0,1,3.709,1.854c.232.232,1.391,1.159,1.391,2.2a.927.927,0,0,1-.927.927c-.579,0-.7-.232-1.391-1.623a8.808,8.808,0,0,0-3.013-3.013Z" transform="translate(35.565 0.032)" fill="#fff"/>
      <path id="パス_127197" data-name="パス 127197" d="M248.111,3.913v.811l.7-.348a1.623,1.623,0,0,1,.927.927c0,.116,0,.232-.579.579l-1.275,1.159V8.086A11.937,11.937,0,0,1,250.2,6.463,9.5,9.5,0,0,1,254.485,5.3c2.9,0,5.331,1.738,5.331,5.679a6.027,6.027,0,0,1-2.666,5.215,13.792,13.792,0,0,1-5.911,1.738v-.464c1.97-.464,6.838-1.507,6.838-6.838,0-2.782-1.623-4.4-3.941-4.4a9.62,9.62,0,0,0-6.374,2.9c0,1.854,0,3.709.116,5.563s0,1.507,0,1.738-.811,1.97-1.275,1.97-.348-.116-.464-1.159a7.185,7.185,0,0,0-1.97-3.477l-.7,1.275q-.174.348-.348.348A5.823,5.823,0,0,1,242.2,14c0-.116.116-.348.579-.811l1.507-1.738,1.854-2.318.579-.7V6.347l-1.854.927-.579.348c-.348,0-1.391-.7-1.854-2.9h.348C243.127,5.3,243.591,6,244.17,6a12.4,12.4,0,0,0,2.666-.7V3.218a5.642,5.642,0,0,0-.116-1.391,3.415,3.415,0,0,0-1.507-.579V.9h.811c1.159,0,2.9.464,2.9,1.159l-.348.579a2.086,2.086,0,0,0-.116.7Zm-1.738,6.606-1.507,2.086-.464.7,1.623,1.391.464.464Z" transform="translate(38.507 0.143)" fill="#fff"/>
      <path id="パス_127198" data-name="パス 127198" d="M262.064,4.393c2.2.811,2.434,1.854,2.434,1.97s0,.232-.464.7a7.417,7.417,0,0,0-1.043,3.709v.927a12.4,12.4,0,0,1,6.954-2.55c3.709,0,4.752,2.318,4.752,3.825s-.7,3.477-4.056,4.52a25.5,25.5,0,0,1-6.722.579v-.579c2.55-.116,9.04-.579,9.04-4.868,0-2.434-2.2-2.782-3.245-2.782s-5.563,1.507-6.143,3.361-.232.7-.7.7-1.275-.116-1.275-2.55a17.387,17.387,0,0,1,.811-4.752,4.052,4.052,0,0,0,.116-.927c0-.464-.116-.579-.7-1.043Zm7.186-2.55a2.086,2.086,0,0,1,2.2,1.507c0,.464-.348.464-.579.464h-1.391a9.967,9.967,0,0,0-3.709.927l-.232-.464,2.2-1.043c-2.086-.348-2.666-.7-3.709-2.2L264.382.8a4.057,4.057,0,0,0,2.086,1.043h2.782Z" transform="translate(41.591 0.127)" fill="#fff"/>
      <path id="パス_127199" data-name="パス 127199" d="M277.079,3.915a1.97,1.97,0,0,0,1.854,1.159l2.318-.232a12.169,12.169,0,0,0,.7-2.666c0-.579-.464-.7-1.391-.811V.9c2.2-.116,3.593.579,3.593,1.043l-.232.348a8.346,8.346,0,0,0-1.043,2.2l1.507-.464.811-.348c.116,0,1.275.579,1.275,1.159s-.579.464-.7.464l-2.318.464L282.295,6l-.927,2.318-.927,2.318-1.507,3.825-.464,1.159c-.464,1.159-.579,1.391-.927,1.391a1.552,1.552,0,0,1-1.043-1.391c0-.7.116-.348.579-1.275a74.53,74.53,0,0,0,3.593-8.229h-1.854c-.927,0-1.507-.348-2.2-2.2Zm12.865,9.851c2.318.927,4.288,1.854,4.288,3.013s-.116.811-.579.811l-.579-.232-.7-.579L290.292,15.5a2.55,2.55,0,0,1-.927,2.2,5.679,5.679,0,0,1-2.9.7c-2.666,0-4.056-1.159-4.056-2.666s.348-2.666,3.825-2.666l1.97.232a29.908,29.908,0,0,1-.464-3.825c0-1.97,1.507-2.666,3.361-2.9a10.315,10.315,0,0,0-3.709-1.738V4.495c4.636,0,6.259,1.854,6.259,3.013s-.348.7-.7.7-.232,0-.811-.464a2.086,2.086,0,0,0-1.275-.579,1.738,1.738,0,0,0-1.623,1.97,20.4,20.4,0,0,0,.579,3.941Zm-4.288.464c-.348,0-2.55,0-2.55,1.507s1.623,1.507,2.666,1.507a3.361,3.361,0,0,0,2.086-.58,1.507,1.507,0,0,0,.464-1.391c0-.116,0-.348,0-.579a8.577,8.577,0,0,0-2.55-.348Z" transform="translate(43.96 0.141)" fill="#fff"/>
      <path id="パス_127200" data-name="パス 127200" d="M294.916,1.9a5.679,5.679,0,0,1,2.666,1.623,2.086,2.086,0,0,1,.579,1.043c0,.116,0,.232-.348.579a8.113,8.113,0,0,0-1.275,4.4,6.838,6.838,0,0,0,1.507,4.52l.927-1.391,2.666-4.056.348.232-1.738,3.593A8.576,8.576,0,0,0,299.32,15c0,.232.232,1.043.232,1.159a.7.7,0,0,1-.7.811c-1.043,0-3.477-2.434-3.477-7.533a21.328,21.328,0,0,1,.232-3.013l.232-1.391a5.683,5.683,0,0,0,.116-.927A2.086,2.086,0,0,0,294.8,2.248Zm10.663,1.738c1.391.7,5.447,2.9,5.447,9.272,0,.811-.116,1.854-1.159,1.854s-.579-.348-.811-.811-1.159-1.043-3.477-1.275v-.464h3.477a10.315,10.315,0,0,0-3.825-8.229Z" transform="translate(46.869 0.302)" fill="#fff"/>
      <path id="パス_127201" data-name="パス 127201" d="M309.9,17.476h4.52V3.8h.927V18.4H309.9Z" transform="translate(49.27 0.604)" fill="#fff"/>
      <path id="パス_127202" data-name="パス 127202" d="M338.446,4.241l1.159-1.507,1.97,1.623V4.82h-8.461V9.108h3.941L338.1,7.718l2.086,1.507v.348h-15.53l-.348-.579h6.954V4.7h-8.113l-.348-.579h8.461V.3l2.434.348s.348.116.348.348-.116.232-.811.579V4.241Zm-12.4,7.649a11.017,11.017,0,0,1,.116,1.623c0,4.056-1.854,4.172-2.2,4.172a.927.927,0,0,1-1.043-.927c0-.348.116-.579.579-.927a5.066,5.066,0,0,0,2.086-3.825Zm3.825-.116a.37.37,0,0,1,.348.348c0,.232-.116.232-.7.579v3.825c0,.464.116.579.7.579h4.4c.464,0,.927-.116,1.275-1.275l.348-1.275h.464v.927c0,.232.232,1.507.927,1.738a1.623,1.623,0,0,1-1.854,1.507h-6.49c-.927,0-1.507-.232-1.507-1.391V11.542Zm.464-1.507a7.185,7.185,0,0,1,3.245,1.507,2.434,2.434,0,0,1,.811,1.623,1.043,1.043,0,0,1-1.043,1.159c-.579,0-.811-.579-1.043-1.159a4.636,4.636,0,0,0-2.2-2.666Zm6.954,1.507a9.619,9.619,0,0,1,3.477,2.55,3.362,3.362,0,0,1,.7,1.97,1.159,1.159,0,0,1-1.043,1.275.847.847,0,0,1-.811-.7l-.348-1.159a7.765,7.765,0,0,0-2.318-3.477Z" transform="translate(51.321 0.048)" fill="#fff"/>
      <path id="パス_127203" data-name="パス 127203" d="M83.647,33.343h-4.52V47.019H78.2V32.3h5.447Z" transform="translate(12.433 5.135)" fill="#fff"/>
      <path id="パス_127204" data-name="パス 127204" d="M89.363,37.068l.232.348c0,.232-.348.232-.927.348a17.5,17.5,0,0,1-4.52,4.056l-.348-.348a17.269,17.269,0,0,0,3.709-5.447Zm7.649,5.679,1.854,1.275a.579.579,0,0,1,.348.464c0,.232-.464.348-1.043.348a18.66,18.66,0,0,1-3.245,2.9,21.325,21.325,0,0,0,7.881,1.623V49.7a1.854,1.854,0,0,0-1.507,1.507,18.66,18.66,0,0,1-7.649-2.782c-1.275.811-3.709,2.2-9.62,2.782v-.464l.927-.232a19.355,19.355,0,0,0,7.533-3.129,11.474,11.474,0,0,1-1.97-2.2,19.123,19.123,0,0,1-5.563,3.825l-.232-.348a19.471,19.471,0,0,0,6.49-7.3l1.97.7q.348.174.348.348c0,.116-.232.232-.811.348l-.579.579h4.172Zm-2.318-10.2a.517.517,0,0,1,.464.348c0,.116-.232.348-.811.579V34.75h5.1l1.159-1.391,1.97,1.391v.464H96.549v5.1c0,.927-.232,1.159-.579,1.391a3.013,3.013,0,0,1-1.275.348c-.579,0-.579-.232-.579-.464s-.348-.811-1.391-.927V40.2H94.81V35.329h-2.2a11.01,11.01,0,0,1-.7,4.056c-1.275,2.666-4.636,3.709-5.911,4.056l-.232-.464c4.52-1.97,4.868-4.172,4.984-7.649H84.38l-.348-.579h8.461V32.2ZM91.565,44.253l-.7.7a9.851,9.851,0,0,0,2.434,1.97,14.256,14.256,0,0,0,2.782-2.666Zm5.795-7.765a14.139,14.139,0,0,1,3.709,1.854c.232.232,1.391,1.159,1.391,2.2a.927.927,0,0,1-.927.927c-.579,0-.7-.232-1.391-1.623a8.808,8.808,0,0,0-3.013-3.013Z" transform="translate(13.323 5.119)" fill="#fff"/>
      <path id="パス_127205" data-name="パス 127205" d="M108.295,35.929v.811l.7-.348a1.623,1.623,0,0,1,.927.927c0,.116,0,.232-.579.579l-1.275,1.159V40.1a11.938,11.938,0,0,1,2.318-1.623,9.5,9.5,0,0,1,4.288-1.159c2.9,0,5.331,1.738,5.331,5.679a6.027,6.027,0,0,1-2.666,5.215,13.792,13.792,0,0,1-5.911,1.738v-.464c1.97-.464,6.838-1.507,6.838-6.838,0-2.782-1.623-4.4-3.941-4.4a9.62,9.62,0,0,0-6.259,2.782c0,1.854,0,3.709.116,5.563s0,1.507,0,1.738-.811,1.97-1.275,1.97-.348-.116-.464-1.159a7.186,7.186,0,0,0-1.97-3.477l-.7,1.275q-.174.348-.348.348A5.823,5.823,0,0,1,102.5,45.9c0-.116.116-.348.579-.811l1.507-1.738,1.854-2.318.579-.7v-1.97l-1.854.927-.579.348c-.348,0-1.391-.7-1.854-2.9h.348c.348.579.811,1.275,1.391,1.275a12.4,12.4,0,0,0,2.666-.7V35.234a5.643,5.643,0,0,0-.116-1.391,3.415,3.415,0,0,0-1.507-.579V32.8h.811c1.159,0,2.9.464,2.9,1.159l-.348.579a2.086,2.086,0,0,0-.116.7Zm-1.738,6.722-1.623,2.086-.464.7,1.623,1.391.464.464Z" transform="translate(16.296 5.215)" fill="#fff"/>
      <path id="パス_127206" data-name="パス 127206" d="M122,33c1.738.232,3.129,1.275,3.129,2.318l-.232.348a10.315,10.315,0,0,0-1.623,5.679,11.011,11.011,0,0,0,.232,2.2c1.275-6.143,4.056-9.272,6.49-9.272s3.477,2.782,3.477,6.838S132.2,49.458,124.55,50.5v-.464c4.752-1.043,7.186-2.782,7.186-9.156,0-.579,0-3.709-.811-4.868a1.507,1.507,0,0,0-1.275-.7c-2.55,0-5.215,5.563-5.215,8.924a4.755,4.755,0,0,0,.116.811,5.02,5.02,0,0,1,.116.579.579.579,0,0,1-.7.579c-.7,0-1.854-1.159-1.854-4.52a23.76,23.76,0,0,1,.811-5.447,5.91,5.91,0,0,0,.348-1.507c0-.7-.927-1.043-1.275-1.275Z" transform="translate(19.396 5.247)" fill="#fff"/>
      <path id="パス_127207" data-name="パス 127207" d="M138.682,44.453a.348.348,0,0,1,.348.348c0,.232-.232.348-.579.464a16.11,16.11,0,0,1-2.086,5.1l-.464-.232a18.428,18.428,0,0,0,1.043-5.911Zm4.52-8a.464.464,0,0,1,.232.348c0,.348-.232.348-.811.348l-.927,1.159-2.55,2.9h2.55a4.869,4.869,0,0,0-.7-1.159l.232-.232c1.507.7,1.97,1.275,2.2,2.55l.579-.7.579-.579a2.666,2.666,0,0,0,.348-1.507h.464v.927h6.954l.579-.811,1.738,1.507a.58.58,0,0,1,.232.348c0,.348-.232.348-.811.348l-1.97,1.623-.232-.232a21.208,21.208,0,0,0,.7-2.318h-7.07c-.116,1.854-.579,2.434-1.275,2.434a.811.811,0,0,1-.811-.7c-.116.348-.348.7-.7.7a.621.621,0,0,1-.579-.579l-.232-.927-1.159.232v8.808l-1.738.348V42.483l-1.623.348c-.116.116-.232.464-.464.464s-.348-.232-.348-.464l-.579-1.623h2.318a50.419,50.419,0,0,0,2.9-5.795Zm-2.086-3.129a.464.464,0,0,1,.348.348c0,.348-.348.348-.811.348l-2.318,2.9c.7.811.811,1.159.811,1.507s-.232.927-.7.927-.7-.348-.811-.811a5.1,5.1,0,0,0-1.507-2.434l.232-.348,1.507.579a38.481,38.481,0,0,0,1.391-3.941Zm.116,10.663a3.709,3.709,0,0,1,2.318,1.623,2.2,2.2,0,0,1,.348,1.159.948.948,0,0,1-.927,1.043c-.464,0-.579-.464-.579-.811a5.8,5.8,0,0,0-.579-1.854,3.593,3.593,0,0,0-.7-.927Zm6.838-1.391c.232,0,.464.116.464.348s-.232.348-.579.464c-.232,3.593-.579,6.143-5.795,7.765v-.464c3.709-1.854,4.172-3.941,4.056-8.461Zm4.172-7.418,1.043-1.391,1.738,1.507v.348h-5.447v2.434h2.086l.927-1.275,1.738,1.391v.348H144.245l-.232-.579h3.825V35.645h-4.752l-.232-.579h4.984V32.4l2.086.232c.232,0,.464.116.464.348s-.232.348-.811.464v1.623Zm1.623,11.01h.464c0,.232-.116.811-.116,1.275s.232,1.507.811,1.738-.464,1.738-1.623,1.738h-2.434c-1.159,0-1.507-.348-1.507-1.391V42.367l1.97.232a.517.517,0,0,1,.464.348c0,.116-.232.348-.579.464v5.1c0,.348.116.579.579.579h.811c.464,0,.579-.232.927-1.391Z" transform="translate(21.606 5.151)" fill="#fff"/>
      <path id="パス_127208" data-name="パス 127208" d="M155.748,33.481c2.55.927,3.013,2.434,3.013,2.666s0,.348-.348.7A3.129,3.129,0,0,0,157.834,38a10.894,10.894,0,0,0-.927,4.636,8.692,8.692,0,0,0,.464,3.013l2.782-4.868h.348c-.7,1.391-2.086,4.52-2.086,6.259a1.74,1.74,0,0,0,0,.348v.927c0,.348-.116.927-.579.927s-2.318-2.55-2.318-6.027a32.8,32.8,0,0,1,.7-6.143,10.083,10.083,0,0,0,.348-1.854c0-.579-.348-.927-1.159-1.507Zm11.358,4.288V36.61c0-2.9,0-2.9-1.738-3.361V32.9c2.666-.116,3.709.927,3.709,1.275l-.232.579a3.013,3.013,0,0,0-.232,1.043c0,.232,0,1.507,0,1.854l1.97-.464.579-.348c.464,0,1.275.7,1.275,1.159s-.579.464-.811.579l-2.782.232v5.679a5.331,5.331,0,0,1-2.55,4.984,10.894,10.894,0,0,1-3.477,1.507l-.232-.464a8.576,8.576,0,0,0,3.709-2.9c.7-1.159.811-2.434.811-6.027v-2.55h-3.477c-1.391,0-2.086-.232-2.782-2.318l.348-.232a2.2,2.2,0,0,0,2.2,1.159l2.666-.232Z" transform="translate(24.707 5.229)" fill="#fff"/>
      <path id="パス_127209" data-name="パス 127209" d="M176.916,41.3a12.4,12.4,0,0,1,5.215-1.391c3.245,0,5.1,1.854,5.1,4.52s-3.245,5.447-6.954,5.447-4.636-1.043-4.636-2.782a2.086,2.086,0,0,1,2.318-1.97,5.8,5.8,0,0,1,3.825,1.623,2.666,2.666,0,0,1,.927,1.507,4.288,4.288,0,0,0,1.739-1.507,4.983,4.983,0,0,0,.7-2.55c0-1.854-1.043-3.477-3.709-3.477A10.779,10.779,0,0,0,173.9,44.31c-.927,1.043-1.043,1.159-1.275,1.159a1.866,1.866,0,0,1-.927-1.391.58.58,0,0,1,.348-.579l.579-.348a92.833,92.833,0,0,0,8.576-8.345l-1.043.232a11.822,11.822,0,0,0-3.593,1.043l-.579.348c-.348,0-.927-.579-1.159-.927a4.752,4.752,0,0,1-.811-1.97l.464-.232c.464.811.7,1.159,1.623,1.159h.579L180.161,34h.927l.927-.232.579-.232.7.579c.7.7.811.811.811.927s-.116.116-.464.348l-.927.579-4.288,3.941Zm.7,4.984a1.043,1.043,0,0,0-1.159.927c0,.811.927,1.738,3.245,1.738h1.738C179.35,46.4,178.075,46.281,177.611,46.281Z" transform="translate(27.298 5.294)" fill="#fff"/>
      <path id="パス_127210" data-name="パス 127210" d="M187.4,49.476h4.52V35.8h.927V50.4H187.4Z" transform="translate(29.794 5.692)" fill="#fff"/>
      <path id="パス_127211" data-name="パス 127211" d="M216.458,34.386l.811-1.275,1.738,1.391v.464h-8.461v1.623h3.477l.7-1.043,1.623,1.043c.116.116.232.232.232.348s-.116.232-.579.464v2.666l-1.738.348v-.579h-3.709v1.738H214.6l.7-.927,1.623,1.043c.116.116.348.232.348.348s-.232.348-.7.464v1.507h.348l.927-1.391,1.391,1.507v.464h-2.782V47.83l-1.854.232V47.019h-4.172v2.2c0,.811,0,1.159-.579,1.507a4.984,4.984,0,0,1-1.854.464c-.348,0-.348-.116-.464-.7s-.7-.7-2.2-.927v-.464h3.245V47.019h-6.259l-.232-.579h6.49V44.353h-8.345L200,43.774h8.577V41.92H202.55l-.348-.579h6.374V39.6H205.1v.579l-1.738.348V35.545l1.854,1.043h3.361V34.966h-8l-.348-.579h8.345V32.3l2.2.232c.116,0,.464.116.464.232s-.116.232-.811.579v.927Zm-7.649,4.752V37.052h-3.477v1.97Zm5.563,0V37.052h-3.709v1.97Zm.464,4.752V41.92h-4.172v1.854Zm-4.172.579v1.97h4.172V44.353Z" transform="translate(31.797 5.135)" fill="#fff"/>
      <path id="パス_127212" data-name="パス 127212" d="M234.73,36.488l1.159-1.391,1.854,1.507v.464h-5.215c.464.232.579.348.579.464s-.348.348-.7.348l-2.086,2.2H233.8l1.043-1.391L236.7,40.2v.464h-7.533V42.4h3.825l1.043-1.275,1.738,1.391v.464h-6.606v1.738h5.679l1.159-1.391,1.854,1.507V45.3h-8.229a16.458,16.458,0,0,0,8.229,3.593v.348a1.854,1.854,0,0,0-1.507,1.507,16.574,16.574,0,0,1-4.52-2.434,10.662,10.662,0,0,1-2.666-2.782v5.215l-1.854.348V46.224a20.167,20.167,0,0,1-8.113,4.752v-.348a20.05,20.05,0,0,0,6.606-5.331h-6.143l-.232-.579h8V42.979h-5.795l-.348-.579h6.143V40.661h-6.838l-.232-.579h5.1a.811.811,0,0,1-.348-.579v-.7a3.941,3.941,0,0,0-.927-1.738h-4.52l-.232-.579h6.49V32.2h1.854c.232,0,.579.116.579.348s-.232.348-.7.464v3.245H229.4V32.2h1.854c.232,0,.464.116.464.348s-.232.348-.579.464v3.245h.927a22.949,22.949,0,0,0,1.623-3.941l1.97,1.043a.464.464,0,0,1,.232.348c0,.232-.348.232-.7.348l-2.318,2.318Zm-13.444-3.709c1.854.464,3.129,1.391,3.129,2.434a.927.927,0,0,1-.927.927c-.348,0-.7-.232-.927-1.043a3.361,3.361,0,0,0-1.391-2.086Zm3.593,4.288c1.623.927,1.738,1.623,1.738,2.2a1.043,1.043,0,0,1-.348.927H229.4a26.657,26.657,0,0,0,1.275-3.013Z" transform="translate(34.85 5.119)" fill="#fff"/>
      <path id="パス_127213" data-name="パス 127213" d="M242.715,32.679c.348.116.579.348.579.464s-.579.348-.811.464v.232c1.854.579,3.593,1.391,3.593,2.666a.811.811,0,0,1-.7.927,1.043,1.043,0,0,1-.811-.579l-.464-.927a5.1,5.1,0,0,0-1.738-1.738,24.918,24.918,0,0,1-4.52,5.795l-.348-.232a24.107,24.107,0,0,0,3.593-7.649Zm.464,8.692h-2.086V50.76l-1.623.232v-9.62h-1.738l-.232-.579h5.447l.7-1.043,1.391.927c.116.116.464.348.464.464s-.464.464-.7.464v5.1a1.009,1.009,0,0,1-.811,1.159l-.927.232c-.348,0-.348-.116-.348-.7s-.7-.579-1.275-.7v-.348h1.738Zm-1.159-3.477.927-1.159,1.738,1.275v.348H240.05l-.232-.579Zm8,9.967c.232.232.348.348.348.464s-.579.348-.927.348a20.862,20.862,0,0,1-5.911,2.434V50.76a13.791,13.791,0,0,0,4.984-3.825Zm3.129-13.792,1.043-1.275,1.97,1.507v.348h-4.636l-.464.7L249.669,37.2H252.8l.7-.927L255,37.315c.116.116.464.348.464.464s-.464.464-.811.579v8.692l-1.738.348v-.7h-4.984v.579l-1.738.348V36.272l2.086.927h.579l.464-2.55h-3.941l-.232-.579Zm-.232,3.709h-4.984V40.1h4.984Zm0,2.782h-4.984v2.318h4.984Zm0,2.9h-4.984v2.55h4.984Zm-2.086,3.709a10.894,10.894,0,0,1,4.056,1.159c.7.464,1.159.927,1.159,1.623a.927.927,0,0,1-.811,1.043,1.159,1.159,0,0,1-.7-.348l-1.043-1.159a7.417,7.417,0,0,0-2.782-1.854Z" transform="translate(37.759 5.103)" fill="#fff"/>
      <path id="パス_127214" data-name="パス 127214" d="M260.847,37.715l.927-1.275,1.391,1.391v.464h-3.129v6.143l2.086-.464v.348l-1.159.579L258.3,46.292l-1.043.579c-.116.464-.232.7-.464.7s-.348-.232-.464-.348l-.927-1.854,2.55-.464V38.295h-2.086l-.232-.579h2.318V32.848l2.2.348c.116,0,.464.116.464.348s-.348.464-.927.7v3.477Zm7.649,7.765v.348l-1.507.579-3.941,1.507-1.159.464c-.116.348-.232.579-.348.579s-.348-.116-.348-.232l-1.043-1.738,6.374-1.043Zm-4.4-1.391v1.159l-1.623.232V38.527l1.623.927H265.6l.579-.811,1.507,1.043c.116.116.232.232.232.348s-.232.348-.579.464v3.941l-1.623.232v-.7Zm8.461-7.881.464-.579h-.348a.579.579,0,0,1-.579-.348l-.464-.7a3.825,3.825,0,0,0-1.159-1.159v-.348a4.984,4.984,0,0,1,2.318.7,1.275,1.275,0,0,1,.7,1.275h.116l1.623,1.507v.464H270a39.057,39.057,0,0,0,.811,6.838,22.364,22.364,0,0,0,1.507-4.868l1.738.7c.116,0,.464.232.464.348s-.232.348-.7.348a19.472,19.472,0,0,1-2.434,5.331,8.113,8.113,0,0,0,1.97,2.666,23.174,23.174,0,0,0,1.391-3.013h.464l-.348,1.97a5.794,5.794,0,0,0-.116,1.275,1.97,1.97,0,0,0,.7,1.623c-.464.58-.811.7-1.159.7a9,9,0,0,1-3.941-3.825,12.285,12.285,0,0,1-3.129,2.55,13.446,13.446,0,0,1-3.129,1.507l-.232-.348a14.835,14.835,0,0,0,5.911-5.1,30.134,30.134,0,0,1-1.391-8.808h-5.563l-.232-.579h5.795V32.5l1.97.232a.307.307,0,0,1,.348.348c0,.232-.348.464-.579.579v2.782Zm-6.838,3.825h-1.738V43.51h1.738Z" transform="translate(40.605 5.167)" fill="#fff"/>
    </g>
  </g>
</svg>
