<svg xmlns="http://www.w3.org/2000/svg" width="290.6" height="251.7" viewBox="0 0 290.6 251.7">
  <g id="_30年ビジョン_en" data-name="30年ビジョン_en" transform="translate(145.3 125.85)">
    <g id="グループ_89747" data-name="グループ 89747" transform="translate(-145.3 -125.85)">
      <path id="パス_208697" data-name="パス 208697" d="M145.3,1,97.9,83h94.8Z" transform="translate(0 -1)" fill="#2375cd"/>
      <g id="グループ_89742" data-name="グループ 89742" transform="translate(0 -1)" opacity="0.6">
        <path id="パス_208698" data-name="パス 208698" d="M0,252.7H290.6L243,170.2H47.6Z" fill="#2375cd"/>
      </g>
      <g id="グループ_89743" data-name="グループ 89743" transform="translate(0 -1)" opacity="0.8">
        <path id="パス_208699" data-name="パス 208699" d="M49,167.9H241.7L194,85.4H96.6Z" fill="#2375cd"/>
      </g>
      <g id="グループ_89744" data-name="グループ 89744" transform="translate(0 -1)">
        <path id="パス_208700" data-name="パス 208700" d="M107.3,49.4h2.5c2.1,0,4.1.6,4.1,3s-1.7,3.1-3.8,3.1h-.8v3.7h-2Zm2,4.5h.7c1,0,1.9-.3,1.9-1.5s-.9-1.5-1.9-1.5h-.7Z" fill="#fff"/>
        <path id="パス_208701" data-name="パス 208701" d="M115.7,48.7h1.9V53h0a2.7,2.7,0,0,1,2.3-1.1c1.7,0,2.5,1.2,2.5,2.8v4.6h-1.9v-4c0-.9,0-2.1-1.2-2.1s-1.7,1.5-1.7,2.4v3.5h-1.9Z" fill="#fff"/>
        <path id="パス_208702" data-name="パス 208702" d="M125,48.9h1.9v1.8H125Zm0,3.1h1.9v7.2H125Z" fill="#fff"/>
        <path id="パス_208703" data-name="パス 208703" d="M129.6,48.7h1.9V59.2h-1.9Z" fill="#fff"/>
        <path id="パス_208704" data-name="パス 208704" d="M137.5,51.8a3.6,3.6,0,0,1,3.8,3.8,3.8,3.8,0,0,1-7.5,0,3.6,3.6,0,0,1,3.7-3.8Zm0,6.1c1.4,0,1.8-1.3,1.8-2.5a1.8,1.8,0,1,0-3.6,0c0,1.2.4,2.5,1.8,2.5Z" fill="#fff"/>
        <path id="パス_208705" data-name="パス 208705" d="M147.7,53.5a4.6,4.6,0,0,0-1.7-.3c-.5,0-1.1.2-1.1.8s3.3.4,3.3,3-1.5,2.4-3,2.4A8.4,8.4,0,0,1,143,59V57.5a4.1,4.1,0,0,0,1.8.5c.5,0,1.2-.2,1.2-.9s-3-.5-3-3.1,1.4-2.2,2.8-2.2a8.6,8.6,0,0,1,2,.3Z" fill="#fff"/>
        <path id="パス_208706" data-name="パス 208706" d="M153.7,51.8a3.6,3.6,0,0,1,3.8,3.8,3.8,3.8,0,1,1-7.6,0,3.6,3.6,0,0,1,3.8-3.8Zm0,6.1c1.4,0,1.8-1.3,1.8-2.5a1.8,1.8,0,1,0-3.6,0c0,1.2.3,2.5,1.8,2.5Z" fill="#fff"/>
        <path id="パス_208707" data-name="パス 208707" d="M159.6,52h1.8v1h0a2.4,2.4,0,0,1,2.2-1.2c2.2,0,3,1.8,3,3.8s-.8,3.8-3.1,3.8a2.5,2.5,0,0,1-2.1-1h0v3.8h-1.9Zm1.9,3.6c0,1,.4,2.3,1.7,2.3s1.6-1.3,1.6-2.3-.3-2.3-1.6-2.3-1.7,1.2-1.7,2.2Z" fill="#fff"/>
        <path id="パス_208708" data-name="パス 208708" d="M168.9,48.7h1.9V53h0a2.7,2.7,0,0,1,2.3-1.1c1.7,0,2.5,1.2,2.5,2.8v4.6h-1.9v-4c0-.9,0-2.1-1.2-2.1s-1.7,1.5-1.7,2.4v3.5h-1.9Z" fill="#fff"/>
        <path id="パス_208709" data-name="パス 208709" d="M181.1,57.2h0l1.7-5.3h1.9L182,59.1c-.6,1.6-1,3.2-3,3.2l-1.3-.2V60.7h1a1.2,1.2,0,0,0,1.2-1.3L177.3,52h2.1Z" fill="#fff"/>
      </g>
      <g id="グループ_89745" data-name="グループ 89745" transform="translate(0 -1)">
        <path id="パス_208710" data-name="パス 208710" d="M122.4,125.9h2.4l2.9,8.9h0l2.9-8.9h2.2L129,137.2h-2.8Z" fill="#fff"/>
        <path id="パス_208711" data-name="パス 208711" d="M134.2,125.3h2.2v2.1h-2.2Zm0,3.6h2.2v8.3h-2.2Z" fill="#fff"/>
        <path id="パス_208712" data-name="パス 208712" d="M143.6,130.6a5.3,5.3,0,0,0-1.9-.4c-.6,0-1.3.2-1.3.9s3.8.5,3.8,3.5-1.7,2.7-3.5,2.7a9.7,9.7,0,0,1-2.5-.4v-1.8a4.7,4.7,0,0,0,2.1.5c.5,0,1.4-.2,1.4-1s-3.8-.5-3.8-3.5,1.6-2.6,3.3-2.6a10,10,0,0,1,2.4.3Z" fill="#fff"/>
        <path id="パス_208713" data-name="パス 208713" d="M145.9,125.3H148v2.1h-2.2Zm0,3.6H148v8.3h-2.2Z" fill="#fff"/>
        <path id="パス_208714" data-name="パス 208714" d="M154.1,128.7a4.2,4.2,0,0,1,4.4,4.4,4.4,4.4,0,0,1-8.7,0,4.2,4.2,0,0,1,4.3-4.4Zm0,7c1.7,0,2.1-1.5,2.1-2.9a2.1,2.1,0,1,0-4.2,0C152.1,134.2,152.5,135.7,154.1,135.7Z" fill="#fff"/>
        <path id="パス_208715" data-name="パス 208715" d="M160.2,128.9h2.1V130h0a3.1,3.1,0,0,1,2.7-1.3c2,0,2.8,1.4,2.8,3.3v5.3h-2.2v-4.4c0-1,0-2.4-1.4-2.4s-1.9,1.7-1.9,2.8v4.1h-2.2Z" fill="#fff"/>
      </g>
      <g id="グループ_89746" data-name="グループ 89746" transform="translate(0 -1)">
        <path id="パス_208716" data-name="パス 208716" d="M117.8,210.1a5.8,5.8,0,0,0-2.3-.5,1.6,1.6,0,0,0-1.8,1.6c0,2,4.9,1.1,4.9,4.9s-2,3.4-4.2,3.4a9.9,9.9,0,0,1-2.9-.4l.2-2a5.4,5.4,0,0,0,2.6.7c.9,0,2-.4,2-1.5s-4.9-1.3-4.9-5,2-3.4,3.9-3.4a8.5,8.5,0,0,1,2.7.4Z" fill="#fff"/>
        <path id="パス_208717" data-name="パス 208717" d="M122.1,212.6h-1.6V211h1.6v-1.7l2.2-.7V211h1.9v1.6h-1.9v3.9c0,.7.2,1.4,1,1.4l1-.2v1.7l-1.6.2a2.4,2.4,0,0,1-2.6-2.7Z" fill="#fff"/>
        <path id="パス_208718" data-name="パス 208718" d="M128.5,211h1.9v1.9h0a2.5,2.5,0,0,1,2.3-2.1h.7V213l-1-.2c-1.8,0-1.8,2.2-1.8,3.4v3.1h-2.2Z" fill="#fff"/>
        <path id="パス_208719" data-name="パス 208719" d="M135.9,211.5a7.4,7.4,0,0,1,2.9-.6c2.5,0,3.6,1,3.6,3.5v3.2a12.75,12.75,0,0,0,.1,1.9h-1.9a10.1,10.1,0,0,1-.1-1.2h0a3,3,0,0,1-2.6,1.4,2.7,2.7,0,0,1-2.9-2.5,2.4,2.4,0,0,1,1.4-2.4,6.6,6.6,0,0,1,2.8-.5h1.2c0-1.3-.6-1.8-1.9-1.8a4.4,4.4,0,0,0-2.6.9Zm2.5,6.5a1.8,1.8,0,0,0,1.5-.7,2.8,2.8,0,0,0,.5-1.7h-.9c-1,0-2.4.2-2.4,1.4s.6,1,1.4,1Z" fill="#fff"/>
        <path id="パス_208720" data-name="パス 208720" d="M146.1,212.6h-1.6V211h1.6v-1.7l2.2-.7V211h1.9v1.6h-1.9v3.9c0,.7.2,1.4,1,1.4l1-.2v1.7l-1.6.2a2.4,2.4,0,0,1-2.6-2.7Z" fill="#fff"/>
        <path id="パス_208721" data-name="パス 208721" d="M159.1,218.9a5.7,5.7,0,0,1-2.9.7,3.944,3.944,0,0,1-4.3-4.3c0-2.7,1.3-4.4,3.9-4.4s4,2.1,4,5H154a2.2,2.2,0,0,0,2.4,2.1,5.6,5.6,0,0,0,2.8-.8Zm-1.5-4.5c-.1-1.1-.5-2-1.8-2a1.9,1.9,0,0,0-1.9,2Z" fill="#fff"/>
        <path id="パス_208722" data-name="パス 208722" d="M169.9,211v7.5c0,2.3-.9,4.4-4.4,4.4a7.3,7.3,0,0,1-2.9-.6l.2-1.8a6.2,6.2,0,0,0,2.4.7c2.4,0,2.5-1.8,2.5-3.2h0a3,3,0,0,1-2.6,1.3c-2.5,0-3.4-2-3.4-4.2s1-4.3,3.5-4.3a2.8,2.8,0,0,1,2.6,1.3h0V211Zm-2.2,4.1c0-1.4-.5-2.6-1.8-2.6s-1.9,1.4-1.9,2.6.6,2.5,1.8,2.5S167.7,216.5,167.7,215.1Z" fill="#fff"/>
        <path id="パス_208723" data-name="パス 208723" d="M176.4,217.1h0l2-6.1h2.2l-3.1,8.3c-.7,1.8-1.2,3.7-3.5,3.7l-1.5-.2v-1.6h1.1a1.4,1.4,0,0,0,1.4-1.5l-3-8.7h2.4Z" fill="#fff"/>
      </g>
    </g>
  </g>
</svg>
