<svg xmlns="http://www.w3.org/2000/svg" width="95.045" height="95" viewBox="0 0 95.045 95">
  <g id="アートワーク_4" data-name="アートワーク 4" transform="translate(47.5 47.5)">
    <g id="グループ_75480" data-name="グループ 75480" transform="translate(-47.5 -47.5)">
      <path id="パス_47086" data-name="パス 47086" stroke-linecap="round" d="M78.571,86.36a46.487,46.487,0,1,1,9.563-10.165" fill="none" stroke="#0A6DD0" transform="translate(-2.318 -2.253)" stroke-linejoin="round" stroke-width="1.9" fill-rule="evenodd" opacity="0"/>
      <rect id="長方形_7400" data-name="長方形 7400" width="95" height="95" fill="none"/>
      <path id="パス_47087" data-name="パス 47087" d="M99.45,130.135l-2.09-.38a28.025,28.025,0,0,0-10.608,0L81.4,130.8V101.984l5.32-1.077a28.025,28.025,0,0,1,10.608,0l2.5.475a6.049,6.049,0,0,1,1.108.317l.665.285a1.647,1.647,0,0,1,.95.95h0l.127,1.647v26.632a15.579,15.579,0,0,1,2.438-.918l.222-.063,2.692-.507a28.026,28.026,0,0,1,10.608,0l5.352,1.045V101.952l-5.352-1.045a28.025,28.025,0,0,0-10.608,0l-2.6.7" transform="translate(-55.623 -68.607)" fill="none" stroke="#0A6DD0" stroke-linecap="round" stroke-linejoin="round" stroke-width="1.9"/>
      <line id="線_1252" data-name="線 1252" y1="29.102" transform="translate(72.263 35.688)" fill="none" stroke="#0A6DD0" stroke-linecap="round" stroke-linejoin="round" stroke-width="1.9"/>
      <path id="パス_47088" data-name="パス 47088" d="M69.8,112.7v29.1H92.125l1.393,1.013h3.167l1.3-1.013h16.435" transform="translate(-47.697 -77.012)" fill="none" stroke="#0A6DD0" stroke-linecap="round" stroke-linejoin="round" stroke-width="1.9"/>
      <path id="パス_47089" data-name="パス 47089" d="M94.3,121.168l2.217-.7a14,14,0,0,1,8.107-.032l2.438.728" transform="translate(-64.438 -81.901)" fill="none" stroke="#0A6DD0" stroke-linecap="round" stroke-linejoin="round" stroke-width="1.9"/>
      <path id="パス_47090" data-name="パス 47090" d="M94.3,132.568l2.217-.7a14,14,0,0,1,8.107-.032l2.438.728" transform="translate(-64.438 -89.691)" fill="none" stroke="#0A6DD0" stroke-linecap="round" stroke-linejoin="round" stroke-width="1.9"/>
      <path id="パス_47091" data-name="パス 47091" d="M162.7,121.168l2.217-.7a14,14,0,0,1,8.107-.032l2.438.728" transform="translate(-111.178 -81.901)" fill="none" stroke="#0A6DD0" stroke-linecap="round" stroke-linejoin="round" stroke-width="1.9"/>
      <path id="パス_47092" data-name="パス 47092" d="M162.7,132.568l2.217-.7a14,14,0,0,1,8.107-.032l2.438.728" transform="translate(-111.178 -89.691)" fill="none" stroke="#0A6DD0" stroke-linecap="round" stroke-linejoin="round" stroke-width="1.9"/>
    </g>
  </g>
</svg>
