<svg xmlns="http://www.w3.org/2000/svg" width="95.045" height="95" viewBox="0 0 95.045 95">
  <g id="アートワーク_6" data-name="アートワーク 6" transform="translate(47.5 47.5)">
    <g id="グループ_75479" data-name="グループ 75479" transform="translate(-47.5 -47.5)">
      <line id="線_1247" data-name="線 1247" x2="15.01" transform="translate(32.838 38.38)" fill="none" stroke="#0A6DD0" stroke-linecap="round" stroke-linejoin="round" stroke-width="1.9"/>
      <line id="線_1248" data-name="線 1248" x2="15.01" transform="translate(32.838 42.053)" fill="none" stroke="#0A6DD0" stroke-linecap="round" stroke-linejoin="round" stroke-width="1.9"/>
      <line id="線_1249" data-name="線 1249" x2="5.7" transform="translate(32.838 45.727)" fill="none" stroke="#0A6DD0" stroke-linecap="round" stroke-linejoin="round" stroke-width="1.9"/>
      <line id="線_1250" data-name="線 1250" x2="5.7" transform="translate(32.838 49.4)" fill="none" stroke="#0A6DD0" stroke-linecap="round" stroke-linejoin="round" stroke-width="1.9"/>
      <line id="線_1251" data-name="線 1251" x2="5.7" transform="translate(32.838 53.073)" fill="none" stroke="#0A6DD0" stroke-linecap="round" stroke-linejoin="round" stroke-width="1.9"/>
      <path id="パス_47080" data-name="パス 47080" stroke-linecap="round" d="M78.571,86.36a46.487,46.487,0,1,1,9.563-10.165" fill="none" stroke="#0A6DD0" transform="translate(-2.318 -2.253)" stroke-linejoin="round" stroke-width="1.9" fill-rule="evenodd" opacity="0"/>
      <rect id="長方形_7399" data-name="長方形 7399" width="95" height="95" fill="none"/>
      <path id="パス_47081" data-name="パス 47081" d="M112.337,138.265H90.613a1.013,1.013,0,0,1-1.013-1.013V104.413a1.013,1.013,0,0,1,1.013-1.013h21.692a1.013,1.013,0,0,1,1.013,1.013v8.233" transform="translate(-61.227 -70.657)" fill="none" stroke="#0A6DD0" stroke-linecap="round" stroke-linejoin="round" stroke-width="1.9"/>
      <path id="パス_47082" data-name="パス 47082" d="M102.6,93.25V91.413a1.013,1.013,0,0,1,1.013-1.013H125.3a1.013,1.013,0,0,1,1.013,1.013v12.35" transform="translate(-70.11 -61.773)" fill="none" stroke="#0A6DD0" stroke-linecap="round" stroke-linejoin="round" stroke-width="1.9"/>
      <path id="パス_47083" data-name="パス 47083" d="M116.2,80.25V78.413a1.013,1.013,0,0,1,1.013-1.013H138.9a1.013,1.013,0,0,1,1.013,1.013V94.88" transform="translate(-79.403 -52.89)" fill="none" stroke="#0A6DD0" stroke-linecap="round" stroke-linejoin="round" stroke-width="1.9"/>
      <path id="パス_47084" data-name="パス 47084" d="M161.237,144.632V160.5H132.8V144.632h28.437m.728-1.9H132.072A1.172,1.172,0,0,0,130.9,143.9v17.322a1.172,1.172,0,0,0,1.172,1.172h29.893a1.172,1.172,0,0,0,1.172-1.172V143.872a1.172,1.172,0,0,0-1.172-1.172Z" transform="translate(-89.448 -97.512)" fill="#0A6DD0"/>
      <circle id="楕円形_239" data-name="楕円形 239" cx="5.257" cy="5.257" r="5.257" transform="translate(52.313 49.78)" fill="none" stroke="#0A6DD0" stroke-miterlimit="10" stroke-width="1.9"/>
      <path id="パス_47085" data-name="パス 47085" d="M181.618,170.315,178.8,168.7v3.262Z" transform="translate(-122.18 -115.278)" fill="#fff" stroke="#0A6DD0" stroke-linecap="round" stroke-linejoin="round" stroke-width="1.9"/>
    </g>
  </g>
</svg>
