<svg xmlns="http://www.w3.org/2000/svg" width="95.045" height="95" viewBox="0 0 95.045 95">
  <g id="アートワーク_7" data-name="アートワーク 7" transform="translate(47.5 47.5)">
    <g id="グループ_75475" data-name="グループ 75475" transform="translate(-47.5 -47.5)">
      <path id="パス_47053" data-name="パス 47053" stroke-linecap="round" d="M78.571,86.36a46.487,46.487,0,1,1,9.563-10.165" fill="none" stroke="#0A6DD0" transform="translate(-2.318 -2.253)" stroke-linejoin="round" stroke-width="1.9" fill-rule="evenodd" opacity="0"/>
      <rect id="長方形_7394" data-name="長方形 7394" width="95" height="95" fill="none"/>
      <rect id="長方形_7395" data-name="長方形 7395" width="41.167" height="20.59" transform="translate(25.65 46.012)" stroke-width="1.9" stroke="#0A6DD0" stroke-linecap="round" stroke-linejoin="round" fill="none"/>
      <path id="パス_47054" data-name="パス 47054" d="M109.3,155.2h25.777v.982a1.963,1.963,0,0,0,1.9,1.963h1.077v8.17l-1.235.063a1.647,1.647,0,0,0-1.583,1.552" transform="translate(-74.688 -106.053)" fill="none" stroke="#0A6DD0" stroke-linecap="round" stroke-linejoin="round" stroke-width="1.9"/>
      <path id="パス_47055" data-name="パス 47055" d="M120.552,172.887H95.535V172a1.773,1.773,0,0,0-1.647-1.71l-1.488-.063v-8.55l1.235-.063A1.963,1.963,0,0,0,95.25,160.6" transform="translate(-63.14 -109.743)" fill="none" stroke="#0A6DD0" stroke-linecap="round" stroke-linejoin="round" stroke-width="1.9"/>
      <line id="線_1234" data-name="線 1234" x2="9.817" transform="translate(41.673 52.978)" fill="none" stroke="#0A6DD0" stroke-linecap="round" stroke-linejoin="round" stroke-width="1.9"/>
      <line id="線_1235" data-name="線 1235" x2="18.905" transform="translate(37.145 56.082)" fill="none" stroke="#0A6DD0" stroke-linecap="round" stroke-linejoin="round" stroke-width="1.9"/>
      <line id="線_1236" data-name="線 1236" x2="5.732" transform="translate(47.912 59.438)" fill="none" stroke="#0A6DD0" stroke-linecap="round" stroke-linejoin="round" stroke-width="1.9"/>
      <line id="線_1237" data-name="線 1237" x2="2.375" transform="translate(43.13 59.438)" fill="none" stroke="#0A6DD0" stroke-linecap="round" stroke-linejoin="round" stroke-width="1.9"/>
      <path id="パス_47056" data-name="パス 47056" d="M74.028,95.807,73.3,94.35,110.318,76.3l9.025,18.493-2.66,1.457" transform="translate(-50.088 -52.138)" fill="none" stroke="#0A6DD0" stroke-linecap="round" stroke-linejoin="round" stroke-width="1.9"/>
      <path id="パス_47057" data-name="パス 47057" d="M96.848,106.983l-.348-.665L121.738,94l.412.887a1.963,1.963,0,0,0,2.565.95l1.013-.443,3.578,7.347-1.108.6a1.647,1.647,0,0,0-.728,2.09" transform="translate(-65.942 -64.233)" fill="none" stroke="#0A6DD0" stroke-linecap="round" stroke-linejoin="round" stroke-width="1.9"/>
      <line id="線_1238" data-name="線 1238" y1="4.307" x2="8.835" transform="translate(40.66 37.113)" fill="none" stroke="#0A6DD0" stroke-linecap="round" stroke-linejoin="round" stroke-width="1.9"/>
      <line id="線_1239" data-name="線 1239" y1="5.225" x2="10.64" transform="translate(45.98 37.683)" fill="none" stroke="#0A6DD0" stroke-linecap="round" stroke-linejoin="round" stroke-width="1.9"/>
      <line id="線_1240" data-name="線 1240" y1="1.393" x2="3.008" transform="translate(53.643 41.99)" fill="none" stroke="#0A6DD0" stroke-linecap="round" stroke-linejoin="round" stroke-width="1.9"/>
    </g>
  </g>
</svg>
