<svg xmlns="http://www.w3.org/2000/svg" xmlns:xlink="http://www.w3.org/1999/xlink" width="300" height="300" viewBox="0 0 300 300">
  <defs>
    <clipPath id="clip-path">
      <rect id="長方形_7911" data-name="長方形 7911" width="300" height="300" transform="translate(-52 -56)" fill="none"/>
    </clipPath>
  </defs>
  <g id="レイヤー_2" data-name="レイヤー 2" transform="translate(52 56)">
    <g id="レイヤー_1" data-name="レイヤー 1">
      <g id="グループ_80013" data-name="グループ 80013" clip-path="url(#clip-path)">
        <path id="パス_42658" data-name="パス 42658" d="M263.05,222.29a11.47,11.47,0,1,1-11.47,11.47,11.47,11.47,0,0,1,11.47-11.47m0-1.47A12.95,12.95,0,1,0,276,233.76,12.95,12.95,0,0,0,263.05,220.82Z" transform="translate(-52 -56)"/>
        <path id="Path_2525" data-name="Path 2525" d="M265,234.64a3.5,3.5,0,0,0,3.54-3.47v-.24c0-2.63-1.59-3.88-4.85-3.88h-5.26v13.77h2v-6h2.43l.06.07,3.77,5.93h2.12l-4.06-6.14Zm-2.29-1.38h-2.29v-4.65h2.91c1.5,0,3.21.24,3.21,2.21,0,2.26-1.73,2.44-3.84,2.44" transform="translate(-52 -56)"/>
        <path id="Path_2520" data-name="Path 2520" d="M213.38,217.38H185.32V173.43c0-10.48-.19-24-14.6-24-14.61,0-16.85,11.42-16.85,23.21v44.71H125.81V127h26.94v12.35h.37a29.55,29.55,0,0,1,26.59-14.6c28.44,0,33.69,18.71,33.69,43.05ZM94.14,114.65a16.29,16.29,0,1,1,16.28-16.287A16.29,16.29,0,0,1,94.14,114.65h0m14,102.73H80.08V127h28.09ZM227.37,56H66A13.83,13.83,0,0,0,52,69.66V231.73A13.83,13.83,0,0,0,66,245.4H227.37a13.87,13.87,0,0,0,14-13.67V69.65a13.85,13.85,0,0,0-14-13.65" transform="translate(-52 -56)"/>
      </g>
    </g>
  </g>
</svg>
