<svg xmlns="http://www.w3.org/2000/svg" xmlns:xlink="http://www.w3.org/1999/xlink" width="48" height="48" viewBox="0 0 48 48">
  <defs>
    <clipPath id="clip-path">
      <rect id="長方形_7928" data-name="長方形 7928" width="48" height="48" fill="none"/>
    </clipPath>
  </defs>
  <g id="twitter_bird_bk" transform="translate(24 24)">
    <g id="twitter_bird_bk-2" data-name="twitter_bird_bk" transform="translate(-24 -24)" clip-path="url(#clip-path)">
      <path id="パス_42683" data-name="パス 42683" d="M61.535,95.729c11.926,0,18.442-9.887,18.442-18.442q0-.417-.016-.835A13.194,13.194,0,0,0,83.188,73.1a12.937,12.937,0,0,1-3.724,1.027,6.5,6.5,0,0,0,2.857-3.6A12.986,12.986,0,0,1,78.212,72.1a6.485,6.485,0,0,0-11.043,5.907A18.41,18.41,0,0,1,53.8,71.236a6.485,6.485,0,0,0,2.006,8.651,6.436,6.436,0,0,1-2.937-.819v.08a6.485,6.485,0,0,0,5.2,6.356,6.468,6.468,0,0,1-2.921.112,6.484,6.484,0,0,0,6.051,4.51A13.017,13.017,0,0,1,53.141,92.9a13.2,13.2,0,0,1-1.541-.1,18.362,18.362,0,0,0,9.935,2.921" transform="translate(-43.318 -58.812)"/>
    </g>
  </g>
</svg>
