<svg xmlns="http://www.w3.org/2000/svg" width="95.045" height="95" viewBox="0 0 95.045 95">
  <g id="アートワーク_5" data-name="アートワーク 5" transform="translate(47.5 47.5)">
    <g id="グループ_75481" data-name="グループ 75481" transform="translate(-47.5 -47.5)">
      <path id="パス_47093" data-name="パス 47093" d="M143.747,179v6.048c0,.728-4.085,3.452-8.423,3.452s-8.423-2.723-8.423-3.452V179c0-2.723,1.932-3.23,4.5-3.832a1.013,1.013,0,0,1,1.013.19l.317.222a4.94,4.94,0,0,0,5.13,0l.348-.222a1.013,1.013,0,0,1,1.013-.19C141.783,175.675,143.747,176.245,143.747,179Z" transform="translate(-86.715 -119.657)" fill="none" stroke="#237cd5" stroke-linecap="round" stroke-linejoin="round" stroke-width="1.9"/>
      <path id="パス_47094" data-name="パス 47094" d="M147.827,138.772c0,2.66-2.153,6.46-4.813,6.46s-4.813-3.8-4.813-6.46a4.816,4.816,0,1,1,9.627,0Z" transform="translate(-94.437 -91.43)" fill="none" stroke="#237cd5" stroke-linecap="round" stroke-linejoin="round" stroke-width="1.9"/>
      <path id="パス_47095" data-name="パス 47095" d="M125,119.479c.76-.982,2.185-1.33,3.863-1.71a1.013,1.013,0,0,1,1.013.19l.317.222a4.94,4.94,0,0,0,5.13,0l.348-.222a1.013,1.013,0,0,1,1.013-.19c2.6.507,4.56,1.108,4.56,3.832v6.017" transform="translate(-85.417 -80.434)" fill="none" stroke="#237cd5" stroke-linecap="round" stroke-linejoin="round" stroke-width="1.9"/>
      <path id="パス_47096" data-name="パス 47096" d="M143.927,81.372c0,2.66-2.153,6.46-4.813,6.46s-4.813-3.8-4.813-6.46a4.816,4.816,0,1,1,9.627,0Z" transform="translate(-91.772 -52.207)" fill="none" stroke="#237cd5" stroke-linecap="round" stroke-linejoin="round" stroke-width="1.9"/>
      <path id="パス_47097" data-name="パス 47097" d="M90.848,176.094a12.285,12.285,0,0,1-3.325.475c-4.338,0-8.423-2.723-8.423-3.452V167.1c0-2.723,1.932-3.23,4.5-3.832a1.013,1.013,0,0,1,1.013.19l.317.222a4.94,4.94,0,0,0,5.13,0l.348-.222a1.013,1.013,0,0,1,1.013-.19c1.615.317,2.977.665,3.8,1.552" transform="translate(-54.052 -111.525)" fill="none" stroke="#237cd5" stroke-linecap="round" stroke-linejoin="round" stroke-width="1.9"/>
      <path id="パス_47098" data-name="パス 47098" d="M99.927,126.872c0,2.66-2.153,6.46-4.813,6.46s-4.813-3.8-4.813-6.46a4.816,4.816,0,1,1,9.627,0Z" transform="translate(-61.705 -83.298)" fill="none" stroke="#237cd5" stroke-linecap="round" stroke-linejoin="round" stroke-width="1.9"/>
      <path id="パス_47099" data-name="パス 47099" d="M173.7,157.4c0-2.723,1.932-3.23,4.5-3.832a1.013,1.013,0,0,1,1.013.19l.317.222a4.94,4.94,0,0,0,5.13,0l.348-.222a1.013,1.013,0,0,1,1.013-.19c2.6.507,4.56,1.108,4.56,3.832v6.048c0,.728-4.085,3.452-8.423,3.452a12.192,12.192,0,0,1-3.167-.443" transform="translate(-118.695 -104.897)" fill="none" stroke="#237cd5" stroke-linecap="round" stroke-linejoin="round" stroke-width="1.9"/>
      <path id="パス_47100" data-name="パス 47100" d="M194.627,117.172c0,2.66-2.153,6.46-4.813,6.46s-4.813-3.8-4.813-6.46a4.816,4.816,0,1,1,9.627,0Z" transform="translate(-126.417 -76.67)" fill="none" stroke="#237cd5" stroke-linecap="round" stroke-linejoin="round" stroke-width="1.9"/>
      <path id="パス_47101" data-name="パス 47101" stroke-linecap="round" d="M78.571,86.36a46.487,46.487,0,1,1,9.563-10.165" fill="none" stroke="#237cd5" transform="translate(-2.318 -2.253)" stroke-linejoin="round" stroke-width="1.9" fill-rule="evenodd" opacity="0"/>
      <rect id="長方形_7401" data-name="長方形 7401" width="95" height="95" fill="none"/>
    </g>
  </g>
</svg>
