<svg id="グループ_10441" data-name="グループ 10441" xmlns="http://www.w3.org/2000/svg" width="65" height="65" viewBox="0 0 65 65">
  <path id="パス_3986" data-name="パス 3986" d="M99.25,136.3a1.95,1.95,0,1,1-1.95,1.95,1.95,1.95,0,0,1,1.95-1.95m0-1.3a3.25,3.25,0,1,0,3.25,3.25A3.25,3.25,0,0,0,99.25,135Z" transform="translate(-75.2 -105.75)"/>
  <path id="パス_3987" data-name="パス 3987" d="M138.25,136.3a1.95,1.95,0,1,1-1.95,1.95,1.95,1.95,0,0,1,1.95-1.95m0-1.3a3.25,3.25,0,1,0,3.25,3.25A3.25,3.25,0,0,0,138.25,135Z" transform="translate(-105.75 -105.75)"/>
  <path id="パス_3988" data-name="パス 3988" d="M176.25,136.3a1.95,1.95,0,1,1-1.95,1.95,1.95,1.95,0,0,1,1.95-1.95m0-1.3a3.25,3.25,0,1,0,3.25,3.25A3.25,3.25,0,0,0,176.25,135Z" transform="translate(-135.517 -105.75)"/>
  <rect id="長方形_5168" data-name="長方形 5168" width="65" height="65" fill="none"/>
</svg>
