<svg xmlns="http://www.w3.org/2000/svg" width="16" height="16" viewBox="0 0 16 16">
  <g id="icon_pdf" transform="translate(8 8)">
    <g id="グループ_75716" data-name="グループ 75716" transform="translate(-8 -8)">
      <path id="パス_36789" data-name="パス 36789" d="M26.333,27.613H14.28A1.28,1.28,0,0,1,13,26.333V14.28A1.28,1.28,0,0,1,14.28,13h8.533l4.8,4.8v8.533A1.28,1.28,0,0,1,26.333,27.613Z" transform="translate(-12.307 -12.307)" fill="#fa897f"/>
      <g id="グループ_75715" data-name="グループ 75715" transform="translate(2.133 5.6)">
        <path id="パス_36790" data-name="パス 36790" d="M40.987,108.1v1.691H40v-4.8h1.872a2.165,2.165,0,0,1,.949.2,1.456,1.456,0,0,1,.629.56,1.568,1.568,0,0,1,.219.827,1.384,1.384,0,0,1-.485,1.115,1.988,1.988,0,0,1-1.339.405Zm0-.8h.885a.853.853,0,0,0,.6-.187.7.7,0,0,0,.208-.528.789.789,0,0,0-.208-.571.773.773,0,0,0-.576-.224h-.907Z" transform="translate(-40 -104.991)" fill="#fff"/>
        <path id="パス_36791" data-name="パス 36791" d="M119.1,109.794v-4.8h1.477a2.245,2.245,0,0,1,1.131.283,1.989,1.989,0,0,1,.779.811,2.5,2.5,0,0,1,.283,1.195v.219a2.507,2.507,0,0,1-.277,1.189,1.973,1.973,0,0,1-.779.805,2.261,2.261,0,0,1-1.125.3Zm.987-4V109h.48a1.068,1.068,0,0,0,.885-.379,1.736,1.736,0,0,0,.315-1.083v-.256a1.741,1.741,0,0,0-.3-1.109,1.068,1.068,0,0,0-.885-.379Z" transform="translate(-114.881 -104.993)" fill="#fff"/>
        <path id="パス_36792" data-name="パス 36792" d="M204.285,107.837h-1.9V109.8H201.4V105h3.125v.8h-2.139v1.237h1.9Z" transform="translate(-192.792 -105)" fill="#fff"/>
      </g>
      <rect id="長方形_7625" data-name="長方形 7625" width="16" height="16" fill="none"/>
    </g>
  </g>
</svg>
