<svg xmlns="http://www.w3.org/2000/svg" xmlns:xlink="http://www.w3.org/1999/xlink" width="24" height="24" viewBox="0 0 24 24">
  <defs>
    <clipPath id="clip-path">
      <rect id="長方形_7857" data-name="長方形 7857" width="24" height="24" fill="none"/>
    </clipPath>
  </defs>
  <g id="youtube_bk" transform="translate(12 12)">
    <g id="youtube_bk-2" data-name="youtube_bk" transform="translate(-12 -12)" clip-path="url(#clip-path)">
      <g id="_Group_" data-name="&lt;Group&gt;" transform="translate(2.92 5.6)">
        <path id="_Path_" data-name="&lt;Path&gt;" d="M54.284,72a2.28,2.28,0,0,0-1.608-1.616A53.648,53.648,0,0,0,45.58,70a53.648,53.648,0,0,0-7.1.384A2.28,2.28,0,0,0,36.876,72a25.932,25.932,0,0,0,0,8.8,2.28,2.28,0,0,0,1.608,1.616,53.648,53.648,0,0,0,7.1.384,53.648,53.648,0,0,0,7.1-.384A2.28,2.28,0,0,0,54.284,80.8a25.933,25.933,0,0,0,0-8.8Z" transform="translate(-36.5 -70)"/>
        <path id="_Path_2" data-name="&lt;Path&gt;" d="M126.8,121.608l4.744-2.7-4.744-2.7Z" transform="translate(-119.576 -112.504)" fill="#fff"/>
      </g>
    </g>
  </g>
</svg>
