<svg xmlns="http://www.w3.org/2000/svg" width="65" height="65.001" viewBox="0 0 65 65.001">
  <g id="グループ_77189" data-name="グループ 77189" transform="translate(-704.562 -257.952)">
    <g id="グループ_9697" data-name="グループ 9697" transform="translate(723.327 276.738)">
      <path id="パス_1906" data-name="パス 1906" d="M757.444,325.841l-1.926-1.908,1.908-1.926a.542.542,0,0,0-.77-.763l-2.29,2.311a.542.542,0,0,0,0,.767l2.311,2.29a.542.542,0,1,0,.763-.77Z" transform="translate(-740.568 -299.341)" fill="#fff"/>
      <path id="パス_1907" data-name="パス 1907" d="M756.839,318.505h9.323a2.676,2.676,0,0,0,1.945-.825,2.726,2.726,0,0,0,.76-1.881,2.691,2.691,0,0,0-.349-1.321l-2.776-4.939-.357-.634-1.361-2.422a.542.542,0,1,0-.945.531l1.361,2.422.357.634,2.775,4.939a1.6,1.6,0,0,1,.21.79,1.645,1.645,0,0,1-.458,1.13,1.586,1.586,0,0,1-1.163.492h-9.323a.542.542,0,0,0,0,1.084Z" transform="translate(-741.398 -293.425)" fill="#fff"/>
      <path id="パス_1908" data-name="パス 1908" d="M736.222,306.271l2.616-.713.713,2.615a.542.542,0,0,0,1.046-.285l-.856-3.139a.542.542,0,0,0-.666-.381l-3.139.857a.542.542,0,1,0,.285,1.046Z" transform="translate(-733.143 -292.687)" fill="#fff"/>
      <path id="パス_1909" data-name="パス 1909" d="M736.59,306.477l-4.661,8.074a2.691,2.691,0,0,0-.366,1.348,2.726,2.726,0,0,0,.749,1.869,2.675,2.675,0,0,0,1.925.837h0l8.632-.023a.542.542,0,1,0,0-1.084l-8.628.023,0,.542.006-.542a1.588,1.588,0,0,1-1.151-.5,1.647,1.647,0,0,1-.452-1.123,1.6,1.6,0,0,1,.221-.806l4.661-8.074a.542.542,0,0,0-.939-.542Z" transform="translate(-731.563 -293.426)" fill="#fff"/>
      <path id="パス_1910" data-name="パス 1910" d="M764,297.127l-.69,2.621-2.622-.69a.542.542,0,0,0-.276,1.049l3.147.828a.542.542,0,0,0,.662-.386l.828-3.146a.542.542,0,1,0-1.049-.276Z" transform="translate(-742.875 -289.655)" fill="#fff"/>
      <path id="パス_1911" data-name="パス 1911" d="M756.475,294.414l-4.661-8.074a2.7,2.7,0,0,0-4.665-.028l-4.7,7.933a.542.542,0,0,0,.933.553l4.7-7.932a1.619,1.619,0,0,1,2.794.016l4.661,8.074a.542.542,0,0,0,.939-.542Z" transform="translate(-735.86 -284.989)" fill="#fff"/>
    </g>
    <path id="パス_1912" data-name="パス 1912" d="M756.409,315.09a31.3,31.3,0,1,1,6.441-6.849l.966.668a32.508,32.508,0,1,0-6.68,7.1l-.726-.923Z" fill="#fff" opacity="0"/>
  </g>
</svg>
