<svg xmlns="http://www.w3.org/2000/svg" xmlns:xlink="http://www.w3.org/1999/xlink" width="36" height="36" viewBox="0 0 36 36">
  <defs>
    <clipPath id="clip-path">
      <rect id="長方形_8978" data-name="長方形 8978" width="36" height="36" fill="none"/>
    </clipPath>
  </defs>
  <g id="twitter_bird_bk" transform="translate(18 18)">
    <g id="グループ_77190" data-name="グループ 77190" transform="translate(-18 -18)" clip-path="url(#clip-path)">
      <path id="パス_64146" data-name="パス 64146" d="M59.028,89.25A13.7,13.7,0,0,0,72.816,75.462q0-.312-.012-.624a9.864,9.864,0,0,0,2.412-2.508,9.672,9.672,0,0,1-2.784.768,4.86,4.86,0,0,0,2.136-2.688A9.708,9.708,0,0,1,71.5,71.586,4.848,4.848,0,0,0,63.24,76a13.764,13.764,0,0,1-10-5.064,4.848,4.848,0,0,0,1.5,6.468,4.812,4.812,0,0,1-2.2-.612c0,.024,0,.036,0,.06a4.848,4.848,0,0,0,3.888,4.752,4.836,4.836,0,0,1-2.184.084,4.848,4.848,0,0,0,4.524,3.372,9.732,9.732,0,0,1-6.024,2.076,9.865,9.865,0,0,1-1.152-.072,13.728,13.728,0,0,0,7.428,2.184" transform="translate(-45.408 -61.65)"/>
    </g>
  </g>
</svg>
