<svg xmlns="http://www.w3.org/2000/svg" width="65.031" height="65" viewBox="0 0 65.031 65">
  <g id="icon_kessan_release" data-name="icon_kessan release" transform="translate(32.5 32.5)">
    <g id="icon_kessan_release-2" data-name="icon_kessan release" transform="translate(-32.5 -32.5)">
      <path id="パス_46786" data-name="パス 46786" d="M120.623,115.547H107.71a.91.91,0,0,1-.91-.91V90.11a.91.91,0,0,1,.91-.91h18.2a.91.91,0,0,1,.91.91v19.543" transform="translate(-83.66 -69.873)" fill="none" stroke="#333" stroke-linecap="round" stroke-linejoin="round" stroke-width="1.3"/>
      <line id="線_980" data-name="線 980" x2="12.502" transform="translate(27.019 34.645)" fill="none" stroke="#333" stroke-linecap="round" stroke-linejoin="round" stroke-width="1.3"/>
      <line id="線_981" data-name="線 981" x2="12.502" transform="translate(27.019 31.655)" fill="none" stroke="#333" stroke-linecap="round" stroke-linejoin="round" stroke-width="1.3"/>
      <line id="線_982" data-name="線 982" x2="3.553" transform="translate(35.967 28.687)" fill="none" stroke="#333" stroke-linecap="round" stroke-linejoin="round" stroke-width="1.3"/>
      <line id="線_983" data-name="線 983" x2="3.553" transform="translate(35.967 25.957)" fill="none" stroke="#333" stroke-linecap="round" stroke-linejoin="round" stroke-width="1.3"/>
      <line id="線_984" data-name="線 984" x2="3.553" transform="translate(35.967 23.14)" fill="none" stroke="#333" stroke-linecap="round" stroke-linejoin="round" stroke-width="1.3"/>
      <line id="線_985" data-name="線 985" x2="8.84" transform="translate(27.019 37.635)" fill="none" stroke="#333" stroke-linecap="round" stroke-linejoin="round" stroke-width="1.3"/>
      <line id="線_986" data-name="線 986" x2="6.955" transform="translate(27.019 40.625)" fill="none" stroke="#333" stroke-linecap="round" stroke-linejoin="round" stroke-width="1.3"/>
      <line id="線_987" data-name="線 987" x1="5.893" y2="5.698" transform="translate(37.245 39.802)" fill="none" stroke="#333" stroke-linecap="round" stroke-linejoin="round" stroke-width="1.3"/>
      <path id="パス_46787" data-name="パス 46787" d="M176.853,183.6h-4.182a1.972,1.972,0,0,0-1.972,1.972v3.9" transform="translate(-133.715 -143.82)" fill="none" stroke="#333" stroke-linecap="round" stroke-linejoin="round" stroke-width="1.3"/>
      <path id="パス_46788" data-name="パス 46788" stroke-linecap="round" d="M54.831,60.13a31.807,31.807,0,1,1,6.543-6.955" fill="none" stroke="#333" transform="translate(-2.657 -2.583)" stroke-linejoin="round" stroke-width="1.3" fill-rule="evenodd" opacity="0"/>
      <rect id="長方形_7219" data-name="長方形 7219" width="65" height="65" transform="translate(0 0)" fill="none"/>
      <rect id="長方形_7220" data-name="長方形 7220" width="5.612" height="5.616" transform="translate(26.975 22.945)" stroke-width="1.3" stroke="#333" stroke-linecap="round" stroke-linejoin="round" fill="none"/>
    </g>
  </g>
</svg>
