<svg xmlns="http://www.w3.org/2000/svg" width="16" height="16" viewBox="0 0 16 16">
  <g id="icon_xls" transform="translate(8 8)">
    <g id="グループ_75234" data-name="グループ 75234" transform="translate(-8 -8)">
      <path id="パス_36358" data-name="パス 36358" d="M26.333,27.613H14.28A1.28,1.28,0,0,1,13,26.333V14.28A1.28,1.28,0,0,1,14.28,13h8.533l4.8,4.8v8.533A1.28,1.28,0,0,1,26.333,27.613Z" transform="translate(-12.307 -12.307)" fill="#91d665"/>
      <rect id="長方形_7334" data-name="長方形 7334" width="16" height="16" fill="none"/>
      <g id="グループ_75233" data-name="グループ 75233" transform="translate(2.272 5.546)">
        <path id="パス_36359" data-name="パス 36359" d="M44.664,106.848l.9-1.648h1.131L45.3,107.568l1.429,2.411H45.581l-.917-1.675-.917,1.675H42.6l1.429-2.405L42.637,105.2h1.131Z" transform="translate(-42.6 -105.136)" fill="#fff"/>
        <path id="パス_36360" data-name="パス 36360" d="M130.281,109.184h2.091v.789H129.3V105.2h.981Z" transform="translate(-124.676 -105.136)" fill="#fff"/>
        <path id="パス_36361" data-name="パス 36361" d="M191.373,107.584a.507.507,0,0,0-.2-.427,2.584,2.584,0,0,0-.709-.315,5.02,5.02,0,0,1-.811-.325,1.331,1.331,0,0,1-.811-1.189,1.152,1.152,0,0,1,.219-.688,1.424,1.424,0,0,1,.624-.475,2.357,2.357,0,0,1,.917-.171,2.149,2.149,0,0,1,.912.187,1.451,1.451,0,0,1,.624.523,1.371,1.371,0,0,1,.224.768h-.992a.653.653,0,0,0-.208-.512.821.821,0,0,0-.581-.181.89.89,0,0,0-.56.155.48.48,0,0,0-.2.4.456.456,0,0,0,.235.389,2.749,2.749,0,0,0,.688.293,2.974,2.974,0,0,1,1.221.624,1.248,1.248,0,0,1,.384.933,1.146,1.146,0,0,1-.469.971,2.064,2.064,0,0,1-1.253.357,2.437,2.437,0,0,1-1-.2,1.589,1.589,0,0,1-.688-.555,1.413,1.413,0,0,1-.24-.816h.987q0,.789.944.789a.917.917,0,0,0,.549-.144A.464.464,0,0,0,191.373,107.584Z" transform="translate(-180.903 -103.995)" fill="#fff"/>
      </g>
    </g>
  </g>
</svg>
