<svg xmlns="http://www.w3.org/2000/svg" width="65" height="65" viewBox="0 0 65 65">
  <g id="グループ_77186" data-name="グループ 77186" transform="translate(-921.854 -86.411)">
    <g id="グループ_9693" data-name="グループ 9693" transform="translate(944.939 105.903)">
      <path id="パス_1863" data-name="パス 1863" d="M968.718,138.466H954.429V116.752h16.962v22.18a.467.467,0,1,0,.933,0V116.286a.466.466,0,0,0-.467-.467h-17.9a.466.466,0,0,0-.467.467v22.647a.466.466,0,0,0,.467.467h14.755a.467.467,0,1,0,0-.933Z" transform="translate(-953.496 -113.384)" fill="#fff"/>
      <path id="パス_1864" data-name="パス 1864" d="M964.788,154.566v-4.535h6.144v3.12a.467.467,0,0,0,.933,0v-3.587a.466.466,0,0,0-.467-.467h-7.077a.466.466,0,0,0-.467.467v5a.467.467,0,0,0,.933,0Z" transform="translate(-958.485 -129.412)" fill="#fff"/>
      <path id="パス_1865" data-name="パス 1865" d="M971.663,114.015v-.467h-11.93v-1.493H971.2v1.96h.467v0h.467v-2.427a.466.466,0,0,0-.467-.467h-12.4a.467.467,0,0,0-.467.467v2.427a.466.466,0,0,0,.467.467h12.4a.466.466,0,0,0,.467-.467Z" transform="translate(-956.051 -111.122)" fill="#fff"/>
      <path id="パス_1866" data-name="パス 1866" d="M959.318,122.44v-.949h.949a.466.466,0,1,0,0-.933h-1.416a.467.467,0,0,0-.467.467v1.416a.467.467,0,0,0,.933,0Z" transform="translate(-955.851 -115.667)" fill="#fff"/>
      <path id="パス_1867" data-name="パス 1867" d="M965.755,122.44v-.949h.949a.466.466,0,1,0,0-.933h-1.415a.466.466,0,0,0-.467.467v1.416a.467.467,0,0,0,.933,0Z" transform="translate(-958.951 -115.667)" fill="#fff"/>
      <path id="パス_1868" data-name="パス 1868" d="M959.318,128.486v-.949h.949a.467.467,0,1,0,0-.933h-1.416a.467.467,0,0,0-.467.467v1.416a.467.467,0,1,0,.933,0Z" transform="translate(-955.851 -118.578)" fill="#fff"/>
      <path id="パス_1869" data-name="パス 1869" d="M965.755,128.486v-.949h.949a.467.467,0,1,0,0-.933h-1.415a.466.466,0,0,0-.467.467v1.416a.467.467,0,1,0,.933,0Z" transform="translate(-958.951 -118.578)" fill="#fff"/>
      <path id="パス_1870" data-name="パス 1870" d="M959.318,134.533v-.949h.949a.467.467,0,1,0,0-.933h-1.416a.466.466,0,0,0-.467.467v1.415a.467.467,0,0,0,.933,0Z" transform="translate(-955.851 -121.491)" fill="#fff"/>
      <path id="パス_1871" data-name="パス 1871" d="M965.755,134.533v-.949h.949a.467.467,0,1,0,0-.933h-1.415a.466.466,0,0,0-.467.467v1.415a.467.467,0,0,0,.933,0Z" transform="translate(-958.951 -121.491)" fill="#fff"/>
      <path id="パス_1872" data-name="パス 1872" d="M959.318,140.579v-.949h.949a.467.467,0,1,0,0-.933h-1.416a.467.467,0,0,0-.467.467v1.416a.467.467,0,0,0,.933,0Z" transform="translate(-955.851 -124.403)" fill="#fff"/>
      <path id="パス_1873" data-name="パス 1873" d="M965.755,140.579v-.949h.949a.467.467,0,1,0,0-.933h-1.415a.466.466,0,0,0-.467.467v1.416a.467.467,0,0,0,.933,0Z" transform="translate(-958.951 -124.403)" fill="#fff"/>
      <path id="パス_1874" data-name="パス 1874" d="M972.264,122.44v-.949h.949a.466.466,0,1,0,0-.933H971.8a.467.467,0,0,0-.467.467v1.416a.467.467,0,1,0,.933,0Z" transform="translate(-962.086 -115.667)" fill="#fff"/>
      <path id="パス_1875" data-name="パス 1875" d="M978.7,122.44v-.949h.949a.466.466,0,1,0,0-.933h-1.415a.467.467,0,0,0-.466.467v1.416a.467.467,0,1,0,.933,0Z" transform="translate(-965.185 -115.667)" fill="#fff"/>
      <path id="パス_1876" data-name="パス 1876" d="M972.264,128.486v-.949h.949a.467.467,0,1,0,0-.933H971.8a.467.467,0,0,0-.467.467v1.416a.467.467,0,1,0,.933,0Z" transform="translate(-962.086 -118.578)" fill="#fff"/>
      <path id="パス_1877" data-name="パス 1877" d="M978.7,128.486v-.949h.949a.467.467,0,1,0,0-.933h-1.415a.467.467,0,0,0-.466.467v1.416a.467.467,0,1,0,.933,0Z" transform="translate(-965.185 -118.578)" fill="#fff"/>
      <path id="パス_1878" data-name="パス 1878" d="M972.264,134.533v-.949h.949a.467.467,0,1,0,0-.933H971.8a.466.466,0,0,0-.467.467v1.415a.467.467,0,1,0,.933,0Z" transform="translate(-962.086 -121.491)" fill="#fff"/>
      <path id="パス_1879" data-name="パス 1879" d="M978.7,134.533v-.949h.949a.467.467,0,1,0,0-.933h-1.415a.466.466,0,0,0-.466.467v1.415a.467.467,0,1,0,.933,0Z" transform="translate(-965.185 -121.491)" fill="#fff"/>
      <path id="パス_1880" data-name="パス 1880" d="M972.264,140.579v-.949h.949a.467.467,0,1,0,0-.933H971.8a.467.467,0,0,0-.467.467v1.416a.467.467,0,1,0,.933,0Z" transform="translate(-962.086 -124.403)" fill="#fff"/>
      <path id="パス_1881" data-name="パス 1881" d="M978.7,140.579v-.949h.949a.467.467,0,1,0,0-.933h-1.415a.467.467,0,0,0-.466.467v1.416a.467.467,0,1,0,.933,0Z" transform="translate(-965.185 -124.403)" fill="#fff"/>
    </g>
    <path id="パス_1882" data-name="パス 1882" d="M973.7,143.549a31.3,31.3,0,1,1,6.441-6.849l.966.668a32.507,32.507,0,1,0-6.68,7.1l-.726-.923Z" transform="translate(0)" fill="#fff" opacity="0"/>
  </g>
</svg>
