<svg id="グループ_78461" data-name="グループ 78461" xmlns="http://www.w3.org/2000/svg" width="276.685" height="42.78" viewBox="0 0 276.685 42.78">
  <path id="パス_87899" data-name="パス 87899" d="M36.057,63.8l.866-1.039,1.559,1.212v.26h-3.2v5.369l-1.386.26V68.48h-2.6v1.732l-1.386.26V64.236H27.484V71.77h8.054l.953-1.126,1.645,1.212V72.2H27.484v1.386l-1.472.26V64.236H23.76L23.5,63.8h2.511v-4.33l1.732.173c.173,0,.433.087.433.26s-.26.26-.693.433v3.377h2.338V59.3l1.732.173c.173,0,.433.087.433.26s-.26.26-.693.433V63.8h2.6v-4.33l1.732.173c.173,0,.346.087.346.26s-.26.26-.693.433V63.8Zm-2.165,4.243v-3.81h-2.6v3.81Z" transform="translate(-23.5 -58.954)"/>
  <path id="パス_87900" data-name="パス 87900" d="M48.051,65.335v.52l-1.386.173V59.1l1.732.866h7.188l.52-.866,1.212.866c.087.087.346.26.346.346s-.346.346-.52.433v4.936l-1.386.173v-.52H53.247c1.732,1.645,3.377,2.425,6.408,3.118V68.8c-.606.173-.866.346-1.126,1.126a11.951,11.951,0,0,1-3.551-2.078v5.889l-1.386.173V66.461l-.866-1.126H51.515A10.391,10.391,0,0,1,50.3,66.807h.52a.387.387,0,0,1,.346.26c0,.087-.346.26-.606.346v1.559c0,1.732-.173,3.9-5.023,5.109l-.173-.346c3.724-1.386,3.81-3.291,3.81-4.85V67.76a15.761,15.761,0,0,1-4.5,2.425l-.173-.26a12.47,12.47,0,0,0,5.109-4.5Zm3.118-5.023H48.051V62.3h3.118Zm0,2.425H48.051V64.9h3.118Zm4.676-.433V60.312H52.554V62.3Zm0,2.6V62.737H52.554V64.9Z" transform="translate(-26.314 -58.927)"/>
  <path id="パス_87901" data-name="パス 87901" d="M68.645,62.191h3.637V58.9l1.819.26c.173,0,.346.087.346.173s-.173.26-.606.433V62.1h3.81l.52-.866,1.386.953c.173.087.173.173.173.26s-.087.173-.606.346v5.716l-1.472.26V67.647h-3.81v5.975l-1.472.26V67.647h-3.9v1.212L67,69.032V61.5Zm3.637,5.023v-4.59h-3.81v4.59Zm5.456,0v-4.59h-3.9v4.59Z" transform="translate(-29.329 -58.9)"/>
  <path id="パス_87902" data-name="パス 87902" d="M93.795,72.431c1.559-.433,5.456-1.386,5.456-5.975s-2.771-4.763-4.85-4.763h-.693a2.338,2.338,0,0,1,.866,1.819c0,1.472-1.386,4.936-2.338,6.495s-1.559,2.078-1.905,2.078A4.752,4.752,0,0,1,87.3,67.408C87.3,64.031,90.331,61,94.4,61s6.149,2.338,6.149,5.716c0,5.109-4.243,5.8-6.755,6.062Zm-5.2-5.2c0,1.992,1.212,3.118,1.645,3.118l.433-.26a19.483,19.483,0,0,0,1.386-2.338,14.549,14.549,0,0,0,1.559-4.85,1.905,1.905,0,0,0-.433-1.126c-3.377.953-4.59,3.291-4.59,5.542Z" transform="translate(-32.05 -59.181)"/>
  <path id="パス_87903" data-name="パス 87903" d="M114.034,59.887c.173,0,.433.173.433.346s-.173.26-.693.433a16.541,16.541,0,0,0,1.905,7.015,12.643,12.643,0,0,0,2.685,3.118,10.392,10.392,0,0,0,2.252,1.472v.346c-.606,0-.953.173-1.386,1.039-2.685-1.732-4.763-4.33-5.542-10.652-.606,5.2-1.559,7.881-7.015,10.738l-.173-.26c5.283-3.637,5.716-8.14,5.716-13.683Z" transform="translate(-34.623 -59.021)"/>
  <path id="パス_87904" data-name="パス 87904" d="M130.6,60.8c1.992.346,2.858,1.126,2.858,1.386s-.087.173-.346.26-.26.087-.346.346l-.779,1.472,3.984-.346.346-.346.346-.346,1.645,1.126v.087c0,.173-.087.173-.693.346l-.693.779-1.3,1.645-1.732,1.905c.953.606,1.992,1.3,1.992,2.338a.779.779,0,0,1-.693.779c-.346,0-.52-.173-1.3-1.126a12.3,12.3,0,0,0-4.157-2.944v-.346a14.289,14.289,0,0,1,3.551,1.126,32.908,32.908,0,0,0,2.425-4.5,25.115,25.115,0,0,0-3.984.779l-.26.26H131.3c-.173,0-.173-.087-.346-.26a16.54,16.54,0,0,1-4.59,4.33l-.26-.173c3.9-3.637,4.936-7.188,4.936-7.448s-.346-.693-.866-.866Z" transform="translate(-37.249 -59.155)"/>
  <path id="パス_87905" data-name="パス 87905" d="M149.418,63.67l.953-.26.346-.866a5.889,5.889,0,0,0,.52-1.732c0-.52-.52-.693-1.212-.866V59.6c1.905.087,2.858.779,2.858,1.212s0,.173-.346.52a14.028,14.028,0,0,0-1.039,1.905h1.039c2.078,0,2.511,1.3,2.511,2.685s-.606,5.023-1.732,6.582c-.173.173-.693.779-1.126.779a.614.614,0,0,1-.606-.693,1.559,1.559,0,0,0-.52-1.039,6.928,6.928,0,0,0-1.386-1.126l.173-.346,2.425,1.3a12.47,12.47,0,0,0,1.472-5.716c0-.779,0-1.732-1.386-1.732l-1.212.173-.346.866-.346.866-2.165,5.2-.52,1.386c-.26.693-.346.779-.52.779a2.468,2.468,0,0,1-.953-1.126c0-.26,0-.173.26-.52a48.147,48.147,0,0,0,3.118-6.582l.26-.606a6.581,6.581,0,0,0-1.645.866l-.52.26a.81.81,0,0,1-.606-.433,3.031,3.031,0,0,1-.779-1.819h.346c.173.346.346.953.866.953h.346ZM156,61.938A7.015,7.015,0,0,1,159.55,65.4a7.621,7.621,0,0,1,.866,3.291c0,.779-.433,1.126-.693,1.126s-.346-.087-.52-.433-.606-.693-2.338-.693v-.346h.433l1.126-.26h.606a11.171,11.171,0,0,0-1.126-3.2,6.668,6.668,0,0,0-2.165-2.511Z" transform="translate(-39.956 -58.994)"/>
  <path id="パス_87906" data-name="パス 87906" d="M168.846,62.358c1.819.606,1.905,1.472,1.905,1.559s0,.173-.346.606a5.8,5.8,0,0,0-.779,2.858v.779a9.786,9.786,0,0,1,5.542-1.992c2.858,0,3.724,1.819,3.724,3.031s-.52,2.771-3.2,3.551a20.091,20.091,0,0,1-5.283.52v-.433c1.992-.173,7.1-.433,7.1-3.81,0-1.905-1.819-2.165-2.6-2.165s-4.417,1.212-4.85,2.6-.173.606-.52.606-1.039-.087-1.039-2.078a13.768,13.768,0,0,1,.693-3.81,3.117,3.117,0,0,0,.087-.779c0-.346-.173-.52-.606-.779Zm5.716-1.992a1.645,1.645,0,0,1,1.645,1.126c0,.346-.26.346-.433.346h-1.126a7.794,7.794,0,0,0-2.944.779l-.173-.346,1.732-.866c-1.645-.26-2.165-.52-2.858-1.732l.26-.173a3.2,3.2,0,0,0,1.645.779l1.559.173Z" transform="translate(-42.931 -58.98)"/>
  <path id="パス_87907" data-name="パス 87907" d="M198.63,65.162l.866-1.039,1.472,1.126v.346h-7.534v1.559h4.936l.606-.779,1.386,1.039c.087.087.26.173.26.346s-.26.26-.779.433a12.3,12.3,0,0,1-1.905,3.031,10.218,10.218,0,0,0,3.118,1.3v.346c-.606.087-.866.26-1.039,1.126a10.392,10.392,0,0,1-2.944-1.819,11,11,0,0,1-3.2,1.992l-.173-.26a10.045,10.045,0,0,0,2.685-2.425,7.794,7.794,0,0,1-1.732-3.724h-1.212v6.062l-1.472.346V71.311a27.452,27.452,0,0,1-4.59,1.559c-.173.346-.26.606-.433.606a.277.277,0,0,1-.26-.26l-.779-1.472h1.819V65.595H186.16l-.26-.433Zm-8.66-1.126v.433l-1.472.26V59.1l1.559.779h6.668l.52-.779,1.3.866c.26.173.26.26.26.346s-.26.26-.52.433v3.724l-1.386.26v-.606Zm1.992,3.118V65.595h-2.771v1.472Zm0,.433h-2.771v1.559h2.771Zm0,1.992h-2.771V71.4l2.771-.52Zm4.936-9.266h-7.015v1.3H196.9Zm0,1.819h-7.015V63.6H196.9Zm-1.819,5.542a6.5,6.5,0,0,0,1.905,2.858,12.73,12.73,0,0,0,1.472-2.858Z" transform="translate(-45.263 -58.927)"/>
  <path id="パス_87908" data-name="パス 87908" d="M212.324,62.877a10.652,10.652,0,0,0,.433-1.992c0-.606-.52-.779-1.212-1.039V59.5c2.425.173,2.944,1.212,2.944,1.3l-.173.346a3.2,3.2,0,0,0-.52,1.126l-.173.606h1.819l.52-.173c.26,0,.779.606.779.953s-.52.433-1.212.433h-2.252a26.5,26.5,0,0,0-.693,2.858h2.944c.346,0,.779.606.779.953s-.173.433-2.252.433H212.41a10.04,10.04,0,0,0-.087,1.126,3.464,3.464,0,0,0,.52,1.992,3.2,3.2,0,0,0,2.685,1.212,3.291,3.291,0,0,0,3.464-3.2,4.157,4.157,0,0,0-2.252-3.551l.173-.346a5.975,5.975,0,0,1,1.992,1.212,3.984,3.984,0,0,1,1.386,2.944c0,2.511-2.338,3.9-4.676,3.9-.953,0-4.5-.26-4.5-4.07a8.748,8.748,0,0,1,.087-1.386c-.953-.173-2.338-.346-2.338-1.559a2.425,2.425,0,0,1,.693-1.472l.346.173a1.559,1.559,0,0,0-.346.866c0,.52.606.779,1.819.953s.433-1.905.606-2.858c-2.338-.26-2.858-.26-3.377-2.338h.346c.346,1.126,1.3,1.3,2.6,1.386Z" transform="translate(-48.305 -58.98)"/>
  <path id="パス_87909" data-name="パス 87909" d="M233.155,62.664c.173,0,.433.087.433.26s-.173.26-.52.433v5.629a28.491,28.491,0,0,0,5.716-8.92l1.645.953a.52.52,0,0,1,.26.346c0,.26-.433.26-.779.26-2.6,4.59-4.07,6.495-6.841,8.66v1.3c0,.433.087.52.52.52h3.2c1.039,0,1.126-.346,1.386-1.126l.433-1.819h.346a9.439,9.439,0,0,0-.087,1.472,1.96,1.96,0,0,0,.866,1.3c.346.087-.433,1.472-1.992,1.472h-4.763a1.126,1.126,0,0,1-1.3-1.3v-.866a21.476,21.476,0,0,1-3.637,1.819l-.173-.346a20,20,0,0,0,3.9-2.425V62.4Zm-3.464,1.992a12.471,12.471,0,0,1,.26,2.252c0,1.472-.346,3.2-1.559,3.2a.606.606,0,0,1-.693-.693c0-.173,0-.346.433-.953a6.149,6.149,0,0,0,1.126-3.9ZM232.2,59.2a5.889,5.889,0,0,1,3.2,1.212,1.819,1.819,0,0,1,.606,1.212c0,.173-.087.866-.693.866s-.52-.173-.693-.52a6.581,6.581,0,0,0-2.6-2.425Zm6.841,5.889a7.707,7.707,0,0,1,2.771,2.252,3.118,3.118,0,0,1,.606,1.645c0,.779-.433,1.039-.779,1.039s-.693-.52-.866-1.126a11,11,0,0,0-.866-1.992,8.14,8.14,0,0,0-1.212-1.559Z" transform="translate(-50.863 -58.94)"/>
  <path id="パス_87910" data-name="パス 87910" d="M256.5,66.474c.173.087.26.173.26.346s-.26.26-.693.26l-.693,1.126h6.235l.866-1.039,1.472,1.212v.346h-3.291a10.132,10.132,0,0,1-2.078,2.511c.953.173,4.417.866,4.417,2.165a.52.52,0,0,1-.52.52c-.26,0-.52-.173-1.472-.606a18.88,18.88,0,0,0-3.291-1.3,11.863,11.863,0,0,1-3.377,1.386,19.918,19.918,0,0,1-4.936.52v-.346a15.415,15.415,0,0,0,6.928-1.992l-2.685-.52-.606.866-1.3-.52a32.035,32.035,0,0,0,1.992-2.685h-4.07l-.26-.433h4.59a16.977,16.977,0,0,0,1.126-1.992h-2.685v.52l-1.386.26v-5.2l1.386.779h1.905V60.759h-4.59l-.173-.433h12.037l.866-1.126,1.472,1.212v.346h-5.023v1.905H261l.433-.693,1.212.779c.173.173.346.173.346.346s-.173.26-.52.433v3.2l-1.386.173V66.3h-4.85ZM254.163,63.1h-1.905v2.685h1.905Zm-.433,7.534,3.291.346a8.487,8.487,0,0,0,1.992-2.338h-3.9l-1.039,1.472Zm3.724-8.054V60.759h-1.992v1.905Zm0,3.118V63.1h-1.992v2.685Zm3.464,0V63.1h-2.078v2.685Z" transform="translate(-53.772 -58.94)"/>
  <path id="パス_87911" data-name="パス 87911" d="M273.811,59.9h.693c1.212,0,2.165.346,2.165.866l-.26.52a12.47,12.47,0,0,0-.26,2.511c0,1.3.173,1.559.346,1.819l1.039-.346,1.732-.606.693-.26.606-.26.346-.173a3.272,3.272,0,0,1,1.039.779.779.779,0,0,1,.173.52c0,.26-.087.26-1.039.346h-.779c-.087,0-8.054,1.126-8.054,4.243a1.645,1.645,0,0,0,1.126,1.472,12.514,12.514,0,0,0,4.157.346,12.817,12.817,0,0,0,3.377-.26l.52-.173c.346,0,1.126.693,1.126,1.126s-.26.433-.52.52a30.309,30.309,0,0,1-4.157.26c-4.157,0-6.582-.433-6.582-3.031s2.165-3.291,4.33-4.243c-.433-.433-.779-.779-.779-2.252s.087-1.819.087-2.078a1.243,1.243,0,0,0-1.212-1.212Z" transform="translate(-56.707 -59.034)"/>
  <path id="パス_87912" data-name="パス 87912" d="M289.646,62.271a2.165,2.165,0,0,0,2.078.866,36.373,36.373,0,0,0,3.724-.433l-.693-1.559c-.52-1.039-.866-1.126-1.905-1.3V59.5h.953a4.07,4.07,0,0,1,1.819.346c.346.173.346.346.346.52a5.889,5.889,0,0,0,.52,2.165,15.415,15.415,0,0,0,2.685-.779l.52-.346,1.039.52a.52.52,0,0,1,.173.346c0,.26-.346.346-.866.52l-3.118.779a17.06,17.06,0,0,0,2.338,3.377c.52.606.606.693.606,1.039s-.433,1.3-.693,1.3-.866-.606-.953-.779a6.841,6.841,0,0,0-3.464-.866c-2.338,0-3.464.953-3.464,2.165s1.819,1.905,4.07,1.905a16.54,16.54,0,0,0,3.118-.346l.52-.173a1.452,1.452,0,0,1,.953,1.039c0,.433-.26.433-.52.52a24.421,24.421,0,0,1-3.637.26,9.353,9.353,0,0,1-4.33-.693,2.511,2.511,0,0,1-1.3-2.252c0-1.645,1.472-3.118,4.59-3.118a15.069,15.069,0,0,1,3.2.433l-.433-.693-1.645-2.858a33.254,33.254,0,0,1-4.33.433c-1.126,0-1.645-.606-2.252-1.732Z" transform="translate(-59.119 -58.98)"/>
  <path id="パス_87913" data-name="パス 87913" d="M310.425,59.6h.693c1.126,0,2.252.52,2.252.866s0,.173-.26.606-.173.173-.26,1.472l.52-.173c.346,0,.693.606.693.693s-.087.173-.173.26l-1.212.953v.866a18.79,18.79,0,0,1,2.685-2.165,6.582,6.582,0,0,1,3.118-1.3,1.732,1.732,0,0,1,1.905,1.819,15.753,15.753,0,0,1-.173,1.732,36.985,36.985,0,0,0-.346,4.5c0,.779,0,1.819.866,1.819a1.732,1.732,0,0,0,1.126-.52l.606-.779.346.173a4.071,4.071,0,0,1-.953,1.472,2.511,2.511,0,0,1-1.559.606,1.732,1.732,0,0,1-1.386-.779,3.29,3.29,0,0,1-.346-1.819c0-.52.087-1.559.173-2.6l.173-1.819c0-.26.087-1.212.087-1.645s0-1.386-1.126-1.386-2.252.953-3.118,1.559a17.234,17.234,0,0,0-2.078,1.819v5.889a1.559,1.559,0,0,1-1.039,1.472c-.26,0-.346-.26-.346-.433v-.52c-.087-.693-.606-1.386-1.819-2.771l-.52.866a.52.52,0,0,1-.346.26A1.08,1.08,0,0,1,308,69.559c0-.606.087-.346.346-.693l.433-.433c.26-.26,1.992-2.252,2.771-3.291v-1.3a5.023,5.023,0,0,0-1.645.866l-.26.173a1.268,1.268,0,0,1-.693-.433,2.858,2.858,0,0,1-.779-1.732h.346c.52.779.693.866,1.039.866a9.179,9.179,0,0,0,1.992-.52V60.986a2.056,2.056,0,0,0-1.386-.953Zm1.126,10.738v-3.2l-1.3,1.645-.52.693,1.732,1.559Z" transform="translate(-61.625 -58.994)"/>
  <path id="パス_87914" data-name="パス 87914" d="M332.91,66.362a9.786,9.786,0,0,1,4.157-1.039c2.6,0,4.07,1.472,4.07,3.551s-2.511,4.33-5.456,4.33-3.637-.866-3.637-2.165a1.645,1.645,0,0,1,1.819-1.559,4.5,4.5,0,0,1,3.031,1.3,2.078,2.078,0,0,1,.779,1.212,3.377,3.377,0,0,0,1.386-1.126,3.9,3.9,0,0,0,.606-2.078c0-1.472-.866-2.685-2.944-2.685a8.487,8.487,0,0,0-5.975,2.771c-.779.866-.866.953-.953.953a1.669,1.669,0,0,1-.693-1.039.52.52,0,0,1,.26-.433l.433-.346a72.917,72.917,0,0,0,6.755-6.582l-.866.173a9.353,9.353,0,0,0-2.771.779l-.433.26c-.26,0-.693-.433-.953-.693a3.724,3.724,0,0,1-.693-1.472l.346-.173c.346.606.606.866,1.3.866h.433l2.771-.346h.693l.693-.173.433-.173.52.433c.606.606.606.606.606.779s-.087.173-.346.26l-.693.433-3.464,2.858Zm.606,3.9a.779.779,0,0,0-.866.779c0,.606.779,1.386,2.511,1.386l1.386-.173c-1.732-1.905-2.771-1.905-3.031-1.905Z" transform="translate(-64.452 -59.088)"/>
  <path id="パス_87915" data-name="パス 87915" d="M123.754,91.26c.087,0,.433.087.433.26s-.346.346-.52.346a10.739,10.739,0,0,0,1.992,2.338,13.337,13.337,0,0,0,4.417,2.511l.779.346v.346c-.606.087-.866.173-1.212,1.039a12.651,12.651,0,0,1-6.235-6.322,24.766,24.766,0,0,1-2.425,3.118,18.532,18.532,0,0,1-5.109,3.551l-.173-.346A17.233,17.233,0,0,0,122.022,91Zm2.252,8.14.953-1.126L128.43,99.4v.346H124.1v4.763H128l.953-1.212,1.559,1.3v.346h-14.2l-.173-.433h2.425V98.361l1.645.173c.26,0,.346.173.346.26s-.173.26-.52.433v5.456h2.6v-8.92l1.732.26c.173,0,.433.087.433.26s-.26.26-.606.433V99.4Z" transform="translate(-35.855 -63.202)"/>
  <path id="パス_87916" data-name="パス 87916" d="M149,94.277l.953-1.126,1.472,1.212V94.8h-4.07c.346.173.433.26.433.346s-.26.26-.52.26l-1.645,1.732H148.3l.866-1.126,1.472,1.212v.346h-5.975v1.386h2.944l.866-.953,1.386,1.126v.346h-5.2v1.472h4.5l.866-1.039,1.472,1.126v.346h-6.495a12.99,12.99,0,0,0,6.495,2.858v.26a1.472,1.472,0,0,0-1.126,1.212,13.164,13.164,0,0,1-3.637-1.905,8.4,8.4,0,0,1-2.165-2.252v4.157l-1.472.26v-3.81a15.934,15.934,0,0,1-6.408,3.81v-.26a15.761,15.761,0,0,0,5.2-4.243h-4.763l-.173-.433h6.322V99.56h-4.59l-.173-.433h4.763V97.568h-5.456l-.173-.433h3.984a.606.606,0,0,1-.26-.433l-.173-.52a3.118,3.118,0,0,0-.693-1.386H136.96l-.173-.433H141.9V90.9l1.472.173c.173,0,.433.087.433.26s-.173.26-.52.433v2.6h1.386V90.9h1.472c.173,0,.346.087.346.26s-.173.26-.52.433v2.6h.779a18.186,18.186,0,0,0,1.3-3.118l1.559.779a.346.346,0,0,1,.173.26c0,.173-.26.173-.606.26l-1.819,1.819ZM138.432,91.42c1.472.433,2.425,1.039,2.425,1.992a.693.693,0,0,1-.779.779c-.26,0-.52-.173-.779-.779a2.685,2.685,0,0,0-1.039-1.645ZM141.29,94.8c1.3.693,1.386,1.3,1.386,1.732a.866.866,0,0,1-.26.693h2.511a20.955,20.955,0,0,0,.953-2.425Z" transform="translate(-38.669 -63.188)"/>
  <path id="パス_87917" data-name="パス 87917" d="M162.751,91.639c1.992.173,2.944,1.126,2.944,1.3a.277.277,0,0,1-.26.26.693.693,0,0,0-.433.346l-.52,1.126h.693a16.367,16.367,0,0,0,3.724-.52l.52-.52L170.8,94.67c.346.26.433.26.433.433s-.26.26-.693.346c-2.6,7.448-6.495,9.093-10.652,9.959l-.173-.346a13.163,13.163,0,0,0,5.716-3.464A16.194,16.194,0,0,0,168.9,95.19a30.138,30.138,0,0,1-4.07.346h-.779a12.384,12.384,0,0,1-4.59,4.763l-.26-.26a13.942,13.942,0,0,0,4.33-7.274c0-.52-.693-.779-.953-.866Zm6.582.173c1.039.173,2.771.866,2.771,1.819a.52.52,0,0,1-.52.606c-.26,0-.433-.173-.779-.606a6.235,6.235,0,0,0-1.645-1.559Zm.953-1.212a7.014,7.014,0,0,1,2.165.606,1.212,1.212,0,0,1,.779,1.039c0,.173-.087.52-.433.52s-.346-.087-.693-.433a6.668,6.668,0,0,0-1.992-1.472Z" transform="translate(-41.685 -63.148)"/>
  <path id="パス_87918" data-name="パス 87918" d="M179.2,93.012c1.386.173,2.771.779,2.771,1.126l-.26.346V95.87c-.173,3.9-.26,6.755-4.85,9.353l-.26-.26c3.031-2.165,3.724-5.2,3.724-9.006,0-2.078,0-2.252-1.039-2.685Zm4.07-1.212c1.472.087,2.858.866,2.858,1.212s-.087.173-.346.433a.606.606,0,0,0-.173.26c-.087.433-.087,2.338-.087,2.858v6.062A21.476,21.476,0,0,0,190.975,97l.26.173a18.793,18.793,0,0,1-4.5,6.235l-1.3,1.3c-.173.52-.173.606-.26.606l-.346-.173-1.212-1.3.606-.346V94.052c0-1.126,0-1.645-1.126-1.992Z" transform="translate(-44.016 -63.309)"/>
  <path id="パス_87919" data-name="パス 87919" d="M197.96,97.7a1.645,1.645,0,0,0,1.732,1.039H200.9l7.1-.26a9.684,9.684,0,0,0,1.905-.173h.26c.346,0,1.472.779,1.472,1.212s-.346.346-.433.346h-3.377a67.635,67.635,0,0,0-7.534.433l-.866.346h-.087c-.173,0-.953-.26-1.645-2.425Z" transform="translate(-46.844 -64.099)"/>
  <path id="パス_87920" data-name="パス 87920" d="M227.159,93.677l.52-.52,1.472,1.126c.087.087.26.173.26.346s-.346.346-.693.433A20.351,20.351,0,0,1,226.639,100a11.864,11.864,0,0,1-4.936,4.243,15.242,15.242,0,0,1-2.944,1.039l-.173-.346a13.25,13.25,0,0,0,6.322-4.763,14.2,14.2,0,0,0,2.252-5.629h-.693a46.073,46.073,0,0,0-6.582.693l-.606.26-.26.173c-.173,0-.52-.346-.693-.52a4.5,4.5,0,0,1-1.126-1.992l.26-.173a1.992,1.992,0,0,0,1.819.953l2.511-.173,4.59-.173Zm2.858-.087a1.645,1.645,0,1,1,1.645-1.645,1.645,1.645,0,0,1-1.645,1.645Zm0-2.771a1.039,1.039,0,1,0,1.039,1.039,1.126,1.126,0,0,0-1.039-1.039Z" transform="translate(-49.457 -63.108)"/>
  <path id="パス_87921" data-name="パス 87921" d="M235.773,98.564a1.386,1.386,0,0,0,.779.606c.173,0,.26-.087.779-.693a28.321,28.321,0,0,1,2.685-2.944,1.732,1.732,0,0,1,1.039-.433,1.988,1.988,0,0,1,1.472.779,40.788,40.788,0,0,0,6.841,5.975c.606.346.866.52.866,1.039a.693.693,0,0,1-.606.779c-.693,0-3.118-2.165-3.9-2.944l-3.81-3.984c-.433-.52-.693-.606-.866-.606a28.088,28.088,0,0,0-2.858,3.637l-.26.693-.26.173a2.165,2.165,0,0,1-.953-.433,2.944,2.944,0,0,1-1.126-1.645Z" transform="translate(-51.923 -63.751)"/>
</svg>
