<svg xmlns="http://www.w3.org/2000/svg" width="329.52" height="85.356" viewBox="0 0 329.52 85.356">
  <g id="グループ_79619" data-name="グループ 79619" transform="translate(98.1 -296.728)">
    <path id="パス_36840" data-name="パス 36840" d="M1.17-.99H16.8l.6-5.97-.84-.06c-.84,4.14-1.92,5.13-5.7,5.13H6.12v-9.93H9.21c1.77,0,2.94.24,3.39.69a4.128,4.128,0,0,1,.84,2.4h.84v-7.05h-.84c-.33,2.64-.9,3.06-4.23,3.06H6.12v-9.12h4.14c3.84,0,4.95.9,5.67,4.53l.87-.06-.48-5.37H1.17v.72c1.38,0,1.92.24,2.13.87a8.15,8.15,0,0,1,.15,2.22V-4.8c-.06,2.25-.06,2.28-.39,2.64-.27.3-.87.45-1.89.45Zm32.31-.69c-1.14,0-1.5-.09-1.68-.33a6.8,6.8,0,0,1-.33-2.58l.03-1.38.03-2.85c.06-2.94.06-2.94.06-3.03a5.109,5.109,0,0,0-.87-3.39c-.72-.87-2.1-1.32-4.02-1.32a9.018,9.018,0,0,0-4.38.96,3.565,3.565,0,0,0-2.04,2.88c0,.63.45.9,1.47.9a1.937,1.937,0,0,0,1.05-.24c.24-.18.3-.39.33-1.02.12-1.86,1.14-2.76,3.12-2.76a2.5,2.5,0,0,1,2.46,1.17,6.056,6.056,0,0,1,.42,2.73v1.89a32.937,32.937,0,0,0-5.34.72c-2.91.66-4.41,2.19-4.41,4.56A4.31,4.31,0,0,0,20.7-1.59a4.551,4.551,0,0,0,3.06.93,5.936,5.936,0,0,0,3.9-1.29,7.561,7.561,0,0,0,1.47-1.29c.12,2.01.36,2.49,1.26,2.49a25.4,25.4,0,0,0,3.09-.3ZM29.13-7.95a8.429,8.429,0,0,1-.69,4.08A4.6,4.6,0,0,1,24.6-1.68c-1.5,0-2.52-1.29-2.52-3.18a3.531,3.531,0,0,1,2.01-3.42c1.2-.6,2.37-.84,5.04-1.08Zm5.52-8.19v.66c1.71,0,2.07.45,2.07,2.7v8.04c0,2.79-.18,3.03-2.19,3.09v.66H41.4v-.66c-2.01-.06-2.16-.27-2.16-3.09V-9.45a7.805,7.805,0,0,1,.81-3.81,2.938,2.938,0,0,1,2.25-1.8c.48,0,.66.18.84.84.18.57.45.75,1.11.75.96,0,1.59-.48,1.59-1.23a2.068,2.068,0,0,0-2.28-1.86c-1.77,0-3.39,1.29-4.38,3.57v-.96c0-.63-.03-1.02-.09-2.52Zm15.9-.33-4.53.33v.66c1.71,0,2.07.45,2.07,2.7v8.04c0,2.79-.18,3.03-2.19,3.09v.66h6.84v-.66c-2.04-.06-2.19-.27-2.19-3.09V-9.93a7.293,7.293,0,0,1,1.02-3.66,3.834,3.834,0,0,1,3.39-2.01,2.674,2.674,0,0,1,2.64,1.59,7.883,7.883,0,0,1,.48,3.24v6.03c0,.21-.06,1.32-.09,1.65a1.612,1.612,0,0,1-.3.99c-.24.3-.78.42-1.77.45v.66h6.81v-.66c-2.04-.06-2.19-.27-2.19-3.09v-6.21a6.469,6.469,0,0,0-.78-3.75,4.158,4.158,0,0,0-3.93-1.86c-2.49,0-3.96.87-5.28,3.18Zm13.02.33v.66c1.05,0,1.53.06,1.77.27.33.27.45.96.45,2.46v8.01c0,2.79-.15,3.03-2.22,3.09v.66h6.84v-.66c-2.01-.06-2.16-.3-2.16-3.09v-6.12c0-1.26.09-3.87.18-5.61Zm1.65-5.01a1.69,1.69,0,0,0,1.71,1.71,1.684,1.684,0,0,0,1.68-1.71,1.677,1.677,0,0,0-1.68-1.68A1.684,1.684,0,0,0,65.22-21.15Zm10.86,4.68-4.53.33v.66c1.71,0,2.07.45,2.07,2.7v8.04c0,2.79-.18,3.03-2.19,3.09v.66h6.84v-.66c-2.04-.06-2.19-.27-2.19-3.09V-9.93a7.293,7.293,0,0,1,1.02-3.66,3.834,3.834,0,0,1,3.39-2.01,2.674,2.674,0,0,1,2.64,1.59,7.883,7.883,0,0,1,.48,3.24v6.03c0,.21-.06,1.32-.09,1.65a1.612,1.612,0,0,1-.3.99c-.24.3-.78.42-1.77.45v.66h6.81v-.66c-2.04-.06-2.19-.27-2.19-3.09v-6.21a6.469,6.469,0,0,0-.78-3.75,4.158,4.158,0,0,0-3.93-1.86c-2.49,0-3.96.87-5.28,3.18Zm27.15,1.35v-1.14c-1.62.06-2.52.09-3.27.09a9.613,9.613,0,0,1-1.89-.18,10.639,10.639,0,0,0-2.01-.21,7.232,7.232,0,0,0-3.69.9,5.3,5.3,0,0,0-2.34,4.68,4.93,4.93,0,0,0,.96,3.09,5.805,5.805,0,0,0,1.5,1.29l-1.17.78c-1.17.81-1.44,1.2-1.44,2.04a2.768,2.768,0,0,0,1.89,2.64c-1.86,1.2-2.1,1.5-2.1,2.76a2.991,2.991,0,0,0,1.62,2.91,9.533,9.533,0,0,0,4.65.93,10.413,10.413,0,0,0,5.31-1.14A4.41,4.41,0,0,0,103.5.6a3.111,3.111,0,0,0-2.49-3.24,15.531,15.531,0,0,0-3.84-.3h-2.1c-2.52,0-3.3-.36-3.3-1.5,0-.69.45-1.2,1.56-1.8a9.893,9.893,0,0,0,2.64.36c3.6,0,5.94-2.04,5.94-5.22a5.451,5.451,0,0,0-1.71-4.02ZM92.55-11.34c0-3,1.17-4.53,3.42-4.53,2.22,0,3.36,1.62,3.36,4.77,0,2.97-1.17,4.56-3.36,4.56a3.045,3.045,0,0,1-2.73-1.44A7.177,7.177,0,0,1,92.55-11.34ZM92.88-.93c.03-.03,1.83-.06,2.88-.06a26.613,26.613,0,0,1,3.42.12c1.62.27,2.31.93,2.31,2.19,0,2.1-1.98,3.42-5.19,3.42-3.06,0-4.65-1.17-4.65-3.39C91.65.09,92.04-.63,92.88-.93Zm11.88,0a9.108,9.108,0,0,1,1.35-.12,7.848,7.848,0,0,1,1.11.09,15.386,15.386,0,0,0,3,.36,4.3,4.3,0,0,0,4.65-4.53,4.158,4.158,0,0,0-.99-2.85,8.691,8.691,0,0,0-3.45-2.04,14.425,14.425,0,0,1-3.12-1.56,1.887,1.887,0,0,1-.81-1.62c0-1.62,1.2-2.67,3.06-2.67,2.19,0,3.51,1.59,3.57,4.26h.99l.15-4.74a6.115,6.115,0,0,1-1.44.21,5.5,5.5,0,0,1-.63-.06,13.171,13.171,0,0,0-2.79-.36,4.635,4.635,0,0,0-3.72,1.71,4.767,4.767,0,0,0-.81,2.76c0,2.04.99,3.12,4.23,4.53,2.73,1.2,2.82,1.23,3.36,1.68a2.324,2.324,0,0,1,.72,1.74c0,1.77-1.23,2.82-3.27,2.82a3.828,3.828,0,0,1-3.27-1.62,4.8,4.8,0,0,1-.84-2.79h-.93Zm26.07-10.38h1.83a6.1,6.1,0,0,1,2.13.36c.9.3,1.47.9,2.19,2.19a58.674,58.674,0,0,1,3.27,7.77h4.68v-.66a2.285,2.285,0,0,1-1.59-.57c-.6-.51-.84-.93-2.31-4.26-.99-2.22-1.56-3.12-2.49-3.93a5.057,5.057,0,0,0-2.4-1.08v-.27c2.25-.24,4.14-1.05,5.04-2.22a5.822,5.822,0,0,0,1.02-3.39c0-3.66-2.55-5.37-8.04-5.37h-8.31v.72c2.16.09,2.31.3,2.31,3.09V-4.8c0,2.76-.18,3-2.31,3.06v.75h7.32v-.75c-2.16-.06-2.34-.3-2.34-3.06Zm0-.9v-9.63h2.76c3.84,0,5.7,1.53,5.7,4.68a4.557,4.557,0,0,1-1.83,4.02,7.615,7.615,0,0,1-4.14.93Zm28.2,2.76a9.525,9.525,0,0,0-.48-3.3,5.791,5.791,0,0,0-5.73-3.81c-4.23,0-7.11,3.33-7.11,8.19,0,4.59,2.94,7.77,7.23,7.77a6.512,6.512,0,0,0,6.33-4.05l-.69-.39c-1.2,2.28-2.82,3.39-4.95,3.39a4.54,4.54,0,0,1-4.5-3.3,12,12,0,0,1-.69-4.5Zm-10.53-.81a8.41,8.41,0,0,1,.81-3.21,3.869,3.869,0,0,1,3.45-2.34,3.258,3.258,0,0,1,3.09,2.22,7.915,7.915,0,0,1,.57,3.33ZM160.98-.93a9.108,9.108,0,0,1,1.35-.12,7.848,7.848,0,0,1,1.11.09,15.386,15.386,0,0,0,3,.36,4.3,4.3,0,0,0,4.65-4.53,4.159,4.159,0,0,0-.99-2.85,8.691,8.691,0,0,0-3.45-2.04,14.425,14.425,0,0,1-3.12-1.56,1.887,1.887,0,0,1-.81-1.62c0-1.62,1.2-2.67,3.06-2.67,2.19,0,3.51,1.59,3.57,4.26h.99l.15-4.74a6.115,6.115,0,0,1-1.44.21,5.5,5.5,0,0,1-.63-.06,13.171,13.171,0,0,0-2.79-.36,4.635,4.635,0,0,0-3.72,1.71,4.767,4.767,0,0,0-.81,2.76c0,2.04.99,3.12,4.23,4.53,2.73,1.2,2.82,1.23,3.36,1.68a2.324,2.324,0,0,1,.72,1.74c0,1.77-1.23,2.82-3.27,2.82a3.828,3.828,0,0,1-3.27-1.62,4.8,4.8,0,0,1-.84-2.79h-.93Zm27.81-.06v-.66h-.21c-1.56,0-1.83-.54-1.83-3.54v-5.67c0-1.35.06-3.33.15-5.58l-4.65.3v.66h.54a1.515,1.515,0,0,1,1.02.3c.36.27.45.84.45,2.43v4.62a7.4,7.4,0,0,1-.54,3.54,4.332,4.332,0,0,1-3.9,2.91,2.33,2.33,0,0,1-2.43-1.68c-.36-1.05-.42-1.86-.42-4.89v-2.61c0-2.07.03-2.79.18-5.58l-4.65.3v.66h.54c.57.03.84.09,1.02.27.33.27.45.9.45,2.46V-7.8a14.6,14.6,0,0,0,.42,4.65,4,4,0,0,0,3.99,2.52,6.109,6.109,0,0,0,5.34-3.24,24.466,24.466,0,0,0,.15,3.09Zm1.05,0h6.78v-.66c-2.01-.06-2.16-.3-2.16-3.09V-16.98c0-1.59.06-3.99.18-6l-4.8.24v.66c1.02.03,1.47.09,1.68.27.33.27.45.99.45,2.46V-4.74c0,2.79-.15,3.03-2.13,3.09Zm12.45-14.34h3.6v-.81h-3.6c0-1.98.03-3.12.09-4.41l-1.38.39c-.45,2.82-1.35,3.99-3.12,4.14v.69h1.89v9.72c0,2.22.09,2.88.42,3.48a3.265,3.265,0,0,0,3.09,1.47,6.382,6.382,0,0,0,3.03-.75l-.27-.78a3.5,3.5,0,0,1-1.89.54,1.67,1.67,0,0,1-1.47-.63c-.3-.42-.39-1.2-.39-2.97Zm5.19,14.4a9.108,9.108,0,0,1,1.35-.12,7.848,7.848,0,0,1,1.11.09,15.386,15.386,0,0,0,3,.36,4.3,4.3,0,0,0,4.65-4.53,4.159,4.159,0,0,0-.99-2.85,8.691,8.691,0,0,0-3.45-2.04,14.425,14.425,0,0,1-3.12-1.56,1.887,1.887,0,0,1-.81-1.62c0-1.62,1.2-2.67,3.06-2.67,2.19,0,3.51,1.59,3.57,4.26h.99l.15-4.74a6.115,6.115,0,0,1-1.44.21,5.5,5.5,0,0,1-.63-.06,13.171,13.171,0,0,0-2.79-.36,4.635,4.635,0,0,0-3.72,1.71,4.767,4.767,0,0,0-.81,2.76c0,2.04.99,3.12,4.23,4.53,2.73,1.2,2.82,1.23,3.36,1.68a2.324,2.324,0,0,1,.72,1.74c0,1.77-1.23,2.82-3.27,2.82a3.828,3.828,0,0,1-3.27-1.62,4.8,4.8,0,0,1-.84-2.79h-.93ZM228.6-.99h8.04a20.218,20.218,0,0,0,5.07-.54c2.7-.87,4.02-2.58,4.02-5.34a5.052,5.052,0,0,0-3-4.89,7.508,7.508,0,0,0-3.45-.81v-.21c3.78-.48,5.61-2.07,5.61-4.92a4.244,4.244,0,0,0-2.58-4.17,14.385,14.385,0,0,0-5.52-.87H228.6v.72c1.38,0,1.92.24,2.13.87a8.15,8.15,0,0,1,.15,2.22V-4.8c-.06,2.25-.06,2.28-.39,2.64-.27.3-.87.45-1.89.45Zm4.95-12.12v-8.73h2.76c3.87,0,5.73,1.38,5.73,4.26,0,2.94-1.86,4.47-5.46,4.47Zm0,11.22V-12.12h2.91a9.385,9.385,0,0,1,3.99.72,4.516,4.516,0,0,1,2.22,4.29,5.044,5.044,0,0,1-1.5,3.99c-.96.84-2.52,1.23-4.71,1.23Zm14.01-14.25v.66c1.71,0,2.07.45,2.07,2.7v8.04c0,2.79-.18,3.03-2.19,3.09v.66h6.87v-.66c-2.01-.06-2.16-.27-2.16-3.09V-9.45a7.805,7.805,0,0,1,.81-3.81,2.938,2.938,0,0,1,2.25-1.8c.48,0,.66.18.84.84.18.57.45.75,1.11.75.96,0,1.59-.48,1.59-1.23a2.068,2.068,0,0,0-2.28-1.86c-1.77,0-3.39,1.29-4.38,3.57v-.96c0-.63-.03-1.02-.09-2.52Zm11.34,0v.66c1.05,0,1.53.06,1.77.27.33.27.45.96.45,2.46v8.01c0,2.79-.15,3.03-2.22,3.09v.66h6.84v-.66c-2.01-.06-2.16-.3-2.16-3.09v-6.12c0-1.26.09-3.87.18-5.61Zm1.65-5.01a1.69,1.69,0,0,0,1.71,1.71,1.684,1.684,0,0,0,1.68-1.71,1.677,1.677,0,0,0-1.68-1.68A1.684,1.684,0,0,0,260.55-21.15Zm20.07,11.7a9.525,9.525,0,0,0-.48-3.3,5.791,5.791,0,0,0-5.73-3.81c-4.23,0-7.11,3.33-7.11,8.19,0,4.59,2.94,7.77,7.23,7.77a6.512,6.512,0,0,0,6.33-4.05l-.69-.39c-1.2,2.28-2.82,3.39-4.95,3.39a4.54,4.54,0,0,1-4.5-3.3,12,12,0,0,1-.69-4.5Zm-10.53-.81a8.409,8.409,0,0,1,.81-3.21,3.869,3.869,0,0,1,3.45-2.34,3.258,3.258,0,0,1,3.09,2.22,7.915,7.915,0,0,1,.57,3.33Zm16.56-5.07h3.93c1.14,0,1.65.12,1.86.42a4.877,4.877,0,0,1,.33,2.34v7.83c0,2.82-.15,3.03-2.22,3.09v.66h6.87v-.66c-2.04-.06-2.19-.27-2.19-3.09v-6.15c0-1.29.06-3.69.18-5.58a33.5,33.5,0,0,1-4.86.33h-3.9v-.69a9.576,9.576,0,0,1,.72-3.93,2.9,2.9,0,0,1,2.76-1.65c1.08,0,2.01.45,2.01,1.02v.03c-.09.75-.15,1.11-.15,1.11a1.5,1.5,0,0,0,1.65,1.47,1.672,1.672,0,0,0,1.71-1.71c0-1.62-1.71-2.55-4.77-2.55-2.46,0-4.2.63-5.16,1.86a7.1,7.1,0,0,0-1.23,4.26v.78h-2.31v.81h2.31V-4.74c0,2.79-.15,3.03-2.16,3.09v.66h6.99v-.66c-2.19-.06-2.37-.3-2.37-3.09ZM303-16.47l-4.53.33v.66c1.71,0,2.07.45,2.07,2.7v8.04c0,2.79-.18,3.03-2.19,3.09v.66h6.84v-.66c-2.04-.06-2.19-.27-2.19-3.09V-9.93a7.293,7.293,0,0,1,1.02-3.66,3.834,3.834,0,0,1,3.39-2.01,2.674,2.674,0,0,1,2.64,1.59,7.883,7.883,0,0,1,.48,3.24v6.03c0,.21-.06,1.32-.09,1.65a1.612,1.612,0,0,1-.3.99c-.24.3-.78.42-1.77.45v.66h6.81v-.66c-2.04-.06-2.19-.27-2.19-3.09v-6.21a6.47,6.47,0,0,0-.78-3.75,4.158,4.158,0,0,0-3.93-1.86c-2.49,0-3.96.87-5.28,3.18Zm27.15,1.35v-1.14c-1.62.06-2.52.09-3.27.09a9.614,9.614,0,0,1-1.89-.18,10.639,10.639,0,0,0-2.01-.21,7.232,7.232,0,0,0-3.69.9,5.3,5.3,0,0,0-2.34,4.68,4.93,4.93,0,0,0,.96,3.09,5.805,5.805,0,0,0,1.5,1.29l-1.17.78c-1.17.81-1.44,1.2-1.44,2.04a2.768,2.768,0,0,0,1.89,2.64c-1.86,1.2-2.1,1.5-2.1,2.76a2.991,2.991,0,0,0,1.62,2.91,9.533,9.533,0,0,0,4.65.93,10.413,10.413,0,0,0,5.31-1.14A4.41,4.41,0,0,0,330.42.6a3.111,3.111,0,0,0-2.49-3.24,15.531,15.531,0,0,0-3.84-.3h-2.1c-2.52,0-3.3-.36-3.3-1.5,0-.69.45-1.2,1.56-1.8a9.893,9.893,0,0,0,2.64.36c3.6,0,5.94-2.04,5.94-5.22a5.451,5.451,0,0,0-1.71-4.02Zm-10.68,3.78c0-3,1.17-4.53,3.42-4.53,2.22,0,3.36,1.62,3.36,4.77,0,2.97-1.17,4.56-3.36,4.56a3.045,3.045,0,0,1-2.73-1.44A7.177,7.177,0,0,1,319.47-11.34ZM319.8-.93c.03-.03,1.83-.06,2.88-.06a26.613,26.613,0,0,1,3.42.12c1.62.27,2.31.93,2.31,2.19,0,2.1-1.98,3.42-5.19,3.42-3.06,0-4.65-1.17-4.65-3.39C318.57.09,318.96-.63,319.8-.93ZM5.67,20.67H9.66v-.81H5.67c0-.48-.03-.87-.03-1.17-.03-1.44-.03-1.74-.03-2.19,0-1.95.6-2.91,1.77-2.91.87,0,1.26.36,1.41,1.29.15.81.15.81.33.99a1.627,1.627,0,0,0,.99.27c.9,0,1.47-.36,1.47-.96,0-1.26-1.65-2.22-3.78-2.22a5.306,5.306,0,0,0-3.54,1.2,3.5,3.5,0,0,0-1.11,2.91c0,.54.03,1.62.06,2.79H.9v.81H3.21V31.26c0,2.79-.15,3.03-2.16,3.09v.66H8.04v-.66c-2.19-.06-2.37-.3-2.37-3.09Zm4.68,6.99c0,4.65,2.88,7.74,7.23,7.74,4.56,0,7.44-3.15,7.44-8.16,0-4.71-2.88-7.8-7.26-7.8a7.247,7.247,0,0,0-5.22,2.01A8.982,8.982,0,0,0,10.35,27.66Zm2.79-.39c0-4.59,1.59-7.14,4.47-7.14,2.94,0,4.62,2.7,4.62,7.38,0,4.62-1.62,7.17-4.56,7.17C14.79,34.68,13.14,31.98,13.14,27.27Zm13.5-7.41v.66c1.71,0,2.07.45,2.07,2.7v8.04c0,2.79-.18,3.03-2.19,3.09v.66h6.87v-.66c-2.01-.06-2.16-.27-2.16-3.09V26.55a7.805,7.805,0,0,1,.81-3.81,2.938,2.938,0,0,1,2.25-1.8c.48,0,.66.18.84.84.18.57.45.75,1.11.75.96,0,1.59-.48,1.59-1.23a2.068,2.068,0,0,0-2.28-1.86c-1.77,0-3.39,1.29-4.38,3.57v-.96c0-.63-.03-1.02-.09-2.52ZM52.17,24.3h3.21c3.27,0,3.78.39,4.2,3.09h.84V20.37h-.84c-.33,2.61-.9,3.03-4.2,3.03H52.17V14.16h3.9c4.02,0,5.1.84,5.79,4.5l.96-.06-.36-5.34H47.22v.72c1.38,0,1.92.24,2.13.87a8.15,8.15,0,0,1,.15,2.22V31.2c0,2.76-.18,3-2.28,3.06v.75h7.5v-.75c-2.37-.06-2.55-.3-2.55-3.06ZM75,24.54l5.04-7.38c1.56-2.28,2.55-3.03,4.14-3.18v-.72H77.22v.72c1.77.09,2.4.39,2.4,1.11A5.12,5.12,0,0,1,78.6,17.4l-4.29,6.33-4.38-6.69c-.81-1.23-.99-1.59-.99-2.04,0-.66.57-.96,2.01-1.02v-.72H63.18v.72c1.35.12,1.98.63,3.36,2.67L72.3,25.2v6c0,2.76-.21,3-2.61,3.06v.75h7.92v-.75C75.21,34.2,75,33.99,75,31.2ZM98.76,35.01l.81-5.22-.9-.21c-.6,2.52-1.35,3.18-3.51,3.18H86.49a8.528,8.528,0,0,1,2.46-3.81c1.32-1.29,2.13-1.89,5.88-4.2,3.33-2.04,4.44-3.57,4.44-6.06a4.846,4.846,0,0,0-.96-3.18c-1.14-1.44-3.24-2.25-5.76-2.25-4.02,0-7.02,2.31-7.02,5.4,0,.87.42,1.23,1.53,1.23,1.05,0,1.38-.27,1.44-1.29a8.051,8.051,0,0,1,.3-2.19,3.483,3.483,0,0,1,3.57-2.34,3.946,3.946,0,0,1,4.08,4.23,4.944,4.944,0,0,1-.66,2.52,9.362,9.362,0,0,1-2.28,2.34c-3.84,3.12-5.1,4.32-6.27,6a12.387,12.387,0,0,0-2.22,5.85Zm2.79-10.65a16.784,16.784,0,0,0,1.71,7.77,6.434,6.434,0,0,0,5.82,3.33,6.365,6.365,0,0,0,5.79-3.33,16.7,16.7,0,0,0,1.71-7.77,16.61,16.61,0,0,0-1.71-7.77,6.725,6.725,0,0,0-11.61,0A16.784,16.784,0,0,0,101.55,24.36Zm2.91.03c0-7.17,1.41-10.35,4.62-10.35s4.62,3.15,4.62,10.32-1.41,10.32-4.62,10.32S104.46,31.53,104.46,24.39Zm27.78,10.62.81-5.22-.9-.21c-.6,2.52-1.35,3.18-3.51,3.18h-8.67a8.528,8.528,0,0,1,2.46-3.81c1.32-1.29,2.13-1.89,5.88-4.2,3.33-2.04,4.44-3.57,4.44-6.06a4.846,4.846,0,0,0-.96-3.18c-1.14-1.44-3.24-2.25-5.76-2.25-4.02,0-7.02,2.31-7.02,5.4,0,.87.42,1.23,1.53,1.23,1.05,0,1.38-.27,1.44-1.29a8.051,8.051,0,0,1,.3-2.19,3.483,3.483,0,0,1,3.57-2.34,3.946,3.946,0,0,1,4.08,4.23,4.944,4.944,0,0,1-.66,2.52,9.362,9.362,0,0,1-2.28,2.34c-3.84,3.12-5.1,4.32-6.27,6a12.387,12.387,0,0,0-2.22,5.85Zm6.21,0h8.19v-.87c-1.71-.09-1.83-.12-2.19-.42-.42-.36-.54-.96-.54-2.97V21.84c0-3.54.09-6.09.24-8.46a34.415,34.415,0,0,1-5.7.78v.87h1.14c.75,0,1.11.06,1.35.27s.24.21.3,2.82V30.75c0,2.16-.15,2.79-.81,3.09a5.382,5.382,0,0,1-1.98.3Z" transform="translate(-99 346.624)" fill="#fff"/>
    <path id="パス_36841" data-name="パス 36841" d="M1.044-.558a6.641,6.641,0,0,1,1.242-.18,3.636,3.636,0,0,1,.594.054,10.64,10.64,0,0,0,2.412.306,4.291,4.291,0,0,0,2.934-.99A3.015,3.015,0,0,0,9.252-3.816a3.414,3.414,0,0,0-.5-1.98c-.5-.792-1.35-1.386-3.6-2.448-2.142-1.008-2.718-1.6-2.718-2.79A2.559,2.559,0,0,1,2.952-12.6a2.342,2.342,0,0,1,1.908-.756,2.87,2.87,0,0,1,2.592,1.278,4.1,4.1,0,0,1,.5,1.89H8.55l.108-3.546a3.305,3.305,0,0,1-1.08.27,3.6,3.6,0,0,1-.666-.09,7.383,7.383,0,0,0-2.124-.306A3.686,3.686,0,0,0,2.214-13a3.363,3.363,0,0,0-1.134,2.61,2.982,2.982,0,0,0,.792,2.124,7.89,7.89,0,0,0,2.592,1.62c2.682,1.3,3.348,1.98,3.348,3.4C7.812-1.764,6.84-.9,5.2-.9A3.445,3.445,0,0,1,2.5-1.926a3.44,3.44,0,0,1-.738-2.268H1.17ZM10.44-5c0,2.79,1.728,4.644,4.338,4.644,2.736,0,4.464-1.89,4.464-4.9,0-2.826-1.728-4.68-4.356-4.68A4.348,4.348,0,0,0,11.754-8.73,5.389,5.389,0,0,0,10.44-5Zm1.674-.234c0-2.754.954-4.284,2.682-4.284,1.764,0,2.772,1.62,2.772,4.428,0,2.772-.972,4.3-2.736,4.3C13.1-.792,12.114-2.412,12.114-5.238ZM22.95-9.2h2.394v-.486H22.95c0-.288-.018-.522-.018-.7-.018-.864-.018-1.044-.018-1.314,0-1.17.36-1.746,1.062-1.746.522,0,.756.216.846.774.09.486.09.486.2.594a.976.976,0,0,0,.594.162c.54,0,.882-.216.882-.576,0-.756-.99-1.332-2.268-1.332a3.184,3.184,0,0,0-2.124.72,2.1,2.1,0,0,0-.666,1.746c0,.324.018.972.036,1.674H20.088V-9.2h1.386v6.354c0,1.674-.09,1.818-1.3,1.854v.4h4.194v-.4c-1.314-.036-1.422-.18-1.422-1.854Zm5.31,0h2.16v-.486H28.26c0-1.188.018-1.872.054-2.646l-.828.234c-.27,1.692-.81,2.394-1.872,2.484V-9.2h1.134v5.832A4.253,4.253,0,0,0,27-1.278,1.959,1.959,0,0,0,28.854-.4a3.829,3.829,0,0,0,1.818-.45l-.162-.468a2.1,2.1,0,0,1-1.134.324,1,1,0,0,1-.882-.378A3.457,3.457,0,0,1,28.26-3.15Zm2.862,8.6h4.824a12.131,12.131,0,0,0,3.042-.324,3.083,3.083,0,0,0,2.412-3.2,3.031,3.031,0,0,0-1.8-2.934,4.505,4.505,0,0,0-2.07-.486v-.126C39.8-7.956,40.9-8.91,40.9-10.62a2.546,2.546,0,0,0-1.548-2.5,8.631,8.631,0,0,0-3.312-.522H31.122v.432c.828,0,1.152.144,1.278.522a4.89,4.89,0,0,1,.09,1.332V-2.88c-.036,1.35-.036,1.368-.234,1.584-.162.18-.522.27-1.134.27Zm2.97-7.272V-13.1h1.656c2.322,0,3.438.828,3.438,2.556,0,1.764-1.116,2.682-3.276,2.682Zm0,6.732V-7.272h1.746a5.631,5.631,0,0,1,2.394.432,2.71,2.71,0,0,1,1.332,2.574,3.026,3.026,0,0,1-.9,2.394,4.255,4.255,0,0,1-2.826.738Zm16.974.126c-.684,0-.9-.054-1.008-.2a4.077,4.077,0,0,1-.2-1.548l.018-.828.018-1.71c.036-1.764.036-1.764.036-1.818a3.066,3.066,0,0,0-.522-2.034A3.052,3.052,0,0,0,47-9.936a5.411,5.411,0,0,0-2.628.576,2.139,2.139,0,0,0-1.224,1.728c0,.378.27.54.882.54a1.162,1.162,0,0,0,.63-.144c.144-.108.18-.234.2-.612A1.616,1.616,0,0,1,46.728-9.5a1.5,1.5,0,0,1,1.476.7,3.634,3.634,0,0,1,.252,1.638V-6.03a19.762,19.762,0,0,0-3.2.432c-1.746.4-2.646,1.314-2.646,2.736A2.586,2.586,0,0,0,43.4-.954,2.73,2.73,0,0,0,45.234-.4a3.562,3.562,0,0,0,2.34-.774,4.536,4.536,0,0,0,.882-.774c.072,1.206.216,1.494.756,1.494a15.24,15.24,0,0,0,1.854-.18ZM48.456-4.77a5.057,5.057,0,0,1-.414,2.448,2.763,2.763,0,0,1-2.3,1.314c-.9,0-1.512-.774-1.512-1.908a2.119,2.119,0,0,1,1.206-2.052,7.815,7.815,0,0,1,3.024-.648ZM54.45-9.882l-2.718.2v.4c1.026,0,1.242.27,1.242,1.62v4.824c0,1.674-.108,1.818-1.314,1.854v.4h4.1v-.4c-1.224-.036-1.314-.162-1.314-1.854V-5.958a4.376,4.376,0,0,1,.612-2.2A2.3,2.3,0,0,1,57.1-9.36a1.6,1.6,0,0,1,1.584.954,4.73,4.73,0,0,1,.288,1.944v3.618c0,.126-.036.792-.054.99a.967.967,0,0,1-.18.594c-.144.18-.468.252-1.062.27v.4h4.086v-.4c-1.224-.036-1.314-.162-1.314-1.854V-6.57a3.882,3.882,0,0,0-.468-2.25,2.5,2.5,0,0,0-2.358-1.116A3.231,3.231,0,0,0,54.45-8.028Zm10.4,6.138,1.4-1.566,1.836,2.988c.18.324.756,1.35.936,1.728h2.448v-.4c-.792-.126-1.1-.36-1.71-1.332l-2.52-3.96.936-1.008a6.493,6.493,0,0,1,1.764-1.6,2.59,2.59,0,0,1,1.206-.4v-.4H67.176v.4c.792.036,1.134.216,1.134.594a1.979,1.979,0,0,1-.63,1.116l-2.826,3.1v-5.706c0-.936.036-2.394.108-3.6l-2.826.144v.4c1.206.018,1.278.108,1.278,1.638v8.766c0,1.674-.09,1.818-1.278,1.854v.4H66.15v-.4c-1.206-.036-1.3-.18-1.3-1.854ZM85.266-6.552v.432c1.4.072,1.53.216,1.53,1.746v2.7a5.864,5.864,0,0,1-3.06.828,3.609,3.609,0,0,1-3.33-1.98A8.989,8.989,0,0,1,79.434-7.2a8.811,8.811,0,0,1,.918-4.266A3.77,3.77,0,0,1,83.88-13.41,3.4,3.4,0,0,1,86.742-12.2a5.049,5.049,0,0,1,.792,2.25h.558v-3.78a2.281,2.281,0,0,1-1.08.27,4.473,4.473,0,0,1-.918-.126,8.842,8.842,0,0,0-2.376-.306c-3.672,0-6.084,2.772-6.084,6.984,0,4.086,2.232,6.552,5.94,6.552a11.376,11.376,0,0,0,2.682-.36A12.766,12.766,0,0,1,88.4-1.134c-.036-.594-.054-.99-.054-1.908V-4.374c0-1.584.072-1.674,1.314-1.746v-.432Zm5.076-3.132v.4c1.026,0,1.242.27,1.242,1.62v4.824c0,1.674-.108,1.818-1.314,1.854v.4h4.122v-.4c-1.206-.036-1.3-.162-1.3-1.854V-5.67a4.683,4.683,0,0,1,.486-2.286,1.763,1.763,0,0,1,1.35-1.08c.288,0,.4.108.5.5.108.342.27.45.666.45.576,0,.954-.288.954-.738a1.241,1.241,0,0,0-1.368-1.116A3.051,3.051,0,0,0,93.06-7.794V-8.37c0-.378-.018-.612-.054-1.512ZM97.38-5c0,2.79,1.728,4.644,4.338,4.644,2.736,0,4.464-1.89,4.464-4.9,0-2.826-1.728-4.68-4.356-4.68A4.348,4.348,0,0,0,98.694-8.73,5.389,5.389,0,0,0,97.38-5Zm1.674-.234c0-2.754.954-4.284,2.682-4.284,1.764,0,2.772,1.62,2.772,4.428,0,2.772-.972,4.3-2.736,4.3C100.044-.792,99.054-2.412,99.054-5.238Zm17.6,4.644v-.4h-.126c-.936,0-1.1-.324-1.1-2.124v-3.4c0-.81.036-2,.09-3.348l-2.79.18v.4h.324a.909.909,0,0,1,.612.18c.216.162.27.5.27,1.458v2.772a4.44,4.44,0,0,1-.324,2.124,2.6,2.6,0,0,1-2.34,1.746,1.4,1.4,0,0,1-1.458-1.008,8.39,8.39,0,0,1-.252-2.934V-6.516c0-1.242.018-1.674.108-3.348l-2.79.18v.4h.324c.342.018.5.054.612.162.2.162.27.54.27,1.476v2.97a8.763,8.763,0,0,0,.252,2.79,2.4,2.4,0,0,0,2.394,1.512,3.666,3.666,0,0,0,3.2-1.944,14.681,14.681,0,0,0,.09,1.854Zm3.1-9.288-2.7.2v.4c1.026,0,1.242.27,1.242,1.62V1.026c0,1.674-.09,1.8-1.314,1.836v.414h4.158V2.862c-1.3-.054-1.386-.162-1.386-1.836V-1.6a3.451,3.451,0,0,0,2.664,1.17,3.626,3.626,0,0,0,2.97-1.386A6.191,6.191,0,0,0,126.4-5.4c0-2.826-1.386-4.536-3.69-4.536a3.339,3.339,0,0,0-2.952,1.6Zm-.072,4.77a6.008,6.008,0,0,1,.7-3.15,2.418,2.418,0,0,1,2.052-1.17c1.53,0,2.286,1.386,2.286,4.23s-.81,4.284-2.448,4.284C120.564-.918,119.682-2.322,119.682-5.112Zm24.192-4.41v-3.924a2.41,2.41,0,0,1-.936.252,3.956,3.956,0,0,1-1.332-.306,7.732,7.732,0,0,0-2.286-.4,5.772,5.772,0,0,0-3.4,1.1,7.073,7.073,0,0,0-2.538,5.85,6.9,6.9,0,0,0,1.692,4.842,5.585,5.585,0,0,0,4.14,1.764,5.51,5.51,0,0,0,3.87-1.368,6.166,6.166,0,0,0,1.476-2.376l-.522-.234a4.508,4.508,0,0,1-4.32,3.258C137-1.062,135.2-3.528,135.2-7.29a8.367,8.367,0,0,1,1.044-4.374,3.671,3.671,0,0,1,3.15-1.746,3.858,3.858,0,0,1,3.006,1.458,4.845,4.845,0,0,1,.9,2.43ZM145.3-5c0,2.79,1.728,4.644,4.338,4.644,2.736,0,4.464-1.89,4.464-4.9,0-2.826-1.728-4.68-4.356-4.68A4.348,4.348,0,0,0,146.61-8.73,5.389,5.389,0,0,0,145.3-5Zm1.674-.234c0-2.754.954-4.284,2.682-4.284,1.764,0,2.772,1.62,2.772,4.428,0,2.772-.972,4.3-2.736,4.3C147.96-.792,146.97-2.412,146.97-5.238Zm8.1-4.446v.4c1.026,0,1.242.27,1.242,1.62v4.824c0,1.674-.108,1.818-1.314,1.854v.4h4.122v-.4c-1.206-.036-1.3-.162-1.3-1.854V-5.67a4.683,4.683,0,0,1,.486-2.286,1.763,1.763,0,0,1,1.35-1.08c.288,0,.4.108.5.5.108.342.27.45.666.45.576,0,.954-.288.954-.738a1.241,1.241,0,0,0-1.368-1.116,3.051,3.051,0,0,0-2.628,2.142V-8.37c0-.378-.018-.612-.054-1.512Zm9.324-.2-2.7.2v.4c1.026,0,1.242.27,1.242,1.62V1.026c0,1.674-.09,1.8-1.314,1.836v.414h4.158V2.862c-1.3-.054-1.386-.162-1.386-1.836V-1.6a3.451,3.451,0,0,0,2.664,1.17,3.626,3.626,0,0,0,2.97-1.386A6.191,6.191,0,0,0,171.036-5.4c0-2.826-1.386-4.536-3.69-4.536a3.339,3.339,0,0,0-2.952,1.6Zm-.072,4.77a6.008,6.008,0,0,1,.7-3.15,2.418,2.418,0,0,1,2.052-1.17c1.53,0,2.286,1.386,2.286,4.23s-.81,4.284-2.448,4.284C165.2-.918,164.322-2.322,164.322-5.112ZM174.294-2.9a1.235,1.235,0,0,0-1.278,1.26A1.249,1.249,0,0,0,174.294-.36a1.245,1.245,0,0,0,1.26-1.278A1.23,1.23,0,0,0,174.294-2.9Z" transform="translate(-99 310.624)" fill="#fff"/>
  </g>
</svg>
