<svg id="グループ_85903" data-name="グループ 85903" xmlns="http://www.w3.org/2000/svg" xmlns:xlink="http://www.w3.org/1999/xlink" width="50" height="50" viewBox="0 0 50 50">
  <defs>
    <clipPath id="clip-path">
      <rect id="長方形_8957" data-name="長方形 8957" width="50" height="50" fill="none"/>
    </clipPath>
  </defs>
  <g id="グループ_85902" data-name="グループ 85902" clip-path="url(#clip-path)">
    <path id="パス_57296" data-name="パス 57296" d="M43.086,15.9a4.714,4.714,0,0,0-3.325-3.342c-2.929-.794-14.674-.794-14.674-.794s-11.745,0-14.673.794A4.714,4.714,0,0,0,7.089,15.9c-.778,2.945-.778,9.1-.778,9.1s0,6.154.778,9.1a4.712,4.712,0,0,0,3.322,3.338c2.928.794,14.673.794,14.673.794s11.745,0,14.673-.794A4.716,4.716,0,0,0,43.082,34.1c.777-2.945.777-9.1.777-9.1s0-6.152-.773-9.1M21.249,30.592V19.408L31.059,25Z" fill="#fff"/>
  </g>
</svg>
