<svg id="contents" xmlns="http://www.w3.org/2000/svg" viewBox="0 0 838.23 796.19"><defs><style>.cls-1{fill:#e94536;}</style></defs><path class="cls-1" d="M268.21,386.86h-25v-218a39.61,39.61,0,0,1,39.56-39.56H543.21v25H282.77a14.57,14.57,0,0,0-14.56,14.56Z"/><path class="cls-1" d="M636.31,692.86H282.77a39.61,39.61,0,0,1-39.56-39.57V609.61h25v43.68a14.58,14.58,0,0,0,14.56,14.57H636.31a14.58,14.58,0,0,0,14.56-14.57V261.13h25V653.29A39.61,39.61,0,0,1,636.31,692.86Z"/><rect class="cls-1" x="530.71" y="129.64" width="25" height="144.61"/><rect class="cls-1" x="530.86" y="249.63" width="144.61" height="25"/><rect class="cls-1" x="594.06" y="113.56" width="25" height="169.63" transform="translate(37.12 486.49) rotate(-44.95)"/><path class="cls-1" d="M95.74,576.57V419.08h51q29,0,37.82,2.37a41.29,41.29,0,0,1,22.66,15.41q9.13,11.88,9.13,30.67,0,14.5-5.26,24.39a43.23,43.23,0,0,1-13.37,15.52,46.21,46.21,0,0,1-16.49,7.47q-11.4,2.25-33,2.25H127.54v59.41Zm31.8-130.84v44.68h17.4q18.8,0,25.13-2.47a20.81,20.81,0,0,0,9.94-7.73,21.17,21.17,0,0,0,3.6-12.25q0-8.59-5.05-14.18a22,22,0,0,0-12.78-7q-5.7-1.08-22.88-1.07Z"/><path class="cls-1" d="M242.37,419.08h58.11q19.66,0,30,3a52.84,52.84,0,0,1,23.74,14.5,68.87,68.87,0,0,1,15,25.52q5.16,15.09,5.16,37.22,0,19.44-4.83,33.51-5.91,17.19-16.87,27.83-8.26,8.05-22.34,12.57-10.53,3.33-28.15,3.33H242.37Zm31.8,26.65V550h23.74q13.32,0,19.22-1.5A29.33,29.33,0,0,0,330,542q5.1-4.62,8.33-15.2t3.22-28.85q0-18.26-3.22-28t-9-15.26a30.25,30.25,0,0,0-14.71-7.41q-6.66-1.5-26.11-1.5Z"/><path class="cls-1" d="M401.57,576.57V419.08h108v26.65H433.37V483h65.74v26.64H433.37v66.93Z"/></svg>