<svg id="contents" xmlns="http://www.w3.org/2000/svg" viewBox="0 0 838.23 796.19"><defs><style>.cls-1{fill:#197038;}.cls-2{fill:#1a7037;}</style></defs><path class="cls-1" d="M287.28,385.42h-25v-218a39.61,39.61,0,0,1,39.56-39.57H562.28v25H301.84a14.58,14.58,0,0,0-14.56,14.57Z"/><path class="cls-1" d="M655.38,691.41H301.84a39.61,39.61,0,0,1-39.56-39.56V608.17h25v43.68a14.57,14.57,0,0,0,14.56,14.56H655.38a14.58,14.58,0,0,0,14.56-14.56V259.69h25V651.85A39.61,39.61,0,0,1,655.38,691.41Z"/><rect class="cls-2" x="549.78" y="128.19" width="25" height="144.61"/><rect class="cls-2" x="549.93" y="248.19" width="144.61" height="25"/><rect class="cls-2" x="613.13" y="112.12" width="25" height="169.63" transform="translate(43.72 499.54) rotate(-44.95)"/><path class="cls-1" d="M97.8,575.12l53.82-82.18-48.77-75.3H140l31.58,50.6,30.94-50.6h36.84l-49,76.49,53.82,81H205.87L171,520.66l-35,54.46Z"/><path class="cls-1" d="M261.41,575.12V418.93H293.2V548.59h79.06v26.53Z"/><path class="cls-1" d="M378.07,523.88l30.94-3q2.79,15.58,11.33,22.88t23.05,7.31q15.36,0,23.15-6.5t7.78-15.2a14.38,14.38,0,0,0-3.27-9.51q-3.29-3.92-11.44-6.82-5.6-1.93-25.46-6.87-25.57-6.35-35.88-15.58-14.5-13-14.5-31.69a40.44,40.44,0,0,1,6.82-22.5q6.82-10.49,19.66-16t31-5.47q29.64,0,44.63,13t15.74,34.7l-31.8,1.4q-2-12.14-8.75-17.46t-20.14-5.32q-13.86,0-21.7,5.7a11.45,11.45,0,0,0-5.05,9.77,12.07,12.07,0,0,0,4.72,9.56q6,5.06,29.22,10.53t34.32,11.33a44.25,44.25,0,0,1,17.41,16q6.29,10.16,6.28,25.08a46.36,46.36,0,0,1-7.52,25.35,45,45,0,0,1-21.27,17.57q-13.75,5.75-34.27,5.74-29.87,0-45.86-13.8T378.07,523.88Z"/></svg>