<svg xmlns="http://www.w3.org/2000/svg" width="31" height="20" viewBox="0 0 31 20">
  <g id="グループ_84" data-name="グループ 84" transform="translate(-275.5 -1897.5)">
    <rect id="長方形_128" data-name="長方形 128" width="30" height="19" rx="1" transform="translate(276 1898)" fill="#d1d0d0" stroke="#d1d0d0" stroke-width="1"/>
    <path id="link_icon_142996" d="M11.778,8h2.256a3.009,3.009,0,0,1,0,6.017H9.521a3.009,3.009,0,0,1-3.009-3.009.752.752,0,1,1,1.5,0,1.5,1.5,0,0,0,1.5,1.5h4.513a1.5,1.5,0,0,0,0-3.009H12.969A3.774,3.774,0,0,0,11.778,8ZM7.265,14.017H5.009A3.009,3.009,0,1,1,5.009,8H9.521a3.009,3.009,0,0,1,3.009,3.009.752.752,0,0,1-1.5,0,1.5,1.5,0,0,0-1.5-1.5H5.009a1.5,1.5,0,1,0,0,3.009H6.074A3.774,3.774,0,0,0,7.265,14.017Z" transform="translate(277.25 1902.727) rotate(-30)" fill="#505050"/>
  </g>
</svg>
