<svg xmlns="http://www.w3.org/2000/svg" width="31" height="20" viewBox="0 0 31 20">
  <g id="グループ_109" data-name="グループ 109" transform="translate(-50 -430)">
    <g id="グループ_100" data-name="グループ 100" transform="translate(-33.5 -689.5)">
      <rect id="長方形_113" data-name="長方形 113" width="30" height="19" rx="1" transform="translate(84 1120)" fill="#d1d0d0"/>
      <path id="長方形_113_-_アウトライン" data-name="長方形 113 - アウトライン" d="M1-.5H29A1.5,1.5,0,0,1,30.5,1V18A1.5,1.5,0,0,1,29,19.5H1A1.5,1.5,0,0,1-.5,18V1A1.5,1.5,0,0,1,1-.5Zm28,19a.5.5,0,0,0,.5-.5V1A.5.5,0,0,0,29,.5H1A.5.5,0,0,0,.5,1V18a.5.5,0,0,0,.5.5Z" transform="translate(84 1120)" fill="#d1d0d0"/>
    </g>
    <g id="flag_icon-icons.com_69377" transform="translate(49.994 424.842)">
      <g id="グループ_103" data-name="グループ 103" transform="translate(8.005 8.701)">
        <path id="パス_17" data-name="パス 17" d="M43.5,15.662l-1.557-2.2,1.557-3.3a.606.606,0,0,0-.092-.55.606.606,0,0,0-.55-.092,5.518,5.518,0,0,1-5.5,0A7.83,7.83,0,0,0,34.16,8.7a7.306,7.306,0,0,0-3.206.824.694.694,0,0,0-.183.366V20.7h-.733a.458.458,0,0,0,0,.916h2.29a.458.458,0,1,0,0-.916h-.641V16.211a6.391,6.391,0,0,1,2.564-.641A5.764,5.764,0,0,1,37,16.3a7.83,7.83,0,0,0,3.206.824,7.306,7.306,0,0,0,3.206-.824c.092-.092.183-.183.183-.275A.55.55,0,0,0,43.5,15.662Zm-3.389.549a5.764,5.764,0,0,1-2.748-.733,7.83,7.83,0,0,0-3.206-.824,6.654,6.654,0,0,0-2.564.55V10.258a6.391,6.391,0,0,1,2.564-.641,5.764,5.764,0,0,1,2.748.733,7.83,7.83,0,0,0,3.206.824,6.093,6.093,0,0,0,2.015-.366L40.938,13.28a.409.409,0,0,0,0,.458l1.374,2.015A5.273,5.273,0,0,1,40.114,16.211Z" transform="translate(-29.581 -8.701)" fill="#505050"/>
      </g>
    </g>
  </g>
</svg>
