<svg id="contents" xmlns="http://www.w3.org/2000/svg" viewBox="0 0 838.23 796.19"><defs><style>.cls-1{fill:#636363;}</style></defs><path class="cls-1" d="M62,577.12V419.64H93L157.4,524.81V419.64H187V577.12H155L91.55,474.43V577.12Z"/><path class="cls-1" d="M198.57,577.12V419.64H315.34v26.64h-85v34.91h79.06v26.54H230.37v42.86h88v26.53Z"/><path class="cls-1" d="M363.25,577.12l-37.6-157.48H358.2l23.74,108.18,28.79-108.18h37.81l27.61,110,24.17-110h32L494.09,577.12H460.36L429,459.39,397.73,577.12Z"/><path class="cls-1" d="M531.7,525.88l30.93-3q2.79,15.58,11.34,22.88t23,7.31q15.36,0,23.15-6.5t7.79-15.2a14.39,14.39,0,0,0-3.28-9.51q-3.28-3.92-11.44-6.82-5.6-1.93-25.46-6.87-25.56-6.35-35.88-15.58-14.5-13-14.5-31.69a40.44,40.44,0,0,1,6.82-22.5q6.82-10.49,19.66-16t31-5.47q29.65,0,44.63,13t15.74,34.7l-31.8,1.4q-2-12.14-8.75-17.46t-20.14-5.32q-13.86,0-21.7,5.7a11.45,11.45,0,0,0-5.05,9.77,12,12,0,0,0,4.73,9.56q6,5.06,29.22,10.53t34.32,11.33a44.29,44.29,0,0,1,17.4,16q6.28,10.16,6.28,25.08a46.28,46.28,0,0,1-7.52,25.35A45,45,0,0,1,631,574.17q-13.74,5.75-34.26,5.74-29.87,0-45.87-13.8T531.7,525.88Z"/><path class="cls-1" d="M701,691.41H338.22a36.38,36.38,0,0,1-36.34-36.34V608.34h25v46.73a11.35,11.35,0,0,0,11.34,11.34H701a11.35,11.35,0,0,0,11.34-11.34V164.14A11.36,11.36,0,0,0,701,152.8H338.22a11.36,11.36,0,0,0-11.34,11.34V385.42h-25V164.14a36.39,36.39,0,0,1,36.34-36.34H701a36.39,36.39,0,0,1,36.34,36.34V655.07A36.38,36.38,0,0,1,701,691.41Z"/><path class="cls-1" d="M748.16,734.63H385.39a36.38,36.38,0,0,1-36.34-36.34V678.91h25v19.38a11.35,11.35,0,0,0,11.34,11.34H748.16a11.36,11.36,0,0,0,11.34-11.34V207.36A11.36,11.36,0,0,0,748.16,196H724.84V171h23.32a36.38,36.38,0,0,1,36.34,36.34V698.29A36.38,36.38,0,0,1,748.16,734.63Z"/></svg>